<svg width="788" height="788" viewBox="0 0 788 788" fill="none" xmlns="http://www.w3.org/2000/svg">
<path fill-rule="evenodd" clip-rule="evenodd" d="M542.531 283.685C482.399 243.882 361.931 248.205 295.737 272.591C231.149 293.074 208.536 350.149 197.812 411.812C184.777 481.115 186.529 581.018 280.263 579.809C293.441 586.182 308.04 588.946 321.675 594.224C340.337 600.676 358.635 608.166 377.572 613.817C414.87 625.829 456.374 624.784 491.755 607.207C511.302 597.765 519.393 583.06 532.177 567.391C569.367 521.806 588.08 456.567 586.404 398.604C583.463 357.789 576.712 310.541 542.531 283.685Z" fill="white"/>
<path fill-rule="evenodd" clip-rule="evenodd" d="M618.624 451.695C612.454 413.395 610.744 374.445 602.664 336.445C595.064 300.686 580.854 266.895 556.024 239.635C533.804 215.245 505.074 197.335 474.234 185.985C414.154 163.875 345.054 168.875 286.934 194.686C232.534 218.835 189.144 263.515 163.854 317.135C147.424 351.975 139.164 389.015 135.494 427.245C131.424 469.715 130.984 512.625 129.324 555.245C129.124 560.505 128.834 565.765 128.764 571.026C128.684 576.785 131.014 581.835 132.914 587.195C133.044 587.575 133.234 587.936 133.464 588.276C132.034 588.455 130.604 588.665 129.174 588.895C127.574 589.145 127.644 591.745 129.174 592.055C142.124 594.695 155.434 595.065 168.604 595.715C182.254 596.395 195.924 596.766 209.594 597.225C222.924 597.675 236.254 598.125 249.584 598.575C256.584 598.815 263.584 599.055 270.584 599.285C273.914 599.395 277.244 599.516 280.584 599.625C282.244 599.686 283.914 599.734 285.574 599.795C286.924 599.835 289.124 600.695 289.264 599.705C289.514 599.856 289.784 599.984 290.074 600.075C290.394 600.245 290.704 600.445 291.004 600.665C292.634 601.785 295.104 601.645 296.754 600.665C296.904 600.575 297.064 600.475 297.224 600.375C298.454 599.645 299.314 598.585 299.794 597.385C306.634 605.645 318.744 596.365 311.744 587.625C307.984 582.925 270.584 467.695 286.064 379.915L348.144 371.695C355.711 370.928 366.534 369.782 380.614 368.255C384.061 357.008 386.277 349.575 387.264 345.955C387.374 345.555 387.484 345.145 387.604 344.745C389.084 347.356 390.574 349.955 392.074 352.555L399.734 368.125C475.107 366.865 522.034 366.295 540.514 366.415C540.984 366.415 543.214 400.115 542.204 414.955C540.164 444.755 537.994 474.535 534.974 504.255C533.046 523.285 528.4 541.948 521.479 559.488C510.547 587.195 478.804 613.53 447.854 613.53C428.588 613.53 385.054 597.927 378.714 594.776C372.374 591.625 368.596 600.225 374.374 603.665C386.078 610.633 418.339 625.415 447.854 625.415C490.717 625.415 523.074 584.745 527.044 578.915C566.074 576.776 605.994 577.765 644.974 581.635C648.244 581.955 651.064 578.015 650.014 575.005C636.014 534.936 625.364 493.606 618.624 451.695Z" fill="black"/>
</svg>
