<svg width="900" height="900" viewBox="0 0 900 900" fill="none" xmlns="http://www.w3.org/2000/svg">
<path fill-rule="evenodd" clip-rule="evenodd" d="M510.191 349.714C490.101 296.858 453.885 258.158 392.831 282.465C391.08 281.273 388.795 280.953 386.605 282.349C353.346 303.233 329.396 336.714 319.017 374.467C312.701 375.668 306.563 377.763 301.081 381.198C289.166 388.663 281.15 400.543 273.636 412.113C271.376 415.591 273.468 421.35 277.715 422.139C279.559 422.483 281.387 422.688 283.205 422.741C282.762 424.348 282.18 425.9 281.438 427.323C278.752 432.477 283.826 437.948 288.582 436.539C289.109 436.819 289.662 437.048 290.235 437.221C290.3 440.14 291.8 444.048 294.769 444.638C299.571 445.668 305.952 441.993 304.819 436.623C306.269 436.878 307.715 436.91 309.123 436.733C309.281 439.529 309.232 442.448 309.618 445.027C310.88 457.184 323.027 465.35 334.61 461.652C335.321 465.44 336.155 470.762 339.886 472.817C344.247 485.053 351.779 499.017 364.115 504.593C363.017 507.406 363.613 510.829 366.92 512.712C389.501 525.586 416.604 529.942 442.133 525.156C452.335 524.548 462.276 522.243 471.817 517.331C478.775 513.749 485.172 509.201 491.416 504.512C497.663 499.821 504.343 495.253 509.329 489.163C514.745 482.548 517.267 474.766 518.903 466.483C526.4 428.884 523.811 391.966 510.191 356.15C493.333 311.816 527.044 394.051 510.191 349.714Z" fill="white"/>
<path fill-rule="evenodd" clip-rule="evenodd" d="M413.063 272.164C423.346 271.439 433.815 273.172 443.606 276.272C459.223 281.215 473.565 289.939 485.347 301.296C497.491 313 506.472 327.43 511.933 343.368C518.519 362.589 519.504 383.112 521.358 403.176C522.295 413.314 523.838 423.296 525.442 433.335L525.695 434.921C527.262 444.702 528.144 454.595 525.979 464.361C522.38 480.591 511.592 494.369 498.786 504.549C472.478 525.463 431.525 538.213 400.895 518.969C396.156 515.991 400.646 508.377 405.272 511.48C408.528 513.664 411.977 515.579 415.676 516.901C431.13 522.424 448.103 520.456 463.377 515.319C478.428 510.257 492.871 501.703 503.977 490.288C515.643 478.299 522.108 463.489 521.174 446.638C520.617 436.612 518.333 426.771 517.065 416.827C515.942 408.019 515.268 399.164 514.492 390.32L514.208 387.139C512.563 369.122 510.199 350.61 502.001 334.255C495.106 320.496 485.009 308.255 472.868 298.802C460.157 288.905 444.975 281.983 429.046 279.401C410.314 276.365 392.382 281.886 376.756 292.163C362.898 301.277 350.983 313.456 341.847 327.276C337.417 333.977 333.642 341.133 330.383 348.472C327.312 355.386 325.195 362.633 322.725 369.76C324.757 369.7 326.823 369.778 328.921 370.01C339.683 371.202 349.709 376.779 356.092 385.573C363.892 396.319 361.783 409.509 364.83 421.73C365.066 422.679 364.665 423.607 363.852 424.132C359.233 427.117 353.051 427.217 348.58 423.855C344.699 420.937 342.878 415.662 344.449 411.053C344.654 410.453 345.529 410.559 345.553 411.203C345.848 419.047 353.126 425.087 360.259 421.354C357.199 410.816 358.809 399.047 352.551 389.529C341.474 372.682 318.552 371.986 302.451 381.483C293.978 386.48 287.271 393.994 282.277 402.399L280.839 404.839C278.924 408.099 276.897 411.787 276.5 415.377C276.271 417.449 277.036 419.395 279.412 418.352C281.335 417.508 282.824 415.538 283.966 413.845C285.914 410.957 290.39 413.452 288.781 416.527L288.726 416.628C286.385 420.776 284.943 425.347 284.679 430.11L284.611 431.43C284.567 432.391 284.535 433.757 284.739 433.807C284.983 433.867 286.677 431.911 286.959 431.64C288.318 430.335 289.718 429.268 291.61 428.92C294.097 428.465 296.606 431.541 294.447 433.559L294.357 433.64C292.43 435.315 292.516 438.655 294.644 440.222C297.648 442.432 301.346 438.824 301.782 435.853L301.797 435.743C302.182 432.533 306.641 432.42 306.883 435.743C307.409 442.956 298.822 449.001 292.288 445.362C289.705 443.924 288.062 441.291 287.548 438.469C286.723 438.905 285.833 439.207 284.893 439.29C281.831 439.562 279.654 437.409 279.159 434.519C278.582 431.153 278.924 427.548 279.811 424.052C278.148 424.453 276.399 424.3 274.641 423.285C269.321 420.216 270.849 413.388 272.857 408.778C281.432 389.103 299.196 371.249 321.205 369.832C321.326 366.361 321.796 363.079 322.566 359.603C330.094 325.602 354.481 294.118 386.229 279.403C394.713 275.47 403.71 272.825 413.063 272.164ZM329.806 407.984L330.108 407.916C333.537 407.177 342.564 406.309 341.476 412.081C341.424 412.353 341.03 412.319 340.96 412.081C339.894 408.452 332.655 411.354 330.542 412.228C327.628 413.432 324.754 415.208 322.375 417.272C317.166 421.793 313.675 428.164 313.144 435.083C312.617 441.946 314.608 449.36 319.559 454.325C321.986 456.758 325.085 458.41 328.565 458.532C331.691 458.64 335.146 456.206 338.031 457.632C338.599 457.913 339.05 458.684 338.999 459.319C338.901 460.521 338.363 461.457 337.563 462.183C342.393 470.985 346.346 480.301 352.507 488.305C355.599 492.321 359.102 496.04 363.07 499.205C364.955 500.71 367.005 502.031 369.119 503.192C371.597 504.554 373.74 505.406 375.508 507.713C377.016 509.68 375.508 513.484 373.023 513.824C367.17 514.621 361.482 509.889 357.185 506.344C352.893 502.803 349.182 498.434 346.116 493.799C340.229 484.897 336.201 474.397 334.59 463.773C332.721 464.366 330.616 464.547 329.032 464.55C324.819 464.56 320.796 463.044 317.485 460.483C305.363 451.108 304.016 431.859 312.57 419.72C316.664 413.912 322.884 409.621 329.806 407.984ZM329.881 430.31C332.692 430.063 335.501 430.507 338.142 431.465L339.232 431.86C341.532 432.701 343.981 433.69 345.642 435.414C348.181 438.051 345.653 442.618 342.037 441.608C338.039 440.491 334.79 437.124 330.793 435.711C327.22 434.449 323.174 434.628 320.003 436.802C319.585 437.089 319.034 436.522 319.308 436.105C321.733 432.412 325.562 430.688 329.881 430.31Z" fill="black"/>
</svg>
