<svg width="788" height="788" viewBox="0 0 788 788" fill="none" xmlns="http://www.w3.org/2000/svg">
<path fill-rule="evenodd" clip-rule="evenodd" d="M583.851 310.084C548.67 217.527 485.253 149.76 378.341 192.324C375.274 190.236 371.272 189.676 367.437 192.121C309.198 228.69 267.259 287.319 249.084 353.43C238.023 355.533 227.275 359.201 217.675 365.216C196.811 378.289 182.774 399.091 169.616 419.351C165.659 425.442 169.323 435.526 176.759 436.909C179.989 437.511 183.19 437.869 186.373 437.963C185.598 440.776 184.578 443.494 183.279 445.987C178.576 455.011 187.461 464.592 195.788 462.125C196.712 462.614 197.68 463.016 198.683 463.318C198.797 468.43 201.424 475.273 206.623 476.306C215.031 478.11 226.205 471.675 224.221 462.271C226.761 462.718 229.292 462.774 231.759 462.464C232.035 467.361 231.949 472.471 232.625 476.988C234.835 498.276 256.105 512.576 276.389 506.1C277.633 512.733 279.094 522.053 285.627 525.651C293.265 547.078 306.454 571.531 328.056 581.294C326.133 586.221 327.176 592.215 332.968 595.512C372.509 618.055 419.969 625.683 464.673 617.302C482.539 616.238 499.946 612.201 516.654 603.6C528.838 597.328 540.039 589.363 550.973 581.152C561.913 572.938 573.61 564.94 582.342 554.275C591.826 542.692 596.241 529.064 599.106 514.559C612.235 448.72 607.7 384.073 583.851 321.355C554.33 243.72 613.362 387.723 583.851 310.084Z" fill="white"/>
<path fill-rule="evenodd" clip-rule="evenodd" d="M413.769 174.288C431.774 173.017 450.107 176.052 467.253 181.481C494.599 190.137 519.713 205.413 540.346 225.3C561.611 245.795 577.338 271.064 586.901 298.973C598.433 332.631 600.159 368.569 603.405 403.704C605.045 421.456 607.747 438.937 610.556 456.516L611 459.293C613.744 476.421 615.288 493.744 611.497 510.845C605.195 539.267 586.303 563.393 563.878 581.22C517.811 617.842 446.097 640.169 392.46 606.47C384.162 601.256 392.025 587.923 400.126 593.356C405.827 597.181 411.867 600.534 418.344 602.849C445.406 612.52 475.127 609.075 501.873 600.079C528.23 591.214 553.521 576.235 572.969 556.247C593.397 535.252 604.718 509.319 603.082 479.811C602.107 462.254 598.107 445.022 595.887 427.608C593.92 412.185 592.741 396.678 591.382 381.192L590.884 375.622C588.003 344.071 583.864 311.655 569.509 283.016C557.434 258.922 539.753 237.487 518.493 220.933C496.235 203.602 469.65 191.481 441.756 186.96C408.954 181.644 377.554 191.311 350.191 209.307C325.923 225.267 305.059 246.595 289.061 270.795C281.303 282.529 274.694 295.06 268.987 307.911C263.609 320.019 259.901 332.709 255.576 345.189C259.135 345.083 262.753 345.22 266.427 345.626C285.271 347.714 302.828 357.48 314.005 372.879C327.664 391.696 323.972 414.794 329.307 436.194C329.72 437.855 329.018 439.481 327.595 440.4C319.506 445.628 308.68 445.802 300.851 439.915C294.056 434.806 290.866 425.569 293.617 417.498C293.976 416.446 295.508 416.632 295.551 417.76C296.068 431.495 308.811 442.072 321.302 435.536C315.944 417.083 318.764 396.474 307.805 379.806C288.408 350.306 248.268 349.087 220.075 365.717C205.237 374.468 193.493 387.626 184.748 402.343L182.229 406.616C178.876 412.324 175.326 418.782 174.631 425.069C174.23 428.697 175.569 432.106 179.731 430.278C183.098 428.8 185.705 425.351 187.705 422.386C191.116 417.329 198.954 421.698 196.137 427.083L196.041 427.259C191.941 434.523 189.416 442.528 188.953 450.869L188.835 453.179C188.757 454.862 188.702 457.255 189.058 457.342C189.485 457.447 192.452 454.022 192.946 453.548C195.326 451.262 197.777 449.394 201.09 448.785C205.445 447.987 209.839 453.375 206.059 456.908L205.901 457.05C202.527 459.983 202.677 465.832 206.404 468.575C211.664 472.446 218.14 466.127 218.903 460.925L218.929 460.733C219.604 455.112 227.411 454.913 227.835 460.733C228.756 473.363 213.719 483.949 202.278 477.577C197.754 475.059 194.878 470.448 193.977 465.506C192.533 466.269 190.975 466.798 189.328 466.944C183.966 467.419 180.154 463.649 179.287 458.589C178.277 452.694 178.876 446.382 180.429 440.26C177.517 440.962 174.454 440.694 171.375 438.917C162.06 433.542 164.735 421.586 168.252 413.514C183.267 379.06 214.375 347.797 252.915 345.315C253.126 339.236 253.95 333.489 255.298 327.402C268.48 267.863 311.184 212.731 366.779 186.963C381.635 180.077 397.39 175.445 413.769 174.288ZM267.975 412.124L268.504 412.005C274.51 410.71 290.316 409.19 288.411 419.298C288.321 419.773 287.63 419.715 287.507 419.298C285.641 412.943 272.965 418.025 269.264 419.555C264.162 421.663 259.129 424.773 254.963 428.388C245.842 436.304 239.728 447.46 238.798 459.576C237.876 471.595 241.363 484.577 250.033 493.271C254.283 497.532 259.708 500.425 265.802 500.638C271.277 500.828 277.326 496.566 282.378 499.062C283.374 499.554 284.163 500.905 284.073 502.017C283.903 504.122 282.961 505.761 281.559 507.032C290.017 522.445 296.939 538.759 307.728 552.775C313.142 559.807 319.277 566.319 326.224 571.861C329.526 574.496 333.116 576.81 336.818 578.843C341.156 581.228 344.91 582.72 348.006 586.76C350.646 590.205 348.005 596.866 343.653 597.46C333.404 598.856 323.444 590.57 315.92 584.363C308.403 578.161 301.906 570.511 296.537 562.394C286.227 546.807 279.174 528.419 276.354 509.816C273.08 510.854 269.394 511.171 266.621 511.177C259.243 511.194 252.198 508.54 246.4 504.055C225.174 487.638 222.815 453.931 237.794 432.675C244.962 422.504 255.854 414.989 267.975 412.124ZM268.108 451.218C273.03 450.786 277.948 451.563 282.574 453.241L284.481 453.932C288.51 455.405 292.798 457.137 295.707 460.157C300.152 464.773 295.726 472.771 289.394 471.002C282.393 469.046 276.703 463.15 269.704 460.677C263.448 458.467 256.362 458.78 250.81 462.586C250.077 463.089 249.113 462.097 249.592 461.367C253.839 454.9 260.544 451.881 268.108 451.218Z" fill="black"/>
</svg>
