<svg width="900" height="900" viewBox="0 0 900 900" fill="none" xmlns="http://www.w3.org/2000/svg">
<path fill-rule="evenodd" clip-rule="evenodd" d="M513.159 335.29C495.996 311.667 464.394 304.874 436.989 310.619C383.411 320.385 332.224 361.261 322.757 416.85C307.988 450.481 317.419 503.453 360.373 507.41C366.488 507.755 372.545 506.347 378.671 507.107C416.06 513.08 460.241 538.645 493.337 508.496C494.996 509.684 497.181 510.259 499.041 509.54C513.128 504.096 513.79 488.347 514.991 475.402C516.543 458.675 517.998 441.939 519.355 425.195C519.84 396.321 531.285 360.24 513.159 335.29Z" fill="white"/>
<path fill-rule="evenodd" clip-rule="evenodd" d="M409.285 275.095C431.842 273.896 473.405 284.227 493.084 296.34C525.147 316.076 527.633 355.444 526.325 362.251C525.828 364.849 524.241 367.253 521.756 366.454C523.864 384.339 523.698 394.562 524.052 412.551L524.295 424.561C524.453 432.567 524.589 440.574 524.623 448.584C525.434 448.282 526.234 448.653 526.531 449.43C526.605 449.618 526.348 449.721 526.222 449.613C524.795 448.367 525.811 451.205 526.302 451.783C526.982 452.577 528.112 453.325 528.906 454.004L531.062 455.871L533.218 457.733C536.003 460.136 538.697 462.544 541.295 465.132L542.001 465.842C546.735 470.651 552.668 475.304 555.615 481.524C558.43 487.462 557.562 494.195 552.885 498.929C551.183 500.648 549.196 501.962 547.038 502.956C550.881 509.283 551.44 517.65 547.432 524.159C543.417 530.693 535.696 534.113 528.261 533.588C528.032 534.519 527.678 535.427 527.21 536.289C524.262 541.707 518.397 542.41 512.836 542.12L512.619 542.108C500.102 541.388 488.058 538.254 477.093 532.16C473.29 532.417 469.898 529.293 469.156 525.867C467.157 525.793 465.147 525.627 463.097 525.393C457.015 524.691 450.779 523.383 445.416 520.294C444.594 519.82 444.977 518.569 445.89 518.546C452.423 518.397 458.962 518.849 465.484 518.141C471.468 517.495 477.847 515.845 483.426 513.601C493.454 509.558 502.055 502.699 506.8 493.196C512.945 480.895 512.385 466.122 513.053 452.759C513.794 437.968 514.705 423.19 515.679 408.413L516.152 401.33C517.098 387.525 517.881 380.139 520.277 365.809C513.053 366.454 483.044 355.654 473.713 337.986C456.001 375.571 366.266 360.189 362.286 418.05C362.253 418.54 361.475 418.404 361.447 417.935L361.373 416.617C361.337 415.965 361.305 415.324 361.282 414.687L361.264 414.052L359.854 414.07C359.854 414.246 359.602 414.309 359.539 414.121C358.209 410.346 351.87 411.562 349.112 412.459C346.628 413.27 344.286 414.514 342.185 416.051C337.965 419.135 334.692 423.287 333.607 428.477C331.546 438.334 337.822 448.374 346.154 453.13C351.407 456.129 357.164 458.065 362.201 461.462C366.649 464.46 370.795 467.973 374.387 471.964C388.618 487.777 396.99 511.762 390.257 532.634C389.743 534.228 388.384 536.049 386.585 536.306C383.61 536.735 380.635 536.301 378.967 533.468C378.316 532.36 378.008 531.098 378.076 529.853C376.923 533.816 373.182 537.734 369.733 539.207C365.033 541.217 359.739 540.617 355.593 538.025L355.07 538.412C348.327 543.375 340.795 547.898 332.157 546.985C325.898 546.323 319.753 543.136 316.293 538.111C311.69 540.698 306.773 542.759 301.702 544.164L301.162 544.312C294.186 546.211 285.286 547.953 278.774 544.095C272.52 540.389 270.442 532.297 271.909 525.541C272.086 524.736 272.309 523.954 272.583 523.195C267.878 523.445 263.178 522.995 258.712 521.613C254.149 520.202 249.798 517.489 247.611 513.092C245.144 508.118 245.8 502.465 247.639 497.4C250.58 489.273 255.308 482.043 261.196 475.745C266.858 469.683 273.688 464.54 280.785 460.253L281.982 459.537C288.371 455.726 296.077 451.261 303.626 451.554C303.604 451.457 303.586 451.365 303.575 451.269C302.433 442.857 302.564 434.28 302.296 425.799C302.05 417.999 301.77 410.198 301.588 402.391C301.291 389.119 301.388 375.791 303.118 362.611C304.654 350.915 307.418 339.511 312.461 328.803C317.755 317.554 325.727 307.954 335.572 300.405C356.233 284.558 383.524 276.466 409.285 275.095ZM339.107 430.979C341.357 426.736 346.479 425.4 350.973 426.165C357.272 427.238 361.555 432.744 365.233 437.478C369.093 442.44 361.041 447.117 358.968 442.309L358.477 441.174C356.814 437.361 354.849 433.34 351.453 430.853C347.844 428.215 342.75 427.827 339.564 431.333C339.335 431.59 338.953 431.259 339.107 430.979Z" fill="black"/>
</svg>
