<svg width="788" height="788" viewBox="0 0 788 788" fill="none" xmlns="http://www.w3.org/2000/svg">
<path fill-rule="evenodd" clip-rule="evenodd" d="M584.825 266.573C554.77 225.207 499.432 213.311 451.442 223.372C357.622 240.474 267.988 312.051 251.41 409.395C225.548 468.286 242.063 561.045 317.279 567.975C327.987 568.579 338.594 566.114 349.321 567.445C414.793 577.903 492.16 622.671 550.115 569.876C553.02 571.957 556.846 572.963 560.103 571.704C584.771 562.171 585.93 534.594 588.033 511.925C590.75 482.634 593.298 453.327 595.674 424.008C596.523 373.446 616.565 310.263 584.825 266.573Z" fill="white"/>
<path fill-rule="evenodd" clip-rule="evenodd" d="M402.93 161.166C442.43 159.066 515.211 177.158 549.671 198.369C605.818 232.928 610.17 301.866 607.88 313.786C607.01 318.335 604.23 322.545 599.88 321.146C603.57 352.465 603.28 370.366 603.9 401.866L604.326 422.897C604.602 436.917 604.84 450.939 604.9 464.965C606.32 464.436 607.72 465.085 608.24 466.446C608.37 466.776 607.92 466.956 607.7 466.766C605.2 464.585 606.98 469.555 607.84 470.566C609.03 471.956 611.01 473.266 612.4 474.456L616.175 477.725L619.95 480.986C624.827 485.194 629.544 489.41 634.094 493.942L635.33 495.186C643.62 503.606 654.01 511.755 659.17 522.646C664.1 533.045 662.58 544.835 654.39 553.125C651.41 556.135 647.93 558.436 644.15 560.176C650.88 571.256 651.86 585.906 644.84 597.305C637.81 608.746 624.29 614.736 611.27 613.816C610.87 615.446 610.25 617.036 609.43 618.545C604.267 628.033 593.998 629.265 584.259 628.757L583.88 628.736C561.96 627.475 540.87 621.986 521.67 611.316C515.01 611.766 509.07 606.295 507.77 600.295C504.27 600.166 500.75 599.875 497.16 599.465C486.51 598.236 475.59 595.946 466.2 590.536C464.76 589.706 465.43 587.516 467.03 587.475C478.47 587.215 489.92 588.006 501.34 586.766C511.82 585.635 522.99 582.746 532.76 578.816C550.32 571.736 565.38 559.726 573.69 543.085C584.45 521.545 583.47 495.676 584.64 472.276C585.936 446.374 587.532 420.497 589.238 394.621L590.066 382.218C591.722 358.043 593.094 345.109 597.29 320.016C584.64 321.146 532.091 302.233 515.75 271.295C484.735 337.11 327.599 310.175 320.63 411.496C320.571 412.355 319.21 412.116 319.16 411.295L319.031 408.986C318.968 407.845 318.911 406.722 318.872 405.608L318.84 404.496L316.37 404.526C316.37 404.835 315.93 404.946 315.82 404.616C313.49 398.005 302.39 400.135 297.56 401.706C293.21 403.125 289.11 405.305 285.43 407.996C278.04 413.396 272.31 420.666 270.41 429.755C266.8 447.016 277.79 464.596 292.38 472.926C301.58 478.176 311.66 481.566 320.48 487.516C328.27 492.766 335.53 498.916 341.82 505.906C366.74 533.596 381.4 575.596 369.61 612.146C368.71 614.936 366.33 618.125 363.18 618.576C357.97 619.326 352.76 618.566 349.84 613.606C348.7 611.666 348.16 609.456 348.28 607.276C346.26 614.215 339.71 621.076 333.67 623.656C325.44 627.176 316.17 626.125 308.91 621.585L307.993 622.264C296.186 630.954 282.997 638.875 267.87 637.276C256.91 636.116 246.15 630.536 240.09 621.736C232.03 626.266 223.42 629.875 214.54 632.335L213.595 632.595C201.378 635.921 185.794 638.971 174.39 632.215C163.44 625.725 159.8 611.555 162.37 599.725C162.68 598.316 163.07 596.946 163.55 595.616C155.31 596.055 147.08 595.266 139.26 592.846C131.27 590.375 123.65 585.625 119.82 577.926C115.5 569.215 116.65 559.316 119.87 550.446C125.02 536.215 133.3 523.555 143.61 512.526C153.525 501.911 165.484 492.905 177.913 485.398L180.009 484.145C191.197 477.471 204.69 469.652 217.91 470.166C217.87 469.996 217.84 469.835 217.82 469.666C215.82 454.936 216.05 439.916 215.58 425.066C215.15 411.406 214.66 397.746 214.34 384.076C213.82 360.835 213.99 337.496 217.02 314.416C219.71 293.936 224.55 273.965 233.38 255.215C242.65 235.516 256.61 218.706 273.85 205.486C310.03 177.736 357.82 163.566 402.93 161.166ZM280.04 434.136C283.98 426.706 292.95 424.366 300.82 425.706C311.85 427.586 319.35 437.227 325.79 445.517C332.55 454.206 318.45 462.396 314.82 453.977L313.96 451.988C311.047 445.311 307.606 438.27 301.66 433.916C295.34 429.296 286.42 428.616 280.84 434.756C280.44 435.206 279.77 434.626 280.04 434.136Z" fill="black"/>
</svg>
