<svg width="788" height="788" viewBox="0 0 788 788" fill="none" xmlns="http://www.w3.org/2000/svg">
<path fill-rule="evenodd" clip-rule="evenodd" d="M614.502 436.758C612.126 406.014 615.808 373.79 603.954 344.568C583.286 296.083 525.33 279.916 480.399 261.457C462.399 256.139 401.83 255.395 380.754 248.356C333.054 232.424 321.657 213.442 283.755 243.777C277.357 248.959 273.354 254.59 270.434 262.285L270.554 262.318C269.72 265.526 270.614 268.728 272.493 271.173C256.059 287.971 249.182 313.155 257.614 335.516C285.131 393.705 283.837 425.167 274.971 487.723C263.393 546.123 289.85 567.456 333.666 599.232C331.882 602.691 331.512 607.288 333.838 610.34C384.505 681.539 480.038 715.534 561.891 679.396C595.116 664.608 609.949 629.224 618.414 597.297C628.275 561.548 631.305 523.878 623.277 487.462C620.039 470.62 615.821 453.901 614.502 436.758Z" fill="white"/>
<path fill-rule="evenodd" clip-rule="evenodd" d="M322.244 96.1381C328.394 95.2146 333.039 99.0303 335.248 104.408L335.364 104.698C336.074 106.528 336.864 108.308 337.714 110.058C353.104 102.508 375.064 104.448 384.804 119.738C391.754 130.658 387.514 143.618 384.894 155.198L383.174 162.828C386.499 164.944 389.006 168.733 388.888 172.656L388.874 172.958L388.174 183.598C390.394 181.348 392.424 178.898 394.234 176.288C395.484 173.998 396.834 171.748 398.284 169.568C406.814 156.738 425.964 167.888 418.924 181.628C417.574 184.278 416.054 186.788 414.424 189.208C412.584 192.778 411.074 196.448 409.914 200.218C413.244 201.668 415.804 204.888 416.074 209.748C416.704 221.098 410.744 230.568 401.264 236.518C398.474 238.268 395.594 238.608 392.984 237.958C392.524 238.578 392.064 239.198 391.624 239.828C395.404 242.898 398.814 246.398 401.744 250.278C410.564 248.958 419.434 248.338 428.304 248.318C439.144 243.008 452.124 243.118 463.774 245.108C471.274 246.388 478.474 248.878 485.854 250.668C493.634 252.548 501.534 252.618 509.404 253.898C519.324 255.508 528.024 260.088 533.494 267.398C539.504 267.578 545.824 270.038 551.064 273.378C563.264 281.158 575.394 289.048 587.564 296.878C592.235 299.884 593.981 304.683 593.122 310.036L593.064 310.378L592.654 312.598L593.617 313.964C597.341 319.224 601.394 324.733 603.804 330.538C608.264 336.968 612.294 343.708 615.864 350.658C620.674 359.998 624.644 369.898 627.334 380.058C628.004 382.628 628.674 385.218 629.114 387.838C629.744 391.538 628.774 394.408 628.244 397.958C627.584 402.458 627.344 407.018 626.644 411.528C626.174 414.518 623.634 415.988 620.974 416.068C621.974 423.678 622.694 431.338 623.384 438.938C624.354 449.798 625.014 460.688 625.584 471.578C628.524 475.848 634.534 479.228 638.874 480.398C644.884 482.008 651.184 480.258 656.864 478.208C660.434 476.918 663.364 481.408 661.624 484.408C656.154 493.828 644.454 493.788 635.594 489.618C631.844 487.858 628.554 485.308 626.114 481.988C626.264 485.148 626.424 488.308 626.584 491.478L626.733 494.349C628.535 527.881 632.424 562.567 626.124 595.768C615.214 653.278 567.622 697.068 509.484 700.468C478.976 702.253 453.571 693.241 440.937 688.215C428.304 683.188 433.214 672.939 441.984 675.869C457.092 680.916 484.846 688.435 509.684 685.188C568.224 677.535 617.864 648.276 612.764 522.258C612.041 504.387 609.814 486.508 609.334 468.638C608.874 451.168 609.044 433.688 608.274 416.228L608.017 410.271C607.717 403.31 607.395 396.317 606.874 389.348C606.244 386.648 605.724 383.908 604.954 381.258C602.864 374.048 600.134 367.038 596.744 360.348C595.994 360.918 595.154 361.328 594.244 361.488C587.334 362.728 580.854 362.378 574.384 359.498C571.364 358.168 568.704 356.398 566.224 354.208C565.044 353.178 564.254 352.178 563.634 351.138C560.504 351.188 557.374 350.248 555.414 347.998C553.179 345.434 552.807 342.785 553.682 340.333L553.774 340.088L553.554 340.008C550.914 346.838 545.654 352.848 539.884 356.908C530.764 363.348 519.354 365.208 508.414 365.378C496.334 365.558 483.594 363.698 471.674 361.798C468.524 361.298 465.394 360.728 462.324 359.958C462.204 360.078 462.084 360.218 461.954 360.338C451.724 370.128 437.334 372.648 424.354 367.058C416.854 363.828 410.564 358.628 405.004 352.668C404.924 355.788 404.764 358.908 404.494 361.998L404.382 363.225C403.829 368.98 402.763 375.085 398.414 379.238C391.384 385.968 381.184 383.268 373.074 378.888C373.084 379.098 373.084 379.318 373.084 379.538C375.274 386.978 377.474 394.428 379.674 401.878L380.148 403.465C381.748 408.755 383.502 414.052 383.984 419.588C384.904 430.168 377.864 440.618 366.104 437.068C359.936 435.213 354.994 430.026 350.252 425.872L347.264 423.288C354.994 448.558 360.354 474.728 360.854 501.098C360.884 502.528 359.654 503.608 358.294 503.658C355.114 503.788 351.694 503.158 348.494 501.888C348.314 501.878 348.134 501.868 347.944 501.838C342.484 501.048 337.414 499.078 332.944 496.168C333.974 499.438 334.434 502.948 334.164 506.618C334.094 507.508 332.704 507.818 332.504 506.838C329.924 494.148 315.074 484.558 302.274 486.988C288.534 489.598 278.414 501.418 275.934 514.868C273.274 529.318 278.364 546.028 287.794 557.178C292.134 562.318 297.844 566.608 304.624 567.688C307.724 568.178 310.944 568.008 313.954 567.128C315.234 566.748 316.434 566.218 317.654 565.718C319.434 564.998 321.514 564.888 323.194 564.128C327.004 562.418 330.834 565.928 328.904 569.838C327.224 573.248 325.714 575.548 322.924 577.308C325.184 580.068 327.234 583.908 327.994 584.938C331.874 590.178 335.814 595.128 340.234 599.918C344.734 604.778 349.644 609.218 354.834 613.328L357.016 615.052C362.015 619.017 366.368 622.691 369.894 628.378C372.674 632.868 369.074 638.958 363.864 638.888C347.564 638.658 335.714 624.338 327.274 611.828C326.074 610.038 324.944 608.148 323.894 606.208C323.514 606.818 323.094 607.388 322.624 607.908L323.554 610.408C326.314 617.768 314.424 622.578 310.974 615.708C308.464 610.728 305.554 605.988 302.314 601.508C300.404 601.238 298.534 600.078 297.494 598.578C294.864 594.768 291.914 590.918 289.424 586.858C288.044 585.548 286.624 584.288 285.174 583.058C284.754 583.428 284.324 583.798 283.914 584.188C282.094 588.338 279.844 592.128 277.054 595.698L276.456 596.46C271.111 603.196 264.149 610.09 255.534 611.738C252.904 612.238 250.374 608.968 252.704 606.878C258.734 601.458 265.864 597.768 271.424 591.718C274.163 588.737 276.679 585.455 278.841 582.015L279.334 581.218C279.694 580.628 280.064 580.038 280.444 579.438C277.934 577.728 275.424 576.008 272.914 574.288C266.004 580.191 257.006 582.892 249.364 587.782L248.604 588.278C241.694 592.898 234.414 582.678 239.954 577.068C246.061 570.907 251.159 563.56 256.569 556.712C254.025 552.026 252.821 546.485 252.37 540.885C252.192 539.3 252.053 537.714 251.914 536.128C248.034 536.188 244.134 534.858 240.834 532.568L239.584 531.678C235.574 532.958 231.364 533.578 227.334 533.468C217.854 533.188 213.974 522.358 219.904 515.508C225.954 508.508 236.544 506.978 244.934 510.378C245.204 510.238 245.484 510.088 245.754 509.938C245.354 508.098 245.443 506.429 245.898 504.963L245.766 504.069C243.921 501.238 242.708 498.006 242.248 494.591C241.884 491.886 241.958 489.205 242.584 486.534C242.792 485.645 243.225 484.724 243.556 483.797C242.874 482.075 242.473 480.295 242.349 478.505C242.158 478.278 241.968 478.045 241.788 477.793C237.625 471.948 238.466 464.905 242.428 460.175C242.446 459.874 242.474 459.573 242.515 459.274C242.283 458.752 242.07 458.225 241.876 457.692C238.005 453.787 235.163 449.088 235.693 443.265C236.004 439.839 237.412 436.755 239.543 434.45C239.165 433.332 239.129 432.037 239.587 430.956C236.186 421.91 236.616 411.015 239.064 400.898C238.524 399.358 238.244 397.688 238.304 395.918C238.584 388.408 245.084 381.508 252.784 381.598C253.711 381.606 254.579 381.727 255.413 381.904L255.424 381.725C255.719 379.471 256.339 377.388 257.244 375.519C256.799 375.358 256.387 375.127 256.026 374.82C251.092 377.452 245.871 379.464 240.397 380.835C236.372 381.843 232.249 377.268 234.751 373.49C235.912 371.737 237.193 370.163 238.573 368.725C236.611 368.736 234.619 368.869 232.604 369.128C228.984 369.598 224.944 367.128 222.594 363.788C219.674 366.628 216.744 369.458 213.814 372.288C206.394 379.478 195.184 374.188 194.014 364.708C191.804 364.118 189.744 363.118 187.934 361.688C176.234 366.768 163.644 369.558 150.774 370.088C141.534 370.468 136.134 359.708 140.454 352.108C143.354 347.008 146.954 342.428 151.104 338.448C144.664 340.418 138.014 341.838 131.224 342.748C127.554 343.238 122.364 340.198 120.894 336.828C115.274 323.868 115.754 310.358 122.224 297.748C122.474 297.248 122.754 296.768 123.024 296.288C123.694 294.618 124.424 292.968 125.214 291.348C117.254 283.048 116.564 270.708 120.854 260.378C119.134 257.588 118.474 254.228 119.644 251.188C122.974 242.438 127.774 234.358 133.834 227.418C133.254 226.298 132.744 225.108 132.314 223.828C128.904 213.478 132.854 200.988 140.824 193.778C145.834 189.238 151.594 186.518 157.744 184.778C160.334 180.198 163.664 176.068 167.544 172.588C167.694 172.258 167.844 171.928 168.014 171.598C174.054 160.218 185.054 154.118 196.844 152.708C197.304 148.258 200.304 144.008 204.664 142.628C205.864 138.778 207.654 135.098 210.114 131.758C213.984 126.498 220.414 124.018 226.474 127.468C229.794 129.358 232.974 131.528 235.954 133.928C237.293 133.3 238.81 132.894 240.522 132.765L240.954 132.738L250.814 132.238C254.944 130.408 259.064 128.488 263.194 126.618C265.674 124.568 268.444 122.858 271.464 121.588C274.884 120.158 278.384 119.348 281.894 119.078C284.744 118.148 287.614 117.328 290.534 116.688C297.394 115.188 304.574 114.348 311.694 114.418C311.84 112.575 311.912 110.71 311.898 108.823L311.884 107.878C311.724 101.828 316.554 96.9981 322.244 96.1381ZM315.334 580.188C314.354 580.398 313.364 580.568 312.374 580.688C312.674 581.428 312.974 582.168 313.264 582.908C314.064 583.358 314.874 583.788 315.684 584.188C315.444 582.828 315.304 581.458 315.334 580.188ZM263.957 564.921L263.292 566.145C263.185 566.345 263.078 566.543 262.974 566.738C264.384 566.628 265.804 566.658 267.204 566.818L267.2 566.669C267.02 566.608 266.84 566.552 266.668 566.468C265.702 566.004 264.804 565.484 263.957 564.921ZM291.724 509.068C300.571 509.583 308.067 510.94 316.113 514.81L316.804 515.148C323.914 518.678 335.674 525.198 334.684 534.548C334.404 537.208 332.474 540.008 329.434 539.798C321.104 539.228 316.344 530.828 310.704 525.588C305.014 520.308 298.024 514.878 291.134 511.248C290.16 510.737 290.544 509.12 291.604 509.067L291.724 509.068ZM251.604 385.878C249.484 385.948 250.194 388.008 251.284 386.288C251.374 386.148 251.484 386.008 251.604 385.878ZM366.04 248.356C345.962 248.884 325.755 260.739 310.714 272.722C297.629 283.147 286.33 295.547 276.325 308.912C273.751 315.568 271.541 322.363 269.674 329.208C268.444 333.728 267.674 338.298 266.644 342.858L266.324 344.256C265.515 345.768 264.914 347.395 264.476 349.076C266.299 350.904 268.664 352.213 271.268 352.834C272.107 353.034 272.804 353.467 273.355 354.041C275.451 350.543 277.283 346.851 278.349 342.937L278.388 342.756C282.417 336.157 286.793 329.763 291.484 323.588C304.424 306.538 318.674 290.998 335.804 278.068C348.794 268.268 363.314 260.588 378.754 255.598C374.975 252.549 370.683 250.137 366.04 248.356Z" fill="black"/>
</svg>
