<svg width="900" height="900" viewBox="0 0 900 900" fill="none" xmlns="http://www.w3.org/2000/svg">
<path fill-rule="evenodd" clip-rule="evenodd" d="M518.107 376.596C516.75 359.039 518.852 340.637 512.083 323.949C500.28 296.261 467.183 287.029 441.525 276.487C431.246 273.45 396.657 273.026 384.621 269.006C357.381 259.908 350.873 249.068 329.228 266.391C325.575 269.35 323.289 272.566 321.621 276.96L321.69 276.979C321.213 278.811 321.724 280.64 322.797 282.036C313.412 291.629 309.485 306.01 314.3 318.78C330.014 352.01 329.275 369.977 324.212 405.7C317.6 439.05 332.709 451.233 357.731 469.379C356.712 471.354 356.501 473.98 357.829 475.723C386.763 516.382 441.319 535.795 488.062 515.158C507.036 506.713 515.507 486.507 520.341 468.274C525.972 447.859 527.702 426.347 523.118 405.551C521.269 395.933 518.86 386.386 518.107 376.596Z" fill="white"/>
<path fill-rule="evenodd" clip-rule="evenodd" d="M351.208 182.079C354.72 181.551 357.373 183.73 358.634 186.801L358.7 186.967C359.106 188.012 359.557 189.029 360.042 190.028C368.831 185.716 381.372 186.824 386.934 195.556C390.903 201.792 388.481 209.193 386.985 215.806L386.003 220.163C387.902 221.372 389.333 223.535 389.266 225.776L389.258 225.948L388.858 232.024C390.126 230.739 391.285 229.34 392.319 227.85C393.033 226.542 393.804 225.257 394.632 224.012C399.503 216.685 410.439 223.053 406.419 230.899C405.648 232.413 404.78 233.846 403.849 235.228C402.798 237.267 401.936 239.362 401.273 241.515C403.175 242.343 404.637 244.182 404.791 246.958C405.151 253.439 401.747 258.847 396.334 262.245C394.74 263.244 393.096 263.439 391.605 263.067C391.342 263.421 391.08 263.775 390.829 264.135C392.987 265.888 394.934 267.887 396.608 270.103C401.645 269.349 406.71 268.995 411.775 268.984C417.966 265.951 425.378 266.014 432.031 267.15C436.314 267.881 440.426 269.303 444.64 270.326C449.083 271.399 453.594 271.439 458.089 272.17C463.754 273.09 468.722 275.705 471.846 279.88C475.278 279.982 478.887 281.387 481.879 283.295C488.846 287.737 495.773 292.243 502.723 296.715C505.391 298.431 506.388 301.172 505.897 304.229L505.864 304.424L505.63 305.692L506.18 306.472C508.307 309.476 510.621 312.622 511.997 315.937C514.544 319.609 516.846 323.458 518.884 327.426C521.631 332.76 523.898 338.414 525.434 344.216C525.817 345.684 526.2 347.163 526.451 348.659C526.811 350.772 526.257 352.411 525.954 354.438C525.577 357.008 525.44 359.612 525.04 362.187C524.772 363.895 523.322 364.734 521.803 364.78C522.374 369.126 522.785 373.5 523.179 377.84C523.733 384.042 524.11 390.261 524.435 396.48C526.114 398.918 529.546 400.848 532.025 401.517C535.457 402.436 539.054 401.437 542.298 400.266C544.337 399.529 546.01 402.093 545.016 403.807C541.893 409.186 535.211 409.163 530.151 406.782C528.01 405.777 526.131 404.321 524.738 402.425C524.823 404.229 524.915 406.034 525.006 407.844L525.091 409.484C526.12 428.633 528.341 448.441 524.744 467.401C518.513 500.243 491.335 525.249 458.134 527.191C440.712 528.21 426.204 523.064 418.99 520.194C411.775 517.323 414.579 511.47 419.587 513.143C428.215 516.026 444.064 520.319 458.249 518.465C491.679 514.095 520.026 497.386 517.114 425.421C516.701 415.216 515.429 405.006 515.155 394.801C514.893 384.824 514.99 374.842 514.55 364.871L514.403 361.469C514.232 357.494 514.048 353.501 513.75 349.521C513.391 347.979 513.094 346.414 512.654 344.901C511.46 340.784 509.902 336.781 507.966 332.96C507.537 333.286 507.058 333.52 506.538 333.611C502.592 334.319 498.891 334.119 495.197 332.475C493.472 331.715 491.953 330.704 490.537 329.454C489.863 328.866 489.412 328.295 489.058 327.701C487.27 327.729 485.483 327.192 484.363 325.907C483.087 324.443 482.875 322.931 483.374 321.53L483.427 321.39L483.301 321.345C481.794 325.245 478.79 328.677 475.495 330.996C470.287 334.673 463.771 335.736 457.523 335.833C450.625 335.935 443.349 334.873 436.542 333.788C434.744 333.503 432.956 333.177 431.203 332.737C431.134 332.806 431.066 332.886 430.992 332.954C425.15 338.545 416.932 339.984 409.52 336.792C405.237 334.947 401.645 331.978 398.469 328.574C398.424 330.356 398.332 332.138 398.178 333.902L398.114 334.603C397.798 337.89 397.19 341.376 394.706 343.748C390.691 347.591 384.867 346.049 380.235 343.548C380.241 343.668 380.241 343.793 380.241 343.919C381.492 348.168 382.748 352.422 384.004 356.677L384.275 357.583C385.189 360.604 386.19 363.629 386.466 366.79C386.991 372.832 382.971 378.8 376.255 376.772C372.733 375.713 369.91 372.751 367.202 370.379L365.496 368.903C369.91 383.334 372.971 398.279 373.257 413.338C373.274 414.154 372.572 414.771 371.795 414.8C369.979 414.874 368.026 414.514 366.198 413.789C366.096 413.783 365.993 413.777 365.884 413.76C362.766 413.309 359.871 412.184 357.318 410.522C357.907 412.39 358.169 414.394 358.015 416.49C357.975 416.998 357.181 417.175 357.067 416.616C355.594 409.369 347.113 403.892 339.804 405.28C331.957 406.77 326.178 413.52 324.762 421.201C323.243 429.453 326.15 438.996 331.535 445.363C334.013 448.298 337.274 450.748 341.146 451.365C342.916 451.645 344.755 451.548 346.474 451.045C347.205 450.828 347.89 450.526 348.587 450.24C349.603 449.829 350.791 449.766 351.75 449.332C353.926 448.355 356.113 450.36 355.011 452.593C354.052 454.54 353.19 455.854 351.596 456.859C352.887 458.435 354.058 460.628 354.492 461.216C356.707 464.208 358.957 467.035 361.481 469.77C364.051 472.546 366.855 475.081 369.819 477.428L371.065 478.413C373.92 480.677 376.406 482.775 378.419 486.023C380.007 488.587 377.951 492.065 374.976 492.025C365.667 491.894 358.9 483.716 354.08 476.572C353.395 475.55 352.75 474.47 352.15 473.362C351.933 473.711 351.693 474.036 351.425 474.333L351.956 475.761C353.532 479.964 346.742 482.711 344.772 478.788C343.339 475.944 341.677 473.237 339.827 470.678C338.736 470.524 337.668 469.862 337.074 469.005C335.572 466.829 333.888 464.631 332.466 462.312C331.678 461.564 330.867 460.845 330.039 460.142C329.799 460.354 329.553 460.565 329.319 460.788C328.28 463.157 326.995 465.322 325.401 467.361L325.06 467.796C322.008 471.642 318.032 475.579 313.112 476.52C311.61 476.806 310.165 474.939 311.496 473.745C314.94 470.65 319.011 468.543 322.186 465.088C323.751 463.385 325.187 461.511 326.422 459.547L326.704 459.092C326.909 458.755 327.12 458.418 327.337 458.075C325.904 457.098 324.471 456.116 323.037 455.134C319.091 458.505 313.953 460.047 309.589 462.84L309.155 463.123C305.209 465.762 301.051 459.925 304.215 456.722C307.702 453.203 310.614 449.008 313.703 445.097C312.25 442.421 311.563 439.257 311.305 436.059C311.204 435.154 311.124 434.248 311.045 433.342C308.829 433.376 306.602 432.617 304.717 431.309L304.004 430.801C301.714 431.532 299.309 431.886 297.008 431.823C291.594 431.663 289.379 425.479 292.765 421.567C296.22 417.569 302.268 416.696 307.059 418.637C307.213 418.557 307.373 418.472 307.527 418.386C307.299 417.335 307.35 416.382 307.609 415.545L307.534 415.034C306.48 413.418 305.788 411.572 305.525 409.622C305.317 408.077 305.359 406.546 305.717 405.021C305.836 404.513 306.083 403.987 306.272 403.458C305.882 402.474 305.653 401.458 305.583 400.436C305.474 400.306 305.365 400.173 305.262 400.029C302.885 396.691 303.365 392.669 305.628 389.968C305.638 389.796 305.654 389.624 305.677 389.453C305.545 389.155 305.423 388.854 305.313 388.55C303.102 386.32 301.479 383.637 301.782 380.311C301.959 378.355 302.763 376.594 303.98 375.277C303.764 374.639 303.744 373.899 304.005 373.282C302.063 368.116 302.309 361.894 303.707 356.117C303.398 355.237 303.238 354.284 303.273 353.273C303.433 348.984 307.145 345.044 311.542 345.095C312.071 345.1 312.567 345.169 313.043 345.27L313.049 345.168C313.218 343.881 313.572 342.691 314.089 341.624C313.835 341.532 313.599 341.4 313.393 341.225C310.575 342.728 307.594 343.877 304.468 344.66C302.169 345.235 299.815 342.623 301.244 340.465C301.907 339.464 302.638 338.565 303.426 337.744C302.306 337.75 301.168 337.826 300.018 337.974C297.95 338.242 295.643 336.832 294.301 334.925C292.634 336.546 290.96 338.163 289.287 339.779C285.05 343.885 278.648 340.864 277.98 335.45C276.718 335.113 275.542 334.542 274.508 333.725C267.827 336.626 260.637 338.22 253.287 338.522C248.011 338.739 244.927 332.595 247.394 328.255C249.05 325.342 251.106 322.727 253.476 320.454C249.798 321.579 246 322.39 242.123 322.909C240.027 323.189 237.063 321.453 236.224 319.529C233.014 312.128 233.289 304.413 236.983 297.211C237.126 296.926 237.286 296.652 237.44 296.378C237.823 295.424 238.24 294.482 238.691 293.557C234.145 288.817 233.751 281.77 236.201 275.871C235.219 274.277 234.842 272.359 235.51 270.623C237.412 265.626 240.153 261.012 243.613 257.048C243.282 256.409 242.991 255.729 242.745 254.998C240.798 249.088 243.054 241.955 247.605 237.838C250.466 235.245 253.756 233.692 257.268 232.698C258.747 230.083 260.648 227.724 262.864 225.737C262.95 225.548 263.035 225.36 263.132 225.171C266.582 218.673 272.863 215.189 279.596 214.384C279.859 211.843 281.572 209.416 284.062 208.628C284.747 206.429 285.77 204.328 287.174 202.42C289.384 199.416 293.056 198 296.517 199.97C298.413 201.05 300.229 202.289 301.931 203.659C302.695 203.301 303.562 203.069 304.539 202.995L304.786 202.98L310.417 202.694C312.775 201.649 315.128 200.553 317.487 199.485C318.903 198.314 320.485 197.338 322.209 196.612C324.162 195.796 326.161 195.333 328.165 195.179C329.793 194.648 331.432 194.18 333.099 193.814C337.017 192.958 341.117 192.478 345.183 192.518C345.267 191.465 345.308 190.4 345.3 189.323L345.292 188.783C345.2 185.328 347.959 182.57 351.208 182.079ZM347.262 458.503C346.702 458.623 346.137 458.72 345.572 458.789C345.743 459.211 345.914 459.634 346.08 460.057C346.537 460.314 346.999 460.559 347.462 460.788C347.325 460.011 347.245 459.229 347.262 458.503ZM317.922 449.785L317.542 450.484C317.481 450.598 317.42 450.711 317.361 450.822C318.166 450.76 318.977 450.777 319.776 450.868L319.774 450.783C319.671 450.748 319.569 450.716 319.47 450.668C318.919 450.403 318.406 450.106 317.922 449.785ZM333.779 417.889C338.831 418.183 343.112 418.958 347.707 421.168L348.101 421.361C352.162 423.377 358.877 427.1 358.312 432.44C358.152 433.959 357.05 435.558 355.314 435.438C350.557 435.112 347.839 430.315 344.618 427.323C341.368 424.308 337.377 421.207 333.442 419.134C332.886 418.842 333.105 417.919 333.711 417.889L333.779 417.889ZM310.868 347.539C309.657 347.579 310.063 348.756 310.685 347.774C310.737 347.694 310.799 347.614 310.868 347.539ZM376.218 269.005C364.753 269.307 353.213 276.077 344.624 282.92C337.151 288.873 330.699 295.954 324.985 303.587C323.515 307.388 322.253 311.268 321.187 315.177C320.485 317.758 320.045 320.368 319.457 322.972L319.274 323.771C318.812 324.634 318.469 325.563 318.219 326.523C319.26 327.567 320.61 328.315 322.097 328.669C322.576 328.783 322.974 329.031 323.289 329.358C324.486 327.361 325.532 325.252 326.141 323.017L326.163 322.914C328.464 319.145 330.963 315.494 333.642 311.968C341.032 302.231 349.169 293.357 358.952 285.973C366.37 280.376 374.662 275.991 383.479 273.141C381.321 271.4 378.87 270.022 376.218 269.005Z" fill="black"/>
</svg>
