<svg width="900" height="900" viewBox="0 0 900 900" fill="none" xmlns="http://www.w3.org/2000/svg">
<path fill-rule="evenodd" clip-rule="evenodd" d="M469.521 479.55C465.838 480.617 461.884 480.712 458.13 479.611C454.724 478.611 451.228 476.412 448.721 473.502C446.495 470.916 445.053 467.775 445.11 464.421C445.116 464.038 445.253 463.718 445.464 463.47C445.69 463.203 446.007 463.02 446.347 462.94C446.696 462.858 447.064 462.887 447.379 463.03C447.663 463.159 447.907 463.378 448.059 463.699C448.444 464.205 448.828 464.704 449.213 465.188C452.31 469.012 455.309 471.87 459.966 472.895C462.493 473.452 465.016 473.205 467.332 472.356C469.81 471.448 472.051 469.85 473.807 467.806C474.6 466.883 475.537 466.506 476.453 466.499C477.491 466.492 478.517 466.974 479.29 467.745C480.05 468.503 480.558 469.533 480.605 470.61C480.645 471.555 480.337 472.543 479.516 473.424C476.813 476.326 473.311 478.452 469.521 479.55ZM469.407 431.654C473.183 433.949 478.936 439.301 474.874 444.99C470.093 450.007 463.209 444.255 459.817 441.654C456.672 439.638 453.138 444.823 456.056 447.177C480.568 465.325 490.516 432.254 471.317 428.956C469.203 428.592 468.418 430.944 469.407 431.654ZM434.088 421.556C432.874 420.78 431.446 420.513 429.864 421.233C428.628 421.795 426.46 423.669 424.951 426.133C423.918 427.819 423.186 429.796 423.338 431.856C423.374 432.334 423.197 432.687 422.918 432.948C422.698 433.154 422.38 433.305 422.007 433.353C421.689 433.393 421.334 433.357 421.046 433.266C420.497 433.095 420.206 432.739 420.096 432.448C419.04 429.642 419.495 426.511 420.679 423.686C422.277 419.873 425.18 416.68 427.081 415.65C430.335 413.887 434.174 413.806 437.432 415.602C440.206 417.13 441.94 419.597 443.665 422.112C444.032 422.647 444.396 423.178 444.772 423.699C445.526 424.744 445.601 425.78 445.309 426.668C444.986 427.653 444.161 428.483 443.13 428.918C442.177 429.32 441.071 429.376 440.092 428.964C439.265 428.615 438.506 427.935 438.026 426.781C437.217 424.839 435.87 422.695 434.088 421.556ZM495.721 425.878C494.89 426.311 494.239 426.441 493.317 426.165C492.808 426.012 492.304 425.719 491.909 425.324C491.518 424.933 491.236 424.447 491.126 423.908C490.857 422.576 490.128 421.33 489.091 420.518C488.203 419.824 487.084 419.456 485.842 419.663C484.501 419.887 483.225 420.747 482.345 421.76C482.051 422.099 481.821 422.484 481.589 422.867C481.156 423.582 480.735 424.247 480.137 424.772C479.911 424.972 479.569 425.111 479.239 425.111C479.104 425.111 478.968 425.089 478.838 425.048C477.504 423.709 477.248 422.694 477.291 421.686C477.336 420.63 477.752 419.56 478.425 418.562C480.004 416.221 483.002 414.302 485.024 413.867C487.795 413.272 490.546 413.986 492.752 415.534C495.021 417.126 496.703 419.598 497.227 422.383C497.353 423.054 497.3 423.778 497.044 424.406C496.795 425.02 496.36 425.545 495.721 425.878ZM440.197 396.597C438.535 398.216 436.567 398.467 434.577 398.691C433.471 398.816 432.587 398.917 431.718 399.113C429.33 399.652 426.97 400.464 424.816 401.633C422.565 402.855 420.111 404.33 418.346 406.218C417.926 406.667 417.531 407.139 417.135 407.612C416.773 408.043 416.425 408.457 416.058 408.857C415.637 409.317 415.237 409.799 414.839 410.279C414.593 410.684 414.545 410.784 414.495 410.888C414.421 411.043 414.334 411.218 414.235 411.405C414.099 411.662 413.94 411.942 413.774 412.197C413.497 412.662 413.349 412.79 413.22 412.847C413.007 412.942 412.805 412.989 412.609 412.963C412.425 412.94 412.252 412.851 412.081 412.707C411.228 411.986 410.976 410.802 411.002 409.546C411.041 407.64 411.744 405.529 412.392 404.231C413.899 401.217 415.99 398.082 418.503 395.832C421.371 393.264 424.509 391.319 428.113 389.979C430.353 389.147 432.946 388.382 435.386 388.479C437.142 388.548 438.819 389.07 440.204 390.374C441.054 391.174 441.462 392.313 441.462 393.45C441.462 394.611 441.038 395.778 440.197 396.597ZM499.102 411.429C498.996 411.602 498.85 411.722 498.687 411.794C498.516 411.869 498.326 411.89 498.143 411.86C497.961 411.829 497.788 411.746 497.65 411.62C497.519 411.499 497.419 411.339 497.374 411.143C496.27 406.295 494.127 402.688 489.552 400.362C487.302 399.218 484.715 398.491 482.265 397.911C481.553 397.743 480.801 397.634 480.044 397.523C477.67 397.177 475.279 396.78 473.731 394.861C472.799 393.705 472.407 392.227 472.628 390.875C472.837 389.602 473.581 388.435 474.933 387.735C478.299 385.995 482.482 387.703 485.882 389.158C486.134 389.266 486.381 389.371 486.623 389.474C489.948 390.877 492.98 392.729 495.472 395.378C497.45 397.479 499.282 400.586 500.02 403.782C500.634 406.441 500.489 409.155 499.102 411.429Z" fill="black"/>
</svg>
