<svg width="284" height="284" viewBox="0 0 284 284" fill="none" xmlns="http://www.w3.org/2000/svg">
<path fill-rule="evenodd" clip-rule="evenodd" d="M191.244 201.965L191.935 201.805C197.46 200.502 202.776 198.731 207.922 202.154C212.825 205.415 213.506 211.447 209.686 215.847C205.759 220.371 200.544 220.118 195.039 220.18L194.695 220.184C190.124 220.247 185.477 220.179 180.924 219.774C176.679 219.396 172.407 218.792 168.211 217.999L165.73 217.513C163.195 217 160.698 216.333 159.392 213.879C157.114 209.602 174.046 206.246 176.103 205.659C181.095 204.234 186.181 203.112 191.244 201.965ZM200.634 150.395C197.935 153.194 194.37 155.106 190.368 156.296C180.309 159.286 167.475 157.693 159.26 154.646C157.556 154.014 155.963 152.725 155.048 151.114C154.212 149.642 153.929 147.911 154.565 146.145C154.747 145.644 154.967 145.151 155.188 144.667C155.791 143.347 157.019 142.321 158.462 141.734C159.96 141.125 161.664 141.001 163.03 141.43C163.214 141.488 163.402 141.547 163.595 141.608C168.8 143.249 177.337 145.966 184.41 145.439C188.654 145.123 192.387 143.624 194.317 139.74C195.335 137.692 195.053 135.667 194.151 133.813C192.79 131.017 190.064 128.584 187.768 126.908C184.531 124.544 181.079 123.6 177.508 122.604C176.163 122.229 174.8 121.848 173.424 121.393C172.971 121.243 172.574 120.949 172.276 120.567C171.982 120.189 171.79 119.729 171.729 119.266C171.667 118.787 171.744 118.31 171.966 117.898C172.172 117.516 172.501 117.181 172.993 116.961C179.979 113.831 189.015 115.899 195.835 120.823C199.243 123.284 202.086 126.445 203.838 129.978C205.464 133.256 206.155 136.853 205.518 140.521C204.805 144.628 203.067 147.871 200.634 150.395ZM86.136 80.5548C88.099 79.6898 89.712 83.7388 90.116 84.8428L90.9515 87.1332C92.3144 90.8262 93.879 94.5808 96.745 97.3218C99.144 99.6168 102.988 101.562 105.771 98.8768C108.411 96.3298 107.124 93.4608 107.513 90.3358C108.215 84.6838 115.922 79.0348 120.556 84.9328C131.024 98.2588 114.828 116.791 99.91 113.54C92.3231 111.886 86.2158 105.803 83.7067 98.5686L83.578 98.1868C82.076 93.6038 80.557 83.0158 86.136 80.5548ZM221.22 89.8356L221.147 89.6666C216.161 78.3256 233.947 73.4516 235.455 83.6346L235.551 84.3217C237.018 95.6259 233.927 110.828 220.081 111.955C204.539 113.221 198.067 95.8796 199.455 83.1546C199.704 80.8766 202.468 80.5616 203.322 82.6316L203.504 83.0834C206.013 89.4785 208.396 101.777 217.238 101.765C223.146 101.756 222.864 93.7814 221.22 89.8356ZM232.496 57.0053C241.43 56.6883 241.418 70.6703 232.496 70.8803C202.694 71.5813 172.869 72.5133 143.058 72.6733L137.64 72.7064C109.638 72.8941 81.5397 73.2767 53.62 70.9263C51.237 70.7263 51.68 67.3803 53.671 67.5153C82.942 63.3493 112.57 62.1313 142.064 60.5483C172.181 58.9313 202.356 58.0753 232.496 57.0053Z" fill="black"/>
</svg>
