<svg width="284" height="284" viewBox="0 0 284 284" fill="none" xmlns="http://www.w3.org/2000/svg">
<path fill-rule="evenodd" clip-rule="evenodd" d="M179.872 220.917C173.085 223.585 165.066 224.215 158.061 221.942C151.362 219.768 145.28 214.929 141.6 208.844C138.322 203.424 136.953 196.992 138.89 190.579C138.983 190.272 139.283 190.076 139.573 190C141.158 191.443 142.138 192.876 143.116 194.302C144.765 196.706 146.419 199.086 148.688 201.142C151.989 204.132 156.438 206.561 160.853 207.362C165.175 208.148 169.599 207.453 173.47 205.384C175.824 204.127 177.727 202.446 179.611 200.757C181.663 198.918 183.683 197.051 186.509 196.012C188.774 195.18 191.153 195.882 192.981 197.275C194.945 198.771 196.358 201.113 196.279 203.562C196.158 207.356 194.497 210.521 192.088 213.132C188.83 216.662 184.223 219.206 179.872 220.917ZM171.814 126.367C179.365 130.957 190.871 141.66 182.748 153.039C173.186 163.073 159.418 151.569 152.634 146.366C146.343 142.333 139.275 152.704 145.112 157.412C194.135 193.708 214.03 127.567 175.633 120.97C171.406 120.243 169.836 124.947 171.814 126.367ZM92.3878 62.7679C102.68 62.2759 111.75 66.8979 121.558 68.9979C130.622 70.9399 139.552 69.7739 148.367 67.3039C162.673 63.2949 168.587 85.1949 154.476 89.4629C144.2 92.5709 133.38 92.7869 122.835 91.1849C113.468 89.7609 105.616 85.2009 96.6848 82.5459C89.0202 80.2685 80.0039 81.215 71.9097 82.2872L68.7678 82.7099C64.0978 83.3389 59.4028 83.9699 54.7788 84.8829C50.7668 85.6759 46.7618 87.1269 42.6668 87.2949C42.2018 87.3149 41.8078 86.7109 42.1008 86.3079C46.8577 79.7773 56.0258 74.6244 63.3185 71.1876L63.8128 70.9559C72.8148 66.7589 82.3648 63.2459 92.3878 62.7679ZM88.6171 110.923L88.6158 110.698C88.6298 104.321 92.3438 89.7618 101.524 89.7618C107.259 89.7618 110.741 99.6706 111.344 109.885L111.364 110.302C111.631 116.652 109.888 130.533 101.524 130.533C93.0714 130.533 88.704 117.386 88.6171 110.923ZM223.772 110.923L223.774 110.698C223.76 104.321 220.046 89.7618 210.866 89.7618C205.274 89.7618 201.824 99.1814 201.097 109.12L201.046 109.885C200.684 116.021 202.314 130.533 210.866 130.533C219.318 130.533 223.685 117.386 223.772 110.923ZM223.632 55.0012L224.288 55.0156C235.016 55.3876 246.051 61.7426 248.915 72.4176C249.063 72.9716 248.38 73.3446 247.975 72.9646C239.154 64.7059 227.291 72.5973 218.458 76.7337L215.213 78.2325C203.826 83.5303 190.875 89.7587 178.231 85.8106C172.226 83.9356 168.412 77.7656 170.125 71.5336C171.649 65.9886 178.342 61.3286 184.139 63.33L184.402 63.4256C189.112 65.2273 194.904 63.4018 199.768 61.6021L203.764 60.1016C210.189 57.6634 216.645 54.9356 223.632 55.0012Z" fill="black"/>
</svg>
