<svg width="900" height="900" viewBox="0 0 900 900" fill="none" xmlns="http://www.w3.org/2000/svg">
<path fill-rule="evenodd" clip-rule="evenodd" d="M473.66 449.709C473.81 449.872 473.48 450.092 473.316 449.973C471.411 448.593 468.411 449.376 466.573 450.001C466.125 464.44 466.149 471.83 466.644 472.172C467.388 472.685 477.866 472.38 477.866 473.665C477.866 477.866 471.565 479.443 468.144 479.193C462.759 478.8 457.208 478.032 451.83 478.654C446.452 479.276 435.027 482.708 429.179 477.965C422.204 472.308 423.147 463.011 428.951 456.942C432.609 453.116 437.992 450.821 443.3 449.12C451.068 446.632 469.374 445.025 473.66 449.709ZM459.334 465.609C456.517 466.705 442.515 471.33 439.188 472.172C443.077 471.893 456.353 471.584 459.334 470.142C459.668 468.792 459.882 465.395 459.334 465.609ZM461.472 450.596C453.85 451.834 437.392 457.416 435.027 460.387C438.62 459.822 458.666 457.416 460.927 457.416C461.256 455.667 461.038 452.6 461.472 450.596ZM463.907 416.684C467.683 418.979 473.436 424.33 469.374 430.02C464.593 435.037 457.709 429.285 454.317 426.683C451.172 424.667 447.638 429.853 450.556 432.207C475.068 450.354 485.015 417.284 465.817 413.986C463.703 413.622 462.918 415.974 463.907 416.684ZM472.278 383.195C474.495 383.177 475.789 384.615 477.451 385.896C479.163 387.216 481.226 388.268 483.227 389.074C485.313 389.914 487.543 390.58 489.739 391.056C492.015 391.548 494.11 391.317 496.37 391.734C502.361 392.838 500.943 402.828 494.935 402.334C489.528 401.889 483.724 398.567 479.623 395.123C477.664 393.477 476.01 391.591 474.4 389.62L474.099 389.249C472.67 387.486 471.335 385.682 472.052 383.367C472.083 383.267 472.172 383.196 472.278 383.195ZM422.308 412.35C422.315 409.161 424.172 401.881 428.762 401.881C431.63 401.881 433.37 406.836 433.672 411.943L433.682 412.151C433.815 415.327 432.944 422.267 428.762 422.267C424.536 422.267 422.352 415.694 422.309 412.462L422.308 412.35ZM489.887 412.35C489.88 409.161 488.023 401.881 483.433 401.881C480.637 401.881 478.912 406.591 478.548 411.56L478.523 411.943C478.342 415.011 479.157 422.267 483.433 422.267C487.659 422.267 489.843 415.694 489.886 412.462L489.887 412.35ZM437.329 383.671C440.191 382.435 443.472 382.786 445.195 385.733C446.827 388.522 445.716 391.884 443.132 393.6C440.595 395.286 437.188 396.202 434.27 397.166L433.948 397.273C431.121 398.225 428.291 399.003 425.37 399.611C422.64 400.179 419.89 400.6 417.124 400.935L416.294 401.033C414.136 401.282 411.127 402.121 409.185 400.893C409.012 400.784 408.946 400.56 409.05 400.38C410.18 398.422 413.181 397.642 415.107 396.651C417.579 395.377 420.016 394.02 422.431 392.641C424.873 391.246 427.308 389.828 429.723 388.388C432.232 386.892 434.661 384.822 437.329 383.671Z" fill="black"/>
</svg>
