<svg width="900" height="900" viewBox="0 0 900 900" fill="none" xmlns="http://www.w3.org/2000/svg">
<path fill-rule="evenodd" clip-rule="evenodd" d="M464.972 460.676C465.739 459.342 467.505 458.107 469.121 458.296C476.361 459.145 476.348 467.922 473.553 473.046C471.074 477.59 465.945 480.257 460.811 479.867C455.417 479.458 450.822 476.287 448.799 471.241C447.462 467.904 446.844 461.742 450.402 459.5C450.468 459.458 450.577 459.468 450.629 459.529C452.335 461.513 452.402 464.493 453.896 466.702C455.285 468.757 457.443 470.454 459.971 470.716C461.859 470.912 463.769 470.231 464.507 468.536C464.907 467.619 464.861 467.122 464.711 466.491L464.575 465.942C464.102 464.022 463.89 462.559 464.972 460.676ZM466.908 422.183C470.683 424.478 476.436 429.83 472.375 435.52C467.593 440.536 460.71 434.784 457.318 432.183C454.172 430.167 450.638 435.352 453.557 437.706C478.068 455.854 488.016 422.783 468.817 419.485C466.704 419.122 465.918 421.473 466.908 422.183ZM427.036 406.446C429.354 402.969 434.644 403.481 435.92 407.607C436.612 409.842 435.657 411.851 435.706 414.083C435.748 415.969 435.624 418.07 435.046 419.896C433.728 424.06 429.983 427.001 425.553 426.879C421.137 426.757 417.247 423.962 415.398 420.026C413.542 416.074 413.935 411.985 415.29 407.967C415.355 407.774 415.608 407.68 415.76 407.843C417.362 409.545 418.534 411.342 419.747 413.248L420.991 415.201C421.941 416.672 423.322 418.551 425.096 418.433L425.362 418.407C425.855 418.365 425.78 418.463 426.16 417.791C426.336 417.48 426.304 416.902 426.389 416.535L426.419 416.411L426.402 416.344C426.365 416.166 426.328 415.831 426.297 415.25L426.291 415.122C426.163 412.403 425.394 408.91 427.036 406.446ZM485.782 408.761C485.367 404.314 491.619 403.327 493.697 406.617C494.781 408.333 495.097 410.488 495.337 412.531L495.449 413.5C495.695 415.597 495.792 417.779 494.882 419.736C493.448 422.817 490.329 424.446 486.965 424.188C483.753 423.941 480.822 422.079 479.277 419.251C477.899 416.728 476.53 411.802 478.203 409.171C478.304 409.012 478.506 408.991 478.644 409.114C480.225 410.517 480.483 413.077 481.423 414.906C482.392 416.792 483.863 418.63 486.091 418.916C488.223 419.19 489.038 418.026 488.494 415.993C487.792 413.369 486.046 411.584 485.782 408.761ZM428.725 380.008L429.747 379.616C433.25 378.293 438.06 376.763 440.908 379.612C442.665 381.368 442.999 383.956 441.745 386.099C440.226 388.696 437.5 388.76 434.868 389.142C431.875 389.577 428.83 390.404 426.043 391.583C422.904 392.912 419.99 394.568 417.136 396.417C414.423 398.175 411.719 401.047 408.472 401.589C408.339 401.611 408.189 401.554 408.154 401.408C407.417 398.233 409.466 395.109 411.295 392.632C413.508 389.633 416.19 387.171 419.187 384.964C422.079 382.834 425.384 381.294 428.725 380.008ZM492.359 391.296L492.671 391.242C494.795 390.888 496.72 390.969 498.321 392.652C499.543 393.935 500.014 395.599 499.432 397.296C498.894 398.861 497.692 400.452 495.948 400.78C490.058 401.888 483.535 401.705 477.616 400.866C474.908 400.482 472.175 400.012 469.537 399.271L468.324 398.919C466.122 398.29 463.601 397.633 462.001 396.013C461.426 395.431 461.758 394.598 462.446 394.329C465.237 393.236 469.062 393.817 472.038 393.732C475.5 393.633 478.968 393.373 482.413 393.016C485.78 392.666 489.038 391.905 492.359 391.296Z" fill="black"/>
</svg>
