<svg width="284" height="284" viewBox="0 0 284 284" fill="none" xmlns="http://www.w3.org/2000/svg">
<path fill-rule="evenodd" clip-rule="evenodd" d="M82.281 185.289C94.527 171.059 115.152 170.068 132.237 173.626C143.201 175.91 153.876 179.714 165.012 181.124C170.213 181.783 175.47 181.98 180.709 181.883C185.855 181.788 191.009 180.751 196.137 180.944C196.925 180.973 197.223 182.008 196.54 182.429C189.505 186.75 180.028 188.136 171.718 188.981C171.744 189.596 171.781 190.196 171.866 190.705C172.093 192.062 172.3 193.41 172.467 194.776C172.844 197.857 173.266 200.928 173.687 204.003C174.517 210.055 174.778 216.298 176.237 222.245L176.492 223.233C176.83 224.483 176.907 225.61 176.794 226.626L177.132 226.473L178.2 225.956L178.9 225.626C181.454 224.442 183.89 223.58 186.893 223.867C189.179 224.085 191.098 225.644 191.112 228.085C191.169 239.04 176.405 242.563 167.96 244.66L165.483 245.27C154.734 247.892 143.759 250.191 132.703 250.74C114.961 251.621 95.024 246.727 83.418 232.336C72.589 218.909 70.604 198.857 82.281 185.289ZM162.852 231.317C160.99 214.824 140.722 213.917 134.891 224.376C132.304 209.797 94.028 223.116 97.021 226.014C108.365 237 125.58 237.989 140.379 235.957C147.916 234.922 155.459 233.237 162.852 231.317ZM140.358 188.088L135.262 187.354L133.255 187.078C120.623 185.386 106.416 184.512 96.03 192.611C92.238 195.567 90.104 199.423 89.307 203.565C99.1346 202.109 108.998 200.997 118.891 200.072L121.59 199.824C127.78 199.266 133.967 198.678 140.151 198.061L144.546 197.616L148.939 197.16C150.485 196.998 160.904 196.465 162.863 196.823C163.072 195.063 163.345 191.254 163.787 189.541C156.385 189.793 149.015 189.243 141.656 188.265L140.358 188.088ZM163.814 114.367C171.366 118.957 182.872 129.66 174.748 141.039C165.186 151.073 151.419 139.569 144.634 134.366C138.344 130.333 131.276 140.704 137.112 145.412C186.136 181.708 206.031 115.567 167.634 108.97C163.406 108.243 161.836 112.947 163.814 114.367ZM177.328 133.703L177.691 133.506L177.814 133.432C178.026 133.294 177.891 133.309 177.408 133.476L177.046 133.606V133.862C177.139 133.805 177.238 133.762 177.328 133.703ZM80.6175 92.9235L80.6162 92.6982C80.6302 86.3214 84.3442 71.7618 93.5243 71.7618C99.2593 71.7618 102.741 81.6706 103.344 91.8852L103.365 92.3016C103.631 98.6522 101.888 112.533 93.5243 112.533C85.0718 112.533 80.7044 99.3861 80.6175 92.9235ZM215.773 90.9235L215.774 90.6982C215.76 84.3214 212.046 69.7618 202.866 69.7618C197.274 69.7618 193.825 79.1814 193.097 89.1198L193.046 89.8852C192.684 96.0213 194.314 110.533 202.866 110.533C211.318 110.533 215.686 97.3861 215.773 90.9235ZM85.8552 28.2844C93.3472 27.1454 103.268 29.3094 106.761 36.9274C108.317 40.3214 106.474 44.0744 102.551 44.2624C93.0703 44.7164 84.5672 42.6064 76.2452 48.7714C72.6638 51.425 69.6527 55.0992 67.1259 58.764L66.1699 60.1587L65.378 61.3078C63.6623 63.8303 62.0376 66.5709 62.2912 69.6144C62.3662 70.5154 61.4452 71.3704 60.5702 71.3344C55.1162 71.1104 54.5292 64.2724 55.2462 60.1654C56.5802 52.5434 60.2692 45.3884 65.3822 39.6254C70.7522 33.5734 77.8412 29.5034 85.8552 28.2844ZM189.044 37.5349C194.21 34.2139 200.818 32.9379 206.87 33.4269C218.803 34.3879 238.822 44.5319 236.187 59.1069C235.374 63.6019 229.122 65.9739 225.438 63.4799C221.477 60.7989 220.513 56.6319 217.565 53.1279C215.213 50.3289 212.232 48.3039 209.04 46.5789C205.894 44.8774 202.254 43.8464 198.684 43.4705L198.089 43.4139C195.94 43.2309 185.088 43.2799 186.681 47.3309C186.993 48.1239 185.813 48.7519 185.271 48.1519C181.944 44.4719 185.712 39.6769 189.044 37.5349Z" fill="black"/>
</svg>
