<svg width="900" height="900" viewBox="0 0 900 900" fill="none" xmlns="http://www.w3.org/2000/svg">
<path fill-rule="evenodd" clip-rule="evenodd" d="M554.477 384.366C549.252 355.871 536.366 328.757 516.577 307.543C514.293 305.024 512.241 301.05 508.757 300.415C505.259 293.288 498.592 288.249 493.262 282.493C481.629 270.894 470.499 257.933 455.494 250.608C385.899 221.985 318.926 303.6 304.714 364.979C290.597 414.34 306.015 482.433 367.189 484.43C375.843 495.877 387.785 503.8 400.053 510.876C416.805 521.602 435.079 525.955 454.46 519.987C473.761 525.03 493.77 508.845 505.369 494.651C514.538 483.656 520.822 470.238 529.208 458.857C539.108 458.61 547.664 450.226 548.989 440.4C558.237 423.407 557.816 403.044 554.477 384.366Z" fill="white"/>
<path fill-rule="evenodd" clip-rule="evenodd" d="M402.884 240.91C415.547 237.952 428.828 238.565 441.371 241.817C466.232 248.262 486.689 265.024 503.65 283.712C520.194 301.94 533.837 322.837 543.802 345.348L544.307 346.493C551.355 362.539 557.48 379.219 557.743 396.887C557.969 412.094 556.433 427.937 551.52 442.401C547.143 455.286 539.093 468.269 525.243 471.358C517.257 491.659 501.632 509.238 481.95 518.645C469.743 524.479 456.338 527.084 442.841 525.789C429.071 524.469 416.209 517.852 405.447 509.415C405.152 509.183 405.532 508.735 405.836 508.91C418.793 516.377 434.117 519.046 448.958 518.555C473.347 517.748 495.706 504.585 508.554 483.893C511.75 478.743 514.599 473.311 516.871 467.661C516.738 467.196 516.661 466.725 516.661 466.266C516.661 464.319 517.585 462.831 518.963 461.87C519.603 459.873 520.168 457.853 520.64 455.811C521.711 451.184 522.308 446.49 522.669 441.759C522.961 437.915 522.799 433.837 523.185 429.895C523.044 426.736 522.849 423.581 522.563 420.432C521.642 410.285 519.779 400.164 516.191 390.6C512.556 380.914 506.816 372.372 499.574 365.02C484.039 349.251 464.699 337.736 449.593 321.537L448.802 320.68L448.749 320.663C446.874 322.584 445.001 324.506 443.123 326.424L434.542 335.176C417.028 353.06 399.655 371.117 384.419 391.017C375.645 402.477 367.763 414.489 360.971 427.228C357.755 433.261 354.839 439.444 352.203 445.752L351.165 448.263C349.931 451.268 348.597 454.632 347.857 458.026C350.061 460.212 351.673 463.426 353.456 465.908C355.478 468.722 357.81 471.402 360.21 473.902C362.639 476.434 365.303 478.86 368.131 480.94L368.47 481.185C371.715 483.488 375.44 485.078 375.926 489.461C376.138 491.365 374.436 492.896 372.86 493.488C368.547 495.108 364.079 490.454 361.204 487.777C359.412 486.107 357.764 484.308 356.235 482.408C354.748 482.621 353.25 482.728 351.769 482.552C349.472 482.279 347.198 481.877 344.961 481.289C326.409 476.418 312.676 461.016 305.267 443.863C295.32 420.834 295.552 394.288 299.687 369.936C307.243 325.433 331.697 283.872 368.622 257.56C378.964 250.191 390.431 243.819 402.884 240.91ZM422.873 246.864C399.019 245.607 377.27 257.908 359.821 273.22C328.05 301.099 308.481 341.919 304.544 383.837C302.452 406.108 304.018 430.114 315.631 449.791C320.137 457.426 325.94 464.078 332.79 469.687C339.244 474.974 346.602 478.02 354.468 480.093C354.11 479.6 353.756 479.103 353.413 478.599C351.583 475.92 350.13 473.073 348.912 470.089C348.805 470.197 348.603 470.218 348.483 470.055C343.518 463.242 345.072 455.114 347.439 447.623C349.92 439.765 353.065 432.12 356.654 424.703C369.737 397.676 389.195 374.13 409.394 352.159C419.709 340.938 430.367 330.042 440.986 319.109C446.289 313.649 451.577 308.174 456.799 302.636C459.398 299.879 461.981 297.107 464.54 294.314C467.071 291.551 469.349 288.626 472.5 286.557C475.012 284.908 477.52 288.059 476.345 290.403C474.54 294.008 471.434 296.866 468.686 299.797L468.403 300.1C465.724 302.992 463.02 305.861 460.3 308.714C457.172 311.995 454.019 315.254 450.856 318.505C453.554 318.192 456.283 318.012 458.964 317.605C462.605 317.052 466.197 316.238 469.771 315.352C473.537 314.42 477.255 313.229 480.843 311.749C484.214 310.359 487.4 308.132 491.109 307.914C494.248 307.729 495.229 311.616 493.489 313.661C491.092 316.48 486.782 317.59 483.276 318.636L482.782 318.786C478.905 319.969 474.938 320.857 470.928 321.45C465.652 322.231 459.554 322.589 453.909 321.789C465.182 328.399 475.554 336.59 485.899 344.579L487.724 345.986C497.83 353.762 507.693 362.144 514.899 372.782C521.625 382.713 525.687 394.276 527.966 405.991C529.09 411.771 529.832 417.612 530.33 423.477C532.185 428.677 531.887 434.86 531.42 440.58L531.253 442.554L531.266 443.133C531.336 446.71 532.773 454.675 529.388 457.376C529.33 457.664 529.276 457.953 529.216 458.241C529.637 457.981 530.054 457.713 530.466 457.437C530.636 457.324 530.801 457.199 530.967 457.076L531.434 456.692C531.452 456.677 531.468 456.664 531.48 456.653C532.531 455.731 533.533 454.768 534.467 453.727C536.194 451.803 537.835 449.358 539.389 446.542C542.805 440.351 544.987 433.622 546.674 426.664C549.759 413.943 551.032 400.281 549.625 387.235C549.429 385.414 549.026 383.131 548.4 380.788C546.915 375.226 545.207 369.723 543.295 364.294C539.469 353.433 534.78 342.896 529.312 332.763C518.207 312.182 503.919 293.154 486.799 277.186C469.462 261.015 446.979 248.134 422.873 246.864ZM389.232 312.622C390.092 312.097 390.977 313.117 390.551 313.941C388.485 317.926 385.012 321.291 382.127 324.706C379.14 328.242 376.174 331.797 373.216 335.358C367.192 342.608 361.313 349.99 355.666 357.537L354.176 359.534C349.211 366.199 344.306 372.969 339.966 380.05C337.695 383.755 335.694 387.586 333.877 391.531C332.147 395.287 331.349 399.821 329.271 403.349C329.14 403.572 328.735 403.553 328.684 403.272C328.006 399.473 329.682 394.898 330.879 391.341C332.303 387.11 334.329 383.081 336.498 379.189C341.022 371.071 346.443 363.461 351.888 355.944C357.419 348.31 363.161 340.833 369.185 333.581C372.015 330.175 374.908 326.838 377.888 323.565L379.009 322.341C382.13 318.956 385.275 315.038 389.232 312.622ZM374.77 300.82C376.185 299.772 377.392 301.914 376.49 303.049C371.1 309.83 364.966 315.923 359.067 322.247C353.402 328.32 347.987 334.621 342.878 341.169C332.46 354.522 324.121 369.175 317.058 384.531C316.925 384.821 316.506 384.605 316.569 384.325C320.31 367.714 329.056 352.628 339.015 338.997L339.394 338.48C349.467 324.773 361.045 310.994 374.77 300.82Z" fill="black"/>
</svg>
