<svg width="788" height="788" viewBox="0 0 788 788" fill="none" xmlns="http://www.w3.org/2000/svg">
<path fill-rule="evenodd" clip-rule="evenodd" d="M611.871 401.552C602.72 351.653 580.156 304.174 545.503 267.025C541.504 262.614 537.911 255.656 531.809 254.544C525.684 242.063 514.009 233.24 504.676 223.161C484.305 202.85 464.815 180.153 438.54 167.327C316.671 117.205 199.394 260.121 174.507 367.602C149.788 454.039 176.786 573.277 283.908 576.775C299.063 596.819 319.975 610.693 341.456 623.084C370.791 641.866 402.791 649.49 436.729 639.038C470.528 647.87 505.565 619.528 525.877 594.672C541.932 575.419 552.936 551.922 567.621 531.993C584.958 531.56 599.94 516.88 602.261 499.673C618.454 469.916 617.718 434.258 611.871 401.552Z" fill="white"/>
<path fill-rule="evenodd" clip-rule="evenodd" d="M346.415 150.345C368.59 145.164 391.845 146.238 413.81 151.932C457.345 163.219 493.166 192.57 522.867 225.295C551.838 257.215 575.729 293.807 593.178 333.226L594.062 335.232C606.404 363.331 617.13 392.538 617.59 423.478C617.986 450.107 615.296 477.849 606.693 503.177C599.029 525.74 584.932 548.476 560.679 553.885C546.694 589.433 519.334 620.217 484.869 636.689C463.493 646.906 440.018 651.467 416.384 649.199C392.271 646.887 369.748 635.301 350.903 620.526C350.386 620.121 351.051 619.336 351.584 619.642C374.273 632.717 401.107 637.391 427.095 636.531C469.803 635.119 508.956 612.068 531.454 575.835C537.052 566.817 542.04 557.305 546.019 547.41C545.786 546.596 545.651 545.771 545.651 544.967C545.651 541.558 547.269 538.953 549.683 537.27C550.802 533.773 551.792 530.236 552.619 526.659C554.494 518.557 555.54 510.338 556.171 502.053C556.683 495.322 556.399 488.181 557.075 481.278C556.829 475.747 556.487 470.221 555.986 464.707C554.373 446.939 551.111 429.215 544.828 412.469C538.463 395.507 528.411 380.549 515.729 367.674C488.527 340.061 454.659 319.898 428.208 291.531L426.823 290.03L426.729 290C423.447 293.365 420.167 296.73 416.878 300.088L401.851 315.415C371.182 346.731 340.761 378.352 314.08 413.199C298.717 433.266 284.914 454.301 273.021 476.607C267.389 487.172 262.282 498 257.666 509.046L255.85 513.443C253.689 518.705 251.353 524.596 250.056 530.538C253.916 534.367 256.739 539.994 259.861 544.34C263.402 549.269 267.486 553.961 271.688 558.34C275.941 562.773 280.606 567.022 285.558 570.663L286.152 571.093C291.834 575.125 298.357 577.91 299.209 585.585C299.579 588.918 296.599 591.599 293.84 592.637C286.287 595.474 278.463 587.324 273.429 582.636C270.29 579.712 267.404 576.561 264.728 573.234C262.123 573.607 259.501 573.794 256.906 573.486C252.885 573.008 248.903 572.305 244.986 571.275C212.498 562.745 188.451 535.775 175.477 505.738C158.059 465.412 158.464 418.927 165.705 376.283C178.936 298.353 221.758 225.575 286.419 179.5C304.528 166.596 324.609 155.439 346.415 150.345ZM381.418 160.77C339.646 158.569 301.562 180.109 271.007 206.922C215.373 255.742 181.105 327.222 174.211 400.625C170.548 439.625 173.289 481.662 193.625 516.119C201.515 529.488 211.677 541.137 223.672 550.959C234.975 560.216 247.859 565.551 261.633 569.181C261.006 568.317 260.387 567.447 259.785 566.564C256.581 561.873 254.036 556.887 251.904 551.663C251.716 551.851 251.362 551.889 251.153 551.602C242.459 539.673 245.18 525.439 249.324 512.321C253.669 498.562 259.176 485.174 265.461 472.187C288.37 424.859 322.444 383.628 357.814 345.153C375.878 325.504 394.541 306.424 413.135 287.279C422.421 277.719 431.682 268.131 440.826 258.433C445.377 253.605 449.9 248.752 454.382 243.86C458.814 239.023 462.802 233.9 468.32 230.277C472.719 227.39 477.11 232.908 475.054 237.012C471.892 243.325 466.454 248.329 461.641 253.462L461.146 253.993C456.455 259.057 451.72 264.08 446.957 269.076C441.479 274.822 435.958 280.529 430.42 286.221C435.143 285.674 439.922 285.359 444.617 284.646C450.993 283.678 457.283 282.252 463.541 280.701C470.136 279.068 476.646 276.983 482.929 274.391C488.832 271.957 494.411 268.057 500.906 267.675C506.404 267.351 508.121 274.158 505.075 277.74C500.877 282.676 493.329 284.619 487.191 286.452L486.325 286.713C479.536 288.785 472.589 290.34 465.567 291.379C456.328 292.747 445.65 293.373 435.765 291.973C455.505 303.547 473.669 317.891 491.783 331.88L494.979 334.344C512.676 347.96 529.948 362.638 542.566 381.267C554.344 398.658 561.456 418.905 565.447 439.42C567.416 449.541 568.715 459.769 569.587 470.04C572.836 479.146 572.314 489.973 571.496 499.988L571.204 503.445L571.226 504.459C571.348 510.723 573.865 524.67 567.937 529.4C567.836 529.904 567.742 530.411 567.636 530.915C568.374 530.459 569.103 529.99 569.826 529.508C570.123 529.309 570.411 529.09 570.702 528.875L571.521 528.202C571.552 528.176 571.579 528.153 571.601 528.134C573.441 526.519 575.196 524.833 576.832 523.01C579.855 519.641 582.729 515.36 585.451 510.428C591.432 499.588 595.253 487.804 598.208 475.62C603.61 453.345 605.839 429.42 603.375 406.576C603.031 403.387 602.325 399.389 601.23 395.287C598.63 385.547 595.639 375.91 592.29 366.403C585.591 347.384 577.379 328.933 567.804 311.189C548.358 275.149 523.338 241.829 493.36 213.868C463.001 185.551 423.63 162.994 381.418 160.77ZM322.509 275.92C324.015 275 325.565 276.787 324.818 278.229C321.201 285.208 315.119 291.1 310.067 297.08C304.836 303.272 299.643 309.498 294.463 315.733C283.915 328.428 273.62 341.356 263.731 354.572L261.121 358.068C252.427 369.739 243.838 381.594 236.238 393.994C232.262 400.481 228.758 407.19 225.576 414.099C222.547 420.676 221.15 428.615 217.51 434.793C217.281 435.183 216.571 435.151 216.483 434.658C215.295 428.006 218.23 419.994 220.327 413.765C222.82 406.357 226.368 399.301 230.166 392.486C238.088 378.27 247.58 364.945 257.116 351.781C266.801 338.414 276.856 325.32 287.405 312.622C292.36 306.658 297.426 300.813 302.644 295.082L304.607 292.939C310.072 287.011 315.58 280.15 322.509 275.92ZM297.185 255.254C299.662 253.419 301.776 257.169 300.196 259.157C290.757 271.031 280.017 281.7 269.687 292.774C259.767 303.409 250.285 314.442 241.338 325.909C223.095 349.292 208.492 374.95 196.124 401.841C195.891 402.348 195.157 401.97 195.267 401.48C201.818 372.393 217.134 345.975 234.573 322.106L235.236 321.201C252.875 297.198 273.151 273.069 297.185 255.254Z" fill="black"/>
</svg>
