<svg width="900" height="900" viewBox="0 0 900 900" fill="none" xmlns="http://www.w3.org/2000/svg">
<path fill-rule="evenodd" clip-rule="evenodd" d="M488.569 451.415C488.69 451.036 489.217 451.037 489.338 451.415C490.437 454.84 491.082 458.195 492.723 461.416C493.129 461.833 493.419 462.359 493.575 462.926C494.341 464.2 495.195 465.409 496.151 466.553C497.353 467.993 498.227 469.346 497.59 471.311C497.276 472.28 496.465 472.899 495.443 472.946C492.637 473.073 491.039 470.397 490.046 467.607C483.102 469.913 475.456 471.218 468.178 470.645C462.262 470.178 455.818 468.696 450.521 465.675C450.552 466.816 450.596 467.958 450.636 469.1C450.71 471.213 451.278 473.526 451.058 475.601C450.84 477.66 449.671 479.253 447.553 479.572C445.729 479.846 443.472 478.628 443.117 476.675C442.705 474.408 443.468 472.825 444.095 470.685C444.65 468.794 445.085 466.862 445.563 464.95C446.045 463.02 446.439 461.074 446.797 459.118C447.059 457.687 446.87 456.074 447.377 454.725C447.417 454.62 447.52 454.544 447.636 454.578C450.334 455.353 450.487 459.696 450.476 462.026L450.475 462.141C450.471 462.616 450.476 463.091 450.481 463.566L451.512 463.791C457.17 465.016 462.666 465.946 468.615 465.608C475.594 465.213 481.731 462.661 488.354 460.913C487.804 457.767 487.635 454.336 488.569 451.415ZM465.231 389.43C468.328 388.37 471.676 387.869 474.933 388.029C481.914 388.374 488.564 391.558 493.141 396.864C497.463 401.872 499.811 408.154 499.781 414.781C499.748 421.588 497.96 429.254 494.593 435.213C487.518 447.734 470.994 447.821 459.119 442.829C446.447 437.502 441.291 424.067 444.343 411.079C446.638 401.311 454.467 389.59 465.231 389.43ZM485.877 399.1C482.138 396.099 477.429 394.75 472.672 395.091C470.308 395.261 467.907 395.881 465.761 396.89C464.621 397.426 463.601 398.174 462.478 398.732C461.477 399.229 460.393 399.519 459.36 399.937L458.975 400.101C457.279 400.859 455.57 399.774 455.485 398.194C451.795 403.372 450.044 410.393 450.072 416.622C450.094 421.209 451.186 425.974 453.819 429.793C456.746 434.038 461.601 436.277 466.471 437.466C471.135 438.604 476.221 438.999 480.896 437.706C485.748 436.364 488.883 432.681 490.667 428.091C494.537 418.133 494.856 406.309 485.877 399.1ZM469.214 411.448C471.331 408.557 475.13 408.404 477.221 411.448C478.537 413.364 478.343 415.21 478.239 417.415L478.218 417.91C478.157 419.656 478.165 421.493 477.511 423.106C476.672 425.176 475.04 426.503 472.729 426.228C471.369 426.066 470.229 425.254 469.568 424.134L469.545 424.147C468.618 422.296 468.379 420.418 468.222 418.398L468.115 416.917C467.984 414.969 467.977 413.136 469.214 411.448Z" fill="black"/>
</svg>
