<svg width="284" height="284" viewBox="0 0 284 284" fill="none" xmlns="http://www.w3.org/2000/svg">
<path fill-rule="evenodd" clip-rule="evenodd" d="M192.581 211.822C189.281 216.137 183.306 219.442 176.614 221.022C170.238 222.528 163.191 222.466 157.109 220.149L156.587 219.941C152.04 218.053 147.675 214.239 146.017 210.26C145.358 208.678 145.135 207.069 145.586 205.569C145.992 204.219 146.943 202.976 148.527 201.909C149.025 201.574 149.692 201.55 150.327 201.662C151.116 201.801 151.893 202.17 152.362 202.668C154.964 205.435 158.739 208.132 163.207 208.086C166.655 208.051 169.47 206.69 172.2 205.151L174.119 204.053C175.97 202.996 177.847 202.004 179.971 201.551C183.773 200.739 188.384 202.222 191.194 204.67C192.419 205.737 193.309 206.991 193.551 208.343C193.755 209.477 193.469 210.661 192.581 211.822ZM172.814 136.367C180.366 140.957 191.872 151.66 183.748 163.039C174.186 173.073 160.419 161.569 153.634 156.366C147.344 152.334 140.276 162.704 146.112 167.413C195.136 203.708 215.031 137.567 176.634 130.97C172.406 130.243 170.836 134.947 172.814 136.367ZM87.6232 65.8211L89.7926 65.2263L92.0047 64.6292L93.5005 64.2337C103.775 61.5444 115.108 59.1776 125.297 60.3331C129.013 60.7551 132.029 62.8461 132.555 66.7391C132.998 70.0241 130.875 74.2621 127.262 74.8461C115.295 76.7821 103.044 76.1541 91.0222 78.1501C85.0352 79.1431 79.0942 80.3761 73.1302 81.4871C68.5952 82.3331 63.9092 82.6301 59.3352 83.3141L60.3862 83.4601C60.7542 83.5101 60.6622 84.1291 60.2992 84.1041C58.7915 83.9536 57.2816 83.9302 55.7694 84.0359L55.1212 84.0891C54.1342 84.2281 53.5522 83.0501 54.4322 82.4521C60.0052 78.6711 64.7342 74.5731 70.9742 71.7861C76.3712 69.3761 81.9262 67.3891 87.6232 65.8211ZM181.162 60.0223C189.062 52.0363 205.862 55.1053 215.26 58.7583C220.624 60.8443 225.724 63.4813 229.972 67.4263L230.386 67.8144L231.024 68.4278C233.892 71.2352 237.089 75.0982 236.634 79.1453C236.565 79.7623 236.229 80.4673 235.532 80.5913C231.768 81.2583 228.071 79.2723 224.595 78.0773L222.293 77.2873C218.836 76.1098 215.357 74.9847 211.793 74.1723C207.361 73.1643 202.84 72.5813 198.29 72.6393C193.691 72.6993 188.751 73.9973 184.37 72.1713C179.484 70.1363 176.951 64.2803 181.162 60.0223ZM103.116 124.43C101.101 126.488 98.4385 127.65 95.0316 126.959C92.3694 126.419 87.3005 123.742 83.2512 119.62C80.481 116.8 78.1647 113.275 77.535 109.193C77.3888 108.245 76.8857 107.637 76.225 107.254C75.7033 106.952 75.0154 106.8 74.2661 106.876C73.6299 106.94 72.9544 107.171 72.4324 107.476C71.4395 108.057 71.0334 108.882 70.9509 109.498C70.1543 115.442 72.4501 121.339 76.0288 126.312C80.8584 133.022 87.951 137.94 92.1197 139.091C99.2534 141.062 106.77 139.493 112.312 134.528C116.744 130.558 119.016 125.386 121.124 120.067L121.53 119.036C122.004 117.829 122.475 116.631 122.973 115.446C123.972 113.071 123.652 111.018 122.683 109.418C121.61 107.645 119.63 106.398 117.425 106.014C115.387 105.66 113.205 106.048 111.484 107.292C110.029 108.344 108.856 110.01 108.44 112.474C107.762 116.481 106.19 121.078 103.418 124.111L103.116 124.43ZM225.441 101.24C223.779 100.374 222.478 100.113 220.634 100.666C219.615 100.972 218.607 101.559 217.818 102.348C217.036 103.13 216.472 104.102 216.253 105.181C215.713 107.843 214.257 110.335 212.181 111.96C210.407 113.349 208.167 114.085 205.683 113.669C203.003 113.222 200.449 111.503 198.69 109.476C198.2 108.911 197.799 108.282 197.41 107.645L197.178 107.263C196.312 105.832 195.469 104.502 194.274 103.451C193.821 103.052 193.138 102.775 192.477 102.775C192.208 102.775 191.936 102.818 191.676 102.899C189.008 105.577 188.495 107.608 188.581 109.623C188.671 111.736 189.504 113.875 190.85 115.871C194.008 120.553 200.003 124.392 204.049 125.261C209.589 126.452 215.091 125.023 219.503 121.928C224.042 118.744 227.406 113.801 228.454 108.23C228.707 106.888 228.599 105.44 228.088 104.184C227.589 102.957 226.719 101.906 225.441 101.24Z" fill="black"/>
</svg>
