<svg width="788" height="788" viewBox="0 0 788 788" fill="none" xmlns="http://www.w3.org/2000/svg">
<path fill-rule="evenodd" clip-rule="evenodd" d="M585.074 392.065C581.362 362.444 569.702 330.994 557.439 303.379C529.865 244.993 466.738 236.955 410.147 224.917C354.303 216.787 295.168 209.446 240.166 225.667C209.245 233.242 197.168 270.068 202.048 299.129C204.833 317.238 213.076 334.377 220.105 351.16C234.076 385.626 242.94 422.525 242.955 459.841C241.996 484.227 238.554 512.061 266.578 522.39C293.245 535.651 295.498 571.599 328.889 591.995C342.391 619.344 379.17 621.751 405.641 628.095C422.372 631.297 439.292 633.654 456.258 635.176C505.384 641.471 544.684 627.236 570.4 583.474C587.609 556.841 600.424 526.089 597.258 493.811C594.105 459.821 588.852 426.009 585.074 392.065Z" fill="white"/>
<path fill-rule="evenodd" clip-rule="evenodd" d="M410.571 153.959C413.375 150.781 417.695 151.871 420.317 154.384C422.024 154.887 423.678 155.635 425.24 156.625C428.77 156.172 432.471 156.172 435.933 156.299C436.773 155.828 437.673 155.409 438.653 155.049C445.653 152.49 451.852 153.79 456.965 157.216C459.428 154.886 462.535 153.424 466.507 153.645C470.052 153.843 472.578 155.511 474.743 157.708C476.902 154.595 480.392 152.374 484.74 152.065C490.817 151.633 496.659 154.07 501.501 157.843C504.322 154.607 508.168 152.747 512.454 152.729C515.274 152.217 518.25 152.419 520.939 153.231C524.843 154.41 528.271 156.619 531.001 159.486C535.32 155.35 540.607 152.374 546.703 152.808C554.593 153.378 561.133 159.179 564.173 166.319C569.513 168.458 574.443 171.509 578.563 175.859C578.783 176.088 578.993 176.328 579.213 176.569C581.433 177.388 583.523 178.549 585.363 180.078C591.193 184.929 592.493 191.949 590.563 198.828C590.833 199.929 591.063 201.049 591.273 202.168C596.733 202.998 601.693 206.149 604.513 211.279C608.373 218.319 607.613 227.598 603.433 234.319C601.636 237.21 599.355 239.646 596.793 241.776C599.69 248.356 598.3 256.208 593.629 261.53C592.491 263.365 591.094 265.021 589.522 266.52C591.257 273.323 588.171 280.342 582.011 283.977L581.484 285.295C581.395 285.515 581.305 285.733 581.213 285.949C581.145 286.229 581.061 286.5 580.978 286.773C580.831 289.187 580.036 291.556 578.458 293.788C575.227 298.362 571.223 301.345 569.099 306.685L568.887 307.246C567.974 309.773 565.026 311.556 562.514 310.776C576.461 339.417 583.773 371.286 588.793 402.518C591.296 418.099 593.228 433.734 594.794 449.429L596.331 465.058C597.682 478.951 598.885 492.889 598.893 506.828C598.913 538.359 589.893 568.688 570.533 593.779C552.223 617.498 526.313 634.688 497.043 641.458C466.823 648.438 431.373 645.688 404.273 629.708C396.283 625.009 403.283 613.708 411.413 617.489C426.803 624.649 442.443 629.969 459.503 631.159C476.133 632.328 492.803 630.248 508.573 624.808C534.663 615.799 556.863 596.929 571.133 573.429C578.163 561.848 583.253 549.279 585.963 535.998C589.336 519.445 588.828 502.336 587.588 485.571L587.503 484.429C585.053 452.128 581.823 419.628 576.603 387.649C571.989 359.37 564.894 331.664 555.683 304.571C552.075 301.395 548.039 298.767 543.72 296.771C512.093 295.45 480.409 295.836 448.823 298.018C421.885 299.891 395.077 303.06 368.472 307.678L365.623 308.179C359.733 309.228 353.193 309.828 347.643 312.199C342.883 314.239 340.953 318.159 339.753 322.978C336.733 335.168 336.273 348.509 335.763 361.009C335.263 373.228 336.393 385.549 335.413 397.728C334.583 407.918 331.973 418.348 324.423 425.719C320.473 429.578 315.613 431.688 311.053 434.618C308.103 436.509 306.853 438.458 307.233 441.958C308.053 449.618 314.223 459.268 307.293 465.828C306.073 466.978 303.963 467.128 302.763 465.828C299.903 462.719 295.953 460.348 292.563 457.838C291.143 456.799 292.323 454.779 293.933 455.498C296.053 456.449 298.213 457.569 300.423 458.549C295.543 454.529 288.603 452.558 282.823 451.388C279.913 450.808 276.853 450.638 273.823 450.909C271.583 451.978 269.293 452.969 267.003 453.938C264.093 455.159 261.153 456.268 258.193 457.319C247.923 465.688 243.023 479.299 245.163 492.609C246.333 499.958 249.723 507.949 256.113 512.239C263.683 517.319 273.823 515.138 282.003 518.909C289.663 522.438 294.323 529.569 297.813 536.949L299.268 540.021C302.507 546.824 305.837 553.446 310.263 559.638C315.383 566.808 321.653 573.248 328.493 578.779C331.811 581.455 335.348 583.863 339.003 586.056L340.003 586.649C343.703 588.819 346.353 590.888 346.603 595.478C346.683 597.078 345.673 598.538 344.373 599.368C338.773 602.918 333.203 598.478 328.543 595.378C323.513 592.038 318.703 588.279 314.253 584.179C305.793 576.399 298.473 567.159 292.843 557.128C288.553 549.489 286.113 538.739 279.333 532.819C275.193 529.208 269.343 529.179 264.173 528.518C259.363 527.899 254.813 526.899 250.533 524.529C233.123 514.859 228.203 491.449 232.333 473.359C233.033 470.308 234.013 467.338 235.223 464.478C228.743 465.558 221.463 458.859 224.093 452.098C224.293 451.588 224.523 451.109 224.743 450.618C220.473 447.808 217.103 443.549 215.503 437.978C214.683 435.098 214.563 432.188 214.993 429.378C212.923 427.989 211.213 426.078 210.113 423.728C206.673 422.138 203.623 419.759 201.803 416.359C199.283 411.668 199.603 407.348 201.523 403.458C201.253 402.969 200.993 402.469 200.743 401.958C193.693 397.489 188.773 389.788 189.333 381.248C189.513 378.418 190.213 375.868 191.293 373.569C191.203 373.279 191.113 372.978 191.033 372.688C185.133 369.688 180.253 364.759 178.513 358.179C176.773 351.558 178.823 344.958 182.923 339.878C176.923 335.489 173.313 329.359 175.503 320.088C176.393 316.319 178.183 312.888 180.603 309.998C180.593 309.909 180.573 309.819 180.553 309.728L179.991 309.292C172.584 303.447 168.326 295.999 172.873 286.838C174.913 282.719 177.823 279.848 181.243 277.958L181.413 277.418C178.963 272.168 178.133 266.338 179.823 260.208C181.203 255.159 184.473 251.138 188.653 248.469C188.373 246.208 188.413 243.799 188.863 241.188C189.613 236.779 191.803 232.929 195.003 230.199C195.123 229.618 195.273 229.049 195.443 228.478C196.523 224.989 198.543 221.199 200.883 218.388C202.813 216.058 204.973 215.208 207.613 215.118C207.453 212.969 207.563 210.788 208.003 208.578C209.353 201.759 213.693 195.348 220.123 192.438C222.763 191.248 225.543 190.899 228.223 191.188C230.503 186.388 234.953 182.909 240.423 182.159C242.553 181.859 244.533 181.878 246.353 182.149C247.383 181.668 248.453 181.239 249.573 180.848C250.313 180.588 251.063 180.348 251.813 180.109C254.343 176.969 257.673 174.458 261.563 172.949C266.053 171.199 270.623 171.378 274.673 172.848L275.963 172.578C277.983 169.078 281.203 166.368 286.153 165.138C291.773 163.748 297.543 165.688 301.963 169.219C301.983 169.219 302.003 169.219 302.033 169.208C304.343 164.038 308.293 160.438 314.923 160.688C319.053 160.848 322.783 162.899 325.663 165.819C327.263 165.618 328.863 165.438 330.473 165.259C332.173 163.268 334.063 161.409 336.153 159.739C339.573 156.998 344.023 157.219 346.543 161.078C347.093 161.918 347.603 162.768 348.113 163.618L350.423 163.458C353.143 159.788 356.853 157.308 361.933 157.109C366.593 156.918 369.913 159.199 372.443 162.388C374.503 162.338 376.573 162.299 378.643 162.268C381.053 159.478 383.893 157.018 387.133 154.978C389.613 153.418 393.273 153.949 395.283 156.029C396.641 157.443 397.905 158.919 399.08 160.447C402.109 157.051 406.2 154.814 410.571 153.959ZM263.393 471.508C268.063 468.848 274.343 471.728 278.863 473.988C284.373 476.738 289.843 480.888 293.213 486.088C297.803 493.168 287.013 498.888 282.183 492.538C279.213 488.628 276.843 484.688 273.243 481.268C269.953 478.128 265.183 476.028 263.293 471.888C263.223 471.748 263.243 471.588 263.393 471.508ZM266.673 299.657L266.761 299.408C268.089 295.775 262.293 294.209 260.976 297.812C258.98 303.273 261.281 309.21 266.675 311.568C268.17 312.222 269.878 311.995 270.779 310.492C271.536 309.227 271.185 307.035 269.703 306.388C266.668 305.061 265.651 302.718 266.673 299.657ZM216.742 289.499C219.643 286.939 215.386 282.708 212.499 285.257C209.805 287.635 207.807 290.865 208.326 294.58C208.855 298.366 211.71 301.039 214.835 302.928C218.147 304.931 221.166 299.745 217.863 297.747L217.492 297.52C216.105 296.659 214.482 295.475 214.248 293.781C213.999 291.981 215.522 290.576 216.742 289.499ZM233.209 244.327L233.415 244.176C236.531 241.952 233.538 236.746 230.386 238.995C227.496 241.058 225.178 243.738 224.934 247.434C224.697 251.026 226.525 254.14 228.915 256.667C231.574 259.478 235.812 255.23 233.158 252.425C230.572 249.691 230.066 246.708 233.209 244.327Z" fill="black"/>
</svg>
