<svg width="900" height="900" viewBox="0 0 900 900" fill="none" xmlns="http://www.w3.org/2000/svg">
<path fill-rule="evenodd" clip-rule="evenodd" d="M516.463 381.093C514.343 364.177 507.685 346.217 500.682 330.447C484.935 297.105 448.886 292.515 416.568 285.64C384.678 280.998 350.908 276.805 319.498 286.069C301.84 290.394 294.943 311.424 297.73 328.02C299.321 338.362 304.028 348.149 308.042 357.733C316.02 377.416 321.082 398.487 321.091 419.797C320.543 433.723 318.578 449.618 334.581 455.517C349.81 463.09 351.096 483.619 370.165 495.266C377.875 510.884 398.879 512.259 413.995 515.882C423.55 517.71 433.212 519.056 442.901 519.925C470.955 523.52 493.398 515.391 508.083 490.4C517.911 475.191 525.229 457.629 523.421 439.197C521.621 419.786 518.621 400.477 516.463 381.093Z" fill="white"/>
<path fill-rule="evenodd" clip-rule="evenodd" d="M416.811 245.119C418.412 243.304 420.879 243.926 422.376 245.361C423.351 245.648 424.296 246.076 425.188 246.641C427.204 246.382 429.317 246.382 431.294 246.455C431.774 246.186 432.288 245.947 432.848 245.741C436.845 244.28 440.385 245.022 443.305 246.978C444.711 245.648 446.486 244.813 448.754 244.939C450.778 245.052 452.221 246.005 453.457 247.259C454.69 245.482 456.683 244.213 459.166 244.037C462.637 243.79 465.973 245.182 468.738 247.337C470.349 245.489 472.545 244.426 474.993 244.416C476.603 244.124 478.303 244.239 479.838 244.703C482.068 245.376 484.025 246.638 485.584 248.275C488.051 245.913 491.07 244.213 494.551 244.461C499.057 244.787 502.792 248.099 504.528 252.177C507.577 253.398 510.393 255.141 512.745 257.625C512.871 257.756 512.991 257.893 513.117 258.03C514.384 258.498 515.578 259.161 516.629 260.034C519.958 262.804 520.7 266.813 519.598 270.742C519.752 271.37 519.884 272.01 520.004 272.649C523.122 273.123 525.954 274.922 527.565 277.852C529.769 281.872 529.335 287.171 526.948 291.009C525.922 292.66 524.619 294.051 523.156 295.268C524.81 299.025 524.017 303.509 521.349 306.549C520.699 307.597 519.901 308.542 519.004 309.398C519.994 313.283 518.232 317.292 514.714 319.367L514.413 320.12C514.363 320.246 514.311 320.37 514.259 320.494C514.22 320.653 514.172 320.808 514.125 320.964C514.041 322.343 513.587 323.695 512.685 324.97C510.84 327.582 508.554 329.286 507.341 332.335L507.22 332.656C506.698 334.099 505.015 335.117 503.58 334.671C511.545 351.027 515.721 369.227 518.587 387.062C520.017 395.96 521.12 404.888 522.014 413.851L522.892 422.777C523.664 430.71 524.351 438.67 524.355 446.63C524.367 464.636 519.216 481.956 508.16 496.285C497.704 509.83 482.907 519.647 466.192 523.513C448.934 527.499 428.69 525.928 413.214 516.803C408.652 514.119 412.649 507.666 417.292 509.825C426.08 513.914 435.012 516.952 444.754 517.631C454.251 518.299 463.771 517.111 472.776 514.004C487.676 508.86 500.353 498.084 508.502 484.664C512.517 478.05 515.424 470.872 516.971 463.288C518.897 453.835 518.607 444.065 517.899 434.491L517.851 433.839C516.452 415.393 514.607 396.833 511.626 378.571C508.991 362.422 504.939 346.6 499.679 331.128C497.619 329.314 495.314 327.813 492.848 326.674C474.787 325.919 456.693 326.14 438.655 327.386C423.272 328.455 407.963 330.265 392.77 332.902L391.143 333.188C387.779 333.787 384.044 334.13 380.875 335.484C378.157 336.649 377.054 338.888 376.369 341.64C374.645 348.601 374.382 356.219 374.091 363.358C373.805 370.336 374.45 377.372 373.891 384.327C373.417 390.146 371.926 396.102 367.615 400.311C365.359 402.515 362.584 403.72 359.98 405.393C358.295 406.473 357.581 407.586 357.798 409.585C358.266 413.959 361.79 419.47 357.832 423.216C357.136 423.873 355.931 423.959 355.245 423.216C353.612 421.441 351.356 420.087 349.421 418.653C348.61 418.06 349.283 416.907 350.203 417.317C351.414 417.86 352.647 418.5 353.909 419.06C351.122 416.764 347.159 415.638 343.858 414.97C342.197 414.639 340.449 414.542 338.719 414.697C337.44 415.307 336.132 415.873 334.824 416.426C333.162 417.124 331.483 417.757 329.793 418.357C323.928 423.136 321.13 430.909 322.352 438.51C323.02 442.707 324.956 447.27 328.605 449.72C332.928 452.621 338.719 451.376 343.39 453.529C347.764 455.544 350.426 459.617 352.419 463.831L353.25 465.585C355.099 469.47 357.001 473.252 359.528 476.788C362.452 480.883 366.033 484.56 369.939 487.719C371.834 489.247 373.854 490.622 375.941 491.874L376.512 492.213C378.625 493.452 380.138 494.634 380.281 497.255C380.327 498.169 379.75 499.002 379.007 499.476C375.809 501.504 372.629 498.968 369.967 497.198C367.095 495.291 364.348 493.144 361.807 490.803C356.976 486.36 352.796 481.083 349.58 475.355C347.131 470.992 345.737 464.853 341.865 461.473C339.501 459.41 336.16 459.394 333.208 459.016C330.461 458.663 327.863 458.092 325.419 456.738C315.476 451.216 312.667 437.848 315.025 427.517C315.425 425.775 315.985 424.079 316.676 422.445C312.975 423.062 308.818 419.237 310.32 415.376C310.434 415.084 310.565 414.811 310.691 414.53C308.252 412.926 306.328 410.494 305.414 407.312C304.946 405.667 304.877 404.006 305.123 402.401C303.941 401.608 302.964 400.516 302.336 399.174C300.372 398.266 298.63 396.908 297.591 394.966C296.151 392.287 296.334 389.82 297.431 387.599C297.276 387.32 297.128 387.034 296.985 386.742C292.959 384.19 290.15 379.792 290.469 374.916C290.572 373.299 290.972 371.843 291.589 370.53C291.537 370.365 291.486 370.193 291.44 370.027C288.071 368.314 285.284 365.499 284.29 361.742C283.297 357.961 284.467 354.192 286.809 351.291C283.382 348.784 281.321 345.283 282.572 339.989C283.08 337.837 284.102 335.877 285.484 334.227C285.478 334.176 285.467 334.125 285.455 334.073L285.134 333.824C280.905 330.486 278.473 326.233 281.07 321.001C282.235 318.649 283.896 317.009 285.849 315.93L285.947 315.622C284.547 312.624 284.073 309.294 285.039 305.794C285.827 302.91 287.694 300.614 290.081 299.09C289.921 297.799 289.944 296.423 290.201 294.932C290.629 292.414 291.88 290.216 293.707 288.657C293.776 288.325 293.862 288 293.959 287.674C294.575 285.681 295.729 283.517 297.065 281.912C298.167 280.581 299.401 280.096 300.908 280.044C300.817 278.817 300.88 277.572 301.131 276.31C301.902 272.415 304.381 268.754 308.053 267.093C309.56 266.413 311.148 266.214 312.678 266.379C313.98 263.638 316.521 261.651 319.645 261.223C320.862 261.051 321.992 261.062 323.032 261.217C323.62 260.942 324.231 260.697 324.87 260.474C325.293 260.325 325.721 260.188 326.15 260.052C327.594 258.259 329.496 256.825 331.717 255.963C334.282 254.964 336.891 255.066 339.204 255.905L339.941 255.751C341.094 253.752 342.933 252.205 345.76 251.502C348.969 250.709 352.264 251.817 354.789 253.833C354.8 253.833 354.811 253.833 354.829 253.827C356.148 250.874 358.403 248.818 362.19 248.961C364.548 249.053 366.678 250.224 368.323 251.891C369.237 251.777 370.15 251.674 371.07 251.572C372.04 250.435 373.12 249.373 374.313 248.419C376.266 246.854 378.808 246.98 380.247 249.184C380.561 249.664 380.852 250.149 381.143 250.634L382.462 250.543C384.016 248.447 386.134 247.031 389.035 246.917C391.697 246.808 393.592 248.111 395.037 249.932C396.214 249.903 397.396 249.881 398.578 249.864C399.954 248.27 401.576 246.865 403.426 245.7C404.842 244.81 406.933 245.113 408.08 246.301C408.856 247.108 409.578 247.951 410.249 248.824C411.979 246.884 414.315 245.607 416.811 245.119ZM332.763 426.46C335.429 424.941 339.016 426.586 341.597 427.876C344.744 429.447 347.867 431.817 349.792 434.786C352.413 438.829 346.251 442.096 343.493 438.469C341.797 436.237 340.443 433.987 338.388 432.034C336.509 430.24 333.785 429.041 332.705 426.677C332.665 426.597 332.677 426.506 332.763 426.46ZM334.636 328.322L334.686 328.179C335.444 326.105 332.134 325.211 331.382 327.268C330.242 330.387 331.556 333.777 334.637 335.124C335.491 335.497 336.466 335.368 336.98 334.509C337.413 333.787 337.212 332.535 336.366 332.166C334.633 331.408 334.052 330.07 334.636 328.322ZM306.122 322.521C307.778 321.059 305.347 318.643 303.699 320.098C302.16 321.456 301.019 323.301 301.316 325.422C301.618 327.584 303.248 329.111 305.033 330.19C306.924 331.333 308.648 328.372 306.762 327.231L306.55 327.101C305.758 326.61 304.831 325.933 304.698 324.966C304.555 323.938 305.425 323.136 306.122 322.521ZM315.525 296.725L315.643 296.638C317.423 295.368 315.713 292.395 313.913 293.68C312.263 294.858 310.939 296.388 310.8 298.499C310.665 300.55 311.708 302.328 313.073 303.772C314.592 305.377 317.012 302.951 315.496 301.349C314.02 299.788 313.731 298.084 315.525 296.725Z" fill="black"/>
</svg>
