<svg width="284" height="284" viewBox="0 0 284 284" fill="none" xmlns="http://www.w3.org/2000/svg">
<path fill-rule="evenodd" clip-rule="evenodd" d="M158.853 222.089L160.986 221.522C168.625 219.441 176.553 216.137 183.848 220.665C186.482 222.3 186.879 225.777 184.797 228.027C178.888 234.411 170.166 233.173 162.175 233.237L161.782 233.241C153.742 233.352 145.762 232.951 137.805 231.798C136.756 231.646 136.549 229.903 137.502 229.485C144.43 226.448 151.556 224.053 158.853 222.089ZM171.814 105.367C179.365 109.957 190.871 120.66 182.748 132.04C173.186 142.073 159.418 130.569 152.634 125.366C146.343 121.334 139.275 131.705 145.112 136.413C194.135 172.708 214.03 106.567 175.633 99.9704C171.406 99.2434 169.836 103.947 171.814 105.367ZM224.316 45.0053C236.498 44.6323 236.509 63.9853 224.316 63.9333C220.676 63.9173 217.036 63.9163 213.396 63.9083C215.511 71.6193 214.303 80.8143 210.483 87.2913C207.963 91.5663 201.932 92.3433 198.409 88.8473C192.327 82.8113 191.128 73.9843 193.277 65.9803L192.835 64.9333C192.691 64.5903 192.588 64.2433 192.504 63.8943C180.739 63.9043 168.973 63.9325 157.208 63.9517L139.56 63.9703C128.102 63.9743 116.639 64.0673 105.18 63.9603C105.321 64.1733 105.462 64.3853 105.577 64.6283C106.292 66.1333 106.595 68.0333 106.82 69.6603C107.204 72.4523 107.158 75.4593 106.718 78.2403C106.397 80.2723 105.807 82.6923 104.676 84.6073L104.669 84.6473C104.136 86.9193 103.463 89.0943 101.706 90.7333C101.178 91.2243 100.663 91.5743 100.119 91.8223C99.092 92.8973 97.77 93.6083 96.033 93.631C95.111 93.6413 94.1 93.3723 93.12 92.9903C91.613 93.1163 90.057 92.4343 88.724 91.8303C87.655 91.3453 86.674 90.7013 85.883 89.8613C85.512 89.7733 85.138 89.6283 84.764 89.3973C82.472 87.9873 81.596 85.1613 81.477 82.6093C81.469 82.4543 81.475 82.2913 81.47 82.1343C81.385 81.7883 81.309 81.4403 81.251 81.0903C80.489 76.5553 81.415 71.4483 82.385 67.0413C82.629 65.9383 82.83 64.6573 83.129 63.4183C80.842 63.3293 78.557 63.2413 76.27 63.1473C70.542 62.9133 63.551 63.6803 58.252 61.2593C57.866 61.0843 57.97 60.5703 58.252 60.3693C63.1442 56.8722 70.7454 56.3063 76.6373 55.1546L77.138 55.0543C84.164 53.6133 91.186 52.4013 98.283 51.3663C111.944 49.3743 125.78 48.3023 139.56 47.5303C167.773 45.9503 196.074 45.8683 224.316 45.0053Z" fill="black"/>
</svg>
