<svg width="900" height="900" viewBox="0 0 900 900" fill="none" xmlns="http://www.w3.org/2000/svg">
<path fill-rule="evenodd" clip-rule="evenodd" d="M472.378 466.988C469.206 465.461 465.578 465.566 462.252 466.576C458.315 467.772 454.829 470.256 451.727 472.9C450.516 473.933 449.365 475.098 448.211 476.27C446.744 477.758 445.272 479.261 443.638 480.479C444.177 475.888 447.398 471.225 450.165 467.853C453.56 463.716 458.286 460.364 463.396 458.742C468.838 457.014 474.453 457.964 478.86 460.769C483.227 463.548 486.408 468.15 487.049 473.779C487.184 474.961 486.631 476.043 485.811 476.863C484.854 477.82 483.512 478.45 482.259 478.45C480.981 478.45 479.848 477.934 479.007 477.114C478.125 476.253 477.562 475.059 477.481 473.761C477.427 472.379 477.107 471.167 475.945 469.708C475.164 468.729 473.697 467.622 472.378 466.988ZM480.441 418.667C479.125 419.145 477.596 420.3 477.151 421.565C477.054 421.844 476.999 422.129 476.994 422.417C476.566 421.546 476.403 420.521 476.459 419.506C476.636 416.283 479.71 413.944 482.328 412.577C483.259 412.091 484.215 411.768 485.168 411.599L488.54 410.997L485.374 409.69C482.454 408.484 479.715 406.826 477.271 404.795C474.937 402.857 472.779 400.351 471.512 397.585C470.94 396.336 470.491 395.114 470.176 393.794L470.092 393.423C469.937 392.712 469.768 392.349 469.578 391.947C469.467 391.711 469.346 391.456 469.216 391.043C469.143 390.811 469.102 390.617 469.17 390.465C469.236 390.319 469.396 390.256 469.552 390.197C470.586 389.806 472.251 390.072 472.959 390.355C474.668 391.038 476.17 392.528 477.617 393.923C478.322 394.604 479.013 395.269 479.7 395.838C484.079 399.469 489.545 401.535 494.887 402.039L495.209 402.067C496.622 402.183 497.931 402.739 498.859 403.668C499.689 404.498 500.201 405.627 500.201 406.979C500.201 408.296 499.609 409.564 498.688 410.484C497.809 411.363 496.62 411.933 495.329 411.887C494.422 411.855 493.522 411.774 492.629 411.654L489.303 411.209L491.842 413.402C492.346 413.837 492.819 414.337 493.245 414.917C495.559 418.067 496.552 422.868 496.466 426.723C496.45 427.458 496.246 428.217 495.871 428.871C495.543 429.442 495.083 429.935 494.49 430.243C493.779 430.612 493.177 430.808 492.368 430.824C491.488 430.841 490.742 430.562 490.13 430.096C489.364 429.513 488.802 428.653 488.415 427.715C487.902 426.467 487.87 425.149 487.82 423.832C487.785 422.922 487.747 422.01 487.595 421.111C487.379 419.963 486.86 418.501 486.205 418.039C485.239 417.357 482.667 417.883 481.071 418.441L480.441 418.667ZM466.703 430.199C470.479 432.494 476.233 437.845 472.171 443.535C467.39 448.552 460.506 442.799 457.114 440.198C453.968 438.182 450.434 443.367 453.353 445.721C477.865 463.869 487.812 430.799 468.614 427.5C466.5 427.137 465.714 429.489 466.703 430.199ZM439.923 422.913C438.892 421.749 437.886 420.664 436.334 420.046C434.498 419.314 432.272 419.236 430.362 419.784C428.197 420.406 426.482 421.841 425.211 423.675C424.095 425.286 423.327 427.205 422.888 429.096C422.07 428.197 421.688 427.158 421.503 426.101C421.199 424.361 421.414 422.568 422.007 420.862C423.328 417.066 426.509 413.69 430.218 412.237C434.454 410.578 439.693 411.132 443.584 413.468C445.569 414.66 447.857 416.729 449.009 418.752C449.796 420.135 449.842 421.566 449.341 422.796C448.791 424.15 447.602 425.249 446.085 425.801C445.366 426.062 444.626 426.041 443.924 425.856C443.01 425.614 442.157 425.099 441.461 424.498C440.881 423.998 440.398 423.448 439.923 422.913ZM446.251 398.968C445.382 400.131 444.102 400.726 442.768 400.788C442.631 400.794 442.495 400.795 442.359 400.79C442.272 400.889 442.176 400.999 442.063 401.127C441.803 401.424 441.632 401.618 441.454 401.807C440.813 402.49 440.14 403.142 439.437 403.762C437.873 405.144 436.188 406.356 434.366 407.373C431.175 409.156 427.674 410.547 424.074 411.211C420.503 411.87 416.977 412.072 413.38 411.556L412.507 411.431C410.43 411.126 407.706 410.729 406 409.442C406.672 409.228 407.353 409.218 408.017 409.188C408.454 409.169 408.888 409.15 409.311 409.111C411.324 408.928 413.28 408.594 415.229 408.054C419.018 407.006 422.451 405.558 425.796 403.483C429.076 401.449 432.087 398.681 434.486 395.648L434.774 395.281C434.896 395.122 435.017 394.965 435.137 394.808C436.118 393.526 437.019 392.304 438.544 391.49C439.752 390.845 440.975 390.671 442.151 390.857C443.515 391.072 444.81 391.758 445.957 392.719C446.806 393.43 447.198 394.453 447.26 395.502C447.334 396.736 446.958 398.022 446.251 398.968Z" fill="black"/>
</svg>
