<svg width="788" height="788" viewBox="0 0 788 788" fill="none" xmlns="http://www.w3.org/2000/svg">
<path fill-rule="evenodd" clip-rule="evenodd" d="M578.581 415.193C578.183 392.791 577.743 369.941 574.413 347.757C571.157 326.069 562.2 306.465 546.808 290.716C514.115 257.263 466.725 249.092 422.613 241.604L347.194 228.801C324.185 224.896 299.638 218.654 276.391 224.192C264.936 226.921 255.208 233.261 246.317 240.762C237.747 247.992 228.533 255.756 222.726 265.483C216.909 275.224 214.908 286.611 213.017 297.628C210.884 310.049 209.227 322.567 208.05 335.115C205.691 360.255 205.369 385.584 207.08 410.776C207.909 422.995 209.228 435.179 210.912 447.309C211.747 453.324 212.691 459.324 213.757 465.303C214.071 467.066 214.31 469.018 214.632 470.99C212.253 477.756 210.901 484.763 211.01 491.74C211.331 512.292 228.678 525.231 246.166 532.178C256.306 536.206 266.907 538.943 276.87 543.443C287.351 548.176 294.485 555.849 301.651 564.602C315.318 581.296 330.741 596.3 348.352 608.818C385.69 635.359 432.982 647.912 478.286 638.384C489.156 636.098 500.122 632.548 509.893 627.199C520.209 621.552 527.966 613.369 534.48 603.694C546.575 585.733 555.249 565.508 561.811 544.927C568.504 523.933 573.255 502.901 575.846 481.01C578.428 459.19 578.972 437.148 578.581 415.193Z" fill="white"/>
<path fill-rule="evenodd" clip-rule="evenodd" d="M337.911 150.764C369.121 146.471 412.198 160.424 427.741 188.558C501.947 171.064 595.54 170.491 656.701 228.728C720.52 297.81 640.36 388.895 587.207 409.431C591.077 428.238 585.043 548.723 542.348 602.466C508.464 648.002 429.557 669.017 393.044 614.628L392.759 614.18C388.848 607.898 392.217 608.1 396.232 612.772C431.986 644.214 480.599 644.751 518.06 611.569C588.268 550.919 581.029 402.209 547.621 316.178C452.491 305.73 350.637 334.563 284.932 406.172L289.375 432.92C290.132 437.477 290.992 442.03 291.648 446.603C292.068 449.533 292.115 452.447 290.085 454.819C283.382 462.649 272.085 450.883 262.79 446.203C260.046 445.817 257.297 445.668 254.601 445.858C209.943 451.61 218.742 538.24 267.824 523.055C271.948 520.486 275.491 521.27 277.091 524.998C288.79 535.714 296.504 554.826 315.941 573.234C322.799 580.139 329.04 585.916 336.754 591.455C341.285 596.037 354.957 600.709 350.623 608.55C342.427 626.392 294.096 570.347 285.551 554.848C258.778 565.42 229.108 561.829 201.363 559.245C54.9933 551.635 74.5333 397.345 194.509 299.934C217.093 283.308 242.01 269.745 267.911 259.308C271.447 257.883 269.902 252.077 266.316 253.522C249.178 260.429 232.471 268.65 216.545 278.165L216.521 272.477C216.498 262.895 216.648 252.92 218.312 244.166C219.144 238.1 220.543 231.621 222.697 226.747C225.36 211.804 267.075 160.512 337.911 150.764ZM252.648 465.747C254.908 463.6 259.127 466.16 261.139 466.096C266.284 466.8 271.172 468.973 274.984 471.655C277.501 473.065 279.265 474.389 280.739 475.607L280.779 475.596C280.768 475.596 280.754 475.607 280.742 475.61L280.881 475.704C283.027 477.229 290.884 485.818 285.92 483.508C285.55 483.027 285.171 482.565 284.789 482.112C284.748 482.174 284.691 482.235 284.623 482.294L284.902 482.708C289.121 489.054 281.837 482.368 280.716 480.592C280.663 480.635 280.603 480.664 280.544 480.695L282.003 482.471C282.207 482.723 282.368 482.925 282.501 483.095L282.809 483.392C287.687 488.187 287.839 492.502 282.172 485.413C282.395 485.747 282.574 486.101 282.599 486.415L282.935 486.843C287.384 492.577 283.765 490.541 281.554 488.092L281.369 487.881L281.407 487.938C283.464 491.107 279.383 488.884 278.661 487.189L278.631 487.112C277.845 486.471 277.361 485.751 277.196 485.569L277.165 485.539C273.339 481.619 267.793 478.302 263.082 476.795C262.399 476.665 261.708 476.561 261.01 476.487C258.177 475.855 255.313 475.422 252.419 475.188C252.065 475.146 251.706 474.886 251.438 474.55C247.062 474.402 248.413 472.609 250.228 472.275L250.26 472.27L249.9 472.24C247.091 471.966 245.173 470.958 248.013 470.339L248.373 470.268C248.329 470.199 248.29 470.13 248.252 470.061C245.82 469.794 247.407 467.43 248.757 468.002C248.189 466.145 250.785 467.072 251.109 466.796C251.356 466.522 251.663 466.28 251.84 466.267C252.622 465.715 252.243 465.765 252.648 465.747ZM267.528 435.681L266.958 436.014C266.497 436.283 266.023 436.462 265.547 436.567C266.219 436.853 266.883 437.162 267.54 437.492C267.53 437.089 267.522 436.686 267.522 436.284L267.528 435.681Z" fill="black"/>
</svg>
