<svg width="900" height="900" viewBox="0 0 900 900" fill="none" xmlns="http://www.w3.org/2000/svg">
<path fill-rule="evenodd" clip-rule="evenodd" d="M526.444 395.443C526.217 382.65 525.965 369.601 524.064 356.932C522.204 344.547 517.089 333.352 508.299 324.358C489.63 305.254 462.567 300.588 437.376 296.312L394.307 289.001C381.167 286.771 367.149 283.206 353.874 286.369C347.332 287.927 341.777 291.548 336.699 295.831C331.805 299.96 326.543 304.394 323.227 309.948C319.905 315.511 318.763 322.014 317.683 328.305C316.465 335.399 315.518 342.547 314.846 349.713C313.499 364.07 313.315 378.534 314.292 392.92C314.766 399.898 315.519 406.856 316.481 413.783C316.958 417.218 317.497 420.645 318.105 424.059C318.285 425.066 318.421 426.18 318.605 427.307C317.246 431.17 316.474 435.172 316.537 439.156C316.72 450.893 326.626 458.282 336.613 462.249C342.404 464.549 348.458 466.112 354.147 468.682C360.132 471.385 364.206 475.767 368.299 480.765C376.103 490.299 384.911 498.867 394.968 506.015C416.29 521.172 443.297 528.341 469.169 522.9C475.376 521.594 481.639 519.567 487.219 516.512C493.11 513.287 497.539 508.614 501.259 503.089C508.166 492.832 513.12 481.283 516.867 469.529C520.689 457.541 523.402 445.53 524.882 433.029C526.357 420.568 526.667 407.981 526.444 395.443Z" fill="white"/>
<path fill-rule="evenodd" clip-rule="evenodd" d="M389.005 244.436C406.828 241.985 431.428 249.953 440.304 266.019C482.68 256.029 536.128 255.702 571.055 288.959C607.5 328.409 561.723 380.425 531.37 392.152C533.58 402.892 530.134 471.697 505.752 502.388C486.402 528.392 441.341 540.393 420.49 509.333L420.327 509.078C418.093 505.49 420.017 505.605 422.31 508.273C442.728 526.229 470.489 526.536 491.882 507.587C531.975 472.951 527.841 388.028 508.763 338.899C454.438 332.932 396.272 349.398 358.751 390.291L361.288 405.566C361.72 408.169 362.211 410.769 362.586 413.38C362.826 415.053 362.853 416.717 361.693 418.072C357.865 422.543 351.414 415.824 346.106 413.152C344.539 412.931 342.969 412.846 341.43 412.955C315.927 416.239 320.952 465.711 348.981 457.039C351.336 455.572 353.359 456.02 354.273 458.149C360.954 464.268 365.359 475.183 376.459 485.695C380.375 489.638 383.939 492.937 388.344 496.1C390.932 498.717 398.739 501.385 396.264 505.862C391.584 516.051 363.984 484.046 359.104 475.195C343.815 481.232 326.871 479.182 311.027 477.706C227.44 473.36 238.599 385.25 307.113 329.622C320.01 320.128 334.239 312.382 349.03 306.422C351.05 305.608 350.167 302.293 348.12 303.118C338.333 307.062 328.792 311.757 319.697 317.191L319.683 313.943C319.67 308.471 319.756 302.774 320.706 297.775C321.181 294.311 321.98 290.611 323.21 287.828C324.731 279.294 348.553 250.003 389.005 244.436ZM340.314 424.313C341.605 423.086 344.014 424.548 345.163 424.512C348.101 424.914 350.893 426.155 353.07 427.686C354.507 428.492 355.514 429.248 356.356 429.943L356.379 429.937C356.373 429.937 356.365 429.943 356.358 429.945L356.437 429.999C357.663 430.87 362.15 435.774 359.315 434.455C359.103 434.181 358.887 433.917 358.669 433.658C358.645 433.693 358.613 433.728 358.574 433.762L358.733 433.998C361.143 437.622 356.983 433.804 356.343 432.79C356.313 432.815 356.278 432.831 356.245 432.849L357.078 433.863C357.194 434.007 357.286 434.122 357.362 434.219L357.538 434.389C360.324 437.127 360.411 439.591 357.174 435.543C357.302 435.734 357.404 435.936 357.418 436.115L357.61 436.36C360.151 439.634 358.084 438.472 356.821 437.073L356.716 436.953L356.738 436.985C357.912 438.795 355.582 437.525 355.169 436.557L355.152 436.513C354.703 436.147 354.427 435.736 354.333 435.632L354.315 435.615C352.13 433.376 348.963 431.482 346.273 430.622C345.883 430.547 345.488 430.488 345.09 430.446C343.472 430.085 341.836 429.838 340.183 429.704C339.981 429.68 339.776 429.532 339.623 429.34C337.124 429.255 337.896 428.231 338.932 428.04L338.951 428.038L338.745 428.02C337.141 427.864 336.046 427.288 337.667 426.935L337.873 426.894C337.848 426.855 337.826 426.816 337.804 426.776C336.415 426.624 337.321 425.274 338.092 425.6C337.768 424.54 339.25 425.069 339.435 424.912C339.576 424.755 339.752 424.617 339.853 424.609C340.299 424.294 340.083 424.323 340.314 424.313ZM348.812 407.143L348.486 407.333C348.223 407.487 347.952 407.589 347.68 407.649C348.064 407.812 348.443 407.989 348.819 408.177C348.813 407.947 348.808 407.717 348.808 407.487L348.812 407.143Z" fill="black"/>
</svg>
