<svg width="788" height="788" viewBox="0 0 788 788" fill="none" xmlns="http://www.w3.org/2000/svg">
<path fill-rule="evenodd" clip-rule="evenodd" d="M508.414 321.221C504.553 297.862 517.225 293.016 508.414 270.811C488.832 229.667 435.467 231.44 396.307 228.276C352.629 226.602 308.421 232.369 268.155 249.875C258.537 254.056 249.286 258.973 240.418 264.56C232.75 269.391 233.804 278.577 238.639 283.588C203.774 332.96 223.715 399.232 195.896 451.201C190.757 460.491 183.96 468.821 179.493 478.487C172.703 493.18 172.268 514.233 187.666 523.99C209.353 535.63 221.455 512.583 232.111 545.993C285.329 662.483 392.328 669.043 493.904 608.31C502.692 603.421 511.661 597.896 518.297 590.217C533.36 573.265 531.586 549.427 531.919 528.259C532.105 515.854 532.136 503.446 532.015 491.039C531.541 440.781 514.884 371.065 508.414 321.221Z" fill="white"/>
<path fill-rule="evenodd" clip-rule="evenodd" d="M292.066 181.507C353.396 153.687 422.957 143.137 489.857 150.057C522.878 153.468 555.463 160.784 586.474 172.669L589.193 173.719C596.848 176.665 605.1 179.59 610.917 185.587C617.688 192.557 619.587 203.097 614.747 211.707C610.987 218.397 604.227 223.196 597.017 225.757C599.557 227.837 601.967 230.157 604.227 232.747C608.037 237.087 608.327 243.276 604.227 247.557C596.327 255.807 586.077 261.776 575.037 264.637C576.277 270.627 575.607 277.257 572.947 283.227C565.314 300.364 543.813 302.407 527.267 301.389L526.767 301.357L525.847 311.887C525.357 317.497 521.997 321.847 516.297 322.707C516.097 322.737 515.896 322.757 515.697 322.776C524.717 355.397 530.167 389.026 535.197 422.457C537.825 439.908 540.178 457.4 542.43 474.903L543.177 480.737C545.577 499.607 548.577 518.667 549.617 537.677C550.547 554.927 547.257 571.397 536.627 585.317C527.087 597.797 514.077 607.147 500.087 614.087C468.477 629.776 435.207 641.457 400.247 646.877L397.916 647.236C384.421 649.296 370.517 651.032 357.167 647.297C345.438 644.017 333.137 635.557 335.787 621.967C336.677 617.377 343.097 617.177 345.297 620.727L345.805 621.541C348.443 625.727 351.334 629.617 355.938 631.776C361.327 634.317 367.577 635.026 373.467 635.097C389.917 635.287 407.047 631.187 422.887 627.077C452.467 619.398 482.847 606.877 507.077 587.907C517.387 579.847 525.667 569.767 528.587 556.797C532.197 540.807 528.877 523.327 527.237 507.257C523.862 474.098 519.845 441 515.607 407.939L514.757 401.327C511.188 373.687 507.438 346.037 505.657 318.237C504.917 317.227 504.417 316.077 504.217 314.817L503.938 313.007C503.697 311.457 503.657 310.037 503.827 308.727C503.837 303.707 503.977 298.717 504.267 293.696C504.316 292.797 504.357 291.897 504.387 291.007C499.167 292.157 493.907 293.087 488.627 293.877C451.507 299.467 413.807 300.867 376.387 298.087C357.717 296.696 339.188 294.307 320.717 291.317C311.316 289.797 301.947 288.117 292.607 286.237C285.857 284.887 279.247 283.057 272.607 281.337C265.757 291.307 262.057 303.577 262.777 315.627C263.587 329.377 272.747 341.847 270.177 355.897C267.765 369.046 256.5 373.123 245.378 376.38L240.647 377.747C237.008 378.809 234.366 379.834 233.707 384.207C232.577 391.717 233.967 400.167 234.257 407.717C234.607 416.647 235.066 425.577 235.277 434.507C235.387 439.127 235.566 443.767 235.557 448.387C235.547 451.667 235.057 453.907 233.787 456.026C234.767 457.257 235.646 458.587 236.427 459.997C236.677 460.457 236.057 460.946 235.688 460.567C234.697 459.537 233.646 458.607 232.537 457.776C231.977 458.467 231.327 459.167 230.566 459.917L230.507 459.837C228.127 462.207 224.347 462.437 221.396 459.917L220.622 459.246C218.462 457.353 216.978 455.776 216.377 452.647C216.347 452.487 216.316 452.327 216.297 452.167C210.807 451.977 205.227 453.276 200.287 456.007C192.457 460.337 186.947 466.507 183.688 474.127C184.987 475.647 186.507 477.007 188.277 478.147C188.527 478.317 188.307 478.687 188.037 478.557C186.227 477.707 184.607 476.657 183.157 475.427C181.987 478.427 181.167 481.647 180.667 485.057C178.907 497.097 182.047 511.807 192.927 518.667C197.637 521.637 203.017 523.247 208.597 523.267C211.316 523.276 213.667 522.817 216.307 522.167C218.097 521.727 219.877 521.087 221.747 521.087C223.347 521.087 224.827 521.487 226.197 522.287L225.817 522.321C224.894 522.407 225.071 522.446 226.357 522.446C230.357 522.617 232.646 526.677 230.807 530.207L230.566 530.753C230.515 530.863 230.472 530.954 230.438 531.026L230.293 531.963C230.278 532.052 230.263 532.143 230.247 532.237L230.191 532.427C230.181 532.457 230.17 532.487 230.157 532.517L236.156 541.666C243.511 552.857 251.031 564.005 259.587 574.227C265.587 581.397 271.947 588.427 278.667 594.937C284.707 600.787 291.947 603.607 298.787 608.207C302.438 610.647 303.507 615.757 300.188 619.047C290.447 628.717 276.657 621.037 268.667 613.177C261.107 605.727 254.577 596.767 248.947 587.797C238.957 571.847 231.007 554.887 227.527 536.477C226.077 537.807 224.227 538.637 222.357 539.287C218.607 540.587 214.477 541.127 210.517 541.267C202.927 541.517 195.327 539.677 188.497 536.417C160.707 523.167 156.627 483.487 173.617 460.087C171.326 453.444 170.047 446.235 168.656 440.088L168.024 437.34C160.999 406.647 156.281 374.333 168.737 344.257C170.337 340.377 172.137 336.597 174.267 332.977C175.977 330.067 178.917 326.967 179.727 323.657C181.527 316.387 170.417 308.747 167.177 302.977C163.367 296.207 162.827 288.217 168.017 282.026C168.677 281.247 169.396 280.526 170.177 279.897C165.257 270.977 165.027 259.757 171.507 250.957C175.767 245.157 182.267 241.097 189.367 239.867C193.707 239.117 198.927 239.397 203.697 240.737C229.816 216.487 259.617 196.227 292.066 181.507ZM191.766 484.937C198.737 478.787 206.437 475.567 215.937 476.377C225.487 477.196 236.987 481.147 242.596 489.337C247.027 495.807 237.997 505.297 231.497 500.437C225.577 496.007 221.626 491.007 214.277 488.627C207.676 486.497 199.506 485.127 192.596 486.347C191.836 486.477 191.077 485.537 191.766 484.937Z" fill="black"/>
</svg>
