<svg width="900" height="900" viewBox="0 0 900 900" fill="none" xmlns="http://www.w3.org/2000/svg">
<path fill-rule="evenodd" clip-rule="evenodd" d="M504.396 341.921C502.191 328.582 509.428 325.814 504.396 313.134C493.213 289.638 462.738 290.65 440.375 288.844C415.432 287.888 390.187 291.181 367.192 301.178C361.7 303.566 356.417 306.374 351.353 309.564C346.974 312.323 347.575 317.569 350.337 320.43C330.426 348.625 341.814 386.471 325.928 416.148C322.993 421.454 319.111 426.211 316.56 431.73C312.683 440.121 312.434 452.144 321.228 457.716C333.612 464.363 340.523 451.202 346.609 470.281C377 536.804 438.103 540.551 496.11 505.868C501.128 503.076 506.25 499.921 510.04 495.536C518.642 485.855 517.629 472.242 517.819 460.154C517.925 453.07 517.943 445.984 517.874 438.899C517.603 410.198 508.091 370.385 504.396 341.921Z" fill="white"/>
<path fill-rule="evenodd" clip-rule="evenodd" d="M380.847 262.135C415.871 246.248 455.595 240.223 493.799 244.175C512.656 246.123 531.265 250.301 548.974 257.088L550.527 257.687C554.898 259.37 559.611 261.04 562.932 264.465C566.799 268.445 567.884 274.464 565.12 279.381C562.972 283.202 559.112 285.942 554.995 287.405C556.445 288.592 557.821 289.917 559.112 291.396C561.288 293.875 561.453 297.409 559.112 299.854C554.601 304.565 548.747 307.974 542.443 309.608C543.151 313.028 542.768 316.814 541.249 320.224C536.89 330.01 524.612 331.177 515.163 330.595L514.877 330.577L514.352 336.59C514.072 339.794 512.153 342.278 508.898 342.769C508.784 342.787 508.669 342.798 508.556 342.809C513.707 361.438 516.819 380.642 519.691 399.733C521.192 409.699 522.536 419.688 523.822 429.683L524.248 433.015C525.619 443.791 527.332 454.675 527.926 465.531C528.457 475.382 526.578 484.788 520.508 492.737C515.06 499.864 507.63 505.203 499.641 509.167C481.59 518.126 462.59 524.797 442.626 527.892L441.295 528.097C433.588 529.273 425.648 530.265 418.024 528.132C411.326 526.259 404.302 521.427 405.815 513.667C406.323 511.045 409.989 510.931 411.246 512.958L411.536 513.423C413.042 515.814 414.693 518.035 417.323 519.268C420.4 520.719 423.969 521.124 427.333 521.165C436.727 521.273 446.509 518.932 455.555 516.585C472.447 512.2 489.796 505.049 503.633 494.216C509.521 489.613 514.249 483.857 515.917 476.45C517.978 467.319 516.082 457.337 515.146 448.16C513.218 429.224 510.924 410.323 508.504 391.443L508.019 387.667C505.981 371.882 503.839 356.092 502.822 340.217C502.399 339.64 502.114 338.983 502 338.264L501.84 337.23C501.703 336.345 501.68 335.534 501.777 334.786C501.783 331.919 501.863 329.07 502.028 326.202C502.056 325.689 502.08 325.175 502.097 324.667C499.116 325.323 496.112 325.854 493.097 326.306C471.899 329.498 450.37 330.297 429 328.71C418.338 327.915 407.757 326.551 397.209 324.844C391.84 323.976 386.49 323.016 381.156 321.943C377.302 321.172 373.527 320.127 369.735 319.144C365.823 324.838 363.71 331.845 364.121 338.726C364.584 346.578 369.815 353.7 368.347 361.723C366.97 369.232 360.537 371.56 354.186 373.42L351.484 374.201C349.406 374.807 347.897 375.393 347.521 377.89C346.875 382.179 347.669 387.004 347.835 391.316C348.035 396.415 348.297 401.515 348.417 406.615C348.48 409.253 348.582 411.903 348.577 414.541C348.571 416.414 348.292 417.693 347.566 418.903C348.126 419.606 348.628 420.366 349.074 421.171C349.217 421.434 348.863 421.713 348.652 421.497C348.086 420.908 347.486 420.377 346.852 419.903C346.533 420.297 346.161 420.697 345.727 421.125L345.693 421.08C344.334 422.433 342.175 422.564 340.49 421.125L340.048 420.742C338.815 419.661 337.967 418.761 337.624 416.974C337.607 416.882 337.589 416.791 337.578 416.7C334.443 416.591 331.257 417.333 328.436 418.892C323.964 421.365 320.818 424.889 318.956 429.24C319.698 430.108 320.566 430.885 321.577 431.536C321.72 431.633 321.594 431.844 321.44 431.77C320.406 431.285 319.481 430.685 318.653 429.983C317.985 431.696 317.517 433.535 317.231 435.482C316.226 442.358 318.019 450.758 324.233 454.675C326.922 456.372 329.995 457.291 333.181 457.302C334.734 457.308 336.076 457.045 337.584 456.674C338.606 456.423 339.623 456.057 340.691 456.057C341.604 456.057 342.45 456.286 343.232 456.743L343.015 456.762C342.488 456.811 342.589 456.834 343.323 456.834C345.608 456.931 346.915 459.25 345.865 461.266L345.727 461.577C345.698 461.64 345.673 461.692 345.654 461.733L345.571 462.268C345.562 462.319 345.554 462.371 345.545 462.425L345.513 462.533C345.507 462.55 345.501 462.568 345.493 462.585L348.919 467.809C353.119 474.2 357.414 480.566 362.3 486.404C365.726 490.498 369.358 494.513 373.196 498.231C376.645 501.571 380.779 503.182 384.686 505.809C386.771 507.202 387.381 510.12 385.486 511.999C379.923 517.521 372.048 513.136 367.485 508.647C363.168 504.393 359.439 499.276 356.224 494.153C350.519 485.045 345.979 475.36 343.991 464.846C343.163 465.606 342.107 466.08 341.039 466.451C338.897 467.193 336.539 467.502 334.278 467.582C329.943 467.724 325.603 466.674 321.703 464.812C305.833 457.245 303.503 434.585 313.205 421.222C311.897 417.429 311.167 413.312 310.372 409.802L310.011 408.232C306 390.705 303.305 372.251 310.418 355.076C311.332 352.86 312.36 350.702 313.576 348.634C314.553 346.972 316.232 345.202 316.694 343.312C317.722 339.16 311.378 334.797 309.528 331.502C307.352 327.636 307.043 323.073 310.007 319.538C310.384 319.093 310.795 318.681 311.241 318.322C308.431 313.228 308.3 306.821 312 301.795C314.433 298.483 318.145 296.165 322.2 295.462C324.678 295.034 327.659 295.194 330.383 295.959C345.299 282.111 362.317 270.541 380.847 262.135ZM323.57 435.413C327.55 431.901 331.948 430.063 337.373 430.525C342.826 430.993 349.394 433.249 352.597 437.926C355.127 441.621 349.97 447.04 346.259 444.265C342.878 441.735 340.622 438.88 336.425 437.521C332.655 436.304 327.99 435.522 324.043 436.219C323.609 436.293 323.176 435.756 323.57 435.413Z" fill="black"/>
</svg>
