<svg width="473" height="567" viewBox="0 0 473 567" fill="none" xmlns="http://www.w3.org/2000/svg">
<g filter="url(#filter0_d_431_5)">
<path fill-rule="evenodd" clip-rule="evenodd" d="M242.041 75.2598C298.821 75.2598 357.551 119.272 378.365 147.357C395.864 170.97 405.286 277.745 405.286 349.905C405.286 364.997 413.614 393.446 411.184 407.882C402.278 460.781 363.475 505.146 286.677 505.146C209.878 505.146 154.815 474.704 97.7322 392.973C70.0356 392.973 56.6127 371.733 56.4149 338.214C56.2868 315.868 65.1992 300.63 83.1521 292.5C76.751 204.314 81.611 148.741 97.7322 125.782C121.914 91.3426 185.26 75.2598 242.041 75.2598Z" fill="#FFE2C7"/>
<path fill-rule="evenodd" clip-rule="evenodd" d="M218.146 56.5564C253.996 52.9264 289.126 55.9764 324.456 62.2874C327.156 62.7764 328.686 64.5474 329.255 66.6764C345.896 67.4364 362.556 68.6574 379.175 69.5674C385.206 69.8974 388.625 75.8564 385.875 81.2374C385.326 82.3064 384.755 83.3464 384.175 84.3864L384.904 84.1461C389.903 82.5423 395.304 81.7516 400.175 84.2974C406.375 87.5374 408.806 94.6864 407.436 101.266C407.085 102.946 406.496 104.556 405.826 106.127C407.186 106.037 408.556 106.067 409.916 106.247C417.156 107.207 422.536 112.757 422.916 120.147C423.476 131.306 416.286 142.627 407.816 150.616C409.045 153.147 409.516 156.127 409.005 159.147C407.985 165.117 403.587 168.692 398.489 171.024C400.615 177.775 401.62 184.833 401.027 192.046C400.829 194.454 398.723 196.443 396.5 196.931C404.786 219.745 408.98 244.239 411.996 268.106C414.146 285.087 415.206 302.167 415.335 319.276C415.398 327.001 415.271 334.734 414.947 342.46L414.816 345.356C414.416 353.707 414.396 362.476 412.896 370.737C418.016 379.446 420.076 390.257 420.946 400.016C422.026 412.096 420.316 424.556 416.505 436.047C402.125 479.466 358.726 506.866 315.135 513.987C274.786 520.577 228.096 511.707 204.516 475.056C204.146 474.476 204.936 473.997 205.396 474.377C222.266 488.096 241.835 494.216 263.096 497.196C299.856 502.337 341.175 493.616 370.675 470.497C384.835 459.397 395.045 443.237 399.536 425.846C401.826 416.957 402.616 407.686 401.715 398.537C400.795 389.257 396.686 381.337 394.096 372.567C393.226 369.606 394.146 366.856 395.956 364.897C396.465 357.776 397.666 350.596 398.125 343.497C398.635 335.426 398.946 327.356 399.056 319.276C399.266 302.516 398.566 285.726 397.156 269.037C394.576 238.476 387.726 208.657 383.706 178.356C382.218 179.691 380.084 180.239 377.848 179.073L377.616 178.946L376.396 178.247C376.326 178.247 376.246 178.257 376.175 178.266C367.826 179.077 359.166 177.917 351.166 175.426C342.795 172.827 335.026 168.827 328.085 163.497C326.766 170.186 326.215 176.946 326.206 183.766C326.196 188.026 321.686 190.237 318.106 188.417C302.236 180.356 287.076 171.067 272.686 160.627C271.005 169.237 269.326 177.846 267.635 186.466C266.986 189.787 262.755 191.127 260.045 189.547C249.266 183.276 239.956 175.067 232.376 165.306C230.863 168.2 229.345 171.094 227.817 173.981L225.516 178.306C223.246 182.556 220.206 187.257 215.236 188.616C209.976 190.056 205.585 186.647 203.816 181.886C203.276 180.407 202.776 178.886 202.316 177.356C197.835 187.587 192.776 197.587 187.056 207.127C178.476 221.436 168.175 234.186 157.906 247.266C154.786 251.237 149.446 247.446 149.016 243.587C148.766 241.317 148.556 239.037 148.375 236.766C142.391 248.842 136.147 260.805 129.344 272.421L130.318 276.238C133.125 287.516 135.456 298.874 137.99 310.212C138.808 313.87 136.864 319.1 132.59 319.723C127.484 320.467 122.653 323.076 117.423 321.281C111.72 319.323 110.593 314.394 107.901 309.722C107.364 308.791 106.739 307.936 106.067 307.124L105.896 307.346C105.476 307.897 104.476 307.297 104.726 306.667L105.019 305.939C102.706 303.484 99.9383 301.436 97.3933 299.233C91.3453 298.214 84.5423 299.33 80.3753 301.787C70.8853 307.386 66.5263 318.926 66.4363 329.537C66.3263 341.957 70.1753 355.917 76.6753 366.537C79.5363 371.207 83.4563 375.426 88.6353 377.497C93.7763 379.556 99.3463 378.917 104.576 380.856C108.036 382.147 110.166 385.987 108.076 389.466C107.936 389.707 107.776 389.926 107.625 390.157L109.181 392.222C110.251 393.652 111.366 395.183 112.406 396.776C115.066 399.837 117.866 402.787 120.576 405.797C125.585 411.346 130.446 417.047 135.375 422.676C140.026 427.987 144.946 432.976 150.016 437.886C154.806 442.537 160.786 446.446 165.186 451.407C169.465 456.247 170.626 464.696 163.585 467.497C155.796 470.604 148.9 463.324 143.657 458.47L143.436 458.266C133.824 449.421 125.144 439.313 118.251 428.184C111.423 432.832 101.547 433.276 94.7483 428.629C91.1703 426.184 88.4253 422.075 87.0913 417.605C85.8333 417.887 84.5763 418.052 83.3503 418.033C82.7193 418.399 82.0863 418.755 81.4463 419.087C76.3753 421.726 70.1463 420.547 67.8263 414.936C65.7137 409.843 67.8906 404.058 69.7935 399.15L70.1863 398.136C71.2663 395.337 72.4563 392.287 73.9363 389.417C69.8163 386.317 66.2953 382.466 63.3163 378.087C53.3063 363.337 48.3063 341.766 50.5163 324.167C51.8463 313.547 56.8353 302.547 65.0053 295.386L64.7063 294.606C62.4163 288.797 60.3353 282.966 58.9863 276.827C57.4063 269.647 56.6353 262.207 55.9363 254.897C54.4563 239.457 54.8563 223.667 56.8263 208.287C60.5263 179.337 69.9063 150.917 86.5563 126.827C81.8353 121.176 78.0963 114.526 80.0453 106.877C80.9363 103.366 82.9653 100.037 86.0263 98.0264C87.7153 96.9174 89.7263 96.7474 91.4163 95.8274L91.9244 95.5476C92.6668 95.1144 92.0989 95.1603 91.6563 93.1474C89.9063 85.1064 91.3563 77.3374 100.206 74.6674C108.536 72.1574 116.416 77.4874 121.346 83.8374C134.246 74.6864 151.246 69.8974 166.196 65.8274C183.196 61.2164 200.635 58.3374 218.146 56.5564ZM78.8067 326.257C78.7457 319.707 84.9557 315.667 91.0667 316.738C95.17 317.452 98.5931 319.901 101.807 322.432L103.375 323.672C107.289 326.745 111.782 330.057 114.116 334.408C117.536 340.828 110.307 349.467 103.557 344.967C98.9263 341.864 95.9584 336.892 92.9212 332.273L92.6067 331.797C91.2267 329.727 90.0167 327.527 88.1257 325.867L87.7172 325.509C87.0957 324.979 86.4283 324.496 85.6257 324.267C84.0773 323.822 81.2093 324.445 80.5265 326.288L80.4657 326.477C80.2157 327.408 78.8167 327.207 78.8067 326.257Z" fill="black"/>
<path fill-rule="evenodd" clip-rule="evenodd" d="M212.281 387.289C224.527 373.059 245.152 372.068 262.237 375.626C273.201 377.91 283.876 381.714 295.012 383.124C300.213 383.783 305.47 383.98 310.709 383.883C315.855 383.788 321.009 382.751 326.137 382.944C326.925 382.973 327.223 384.008 326.54 384.429C319.505 388.75 310.028 390.136 301.718 390.981C301.744 391.596 301.781 392.196 301.866 392.705C302.093 394.062 302.3 395.41 302.467 396.776C302.844 399.857 303.266 402.928 303.687 406.003C304.517 412.055 304.778 418.298 306.237 424.245L306.492 425.233C306.83 426.483 306.907 427.61 306.794 428.626L307.132 428.473L308.2 427.956L308.9 427.626C311.454 426.442 313.89 425.58 316.893 425.867C319.179 426.085 321.098 427.644 321.112 430.085C321.169 441.04 306.405 444.563 297.96 446.66L295.483 447.27C284.734 449.892 273.759 452.191 262.703 452.74C244.961 453.621 225.024 448.727 213.418 434.336C202.589 420.909 200.604 400.857 212.281 387.289ZM292.852 433.317C290.99 416.824 270.722 415.917 264.891 426.376C262.304 411.797 224.028 425.116 227.021 428.014C238.365 439 255.58 439.989 270.379 437.957C277.916 436.922 285.459 435.237 292.852 433.317ZM270.358 390.088L265.262 389.354L263.255 389.078C250.623 387.386 236.416 386.512 226.03 394.611C222.238 397.567 220.104 401.423 219.307 405.565C229.135 404.109 238.998 402.997 248.891 402.072L251.59 401.824C257.78 401.266 263.967 400.678 270.151 400.061L274.546 399.616L278.939 399.16C280.485 398.998 290.904 398.465 292.863 398.823C293.072 397.063 293.345 393.254 293.787 391.541C286.385 391.793 279.015 391.243 271.656 390.265L270.358 390.088ZM293.814 316.367C301.366 320.957 312.872 331.66 304.748 343.039C295.186 353.073 281.419 341.569 274.634 336.366C268.344 332.333 261.276 342.704 267.112 347.412C316.136 383.708 336.031 317.567 297.634 310.97C293.406 310.243 291.836 314.947 293.814 316.367ZM307.328 335.703L307.691 335.506L307.814 335.432C308.026 335.294 307.891 335.309 307.408 335.476L307.046 335.606V335.862C307.139 335.805 307.238 335.762 307.328 335.703ZM210.617 294.923L210.616 294.698C210.63 288.321 214.344 273.762 223.524 273.762C229.259 273.762 232.741 283.671 233.344 293.885L233.365 294.302C233.631 300.652 231.888 314.533 223.524 314.533C215.072 314.533 210.704 301.386 210.617 294.923ZM345.773 292.923L345.774 292.698C345.76 286.321 342.046 271.762 332.866 271.762C327.274 271.762 323.825 281.181 323.097 291.12L323.046 291.885C322.684 298.021 324.314 312.533 332.866 312.533C341.318 312.533 345.686 299.386 345.773 292.923ZM215.855 230.284C223.347 229.145 233.268 231.309 236.761 238.927C238.317 242.321 236.474 246.074 232.551 246.262C223.07 246.716 214.567 244.606 206.245 250.771C202.664 253.425 199.653 257.099 197.126 260.764L196.17 262.159L195.378 263.308C193.662 265.83 192.038 268.571 192.291 271.614C192.366 272.515 191.445 273.37 190.57 273.334C185.116 273.11 184.529 266.272 185.246 262.165C186.58 254.543 190.269 247.388 195.382 241.625C200.752 235.573 207.841 231.503 215.855 230.284ZM319.044 239.535C324.21 236.214 330.818 234.938 336.87 235.427C348.803 236.388 368.822 246.532 366.187 261.107C365.374 265.602 359.122 267.974 355.438 265.48C351.477 262.799 350.513 258.632 347.565 255.128C345.213 252.329 342.232 250.304 339.04 248.579C335.894 246.877 332.254 245.846 328.684 245.47L328.089 245.414C325.94 245.231 315.088 245.28 316.681 249.331C316.993 250.124 315.813 250.752 315.271 250.152C311.944 246.472 315.712 241.677 319.044 239.535Z" fill="black"/>
</g>
<defs>
<filter id="filter0_d_431_5" x="-4" y="0" width="481" height="575" filterUnits="userSpaceOnUse" color-interpolation-filters="sRGB">
<feFlood flood-opacity="0" result="BackgroundImageFix"/>
<feColorMatrix in="SourceAlpha" type="matrix" values="0 0 0 0 0 0 0 0 0 0 0 0 0 0 0 0 0 0 127 0" result="hardAlpha"/>
<feOffset dy="4"/>
<feGaussianBlur stdDeviation="2"/>
<feComposite in2="hardAlpha" operator="out"/>
<feColorMatrix type="matrix" values="0 0 0 0 0 0 0 0 0 0 0 0 0 0 0 0 0 0 0.25 0"/>
<feBlend mode="normal" in2="BackgroundImageFix" result="effect1_dropShadow_431_5"/>
<feBlend mode="normal" in="SourceGraphic" in2="effect1_dropShadow_431_5" result="shape"/>
</filter>
</defs>
</svg>
