<svg width="900" height="900" viewBox="0 0 900 900" fill="none" xmlns="http://www.w3.org/2000/svg">
<path fill-rule="evenodd" clip-rule="evenodd" d="M514.47 316.515C513.201 313.314 510.958 309.291 507.209 309.131C504.309 300.265 497.099 291.236 487.07 291.475C457.632 261.372 420.573 262.791 381.826 269.164C361.384 272.955 340.627 280.379 325.381 295.029C307.121 312.277 300.01 342.371 314.31 364.181C301.951 370.803 301.711 386.519 306.997 397.86C300.644 402.253 300.258 412.916 307.411 416.267C307.031 417.825 307.3 419.435 308.025 420.82C304.478 423.772 299.862 425.953 296.045 427.828C294.358 428.656 293.385 430.01 292.981 431.535C280.45 439.756 249.202 459.847 249.574 475.838C249.39 484.18 255.578 489.67 263.098 491.856C258.624 500.801 255.228 511.248 259.511 520.897C260.695 523.812 269.564 532.38 270.011 532.538C270.792 533.208 283.517 527.366 289.701 524.386C290.901 532.187 299.242 536.274 306.432 533.601C313.25 531.545 317.442 525.774 321.742 520.523C327.449 532.974 344.243 533.117 355.096 527.749C364.844 523.247 372.254 514.994 376.381 505.048C398.3 515.778 423.944 518.906 447.758 514.62C449.286 517.325 452.669 519.141 455.682 518.095C468.345 514.288 482.346 514.075 493.08 505.353C515.453 489.294 517.337 459.688 515.777 434.45C514.394 409.287 515.605 383.915 511.031 359.024C513.016 351.695 516.317 345.217 519.373 338.332C522.692 331.113 522.622 320.381 514.47 316.515Z" fill="white"/>
<path fill-rule="evenodd" clip-rule="evenodd" d="M306.454 423.324C307.773 422.993 308.481 424.765 307.362 425.477C300.256 429.997 292.914 434.034 286.05 438.952C279.521 443.627 273.49 448.953 267.866 454.678L267.243 455.316C262.159 460.547 256.528 467.201 256.471 474.916C256.427 480.914 261.051 487.46 267.502 486.672C269.932 486.375 272.166 489.459 271.318 491.682L270.426 494.025C266.837 503.507 263.185 514.251 266.02 524.228L266.124 524.584C266.81 526.868 267.533 528.887 270.184 528.841C272.645 528.798 275.206 527.968 277.509 527.176C282.29 525.532 286.622 522.79 290.299 519.342C293.552 516.292 297.707 519.391 297.269 523.266L297.253 523.39C296.654 527.739 303.583 529.759 306.733 529.137C312.953 527.907 317.387 521.675 320.919 516.925C322.617 514.642 326.74 513.743 328.232 516.925C331.188 523.226 337.281 527.936 344.408 528.134C348.11 528.236 351.662 527.183 354.798 525.228C356.078 524.431 357.223 523.482 358.272 522.406L358.533 522.134C360.086 520.488 361.158 519.613 363.142 518.537C365.097 517.478 367.625 518.791 367.613 521.102C367.597 524.096 366.72 526.086 364.656 528.257C362.948 530.056 360.918 531.634 358.785 532.896C354.497 535.429 349.4 536.854 344.408 536.689C336.54 536.429 329.03 532.507 324.161 526.408C319.191 532.351 313.025 537.812 305.012 537.665C299.014 537.555 293.424 534.433 290.746 529.595C286.965 532.202 282.815 534.24 278.375 535.571L277.979 535.688C271.695 537.517 264.464 538.244 260.419 532.005C256.621 526.148 256.338 518.038 257.209 511.343C257.986 505.363 259.826 499.684 261.939 494.082C255.924 492.286 251.256 486.636 249.652 480.547C247.226 471.338 251.932 462.407 257.75 455.564C264.07 448.131 272.025 441.844 280.039 436.341C288.031 430.854 296.985 425.697 306.454 423.324ZM511.964 351.294C511.979 351.038 512.398 350.949 512.437 351.23C515.197 371.262 516.796 391.253 518.119 411.422C518.79 421.641 519.552 431.848 520.385 442.054C521.186 451.84 522.517 461.887 522.216 471.713C521.745 487.1 514.273 499.611 502.022 508.614C490.282 517.243 475.719 521.509 461.43 523.311C453.132 524.358 444.719 524.408 436.411 523.424C432.097 522.913 427.788 522.234 423.562 521.213L421.734 520.756C418.407 519.906 414.691 518.753 414.216 514.81C413.986 512.901 415 511.493 416.638 510.535C418.773 509.285 421.222 510.021 423.422 510.59C427.13 511.55 430.877 512.373 434.667 512.943C442.806 514.167 451.173 514.239 459.354 513.392C473.116 511.965 487.633 507.502 498.243 498.284C502.854 494.278 506.864 489.397 508.973 483.599C511.684 476.144 511.283 468.012 511.192 460.205C510.981 442.054 511.167 423.903 510.914 405.749C510.661 387.541 510.882 369.476 511.964 351.294ZM373.575 266.465C389.655 262.318 405.975 261.241 422.492 262.489C438.069 263.665 455.814 267.151 468.536 276.731C469.153 277.196 468.784 278.076 468.02 277.955C459.514 276.599 451.224 274.133 442.755 272.501C434.609 270.932 426.317 269.754 418.022 269.481C389.971 268.557 358.757 274.913 336.137 292.402C325.53 300.602 317.436 311.628 314.215 324.747C310.911 338.203 312.698 352.755 319.333 364.927C320.288 366.68 319.894 369.453 317.901 370.386C311.853 373.217 307.546 379.49 307.639 386.258C307.685 389.541 308.816 392.69 310.635 395.403C312.559 398.273 315.486 400.281 317.638 402.961C318.484 404.016 318.517 405.47 317.846 406.442C319.104 406.993 320.461 407.288 321.699 407.939C322.749 408.492 322.778 410.216 321.699 410.759C318.969 412.134 316.018 410.675 314.176 408.459C313.847 408.063 313.562 407.651 313.303 407.231C311.097 406.763 309.12 405.656 307.393 404.141C304.104 406.111 303.653 410.496 306.479 413.846C307.922 415.556 309.972 416.612 312.044 417.371L312.293 417.461C314.309 418.177 316.156 418.577 317.466 420.19C318.33 418.389 319.322 416.691 320.428 415.144C324.448 409.521 330.627 404.532 337.958 405.165C343.702 405.66 348.677 409.772 349.854 415.445C349.941 415.865 349.308 416.193 349.12 415.755C346.365 409.329 337.646 409.094 332.453 412.442C326.345 416.38 323.007 423.801 321.668 430.712C320.35 437.521 321.112 445.801 326.208 450.98C328.293 453.099 331.129 454.564 334.089 454.95C335.537 455.14 336.813 454.954 338.197 454.675L339.114 454.483C339.75 454.352 340.383 454.246 341.05 454.304L342.044 454.438L342.609 454.702C343.099 454.923 343.055 454.862 342.477 454.521C344.166 454.383 345.039 455.631 345.132 457C345.185 457.034 345.237 457.071 345.281 457.124C351.691 464.97 356.451 473.987 363.254 481.576L365.246 483.799C370.366 489.494 376.211 495.668 383.166 498.622L383.993 498.965C386.016 499.82 388.048 500.99 388.306 503.429C388.538 505.613 386.815 507.258 384.83 507.768C380.308 508.927 375.154 504.909 371.842 502.272C364.721 496.604 358.736 489.379 353.794 481.777L353.305 481.02C349.242 474.675 345.423 467.438 344.237 459.907L344.023 460.254C344.007 460.279 343.994 460.298 343.986 460.309C343.744 460.637 343.477 460.915 343.168 461.181C342.336 461.899 341.322 462.318 340.268 462.603C338.291 463.136 336.122 463.242 334.089 463.034C329.96 462.612 326.1 461.04 322.836 458.481C312.897 450.686 311.724 436.182 315.743 424.415C312.445 425.203 308.688 422.983 306.112 421.081C303.159 418.898 300.723 415.748 300.141 412.041C299.563 408.364 301.908 403.494 305.386 402.075C301.777 397.742 299.676 391.593 299.459 386.67C299.083 378.106 303.632 370.012 310.617 365.34C304.049 351.262 302.783 334.93 307.206 319.983C315.983 290.323 345.383 273.736 373.575 266.465ZM348.551 491.822L348.633 491.561C349.332 489.267 350.236 484.704 353.663 486.442C356.937 488.101 354.847 493.011 353.702 495.402C352.332 498.262 349.966 500.556 346.788 501.17C344.204 501.67 341.365 501.028 339.557 499.031C339.03 498.449 338.733 497.81 338.42 497.106C338.299 496.832 338.244 496.644 338.221 496.522C338.191 496.656 338.107 496.856 337.891 497.091C336.449 498.667 335.086 500.502 334.039 502.366C333.791 502.807 333.01 502.498 333.208 502.016C334.427 499.034 334.222 494.422 336.94 492.265C339.335 490.364 341.586 491.86 342.853 494.075L342.918 494.19C344.77 497.552 347.721 494.359 348.551 491.822ZM322.493 481.047L322.744 480.699C325.305 477.199 329.624 472.988 333.947 476.244C335.321 477.279 335.372 479.007 333.947 480.034L333.408 480.419C331.519 481.758 329.639 483.022 328.252 484.942C326.745 487.029 325.392 489.239 323.365 490.877C319.782 493.772 313.991 494.343 310.881 490.44L310.575 490.052C310.315 489.717 310.017 489.314 309.775 488.912L309.586 489.172C309.567 489.199 309.55 489.224 309.534 489.247L309.491 489.314C308.213 491.356 306.598 493.038 304.588 494.365C300.766 496.886 296.46 497.237 292.136 495.902C291.713 495.771 291.827 495.204 292.236 495.166C297.359 494.688 302.351 491.048 304.435 486.362L304.67 485.836C305.513 483.971 306.458 482.2 308.541 481.468C310.569 480.755 312.698 481.508 314.088 483.042C315.251 484.324 315.55 486.872 317.648 486.31C319.945 485.695 321.238 482.818 322.493 481.047ZM307.82 449.91C308.955 449.048 310.732 449.973 311.044 451.222C312.46 456.879 306.58 463.545 300.93 463.721C299.475 463.765 298.076 463.413 296.788 462.74C295.789 462.218 294.606 460.884 293.509 460.663C292.092 460.378 290.837 462.265 289.839 463.234C288.602 464.436 287.377 465.551 285.991 466.576C285.437 466.985 284.577 466.298 284.812 465.669L285.28 464.419C286.978 459.97 289.903 453.474 295.375 455.32C298.056 456.225 300.074 459.275 302.897 456.86C305.158 454.926 305.369 451.772 307.82 449.91ZM331.964 427.136C337.065 421.281 349.057 424.374 351.331 431.498C351.834 433.071 351.309 435.116 350.08 436.23C348.461 437.697 346.152 438.141 344.186 436.99C342.495 436.001 341.801 434.381 340.557 432.992C338.734 430.956 336.254 429.826 333.698 429.016C333.059 429.352 332.465 429.793 331.931 430.325C331.658 430.598 331.143 430.224 331.385 429.903C331.714 429.467 332.116 429.056 332.573 428.678L332.353 428.613C331.681 428.426 331.535 427.63 331.964 427.136ZM365.118 362.484C366.262 362.486 367.593 363.559 367.447 364.813L367.403 365.16C367.074 367.547 366.307 368.898 363.919 370.007C361.892 370.946 359.763 371.466 357.541 371.671C356.701 371.749 355.811 371.753 354.909 371.687L354.72 372.782C354.342 374.973 353.993 377.165 353.928 379.398C353.805 383.538 355.35 386.949 357.007 390.645C360.187 397.745 360.545 404.832 357.082 411.921C356.576 412.957 355.142 413.803 353.985 413.698C352.485 413.562 351.76 413.128 350.887 411.921C350.155 410.908 350.322 409.476 350.83 408.416L350.887 408.3C352.632 404.92 353.182 401.101 352.291 397.386C351.454 393.894 349.557 390.755 348.71 387.274C347.331 381.603 348.8 375.978 351.671 371.113C349.504 370.489 347.5 369.377 346.162 367.68L346.168 367.678C345.658 367.132 345.936 365.993 346.832 366.062L347.845 366.143C350.744 366.385 353.412 366.638 356.343 365.83C357.846 365.415 359.143 364.724 360.433 363.887L360.709 363.705C362.323 362.633 363.218 362.482 365.118 362.484ZM372.055 320.572C379.321 320.159 385.525 324.954 388.541 331.337C391.817 338.268 390.442 346.219 387.551 353.038L386.73 354.946C385.292 358.252 383.404 362.184 380.459 363.958C377.151 365.951 374.292 363.64 375.267 359.967C375.849 357.779 377.422 356.091 378.695 354.286C379.883 352.599 380.991 350.854 381.963 349.033C383.867 345.463 385.289 341.485 385.274 337.395C385.247 329.928 380.313 321.372 372.055 321.482C371.465 321.489 371.475 320.604 372.055 320.572ZM408.805 308.524C408.352 308.181 408.757 307.416 409.263 307.739C417.69 313.097 423.981 323.164 425.248 333.053C425.951 338.54 425.414 344.403 423.077 349.467C421.737 352.372 419.436 355.146 416.22 355.943C413.263 356.674 410.215 354.986 409.298 352.1C408.942 350.98 409.554 349.808 410.479 349.197C413.477 347.215 415.891 344.713 417.303 341.349C418.772 337.85 419.358 334.138 419.376 330.364C419.419 321.527 415.892 313.911 408.805 308.524ZM511.734 312.355C511.344 311.923 511.835 311.285 512.351 311.556C518.443 314.76 522.313 320.896 523.422 327.617C524.509 334.197 523.047 343.155 517.954 347.914C515.08 350.6 509.931 347.027 512.32 343.567C514.005 341.127 515.826 339.117 516.791 336.234C517.651 333.662 517.955 331.067 517.908 328.364C517.806 322.466 515.699 316.752 511.734 312.355ZM437.257 304.115C447.665 303.619 453.972 315.5 455.417 324.356C456.309 329.827 455.639 335.463 452.618 340.208L452.439 340.485C449.947 344.276 445.415 348.641 440.532 346.845C438.465 346.086 437.915 343.872 439.303 342.193C441.428 339.622 444.711 338.574 446.709 335.829C448.95 332.75 449.684 328.893 449.554 325.149L449.537 324.736C449.19 317.849 445.905 304.631 437.257 304.865C436.772 304.878 436.778 304.137 437.257 304.115ZM469.812 302.142C479.879 300.855 486.009 312.698 487.9 320.856C489.081 325.956 489.339 331.646 487.828 336.708L487.716 337.068C486.486 340.846 482.859 347.319 478.123 345.388C476.826 344.86 475.501 343.419 476.123 341.865C476.916 339.88 478.061 339.365 479.587 338.094C480.762 337.116 481.583 335.712 482.187 334.329C483.796 330.642 484.155 326.336 483.935 322.364L483.905 321.893C483.336 314.134 479.129 302.571 469.812 302.784C469.386 302.794 469.416 302.192 469.812 302.142ZM488.242 291.007C493.845 288.874 498.435 294.231 501.656 298.054C505.69 302.845 509.35 308.006 511.419 313.969C513.262 319.283 513.586 325.191 511.926 330.601C511.104 333.279 509.824 335.762 508.077 337.948L507.853 338.224C506.035 340.442 504.279 341.805 501.3 341.011C500.087 340.687 499.575 339.488 499.785 338.343C500.234 335.895 501.495 335.259 503.129 333.551C504.57 332.044 505.639 330.188 506.358 328.236C507.84 324.211 507.917 319.85 506.922 315.703C505.808 311.06 503.617 306.773 501.081 302.755L500.534 301.895C497.847 297.648 494.016 291.107 488.349 291.796C487.863 291.855 487.857 291.154 488.242 291.007Z" fill="black"/>
</svg>
