<svg width="788" height="788" viewBox="0 0 788 788" fill="none" xmlns="http://www.w3.org/2000/svg">
<path fill-rule="evenodd" clip-rule="evenodd" d="M613.868 252.464C611.647 246.859 607.719 239.814 601.154 239.533C596.076 224.008 583.45 208.197 565.888 208.617C514.34 155.903 449.444 158.388 381.594 169.547C345.798 176.186 309.451 189.186 282.753 214.84C250.777 245.042 238.326 297.741 263.366 335.932C241.725 347.529 241.305 375.049 250.56 394.908C239.435 402.601 238.759 421.273 251.286 427.141C250.62 429.869 251.091 432.689 252.361 435.113C246.15 440.283 238.066 444.102 231.383 447.385C228.429 448.836 226.725 451.206 226.017 453.877C204.073 468.273 149.355 503.455 150.007 531.456C149.685 546.064 160.521 555.678 173.689 559.506C165.854 575.169 159.907 593.464 167.407 610.36C169.48 615.465 185.012 630.468 185.794 630.745C187.161 631.917 209.444 621.687 220.274 616.469C222.374 630.129 236.981 637.286 249.572 632.605C261.511 629.006 268.85 618.899 276.38 609.705C286.375 631.508 315.782 631.759 334.788 622.359C351.857 614.474 364.832 600.022 372.06 582.607C410.442 601.396 455.348 606.873 497.048 599.368C499.724 604.104 505.648 607.285 510.925 605.453C533.099 598.787 557.616 598.413 576.412 583.14C615.591 555.019 618.89 503.175 616.158 458.982C613.735 414.919 615.856 370.489 607.846 326.902C611.322 314.069 617.104 302.724 622.454 290.668C628.266 278.026 628.144 259.233 613.868 252.464Z" fill="white"/>
<path fill-rule="evenodd" clip-rule="evenodd" d="M249.609 439.496C251.918 438.916 253.158 442.019 251.198 443.266C238.754 451.181 225.899 458.25 213.878 466.862C202.445 475.049 191.884 484.375 182.036 494.401L180.945 495.518C172.042 504.677 162.182 516.329 162.082 529.84C162.005 540.342 170.102 551.805 181.399 550.425C185.655 549.905 189.567 555.305 188.082 559.198L186.52 563.301C180.234 579.906 173.839 598.72 178.804 616.19L178.986 616.813C180.187 620.813 181.453 624.348 186.096 624.268C190.405 624.192 194.889 622.739 198.923 621.352C207.294 618.473 214.88 613.672 221.319 607.634C227.015 602.294 234.291 607.72 233.524 614.506L233.497 614.723C232.448 622.339 244.581 625.875 250.097 624.786C260.988 622.632 268.753 611.72 274.938 603.401C277.911 599.404 285.132 597.83 287.744 603.401C292.92 614.436 303.589 622.684 316.07 623.03C322.553 623.209 328.773 621.364 334.264 617.942C336.505 616.545 338.51 614.883 340.348 613L340.804 612.524C343.524 609.641 345.401 608.108 348.875 606.225C352.298 604.37 356.726 606.67 356.705 610.717C356.677 615.959 355.141 619.444 351.526 623.246C348.535 626.395 344.981 629.159 341.245 631.368C333.737 635.804 324.811 638.3 316.07 638.011C302.292 637.555 289.141 630.688 280.616 620.008C271.912 630.415 261.115 639.977 247.084 639.72C236.58 639.528 226.791 634.06 222.101 625.588C215.48 630.153 208.213 633.722 200.439 636.053L199.746 636.258C188.742 639.46 176.079 640.733 168.996 629.809C162.346 619.553 161.85 605.35 163.374 593.627C164.735 583.155 167.957 573.21 171.657 563.401C161.125 560.256 152.95 550.363 150.142 539.699C145.894 523.573 154.135 507.934 164.323 495.952C175.39 482.936 189.319 471.927 203.352 462.291C217.348 452.682 233.027 443.652 249.609 439.496ZM609.479 313.364C609.505 312.916 610.239 312.759 610.307 313.251C615.141 348.329 617.94 383.336 620.257 418.655C621.432 436.548 622.766 454.423 624.226 472.294C625.627 489.431 627.959 507.024 627.432 524.231C626.607 551.175 613.523 573.083 592.069 588.849C571.512 603.958 546.01 611.428 520.989 614.584C506.458 616.417 491.725 616.505 477.178 614.783C469.623 613.888 462.077 612.698 454.677 610.91L451.477 610.11C445.65 608.622 439.143 606.602 438.312 599.699C437.909 596.356 439.685 593.89 442.553 592.212C446.292 590.024 450.579 591.312 454.432 592.309C460.925 593.989 467.487 595.431 474.123 596.428C488.376 598.572 503.028 598.699 517.354 597.215C541.452 594.717 566.872 586.901 585.452 570.759C593.527 563.745 600.548 555.198 604.241 545.044C608.989 531.99 608.286 517.749 608.127 504.079C607.758 472.294 608.083 440.509 607.641 408.721C607.197 376.836 607.584 345.202 609.479 313.364ZM367.145 164.819C395.303 157.557 423.88 155.67 452.804 157.856C480.081 159.916 511.154 166.019 533.432 182.796C534.513 183.61 533.866 185.151 532.528 184.938C517.634 182.564 503.116 178.246 488.286 175.389C474.022 172.641 459.501 170.578 444.977 170.1C395.855 168.481 341.196 179.612 301.586 210.237C283.013 224.596 268.839 243.904 263.198 266.877C257.413 290.44 260.543 315.922 272.16 337.237C273.833 340.306 273.143 345.161 269.653 346.795C259.063 351.753 251.52 362.737 251.684 374.59C251.763 380.339 253.745 385.852 256.93 390.604C260.298 395.629 265.425 399.145 269.192 403.838C270.675 405.686 270.732 408.231 269.557 409.933C271.76 410.898 274.136 411.416 276.304 412.556C278.142 413.523 278.194 416.542 276.304 417.494C271.524 419.901 266.356 417.346 263.13 413.465C262.554 412.772 262.056 412.051 261.602 411.315C257.738 410.496 254.276 408.557 251.253 405.905C245.493 409.354 244.704 417.032 249.652 422.899C252.179 425.894 255.769 427.743 259.397 429.072L259.833 429.229C263.364 430.483 266.598 431.183 268.892 434.008C270.405 430.854 272.142 427.881 274.078 425.172C281.117 415.325 291.937 406.589 304.776 407.698C314.833 408.565 323.546 415.765 325.607 425.699C325.759 426.434 324.651 427.008 324.321 426.241C319.496 414.99 304.229 414.577 295.135 420.44C284.44 427.336 278.595 440.331 276.25 452.434C273.942 464.356 275.276 478.856 284.199 487.924C287.85 491.635 292.817 494.201 298.001 494.877C300.535 495.209 302.77 494.883 305.194 494.395L306.8 494.059C307.914 493.829 309.021 493.643 310.19 493.746L311.931 493.98L312.92 494.443C313.778 494.829 313.701 494.723 312.688 494.125C315.646 493.883 317.175 496.069 317.337 498.466C317.431 498.526 317.522 498.591 317.598 498.684C328.824 512.422 337.159 528.213 349.072 541.501L352.559 545.394C361.525 555.367 371.76 566.179 383.939 571.352L385.388 571.952C388.931 573.449 392.489 575.497 392.941 579.768C393.346 583.594 390.33 586.473 386.853 587.366C378.935 589.397 369.909 582.36 364.11 577.743C351.64 567.818 341.16 555.166 332.505 541.854L331.649 540.528C324.535 529.417 317.848 516.745 315.77 503.557L315.395 504.165C315.367 504.208 315.345 504.241 315.331 504.26C314.907 504.836 314.44 505.322 313.898 505.788C312.442 507.045 310.666 507.779 308.821 508.277C305.358 509.212 301.561 509.396 298.001 509.032C290.77 508.293 284.011 505.541 278.295 501.059C260.891 487.41 258.836 462.012 265.875 441.407C260.099 442.786 253.52 438.899 249.01 435.568C243.838 431.746 239.573 426.229 238.554 419.739C237.542 413.299 241.648 404.771 247.738 402.286C241.419 394.699 237.74 383.932 237.36 375.311C236.7 360.315 244.667 346.141 256.899 337.959C245.396 313.308 243.18 284.709 250.925 258.535C266.294 206.596 317.778 177.551 367.145 164.819ZM323.324 559.443L323.468 558.987C324.693 554.97 326.275 546.98 332.276 550.022C338.009 552.927 334.349 561.526 332.344 565.712C329.945 570.721 325.802 574.737 320.238 575.813C315.712 576.688 310.742 575.564 307.576 572.067C306.653 571.048 306.132 569.93 305.585 568.696C305.372 568.216 305.276 567.887 305.236 567.673C305.184 567.908 305.036 568.258 304.658 568.67C302.132 571.43 299.746 574.643 297.913 577.908C297.479 578.68 296.111 578.139 296.457 577.294C298.592 572.072 298.233 563.997 302.992 560.22C307.187 556.89 311.128 559.511 313.347 563.388L313.46 563.59C316.703 569.478 321.871 563.886 323.324 559.443ZM277.695 540.575L278.133 539.966C282.618 533.837 290.182 526.463 297.751 532.164C300.158 533.977 300.247 537.003 297.751 538.802L296.807 539.476C293.5 541.82 290.208 544.034 287.779 547.396C285.14 551.051 282.77 554.921 279.222 557.788C272.947 562.858 262.806 563.858 257.361 557.023L256.825 556.344C256.37 555.758 255.847 555.052 255.423 554.347L255.093 554.804C255.06 554.85 255.03 554.894 255.002 554.935L254.926 555.052C252.688 558.628 249.861 561.573 246.34 563.897C239.648 568.312 232.107 568.926 224.536 566.589C223.795 566.359 223.994 565.366 224.711 565.3C233.682 564.462 242.423 558.089 246.072 549.882L246.484 548.961C247.961 545.696 249.615 542.594 253.263 541.312C256.814 540.064 260.542 541.382 262.977 544.068C265.013 546.313 265.537 550.776 269.21 549.792C273.232 548.714 275.496 543.677 277.695 540.575ZM252 486.051C253.987 484.541 257.099 486.161 257.646 488.349C260.125 498.255 249.829 509.928 239.935 510.235C237.388 510.313 234.938 509.697 232.682 508.518C230.932 507.604 228.861 505.268 226.94 504.881C224.459 504.382 222.261 507.686 220.514 509.382C218.347 511.487 216.203 513.441 213.775 515.235C212.805 515.952 211.3 514.748 211.71 513.647L212.531 511.458C215.504 503.667 220.625 492.292 230.207 495.525C234.902 497.109 238.436 502.451 243.38 498.221C247.339 494.834 247.708 489.312 252 486.051ZM294.279 446.172C303.212 435.918 324.211 441.334 328.193 453.809C329.073 456.564 328.155 460.145 326.003 462.095C323.168 464.664 319.124 465.442 315.682 463.427C312.72 461.694 311.504 458.858 309.327 456.425C306.134 452.86 301.791 450.881 297.316 449.463C296.197 450.051 295.156 450.824 294.222 451.756C293.744 452.233 292.841 451.579 293.265 451.017C293.841 450.253 294.545 449.534 295.346 448.871L294.961 448.758C293.783 448.43 293.528 447.036 294.279 446.172ZM352.336 332.958C354.338 332.961 356.67 334.841 356.414 337.036L356.337 337.645C355.761 341.824 354.418 344.19 350.235 346.132C346.686 347.777 342.958 348.686 339.068 349.046C337.596 349.182 336.038 349.19 334.459 349.073L334.127 350.991C333.466 354.828 332.855 358.667 332.74 362.577C332.526 369.826 335.231 375.8 338.132 382.272C343.701 394.704 344.327 407.114 338.264 419.528C337.377 421.343 334.866 422.823 332.84 422.639C330.213 422.401 328.944 421.641 327.416 419.528C326.133 417.754 326.426 415.246 327.315 413.39L327.416 413.187C330.471 407.268 331.434 400.581 329.874 394.075C328.408 387.96 325.087 382.464 323.604 376.368C321.188 366.438 323.761 356.588 328.789 348.069C324.994 346.976 321.484 345.028 319.142 342.057L319.152 342.053C318.258 341.098 318.746 339.103 320.315 339.223L322.089 339.366C327.165 339.79 331.837 340.232 336.97 338.817C339.601 338.091 341.872 336.88 344.131 335.415L344.615 335.097C347.441 333.219 349.008 332.954 352.336 332.958ZM364.483 259.565C377.207 258.842 388.071 267.239 393.352 278.417C399.088 290.553 396.681 304.477 391.618 316.417L390.18 319.758C387.662 325.548 384.356 332.433 379.199 335.54C373.407 339.03 368.4 334.983 370.108 328.55C371.126 324.719 373.881 321.764 376.11 318.602C378.19 315.649 380.131 312.593 381.833 309.405C385.167 303.153 387.657 296.187 387.63 289.024C387.583 275.95 378.944 260.967 364.483 261.159C363.45 261.171 363.467 259.622 364.483 259.565ZM428.836 238.469C428.043 237.867 428.752 236.528 429.639 237.093C444.394 246.477 455.411 264.104 457.629 281.421C458.86 291.029 457.92 301.297 453.828 310.164C451.481 315.252 447.453 320.109 441.821 321.504C436.643 322.785 431.306 319.828 429.699 314.774C429.076 312.813 430.148 310.762 431.767 309.691C437.017 306.22 441.244 301.84 443.717 295.948C446.29 289.822 447.316 283.321 447.347 276.713C447.423 261.238 441.247 247.901 428.836 238.469ZM609.077 245.177C608.394 244.42 609.253 243.304 610.157 243.778C620.824 249.388 627.602 260.134 629.544 271.903C631.447 283.425 628.887 299.111 619.968 307.444C614.935 312.148 605.919 305.892 610.103 299.833C613.053 295.56 616.242 292.041 617.931 286.992C619.437 282.487 619.97 277.944 619.888 273.21C619.709 262.882 616.019 252.877 609.077 245.177ZM478.659 230.748C496.884 229.88 507.929 250.685 510.459 266.192C512.021 275.773 510.847 285.641 505.557 293.951L505.244 294.435C500.88 301.074 492.944 308.717 484.393 305.573C480.774 304.244 479.811 300.367 482.242 297.426C485.962 292.924 491.712 291.089 495.21 286.282C499.134 280.891 500.42 274.137 500.193 267.581L500.162 266.857C499.554 254.798 493.802 231.652 478.659 232.061C477.81 232.083 477.82 230.787 478.659 230.748ZM535.666 227.292C553.294 225.039 564.029 245.777 567.34 260.063C569.408 268.994 569.86 278.957 567.215 287.821L567.018 288.452C564.865 295.067 558.513 306.402 550.22 303.022C547.948 302.096 545.629 299.573 546.717 296.853C548.106 293.376 550.111 292.474 552.783 290.249C554.841 288.536 556.278 286.077 557.336 283.655C560.154 277.2 560.782 269.659 560.397 262.703L560.344 261.879C559.348 248.292 551.981 228.044 535.666 228.417C534.921 228.434 534.972 227.38 535.666 227.292ZM567.939 207.795C577.75 204.059 585.788 213.44 591.428 220.135C598.493 228.524 604.902 237.561 608.525 248.004C611.752 257.309 612.32 267.655 609.413 277.127C607.974 281.817 605.732 286.166 602.672 289.994L602.281 290.477C599.097 294.36 596.022 296.747 590.805 295.356C588.682 294.789 587.785 292.69 588.152 290.684C588.938 286.398 591.147 285.285 594.008 282.293C596.531 279.654 598.403 276.404 599.662 272.987C602.258 265.938 602.393 258.301 600.65 251.039C598.7 242.91 594.862 235.402 590.422 228.367L589.464 226.861C584.759 219.423 578.051 207.969 568.126 209.176C567.276 209.28 567.265 208.051 567.939 207.795Z" fill="black"/>
</svg>
