<svg width="788" height="788" viewBox="0 0 788 788" fill="none" xmlns="http://www.w3.org/2000/svg">
<path fill-rule="evenodd" clip-rule="evenodd" d="M316.432 204.52C379.447 201.08 435.276 183.375 479.632 223C527.47 187.275 555.38 176.216 563.362 189.822C571.385 203.498 560.259 221.857 563.242 238.732C582.694 271.893 581.594 328.021 582.694 341.174C585.466 374.328 602.927 499.084 602.927 528.71C602.927 543.832 590.459 583.436 582.694 605.476C565.412 654.533 532.423 679.534 478.322 679.534C424.221 679.534 335.917 634.316 307.597 594.169C305.115 590.651 289.065 600.916 272.277 583.11C254.09 563.82 244.001 527.028 244.001 505.097C244.001 477.266 226.014 457.966 228.107 422.342C232.779 342.783 249.004 208.201 316.432 204.52Z" fill="white"/>
<path fill-rule="evenodd" clip-rule="evenodd" d="M309.392 112.022C310.212 111.972 311.042 112.012 311.872 112.093C312.782 112.133 313.692 112.222 314.602 112.403C319.232 113.292 323.362 115.742 326.562 119.192C326.652 119.282 326.722 119.383 326.802 119.472C328.302 120.602 329.692 121.883 330.942 123.242C331.162 123.032 331.372 122.823 331.602 122.613C332.262 122.032 332.952 121.482 333.672 120.963C336.685 118.379 340.22 116.501 344.022 115.433L344.542 115.292C344.642 115.262 344.742 115.242 344.842 115.222C347.542 114.323 350.382 113.863 353.242 113.872C356.662 113.762 360.092 114.323 363.292 115.642C367.082 117.213 370.382 119.692 373.152 122.673C374.972 124.153 376.562 125.782 378.242 127.573C381.712 131.282 384.452 135.622 386.182 140.403C386.422 141.073 386.632 141.762 386.822 142.452C391.052 141.963 395.302 141.613 399.552 141.442C404.322 141.153 409.092 141.052 413.872 141.213C427.042 141.642 439.922 143.963 452.392 148.213C454.892 148.952 457.322 149.892 459.662 151.052C463.332 152.512 466.802 154.372 470.072 156.622L472.858 158.274C474.257 159.106 475.656 159.948 477.012 160.812C480.242 162.883 483.302 165.202 486.202 167.702C489.262 170.173 492.152 172.863 494.902 175.682C495.649 176.445 496.37 177.218 497.081 177.996C503.42 181.417 509.051 185.797 514.303 191.021C518.468 188.625 522.781 186.453 527.232 184.522C531.822 182.532 537.652 180.482 542.462 179.133C546.782 177.923 551.052 177.093 555.382 176.482C557.352 176.142 559.332 175.872 561.322 175.642L561.242 175.673C562.642 175.522 564.032 175.392 565.442 175.272L565.402 175.262C566.002 175.213 566.612 175.162 567.212 175.122L568.672 175.003C569.112 174.963 569.752 175.992 569.792 176.352L569.842 176.722C570.172 177.093 570.472 177.503 570.682 177.753C570.942 177.732 571.202 177.713 571.462 177.702C572.242 177.633 573.142 179.022 573.602 179.552L574.018 180.041C574.492 180.61 574.965 181.267 575.042 181.982C575.552 186.133 576.032 190.292 576.472 194.452C576.642 197.602 576.472 200.722 575.952 203.812C575.562 206.812 575.162 209.812 574.762 212.802C574.122 214.903 573.492 217.003 572.862 219.102C572.612 219.903 572.332 220.692 572.062 221.482C570.463 226.758 568.588 231.894 566.355 236.871C567.984 238.673 569.503 240.541 570.916 242.47C571.254 242.817 571.594 243.162 571.912 243.522C572.002 243.383 572.132 243.253 572.272 243.182C572.752 242.972 573.102 243.222 573.402 243.633C576.552 246.642 578.842 250.153 580.262 254.162L581.147 256.253C581.293 256.602 581.439 256.952 581.582 257.302C582.712 260.343 583.582 263.463 584.302 266.622C584.946 269.108 585.408 271.628 585.706 274.175C587.866 281.428 589.574 288.848 591.185 296.168C591.439 297.32 591.319 298.348 590.95 299.224L591.892 300.142L593.502 301.745C596.205 304.441 598.964 307.275 600.972 310.482C603.052 313.812 604.582 317.372 606.282 320.903L606.648 321.653L607.397 323.157C608.206 324.799 608.595 325.707 609.312 327.692C610.502 331.003 611.142 334.332 611.442 337.843C611.882 342.952 611.822 348.522 609.582 353.272C609.572 353.312 609.552 353.343 609.532 353.372C608.512 357.963 605.992 362.222 602.162 364.942C601.342 365.713 600.462 366.403 599.522 366.952C597.266 368.277 595.194 368.395 592.732 367.782L592.422 367.702C592.112 367.622 591.832 367.552 591.562 367.492C591.962 367.822 592.162 368.213 591.562 368.492C590.982 368.772 590.462 368.932 589.972 368.992C590.182 369.262 590.202 369.552 589.762 369.792C588.802 370.302 588.022 370.463 587.222 370.322L587.39 371.712C588.702 382.232 589.876 384.313 590.902 395.613C591.582 407.182 592.662 418.722 594.152 430.213L594.666 434.388C596.311 447.622 598.16 460.952 600.992 473.972C602.422 479.662 603.652 485.392 604.692 491.162C606.162 495.552 607.192 500.042 607.762 504.622C608.592 509.282 609.162 513.982 609.492 518.722C610.642 521.753 611.202 524.832 611.172 527.972C611.322 532.192 611.182 536.403 610.732 540.593C610.482 544.952 609.882 549.272 608.932 553.552C608.082 559.423 606.532 565.093 604.312 570.593C602.532 576.732 600.352 582.753 597.872 588.642C594.022 597.762 589.372 606.232 584.082 614.582C579.122 622.412 573.802 629.952 567.722 636.963C559.862 646.022 550.902 654.322 541.082 661.322C535.482 665.463 529.572 669.182 523.392 672.363C515.832 676.262 508.152 679.772 499.962 682.142C494.852 683.622 489.652 684.642 484.392 685.423C474.062 686.952 463.362 686.722 452.972 684.932C446.272 684.032 439.682 682.472 433.452 680.242C428.332 678.403 423.452 676.292 418.572 673.912C416.062 672.702 413.642 671.302 411.322 669.732C407.422 667.202 403.772 664.343 400.372 661.182C399.262 660.232 398.182 659.262 397.122 658.242C396.612 657.792 396.892 657.122 397.482 656.963L397.662 656.942C397.432 656.732 397.192 656.522 396.962 656.302C396.912 656.262 396.872 656.213 396.832 656.162C396.722 656.062 396.602 655.963 396.502 655.863C396.112 655.522 396.502 654.762 396.842 654.582C396.972 654.512 397.142 654.503 397.332 654.522C397.292 654.482 397.262 654.452 397.222 654.423C397.182 654.392 397.172 654.312 397.182 654.232L397.032 654.113C396.522 653.662 396.782 653.003 397.382 652.832C397.675 652.743 398.158 652.789 398.662 652.898L398.852 652.942L398.512 652.622C397.912 652.102 398.102 651.522 398.842 651.343C399.394 651.375 399.94 651.451 400.479 651.583L400.882 651.692C401.082 651.742 401.272 651.802 401.472 651.863C401.132 651.552 400.792 651.253 400.462 650.942C400.132 650.653 400.482 649.822 400.782 649.653C401.192 649.423 401.992 649.742 402.362 650.012C403.272 650.113 404.472 650.512 404.912 650.892C406.122 652.052 407.372 653.162 408.642 654.242C409.412 654.482 410.142 654.802 410.702 655.282C412.142 656.662 413.642 657.963 415.172 659.222L416.335 660.023C416.53 660.155 416.725 660.285 416.922 660.412C419.122 661.702 421.322 662.982 423.512 664.272C431.542 666.992 439.572 669.713 447.592 672.423L448.652 672.742L456.442 673.702C461.562 674.242 466.692 674.213 471.812 673.622C475.652 673.673 479.462 673.292 483.212 672.512C489.582 671.432 495.832 669.843 501.912 667.622C508.912 665.072 515.582 661.713 522.092 658.093C524.432 656.782 526.732 655.392 528.992 653.923C529.722 653.403 530.452 652.872 531.182 652.332C535.992 648.722 540.592 644.872 545.022 640.802C547.102 638.892 549.102 636.903 551.032 634.843C551.312 634.542 551.582 634.253 551.852 633.952C553.702 631.932 555.492 629.843 557.202 627.682L558.832 625.843C565.412 617.653 571.262 608.843 576.522 599.772C581.742 590.782 586.042 581.322 589.462 571.532C590.562 568.042 591.522 564.503 592.322 560.923C593.802 556.622 594.772 552.213 595.222 547.713C595.372 546.832 595.492 545.952 595.612 545.072L595.681 543.685C595.691 543.453 595.699 543.222 595.702 542.992C595.902 541.593 596.072 540.192 596.202 538.792C596.282 537.383 596.332 535.972 596.342 534.562L596.232 525.912C596.202 525.642 596.172 525.363 596.152 525.082L595.932 523.173C595.452 519.232 595.082 515.282 594.602 511.343C594.602 511.322 594.602 511.292 594.592 511.262C594.412 509.792 594.222 508.312 594.002 506.832C593.892 505.952 593.752 505.072 593.622 504.192L593.372 502.653C592.908 499.976 592.345 497.32 591.662 494.688L591.362 493.562L589.622 484.812L587.662 476.202C586.392 470.432 585.332 464.622 584.492 458.762C582.972 449.423 581.672 440.072 580.542 430.682C580.482 430.232 580.422 429.772 580.372 429.322C579.222 420.613 578.392 411.872 577.852 403.102C577.122 394.463 576.702 385.802 576.592 377.133C576.582 376.742 576.842 376.423 577.152 376.242L577.124 374.575C577.088 373.101 577.061 374.87 577.048 373.188L577.029 368.565C577.03 368.179 577.034 367.911 577.042 367.892C571.699 368.261 568.106 367.959 562.947 367.687L562.072 367.642C557.342 367.423 552.642 366.903 547.972 366.122C547.952 366.363 547.792 366.532 547.522 366.582C547.042 366.602 546.592 366.602 546.132 366.613L546.302 367.262C546.312 367.593 546.162 367.802 545.842 367.892L544.508 367.952C542.727 368.027 540.94 368.062 539.172 367.822C537.582 367.613 536.032 367.242 534.492 366.802C533.542 366.642 532.572 366.423 531.582 366.142C529.042 365.412 526.522 364.432 523.972 363.653C521.372 363.102 518.732 362.923 515.972 363.582C513.052 364.272 510.582 365.522 507.522 364.762C506.912 364.613 506.322 364.383 505.732 364.142L505.186 364.104C505.093 364.096 504.999 364.086 504.902 364.072C501.712 363.613 498.872 361.593 495.832 360.512C494.771 360.254 493.718 360.319 492.689 360.748L492.432 360.863L491.422 361.613C491.016 362.092 490.613 362.577 490.215 363.062L489.622 363.792C488.532 365.142 487.372 366.352 485.962 367.232C484.262 368.802 482.242 369.722 479.832 369.782C478.462 369.822 477.102 369.532 475.782 369.113C470.802 370.653 465.472 370.963 460.502 369.463C458.532 369.162 456.602 368.633 454.752 367.802C453.882 367.412 453.012 366.952 452.172 366.442C448.662 367.923 445.342 369.892 441.952 371.593L441.189 371.976C437.725 373.702 433.892 375.384 429.972 375.133C425.032 374.812 420.182 374.153 415.342 373.322C415.302 373.322 415.252 373.312 415.212 373.302L414.546 373.191L412.125 372.766L410.172 372.403L409.174 372.785C401.159 375.818 392.377 378.184 384.322 376.062C380.812 375.633 377.522 374.452 374.552 372.442C374.452 372.372 374.352 372.302 374.252 372.222C373.782 371.982 373.342 371.713 372.952 371.423L372.868 371.358L372.792 371.292L372.752 371.272C368.362 369.253 365.842 364.952 366.282 360.133C366.012 358.602 366.022 357.102 366.322 355.503C364.892 357.192 363.432 358.863 361.952 360.522C356.539 367.041 351.237 373.689 346.328 380.611L345.202 382.213C342.502 386.022 339.992 389.963 337.672 394.022C335.322 398.032 332.912 402.003 330.422 405.923C327.185 409.501 324.054 413.165 321.038 416.918L319.752 418.532L315.412 424.242C312.342 427.883 309.792 431.863 307.782 436.182C306.132 439.253 304.612 442.383 303.242 445.593C302.802 446.562 302.382 447.542 301.972 448.522C300.562 452.352 299.372 456.253 298.442 460.282C297.695 463.198 297.159 466.155 296.84 469.152L296.742 470.153C296.622 471.332 296.532 472.512 296.482 473.692C296.772 473.863 297.012 474.032 297.192 474.202L297.922 474.463L298.512 474.638C299.433 474.924 301.021 475.514 300.642 476.242L298.712 479.923C298.912 480.133 299.002 480.352 298.872 480.593C297.582 483.062 296.282 485.532 294.982 488.003C294.942 488.093 294.872 488.162 294.802 488.213C295.912 488.722 296.992 489.282 298.022 489.892C300.032 491.093 301.512 492.482 302.882 494.102C304.322 494.963 305.682 495.903 306.962 496.982C308.542 498.642 309.922 500.463 311.092 502.432C312.172 504.292 313.052 506.232 313.732 508.262C314.032 509.332 314.172 510.442 314.162 511.572C312.952 520.113 303.182 514.262 302.992 513.512C301.652 508.352 300.112 505.093 296.652 501.253L296.562 501.192C294.562 500.312 292.582 499.442 290.512 498.762C290.202 498.822 289.882 498.863 289.562 498.912C289.922 499.423 289.742 499.923 289.012 500.012C285.862 500.633 282.682 500.802 279.482 500.532L274.622 499.843C272.606 500.616 270.679 501.609 268.863 502.791L268.262 503.192L268.152 503.272C263.462 507.042 259.842 512.052 257.362 517.512C257.142 517.999 256.931 518.49 256.729 518.985L256.432 519.732L256.412 519.772C253.172 532.503 256.062 546.482 261.982 558.032C265.212 563.202 268.582 568.272 272.102 573.242L275.522 577.713C277.542 579.613 279.522 581.562 281.452 583.562C281.752 583.863 282.072 584.162 282.392 584.452C283.412 585.122 284.452 585.713 285.512 586.213C285.922 586.352 286.342 586.482 286.762 586.593C288.802 587.572 290.942 588.093 293.192 588.153C296.164 588.35 299.048 588.001 301.836 587.116L302.392 586.932L302.802 586.782C304.322 585.812 305.732 584.602 307.072 583.182C307.372 582.872 307.932 582.872 308.572 583.042C308.922 582.682 309.272 582.302 309.602 581.892C309.832 581.642 310.192 581.633 310.472 581.822C311.422 581.713 313.992 583.173 313.322 583.942C313.212 584.122 313.072 584.282 312.952 584.452C313.402 584.682 313.852 584.942 314.252 585.213C316.352 585.795 319.454 587.891 319.202 588.522L319.172 588.572C318.686 589.491 318.054 590.262 317.277 590.874L317.012 591.072L316.422 591.482C317.252 592.003 317.952 592.602 317.602 593.022C317.442 593.332 317.272 593.633 317.072 593.903C318.772 596.003 320.462 598.122 322.142 600.242C323.822 603.883 325.902 607.282 328.382 610.432C330.452 613.852 332.942 616.923 335.852 619.662C336.092 619.903 336.342 620.133 336.582 620.363C338.726 621.947 340.969 623.43 343.305 624.856L344.312 625.463C344.842 625.782 345.732 626.182 345.312 626.952C345.262 627.052 345.202 627.133 345.132 627.192C346.602 628.153 348.122 629.062 349.692 629.903L349.841 629.995C350.434 630.373 351.239 631.061 350.392 631.622C349.672 632.102 347.762 630.802 346.862 630.202C346.692 630.202 346.492 630.153 346.292 630.093C346.592 630.252 346.888 630.425 347.188 630.595L347.642 630.843C347.992 631.052 349.712 632.192 348.512 632.673C347.922 632.722 347.382 632.572 346.882 632.232C346.292 631.942 345.712 631.633 345.142 631.312C345.342 631.622 345.342 631.932 344.842 632.133C344.672 632.142 344.502 632.133 344.332 632.113C345.512 632.863 346.722 633.562 347.972 634.222L348.174 634.349C348.702 634.691 349.545 635.342 348.932 635.903C348.242 636.522 346.342 635.202 345.852 634.903L344.392 634.032C344.282 634.082 344.162 634.102 344.032 634.113C344.472 634.383 344.882 634.673 345.332 634.932L345.944 635.265C346.711 635.689 347.795 636.386 347.402 637.082C347.01 637.771 345.843 637.204 345.09 636.757L344.28 636.255C344.244 636.234 344.209 636.212 344.172 636.192L344.141 636.312C344.134 636.332 344.125 636.352 344.112 636.372C343.737 637.025 342.794 636.597 342.143 636.221L341.622 635.903C340.735 635.369 339.858 634.84 338.986 634.307L337.682 633.503H337.662C333.152 630.792 328.982 628.093 325.052 624.613C322.702 622.532 320.512 620.332 318.432 617.982C314.252 613.272 311.142 607.883 308.142 602.383C308.092 602.292 308.162 602.062 308.282 601.812C307.952 601.133 307.632 600.442 307.312 599.732C304.232 600.593 300.792 600.843 297.622 600.633C295.922 600.522 294.242 600.222 292.572 599.772C287.242 599.032 282.102 596.602 277.662 593.692C277.382 593.512 277.132 593.312 276.872 593.133C275.042 592.102 273.302 590.903 271.652 589.532C268.432 586.872 265.362 583.912 262.572 580.822C260.552 578.423 258.642 575.932 256.852 573.352C255.032 570.802 253.192 568.253 251.352 565.702C246.242 557.702 242.972 548.492 241.702 539.082C241.082 535.613 240.762 532.102 240.832 528.602C240.882 526.072 241.162 523.512 241.652 520.963C241.362 520.682 241.072 520.403 240.782 520.113C240.622 520.392 240.462 520.593 240.362 520.492L238.07 518.197C236.444 516.558 235.354 515.352 233.482 512.702C230.502 508.472 228.282 503.822 226.632 498.923C225.442 495.423 224.652 491.442 224.342 487.593C224.242 486.952 224.142 486.302 224.062 485.642C223.422 480.432 224.012 475.442 224.802 470.302C224.852 469.963 225.022 469.753 225.252 469.642C225.31 469.235 225.379 468.817 225.447 468.4C218.823 461.388 214.056 452.937 214.445 442.731C214.567 439.515 215.227 436.345 216.487 433.385L216.64 433.051C211.111 432.201 206.725 428.317 203.43 423.503C203.138 423.272 202.855 423.039 202.583 422.807C196.691 417.775 192.606 410.65 189.809 403.124C187.806 398.754 186.479 394.084 185.916 389.24C185.876 388.894 185.852 388.551 185.821 388.207C184.453 380.548 184.105 372.812 184.737 365.191C183.364 360.474 182.247 355.674 181.482 350.762C181.122 348.423 180.872 346.082 180.682 343.742L180.662 343.613L180.632 343.192L180.548 342.142C180.534 341.969 180.522 341.795 180.512 341.622C178.822 320.202 183.612 299.122 191.532 279.282C192.222 277.498 192.935 275.718 193.67 273.952L194.449 272.108C202.399 259.288 214.337 248.919 224.448 237.968C227.937 234.19 222.294 228.518 218.792 232.311C212.074 239.587 204.867 246.556 198.36 254.035C197.211 254.119 196.06 254.15 194.912 254.093C192.912 253.992 190.972 253.673 189.092 253.162C184.402 252.472 180.132 250.582 176.252 247.802C171.062 245.383 166.632 240.822 166.192 234.872C166.142 234.272 166.152 233.682 166.192 233.093C165.712 230.182 166.142 227.133 167.362 224.322C167.572 223.552 167.842 222.792 168.182 222.042C169.172 219.812 170.802 217.673 172.792 216.222C172.842 216.192 172.882 216.173 172.922 216.142C173.132 215.923 173.332 215.702 173.562 215.503C173.902 215.192 174.262 214.903 174.642 214.633C173.292 212.412 172.072 210.133 171.032 207.702C169.902 205.062 169.322 202.383 169.002 199.552C168.872 198.432 168.822 197.322 168.802 196.213C168.742 195.702 168.702 195.182 168.662 194.662C168.412 190.702 168.872 186.593 170.352 182.892C170.462 182.613 170.602 182.332 170.732 182.042C171.012 181.202 171.322 180.363 171.702 179.542C173.182 176.392 175.282 173.722 177.872 171.532C179.272 170.122 180.842 168.872 182.552 167.812C183.562 167.182 184.712 166.622 185.922 166.162C188.082 165.022 190.852 163.982 193.102 163.903C193.372 163.892 193.612 163.923 193.872 163.923C194.082 158.182 194.822 151.932 197.092 146.732C198.412 142.963 200.392 139.613 203.372 137.202C205.1 135.398 207.23 133.933 209.888 132.976L210.362 132.812L210.542 132.762C212.932 131.602 215.512 131.142 218.162 131.153C221.252 130.992 224.402 131.573 227.092 132.992C227.652 133.292 228.252 133.662 228.822 134.062C229.252 133.202 229.732 132.332 230.282 131.463C232.212 128.372 234.542 125.682 237.242 123.232C237.562 122.942 237.912 122.682 238.252 122.403C239.562 121.213 240.952 120.113 242.392 119.113C245.502 116.952 248.912 115.343 252.492 114.302C256.625 112.775 260.986 112.066 265.349 112.215L266.252 112.253C266.452 112.272 266.652 112.282 266.842 112.292C271.172 112.573 275.442 113.633 279.522 115.232C283.752 116.903 287.332 119.432 290.662 122.332C291.442 121.253 292.332 120.232 293.422 119.272C293.732 119.003 294.062 118.762 294.372 118.512C294.612 118.272 294.862 118.042 295.122 117.812C296.312 116.762 297.572 115.852 298.952 115.042C300.502 114.133 302.172 113.503 303.902 113.113C305.662 112.512 307.512 112.142 309.392 112.022ZM288.842 524.272C289.019 524.262 298.281 527.735 302.895 529.981L303.122 530.092C308.442 532.732 311.002 534.632 315.782 538.022C316.102 538.252 316.432 538.602 316.432 538.942C316.432 543.88 315.233 549.917 311.082 547.242C310.482 546.856 309.878 546.478 309.269 546.106L308.352 545.552L308.322 545.562C308.332 545.562 308.342 545.552 308.352 545.542C299.312 540.032 289.762 535.712 279.682 532.622C278.992 532.372 284.102 524.652 285.512 525.082C284.702 524.762 288.708 524.28 288.842 524.272ZM383.825 306.187C377.814 306.83 371.803 307.463 365.792 308.082C361.962 308.522 358.122 308.912 354.282 309.242C348.512 309.673 342.742 309.742 336.992 308.952C334.952 308.673 332.952 308.272 330.972 307.782C329.622 308.772 328.222 309.702 326.792 310.593L310.912 322.742C300.262 331.113 289.842 339.982 280.462 349.772C264.08 366.876 250.737 386.886 242.348 409.051C241.587 409.5 240.999 410.283 240.803 411.484C239.321 420.569 234.987 428.855 233.421 437.903C231.879 446.815 233.93 454.391 239.528 461.455C240.723 462.964 243.171 462.884 244.673 461.865C245.022 462.551 246.534 462.522 247.065 459.492C249.554 456.797 251.683 453.972 253.125 450.474C254.187 447.898 252.402 446.112 250.236 445.761C251.136 442.521 252.151 439.31 253.292 436.133C256.672 426.692 260.972 417.673 266.382 409.213C271.142 401.772 276.652 395.292 282.572 388.792C282.642 388.702 282.762 388.673 282.892 388.653L284.122 387.292C284.292 387.102 284.642 387.122 285.032 387.222C285.402 386.832 285.762 386.432 286.142 386.042C286.512 385.642 286.922 385.762 287.152 386.082C287.782 385.942 288.932 386.622 289.282 386.843C289.882 387.242 290.072 387.692 289.562 388.262C289.472 388.363 289.382 388.463 289.292 388.552C289.982 388.843 290.662 389.232 291.192 389.613C293.042 390.022 295.642 391.742 295.192 392.253C294.242 393.242 293.322 394.253 292.412 395.282C293.212 395.843 293.732 396.392 293.522 396.633C289.622 400.742 286.022 405.093 282.722 409.702C280.212 413.142 277.942 416.722 275.912 420.452C272.892 425.732 270.332 431.162 268.062 436.742C267.742 437.593 267.432 438.442 267.132 439.292C263.812 448.582 261.332 458.222 260.282 468.042L260.238 468.704C260.043 472.242 259.966 481.713 259.602 483.972C261.812 485.062 264.112 485.992 266.502 486.753C266.952 486.883 267.412 487.003 267.872 487.113C268.132 487.003 268.402 486.912 268.672 486.832C270.872 485.942 273.172 485.302 275.522 484.992C277.106 484.783 278.682 484.71 280.257 484.755L280.932 484.782C281.632 484.802 282.322 484.852 283.022 484.923C282.982 484.522 282.962 484.133 282.932 483.732C282.732 483.602 282.582 483.423 282.572 483.182C282.102 478.682 282.092 474.182 282.542 469.682C282.842 467.332 283.192 464.992 283.572 462.653C283.962 460.732 284.412 458.843 284.902 456.952C286.202 451.653 287.932 446.482 290.032 441.423C296.012 426.992 304.582 413.982 313.202 401.042C319.492 391.593 325.442 381.932 331.952 372.642C337.492 364.732 343.312 356.942 349.522 349.542C355.722 342.153 362.272 335.042 369.342 328.463C370.482 327.412 371.632 326.392 372.802 325.383C379.502 319.383 386.782 314.452 394.362 309.613C394.652 309.423 395.172 309.633 395.602 309.992L396.825 309.24C397.03 309.115 397.235 308.992 397.442 308.872C397.632 308.753 397.842 308.952 397.952 309.122C398.472 308.852 398.992 308.593 399.512 308.332C399.891 308.026 400.282 307.736 400.664 307.434C395.043 307.151 389.43 306.731 383.825 306.187ZM454.322 239.522C449.782 238.613 445.222 238.482 440.642 239.162C438.723 239.443 436.813 239.781 434.919 240.19C439.22 243.94 442.679 248.739 444.924 254.262C447.35 260.232 437.673 262.805 435.281 256.921C432.974 251.245 428.607 246.891 423.332 244.281C422.192 244.918 421.087 245.608 420.032 246.372C418.652 247.492 417.352 248.702 416.132 250.032C413.472 252.923 411.032 256.782 409.432 260.602C408.812 262.682 408.352 264.822 408.062 267.022C408.002 267.522 407.942 268.032 407.892 268.542C406.906 278.891 409.865 288.96 414.956 297.87L415.156 297.873C419.7 295.409 424.457 293.333 429.352 291.642C433.272 289.003 437.342 286.562 441.532 284.352C450.44 279.653 459.848 276.03 469.542 273.553L470.662 273.272C472.946 272.689 475.25 272.175 477.563 271.725L478.952 271.463H478.972L478.822 269.972C478.042 264.122 475.752 258.692 472.792 253.673C470.572 249.883 467.222 246.003 463.502 242.903L463.482 242.892C461.793 241.932 460.017 241.138 458.19 240.482L457.502 240.242L454.322 239.522ZM332.422 230.633C322.982 229.742 313.542 229.832 304.102 230.602C297.932 231.213 291.802 232.062 285.702 233.142C281.572 233.852 277.522 234.852 273.542 236.093L275.819 240.697C279.623 248.364 283.52 255.98 288.112 263.222C290.482 266.952 293.052 270.503 295.852 273.912C297.742 276.352 299.822 278.613 302.102 280.692C302.702 281.423 303.342 282.113 303.992 282.782C306.072 284.562 308.312 286.122 310.762 287.412C312.727 288.843 314.778 290.093 316.916 291.189L317.722 291.593L325.222 294.472C325.622 294.585 326.027 294.699 326.433 294.806L327.042 294.963L328.182 295.202L329.038 294.738C329.181 294.661 329.325 294.585 329.472 294.512C329.712 294.383 329.882 294.633 329.932 294.812C329.952 294.883 329.922 294.982 329.872 295.082L330.965 294.491C332.844 295.254 334.838 295.864 336.977 296.266C337.945 296.447 338.915 296.586 339.886 296.705L340.016 296.792C340.038 296.807 340.06 296.824 340.082 296.843H341.144C348.62 297.564 356.202 296.611 363.666 295.27C374.228 294.208 384.788 293.037 395.342 291.942C395.542 291.923 395.622 292.012 395.622 292.153L396.272 292.093C397.212 291.992 398.312 293.562 397.602 294.133C398.172 294.472 398.722 294.963 399.132 295.343L399.372 295.322C397.922 292.482 396.802 289.512 396.002 286.423L394.982 281.242C394.702 279.312 394.542 277.253 394.512 275.222C394.442 274.292 394.392 273.423 394.392 272.662C394.392 271.942 394.402 271.222 394.432 270.503C392.442 269.682 390.422 268.963 388.362 268.352C382.512 267.633 376.672 266.912 370.822 266.202C367.312 266.332 363.802 266.582 360.302 266.972C356.332 267.322 352.372 267.772 348.422 268.312C348.052 268.352 347.392 267.852 346.992 267.272L345.302 267.503C344.422 267.613 343.502 265.852 344.662 265.492C345.082 265.325 345.502 265.168 345.922 265.016L346.552 264.792L346.192 264.832C346.072 264.843 345.922 264.812 345.752 264.753C344.822 264.872 343.892 264.992 342.972 265.102C341.805 265.248 342.071 263.709 342.889 263.347L343.282 263.202C342.591 262.771 341.983 261.592 342.838 261.206L342.952 261.162C343.352 261.003 343.742 260.872 344.142 260.722C344.112 260.593 344.112 260.472 344.152 260.363L342.502 260.572C342.352 260.592 343.069 259.539 343.412 259.331L343.472 259.302L344.262 259.062C344.382 258.722 345.022 257.972 345.242 257.903C348.142 256.992 350.842 256.173 353.662 255.542C353.802 255.372 353.962 255.242 354.142 255.202C355.902 254.782 357.682 254.452 359.462 254.173C359.582 253.992 359.702 253.863 359.842 253.852C364.252 253.292 368.672 253.162 373.112 253.463C373.962 253.542 374.812 253.633 375.662 253.742C377.292 253.923 378.922 254.153 380.542 254.463C384.6 255.159 388.563 256.218 392.423 257.646L393.312 257.982C394.282 258.343 395.242 258.722 396.192 259.133C396.672 257.423 397.272 255.742 397.982 254.093C398.092 253.772 398.212 253.463 398.342 253.153L397.372 252.572C397.162 252.972 396.732 253.282 396.452 253.113C389.502 248.423 382.152 244.512 374.402 241.392C370.062 239.472 365.622 237.843 361.072 236.482C358.802 235.753 356.512 235.093 354.212 234.463C353.062 234.222 351.912 233.982 350.742 233.782C344.732 232.162 338.622 231.113 332.422 230.633ZM561.435 246.506C560.591 247.964 559.713 249.408 558.782 250.832C554.261 257.751 548.841 264.244 542.695 269.905C544.298 269.901 545.897 269.962 547.476 270.11C550.199 270.367 552.866 270.819 555.466 271.452C555.677 271.283 555.913 271.198 556.102 271.332L556.78 271.801C562.357 273.306 567.593 275.672 572.336 278.842L572.251 278.216C572.237 278.112 572.221 278.007 572.202 277.903C572.282 276.673 572.302 275.442 572.262 274.222C571.282 267.012 568.832 260.372 566.032 253.653C565.979 253.523 566.017 253.354 566.098 253.182C564.685 250.874 563.138 248.642 561.435 246.506ZM562.722 189.822C560.632 190.202 558.562 190.692 556.502 191.302C552.632 191.883 548.882 192.903 545.262 194.352C540.272 196.122 535.432 198.182 530.612 200.363C521.252 204.602 512.472 209.963 504.482 216.423C503.972 216.812 503.482 217.213 502.992 217.613C501.202 219.162 499.462 220.782 497.812 222.492C496.082 224.372 494.342 226.253 492.612 228.142C490.492 230.363 488.052 232.372 486.132 234.772C485.742 235.262 485.402 235.802 485.092 236.343L486.222 236.732C487.172 237.052 487.012 238.832 486.072 238.572C485.752 238.482 485.452 238.372 485.152 238.253C485.282 238.423 485.372 238.593 485.392 238.742C485.452 239.222 485.082 239.883 484.492 239.713C484.222 239.642 483.952 239.542 483.682 239.432C483.602 239.742 483.542 240.052 483.542 240.352C483.592 240.372 483.642 240.392 483.702 240.403C484.362 240.633 485.602 241.662 485.782 242.363C485.922 242.903 485.462 243.482 484.872 243.322C484.432 243.202 484.002 243.022 483.582 242.822C483.862 243.093 484.082 243.383 484.102 243.633C484.142 244.093 483.742 244.742 483.192 244.593C482.172 244.312 481.352 243.883 480.672 243.343C480.492 243.582 480.232 243.772 480.022 243.713L479.632 243.593C479.739 243.692 479.837 243.797 479.931 243.9L480.072 244.052C482.832 247.032 485.242 250.332 487.172 253.883C487.262 253.782 487.372 253.692 487.512 253.582C488.412 252.822 489.342 252.082 490.272 251.363L490.553 251.117L490.842 250.872L488.752 251.562L488.798 251.508C488.946 251.319 489.406 250.688 489.62 250.478L489.672 250.432C492.542 247.863 495.672 245.682 499.052 243.903C501.242 242.482 503.542 241.282 505.952 240.292C511.702 237.622 517.562 235.593 523.582 233.713C524.482 233.423 525.382 233.113 526.282 232.832C526.542 232.742 526.592 232.852 526.552 233.032L527.022 232.892C527.862 232.622 529.292 234.102 528.722 234.792C529.066 235.072 529.404 235.384 529.699 235.677L529.912 235.892L530.152 235.822C530.867 235.602 532.072 236.715 532.838 237.504L533.402 238.102C533.832 238.562 534.672 239.512 533.642 239.883L532.352 240.322C532.392 240.582 532.282 240.802 531.882 240.952C531.432 241.102 530.992 241.262 530.552 241.423C530.819 241.656 531.081 241.898 531.339 242.143L531.722 242.512C532.175 242.974 533.249 243.993 532.301 244.443L532.182 244.492L530.952 244.932C531.112 245.292 531.072 245.633 530.532 245.832C523.352 248.272 516.342 251.133 509.492 254.383C504.362 257.222 498.942 259.343 493.232 260.732C492.762 260.883 491.742 260.173 491.322 259.463L490.47 259.714C490.328 259.755 490.186 259.795 490.042 259.832L489.902 259.863C490.972 262.713 491.762 265.802 492.202 268.792C492.252 269.062 492.292 269.343 492.322 269.613C493.442 269.522 494.552 269.442 495.672 269.383C503.422 268.972 511.262 269.222 519.032 270.142C522.172 268.272 525.192 266.222 528.082 264.003C528.962 263.322 529.832 262.622 530.692 261.912C535.852 257.432 540.522 252.403 544.662 246.972C548.492 241.942 551.822 236.542 554.622 230.883C557.102 225.572 559.152 220.052 560.702 214.352C562.122 209.142 562.612 204.072 562.972 198.682C563.092 197.802 563.172 196.923 563.242 196.042L563.234 195.665L563.222 195.482C563.122 193.593 562.932 191.702 562.722 189.822ZM489.452 256.792C489.222 256.872 488.982 256.952 488.742 257.022C488.882 257.332 489.012 257.633 489.142 257.942L489.157 257.936L490.102 257.192C489.902 257.102 489.672 256.963 489.452 256.792ZM561.322 175.642C563.122 174.972 564.482 174.842 565.402 175.262C564.042 175.362 562.682 175.492 561.322 175.642Z" fill="black"/>
</svg>
