<svg width="900" height="900" viewBox="0 0 900 900" fill="none" xmlns="http://www.w3.org/2000/svg">
<path fill-rule="evenodd" clip-rule="evenodd" d="M363.907 252.835C399.893 250.87 431.775 240.759 457.105 263.388C484.424 242.987 500.362 236.671 504.921 244.441C509.502 252.251 503.149 262.735 504.852 272.372C515.96 291.309 515.332 323.362 515.96 330.873C517.543 349.806 527.515 421.05 527.515 437.969C527.515 446.604 520.395 469.221 515.96 481.807C506.091 509.822 487.252 524.099 456.357 524.099C425.462 524.099 375.034 498.277 358.862 475.35C357.445 473.341 348.279 479.203 338.692 469.035C328.306 458.019 322.544 437.008 322.544 424.484C322.544 408.591 312.273 397.569 313.468 377.225C316.136 331.792 325.401 254.937 363.907 252.835Z" fill="white"/>
<path fill-rule="evenodd" clip-rule="evenodd" d="M359.886 200.013C360.355 199.984 360.829 200.007 361.303 200.053C361.822 200.076 362.342 200.127 362.862 200.23C365.506 200.738 367.864 202.137 369.692 204.107C369.743 204.159 369.783 204.216 369.829 204.267C370.685 204.912 371.479 205.644 372.193 206.42C372.318 206.3 372.438 206.181 372.57 206.061C372.947 205.729 373.341 205.415 373.752 205.118C375.472 203.643 377.491 202.57 379.662 201.96L379.959 201.88C380.016 201.863 380.074 201.851 380.131 201.84C381.673 201.327 383.294 201.064 384.928 201.069C386.881 201.006 388.839 201.327 390.667 202.08C392.831 202.977 394.716 204.393 396.298 206.095C397.337 206.94 398.245 207.87 399.204 208.893C401.186 211.011 402.751 213.49 403.739 216.22C403.876 216.603 403.996 216.996 404.104 217.39C406.52 217.111 408.947 216.911 411.374 216.813C414.098 216.648 416.822 216.591 419.551 216.683C427.072 216.928 434.428 218.253 441.549 220.68C442.976 221.102 444.364 221.639 445.7 222.301C447.796 223.135 449.778 224.197 451.645 225.482L453.236 226.426C454.035 226.901 454.834 227.381 455.608 227.875C457.453 229.058 459.2 230.382 460.857 231.81C462.604 233.221 464.254 234.757 465.825 236.367C466.251 236.802 466.663 237.244 467.069 237.688C470.689 239.642 473.905 242.143 476.904 245.126C479.283 243.758 481.746 242.518 484.287 241.415C486.909 240.278 490.238 239.108 492.985 238.337C495.452 237.646 497.89 237.172 500.363 236.823C501.488 236.629 502.619 236.475 503.755 236.344L503.709 236.361C504.509 236.275 505.303 236.201 506.108 236.133L506.085 236.127C506.428 236.099 506.776 236.07 507.119 236.047L507.952 235.979C508.204 235.956 508.569 236.544 508.592 236.749L508.62 236.961C508.809 237.172 508.98 237.407 509.1 237.549C509.249 237.537 509.397 237.526 509.546 237.52C509.991 237.481 510.505 238.274 510.768 238.577L511.005 238.856C511.276 239.181 511.546 239.556 511.59 239.964C511.881 242.335 512.155 244.71 512.407 247.086C512.504 248.884 512.407 250.666 512.11 252.431C511.887 254.144 511.659 255.857 511.43 257.565C511.065 258.764 510.705 259.964 510.345 261.162C510.202 261.62 510.042 262.07 509.888 262.521C508.975 265.534 507.904 268.467 506.629 271.31C507.559 272.339 508.427 273.405 509.234 274.507C509.427 274.705 509.621 274.902 509.803 275.108C509.854 275.028 509.928 274.954 510.008 274.914C510.282 274.794 510.482 274.936 510.653 275.171C512.452 276.889 513.76 278.894 514.571 281.184L515.076 282.378C515.16 282.577 515.243 282.777 515.325 282.977C515.97 284.714 516.467 286.495 516.878 288.299C517.246 289.719 517.51 291.158 517.68 292.613C518.913 296.755 519.889 300.992 520.809 305.172C520.954 305.83 520.885 306.417 520.675 306.917L521.213 307.442L522.132 308.357C523.676 309.897 525.251 311.515 526.398 313.346C527.586 315.248 528.459 317.281 529.43 319.297L529.639 319.726L530.067 320.585C530.529 321.522 530.751 322.041 531.16 323.174C531.84 325.065 532.206 326.966 532.377 328.971C532.628 331.889 532.594 335.07 531.315 337.782C531.309 337.805 531.298 337.823 531.286 337.839C530.704 340.461 529.265 342.893 527.077 344.447C526.609 344.887 526.107 345.281 525.57 345.594C524.281 346.351 523.098 346.418 521.692 346.068L521.515 346.023C521.338 345.977 521.178 345.937 521.024 345.903C521.252 346.091 521.367 346.315 521.024 346.474C520.693 346.634 520.396 346.725 520.116 346.759C520.236 346.914 520.247 347.079 519.996 347.216C519.448 347.507 519.002 347.599 518.546 347.519L518.642 348.313C519.391 354.32 520.061 355.509 520.647 361.962C521.035 368.568 521.652 375.159 522.503 381.721L522.797 384.105C523.736 391.662 524.792 399.275 526.409 406.71C527.226 409.959 527.928 413.231 528.522 416.527C529.362 419.034 529.95 421.598 530.275 424.213C530.749 426.874 531.075 429.558 531.263 432.265C531.92 433.996 532.24 435.754 532.223 437.547C532.308 439.957 532.228 442.362 531.971 444.755C531.829 447.244 531.486 449.711 530.943 452.155C530.458 455.508 529.573 458.746 528.305 461.887C527.289 465.393 526.044 468.831 524.627 472.194C522.429 477.402 519.773 482.239 516.752 487.007C513.92 491.479 510.882 495.785 507.41 499.789C502.921 504.962 497.805 509.702 492.197 513.699C488.999 516.064 485.624 518.188 482.095 520.004C477.777 522.231 473.391 524.235 468.714 525.589C465.796 526.434 462.827 527.016 459.823 527.462C453.924 528.336 447.813 528.204 441.88 527.182C438.054 526.668 434.291 525.777 430.733 524.504C427.809 523.453 425.022 522.248 422.235 520.889C420.802 520.198 419.42 519.398 418.095 518.502C415.868 517.057 413.784 515.424 411.842 513.619C411.208 513.077 410.591 512.523 409.986 511.94C409.695 511.683 409.855 511.301 410.192 511.21L410.294 511.198C410.163 511.078 410.026 510.958 409.895 510.832C409.866 510.81 409.843 510.782 409.82 510.752C409.758 510.695 409.689 510.639 409.632 510.582C409.409 510.387 409.632 509.953 409.826 509.85C409.9 509.81 409.997 509.805 410.106 509.816C410.083 509.793 410.066 509.776 410.043 509.759C410.02 509.742 410.015 509.696 410.02 509.65L409.935 509.582C409.643 509.325 409.792 508.948 410.134 508.851C410.302 508.8 410.578 508.826 410.865 508.888L410.974 508.914L410.78 508.731C410.437 508.434 410.546 508.103 410.968 508C411.283 508.019 411.595 508.062 411.903 508.137L412.133 508.2C412.247 508.228 412.356 508.263 412.47 508.297C412.276 508.12 412.082 507.949 411.893 507.771C411.705 507.606 411.905 507.132 412.076 507.035C412.31 506.904 412.767 507.086 412.978 507.24C413.498 507.298 414.183 507.526 414.435 507.743C415.126 508.405 415.839 509.039 416.565 509.656C417.004 509.793 417.421 509.976 417.741 510.25C418.563 511.038 419.42 511.781 420.294 512.5L420.958 512.957C421.069 513.033 421.181 513.107 421.293 513.179C422.549 513.916 423.806 514.647 425.056 515.384C429.642 516.937 434.228 518.491 438.808 520.038L439.413 520.221L443.862 520.769C446.785 521.077 449.715 521.061 452.639 520.723C454.832 520.752 457.008 520.535 459.149 520.089C462.787 519.473 466.356 518.565 469.828 517.297C473.825 515.841 477.634 513.922 481.352 511.855C482.688 511.106 484.002 510.313 485.292 509.474C485.709 509.177 486.126 508.874 486.543 508.565C489.29 506.504 491.917 504.305 494.447 501.981C495.634 500.89 496.777 499.754 497.879 498.578C498.039 498.406 498.193 498.241 498.347 498.069C499.403 496.915 500.426 495.723 501.402 494.488L502.333 493.438C506.091 488.761 509.431 483.73 512.435 478.55C515.416 473.416 517.872 468.014 519.825 462.423C520.453 460.43 521.001 458.409 521.458 456.365C522.303 453.908 522.857 451.391 523.114 448.821C523.2 448.318 523.268 447.815 523.337 447.313L523.376 446.521C523.382 446.388 523.387 446.256 523.388 446.125C523.503 445.326 523.6 444.526 523.674 443.726C523.72 442.922 523.748 442.116 523.754 441.311L523.691 436.371C523.674 436.217 523.657 436.058 523.645 435.897L523.52 434.807C523.246 432.556 523.034 430.301 522.76 428.051C522.76 428.039 522.76 428.022 522.754 428.005C522.652 427.165 522.543 426.32 522.417 425.475C522.355 424.973 522.275 424.47 522.2 423.968L522.058 423.089C521.793 421.56 521.471 420.043 521.081 418.54L520.91 417.897L519.916 412.9L518.797 407.983C518.072 404.688 517.466 401.37 516.987 398.024C516.119 392.691 515.376 387.351 514.731 381.988C514.697 381.731 514.662 381.469 514.634 381.212C513.977 376.238 513.503 371.247 513.195 366.238C512.778 361.305 512.538 356.359 512.475 351.408C512.469 351.185 512.618 351.003 512.795 350.9L512.779 349.948C512.758 349.106 512.743 350.116 512.736 349.156L512.725 346.516C512.725 346.295 512.728 346.142 512.732 346.131C509.681 346.342 507.629 346.169 504.683 346.014L504.183 345.988C501.482 345.863 498.798 345.566 496.131 345.12C496.12 345.258 496.028 345.355 495.874 345.383C495.6 345.395 495.343 345.395 495.081 345.401L495.178 345.771C495.183 345.96 495.098 346.08 494.915 346.131L494.153 346.165C493.136 346.208 492.116 346.228 491.106 346.091C490.198 345.972 489.313 345.76 488.433 345.509C487.891 345.417 487.337 345.292 486.772 345.132C485.321 344.715 483.882 344.155 482.426 343.71C480.941 343.396 479.433 343.294 477.857 343.67C476.19 344.064 474.779 344.778 473.032 344.344C472.683 344.259 472.346 344.127 472.009 343.99L471.698 343.968C471.645 343.963 471.591 343.958 471.535 343.95C469.714 343.688 468.092 342.534 466.356 341.917C465.75 341.769 465.149 341.807 464.561 342.052L464.414 342.117L463.838 342.546C463.606 342.819 463.376 343.096 463.148 343.373L462.81 343.79C462.187 344.561 461.525 345.252 460.719 345.754C459.749 346.651 458.595 347.176 457.219 347.211C456.437 347.233 455.66 347.068 454.906 346.829C452.062 347.708 449.018 347.885 446.18 347.028C445.055 346.856 443.953 346.554 442.897 346.08C442.4 345.857 441.903 345.594 441.423 345.303C439.419 346.149 437.523 347.273 435.587 348.245L435.151 348.463C433.173 349.449 430.984 350.41 428.746 350.266C425.924 350.083 423.155 349.707 420.391 349.232C420.368 349.232 420.339 349.226 420.317 349.221L419.936 349.157L418.554 348.915L417.438 348.707L416.868 348.925C412.291 350.657 407.276 352.009 402.676 350.797C400.672 350.552 398.793 349.877 397.097 348.73C397.04 348.69 396.983 348.65 396.926 348.604C396.657 348.467 396.406 348.313 396.183 348.148L396.135 348.111L396.092 348.073L396.069 348.061C393.562 346.908 392.123 344.452 392.374 341.7C392.22 340.826 392.226 339.969 392.397 339.056C391.581 340.021 390.747 340.975 389.902 341.922C386.81 345.645 383.783 349.442 380.979 353.395L380.336 354.309C378.794 356.485 377.361 358.735 376.036 361.053C374.694 363.343 373.318 365.611 371.896 367.849C370.047 369.893 368.259 371.985 366.537 374.128L365.803 375.05L363.324 378.311C361.571 380.39 360.115 382.663 358.967 385.129C358.025 386.883 357.157 388.67 356.374 390.504C356.123 391.057 355.883 391.617 355.649 392.176C354.844 394.363 354.164 396.591 353.633 398.892C353.207 400.557 352.901 402.246 352.718 403.957L352.662 404.529C352.594 405.202 352.542 405.876 352.514 406.55C352.68 406.648 352.817 406.744 352.919 406.841L353.336 406.99L353.673 407.09C354.199 407.254 355.106 407.59 354.89 408.006L353.787 410.108C353.902 410.228 353.953 410.353 353.879 410.491C353.142 411.901 352.4 413.311 351.657 414.723C351.634 414.774 351.595 414.813 351.555 414.842C352.188 415.133 352.805 415.453 353.393 415.801C354.541 416.487 355.386 417.28 356.169 418.205C356.991 418.697 357.768 419.234 358.499 419.85C359.401 420.798 360.189 421.838 360.857 422.962C361.474 424.025 361.976 425.132 362.365 426.292C362.536 426.903 362.616 427.537 362.61 428.182C361.919 433.059 356.34 429.718 356.232 429.29C355.466 426.343 354.587 424.482 352.611 422.289L352.56 422.254C351.417 421.752 350.287 421.255 349.105 420.867C348.928 420.901 348.745 420.924 348.562 420.952C348.768 421.244 348.665 421.53 348.248 421.58C346.449 421.935 344.633 422.032 342.806 421.877L340.03 421.484C338.879 421.925 337.779 422.492 336.742 423.167L336.398 423.396L336.336 423.442C333.657 425.595 331.59 428.456 330.174 431.574C330.048 431.852 329.928 432.133 329.812 432.415L329.643 432.842L329.631 432.865C327.781 440.135 329.431 448.118 332.812 454.714C334.657 457.666 336.581 460.561 338.591 463.4L340.544 465.953C341.698 467.038 342.829 468.151 343.931 469.293C344.102 469.465 344.285 469.636 344.468 469.801C345.05 470.184 345.644 470.521 346.249 470.807C346.483 470.886 346.723 470.961 346.963 471.024C348.128 471.583 349.35 471.881 350.635 471.915C352.332 472.027 353.979 471.828 355.571 471.323L355.889 471.218L356.123 471.132C356.991 470.578 357.796 469.887 358.561 469.076C358.733 468.899 359.053 468.899 359.418 468.996C359.618 468.79 359.818 468.573 360.006 468.339C360.138 468.197 360.343 468.191 360.503 468.299C361.046 468.237 362.513 469.071 362.131 469.51C362.068 469.613 361.988 469.704 361.919 469.801C362.176 469.933 362.433 470.081 362.662 470.236C363.861 470.568 365.632 471.765 365.489 472.125L365.471 472.154C365.194 472.679 364.833 473.119 364.389 473.469L364.238 473.582L363.901 473.816C364.375 474.113 364.775 474.455 364.575 474.695C364.483 474.872 364.386 475.044 364.272 475.198C365.243 476.398 366.208 477.608 367.167 478.818C368.127 480.898 369.315 482.839 370.731 484.638C371.913 486.591 373.335 488.344 374.997 489.908C375.134 490.046 375.277 490.177 375.414 490.309C376.638 491.213 377.919 492.06 379.253 492.875L379.828 493.221C380.131 493.403 380.639 493.632 380.399 494.072C380.371 494.129 380.336 494.175 380.296 494.209C381.136 494.757 382.004 495.277 382.9 495.757L382.985 495.809C383.324 496.025 383.784 496.418 383.3 496.738C382.889 497.013 381.798 496.27 381.284 495.928C381.187 495.928 381.073 495.9 380.959 495.865C381.13 495.956 381.299 496.055 381.47 496.152L381.73 496.294C381.93 496.413 382.912 497.064 382.226 497.339C381.89 497.367 381.581 497.281 381.296 497.087C380.959 496.921 380.627 496.745 380.302 496.561C380.416 496.738 380.416 496.915 380.131 497.03C380.034 497.035 379.937 497.03 379.839 497.019C380.513 497.447 381.204 497.846 381.918 498.223L382.033 498.296C382.335 498.491 382.816 498.863 382.466 499.183C382.072 499.537 380.987 498.783 380.707 498.612L379.874 498.115C379.811 498.143 379.742 498.155 379.668 498.161C379.919 498.315 380.154 498.481 380.41 498.629L380.76 498.819C381.198 499.061 381.817 499.459 381.593 499.856C381.369 500.25 380.702 499.926 380.272 499.671L379.81 499.384C379.789 499.372 379.769 499.36 379.748 499.348L379.73 499.417C379.726 499.428 379.721 499.44 379.714 499.451C379.5 499.824 378.961 499.579 378.589 499.365L378.292 499.183C377.785 498.878 377.284 498.576 376.786 498.272L376.042 497.813H376.03C373.455 496.264 371.074 494.723 368.829 492.736C367.487 491.547 366.237 490.291 365.049 488.949C362.662 486.259 360.886 483.182 359.173 480.041C359.144 479.989 359.184 479.858 359.253 479.715C359.064 479.327 358.881 478.933 358.699 478.527C356.94 479.019 354.975 479.162 353.165 479.042C352.194 478.978 351.235 478.807 350.281 478.55C347.237 478.127 344.302 476.74 341.766 475.078C341.607 474.975 341.464 474.861 341.315 474.759C340.27 474.17 339.277 473.485 338.334 472.702C336.496 471.183 334.742 469.493 333.149 467.728C331.996 466.358 330.905 464.936 329.883 463.462C328.843 462.006 327.792 460.551 326.742 459.094C323.824 454.525 321.956 449.266 321.231 443.892C320.877 441.911 320.694 439.906 320.734 437.907C320.763 436.462 320.923 435.001 321.202 433.545C321.037 433.384 320.871 433.225 320.706 433.059C320.614 433.219 320.523 433.334 320.466 433.276L319.157 431.965C318.228 431.029 317.606 430.341 316.537 428.827C314.835 426.412 313.567 423.756 312.625 420.959C311.945 418.96 311.494 416.686 311.317 414.488C311.26 414.122 311.203 413.751 311.157 413.374C310.792 410.399 311.129 407.549 311.58 404.614C311.608 404.421 311.706 404.301 311.837 404.237C311.87 404.005 311.909 403.766 311.948 403.528C308.166 399.524 305.443 394.698 305.665 388.869C305.735 387.033 306.112 385.222 306.831 383.532L306.919 383.341C303.761 382.856 301.257 380.638 299.375 377.889C299.208 377.757 299.047 377.624 298.891 377.491C295.527 374.618 293.194 370.549 291.597 366.251C290.453 363.755 289.695 361.089 289.373 358.322C289.351 358.125 289.337 357.929 289.319 357.732C288.538 353.359 288.339 348.941 288.7 344.589C287.916 341.895 287.278 339.154 286.841 336.349C286.636 335.013 286.493 333.676 286.384 332.34L286.373 332.266L286.356 332.026L286.308 331.426C286.3 331.327 286.293 331.228 286.287 331.129C285.322 318.897 288.058 306.859 292.581 295.529C292.975 294.51 293.382 293.494 293.801 292.485L294.246 291.432C298.786 284.111 305.604 278.19 311.378 271.936C313.37 269.779 310.148 266.539 308.148 268.706C304.311 272.861 300.196 276.84 296.48 281.111C295.824 281.159 295.166 281.177 294.511 281.144C293.369 281.087 292.261 280.905 291.187 280.613C288.509 280.219 286.07 279.139 283.855 277.552C280.891 276.171 278.361 273.566 278.11 270.168C278.081 269.825 278.087 269.488 278.11 269.152C277.836 267.49 278.081 265.749 278.778 264.143C278.898 263.704 279.052 263.27 279.246 262.841C279.812 261.568 280.742 260.346 281.879 259.518C281.907 259.501 281.93 259.49 281.953 259.472C282.073 259.347 282.187 259.221 282.318 259.107C282.513 258.929 282.718 258.764 282.935 258.61C282.164 257.342 281.468 256.04 280.874 254.652C280.228 253.145 279.897 251.615 279.714 249.998C279.64 249.358 279.612 248.725 279.6 248.091C279.566 247.799 279.543 247.502 279.52 247.205C279.377 244.944 279.64 242.598 280.485 240.484C280.548 240.325 280.628 240.164 280.702 239.999C280.862 239.519 281.039 239.04 281.256 238.571C282.101 236.772 283.301 235.247 284.78 233.997C285.579 233.192 286.476 232.478 287.452 231.872C288.029 231.513 288.686 231.193 289.377 230.93C290.61 230.279 292.192 229.685 293.477 229.64C293.631 229.634 293.768 229.651 293.917 229.651C294.037 226.373 294.459 222.804 295.756 219.834C296.509 217.682 297.64 215.769 299.342 214.392C300.329 213.362 301.545 212.525 303.063 211.979L303.334 211.885L303.437 211.856C304.801 211.194 306.275 210.931 307.788 210.938C309.553 210.846 311.351 211.177 312.888 211.988C313.207 212.159 313.55 212.37 313.876 212.599C314.121 212.108 314.395 211.611 314.709 211.115C315.812 209.35 317.142 207.813 318.684 206.414C318.867 206.249 319.067 206.1 319.261 205.941C320.009 205.261 320.803 204.633 321.625 204.062C323.401 202.828 325.348 201.909 327.393 201.315C329.753 200.443 332.243 200.038 334.735 200.123L335.251 200.144C335.365 200.155 335.479 200.161 335.588 200.167C338.06 200.327 340.499 200.933 342.829 201.846C345.244 202.8 347.289 204.244 349.19 205.9C349.636 205.284 350.144 204.701 350.766 204.153C350.943 203.999 351.132 203.862 351.309 203.719C351.446 203.582 351.589 203.45 351.737 203.319C352.417 202.719 353.136 202.2 353.924 201.737C354.81 201.218 355.763 200.858 356.751 200.636C357.756 200.292 358.813 200.081 359.886 200.013ZM348.151 435.435C348.252 435.429 353.541 437.412 356.176 438.695L356.306 438.758C359.344 440.266 360.806 441.351 363.535 443.287C363.718 443.418 363.907 443.618 363.907 443.812C363.907 446.632 363.222 450.08 360.851 448.552C360.509 448.331 360.164 448.116 359.816 447.903L359.292 447.587L359.275 447.593C359.281 447.593 359.287 447.587 359.292 447.581C354.13 444.435 348.676 441.968 342.92 440.203C342.526 440.06 345.444 435.652 346.249 435.897C345.787 435.714 348.074 435.439 348.151 435.435ZM402.393 310.894C398.96 311.261 395.527 311.622 392.094 311.976C389.907 312.227 387.714 312.45 385.522 312.638C382.226 312.884 378.931 312.924 375.648 312.473C374.483 312.313 373.341 312.084 372.21 311.804C371.439 312.37 370.64 312.901 369.823 313.41L360.754 320.348C354.673 325.128 348.722 330.193 343.365 335.784C334.01 345.551 326.391 356.978 321.6 369.636C321.165 369.892 320.829 370.339 320.718 371.025C319.871 376.213 317.396 380.945 316.502 386.112C315.621 391.201 316.793 395.528 319.989 399.562C320.672 400.424 322.07 400.378 322.928 399.796C323.127 400.188 323.99 400.171 324.294 398.441C325.715 396.902 326.931 395.289 327.754 393.291C328.361 391.82 327.341 390.8 326.104 390.6C326.618 388.749 327.198 386.916 327.85 385.101C329.78 379.71 332.235 374.559 335.325 369.728C338.043 365.479 341.19 361.778 344.57 358.067C344.61 358.015 344.679 357.999 344.753 357.987L345.456 357.21C345.553 357.101 345.753 357.113 345.975 357.17C346.187 356.947 346.392 356.719 346.609 356.496C346.82 356.268 347.055 356.336 347.186 356.519C347.546 356.439 348.202 356.827 348.402 356.953C348.745 357.181 348.853 357.438 348.562 357.764C348.511 357.822 348.459 357.879 348.408 357.929C348.802 358.096 349.19 358.318 349.493 358.535C350.549 358.769 352.034 359.751 351.777 360.043C351.235 360.608 350.709 361.185 350.19 361.773C350.647 362.093 350.943 362.407 350.824 362.544C348.596 364.891 346.541 367.375 344.656 370.007C343.223 371.972 341.926 374.016 340.767 376.146C339.042 379.162 337.581 382.263 336.284 385.449C336.101 385.935 335.924 386.42 335.753 386.905C333.857 392.211 332.441 397.716 331.841 403.323L331.816 403.702C331.705 405.722 331.661 411.131 331.453 412.421C332.715 413.043 334.029 413.574 335.393 414.009C335.65 414.083 335.913 414.151 336.176 414.214C336.324 414.151 336.478 414.099 336.633 414.054C337.889 413.546 339.202 413.18 340.544 413.003C341.449 412.884 342.349 412.842 343.248 412.868L343.634 412.883C344.034 412.895 344.428 412.923 344.827 412.964C344.805 412.735 344.793 412.513 344.776 412.284C344.662 412.209 344.576 412.107 344.57 411.969C344.302 409.4 344.296 406.83 344.553 404.26C344.725 402.918 344.924 401.582 345.141 400.246C345.364 399.149 345.621 398.07 345.901 396.99C346.643 393.964 347.631 391.011 348.831 388.122C352.246 379.881 357.14 372.452 362.062 365.062C365.654 359.666 369.052 354.149 372.77 348.844C375.933 344.327 379.257 339.878 382.803 335.652C386.344 331.433 390.084 327.372 394.122 323.615C394.773 323.014 395.43 322.432 396.098 321.856C399.924 318.429 404.081 315.613 408.41 312.85C408.575 312.742 408.872 312.861 409.118 313.067L409.816 312.637C409.933 312.566 410.051 312.495 410.169 312.427C410.277 312.359 410.397 312.473 410.46 312.57C410.757 312.415 411.054 312.268 411.351 312.119C411.567 311.944 411.791 311.778 412.009 311.606C408.799 311.444 405.593 311.204 402.393 310.894ZM442.651 272.823C440.058 272.304 437.454 272.23 434.839 272.618C433.743 272.778 432.652 272.971 431.571 273.205C434.027 275.346 436.002 278.087 437.284 281.241C438.67 284.65 433.143 286.12 431.777 282.759C430.46 279.518 427.966 277.032 424.954 275.541C424.303 275.905 423.672 276.299 423.069 276.735C422.281 277.375 421.539 278.066 420.842 278.825C419.323 280.476 417.93 282.68 417.016 284.862C416.662 286.049 416.399 287.271 416.233 288.528C416.199 288.813 416.165 289.105 416.136 289.396C415.573 295.306 417.263 301.056 420.17 306.144L420.285 306.146C422.88 304.739 425.596 303.553 428.391 302.587C430.63 301.08 432.954 299.686 435.347 298.424C440.434 295.741 445.807 293.672 451.343 292.257L451.982 292.097C453.286 291.764 454.602 291.471 455.923 291.214L456.716 291.064H456.728L456.642 290.212C456.197 286.872 454.889 283.771 453.199 280.905C451.931 278.74 450.018 276.525 447.893 274.754L447.882 274.748C446.917 274.2 445.903 273.746 444.86 273.372L444.467 273.235L442.651 272.823ZM373.038 267.747C367.647 267.238 362.256 267.29 356.865 267.73C353.342 268.079 349.841 268.563 346.358 269.18C343.999 269.586 341.687 270.157 339.414 270.865L340.714 273.494C342.886 277.873 345.112 282.222 347.734 286.358C349.088 288.488 350.555 290.516 352.154 292.462C353.233 293.856 354.421 295.147 355.723 296.334C356.066 296.752 356.431 297.146 356.803 297.528C357.99 298.544 359.27 299.435 360.669 300.172C361.791 300.989 362.962 301.703 364.183 302.329L364.643 302.559L368.926 304.204C369.155 304.268 369.386 304.333 369.618 304.394L369.966 304.484L370.617 304.62L371.106 304.355C371.187 304.311 371.269 304.268 371.353 304.226C371.49 304.153 371.588 304.296 371.616 304.398C371.627 304.438 371.61 304.495 371.582 304.552L372.206 304.214C373.279 304.65 374.418 304.998 375.639 305.228C376.192 305.331 376.746 305.411 377.3 305.479L377.375 305.528C377.387 305.537 377.4 305.547 377.412 305.558H378.019C382.288 305.969 386.618 305.425 390.88 304.659C396.912 304.053 402.942 303.384 408.97 302.759C409.084 302.748 409.129 302.799 409.129 302.879L409.501 302.845C410.037 302.787 410.666 303.684 410.26 304.01C410.586 304.204 410.9 304.484 411.134 304.701L411.271 304.689C410.443 303.067 409.803 301.371 409.346 299.607L408.764 296.648C408.604 295.546 408.513 294.37 408.496 293.211C408.456 292.679 408.427 292.183 408.427 291.749C408.427 291.337 408.433 290.926 408.45 290.516C407.313 290.047 406.16 289.636 404.983 289.287C401.643 288.877 398.308 288.465 394.967 288.06C392.963 288.134 390.958 288.277 388.959 288.499C386.692 288.699 384.431 288.956 382.175 289.264C381.964 289.287 381.587 289.002 381.358 288.671L380.393 288.802C379.891 288.865 379.365 287.86 380.028 287.654C380.268 287.559 380.508 287.469 380.747 287.382L381.107 287.254L380.902 287.277C380.833 287.283 380.747 287.266 380.65 287.232C380.119 287.3 379.588 287.369 379.063 287.431C378.396 287.515 378.548 286.636 379.015 286.429L379.24 286.346C378.845 286.1 378.498 285.427 378.986 285.206L379.051 285.181C379.28 285.091 379.502 285.016 379.731 284.93C379.714 284.856 379.714 284.787 379.737 284.725L378.794 284.844C378.709 284.856 379.118 284.255 379.314 284.136L379.348 284.119L379.799 283.982C379.868 283.788 380.233 283.36 380.359 283.32C382.015 282.8 383.557 282.332 385.167 281.972C385.247 281.875 385.339 281.801 385.442 281.778C386.447 281.538 387.463 281.349 388.48 281.19C388.548 281.087 388.617 281.013 388.697 281.007C391.215 280.687 393.739 280.613 396.275 280.785C396.76 280.83 397.246 280.882 397.731 280.944C398.662 281.047 399.593 281.179 400.518 281.356C402.835 281.753 405.098 282.358 407.303 283.173L407.81 283.365C408.364 283.572 408.912 283.788 409.455 284.023C409.729 283.046 410.072 282.086 410.477 281.144C410.54 280.961 410.608 280.785 410.683 280.608L410.129 280.276C410.009 280.504 409.763 280.681 409.603 280.585C405.634 277.907 401.437 275.673 397.011 273.891C394.533 272.795 391.997 271.865 389.399 271.087C388.103 270.671 386.795 270.294 385.482 269.934C384.825 269.797 384.168 269.66 383.5 269.546C380.068 268.62 376.579 268.021 373.038 267.747ZM503.82 276.812C503.338 277.644 502.836 278.469 502.305 279.282C499.723 283.233 496.628 286.941 493.118 290.174C494.033 290.172 494.946 290.207 495.848 290.291C497.403 290.438 498.926 290.696 500.411 291.058C500.531 290.961 500.666 290.913 500.774 290.989L501.161 291.257C504.346 292.116 507.336 293.468 510.045 295.278L509.996 294.92C509.988 294.861 509.979 294.801 509.968 294.742C510.014 294.039 510.025 293.336 510.003 292.639C509.443 288.522 508.044 284.73 506.445 280.893C506.414 280.819 506.436 280.722 506.482 280.624C505.676 279.306 504.792 278.032 503.82 276.812ZM504.555 244.442C503.361 244.659 502.179 244.938 501.002 245.287C498.792 245.618 496.651 246.201 494.584 247.028C491.734 248.039 488.97 249.216 486.218 250.461C480.872 252.882 475.858 255.943 471.296 259.632C471.004 259.855 470.725 260.084 470.445 260.312C469.423 261.197 468.429 262.122 467.487 263.098C466.499 264.172 465.505 265.246 464.517 266.325C463.306 267.593 461.913 268.74 460.817 270.111C460.594 270.391 460.4 270.699 460.223 271.008L460.868 271.23C461.41 271.413 461.319 272.429 460.782 272.281C460.6 272.23 460.428 272.167 460.257 272.099C460.331 272.196 460.383 272.293 460.394 272.378C460.428 272.652 460.217 273.03 459.88 272.933C459.726 272.892 459.572 272.835 459.417 272.772C459.372 272.949 459.338 273.126 459.338 273.297C459.366 273.309 459.395 273.32 459.429 273.327C459.806 273.458 460.514 274.046 460.617 274.446C460.697 274.754 460.434 275.085 460.097 274.994C459.846 274.925 459.6 274.822 459.36 274.708C459.52 274.863 459.646 275.028 459.657 275.171C459.68 275.434 459.452 275.804 459.138 275.719C458.555 275.559 458.087 275.314 457.699 275.006C457.596 275.142 457.447 275.251 457.327 275.217L457.105 275.148C457.166 275.205 457.222 275.265 457.275 275.324L457.356 275.41C458.932 277.112 460.308 278.997 461.41 281.025C461.462 280.967 461.525 280.915 461.605 280.853C462.119 280.419 462.65 279.996 463.181 279.585L463.341 279.445L463.506 279.305L462.313 279.699L462.339 279.668C462.424 279.56 462.686 279.2 462.808 279.08L462.838 279.054C464.477 277.587 466.265 276.341 468.195 275.325C469.445 274.514 470.759 273.829 472.135 273.263C475.419 271.738 478.765 270.58 482.203 269.506C482.717 269.341 483.231 269.164 483.745 269.003C483.893 268.952 483.922 269.014 483.899 269.117L484.167 269.037C484.647 268.883 485.464 269.728 485.138 270.122C485.335 270.282 485.528 270.46 485.696 270.628L485.818 270.751L485.955 270.711C486.363 270.585 487.051 271.221 487.489 271.671L487.811 272.013C488.056 272.275 488.536 272.818 487.948 273.03L487.211 273.28C487.234 273.429 487.171 273.554 486.943 273.64C486.686 273.726 486.435 273.817 486.183 273.909C486.336 274.042 486.485 274.18 486.633 274.32L486.851 274.531C487.11 274.795 487.724 275.377 487.182 275.634L487.114 275.662L486.412 275.913C486.503 276.119 486.48 276.313 486.172 276.427C482.072 277.82 478.068 279.454 474.157 281.31C471.227 282.931 468.132 284.143 464.871 284.936C464.603 285.022 464.02 284.617 463.78 284.211L463.294 284.354C463.213 284.378 463.132 284.401 463.049 284.422L462.969 284.44C463.581 286.067 464.032 287.831 464.283 289.539C464.311 289.693 464.334 289.853 464.351 290.007C464.991 289.955 465.625 289.91 466.265 289.876C470.69 289.641 475.167 289.784 479.605 290.31C481.398 289.242 483.122 288.071 484.773 286.804C485.275 286.415 485.772 286.015 486.263 285.61C489.21 283.051 491.877 280.179 494.241 277.078C496.428 274.205 498.33 271.122 499.929 267.89C501.345 264.857 502.516 261.705 503.401 258.45C504.212 255.475 504.492 252.579 504.697 249.501C504.766 248.999 504.812 248.497 504.851 247.994L504.847 247.778L504.84 247.674C504.783 246.595 504.674 245.515 504.555 244.442ZM462.713 282.686C462.581 282.731 462.444 282.777 462.307 282.817C462.387 282.994 462.461 283.166 462.535 283.343L462.544 283.339L463.084 282.914C462.969 282.863 462.838 282.783 462.713 282.686ZM503.755 236.344C504.783 235.961 505.56 235.887 506.085 236.127C505.308 236.184 504.532 236.258 503.755 236.344Z" fill="black"/>
</svg>
