<svg width="788" height="788" viewBox="0 0 788 788" fill="none" xmlns="http://www.w3.org/2000/svg">
<path fill-rule="evenodd" clip-rule="evenodd" d="M465.305 623.383C444.605 623.326 425.658 619.293 407.681 610.462C385.975 603.38 362.272 599.521 344.657 583.844C336.079 585.663 327.287 576.857 320.171 571.614C308.565 614.317 248.165 607.214 222.644 579.615C207.032 566.431 200.752 533.816 227.863 525.188C183.444 495.018 167.4 442.902 170.453 386.509C173.666 291.911 246.392 193.563 339.867 177.155C358.307 173.911 377.244 174.254 395.605 178.112C405.858 180.336 415.769 184.648 426.742 184.452C469.3 177.725 516.043 178.498 551.195 205.735C607.378 243.324 615.187 318.533 608.622 379.001L608.888 379.567C605.622 401.763 600.194 422.092 589.929 435.474C589.13 454.713 582.445 495.781 581.95 512.017C583.149 587.567 540.239 621.099 465.305 623.383Z" fill="white"/>
<path fill-rule="evenodd" clip-rule="evenodd" d="M218.082 524.145C83.531 405.261 221.566 137.719 396.632 173.216C414.35 179.149 432.343 181.208 450.692 176.812C543.159 162.373 618.804 240.834 614.894 331.609C615.545 347.135 615.419 362.675 613.741 378.139C611.822 398.465 606.581 420.203 594.893 437.1C594.758 448.449 588.076 491.023 587.003 511.053L586.797 515.236C585.732 535.821 583.434 556.816 574.385 575.587C546.557 626.01 474.872 636.831 423.472 622.142L421.335 621.44C411.787 618.266 400.963 614.036 394.901 606.04C391.697 601.815 397.001 596.421 401.412 597.57C407.09 599.05 411.796 602.511 417.097 604.97C451.672 620.249 492.565 615.132 526.695 600.86L527.727 600.425C588.852 575.613 572.108 487.351 580.154 437.024C581.984 373.117 528.682 329.597 488.523 287.329L487.321 285.99C483.195 281.414 478.837 276.955 473.1 275.979C471.529 280.746 467.665 284.803 464.081 288.28L455.976 297.039C447.87 305.787 439.747 314.5 431.507 323.135C391.501 363.774 350.74 418.95 289.073 423.105C292.864 426.535 296.188 430.454 300.161 433.684C301.837 435.361 300.128 438.176 297.88 437.601C293.688 436.53 291.007 432.554 288.256 429.447C254.95 415.466 227.598 467.131 255.816 488.52C266.284 499.604 296.873 491.17 289.8 504.838C297.52 529.048 309.403 553.398 329.504 569.592C335.406 574.048 344.624 576.305 348.54 582.865C349.485 584.446 349.003 587.026 347.228 587.867C338.689 591.848 329.516 585.152 322.958 580.108C288.326 647.805 161.33 573.011 218.082 524.145ZM423.881 193.352L420.411 192.673C383.409 185.353 359.017 178.106 319.897 191.341C232.704 220.464 176.493 313.235 178.923 403.402C178.98 454.624 204.373 519.941 261.569 527.211C270.217 527.898 270.352 541.317 261.831 540.915L261.57 540.899C247.471 540.019 233.823 534.906 222.189 527.039C206.581 552.317 222.223 575.254 246.541 586.119C271.181 599.12 297.522 594.975 313.986 572.004C298.96 555.31 287.884 530.36 285.322 508.228C243.122 524.598 211.295 464.254 238.751 432.252C248.413 418.477 267.169 409.867 282.631 419.645C349.152 394.053 395.594 339.661 440.06 286.38L442.434 283.68C450.219 274.887 468.12 255.024 470.106 252.457C472.337 249.57 476.842 252.169 476.898 255.27C476.938 257.475 476.815 259.711 476.567 261.942C484.846 267.281 491.555 275.388 497.73 282.873C543.828 319.052 581.316 356.943 592.977 414.34C600.219 405.888 603.503 394.793 605.872 384.196C610.84 314.292 597.491 230.583 525.368 200.259C490.706 183.064 459.782 190.944 423.881 193.352ZM260.325 455.885C257.322 453.204 277.163 452.88 279.036 454.98L279.463 455.126C286.567 457.624 299.574 465.676 293.187 474.036C284.079 482.619 277.736 457.136 260.325 455.885Z" fill="#221E1F"/>
</svg>
