<svg width="900" height="900" viewBox="0 0 900 900" fill="none" xmlns="http://www.w3.org/2000/svg">
<path fill-rule="evenodd" clip-rule="evenodd" d="M455.065 524.912C443.244 524.88 432.424 522.576 422.158 517.533C409.762 513.489 396.226 511.285 386.167 502.333C381.268 503.372 376.247 498.343 372.184 495.349C365.556 519.735 331.064 515.679 316.489 499.918C307.574 492.389 303.988 473.764 319.47 468.836C294.104 451.607 284.941 421.846 286.685 389.641C288.52 335.62 330.051 279.457 383.432 270.087C393.962 268.234 404.776 268.43 415.262 270.633C421.117 271.903 426.777 274.366 433.043 274.254C457.346 270.412 484.04 270.853 504.114 286.408C536.198 307.873 540.657 350.823 536.908 385.354L537.06 385.677C535.195 398.353 532.095 409.962 526.233 417.604C525.777 428.59 521.96 452.043 521.677 461.315C522.362 504.459 497.857 523.608 455.065 524.912Z" fill="white"/>
<path fill-rule="evenodd" clip-rule="evenodd" d="M313.884 468.24C237.047 400.349 315.874 247.565 415.848 267.836C425.966 271.225 436.242 272.4 446.72 269.89C499.525 261.644 542.723 306.451 540.49 358.289C540.862 367.156 540.79 376.03 539.832 384.861C538.736 396.468 535.743 408.882 529.068 418.532C528.991 425.013 525.175 449.325 524.563 460.764L524.445 463.152C523.837 474.908 522.525 486.897 517.357 497.617C501.465 526.412 460.528 532.591 431.176 524.203L429.955 523.802C424.503 521.989 418.322 519.574 414.86 515.007C413.03 512.595 416.059 509.514 418.578 510.171C421.82 511.016 424.508 512.992 427.535 514.396C447.28 523.122 470.632 520.2 490.123 512.049L490.712 511.801C525.619 497.632 516.057 447.228 520.651 418.488C521.696 381.993 491.258 357.14 468.324 333.002L467.638 332.238C465.281 329.625 462.793 327.078 459.517 326.521C458.619 329.243 456.413 331.56 454.366 333.546L449.738 338.548C445.109 343.543 440.47 348.519 435.764 353.45C412.918 376.658 389.641 408.167 354.425 410.54C356.59 412.498 358.488 414.736 360.757 416.581C361.714 417.539 360.738 419.146 359.454 418.818C357.06 418.206 355.529 415.936 353.958 414.161C334.938 406.177 319.319 435.681 335.433 447.896C341.411 454.225 358.879 449.409 354.84 457.214C359.249 471.04 366.035 484.945 377.514 494.193C380.884 496.738 386.148 498.027 388.385 501.773C388.924 502.676 388.649 504.149 387.635 504.63C382.759 506.903 377.521 503.079 373.776 500.199C353.998 538.858 281.475 496.146 313.884 468.24ZM431.409 279.335L429.428 278.948C408.297 274.767 394.368 270.629 372.027 278.187C322.235 294.818 290.134 347.797 291.522 399.288C291.555 428.539 306.056 465.839 338.718 469.991C343.657 470.383 343.734 478.046 338.868 477.817L338.719 477.808C330.667 477.305 322.874 474.385 316.23 469.893C307.317 484.328 316.249 497.427 330.136 503.631C344.207 511.056 359.25 508.689 368.652 495.571C360.071 486.037 353.746 471.789 352.283 459.15C328.184 468.499 310.009 434.038 325.688 415.763C331.205 407.897 341.916 402.98 350.746 408.564C388.734 393.949 415.255 362.887 440.648 332.461L442.004 330.919C446.45 325.897 456.673 314.554 457.807 313.088C459.081 311.44 461.653 312.924 461.685 314.695C461.708 315.954 461.638 317.231 461.496 318.505C466.224 321.554 470.056 326.183 473.582 330.458C499.907 351.118 521.315 372.757 527.974 405.534C532.11 400.707 533.985 394.372 535.338 388.32C538.175 348.4 530.552 300.597 489.365 283.28C469.571 273.46 451.911 277.96 431.409 279.335ZM338.008 429.259C336.293 427.728 347.624 427.543 348.693 428.742L348.937 428.826C352.994 430.252 360.422 434.85 356.774 439.624C351.573 444.526 347.951 429.973 338.008 429.259Z" fill="#221E1F"/>
</svg>
