<svg width="900" height="900" viewBox="0 0 900 900" fill="none" xmlns="http://www.w3.org/2000/svg">
<path fill-rule="evenodd" clip-rule="evenodd" d="M460.345 454.466C466.28 454.466 468.794 455.431 472.655 457.7C476.517 459.969 480.645 462.894 481.621 467.275C482.532 471.357 480.74 475.334 476.772 476.891C474.553 477.763 448.984 479.803 444.972 480.069C440.961 480.336 437.133 480.007 434.557 477.335C427.902 470.433 437.144 461.484 443.05 458.179C448.324 455.227 454.409 454.466 460.345 454.466ZM458.972 459.121C454.508 459.121 447.193 462.387 447.193 463.977C447.193 465.567 468.511 463.988 468.968 462.628C469.425 461.268 463.437 459.121 458.972 459.121ZM462.407 422.683C466.182 424.978 471.935 430.33 467.874 436.02C463.093 441.036 456.209 435.284 452.817 432.683C449.671 430.667 446.137 435.852 449.056 438.206C473.568 456.354 483.515 423.283 464.316 419.985C462.203 419.621 461.418 421.973 462.407 422.683ZM419.771 401.883C426.202 397.135 435.821 400.79 437.406 408.218C438.508 408.798 439.107 409.719 439.238 411.068L439.27 411.406C439.426 413.008 438 414.525 436.574 414.947C434.97 415.422 433.7 415.177 432.21 414.495C430.783 413.842 430.286 411.988 430.545 410.578L430.568 410.461C430.95 408.711 429.449 407.015 427.939 406.321C426.234 405.539 424.322 406.029 422.84 407.066C421.194 408.216 419.826 410.184 419.363 412.145L419.317 412.349C418.951 414.041 418.677 417.218 420.32 418.19C420.611 418.361 420.403 418.755 420.103 418.703C416.534 418.093 414.408 415.946 414.386 412.105C414.364 408.039 416.548 404.262 419.771 401.883ZM478.99 400.532C485.412 398.254 493.444 404.374 490.97 411.442C489.346 416.082 483.063 414.222 483.648 409.57L483.668 409.429C484.04 407.009 482.207 405.867 479.96 406.661C476.63 407.839 474.834 413.071 476.394 416.124C476.586 416.499 476.05 416.817 475.827 416.455L475.613 416.112C473.871 413.337 472.281 411.288 472.854 407.744C473.381 404.476 475.881 401.634 478.99 400.532ZM465.964 383.709C465.947 383.396 466.276 383.186 466.557 383.256C468.84 383.831 470.907 385.491 472.986 386.568C475.255 387.743 477.579 388.692 480.043 389.388C482.444 390.066 484.87 390.404 487.366 390.383C490.066 390.361 492.709 389.347 495.358 389.431C499.34 389.556 501.42 395.346 497.499 397.336C491.789 400.233 483.32 398.128 477.766 395.72C473.296 393.782 466.255 389.201 465.964 383.709ZM436.96 385.033C439.043 382.351 443.258 382.19 445.107 385.35C447.018 388.615 444.722 391.888 441.475 392.564C435.551 395.212 429.483 397.239 423.012 398.08L422.135 398.19C416.504 398.875 409.396 399.249 404.307 396.651C403.808 396.396 403.959 395.637 404.458 395.494C407.327 394.674 410.54 394.676 413.491 394.137C416.297 393.626 419.081 393.06 421.814 392.23C427.213 390.591 432.329 388.248 436.96 385.033Z" fill="black"/>
</svg>
