<svg width="284" height="284" viewBox="0 0 284 284" fill="none" xmlns="http://www.w3.org/2000/svg">
<path fill-rule="evenodd" clip-rule="evenodd" d="M127.15 177.293C132.744 168.091 144.668 190.632 145.934 194.508C147.056 197.942 147.797 201.459 148.174 205.017C152.511 205.989 157.014 205.991 161.458 205.139C168.063 203.872 172.1 200.322 177.84 197.273C181.805 195.166 186.802 197.636 188.864 201.13C191.289 205.243 189.744 209.511 186.554 212.577C180.505 218.391 168.603 219.727 160.707 218.183C156.183 217.299 152.037 215.602 148.376 213.136C148.351 213.597 148.335 214.057 148.299 214.516L148.229 215.313C147.622 221.761 145.85 229.869 140.842 234.065C132.627 240.947 122.49 227.711 130.471 220.836L130.719 220.63C135.68 216.621 136.762 205.866 136.495 199.943C136.32 196.076 135.616 192.16 134.395 188.478L134.144 187.745C133.777 186.704 129.77 176.837 128.322 178.094L128.253 178.165C127.656 178.877 126.691 178.047 127.15 177.293ZM171.814 125.367C179.365 129.957 190.871 140.661 182.748 152.04C173.186 162.073 159.418 150.569 152.634 145.366C146.343 141.334 139.275 151.705 145.112 156.413C194.135 192.708 214.03 126.568 175.633 119.971C171.406 119.244 169.836 123.947 171.814 125.367ZM91.1784 82.9406C98.5584 81.6316 106.118 83.4666 112.225 87.7846L112.688 88.1175C118.572 92.4203 125.155 99.9758 121.778 107.393C120.423 110.371 116.365 110.838 113.79 109.488C109.503 107.24 108.726 101.709 104.901 98.6476C101.764 96.1386 97.5404 94.6166 93.5004 94.9836C84.0094 95.8456 78.1714 105.207 75.2234 113.274C74.8464 114.306 73.3314 114.707 72.7394 113.599C65.7884 100.607 78.0924 85.2626 91.1784 82.9406ZM209.389 78.0376C223.526 76.8726 240.073 91.5286 236.351 106.451C234.566 113.611 223.945 113.406 222.057 106.451C221.018 102.624 221.122 99.2376 218.367 96.0596C216.093 93.4356 212.862 91.9116 209.389 92.1456C205.561 92.4036 202.03 94.3166 199.347 97.0056C196.924 99.4336 195.475 102.987 192.965 105.136C192.347 105.664 191.52 105.698 190.91 105.136C186.59 101.153 189.183 92.8606 191.922 88.7026C195.842 82.7526 202.225 78.6286 209.389 78.0376ZM64.2575 56.4754C73.3265 48.4474 89.8055 40.6944 102.034 44.6454C109.065 46.9164 112.13 58.2454 104.281 61.8364C95.1925 65.9944 84.7135 64.3024 75.4625 68.6124C71.5775 70.4234 67.9235 72.6864 65.2185 76.0054C63.0875 78.6214 60.9195 82.0634 57.8375 83.5714C57.0275 83.9684 55.9305 83.9784 55.2815 83.2424C48.5255 75.6004 58.3585 61.6964 64.2575 56.4754ZM193.801 44.2469C199.406 42.6739 205.624 42.7059 211.318 43.6939C217.01 44.6819 222.789 47.0409 227.436 50.4819L227.976 50.8848C233.049 54.7077 239.103 60.2698 238.778 67.0419C238.507 72.6969 232.558 76.5219 227.422 73.5579C223.235 71.1409 221.265 66.2989 217.72 63.0749C214.795 60.4139 211.359 58.3159 207.693 56.8459C203.621 55.2129 199.542 54.4479 195.172 54.3749C191.807 54.3189 188.422 55.4229 185.12 55.7759C185.392 56.3339 182.782 56.0739 181.286 55.5789C180.178 55.1069 180.172 53.7059 180.556 52.7969C182.461 48.2939 189.392 45.4829 193.801 44.2469Z" fill="black"/>
</svg>
