<svg width="788" height="788" viewBox="0 0 788 788" fill="none" xmlns="http://www.w3.org/2000/svg">
<path fill-rule="evenodd" clip-rule="evenodd" d="M520.428 208.023C466.959 192.33 283.075 208.416 278.528 211.815C271.087 217.998 234.892 237.617 229.26 242.096C178.335 296.07 226.883 376.222 223.147 441.334C223.385 464.43 213.543 485.518 209.019 507.737C207.109 519.381 207.53 531.425 213.599 541.879C224.269 560.559 246.802 564.346 265.128 571.878C274.247 575.804 282.767 581.371 290.577 587.462C343.161 633.979 372.431 665.833 449.158 655.339C449.55 659.002 452.795 662.601 456.818 660.964C466.238 657.128 475.591 653.059 485.093 649.423C487.124 654.317 492.958 655.714 496.91 651.392L496.933 651.423C514.522 637.155 525.708 617.646 534.016 596.761C539.83 584.712 544.591 572.14 548.229 559.194C548.64 557.729 548.586 556.42 548.214 555.293C565 497.45 571.212 436.486 566.793 376.429C565.898 364.038 563.558 351.483 564.133 339.04C564.653 327.798 569.496 317.164 573.188 306.694C592.226 262.185 563.124 222.037 520.428 208.023Z" fill="white"/>
<path fill-rule="evenodd" clip-rule="evenodd" d="M527.153 135.756L527.723 135.314C533.888 130.477 539.701 124.139 548.393 126.516C555.523 128.466 559.123 134.366 560.653 141.496C562.823 139.226 564.933 136.876 566.993 134.446C572.593 127.846 585.103 131.266 586.773 139.676C590.153 156.616 590.323 173.856 587.033 190.826C586.533 193.396 585.943 195.956 585.253 198.486C589.003 193.816 592.493 188.946 595.623 183.816C599.013 178.246 606.673 181.006 607.203 186.956C607.343 188.496 607.423 190.056 607.443 191.626C609.833 192.466 611.483 194.926 610.853 197.946C607.373 214.566 602.963 230.956 597.663 247.066C606.183 242.546 615.733 239.866 624.723 243.056C639.003 248.136 642.403 263.716 639.613 277.126C636.103 293.986 625.063 308.096 610.823 317.346C609.133 319.886 607.463 322.446 605.873 325.056C605.843 332.426 604.503 339.776 601.803 346.606C598.763 354.276 593.403 360.906 586.803 365.946C584.484 370.997 578.34 374.687 572.946 373.664L572.663 373.606L572.653 373.616C574.033 378.556 575.223 383.546 576.253 388.546C584.228 427.284 580.19 467.608 572.916 506.127L572.683 507.356C566.153 541.636 558.553 577.136 543.783 608.966C530.423 637.746 507.773 663.056 475.403 669.336C437.323 676.726 395.173 665.016 362.423 645.486C350.553 638.406 361.433 619.746 373.253 626.946C390.313 637.326 408.843 644.576 428.443 648.396C446.763 651.956 467.253 653.166 484.823 645.786C509.293 635.506 523.833 610.396 533.033 586.756C538.453 572.806 542.513 558.406 546.293 543.946C551.163 525.356 555.703 506.646 559.113 487.726C565.463 452.436 567.523 415.786 560.803 380.396C558.663 369.106 555.633 357.746 551.683 346.826C551.063 346.056 550.473 345.196 549.943 344.256C545.813 337.016 542.963 328.786 539.893 320.956C537.203 316.286 534.263 311.796 531.143 307.406C526.478 303.821 522.035 299.988 517.965 295.806C529.786 288.152 540.217 278.57 547.722 266.364C548.96 264.351 548.174 262.427 546.707 261.342C540.714 268.839 532.956 275.188 524.796 280.813C520.616 284.393 516.114 287.609 511.396 290.515C508.025 291.182 504.617 291.64 501.313 292.016C491.903 293.086 482.443 292.686 473.083 291.436C452.843 288.736 367.245 265.162 331.163 274.326C323.647 276.235 320.103 282.976 316.123 289.306C312.671 294.812 308.28 299.37 303.012 303.122L302.423 303.536C292.123 310.666 271.414 333.222 262.709 353.354C251.469 379.346 240.673 457.236 245.643 457.906C258.643 459.666 265.843 466.506 276.433 473.846C277.133 474.326 276.723 475.626 275.823 475.296C268.833 472.776 261.273 471.286 253.943 470.066C247.313 468.956 240.333 468.756 233.933 471.126C224.113 474.766 219.323 482.996 217.353 492.276C216.583 495.906 216.243 499.696 216.203 503.446L216.198 504.533C216.203 516.357 218.407 529.464 226.993 538.186C230.643 541.896 235.593 544.396 240.773 545.086C246.443 545.846 249.943 543.286 255.153 541.956C261.153 540.426 265.833 544.376 265.273 549.526C266.543 550.636 267.773 551.806 268.993 552.996L268.994 553.001L269.003 553.006C269.803 553.366 270.563 553.846 271.253 554.426C272.383 555.386 273.333 556.436 274.093 557.566C275.783 557.896 277.403 558.836 278.733 560.556C281.473 564.086 284.003 567.656 286.353 571.296C290.563 575.766 294.753 580.246 298.883 584.796C303.855 590.264 308.694 595.858 313.565 601.419L316.003 604.196C318.633 607.186 321.253 610.176 323.873 613.176L324.655 614.057C327.29 617.008 329.311 619.187 329.593 623.436C329.793 626.586 326.403 628.726 323.593 628.006C319.261 626.889 317.25 623.488 314.654 620.113L310.733 615.085L307.043 610.346C305.213 607.986 303.363 605.636 301.523 603.286C300.973 607.616 296.393 611.106 292.213 611.296L291.239 611.334C281.423 611.66 269.494 610.275 262.023 603.356C258.663 606.746 254.483 609.416 249.333 611.016C237.633 614.656 225.673 608.206 220.943 598.396C211.773 602.326 201.413 603.116 191.503 600.226C185.787 598.55 183.811 591.427 187.794 587.066L187.973 586.876L188.019 586.824C187.197 585.755 186.745 584.447 186.672 583.022C186.583 581.292 187.844 579.458 187.584 577.843C186.592 571.684 176.548 576.247 173.356 577.581C172.746 577.835 172.174 577.956 171.64 577.975C166.705 579.412 161.338 572.928 163.923 567.576C169.713 555.616 175.363 543.566 181.223 531.626C180.483 531.876 179.723 532.106 178.973 532.296C168.443 534.996 155.673 529.816 158.103 517.126C158.663 514.146 161.363 512.106 164.043 511.186C169.263 509.386 173.183 510.686 177.203 509.006C181.733 507.126 186.463 503.676 190.443 500.426C194.693 496.966 198.363 493.076 201.613 488.856C202.913 482.726 205.163 476.866 208.763 471.826C208.983 471.526 209.203 471.226 209.433 470.936C186.346 465.431 189.37 442.726 179.186 422.605L178.326 420.937C171.409 407.477 165.375 392.302 168.863 376.976C169.483 374.266 170.383 371.676 171.543 369.256C169.693 369.486 167.833 369.696 165.983 369.906C161.733 370.386 157.413 364.906 159.103 360.876C159.993 358.766 160.973 356.726 162.033 354.746C164.973 349.286 168.583 344.326 172.833 339.846C165.693 339.656 158.543 339.656 151.483 338.836C144.813 338.066 137.803 334.416 138.004 326.726C138.215 319.394 144.648 313.844 150.613 310.267C156.484 302.458 163.931 295.968 172.354 291.145C170.688 290.77 169 290.493 167.284 290.322L166.423 290.246C161.613 289.866 157.293 288.546 152.933 286.536C149.033 284.736 149.093 279.276 151.643 276.526C159.887 267.614 172.239 270.516 181.85 275.623C181.181 274.774 180.448 273.956 179.649 273.173L179.162 272.708C174.44 268.311 181.527 261.255 186.233 265.637C187.72 267.022 189.052 268.527 190.24 270.122L190.353 269.886C196.571 257.274 205.665 245.986 216.424 236.94L218.953 234.838C238.355 218.631 244.341 210.95 270.143 213.336C269.043 208.649 269.151 203.376 269.399 199.041L269.433 198.456C270.423 182.156 276.433 162.646 292.333 155.326C296.463 153.436 301.143 156.526 300.043 161.256C299.273 164.606 298.333 167.866 297.163 171.036C300.633 167.386 304.353 163.976 308.293 160.836C324.353 148.036 345.813 137.026 366.923 140.626C378.523 142.616 387.623 149.896 397.333 155.976C407.093 162.096 417.993 165.726 429.423 167.036C445.393 168.876 461.423 167.026 477.213 164.106C488.063 159.376 498.593 153.836 508.873 147.866C515.193 144.196 521.343 140.186 527.153 135.756ZM243.614 489.786C246.994 488.916 250.784 488.926 254.174 489.776C262.924 491.976 271.064 499.296 271.574 508.526C271.804 512.696 268.444 516.686 264.544 517.756C260.124 518.976 256.324 516.816 253.744 513.356C250.974 509.656 250.284 505.646 246.894 502.286L246.112 501.525C243.23 498.769 238.873 495.206 234.874 495.846C234.284 495.936 233.844 495.136 234.444 494.816C237.704 493.036 239.844 490.746 243.614 489.786ZM289.063 446.316C290.607 445.056 292.646 446.534 291.92 448.346L291.863 448.476C290.033 452.336 292.183 456.866 294.403 460.096C296.313 462.886 292.703 465.536 290.163 464.336C283.023 460.946 283.393 450.916 289.063 446.316ZM315.163 330.345C315.033 329.405 316.283 329.015 316.603 329.945C321.933 345.415 323.463 359.115 322.593 375.475L322.511 376.927C321.57 392.685 318.81 409.364 309.273 422.305C307.063 425.295 302.543 423.535 303.273 419.775C306.203 404.725 311.833 390.435 314.023 375.205C316.313 359.285 317.343 346.275 315.163 330.345ZM265.384 386.576C266.164 382.446 272.514 378.196 275.724 382.346C276.804 383.756 275.534 385.486 274.234 386.006C273.014 386.486 271.924 385.826 270.724 386.066C269.753 386.262 269.044 386.867 268.571 387.695L268.474 387.876C267.534 389.676 265.054 388.336 265.384 386.576ZM262.784 353.676C265.064 349.456 270.314 346.766 274.804 349.396C276.284 350.266 275.704 352.796 273.904 352.716L272.837 352.672C269.636 352.556 266.435 352.621 263.744 354.646C263.144 355.096 262.484 354.246 262.784 353.676ZM270.8 238.428C258.011 232.678 245.292 237.869 234.849 245.965C233.985 246.635 233.566 247.417 233.474 248.203C240.446 245.488 247.869 243.708 254.965 242.239C260.767 241.037 266.624 240.226 272.488 239.906C272.16 239.317 271.621 238.797 270.8 238.428Z" fill="black"/>
</svg>
