<svg width="900" height="900" viewBox="0 0 900 900" fill="none" xmlns="http://www.w3.org/2000/svg">
<path fill-rule="evenodd" clip-rule="evenodd" d="M499.392 262.841C468.857 253.879 363.848 263.065 361.251 265.006C357.002 268.537 336.332 279.741 333.116 282.299C304.034 313.122 331.758 358.894 329.625 396.077C329.761 409.266 324.14 421.309 321.557 433.997C320.466 440.647 320.706 447.525 324.172 453.495C330.265 464.162 343.133 466.325 353.599 470.626C358.806 472.868 363.672 476.047 368.132 479.526C398.161 506.09 414.876 524.281 458.692 518.288C458.916 520.38 460.769 522.435 463.066 521.5C468.446 519.31 473.787 516.986 479.213 514.909C480.373 517.704 483.705 518.502 485.961 516.034L485.975 516.052C496.019 507.904 502.407 496.763 507.151 484.836C510.472 477.955 513.19 470.776 515.268 463.383C515.503 462.546 515.472 461.799 515.259 461.155C524.845 428.123 528.393 393.308 525.869 359.012C525.358 351.936 524.022 344.766 524.35 337.66C524.647 331.24 527.413 325.168 529.521 319.189C540.393 293.771 523.774 270.844 499.392 262.841Z" fill="white"/>
<path fill-rule="evenodd" clip-rule="evenodd" d="M503.232 221.571L503.558 221.319C507.078 218.557 510.398 214.937 515.362 216.295C519.433 217.408 521.489 220.777 522.363 224.849C523.602 223.553 524.807 222.211 525.983 220.823C529.181 217.054 536.325 219.007 537.279 223.81C539.209 233.484 539.306 243.329 537.428 253.02C537.142 254.487 536.805 255.949 536.411 257.394C538.553 254.727 540.546 251.946 542.333 249.017C544.269 245.836 548.643 247.412 548.946 250.81C549.026 251.689 549.072 252.58 549.083 253.477C550.448 253.956 551.39 255.361 551.03 257.086C549.043 266.577 546.525 275.937 543.498 285.137C548.364 282.555 553.817 281.025 558.951 282.847C567.106 285.748 569.047 294.645 567.454 302.303C565.45 311.931 559.145 319.989 551.013 325.271C550.048 326.722 549.094 328.184 548.186 329.674C548.169 333.883 547.404 338.08 545.862 341.981C544.126 346.361 541.065 350.147 537.296 353.025C535.972 355.909 532.463 358.017 529.383 357.432L529.221 357.399L529.216 357.405C530.004 360.226 530.683 363.076 531.271 365.931C535.826 388.053 533.52 411.081 529.366 433.078L529.233 433.779C525.504 453.355 521.164 473.628 512.729 491.805C505.1 508.241 492.165 522.694 473.679 526.281C451.933 530.501 427.863 523.814 409.16 512.661C402.382 508.618 408.595 497.961 415.345 502.073C425.087 508.001 435.669 512.141 446.862 514.323C457.324 516.355 469.025 517.046 479.059 512.832C493.033 506.961 501.336 492.622 506.59 479.122C509.685 471.156 512.004 462.932 514.162 454.675C516.943 444.059 519.536 433.374 521.483 422.569C525.11 402.416 526.286 381.487 522.449 361.277C521.226 354.829 519.496 348.342 517.24 342.106C516.886 341.666 516.549 341.175 516.247 340.639C513.888 336.504 512.261 331.804 510.508 327.333C508.971 324.666 507.292 322.102 505.511 319.595C502.847 317.547 500.309 315.359 497.985 312.97C504.736 308.599 510.693 303.127 514.978 296.157C515.685 295.007 515.237 293.909 514.399 293.289C510.976 297.57 506.546 301.196 501.886 304.408C499.499 306.453 496.928 308.289 494.234 309.949C492.309 310.33 490.363 310.591 488.476 310.806C483.102 311.417 477.7 311.189 472.355 310.475C460.796 308.933 411.914 295.471 391.309 300.704C387.017 301.794 384.993 305.644 382.72 309.258C380.749 312.403 378.241 315.006 375.233 317.148L374.897 317.385C369.015 321.456 357.188 334.337 352.217 345.834C345.798 360.677 339.633 405.158 342.471 405.54C349.895 406.545 354.007 410.451 360.055 414.643C360.454 414.917 360.22 415.659 359.706 415.471C355.714 414.032 351.397 413.181 347.211 412.484C343.425 411.85 339.439 411.736 335.784 413.09C330.176 415.168 327.441 419.868 326.316 425.168C325.876 427.241 325.682 429.405 325.659 431.547L325.656 432.167C325.659 438.92 326.918 446.404 331.821 451.385C333.905 453.504 336.732 454.932 339.69 455.326C342.928 455.76 344.927 454.298 347.902 453.538C351.329 452.665 354.001 454.92 353.681 457.861C354.407 458.495 355.109 459.163 355.806 459.843L355.806 459.846L355.811 459.849C356.268 460.054 356.702 460.328 357.096 460.659C357.742 461.208 358.284 461.807 358.718 462.453C359.683 462.641 360.608 463.178 361.368 464.16C362.933 466.176 364.377 468.215 365.719 470.293C368.124 472.846 370.516 475.404 372.875 478.003C375.714 481.125 378.478 484.32 381.259 487.496L382.652 489.081C384.153 490.789 385.65 492.496 387.146 494.21L387.592 494.713C389.097 496.398 390.251 497.642 390.412 500.069C390.527 501.868 388.591 503.09 386.986 502.678C384.512 502.041 383.364 500.098 381.881 498.171L379.642 495.3L377.535 492.593C376.49 491.246 375.433 489.904 374.383 488.562C374.068 491.034 371.453 493.027 369.066 493.136L368.51 493.158C362.904 493.344 356.092 492.553 351.825 488.602C349.907 490.538 347.52 492.062 344.579 492.976C337.897 495.055 331.067 491.371 328.366 485.769C323.129 488.013 317.213 488.465 311.554 486.814C308.29 485.857 307.161 481.789 309.436 479.299L309.538 479.191L309.564 479.161C309.095 478.55 308.837 477.803 308.795 476.99C308.744 476.002 309.464 474.954 309.316 474.032C308.749 470.515 303.014 473.121 301.191 473.882C300.842 474.028 300.516 474.097 300.211 474.107C297.393 474.928 294.328 471.225 295.804 468.169C299.11 461.339 302.337 454.458 305.683 447.639C305.261 447.782 304.827 447.913 304.398 448.022C298.385 449.564 291.093 446.605 292.48 439.359C292.8 437.657 294.342 436.492 295.872 435.967C298.853 434.939 301.092 435.681 303.388 434.722C305.975 433.648 308.676 431.678 310.949 429.822C313.376 427.846 315.471 425.625 317.327 423.215C318.07 419.714 319.355 416.368 321.41 413.489C321.536 413.318 321.662 413.147 321.793 412.981C308.609 409.837 310.336 396.871 304.52 385.381L304.029 384.428C300.079 376.742 296.633 368.076 298.625 359.324C298.979 357.776 299.493 356.297 300.155 354.915C299.099 355.047 298.037 355.166 296.98 355.286C294.553 355.56 292.086 352.431 293.051 350.13C293.56 348.925 294.119 347.76 294.725 346.629C296.403 343.511 298.465 340.678 300.892 338.12C296.815 338.012 292.732 338.012 288.7 337.543C284.891 337.104 280.888 335.019 281.002 330.628C281.123 326.441 284.797 323.271 288.203 321.229C291.556 316.769 295.808 313.063 300.619 310.309C299.667 310.094 298.703 309.936 297.723 309.839L297.232 309.795C294.485 309.578 292.018 308.824 289.528 307.677C287.301 306.649 287.335 303.531 288.791 301.96C293.499 296.871 300.553 298.528 306.041 301.445C305.659 300.96 305.241 300.493 304.784 300.045L304.506 299.78C301.81 297.269 305.857 293.239 308.544 295.742C309.394 296.533 310.154 297.392 310.833 298.303L310.897 298.168C314.448 290.966 319.641 284.52 325.785 279.354L327.23 278.154C338.309 268.898 341.728 264.512 356.463 265.875C355.834 263.198 355.896 260.187 356.038 257.711L356.057 257.377C356.622 248.069 360.055 236.927 369.134 232.747C371.493 231.668 374.166 233.432 373.537 236.133C373.098 238.046 372.561 239.908 371.893 241.718C373.874 239.634 375.999 237.687 378.249 235.894C387.42 228.584 399.675 222.297 411.73 224.352C418.355 225.489 423.551 229.646 429.096 233.118C434.67 236.613 440.895 238.686 447.422 239.434C456.542 240.485 465.696 239.428 474.713 237.761C480.909 235.06 486.923 231.896 492.793 228.487C496.402 226.391 499.914 224.101 503.232 221.571ZM341.313 423.746C343.243 423.249 345.407 423.255 347.343 423.74C352.34 424.996 356.988 429.177 357.28 434.448C357.411 436.829 355.492 439.107 353.265 439.718C350.741 440.415 348.571 439.182 347.098 437.206C345.516 435.093 345.122 432.803 343.186 430.884L342.739 430.449C341.093 428.876 338.605 426.841 336.322 427.206C335.985 427.258 335.733 426.801 336.076 426.618C337.938 425.602 339.16 424.294 341.313 423.746ZM367.267 398.922C368.149 398.202 369.313 399.046 368.899 400.081L368.866 400.155C367.821 402.359 369.049 404.946 370.317 406.791C371.407 408.384 369.346 409.897 367.895 409.212C363.818 407.276 364.029 401.548 367.267 398.922ZM382.172 332.694C382.098 332.158 382.811 331.935 382.994 332.466C386.038 341.3 386.912 349.124 386.415 358.467L386.368 359.296C385.831 368.295 384.255 377.819 378.808 385.21C377.546 386.917 374.965 385.912 375.382 383.765C377.055 375.17 380.27 367.01 381.521 358.312C382.829 349.221 383.417 341.791 382.172 332.694ZM353.745 364.806C354.19 362.448 357.816 360.02 359.65 362.39C360.266 363.196 359.541 364.184 358.799 364.481C358.102 364.755 357.48 364.378 356.794 364.515C356.24 364.627 355.835 364.972 355.565 365.445L355.509 365.548C354.973 366.576 353.556 365.811 353.745 364.806ZM352.26 346.018C353.562 343.608 356.56 342.072 359.124 343.574C359.969 344.071 359.638 345.515 358.61 345.47L358.001 345.445C356.173 345.378 354.345 345.415 352.808 346.572C352.466 346.829 352.089 346.343 352.26 346.018ZM356.838 280.204C349.534 276.92 342.271 279.885 336.307 284.508C335.814 284.89 335.575 285.337 335.522 285.786C339.504 284.235 343.743 283.219 347.795 282.38C351.108 281.694 354.453 281.231 357.802 281.048C357.614 280.711 357.307 280.414 356.838 280.204Z" fill="black"/>
</svg>
