<svg width="900" height="900" viewBox="0 0 900 900" fill="none" xmlns="http://www.w3.org/2000/svg">
<path fill-rule="evenodd" clip-rule="evenodd" d="M532.381 312.579C532.189 305.75 522.256 302.915 519.387 309.678C519.208 309.859 519.015 310.033 518.833 310.189C519.732 309.419 517.853 310.694 517.548 310.851C517.286 310.986 517.019 311.108 516.752 311.233C514.907 293.933 508.641 275.283 492.45 266.6C469.868 255.649 443.774 253.512 418.999 254.599C406.449 255.344 391.957 257.351 380.807 251.002C377.332 249.024 374.547 245.909 370.621 244.687C358.227 241.334 352.606 254.061 354.294 264.527C349.007 264.569 343.763 267.495 341.482 272.314C340.142 275.166 340.166 278.243 339.01 281.105C335.466 288.364 330.394 293.581 333.261 302.381C328.218 308.12 331.094 316.807 335.163 322.302C337.173 325.159 339.566 327.903 341.038 331.101C342.467 334.164 340.31 337.796 339.11 340.699C330.235 361.742 330.742 384.917 335.518 406.866C325.935 411.024 323.059 424.022 329.308 432.206C331.458 435.099 334.081 436.172 337.055 437.952C340.82 440.024 337.745 448.323 338.951 452.33C340.589 462.115 349.497 468.14 358.306 461.786C363.896 460.94 368.404 477.204 372.463 481.286C374.964 484.575 377.741 487.529 380.759 490.254C389.753 513.397 435.842 525.132 458.629 523.792C482.491 521.294 498.588 501.029 511.992 483.044C518.875 473.461 523.352 462.735 524.98 451.037C526.616 439.28 525.9 427.502 524.795 415.73C522.472 390.72 518.808 354.688 516.442 329.407C524.992 328.703 532.64 321.424 532.381 312.579Z" fill="white"/>
<path fill-rule="evenodd" clip-rule="evenodd" d="M531.021 315.811C533.83 313.477 538.254 315.626 537.302 319.467C536.267 323.651 531.783 326.51 528.081 328.229C524.271 329.997 520.56 330.338 516.403 330.145L516.352 330.134C517.506 334.761 518.16 339.571 519.043 344.226C520.164 350.132 521.266 356.041 522.351 361.953C523.402 367.667 524.729 373.388 525.536 379.131C526.35 384.928 527.131 390.729 527.931 396.527C529.265 406.212 530.342 415.941 531.478 425.654L532.018 430.251C533.156 439.982 534.071 449.725 531.916 459.408C529.896 468.484 525.346 476.949 520.068 484.525C514.9 491.943 509.126 499.076 502.787 505.528C490.561 517.972 475.485 527.939 457.807 529.787C450.195 530.584 442.066 529.698 434.91 526.931L434.435 526.745C427.191 523.885 418.32 518.988 416.435 510.953C415.277 506.023 420.357 502.175 424.81 504.514C426.874 505.598 428.425 506.836 430.119 508.389L430.42 508.667C431.804 509.952 432.337 510.347 433.934 511.353C437.211 513.414 439.666 514.389 443.387 515.326C450.248 517.052 457.652 516.779 464.617 514.738C479.404 510.404 490.876 499.097 500.703 487.76C506.039 481.603 511.104 475.145 515.01 467.97C519.109 460.441 521.001 452.537 520.887 443.971C520.759 434.306 519.423 424.603 518.546 414.983C517.653 405.176 516.827 395.373 516.1 385.552C515.418 376.343 515.352 367.091 515.114 357.853L515.067 356.121C514.928 351.217 514.83 346.311 514.719 341.405C514.609 336.514 514.222 331.561 514.725 326.69C514.761 326.335 515.239 326.246 515.356 326.604C515.653 327.517 515.913 328.444 516.158 329.376C516.196 329.347 516.238 329.322 516.29 329.304C519.547 328.185 522.547 325.95 524.991 323.54C527.323 321.24 528.541 317.872 531.021 315.811ZM352.805 247.284C354.851 238.88 364.059 237.003 370.868 241.05C374.143 242.996 376.765 245.803 379.824 248.034C382.866 250.252 386.227 252.033 389.774 253.291C396.82 255.79 404.253 256.699 411.7 256.731C429.826 256.81 447.581 251.717 465.734 252.285C479.78 252.725 494.688 256.876 504.876 267.029C510.365 272.499 513.901 279.531 515.798 286.996C516.685 290.486 517.346 294.059 517.867 297.625L517.995 298.516C518.287 300.6 518.755 302.806 518.798 304.912C518.838 306.803 518.359 308.783 518.1 310.655C517.553 314.601 511.441 314.151 510.563 310.655C508.563 302.693 509.4 294.477 506.956 286.543C504.789 279.508 500.589 273.356 494.503 269.149C468.828 251.4 435.903 266.263 407.615 264.882C400.701 264.545 393.686 263.477 387.164 261.096C383.801 259.868 380.49 258.371 377.441 256.487C374.647 254.763 372.227 252.596 369.641 250.602L368.5 249.736C366.728 248.402 363.71 246.317 361.921 248.081C361.143 248.849 361.096 250.585 361.11 251.911L361.119 252.51C361.2 258.14 362.347 263.759 360.241 269.198C359.279 271.679 356.609 273.243 354.069 271.838L353.937 271.763C348.564 268.566 341.504 274.989 345.632 280.305L345.761 280.466C348.083 283.288 346.845 288.258 342.688 288.246L342.539 288.243C335.133 288.012 331.847 297.267 338.231 301.311L338.427 301.432C343.609 304.533 339.064 311.99 333.752 309.43C334.202 309.647 333.42 309.644 332.972 310.245C332.542 310.821 332.51 311.32 332.612 312.049C332.923 314.257 334.864 316.117 336.437 317.514C340.009 320.688 344.438 322.879 349.001 324.213C367.281 329.557 386.035 323.02 403.845 319.072C422.414 314.956 443.386 313.299 459.579 324.977C459.771 325.116 459.603 325.425 459.39 325.301C447.768 318.552 433.535 319.151 420.832 321.918C404.174 325.547 387.661 332.301 370.601 334.08C375.39 342.535 377.395 352.522 376.116 362.193C375.235 368.85 372.585 374.625 369.456 380.477L368.859 381.592C366.069 386.845 363.907 391.806 363.873 397.892C363.839 403.938 354.851 405.212 353.328 399.319C349.869 385.936 362.47 375.395 367.611 364.359C372.006 354.925 372.141 343.926 368.585 334.266C364.573 334.589 360.529 334.623 356.445 334.258C352.937 333.945 349.328 333.313 345.81 332.312L344.403 338.229C342.538 346.109 340.811 353.984 340.287 362.169C339.902 368.183 339.922 374.227 340.509 380.227C341.016 385.409 342.086 390.406 343.175 395.465C344.109 396.698 344.587 398.584 344.324 400.086C350.389 401.833 355.159 406.618 356.902 412.956C357.008 413.343 356.468 413.56 356.265 413.225C352.13 406.364 341.482 403.839 334.746 408.372C328.314 412.7 325.777 421.437 329.418 428.354C331.333 431.991 334.173 434.546 337.834 436.306L338.57 436.652C340.489 437.56 342.25 438.549 343.484 440.373C345.085 442.738 345.139 445.239 344.988 447.942L344.922 449.037C344.821 450.848 344.798 452.714 345.338 454.456L345.461 454.844C345.603 455.279 345.753 455.662 346.012 456.077C346.09 456.2 346.819 456.915 347.056 457.174L347.356 457.264L347.69 457.278C348.061 457.284 348.549 457.123 348.389 457.235L348.433 457.21C348.574 457.122 348.703 457.029 348.812 456.947L349.02 456.785C349.505 456.084 350.112 455.505 350.857 455.063L351.57 454.747C353.419 452.793 356.589 453.82 357.915 455.765C358.869 457.164 359.382 458.587 359.425 459.99C359.574 459.751 359.905 459.62 360.116 459.888L361.373 461.49C366.183 467.636 370.91 473.821 376.377 479.423C379.388 482.511 382.627 485.412 386.013 488.084C388.904 490.365 394.387 492.56 394.471 496.716C394.497 498.065 393.539 499.02 392.368 499.478C388.553 500.968 383.841 495.9 381.086 493.435L380.861 493.235C377.49 490.282 374.413 487.041 371.573 483.574C366.059 476.841 361.447 469.091 359.415 460.566C359.319 462.053 358.681 463.511 357.438 464.887C355.784 466.718 353.52 468.002 351.101 468.53C345.622 469.728 340.272 467.756 337.012 463.19C334.257 459.33 333.445 454.234 333.8 449.57L333.844 449.011C333.894 448.263 333.958 446.891 334.151 446.307L332.426 445.359C330.311 444.234 328.351 442.758 326.591 441.136C319.52 434.617 315.972 424.022 319.204 414.751C321.227 408.951 325.476 403.905 330.917 401.282C330.007 399.18 329.703 396.684 329.36 394.476L329.303 394.11C328.721 390.487 328.233 386.819 328.048 383.153C327.701 376.305 328.123 369.394 329.199 362.627C330.946 351.634 334.564 339.977 341.195 330.755C336.136 328.746 331.479 325.838 327.885 321.799C324.129 317.579 321.735 311.537 324.639 306.177C325.379 304.811 326.344 303.663 327.452 302.751C325.53 299.121 324.908 294.831 326.094 290.731C327.512 285.829 331.36 282.006 336.009 280.221C334.88 275.576 335.803 270.581 339.253 266.71C342.675 262.87 347.988 261.472 352.906 262.349C353.173 257.41 351.618 252.156 352.805 247.284ZM339.011 420.717C343.52 418.51 348.864 418.861 353.368 420.952L353.673 421.097C358.59 423.481 365.103 429.053 363.54 434.978C362.625 438.443 358.775 439.626 355.79 438.131C353.296 436.881 352.727 434.646 351.476 432.401C350.591 430.814 349.498 429.573 348.213 428.296C345.506 425.607 342.465 423.61 339.011 422.011C338.513 421.781 338.53 420.953 339.011 420.717ZM452.627 300.948C452.204 300.755 452.511 300.093 452.936 300.214C464.267 303.449 474.831 310.712 481.143 320.793C481.528 321.408 481.587 322.421 481.143 323.03L480.939 323.305C480.65 323.683 480.364 323.963 479.82 324.047C478.796 324.206 477.907 323.939 477.318 323.03C471.099 313.421 463.131 305.753 452.627 300.948ZM528.479 302.85C529.439 301.224 531.984 301.551 532.491 303.374L532.564 303.533C532.837 304.154 532.713 304.281 532.203 303.93C533.466 304.97 534.038 306.52 533.652 308.186C531.566 317.186 521.372 323.613 512.485 322.729C511.71 322.652 511.604 321.698 512.307 321.414C515.726 320.03 518.761 317.781 521.201 315.023C523.572 312.341 524.57 309.273 525.846 306.034C526.324 304.818 527.069 303.943 528.118 303.465C528.257 303.273 528.378 303.069 528.479 302.85ZM477.941 297.067L478.002 297.07C482.569 297.66 486.519 299.913 489.725 303.215C492.814 306.395 496.711 311.642 496.377 316.308C496.156 319.402 491.758 321.17 490.116 318.004C489.137 316.115 488.915 314.044 488.229 312.047C487.6 310.216 486.731 308.478 485.69 306.847C483.548 303.488 480.602 300.643 477.586 298.075C477.233 297.775 477.479 297.068 477.941 297.067ZM360.824 295.696C359.812 294.732 360.865 293.088 362.153 293.414C368.944 295.133 375.67 297.224 382.731 297.432C386.258 297.535 389.765 297.257 393.259 296.801L395.028 296.566C397.752 296.211 400.524 295.931 403.217 296.491C405.012 296.864 405.363 299.177 404.244 300.383C398.961 306.082 388.771 305.537 381.765 304.577C374.156 303.533 366.479 301.083 360.824 295.696ZM483.469 277.933C483.004 277.288 483.787 276.271 484.527 276.557C491.276 279.165 498.35 285.957 500.209 293.063C500.701 294.94 498.333 296.357 496.944 294.964C494.353 292.367 492.525 289.3 490.335 286.381C488.153 283.472 485.6 280.888 483.469 277.933ZM372.881 281.106C372.339 280.566 372.884 279.489 373.662 279.764C378.056 281.32 382.484 282.667 387.1 283.373C391.829 284.096 396.602 283.547 401.354 283.84C403.277 283.958 404.587 286.949 402.449 287.88C392.951 292.015 380.051 288.265 372.881 281.106ZM385.014 271.831C384.259 271.273 384.689 269.74 385.716 270.168C389.901 271.91 394.133 272.338 398.624 272.159C400.283 272.092 400.632 274.699 399.015 275.051C394.051 276.131 389.071 274.83 385.014 271.831Z" fill="black"/>
</svg>
