<svg width="788" height="788" viewBox="0 0 788 788" fill="none" xmlns="http://www.w3.org/2000/svg">
<path fill-rule="evenodd" clip-rule="evenodd" d="M572.405 272.845C572.069 260.887 554.676 255.922 549.651 267.765C549.339 268.082 549 268.387 548.682 268.66C550.255 267.311 546.966 269.543 546.431 269.819C545.973 270.055 545.505 270.268 545.038 270.488C541.806 240.194 530.834 207.536 502.482 192.33C462.938 173.154 417.245 169.411 373.862 171.316C351.885 172.62 326.507 176.134 306.982 165.016C300.898 161.552 296.021 156.099 289.146 153.958C267.443 148.087 257.599 170.373 260.555 188.7C251.298 188.773 242.115 193.898 238.12 202.336C235.774 207.33 235.815 212.719 233.792 217.731C227.585 230.441 218.704 239.577 223.725 254.987C214.894 265.036 219.929 280.249 227.055 289.87C230.574 294.874 234.765 299.678 237.343 305.279C239.845 310.642 236.068 317.002 233.966 322.086C218.426 358.935 219.314 399.516 227.676 437.952C210.896 445.233 205.86 467.993 216.802 482.324C220.567 487.39 225.16 489.27 230.369 492.387C236.961 496.015 231.577 510.547 233.688 517.565C236.556 534.698 252.156 545.249 267.581 534.123C277.369 532.642 285.264 561.121 292.372 568.269C296.751 574.029 301.613 579.201 306.899 583.974C322.649 624.499 403.355 645.049 443.257 642.703C485.042 638.328 513.231 602.842 536.703 571.348C548.756 554.567 556.595 535.785 559.446 515.3C562.31 494.712 561.057 474.087 559.121 453.474C555.054 409.678 548.638 346.582 544.495 302.313C559.467 301.08 572.859 288.333 572.405 272.845Z" fill="white"/>
<path fill-rule="evenodd" clip-rule="evenodd" d="M246.018 246.513C246.004 246.575 246.025 246.622 246.039 246.688C246.042 246.669 246.045 246.659 246.05 246.636C246.038 246.586 246.029 246.553 246.018 246.513Z" fill="#4F66AF"/>
<path fill-rule="evenodd" clip-rule="evenodd" d="M246.014 247.15C245.959 247.092 245.881 247.049 245.803 246.991C245.801 246.993 245.8 246.995 245.799 246.997C245.872 247.045 245.942 247.1 246.014 247.15Z" fill="#4F66AF"/>
<path fill-rule="evenodd" clip-rule="evenodd" d="M570.024 278.504C574.942 274.418 582.689 278.18 581.023 284.907C579.21 292.233 571.358 297.239 564.876 300.249C558.204 303.346 551.705 303.943 544.426 303.605L544.336 303.585C546.357 311.688 547.503 320.111 549.049 328.263C551.011 338.605 552.941 348.952 554.842 359.304C556.681 369.31 559.006 379.329 560.419 389.385C561.844 399.536 563.212 409.694 564.612 419.848C566.948 436.807 568.834 453.844 570.823 470.851L571.77 478.902C573.762 495.941 575.365 513.002 571.591 529.959C568.054 545.851 560.086 560.675 550.844 573.941C541.793 586.931 531.682 599.421 520.583 610.72C499.174 632.511 472.774 649.964 441.818 653.201C428.489 654.595 414.253 653.044 401.722 648.199L400.89 647.874C388.205 642.865 372.671 634.29 369.37 620.219C367.343 611.587 376.238 604.848 384.037 608.944C387.65 610.842 390.367 613.011 393.333 615.73L393.86 616.216C396.284 618.467 397.217 619.159 400.014 620.92C405.751 624.529 410.051 626.237 416.567 627.877C428.581 630.899 441.547 630.421 453.743 626.847C479.637 619.259 499.725 599.459 516.934 579.606C526.278 568.825 535.147 557.516 541.987 544.951C549.164 531.768 552.477 517.927 552.278 502.927C552.053 486.002 549.714 469.011 548.179 452.166C546.615 434.993 545.169 417.826 543.895 400.629C542.701 384.502 542.586 368.302 542.169 352.125L542.087 349.092C541.842 340.504 541.672 331.913 541.477 323.323C541.284 314.758 540.606 306.084 541.488 297.555C541.551 296.934 542.388 296.777 542.592 297.405C543.112 299.003 543.567 300.626 543.997 302.258C544.063 302.208 544.137 302.163 544.227 302.132C549.931 300.172 555.184 296.259 559.464 292.039C563.548 288.012 565.681 282.113 570.024 278.504ZM257.947 158.506C261.53 143.79 277.654 140.503 289.577 147.59C295.312 150.998 299.904 155.913 305.261 159.819C310.587 163.703 316.473 166.822 322.684 169.025C335.023 173.401 348.039 174.992 361.08 175.049C392.82 175.188 423.911 166.268 455.698 167.263C480.294 168.033 506.4 175.302 524.241 193.082C533.852 202.66 540.045 214.974 543.367 228.047C544.92 234.157 546.077 240.415 546.99 246.659L547.213 248.219C547.724 251.868 548.544 255.731 548.62 259.419C548.689 262.731 547.851 266.197 547.397 269.475C546.44 276.385 535.737 275.598 534.199 269.475C530.697 255.534 532.163 241.146 527.883 227.253C524.088 214.933 516.733 204.161 506.076 196.794C461.117 165.714 403.462 191.741 353.926 189.323C341.819 188.732 329.534 186.861 318.114 182.692C312.225 180.542 306.427 177.92 301.088 174.622C296.196 171.602 291.958 167.808 287.43 164.317L285.432 162.799C282.328 160.463 277.043 156.812 273.911 159.901C272.548 161.246 272.466 164.287 272.491 166.609L272.506 167.658C272.648 177.516 274.657 187.356 270.968 196.88C269.285 201.224 264.608 203.963 260.16 201.503L259.93 201.371C250.521 195.774 238.159 207.021 245.387 216.33L245.612 216.611C249.679 221.553 247.51 230.256 240.232 230.235L239.97 230.23C227.002 229.825 221.248 246.032 232.426 253.113L232.77 253.325C241.845 258.756 233.885 271.813 224.584 267.33C225.372 267.71 224.002 267.705 223.218 268.757C222.465 269.767 222.409 270.641 222.588 271.917C223.131 275.783 226.531 279.041 229.285 281.487C235.541 287.044 243.296 290.881 251.287 293.217C283.297 302.575 316.137 291.128 347.325 284.215C379.84 277.008 416.564 274.105 444.92 294.556C445.257 294.798 444.962 295.339 444.589 295.123C424.239 283.305 399.315 284.354 377.07 289.199C347.9 295.553 318.985 307.38 289.11 310.496C297.497 325.302 301.007 342.789 298.767 359.724C297.225 371.382 292.585 381.494 287.105 391.741L286.06 393.694C281.174 402.892 277.389 411.581 277.329 422.237C277.27 432.824 261.531 435.056 258.863 424.737C252.806 401.302 274.872 382.843 283.875 363.518C291.57 346.998 291.807 327.737 285.58 310.822C278.554 311.387 271.473 311.446 264.321 310.808C258.178 310.259 251.858 309.152 245.698 307.4L243.234 317.76C239.969 331.559 236.944 345.349 236.027 359.682C235.352 370.214 235.388 380.798 236.415 391.304C237.303 400.378 239.177 409.129 241.084 417.988C242.72 420.146 243.556 423.449 243.096 426.08C253.716 429.138 262.069 437.518 265.121 448.617C265.307 449.293 264.361 449.673 264.007 449.087C256.766 437.073 238.12 432.652 226.325 440.589C215.061 448.167 210.618 463.467 216.994 475.579C220.348 481.948 225.32 486.423 231.732 489.505L233.021 490.11C236.381 491.7 239.465 493.433 241.626 496.626C244.429 500.768 244.523 505.147 244.259 509.88L244.144 511.798C243.967 514.97 243.927 518.236 244.872 521.288L245.087 521.966C245.336 522.728 245.598 523.399 246.053 524.126C246.189 524.342 247.465 525.594 247.881 526.047L248.405 526.205L248.991 526.229C249.641 526.239 250.495 525.957 250.215 526.153L250.291 526.109C250.538 525.955 250.765 525.793 250.956 525.649L251.319 525.365C252.168 524.138 253.232 523.124 254.537 522.351L255.784 521.796C259.023 518.376 264.573 520.173 266.895 523.58C268.566 526.03 269.465 528.521 269.539 530.978C269.8 530.559 270.38 530.33 270.749 530.799L272.951 533.605C281.374 544.367 289.652 555.197 299.224 565.008C304.497 570.414 310.169 575.494 316.098 580.173C321.16 584.168 330.762 588.012 330.909 595.289C330.955 597.651 329.278 599.324 327.226 600.126C320.547 602.735 312.295 593.861 307.471 589.543L307.077 589.194C301.173 584.023 295.785 578.347 290.813 572.277C281.156 560.486 273.081 546.915 269.522 531.986C269.355 534.591 268.237 537.144 266.061 539.553C263.164 542.759 259.199 545.007 254.964 545.933C245.369 548.03 236.001 544.577 230.292 536.582C225.467 529.823 224.046 520.898 224.668 512.732L224.745 511.752C224.833 510.443 224.944 508.04 225.283 507.017L222.262 505.358C218.558 503.387 215.125 500.803 212.044 497.963C199.661 486.547 193.448 467.994 199.109 451.759C202.65 441.603 210.091 432.766 219.619 428.173C218.026 424.493 217.494 420.122 216.893 416.255L216.792 415.615C215.773 409.271 214.92 402.847 214.595 396.427C213.987 384.437 214.726 372.335 216.61 360.484C219.67 341.235 226.005 320.821 237.617 304.673C228.758 301.155 220.604 296.062 214.31 288.99C207.733 281.6 203.54 271.02 208.626 261.635C209.922 259.243 211.611 257.232 213.552 255.635C210.186 249.279 209.097 241.767 211.174 234.587C213.656 226.003 220.395 219.308 228.536 216.182C226.559 208.049 228.175 199.301 234.216 192.523C240.208 185.799 249.513 183.35 258.125 184.887C258.592 176.237 255.869 167.037 257.947 158.506ZM233.792 462.206C241.688 458.342 251.046 458.956 258.933 462.618L259.467 462.872C268.078 467.047 279.483 476.803 276.746 487.179C275.144 493.247 268.402 495.319 263.174 492.7C258.807 490.511 257.811 486.598 255.62 482.667C254.071 479.887 252.156 477.714 249.907 475.479C245.166 470.77 239.841 467.272 233.792 464.473C232.92 464.069 232.95 462.619 233.792 462.206ZM432.746 252.477C432.006 252.139 432.543 250.98 433.288 251.192C453.129 256.858 471.628 269.576 482.682 287.229C483.356 288.306 483.459 290.079 482.682 291.145L482.325 291.628C481.818 292.29 481.317 292.779 480.364 292.927C478.572 293.205 477.015 292.738 475.983 291.145C465.093 274.319 451.141 260.891 432.746 252.477ZM565.572 255.808C567.253 252.961 571.71 253.534 572.597 256.726L572.725 257.004C573.204 258.092 572.986 258.315 572.093 257.699C574.305 259.521 575.306 262.235 574.63 265.153C570.978 280.913 553.127 292.167 537.565 290.618C536.207 290.483 536.022 288.814 537.253 288.316C543.24 285.892 548.554 281.955 552.827 277.124C556.98 272.428 558.727 267.055 560.961 261.384C561.799 259.255 563.103 257.722 564.94 256.885C565.183 256.549 565.395 256.191 565.572 255.808ZM477.075 245.681L477.182 245.687C485.178 246.72 492.095 250.666 497.71 256.448C503.118 262.016 509.943 271.204 509.358 279.375C508.971 284.792 501.269 287.889 498.395 282.345C496.68 279.037 496.291 275.411 495.09 271.913C493.988 268.707 492.466 265.663 490.644 262.808C486.893 256.926 481.735 251.943 476.453 247.447C475.835 246.921 476.266 245.683 477.075 245.681ZM271.99 243.28C270.217 241.592 272.061 238.714 274.316 239.284C286.209 242.295 297.987 245.957 310.352 246.321C316.528 246.502 322.669 246.015 328.787 245.216L331.884 244.805C336.655 244.182 341.508 243.693 346.224 244.673C349.368 245.326 349.982 249.376 348.023 251.489C338.772 261.468 320.928 260.514 308.659 258.832C295.336 257.004 281.893 252.714 271.99 243.28ZM486.755 212.176C485.941 211.047 487.311 209.265 488.607 209.766C500.426 214.334 512.813 226.227 516.069 238.67C516.929 241.957 512.784 244.439 510.35 241.999C505.814 237.452 502.612 232.081 498.778 226.97C494.957 221.875 490.486 217.35 486.755 212.176ZM293.102 217.733C292.154 216.786 293.108 214.9 294.47 215.382C302.165 218.107 309.918 220.465 318.002 221.702C326.282 222.968 334.64 222.006 342.963 222.519C346.33 222.726 348.623 227.964 344.88 229.594C328.248 236.835 305.658 230.269 293.102 217.733ZM314.349 201.491C313.027 200.513 313.779 197.829 315.578 198.578C322.906 201.629 330.317 202.379 338.181 202.065C341.086 201.948 341.697 206.513 338.866 207.129C330.173 209.02 321.453 206.743 314.349 201.491Z" fill="black"/>
</svg>
