<svg width="788" height="788" viewBox="0 0 788 788" fill="none" xmlns="http://www.w3.org/2000/svg">
<path fill-rule="evenodd" clip-rule="evenodd" d="M550.143 396.549C550.657 371.456 548.329 345.74 536.135 323.312C525.547 302.262 509.838 284.015 493.712 267.03C486.984 259.943 477.999 252.802 478.84 242.059C479.723 230.786 486.504 206.366 487.55 194.991C489.608 172.625 473.6 166.47 454.886 155.842C432.316 143.023 405.345 144.506 380.881 150.261C335.26 161.147 281.049 179.214 263.809 227.558C259.665 239.481 260.699 252.03 259.874 264.398C259.101 275.975 254.466 287.001 250.024 297.579C226.54 349.863 226.752 407.591 231.016 463.71C218.476 466.61 206.351 476.407 203.587 489.407C198.955 512.169 222.827 522.691 236.927 534.994C254.123 549.997 266.641 569.416 282.273 585.9C383.707 697.742 607.531 646.267 561 472.062C554.687 447.307 549.202 422.265 550.143 396.549Z" fill="white"/>
<path fill-rule="evenodd" clip-rule="evenodd" d="M349.498 152.673C374.69 142.881 401.919 138.741 428.853 142.211C443.345 144.078 457.395 147.976 470.648 154.162C477.04 157.146 483.172 160.684 488.923 164.771L489.448 165.146C494 168.429 498.643 172.49 498.111 177.939C498.463 179.08 498.525 180.334 498.246 181.585C493.756 201.735 489.045 221.821 484.396 241.932C483.418 246.16 482.472 250.395 481.534 254.633C513.173 278.457 542.915 311.027 554.178 349.73C565.203 387.618 560.376 427.522 564.273 466.298C565.197 475.485 566.757 484.598 569.207 493.508C571.839 503.074 576.236 512.116 578.459 521.789C582.933 541.25 576.444 560.355 566.175 576.856C547.138 607.446 518.377 633.259 484.935 646.965C467.823 653.977 448.987 657.789 430.476 657.492C412.322 657.201 391.655 653.472 376.457 642.996C366.184 635.916 374.963 621.971 386.015 626.644L389.018 627.909C396.682 631.117 404.29 634.092 412.507 635.798C421.692 637.704 431.13 638.111 440.481 637.525C458.615 636.389 475.809 630.353 491.461 621.289C505.586 613.108 518.17 602.544 529.407 590.741L530.658 589.42C541.298 578.134 552.008 565.271 557.991 550.912C561.071 543.523 562.739 535.399 561.405 527.429C559.867 518.241 555.776 509.587 553.389 500.608C548.855 483.551 547.326 465.766 546.806 448.169L546.768 446.816C545.805 410.702 548.542 374.129 535.751 339.61C524.168 308.348 500.29 284.433 480.761 258.125C479.802 262.478 478.847 266.833 477.877 271.183C476.719 276.381 475.663 281.612 474.401 286.784L474.306 287.161C474.686 288.276 474.554 289.544 473.538 290.342C473.426 290.43 473.313 290.506 473.2 290.588C472.165 292.98 470.558 294.815 467.487 295.577C464.546 296.306 462.218 295.063 460.912 292.915L445.561 292.993C435.814 293.043 425.118 294.163 415.532 292.179C414.058 291.873 414.244 289.779 415.532 289.376C424.59 286.546 435.169 286.614 444.573 285.737L459.394 284.354C460.049 284.293 460.708 284.215 461.37 284.133L462.363 284.008L467.515 261.083C469.559 251.987 471.699 242.906 473.567 233.773C476.934 217.306 480.626 200.914 484.316 184.518C472.73 181.677 460.903 180.405 448.915 180.911L447.533 180.972C442.889 181.194 437.909 181.659 434.026 184.354C429.209 187.696 428.861 194.59 427.794 199.906C424.866 214.485 422.77 229.203 420.933 243.958C420.045 251.093 419.374 258.247 418.587 265.391C418.229 268.633 418.01 271.929 417.527 275.151C417.067 278.218 415.967 281.203 415.346 284.234C416.416 288.86 410.006 293.255 406.428 289.145C402.005 284.064 398.13 278.76 393.188 274.114C388.23 269.452 382.813 265.371 376.974 261.874C365.108 254.766 352.779 250.394 339.527 246.699C339.087 246.577 338.838 246.304 338.717 245.988C325.494 249.74 312.56 254.824 300.559 261.359C272.737 276.51 250.835 302.669 242.536 333.391C237.384 352.468 236.247 372.619 236.177 392.302C236.145 401.439 236.339 410.681 237.784 419.722C239.397 429.809 243.057 438.827 246.006 448.505C246.776 451.032 246.587 453.288 245.767 455.172L246.519 455.285C252.541 456.227 264.34 458.883 265.415 465.45C265.716 467.291 264.686 468.731 262.793 468.891C259.428 469.176 257.312 466.732 254.625 465.063C254.142 464.764 253.645 464.489 253.15 464.211C253.022 464.299 252.85 464.321 252.673 464.22C236.784 455.171 217.365 469.011 213.829 485.068C210.527 500.061 216.146 517.423 230.635 523.977C237.92 527.273 245.667 529.342 252.372 533.85C258.015 537.644 263.001 542.282 267.35 547.496C276.305 558.228 283.06 570.465 290.993 581.919C294.475 586.946 298.341 591.696 302.936 595.758C307.969 600.206 314.972 601.961 317.104 608.924C317.935 611.639 316.553 614.9 314.109 616.282C305.165 621.342 295.033 612.541 288.776 606.574C282.353 600.449 277.113 593.032 272.304 585.61C264.25 573.18 257.372 558.999 245.557 549.577C238.465 543.922 229.63 541.783 221.648 537.783C212.489 533.195 205.984 525.676 202.097 516.275C194.942 498.968 196.826 476.903 210.382 463.132C214.784 458.658 220.355 455.797 226.188 454.646C220.165 444.109 217.928 430.826 216.417 419.035C214.898 407.189 214.739 395.266 215.364 383.352L215.49 381.037C216.687 359.793 219.098 337.975 226.787 318.028C233.26 301.239 243.083 285.837 256.135 273.392C257.482 272.108 258.865 270.85 260.27 269.613C259.893 269.324 259.531 269.014 259.208 268.663C255.551 264.683 256.334 259.31 256.821 254.363C257.362 248.864 258.238 243.381 259.554 238.013C268.734 200.559 296.966 170.001 333.295 157.361C338.541 155.535 343.97 153.964 349.498 152.673ZM227.101 484.108C232.981 480.393 241.955 481.817 248.085 484.252C255.296 487.115 262.976 492.457 265.816 499.921C268.446 506.831 258.632 509.28 254.972 504.492C252.71 501.533 251.036 498.683 248.89 496.104C248.616 496.371 248.356 496.65 248.125 496.954L247.958 497.186C247.048 498.524 245.389 499.915 243.615 499.676L243.136 499.613C241.345 499.373 239.374 498.505 238.88 496.557L238.831 496.336L238.765 495.984C238.356 493.82 239.002 491.436 241.077 490.304C241.216 490.228 241.358 490.163 241.498 490.091C236.928 487.697 232.215 486.948 227.246 485.222C226.752 485.05 226.641 484.399 227.101 484.108ZM390.577 161.849C359.936 161.08 326.32 170.502 303.67 191.728C292.947 201.779 285.683 213.471 279.169 226.503C276.093 232.656 274.113 239.473 272.647 246.176C271.845 249.843 271.244 253.542 270.924 257.284C270.862 258.005 270.874 258.766 270.762 259.48C270.667 260.088 270.552 260.246 270.446 260.206C270.498 260.376 270.751 260.723 270.995 261.054C293.937 244.553 322.333 234.949 350.415 241.206C351.309 241.405 351.309 242.815 350.415 243.014C348.979 243.334 347.547 243.692 346.114 244.043C358.402 244.314 371.029 248.164 381.642 253.889C392.247 259.61 403.401 267.698 411.089 277.536C410.869 276.1 410.695 274.658 410.662 273.199C410.577 269.302 410.667 265.385 410.812 261.491C411.126 253.046 411.701 244.602 412.395 236.181L412.701 232.511C413.945 217.792 415.475 202.656 418.45 188.258C420.185 179.861 424.829 174.746 431.071 171.747C419.483 164.265 403.757 162.181 390.577 161.849ZM447.398 156.95C433.59 152.812 419.216 150.989 404.831 151.238C410.06 152.559 415.122 154.479 419.886 157.13C426.016 160.542 430.332 165.062 434.197 170.448C437.834 169.182 441.879 168.483 446.135 168.181C455.963 167.484 465.899 168.008 475.662 169.556C473.84 168.434 471.991 167.357 470.112 166.334C462.888 162.405 455.271 159.309 447.398 156.95Z" fill="black"/>
</svg>
