<svg width="900" height="900" viewBox="0 0 900 900" fill="none" xmlns="http://www.w3.org/2000/svg">
<path fill-rule="evenodd" clip-rule="evenodd" d="M513.097 378.936C513.391 364.606 512.061 349.92 505.097 337.112C499.051 325.092 490.08 314.671 480.871 304.972C477.029 300.925 471.898 296.847 472.378 290.712C472.883 284.274 476.755 270.329 477.352 263.833C478.528 251.06 469.386 247.545 458.699 241.476C445.81 234.156 430.408 235.002 416.437 238.289C390.385 244.506 359.427 254.823 349.581 282.431C347.215 289.239 347.805 296.406 347.334 303.469C346.893 310.08 344.246 316.377 341.709 322.417C328.298 352.275 328.419 385.241 330.854 417.289C323.693 418.945 316.769 424.54 315.191 431.964C312.545 444.962 326.178 450.971 334.23 457.997C344.05 466.565 351.199 477.654 360.126 487.068C418.051 550.937 545.869 521.541 519.297 422.059C515.692 407.922 512.56 393.621 513.097 378.936Z" fill="white"/>
<path fill-rule="evenodd" clip-rule="evenodd" d="M398.515 239.666C412.902 234.074 428.451 231.71 443.832 233.692C452.108 234.758 460.132 236.984 467.7 240.516C471.35 242.22 474.852 244.241 478.136 246.575L478.436 246.789C481.036 248.664 483.687 250.983 483.383 254.095C483.584 254.746 483.62 255.462 483.46 256.177C480.896 267.684 478.206 279.154 475.551 290.639C474.993 293.053 474.452 295.472 473.917 297.892C491.985 311.497 508.969 330.097 515.401 352.199C521.697 373.835 518.941 396.623 521.166 418.767C521.694 424.013 522.585 429.217 523.984 434.305C525.487 439.768 527.998 444.932 529.267 450.456C531.822 461.569 528.117 472.479 522.252 481.903C511.381 499.371 494.957 514.112 475.859 521.939C466.087 525.944 455.33 528.121 444.759 527.951C434.392 527.785 422.59 525.655 413.911 519.673C408.044 515.63 413.058 507.666 419.369 510.335L421.084 511.057C425.461 512.889 429.805 514.588 434.498 515.562C439.743 516.651 445.133 516.883 450.473 516.549C460.828 515.9 470.647 512.453 479.586 507.277C487.652 502.605 494.838 496.572 501.255 489.832L501.97 489.077C508.046 482.632 514.162 475.287 517.579 467.087C519.338 462.867 520.29 458.228 519.528 453.676C518.65 448.429 516.314 443.487 514.951 438.36C512.361 428.619 511.488 418.463 511.191 408.414L511.17 407.641C510.62 387.018 512.183 366.132 504.878 346.419C498.264 328.567 484.628 314.91 473.475 299.886C472.928 302.372 472.382 304.859 471.828 307.343C471.167 310.311 470.564 313.299 469.843 316.252L469.789 316.468C470.006 317.104 469.931 317.828 469.35 318.284C469.287 318.334 469.222 318.378 469.157 318.425C468.566 319.791 467.649 320.838 465.895 321.274C464.215 321.69 462.886 320.98 462.14 319.753L453.374 319.798C447.808 319.827 441.699 320.466 436.225 319.333C435.383 319.158 435.49 317.963 436.225 317.732C441.398 316.116 447.439 316.155 452.81 315.654L461.273 314.865C461.647 314.83 462.024 314.785 462.402 314.738L462.969 314.667L465.911 301.575C467.078 296.381 468.3 291.195 469.367 285.979C471.29 276.576 473.398 267.215 475.505 257.852C468.889 256.229 462.135 255.503 455.289 255.792L454.5 255.827C451.848 255.953 449.004 256.219 446.787 257.758C444.036 259.666 443.837 263.603 443.228 266.639C441.556 274.965 440.359 283.37 439.31 291.796C438.802 295.87 438.419 299.956 437.97 304.035C437.765 305.887 437.64 307.769 437.365 309.609C437.102 311.361 436.474 313.065 436.119 314.796C436.73 317.438 433.07 319.948 431.026 317.601C428.5 314.699 426.288 311.67 423.465 309.017C420.634 306.355 417.541 304.024 414.206 302.027C407.43 297.968 400.389 295.471 392.821 293.361C392.57 293.291 392.428 293.136 392.359 292.955C384.808 295.098 377.421 298.001 370.568 301.733C354.68 310.385 342.172 325.324 337.433 342.868C334.491 353.762 333.842 365.27 333.802 376.51C333.783 381.728 333.894 387.006 334.719 392.169C335.641 397.929 337.731 403.079 339.415 408.606C339.854 410.049 339.746 411.337 339.278 412.413L339.708 412.477C343.147 413.015 349.885 414.532 350.499 418.282C350.67 419.334 350.082 420.156 349.001 420.247C347.08 420.41 345.871 419.014 344.337 418.061C344.061 417.891 343.777 417.734 343.494 417.575C343.421 417.625 343.323 417.638 343.222 417.58C334.148 412.412 323.059 420.316 321.04 429.486C319.154 438.047 322.363 447.962 330.637 451.705C334.797 453.587 339.221 454.769 343.05 457.343C346.273 459.51 349.12 462.158 351.604 465.136C356.717 471.265 360.575 478.253 365.105 484.794C367.094 487.665 369.301 490.377 371.925 492.697C374.8 495.237 378.799 496.239 380.016 500.215C380.491 501.766 379.702 503.628 378.306 504.417C373.198 507.307 367.412 502.281 363.839 498.873C360.171 495.376 357.179 491.14 354.433 486.902C349.833 479.803 345.905 471.705 339.158 466.324C335.108 463.095 330.063 461.874 325.505 459.589C320.274 456.969 316.56 452.675 314.34 447.307C310.254 437.423 311.33 424.823 319.071 416.959C321.585 414.404 324.766 412.77 328.097 412.113C324.658 406.095 323.38 398.51 322.517 391.776C321.65 385.011 321.559 378.203 321.916 371.399L321.988 370.077C322.672 357.945 324.048 345.486 328.439 334.095C332.136 324.507 337.745 315.711 345.199 308.605C345.968 307.871 346.758 307.153 347.56 306.446C347.345 306.281 347.138 306.104 346.954 305.904C344.866 303.631 345.313 300.563 345.591 297.738C345.9 294.597 346.4 291.466 347.151 288.401C352.394 267.012 368.516 249.561 389.262 242.343C392.258 241.3 395.359 240.403 398.515 239.666ZM328.619 428.937C331.977 426.816 337.101 427.629 340.602 429.02C344.72 430.654 349.106 433.705 350.728 437.968C352.229 441.914 346.625 443.312 344.535 440.578C343.243 438.888 342.287 437.261 341.062 435.788C340.905 435.94 340.757 436.1 340.625 436.273L340.529 436.406C340.01 437.17 339.062 437.964 338.049 437.828L337.776 437.792C336.753 437.655 335.627 437.159 335.345 436.046L335.317 435.92L335.28 435.719C335.046 434.483 335.415 433.122 336.6 432.476C336.679 432.432 336.76 432.395 336.84 432.354C334.231 430.987 331.539 430.559 328.702 429.573C328.419 429.475 328.356 429.103 328.619 428.937ZM421.974 244.906C404.476 244.467 385.279 249.848 372.345 261.969C366.221 267.709 362.073 274.386 358.353 281.828C356.596 285.342 355.466 289.235 354.628 293.062C354.17 295.157 353.827 297.269 353.645 299.406C353.609 299.818 353.616 300.252 353.552 300.66C353.498 301.007 353.432 301.097 353.372 301.074C353.401 301.172 353.546 301.37 353.685 301.559C366.786 292.136 383.002 286.651 399.039 290.224C399.55 290.338 399.55 291.143 399.039 291.257C398.219 291.439 397.401 291.644 396.583 291.844C403.6 291.999 410.811 294.198 416.872 297.467C422.928 300.734 429.298 305.353 433.688 310.971C433.562 310.151 433.463 309.328 433.444 308.494C433.396 306.269 433.447 304.032 433.53 301.808C433.709 296.986 434.037 292.164 434.434 287.355L434.609 285.259C435.319 276.853 436.193 268.21 437.892 259.987C438.882 255.192 441.534 252.271 445.099 250.559C438.482 246.286 429.501 245.096 421.974 244.906ZM454.423 242.108C446.538 239.745 438.329 238.704 430.114 238.847C433.1 239.601 435.991 240.697 438.712 242.211C442.212 244.16 444.677 246.741 446.884 249.817C448.961 249.094 451.271 248.695 453.702 248.522C459.314 248.124 464.988 248.423 470.563 249.307C469.523 248.667 468.467 248.052 467.394 247.467C463.269 245.224 458.919 243.456 454.423 242.108Z" fill="black"/>
</svg>
