<svg width="900" height="900" viewBox="0 0 900 900" fill="none" xmlns="http://www.w3.org/2000/svg">
<path fill-rule="evenodd" clip-rule="evenodd" d="M422.165 455.545C422.27 455.448 422.436 455.414 422.562 455.494C424.726 456.862 424.982 461.462 425.006 464.119C425.901 464.352 426.785 464.617 427.621 464.802C429.396 465.195 431.181 465.538 432.963 465.899L434.298 466.174C438.761 467.115 443.308 467.811 447.856 468.159C452.27 468.497 456.812 468.621 461.213 468.052C463.103 467.808 464.982 467.4 466.809 466.855C468.968 466.211 470.687 465.144 472.695 464.209C477.722 461.867 481.935 468.729 477.097 471.74C472.944 474.323 467.278 475.255 462.484 475.655C457.584 476.063 452.703 475.615 447.862 474.84C442.629 474.001 437.503 472.714 432.539 470.847C430.44 470.057 428.409 469.101 426.426 468.054L425.887 467.767C425.557 467.59 425.214 467.41 424.868 467.228C424.497 470.542 423.426 473.742 422.133 476.819L422.102 476.765C421.395 479.192 418.839 480.693 416.296 479.621C413.311 478.364 413.084 475.063 414.821 472.72L414.904 472.611C416.946 469.984 418.225 466.725 419.337 463.618C419.908 462.026 420.436 460.395 420.894 458.766C421.225 457.587 421.237 456.402 422.165 455.545ZM499.081 429.159C497.311 434.506 493.453 438.623 488.078 440.433C482.751 442.228 476.826 441.574 471.381 440.604C470.19 440.391 468.982 440.157 467.777 439.884C468.763 440.495 469.635 441.355 470.468 442.264C471.701 443.608 472.819 445.025 473.158 446.708C473.495 448.377 472.965 449.647 471.998 450.606C470.51 452.081 468.111 452.875 466.079 453.314C461.528 454.298 456.969 454.145 452.441 453.136C451.284 452.879 450.5 452.259 450.06 451.45C449.526 450.468 449.482 449.247 449.789 448.134C450.095 447.022 450.758 445.997 451.719 445.429C452.511 444.962 453.501 444.834 454.624 445.208C456.879 445.958 459.118 446.455 461.5 446.513C462.508 446.536 463.523 446.506 464.53 446.414C465.099 446.362 465.667 446.289 466.232 446.199C465.899 445.756 465.576 445.304 465.261 444.849C464.887 444.31 464.524 443.764 464.177 443.209C463.174 441.603 462.339 439.952 461.605 438.209C461.369 437.65 461.151 437.089 460.942 436.527C460.911 436.446 460.881 436.364 460.851 436.283C460.787 436.229 460.722 436.174 460.659 436.119C459.223 434.877 458.02 433.347 457.168 431.452C454.863 426.319 455.239 419.948 456.637 414.618C457.758 410.346 460.232 406.395 463.501 403.711C464.071 402.772 464.448 402.202 464.91 401.722C466.788 399.768 469.41 398.45 471.968 397.648C477.681 395.856 483.903 397.142 488.746 400.553C493.218 403.702 496.718 408.426 498.61 413.679C500.402 418.654 500.751 424.111 499.081 429.159ZM421.261 396.666C428.055 396.608 434.968 398.614 440.482 402.628C445.757 406.47 449.898 412.141 449.893 418.896C449.888 425.474 446.372 431.941 442.472 437.033C438.095 442.75 432.375 445.507 425.183 445.57C421.445 445.604 417.679 445.273 413.968 444.818L411.976 444.567C409.234 444.213 406.463 443.795 403.864 442.852C391.492 438.365 391.109 422.171 395.691 411.819C399.229 403.828 408.184 396.034 417.113 396.969C418.458 396.781 419.84 396.678 421.261 396.666ZM432.736 404.281C424.228 400.462 413.89 401.606 405.636 405.681C402.367 409.248 399.977 413.743 399.01 417.87C397.978 422.276 398.129 427.021 399.681 431.291C401.577 436.504 406.244 437.795 411.279 438.596L413.234 438.903L414.054 439.027C419.002 439.765 424.41 440.339 429.165 439.415C434.463 438.385 437.828 434.104 440.477 429.716L440.601 429.51C443.351 424.911 445.654 419.319 443.347 414.05C441.385 409.572 437.101 406.24 432.736 404.281ZM482.956 405.612C480.036 403.994 476.706 403.7 473.553 404.783C472.196 405.249 471.024 406.004 469.888 406.85L469.434 407.193C468.037 408.266 466.731 408.81 465.683 410.258L465.547 410.453C465.018 411.243 464.093 411.559 463.25 411.454C462.267 414.162 461.862 417.091 461.854 419.975L461.855 420.357L461.86 420.746C461.923 424.155 462.517 428.324 465.199 430.609C467.645 432.692 471.349 433.192 474.655 433.482L477.204 433.694L477.881 433.746C481.366 433.988 485.185 433.905 488.106 431.842C490.65 430.045 491.85 426.995 492.161 423.984C492.897 416.869 489.296 409.124 482.956 405.612ZM419.397 406.269C424.083 403.877 429.711 404.477 433.68 407.475C433.328 407.544 432.981 407.632 432.635 407.805C431.734 408.257 431.175 409.161 430.962 410.122C430.722 411.21 431.286 412.239 432.359 412.582C433.293 412.88 434.401 413.017 435.268 412.449C435.723 412.152 436.04 411.761 436.249 411.268L436.278 411.195L436.315 411.142L436.329 411.117C436.332 411.108 436.316 411.126 436.29 411.166C436.316 411.105 436.341 411.043 436.365 410.981C436.402 410.906 436.437 410.831 436.465 410.754C436.516 410.71 436.562 410.662 436.608 410.613C437.329 411.723 437.895 412.976 438.255 414.37C440.562 423.317 431.102 432.603 422.65 433.532C419.456 433.883 416.544 433.122 414.127 431.623C414.149 431.594 414.173 431.567 414.193 431.536C415.164 431.711 416.323 431.276 416.676 430.193C417.575 427.431 416.653 424.199 413.643 423.297C411.706 422.716 409.724 423.358 408.339 424.682C407.292 422.119 406.918 419.234 407.413 416.345C408.112 412.268 410.571 408.595 414.398 406.899C416.262 406.073 417.868 405.899 419.397 406.269ZM468.741 411.789L468.883 411.565C470.331 409.337 473.099 406.603 475.967 407.355C476.37 407.46 476.765 407.63 477.121 407.851C478.697 407.637 480.347 407.995 481.702 408.828L481.665 408.922C481.659 408.938 481.654 408.953 481.65 408.97C481.527 409.512 481.599 410.013 481.852 410.511C482.126 411.05 482.518 411.562 483.048 411.871C483.411 412.083 483.839 412.195 484.258 412.186C484.872 412.175 485.413 411.905 485.857 411.492C486.099 411.268 486.267 410.939 486.36 410.601C486.579 410.811 486.792 411.045 486.994 411.311C490.32 415.684 489.86 422.711 485.959 426.609C485.801 426.766 485.634 426.908 485.468 427.053C483.884 429.233 481.443 430.713 478.51 431.013C475.795 431.29 473.08 430.487 470.998 428.841C471.166 428.752 471.322 428.637 471.457 428.484C471.813 428.081 472.105 427.684 472.321 427.193C472.375 427.069 472.428 426.944 472.477 426.819L472.55 426.629C472.562 426.594 472.673 426.275 472.644 426.331L472.637 426.344L472.676 426.252C473.049 425.322 472.898 424.258 472.014 423.675L471.916 423.614C471.627 423.446 471.269 423.366 470.907 423.365C470.004 422.26 468.66 422.006 467.398 422.329L467.354 421.972C467.347 421.913 467.341 421.853 467.337 421.793C466.36 418.553 466.831 414.87 468.741 411.789ZM425.342 379.164L425.667 379.114C428.121 378.759 429.79 379.168 431.385 381.265C432.146 382.264 431.911 383.774 431.385 384.795C429.686 388.096 425.012 387.413 421.865 388.069C418.791 388.708 415.725 389.579 412.849 390.846C409.915 392.139 407.16 393.668 404.474 395.415C402.045 396.995 399.841 399.371 397.066 400.29C396.941 400.332 396.79 400.22 396.798 400.087C396.996 396.931 399.632 394.033 401.674 391.785C404.036 389.186 406.909 386.878 409.9 385.043C412.987 383.15 416.324 381.591 419.779 380.504C421.599 379.932 423.46 379.477 425.342 379.164ZM462.73 383.45C465.82 378.932 473.502 379.798 478.034 381.006C483.717 382.519 489.875 385.579 493.86 390.009C497.43 393.978 492.089 399.134 488.075 395.794L487.004 394.906L486.319 394.343C483.237 391.826 480.186 389.548 476.43 387.87C472.027 385.904 467.566 384.946 462.912 383.898C462.729 383.857 462.622 383.609 462.73 383.45Z" fill="black"/>
</svg>
