<svg width="284" height="284" viewBox="0 0 284 284" fill="none" xmlns="http://www.w3.org/2000/svg">
<path fill-rule="evenodd" clip-rule="evenodd" d="M91.3465 157.477C108.489 155.397 125.105 160.645 141.863 163.29C150.711 164.686 159.57 165.728 168.523 166.116C170.324 166.194 172.127 166.24 173.929 166.277C174.096 164.691 174.984 163.234 176.908 162.361C180.852 160.574 184.008 159.768 188.338 159.94C192.301 160.097 196.278 160.504 200.181 161.218C207.268 162.518 214.386 165.466 219.57 170.589C231.567 182.442 229.741 201.481 220.471 214.391C201.319 241.069 166.364 242.307 136.426 241.959L133.663 241.923C106.404 241.533 67.4041 245.597 55.0198 214.584C50.4656 203.179 51.0982 189.96 56.6742 179.021C63.3249 165.974 77.3247 159.179 91.3465 157.477ZM176.495 201.895L176.251 201.905C163.683 202.39 151.117 202.73 138.542 202.953C138.918 206.182 139.302 209.412 139.741 212.635C140.086 215.17 140.455 217.703 140.839 220.233C141.002 221.304 141.598 222.967 141.43 224.028L141.369 224.448C142.014 224.74 142.6 225.21 143.036 225.893C143.188 226.129 143.298 226.367 143.407 226.604C153.17 226.681 163.677 226.492 173.629 224.717L173.649 224.501C173.83 223.229 174.359 222.373 175.061 221.787C175.761 217.732 175.697 213.412 175.967 209.389C176.136 206.89 176.318 204.393 176.495 201.895ZM128.938 203.124C119.879 203.278 110.816 203.397 101.759 203.286L97.6479 203.223C98.5161 207.881 99.461 212.523 100.246 217.212C101.066 222.099 96.7638 225.206 93.0409 225.081C93.459 225.149 93.8761 225.22 94.2942 225.279C105.926 226.924 118.004 226.488 129.809 226.475C129.174 222.768 129.431 218.585 129.336 215.491L129.318 215.012C129.137 211.047 129.01 207.086 128.938 203.124ZM67.4061 202.269C67.7204 204.691 68.3321 207.062 69.2471 209.269C73.1138 218.593 81.9787 222.944 91.3585 224.777C89.731 224.215 88.4388 222.865 88.1125 220.552C87.2992 214.802 87.0069 208.956 86.9849 203.117C80.448 203.056 73.8672 202.917 67.4061 202.269ZM210.585 200.278C205.931 201.376 200.522 200.873 195.956 201.08C191.678 201.275 187.399 201.444 183.121 201.617C183.322 204.538 183.519 207.457 183.733 210.376C184.008 214.148 184.034 218.135 184.756 221.891C193.366 218.953 201.08 214.241 206.868 206.706C208.31 204.829 209.601 202.626 210.585 200.278ZM89.3798 172.776C81.6324 174.61 74.3002 178.485 70.3597 185.574C68.0208 189.781 66.992 194.767 67.1896 199.68C73.7375 198.918 80.3981 198.629 87.0268 198.39C87.0488 197.196 87.0769 196.004 87.1128 194.814L87.2149 191.765C87.3956 185.948 87.4864 178.644 89.3798 172.776ZM129.479 173.485L126.069 173.102C116.596 172.023 107.128 170.89 97.6549 171.539C96.2839 171.634 94.8919 171.783 93.4969 171.988C95.1713 178.03 95.0306 185.126 95.7301 191.107C96.0005 193.42 96.3418 195.714 96.7199 197.999L98.3634 197.922C108.529 197.371 118.704 197.032 128.877 196.628C128.876 194.718 128.886 192.807 128.917 190.895L128.955 188.983C129.07 184.1 128.755 178.599 129.479 173.485ZM177.049 172.71C167.127 174.311 156.873 174.652 147.127 174.664C143.235 174.669 139.344 174.43 135.456 174.085C135.709 176.155 135.841 178.25 136.031 180.292C136.415 184.417 136.854 188.537 137.331 192.653L137.757 196.254C150.261 195.687 162.764 195.074 175.265 194.439L177.029 194.345L177.523 187.424C177.86 182.809 178.23 178.195 178.753 173.601L178.361 173.459C177.9 173.27 177.463 173.009 177.049 172.71ZM181.358 174.428C181.904 180.953 182.207 187.505 182.609 194.042L190.85 193.602C192.224 193.527 193.597 193.45 194.97 193.371C200.311 193.063 207.173 191.446 212.453 192.955C212.856 188.155 211.484 183.479 207.152 180.255C199.547 174.591 189.864 176.608 181.358 174.428ZM153.201 116.094C165.473 109.066 196.264 101.883 198.214 123.968C199.11 134.131 191.555 142.552 182.732 146.31L182.401 146.448C174.126 149.85 159.459 153.692 152.298 146.315C146.338 140.175 154.243 129.166 161.649 134.196C165.455 136.78 173.466 134.876 177.713 133.647L177.979 133.569C182.562 132.222 188.672 127.911 186.777 122.268C185.1 117.276 177.964 116.364 173.495 116.202C166.824 115.963 160.332 117.512 153.722 118.016C152.675 118.096 152.352 116.58 153.201 116.094ZM204.036 80.5815C220.692 79.8015 231.053 97.9875 227.223 112.889C226.561 115.46 223.685 117.984 220.909 117.695L220.209 117.63C219.854 117.596 219.497 117.551 219.169 117.461C216.533 116.731 214.17 113.989 214.362 111.147L214.413 110.318C214.801 103.279 214.038 95.1692 205.673 93.4645C198.578 92.0185 194.617 98.8475 194.533 105.134C194.517 106.25 193.263 107.029 192.276 106.429C187.147 103.308 186.259 97.0985 188.218 91.7515C190.701 84.9765 196.915 80.9145 204.036 80.5815ZM80.4327 84.4819C92.5537 80.4379 105.631 86.8989 111.5 97.6149C113.559 98.2109 115.615 99.7979 115.329 102.228C114.916 105.724 114.294 107.928 111.87 110.579C108.078 114.726 100.977 112.606 99.4015 107.5L99.3347 107.27C97.5447 100.671 90.2807 96.3169 83.6637 98.6269C75.9337 101.325 76.1577 109.489 70.7357 114.245C70.0987 114.804 69.3347 114.893 68.5707 114.524C62.8117 111.741 63.8467 103.365 65.8997 98.5709C68.5927 92.2799 73.8267 86.6849 80.4327 84.4819ZM63.9252 47.6746C73.7472 37.6526 99.3592 27.9546 106.078 46.4616C107.358 49.9866 104.633 54.7396 100.963 55.4706C94.9532 56.6666 89.6212 54.0576 83.6512 54.5256C78.8182 54.9066 73.7772 56.5216 69.9132 59.5156C59.2112 67.8076 56.8572 81.8326 49.4002 92.3866C49.0372 92.9006 48.3322 92.6846 48.2652 92.0786C46.5672 76.7136 53.1672 58.6506 63.9252 47.6746ZM192.02 37.8087C198.538 35.5067 205.919 35.7037 212.471 37.7457C219.071 39.8037 225.13 43.7117 229.798 48.8177C231.916 51.1357 233.876 53.6937 235.448 56.4167C236.283 57.8597 237.161 60.8407 238.11 62.6157C243.245 65.5801 245.439 72.3352 240.843 77.141L240.635 77.3517L240.02 77.9617C237.549 80.4077 233.823 81.4677 230.45 80.4907C222.902 78.3067 221.985 72.3617 219.372 66.0517C217.646 61.8837 214.689 58.1957 211.104 55.4867C202.631 49.0867 188.738 47.0477 178.537 50.0637C177.994 50.2247 177.356 49.5327 177.743 49.0307C179.676 46.5267 180.79 44.4717 183.378 42.4517C186.005 40.4017 188.872 38.9207 192.02 37.8087Z" fill="black"/>
</svg>
