<svg width="900" height="900" viewBox="0 0 900 900" fill="none" xmlns="http://www.w3.org/2000/svg">
<path fill-rule="evenodd" clip-rule="evenodd" d="M510.065 359.167C510.688 353.385 503.92 337.96 504.083 341.089C493.231 324.358 472.055 317.778 453.783 312.254C414.996 299.45 384.708 314.914 357.455 342.321C341.366 357.35 326.057 374.137 317.98 394.942C302.092 434.63 325.908 479.885 362.127 498.844C365.049 500.426 368.234 501.928 371.018 503.839C385.99 512.488 403.571 515.481 420.255 519.246C451.467 526.38 490.667 522.98 509.061 493.264C521.537 472.175 518.222 446.609 517.246 423.204C515.779 402.698 513.203 379.524 510.065 359.167Z" fill="white"/>
<path fill-rule="evenodd" clip-rule="evenodd" d="M343.23 300.643C363.452 281.739 393.339 272.577 420.666 274.179C435.466 275.047 449.73 278.756 463.106 285.127C467.289 287.12 471.365 289.452 475.124 292.198C477.66 293.381 480.139 294.662 482.54 296.054C494.567 303.021 503.863 313.574 509.814 326.092C512.655 332.066 514.896 338.367 516.166 344.858L516.37 345.926C517.018 349.184 518.298 353.476 516.678 356.524C515.605 358.545 513.355 359.819 511.225 359.648C511.687 361.521 512.241 363.394 512.595 365.279L513.56 370.418C513.72 371.275 513.878 372.131 514.034 372.988C514.965 378.093 515.822 383.192 516.507 388.338C517.94 399.051 519.237 409.788 520.379 420.541C521.198 428.231 521.965 435.929 522.71 443.625L523.154 448.243C523.919 456.192 524.519 464.21 523.999 472.194C523.216 484.169 519.532 495.096 512.383 503.984C513.065 505.623 513.294 507.467 513.807 509.504C514.517 512.323 515.441 515.083 516.425 517.819C516.886 518.894 517.347 519.97 517.803 521.048L519.003 523.904L519.94 525.777C520.954 527.814 521.935 529.88 522.558 531.989C526.598 534.146 529.897 537.665 530.058 542.486C530.201 546.843 527.94 551.458 524.119 553.678C520.35 555.873 516.469 555.009 512.859 553.333C509.712 554.249 506.343 554.365 503.226 553.387C500.825 555.56 497.73 557.06 494.298 557.465C489.125 558.079 484.213 556.631 479.468 554.726L479.136 554.593C478.988 554.535 478.839 554.472 478.697 554.41C473.237 554.147 467.801 551.988 463.928 548.162C462.667 546.923 461.576 545.507 460.697 543.919C457.504 538.145 457.008 531.059 460.148 525.331C459.475 525.36 458.795 525.388 458.121 525.406C449.136 525.662 440.134 525.203 431.172 524.612L429.059 524.469C423.259 524.052 414.706 523.068 414.543 515.88C414.52 514.961 415.468 514.27 416.336 514.515C419.631 515.446 422.869 516.908 426.284 517.433C430.75 518.124 435.375 518.199 439.887 518.45L441.184 518.522C450.283 519.02 459.707 519.324 468.657 517.519C475.338 516.177 482.3 513.732 488.422 510.706C494.298 507.794 499.638 503.985 503.943 499.011C513.429 488.069 514.685 472.633 514.223 458.791C513.663 442.258 511.721 425.749 510.625 409.239L510.129 401.822C509.72 395.638 509.347 389.444 509.192 383.256C509.077 378.739 509.151 374.21 509.174 369.693C509.185 367.437 509.157 365.17 509.209 362.914C509.237 361.647 509.386 360.407 509.494 359.168C508.992 358.906 508.523 358.539 508.101 358.055C507.77 357.672 507.513 357.267 507.336 356.855C505.206 356.232 504.218 355.404 502.836 353.526C501.671 351.944 500.351 350.482 498.941 349.112C495.937 346.199 492.505 343.818 488.878 341.744C481.381 337.456 473.169 334.59 464.888 332.237C452.21 328.639 439.042 326.789 426.176 323.899C422.629 328.844 418.872 333.642 414.943 338.284C402.681 352.767 388.622 365.678 373.557 377.191C370.491 379.538 367.384 381.851 364.232 384.095C360.08 390.426 355.884 396.727 351.625 402.985L349.796 405.664L349.767 405.716C349.516 406.098 349.275 406.481 349.036 406.864C348.528 407.675 347.957 408.457 347.351 409.216C346.957 409.793 346.558 410.369 346.152 410.947C346.929 411.363 347.637 411.832 348.191 412.352C349.322 413.419 349.133 415.116 348.191 416.201C345.153 419.707 340.344 415.138 336.85 413.922C333.063 415.075 329.905 419.581 328.335 423.024C326.074 427.987 325.166 433.972 326.188 439.345C327.124 444.256 329.648 448.5 333.846 451.161C333.994 451.252 334.154 451.35 334.308 451.435C334.314 451.447 334.314 451.447 334.32 451.44C334.462 451.532 334.611 451.618 334.759 451.698C336.73 452.783 338.894 453.423 341.138 453.576C342.423 453.668 343.765 453.599 345.05 453.754C346.369 453.908 347.454 454.513 348.722 454.833C350.121 455.192 351.023 457.072 350.143 458.333C349.71 458.956 349.299 459.55 348.858 460.081C350.304 461.783 351.56 463.662 352.697 465.449C354.249 467.899 355.626 470.498 356.883 473.147C358.042 474.672 359.15 476.225 360.223 477.813C366.305 486.824 370.959 496.864 373.82 507.354C376.653 517.73 378.423 529.385 375.802 539.979C373.386 549.721 366.334 557.791 355.895 558.31C353.716 558.418 351.573 558.174 349.559 557.621C345.133 560.355 339.648 561.73 334.74 561.89C330.769 562.021 326.422 561.185 323.179 558.783C319.332 560.458 315.158 561.408 311.529 561.624C307.468 561.866 303.218 560.76 299.908 558.568C296.758 561.266 293.359 563.544 289.497 565.106C282.855 567.789 274.952 567.458 268.87 563.444C262.777 559.424 259.676 552.206 261.538 545.044C263.251 538.443 268.636 533.6 273.695 529.431L274.695 528.612C279.7 524.527 284.754 520.573 287.966 514.818C291.376 508.713 292.62 501.621 292.957 494.711C293.688 479.498 290.593 464.421 289.651 449.288C288.68 433.658 289.223 417.982 291.353 402.466C295.493 372.326 306.389 342.779 326.102 319.284C328.954 315.885 332.007 312.645 335.224 309.573C337.683 306.357 340.341 303.343 343.23 300.643ZM605.45 472.736C605.559 472.742 605.662 472.748 605.759 472.788C605.824 472.815 605.879 472.859 605.93 472.907L606.41 473.387C606.581 473.558 606.57 473.821 606.41 473.992C606.269 474.148 606.016 474.153 605.851 474.032L605.804 473.992L605.307 473.494C605.252 473.436 605.206 473.372 605.182 473.29C605.159 473.21 605.159 473.119 605.153 473.033C605.148 472.879 605.296 472.736 605.45 472.736ZM337.518 426.08C342.098 424.692 347.591 427.993 350.321 431.477C351.692 433.224 352.08 435.617 350.321 437.336C348.825 438.798 345.901 439.065 344.456 437.336C342.817 435.366 341.481 432.635 339.14 431.374C336.598 430.003 333.195 430.346 332.595 433.686C332.492 434.252 331.681 434.063 331.647 433.555C331.424 430.175 334.388 427.022 337.518 426.08Z" fill="black"/>
</svg>
