<svg width="788" height="788" viewBox="0 0 788 788" fill="none" xmlns="http://www.w3.org/2000/svg">
<path fill-rule="evenodd" clip-rule="evenodd" d="M523.141 291.138C524.231 281.013 512.379 254.002 512.665 259.481C493.663 230.182 456.58 218.66 424.585 208.988C356.664 186.566 303.626 213.645 255.904 261.638C227.73 287.955 200.922 317.352 186.779 353.783C158.956 423.281 200.661 502.527 264.084 535.727C269.202 538.497 274.779 541.127 279.653 544.473C305.871 559.62 336.658 564.86 365.873 571.453C420.529 583.946 489.172 577.992 521.382 525.956C543.229 489.026 537.425 444.257 535.715 403.273C533.146 367.364 528.636 326.784 523.141 291.138Z" fill="white"/>
<path fill-rule="evenodd" clip-rule="evenodd" d="M230.994 188.654C266.404 155.552 318.741 139.508 366.593 142.314C392.51 143.834 417.488 150.328 440.91 161.485C448.235 164.974 455.373 169.058 461.955 173.867C466.395 175.939 470.736 178.181 474.941 180.619C496.001 192.819 512.281 211.298 522.701 233.218C527.676 243.68 531.601 254.713 533.824 266.08L534.182 267.951C535.316 273.656 537.558 281.171 534.721 286.509C532.841 290.048 528.901 292.279 525.171 291.979C525.981 295.259 526.951 298.538 527.571 301.839L529.26 310.839C529.54 312.339 529.818 313.839 530.091 315.339C531.721 324.279 533.221 333.208 534.421 342.218C536.931 360.979 539.201 379.779 541.201 398.609C542.635 412.076 543.978 425.556 545.283 439.033L546.061 447.119C547.401 461.038 548.451 475.079 547.54 489.059C546.169 510.03 539.719 529.163 527.2 544.728C528.393 547.597 528.795 550.827 529.693 554.394C530.936 559.33 532.555 564.163 534.278 568.954C535.084 570.837 535.892 572.721 536.691 574.609L538.792 579.61L540.432 582.889C542.208 586.456 543.926 590.075 545.017 593.767C552.091 597.544 557.868 603.706 558.151 612.149C558.401 619.779 554.441 627.859 547.751 631.748C541.15 635.591 534.354 634.078 528.033 631.144C522.522 632.748 516.623 632.951 511.164 631.238C506.961 635.042 501.54 637.669 495.531 638.378C486.472 639.454 477.871 636.918 469.561 633.583L468.981 633.349C468.721 633.248 468.461 633.138 468.211 633.029C458.651 632.569 449.131 628.788 442.35 622.089C440.141 619.919 438.231 617.439 436.691 614.659C431.1 604.548 430.231 592.138 435.731 582.109C434.551 582.159 433.361 582.208 432.181 582.239C416.447 582.688 400.684 581.885 384.99 580.85L381.29 580.599C371.134 579.868 356.156 578.146 355.871 565.559C355.83 563.949 357.491 562.739 359.011 563.169C364.781 564.798 370.451 567.359 376.431 568.279C384.251 569.489 392.35 569.619 400.251 570.059L402.523 570.185C418.455 571.057 434.958 571.589 450.631 568.429C462.33 566.079 474.521 561.798 485.241 556.498C495.531 551.399 504.881 544.729 512.421 536.019C529.031 516.859 531.231 489.829 530.421 465.589C529.441 436.638 526.04 407.729 524.121 378.819L523.253 365.831C522.537 355.001 521.883 344.155 521.611 333.319C521.411 325.409 521.54 317.479 521.58 309.569C521.6 305.619 521.551 301.649 521.641 297.699C521.691 295.479 521.951 293.309 522.141 291.138C521.261 290.679 520.441 290.038 519.701 289.189C519.121 288.519 518.671 287.809 518.361 287.089C514.631 285.998 512.901 284.548 510.481 281.259C508.441 278.489 506.131 275.929 503.661 273.529C498.401 268.429 492.391 264.259 486.04 260.628C472.911 253.119 458.531 248.099 444.031 243.979C421.83 237.679 398.771 234.439 376.241 229.378C370.031 238.038 363.451 246.439 356.571 254.569C335.1 279.929 310.481 302.538 284.1 322.699C278.731 326.809 273.29 330.859 267.771 334.788C260.5 345.874 253.152 356.908 245.694 367.867L242.491 372.559L242.441 372.649C242.001 373.319 241.58 373.989 241.161 374.659C240.271 376.079 239.271 377.449 238.211 378.779C237.521 379.788 236.821 380.798 236.111 381.809C237.471 382.538 238.711 383.359 239.681 384.269C241.661 386.138 241.33 389.109 239.681 391.009C234.361 397.149 225.941 389.149 219.821 387.019C213.191 389.038 207.661 396.929 204.911 402.958C200.951 411.649 199.361 422.128 201.151 431.538C202.79 440.138 207.211 447.569 214.561 452.229C214.821 452.388 215.1 452.559 215.371 452.708C215.381 452.729 215.381 452.729 215.391 452.718C215.641 452.878 215.901 453.029 216.161 453.169C219.611 455.069 223.401 456.189 227.33 456.458C229.58 456.619 231.931 456.498 234.181 456.769C236.491 457.038 238.391 458.099 240.611 458.659C243.061 459.288 244.641 462.579 243.1 464.788C242.341 465.878 241.621 466.919 240.85 467.849C243.381 470.829 245.58 474.119 247.571 477.248C250.29 481.538 252.701 486.089 254.901 490.729C256.931 493.399 258.871 496.119 260.751 498.899C271.401 514.679 279.551 532.259 284.561 550.628C289.521 568.798 292.621 589.208 288.031 607.759C283.801 624.819 271.451 638.949 253.171 639.859C249.356 640.047 245.604 639.621 242.076 638.652C234.326 643.439 224.722 645.847 216.127 646.128C209.173 646.356 201.561 644.892 195.882 640.687C189.145 643.619 181.837 645.283 175.482 645.662C168.371 646.086 160.929 644.148 155.132 640.31C149.616 645.035 143.664 649.023 136.901 651.759C125.271 656.458 111.431 655.878 100.781 648.849C90.1114 641.809 84.6814 629.169 87.9414 616.628C90.9414 605.069 100.371 596.589 109.231 589.288L110.982 587.853C119.746 580.7 128.596 573.777 134.221 563.699C140.191 553.009 142.371 540.589 142.961 528.489C144.241 501.849 138.821 475.449 137.171 448.949C135.471 421.579 136.421 394.128 140.151 366.958C147.401 314.179 166.481 262.439 201.001 221.298C205.995 215.345 211.341 209.671 216.975 204.293C221.281 198.661 225.935 193.382 230.994 188.654ZM690.171 490.009C690.361 490.019 690.541 490.029 690.711 490.099C690.825 490.147 690.921 490.224 691.01 490.308L691.851 491.149C692.151 491.449 692.131 491.909 691.851 492.209C691.605 492.482 691.162 492.49 690.872 492.279L690.791 492.209L689.92 491.337C689.824 491.234 689.743 491.122 689.701 490.979C689.661 490.839 689.661 490.679 689.651 490.529C689.641 490.259 689.901 490.009 690.171 490.009ZM220.991 408.309C229.011 405.878 238.631 411.659 243.411 417.759C245.811 420.819 246.491 425.009 243.411 428.019C240.791 430.579 235.671 431.048 233.141 428.019C230.271 424.569 227.931 419.788 223.831 417.579C219.381 415.179 213.421 415.779 212.371 421.628C212.191 422.619 210.771 422.288 210.711 421.399C210.321 415.479 215.511 409.958 220.991 408.309Z" fill="black"/>
</svg>
