<svg width="788" height="788" viewBox="0 0 788 788" fill="none" xmlns="http://www.w3.org/2000/svg">
<path fill-rule="evenodd" clip-rule="evenodd" d="M584.458 394.232C583.315 372.349 582.312 349.738 578.116 328.19C576.059 317.627 571.945 307.875 565.29 299.396C559.202 291.637 551.54 285.619 543.768 279.642C528.148 267.629 513.129 254.329 495.645 245.037C478.868 236.121 460.731 230.739 441.936 228.322C405.738 223.667 367.718 231.415 336.284 250.004C305.794 268.036 281.283 296.019 266.116 327.922C258.578 343.776 252.916 360.508 249.866 377.811C246.231 398.437 246.56 419.121 246.691 439.978C246.736 446.988 246.673 453.994 246.324 460.987C245.755 464.381 245.441 467.818 245.445 471.502C238.544 480.583 235.736 492.72 240.061 503.899C246.96 521.737 266.535 529.849 284.307 526.737C285.102 531.374 287.019 535.943 289.406 540.39C293.487 547.99 298.049 555.434 302.891 562.571C312.908 577.338 324.339 590.725 337.978 602.274C365.015 625.168 399.265 640.169 434.784 642.34C467.121 644.316 501.225 635.12 527.596 616.151C541.283 606.306 553.128 594.241 561.929 579.793C572.21 562.915 577.789 543.485 580.684 524.062C587.038 481.421 586.699 437.189 584.458 394.232Z" fill="white"/>
<path fill-rule="evenodd" clip-rule="evenodd" d="M329.467 168.091C328.245 154.319 340.938 143.957 352.716 147.814C354.877 148.083 356.979 148.765 358.857 149.912C364.278 153.223 365.463 158.563 364.047 163.179C366.592 165.1 368.597 167.704 369.605 170.845C370.644 174.081 370.536 177.22 369.558 179.955C373.253 182.396 376.046 186.079 376.695 190.642C377.003 192.809 376.879 194.958 376.365 196.933C381.959 198.832 386.524 203.086 386.455 209.523C389.704 209.731 392.957 209.777 396.268 209.593C396.74 208.26 397.319 206.96 398.178 205.763C399.912 203.352 402.376 201.695 405.104 200.662L405.478 200.525L405.472 199.793C403.383 197.478 402.405 194.558 404.63 191.378C405.012 190.833 405.477 190.383 405.996 189.997C406.18 188.617 406.478 187.251 406.844 185.908C405 183.338 405.2 179.074 408.293 177.798C407.862 175.292 407.837 172.693 408.302 170.074C410.21 159.344 420.566 152.036 431.238 152.446C432.574 152.497 433.874 152.698 435.13 153.018C437.728 153.29 440.313 153.871 442.855 154.735C445.789 155.733 446.544 158.183 445.898 160.254C449.882 165.581 451.013 172.818 447.001 179.322C446.848 179.569 446.68 179.804 446.515 180.041C447.32 180.646 448.02 181.444 448.54 182.469C449.846 185.049 449.524 188.323 447.531 190.476C447.001 191.05 446.315 191.481 445.564 191.758L445.551 191.97C445.291 195.425 444.742 198.889 443.705 202.152C447.929 206.075 450.734 211.414 451.231 217.167C452.805 217.313 454.378 217.484 455.949 217.662C456.181 216.085 457.138 214.665 458.59 213.565C459.805 212.645 461.102 211.909 462.434 211.358C463.076 208.051 464.647 204.883 467.299 202.369C468.283 201.437 469.358 200.615 470.503 199.908C470.439 196.323 471.238 192.741 473.224 189.349C474.876 186.528 477.281 184.482 480.023 183.18C482.023 179.16 485.726 175.88 491.115 174.016C495.142 172.624 499.404 174.278 502.465 176.88L503.15 177.48C505.959 179.959 506.974 184.514 505.938 188.028C505.451 189.679 504.638 191.608 503.458 193.175C504.705 198.672 502.224 203.258 498.423 205.835C499.722 207.683 500.814 209.733 501.736 211.922C503.33 215.707 501.538 220.42 498.664 223.402C499.922 225.408 500.739 227.748 501.039 230.098C502.321 230.173 503.595 230.401 504.851 230.758C505.532 228.446 506.813 226.297 508.773 224.542C509.632 222.865 510.652 221.304 511.793 219.939C513.591 217.785 515.921 216.233 518.464 215.601C518.803 214.802 519.283 214.037 519.885 213.338C519.278 206.33 523.922 199.094 531.075 199.088C531.58 197.454 532.197 195.838 532.936 194.253C534.385 191.144 537.456 189.282 540.787 188.67C542.743 183.904 546.586 180.438 553.181 179.86C567.914 178.57 577.182 196.434 573.584 209.26C572.514 213.07 570.009 216.576 566.684 218.729C565.814 219.292 564.937 219.701 564.05 220.039C563.163 221.278 561.969 222.379 560.434 223.276C560.094 223.475 559.744 223.654 559.384 223.814C559.419 229.538 555.468 234.193 550.564 235.674C550.879 239.283 549.956 242.901 547.215 245.697L547.02 245.885L546.621 246.242L546.589 246.4C547.564 248.912 547.462 251.679 546.062 253.956C546.185 256.048 546.555 258.093 547.258 260.037C549.966 262.228 552.356 264.745 554.493 267.477C555.92 266.185 558.074 265.602 559.937 266.308C560.454 266.132 560.986 266.018 561.497 265.967C562.347 265.881 563.18 265.884 563.998 265.944C564.376 265.395 564.809 264.873 565.304 264.384C568.783 260.945 573.832 261.016 577.84 263.152C578.557 262.629 579.366 262.167 580.282 261.78C590.499 257.473 597.196 270.438 598.192 278.519C598.735 282.928 594.941 285.647 591.047 285.876C590.256 288.549 587.716 290.473 584.879 291.126C585.383 294.428 583.193 297.798 580.211 299.054C578.88 299.615 577.592 299.768 576.38 299.605L576.438 300.387C576.673 303.488 575.105 305.462 572.958 306.337C572.58 307.873 571.531 308.987 570.218 309.558C575.236 321.182 579.197 333.36 582.392 345.371C587.666 365.199 591.212 385.388 593.59 405.76C597.773 441.573 597.937 478.122 593.749 513.95C591.618 532.182 588.076 550.002 580.832 566.935C574.79 581.059 566.385 593.316 556.712 605.176C537.494 628.732 509.986 646.085 479.669 650.396C463.755 652.659 447.433 651.923 431.903 647.587C416.44 643.27 399.953 635.867 390.212 622.72C387.574 619.161 388.858 613.387 391.795 610.45C395.146 607.099 399.972 606.883 404.064 608.867C411.325 612.388 417.852 617.201 425.234 620.561C431.895 623.594 439.098 625.536 446.27 626.908C460.477 629.627 475.925 628.932 490.089 625.141C515.775 618.268 538.406 601.68 552.773 579.312C569.745 552.887 575.804 521.918 578.578 491.057C581.613 457.279 581.296 423.037 577.27 389.355C575.274 372.652 572.202 356.099 568.565 339.682C565.976 327.993 563.055 316.382 560.306 304.733C557.813 302.354 555.403 299.897 553.081 297.351L553.01 297.346C552.716 297.419 552.41 297.474 552.082 297.499C538.287 298.551 523.336 297.166 511.567 289.216C506.784 285.985 502.738 281.895 499.727 277.186C495.498 274.255 491.645 270.557 488.751 266.284C486.699 264.032 484.754 261.679 482.905 259.24C478.302 253.162 475.856 246.783 473.111 239.77C473.047 239.609 473.005 239.451 472.973 239.296C472.448 238.437 472.075 237.496 471.895 236.546C465.771 235.819 459.622 235.337 453.533 235.047C451.377 234.945 449.215 234.864 447.052 234.794C447.62 236.907 447.962 239.099 448.036 241.35C449.782 241.428 451.562 241.631 453.384 241.922C461.93 243.283 467.411 247.659 472.601 254.516C477.653 261.19 481.68 269.217 484.672 277.024C486.506 281.804 484.059 287.088 480.037 290.165C469.595 291.052 459.335 293.296 449.725 297.742C449.387 297.899 449.142 298.174 448.98 298.498C441.306 300.784 433.575 302.875 425.849 304.65C418.39 306.364 410.858 307.077 403.358 305.186C400.134 304.373 396.981 303.169 393.88 301.819C392.214 302.021 390.41 301.703 388.575 300.651C385.797 299.06 383.002 297.32 380.25 295.448C375.387 293.116 370.604 290.611 366.036 287.748L366.011 287.713C362.368 283.294 357.171 278.792 351.353 275.383C350.709 274.4 350.141 273.366 349.688 272.261C347.185 266.172 348.23 258.807 353.51 254.619C353.587 253.174 354.216 251.759 355.611 250.624C356.715 249.725 357.852 248.871 359.018 248.057C358.774 247.876 358.528 247.701 358.285 247.516C357.805 247.153 357.344 246.762 356.894 246.359C353.369 248.291 349.813 250.182 346.176 251.866C346.084 251.933 345.997 252.004 345.9 252.067C339.061 256.556 332.588 261.712 325.664 266.038C324.006 267.073 322.355 268.077 320.716 269.084C320.101 269.923 319.5 270.774 318.92 271.641C318.672 272.975 318.295 274.307 317.827 275.604C318.733 276.325 319.47 277.275 319.971 278.401C322.123 279.22 324.148 280.259 326.037 281.498L327.712 282.241C329.865 280.515 332.14 278.955 334.584 277.658C342.255 278.156 350.545 283.591 356.373 289.132C356.781 289.592 357.18 290.056 357.561 290.527C357.93 290.825 358.302 291.142 358.673 291.453C359.276 292.102 359.839 292.744 360.355 293.369C360.934 294.072 361.588 294.459 362.252 294.621C365.822 297.973 369.167 301.745 371.455 305.664C375.129 311.956 372.554 319.799 369.865 325.973C369.425 326.981 368.962 327.973 368.476 328.954C363.334 335.881 358.459 343.002 353.587 350.125C350.304 353.298 347.044 356.491 343.925 359.811C343.414 360.153 342.877 360.481 342.287 360.785C333.21 365.456 324.432 360.198 315.784 356.923L314.818 356.566C305.907 353.343 294.814 351.226 294.252 339.622C294.175 338.041 294.236 336.421 294.393 334.783C296.587 328.969 299.101 323.262 301.904 317.703C301.339 317.092 300.832 316.415 300.405 315.66C299.502 314.516 298.747 313.282 298.172 311.98C294.033 319.906 290.091 328.407 284.771 335.361C281.839 339.194 278.187 340.575 274.311 340.566C272.676 341.391 270.846 341.668 269.084 341.46L269.27 343.581C269.432 345.35 269.619 347.118 269.893 348.852C273.64 348.791 277.556 349.818 281.047 351.199C291.293 355.25 301.166 360.86 311.05 365.723C315.823 368.071 322.381 370.039 326.28 373.706C329.268 376.519 328.926 380.003 327.791 383.627C327.596 384.245 327.384 384.858 327.182 385.473L327.169 385.674C323.982 389.689 321.799 394.48 320.215 399.426C317.627 403.826 315.822 408.764 314.592 413.603C313.594 417.535 312.886 421.547 312.425 425.597L312.306 426.702L312.24 426.832L312.206 427.787C311.55 434.918 311.628 442.139 312.222 449.212C312.388 451.181 312.594 453.153 312.851 455.118C311.737 458.603 306.448 459.088 303.707 456.95C300.689 454.597 297.52 452.458 294.229 450.528C289.743 452.572 284.555 452.921 279.542 451.246C279.184 451.127 278.844 450.983 278.5 450.847C274.743 451.313 271.023 452.189 267.463 453.226L266.395 453.542C260.716 455.251 255.303 457.388 251.027 461.729C243.43 469.44 240.983 481.903 242.533 492.337C244.04 502.488 249.93 514.089 260.543 517.04C264.886 518.248 269.567 518.213 273.79 516.525C275.394 515.884 276.769 514.955 278.123 513.936C279.785 512.684 281.098 511.275 283.07 510.483C284.871 509.76 287.982 509.816 288.861 509.774C291.606 509.641 293.929 511.79 294.737 514.248C297.201 521.749 293.501 527.259 287.556 530.946C290.057 534.732 292.401 538.687 294.877 542.264C299.503 548.948 304.388 555.408 309.451 561.764C314.648 568.291 320.188 574.502 326.227 580.264C328.953 582.865 331.764 585.377 334.655 587.792L336.252 589.114C338.951 591.368 341.312 593.663 341.218 597.596C341.167 599.799 339.704 601.845 337.537 602.432C329.871 604.508 321.837 594.458 316.844 589.302L316.451 588.9C310.408 582.787 304.787 576.219 299.704 569.285C294.465 562.138 290.174 554.243 286.715 546.1C285.109 542.316 283.364 537.991 282.129 533.614C275.468 536.197 267.733 537.12 262.438 536.513C257.551 535.954 253.09 534.55 249.061 532.503C248.237 534.349 247.129 536.066 245.783 537.494C240.791 542.791 233.526 544.303 226.489 544.238C217.477 544.156 209.39 538.473 209.063 528.885C208.851 522.67 212.071 517.336 216.77 513.7C218.513 509.398 221.822 505.853 226.617 504.702C223.444 494.893 222.885 484.085 225.269 474.182C227.629 464.378 233.016 455.091 240.983 448.973L241.437 448.63L241.245 448.732C239.363 449.769 237.527 450.888 235.665 451.96L234.828 452.437C226.558 457.106 216.98 461.117 207.351 458.62C192.068 454.656 190.746 435.595 203.895 428.072C208.439 425.472 213.69 424.491 218.874 423.841C219.693 422.773 220.667 421.819 221.742 421.047C221.902 417.544 223.664 414.042 226.781 411.842C229.959 409.598 233.529 409.376 236.853 410.406C238.092 409.476 239.435 408.662 240.912 408.026C242.194 407.472 243.494 407.07 244.797 406.792C244.774 405.746 244.762 404.7 244.746 403.653C244.537 402.678 244.411 401.656 244.28 400.593C244.045 400.553 243.807 400.515 243.576 400.465C240.19 399.725 237.131 398.206 234.468 396.158C230.209 398.849 225.039 399.867 218.892 398.047C213.185 396.357 207.806 391.047 205.147 384.946C201.502 384.213 197.963 383.148 194.864 381.128C189.126 382.492 182.942 380.286 180.616 374.346C178.891 369.942 180.965 364.618 184.663 361.888C185.74 361.093 186.905 361.242 187.831 361.857C188.05 361.142 188.307 360.434 188.623 359.742C188.75 359.463 188.888 359.191 189.028 358.92C188.89 353.086 191.007 347.446 196.303 344.316C200.234 341.993 204.922 341.74 209.147 343.082C211.468 340.919 214.408 339.267 218.059 338.36C224.479 336.764 231.238 338.584 235.808 343.399C236.797 343.108 237.821 342.901 238.869 342.77C239.25 340.084 240.164 337.501 242.07 335.485C243.438 334.038 245.078 332.886 246.852 332.078C247.661 329.035 248.988 326.311 251.21 324.031C250.124 323.114 249.137 322.082 248.295 320.934C247.361 320.778 246.434 320.577 245.53 320.287C240.7 318.736 237.37 315.692 235.111 311.898C230.928 312.969 226.499 312.577 222.146 309.846C218.998 307.871 216.625 304.713 215.373 301.185L211.798 299.932C208.429 298.74 206.011 296.514 204.631 293.865C202.876 294.496 200.942 294.473 199.367 293.257C190.138 286.133 196.441 274.329 206.32 271.985C210.339 271.032 213.848 271.575 216.968 273.028C219.188 270.889 221.973 269.283 225.16 268.559C228.877 267.715 232.794 268.334 236.224 269.974L237.11 269.962C240.564 267.397 244.997 266.248 250.414 267.487C256.547 268.89 260.728 272.323 263.562 276.794C264.473 275.971 265.499 275.246 266.617 274.637C269.789 272.911 273.177 272.485 276.422 273.025C277.514 271.469 278.634 269.934 279.788 268.426C277.047 266.285 275.173 262.964 275.074 259.279C274.246 258.763 273.444 258.176 272.677 257.636C268.924 254.993 265.742 251.679 264.295 247.224C263.573 245.002 263.31 242.686 263.394 240.364C262.99 240.276 262.588 240.182 262.189 240.068C246.239 235.48 239.627 213.497 252.233 201.699C258.853 195.503 268.916 199.012 275.464 203.587C279.929 206.707 283.476 210.586 286.69 214.872C286.841 214.903 286.988 214.913 287.14 214.95C291.756 216.041 295.427 219.002 298.139 222.788C302.929 221.956 308.028 222.881 312.572 226.206C315.885 228.63 317.966 231.63 319.046 234.89C323.35 232.644 327.78 230.675 332.306 228.936C332.603 228.223 332.913 227.509 333.272 226.8C333.97 225.423 334.88 224.226 335.938 223.214C334.786 221.926 333.766 220.487 332.945 218.886C329.048 211.292 330.456 203.606 334.763 197.791C332.88 193.551 332.3 188.743 333.415 184.169C333.622 183.32 333.883 182.504 334.188 181.719C331.575 177.646 329.9 172.958 329.467 168.091ZM259.529 475.281C262.294 474.608 262.945 473.726 266.054 473.98C268.461 474.177 270.922 474.589 273.257 475.193C278.826 476.635 284.023 479.549 288.599 482.98C295.09 487.847 287.32 496.892 282.15 491.702L281.994 491.54C278.52 487.816 274.621 484.907 270.255 482.313C268.042 480.999 265.758 480.05 263.445 478.945C261.846 478.182 260.922 476.933 259.418 476.138C259.063 475.95 259.146 475.375 259.529 475.281ZM274.413 401.984C272.885 401.445 271.131 402.596 270.722 404.079C270.283 405.677 271.214 407.122 272.656 407.708L272.818 407.769C274.775 408.46 276.562 409.608 278.084 411.013L278.406 411.318C281.177 414.01 285.424 409.772 282.649 407.075C280.295 404.788 277.505 403.074 274.413 401.984ZM346.19 292.771C344.611 289.317 339.572 292.217 340.94 295.638L341.009 295.799C342.431 298.91 341.848 302.52 340.298 305.45L340.145 305.731C338.259 309.105 343.44 312.134 345.326 308.759C348.124 303.751 348.588 298.017 346.19 292.771ZM389.762 249.77L389.692 249.424C388.982 245.633 383.198 247.238 383.907 251.018C385.085 257.303 389.65 261.432 395.505 263.482C399.158 264.76 400.727 258.966 397.101 257.696C393.22 256.338 390.625 253.764 389.762 249.77ZM484.311 243.699L483.292 243.655L484.068 244.679C484.143 244.35 484.222 244.023 484.311 243.699Z" fill="black"/>
</svg>
