<svg width="900" height="900" viewBox="0 0 900 900" fill="none" xmlns="http://www.w3.org/2000/svg">
<path fill-rule="evenodd" clip-rule="evenodd" d="M522.972 382.187C522.32 369.691 521.747 356.778 519.351 344.473C518.176 338.441 515.827 332.872 512.026 328.03C508.55 323.599 504.174 320.162 499.736 316.749C490.816 309.889 482.239 302.293 472.254 296.987C462.674 291.896 452.316 288.822 441.583 287.442C420.912 284.783 399.2 289.208 381.249 299.824C363.837 310.121 349.839 326.101 341.178 344.32C336.873 353.374 333.64 362.929 331.898 372.81C329.822 384.589 330.01 396.401 330.085 408.311C330.111 412.314 330.075 416.315 329.876 420.309C329.551 422.247 329.371 424.21 329.374 426.314C325.433 431.499 323.829 438.43 326.299 444.814C330.239 455.001 341.417 459.634 351.566 457.856C352.02 460.504 353.115 463.114 354.478 465.653C356.809 469.993 359.414 474.244 362.179 478.32C367.899 486.753 374.427 494.398 382.216 500.993C397.656 514.067 417.215 522.634 437.499 523.873C455.965 525.002 475.441 519.75 490.5 508.918C498.317 503.296 505.081 496.406 510.107 488.155C515.978 478.516 519.164 467.421 520.817 456.329C524.446 431.978 524.252 406.719 522.972 382.187Z" fill="white"/>
<path fill-rule="evenodd" clip-rule="evenodd" d="M377.355 253.044C376.658 245.18 383.906 239.262 390.632 241.465C391.866 241.618 393.067 242.008 394.139 242.663C397.235 244.554 397.911 247.603 397.103 250.239C398.556 251.336 399.701 252.823 400.277 254.617C400.87 256.465 400.809 258.258 400.25 259.819C402.36 261.213 403.955 263.317 404.326 265.922C404.502 267.16 404.431 268.387 404.137 269.515C407.332 270.599 409.939 273.029 409.899 276.705C411.755 276.824 413.612 276.85 415.503 276.745C415.773 275.983 416.103 275.241 416.594 274.558C417.584 273.181 418.991 272.234 420.549 271.645L420.763 271.566L420.759 271.148C419.566 269.826 419.008 268.159 420.278 266.343C420.497 266.032 420.762 265.775 421.059 265.554C421.164 264.766 421.334 263.986 421.543 263.219C420.49 261.751 420.604 259.316 422.37 258.588C422.124 257.157 422.11 255.672 422.375 254.177C423.465 248.049 429.379 243.876 435.473 244.11C436.236 244.139 436.979 244.254 437.696 244.437C439.18 244.592 440.656 244.924 442.107 245.417C443.783 245.987 444.214 247.386 443.845 248.569C446.12 251.611 446.766 255.744 444.475 259.458C444.388 259.599 444.292 259.733 444.198 259.869C444.657 260.214 445.057 260.67 445.354 261.255C446.1 262.728 445.916 264.598 444.778 265.828C444.475 266.155 444.083 266.402 443.654 266.56L443.647 266.681C443.499 268.654 443.185 270.632 442.593 272.495C445.005 274.736 446.607 277.785 446.891 281.07C447.79 281.153 448.688 281.251 449.585 281.353C449.717 280.452 450.264 279.641 451.093 279.013C451.787 278.488 452.528 278.067 453.288 277.753C453.655 275.864 454.552 274.055 456.067 272.619C456.628 272.087 457.242 271.618 457.896 271.214C457.86 269.167 458.316 267.121 459.45 265.184C460.394 263.573 461.767 262.405 463.333 261.661C464.475 259.365 466.59 257.492 469.667 256.428C471.967 255.633 474.401 256.578 476.149 258.063L476.54 258.406C478.144 259.822 478.724 262.423 478.132 264.43C477.854 265.373 477.39 266.474 476.716 267.369C477.428 270.508 476.011 273.127 473.84 274.599C474.582 275.654 475.206 276.825 475.732 278.075C476.643 280.236 475.619 282.928 473.978 284.631C474.696 285.776 475.163 287.112 475.334 288.454C476.066 288.497 476.794 288.627 477.511 288.831C477.9 287.511 478.632 286.284 479.751 285.282C480.242 284.324 480.824 283.432 481.476 282.653C482.502 281.423 483.833 280.537 485.285 280.176C485.479 279.719 485.753 279.283 486.097 278.883C485.75 274.881 488.402 270.749 492.487 270.746C492.775 269.813 493.128 268.89 493.55 267.985C494.377 266.209 496.131 265.146 498.033 264.796C499.15 262.075 501.345 260.095 505.111 259.765C513.524 259.029 518.817 269.23 516.762 276.555C516.151 278.73 514.721 280.732 512.822 281.962C512.325 282.283 511.824 282.517 511.318 282.71C510.811 283.418 510.129 284.046 509.253 284.559C509.059 284.672 508.859 284.774 508.653 284.866C508.673 288.135 506.417 290.793 503.616 291.639C503.796 293.7 503.269 295.766 501.704 297.362L501.593 297.47L501.365 297.674L501.346 297.764C501.903 299.198 501.845 300.779 501.045 302.079C501.116 303.274 501.327 304.441 501.728 305.552C503.275 306.803 504.64 308.24 505.86 309.8C506.675 309.062 507.905 308.73 508.969 309.133C509.264 309.032 509.568 308.967 509.86 308.938C510.345 308.889 510.821 308.891 511.288 308.925C511.504 308.611 511.751 308.313 512.034 308.034C514.021 306.07 516.904 306.111 519.193 307.33C519.602 307.032 520.064 306.768 520.587 306.547C526.422 304.087 530.246 311.491 530.815 316.106C531.125 318.624 528.959 320.177 526.735 320.307C526.283 321.834 524.833 322.933 523.213 323.305C523.5 325.191 522.25 327.116 520.547 327.833C519.787 328.153 519.051 328.241 518.359 328.148L518.392 328.594C518.526 330.365 517.631 331.492 516.405 331.992C516.189 332.869 515.59 333.505 514.84 333.831C517.706 340.469 519.968 347.424 521.792 354.283C524.804 365.606 526.829 377.135 528.187 388.769C530.576 409.221 530.669 430.093 528.278 450.553C527.061 460.964 525.038 471.141 520.901 480.811C517.451 488.876 512.651 495.876 507.127 502.649C496.153 516.101 480.444 526.01 463.131 528.472C454.043 529.765 444.722 529.344 435.853 526.868C427.023 524.403 417.608 520.175 412.045 512.667C410.538 510.635 411.272 507.338 412.949 505.661C414.862 503.747 417.618 503.624 419.955 504.757C424.102 506.767 427.829 509.516 432.045 511.435C435.849 513.167 439.962 514.276 444.058 515.059C452.171 516.612 460.993 516.215 469.081 514.05C483.75 510.125 496.673 500.652 504.878 487.879C514.57 472.788 518.03 455.103 519.614 437.479C521.347 418.19 521.166 398.635 518.867 379.401C517.727 369.862 515.973 360.409 513.896 351.034C512.418 344.359 510.75 337.728 509.18 331.076C507.756 329.717 506.38 328.314 505.054 326.86L505.013 326.857C504.845 326.899 504.671 326.931 504.483 326.945C496.605 327.546 488.067 326.755 481.347 322.215C478.615 320.37 476.305 318.034 474.585 315.345C472.17 313.671 469.97 311.559 468.317 309.119C467.145 307.833 466.035 306.489 464.979 305.096C462.35 301.625 460.953 297.983 459.386 293.978C459.349 293.886 459.325 293.796 459.307 293.707C459.007 293.217 458.794 292.679 458.691 292.137C455.194 291.722 451.682 291.446 448.205 291.281C446.974 291.222 445.739 291.176 444.504 291.136C444.829 292.343 445.024 293.595 445.066 294.88C446.063 294.925 447.08 295.041 448.12 295.207C453.001 295.984 456.131 298.483 459.094 302.399C461.979 306.21 464.279 310.794 465.988 315.252C467.035 317.982 465.638 320.999 463.341 322.757C457.378 323.263 451.519 324.545 446.031 327.084C445.838 327.173 445.698 327.33 445.605 327.515C441.223 328.821 436.808 330.015 432.396 331.029C428.136 332.007 423.835 332.415 419.552 331.335C417.711 330.87 415.91 330.183 414.139 329.412C413.188 329.527 412.158 329.346 411.11 328.745C409.524 327.836 407.927 326.843 406.356 325.774C403.579 324.442 400.847 323.011 398.239 321.376L398.224 321.356C396.144 318.833 393.176 316.262 389.854 314.315C389.486 313.754 389.162 313.163 388.903 312.532C387.474 309.055 388.07 304.849 391.086 302.458C391.13 301.632 391.489 300.824 392.285 300.176C392.916 299.663 393.565 299.175 394.231 298.71C394.092 298.607 393.951 298.507 393.812 298.401C393.538 298.194 393.275 297.971 393.018 297.741C391.005 298.844 388.974 299.924 386.897 300.885C386.845 300.924 386.795 300.964 386.74 301C382.834 303.564 379.138 306.508 375.184 308.979C374.237 309.57 373.294 310.143 372.358 310.718C372.007 311.197 371.664 311.683 371.332 312.178C371.191 312.94 370.975 313.701 370.708 314.441C371.226 314.853 371.646 315.396 371.933 316.039C373.161 316.506 374.318 317.1 375.397 317.807L376.353 318.232C377.583 317.246 378.882 316.355 380.278 315.614C384.658 315.899 389.392 319.002 392.72 322.167C392.953 322.429 393.181 322.694 393.399 322.963C393.61 323.134 393.822 323.315 394.034 323.492C394.378 323.863 394.7 324.229 394.994 324.586C395.325 324.988 395.699 325.209 396.078 325.301C398.117 327.216 400.027 329.37 401.333 331.608C403.431 335.201 401.961 339.68 400.425 343.205C400.174 343.781 399.91 344.348 399.632 344.908C396.696 348.864 393.912 352.93 391.13 356.998C389.255 358.81 387.393 360.633 385.612 362.529C385.32 362.724 385.013 362.912 384.676 363.085C379.493 365.753 374.48 362.75 369.541 360.88L368.99 360.676C363.901 358.835 357.566 357.627 357.245 351C357.201 350.097 357.236 349.172 357.326 348.236C358.579 344.916 360.014 341.657 361.615 338.483C361.292 338.134 361.003 337.747 360.759 337.316C360.243 336.663 359.812 335.958 359.484 335.214C357.12 339.741 354.869 344.595 351.831 348.567C350.157 350.755 348.071 351.544 345.858 351.539C344.924 352.01 343.879 352.168 342.873 352.049L342.979 353.261C343.071 354.271 343.178 355.281 343.335 356.271C345.474 356.236 347.711 356.822 349.704 357.611C355.556 359.924 361.194 363.128 366.838 365.905C369.564 367.246 373.309 368.37 375.535 370.464C377.242 372.07 377.046 374.06 376.398 376.13C376.287 376.483 376.166 376.833 376.051 377.184L376.043 377.299C374.223 379.591 372.976 382.327 372.072 385.152C370.594 387.665 369.563 390.485 368.861 393.248C368.291 395.493 367.887 397.784 367.623 400.097L367.555 400.728L367.518 400.803L367.498 401.348C367.124 405.42 367.168 409.544 367.507 413.583C367.602 414.707 367.72 415.834 367.867 416.956C367.23 418.946 364.21 419.223 362.645 418.002C360.921 416.658 359.112 415.437 357.232 414.335C354.67 415.502 351.708 415.701 348.845 414.745C348.64 414.677 348.446 414.594 348.25 414.517C346.104 414.783 343.98 415.283 341.947 415.875L341.337 416.056C338.094 417.032 335.003 418.252 332.561 420.731C328.223 425.135 326.825 432.252 327.71 438.21C328.571 444.007 331.935 450.632 337.995 452.317C340.475 453.007 343.149 452.987 345.56 452.023C346.476 451.657 347.261 451.127 348.035 450.545C348.984 449.83 349.734 449.025 350.86 448.573C351.888 448.16 353.665 448.192 354.167 448.168C355.734 448.092 357.061 449.319 357.522 450.723C358.929 455.006 356.816 458.153 353.421 460.258C354.85 462.421 356.188 464.679 357.602 466.722C360.244 470.539 363.034 474.228 365.925 477.858C368.893 481.585 372.056 485.132 375.505 488.422C377.062 489.908 378.667 491.342 380.318 492.721L381.23 493.476C382.771 494.763 384.12 496.074 384.066 498.32C384.037 499.578 383.201 500.747 381.964 501.082C377.586 502.267 372.998 496.528 370.147 493.584L369.922 493.354C366.471 489.863 363.261 486.112 360.359 482.153C357.367 478.071 354.916 473.563 352.941 468.912C352.024 466.752 351.028 464.282 350.322 461.782C346.518 463.257 342.101 463.784 339.077 463.438C336.287 463.118 333.739 462.317 331.438 461.148C330.968 462.202 330.335 463.182 329.566 463.998C326.716 467.023 322.567 467.886 318.548 467.849C313.402 467.802 308.783 464.557 308.597 459.082C308.476 455.532 310.315 452.486 312.998 450.41C313.993 447.953 315.883 445.929 318.621 445.271C316.809 439.67 316.49 433.498 317.851 427.843C319.199 422.244 322.276 416.94 326.825 413.446L327.084 413.251L326.975 413.309C325.9 413.901 324.852 414.54 323.788 415.152L323.31 415.425C318.588 418.091 313.118 420.382 307.619 418.956C298.891 416.692 298.137 405.807 305.645 401.511C308.24 400.026 311.239 399.466 314.199 399.094C314.667 398.485 315.223 397.94 315.837 397.499C315.929 395.498 316.935 393.499 318.715 392.242C320.53 390.961 322.568 390.834 324.467 391.422C325.174 390.891 325.941 390.426 326.785 390.063C327.517 389.747 328.259 389.517 329.003 389.358C328.99 388.761 328.983 388.164 328.974 387.566C328.855 387.009 328.783 386.425 328.708 385.818C328.574 385.795 328.438 385.774 328.306 385.745C326.372 385.323 324.625 384.455 323.105 383.286C320.673 384.822 317.72 385.404 314.21 384.364C310.951 383.399 307.879 380.367 306.36 376.883C304.279 376.464 302.258 375.856 300.488 374.703C297.211 375.481 293.68 374.222 292.352 370.83C291.367 368.315 292.551 365.274 294.663 363.715C295.278 363.261 295.943 363.346 296.472 363.698C296.597 363.289 296.744 362.885 296.924 362.49C296.997 362.33 297.076 362.175 297.155 362.02C297.077 358.689 298.286 355.468 301.31 353.68C303.555 352.354 306.232 352.209 308.645 352.976C309.97 351.741 311.649 350.797 313.734 350.279C317.4 349.368 321.26 350.407 323.87 353.157C324.435 352.991 325.019 352.872 325.618 352.798C325.836 351.264 326.357 349.789 327.446 348.637C328.227 347.811 329.164 347.153 330.177 346.692C330.639 344.954 331.397 343.398 332.665 342.096C332.045 341.573 331.482 340.983 331.001 340.328C330.467 340.239 329.938 340.124 329.422 339.958C326.664 339.073 324.762 337.334 323.472 335.168C321.083 335.779 318.554 335.555 316.068 333.996C314.27 332.868 312.915 331.065 312.2 329.05L310.159 328.334C308.235 327.654 306.854 326.382 306.066 324.87C305.064 325.23 303.959 325.217 303.06 324.522C297.789 320.454 301.389 313.713 307.03 312.375C309.325 311.83 311.329 312.141 313.111 312.97C314.379 311.749 315.969 310.832 317.789 310.418C319.912 309.936 322.149 310.29 324.107 311.226L324.613 311.219C326.586 309.755 329.117 309.098 332.211 309.806C335.713 310.607 338.101 312.568 339.719 315.121C340.24 314.651 340.825 314.237 341.464 313.889C343.275 312.903 345.21 312.66 347.063 312.969C347.687 312.08 348.326 311.203 348.985 310.342C347.42 309.12 346.35 307.223 346.293 305.119C345.821 304.824 345.363 304.489 344.925 304.18C342.781 302.671 340.964 300.779 340.138 298.235C339.726 296.966 339.575 295.643 339.623 294.317C339.393 294.267 339.163 294.213 338.935 294.148C329.827 291.528 326.051 278.974 333.25 272.237C337.03 268.698 342.777 270.702 346.516 273.315C349.066 275.097 351.091 277.312 352.927 279.759C353.013 279.777 353.097 279.783 353.184 279.804C355.82 280.427 357.916 282.118 359.465 284.28C362.2 283.805 365.112 284.333 367.707 286.232C369.599 287.616 370.788 289.329 371.404 291.191C373.862 289.908 376.392 288.784 378.977 287.791C379.146 287.384 379.323 286.976 379.528 286.571C379.927 285.785 380.447 285.101 381.051 284.523C380.393 283.788 379.81 282.966 379.342 282.052C377.116 277.715 377.92 273.326 380.38 270.005C379.304 267.584 378.973 264.838 379.61 262.226C379.728 261.741 379.877 261.275 380.051 260.827C378.559 258.501 377.603 255.824 377.355 253.044ZM337.416 428.47C338.995 428.086 339.367 427.582 341.142 427.727C342.517 427.84 343.922 428.075 345.256 428.42C348.436 429.243 351.404 430.907 354.017 432.867C357.724 435.646 353.287 440.811 350.334 437.848L350.245 437.755C348.261 435.628 346.035 433.967 343.541 432.486C342.278 431.735 340.973 431.194 339.652 430.562C338.739 430.127 338.212 429.414 337.353 428.96C337.15 428.852 337.197 428.524 337.416 428.47ZM345.916 386.613C345.043 386.305 344.042 386.962 343.808 387.809C343.557 388.722 344.089 389.547 344.913 389.881L345.005 389.916C346.123 390.311 347.143 390.966 348.012 391.769L348.196 391.943C349.779 393.48 352.204 391.06 350.619 389.52C349.275 388.214 347.682 387.235 345.916 386.613ZM386.905 324.245C386.004 322.272 383.126 323.928 383.907 325.882L383.947 325.974C384.759 327.751 384.426 329.812 383.541 331.485L383.453 331.646C382.376 333.573 385.335 335.302 386.412 333.375C388.01 330.515 388.275 327.241 386.905 324.245ZM411.788 299.688L411.748 299.491C411.342 297.326 408.039 298.243 408.444 300.401C409.117 303.99 411.724 306.348 415.067 307.519C417.154 308.249 418.05 304.94 415.979 304.215C413.763 303.439 412.281 301.969 411.788 299.688ZM465.782 296.222L465.2 296.196L465.643 296.781C465.686 296.593 465.731 296.407 465.782 296.222Z" fill="black"/>
</svg>
