<svg width="900" height="900" viewBox="0 0 900 900" fill="none" xmlns="http://www.w3.org/2000/svg">
<path fill-rule="evenodd" clip-rule="evenodd" d="M470.767 465.169C472.483 462.142 477.602 462.634 478.384 466.164C479.972 473.321 471.437 479.93 464.955 480.095C458.514 480.259 451.286 474.776 452.219 467.851C452.449 466.138 454.737 466.346 455.517 467.42L455.82 467.832C457.938 470.678 460.734 473.624 464.666 472.93C466.295 472.643 467.775 471.625 468.76 470.314C469.948 468.733 469.818 466.845 470.767 465.169ZM429.807 412.808C430.68 412.568 431.562 412.661 432.335 412.99C434.062 413.306 435.505 414.746 436.012 416.39C436.052 416.532 436.096 416.673 436.146 416.812L436.223 417.02L436.016 416.493C436.111 417.011 436.534 417.557 436.686 418.078C436.873 418.718 436.918 419.446 436.855 420.151C437.404 420.157 437.953 420.175 438.501 420.222L439.031 420.27C441.992 420.546 445.243 421.05 446.999 423.609C447.985 425.047 447.06 427.636 445.248 427.913C442.46 428.339 440.058 426.796 437.279 426.487C434.652 426.195 431.903 426.363 429.309 426.837C423.956 427.816 419.037 429.986 413.82 431.348L413.109 431.527L413.11 431.524C412.216 431.74 411.201 430.497 412.086 429.77C416.265 426.337 421.616 423.554 426.888 421.86C426.12 420.638 425.882 419.029 426.407 417.717C426.489 417.446 426.59 417.181 426.696 416.918L426.918 416.376C426.939 416.121 426.988 415.868 427.059 415.621L427.071 415.545L427.077 415.55C427.47 414.274 428.495 413.17 429.807 412.808ZM483.13 413.006C484.273 411.862 485.879 412.031 487.072 412.931L487.231 413.055C488.355 413.555 489.286 414.646 489.897 415.658C490.531 416.708 490.953 417.778 490.969 418.935C493.736 418.944 496.387 419.773 498.418 422.007C499.074 422.728 499.522 423.841 499.161 424.818L498.946 425.4C498.264 427.246 495.197 428.309 494.155 426.138L494.107 426.032C492.999 423.454 488.748 423.724 486.488 423.987C484.913 424.172 483.358 424.563 481.837 425.002C481.301 425.156 480.77 425.324 480.239 425.495L479.709 425.667C479.426 425.759 477.952 426.559 478.869 426.37C479.115 426.319 479.301 426.678 479.049 426.799C477.956 427.321 476.79 426.28 476.863 425.106C476.99 423.068 480.226 421.952 481.783 421.249L481.876 421.206C482.473 420.93 483.099 420.665 483.744 420.42C483.381 419.88 483.081 419.28 482.832 418.636C482.596 418.028 482.438 417.437 482.352 416.791C482.267 416.475 482.267 416.159 482.352 415.842L482.365 415.752C482.321 415.543 482.3 415.327 482.303 415.109L482.294 415.025H482.303C482.333 414.263 482.636 413.5 483.13 413.006ZM464.866 434.708C469.258 436.065 476.503 439.762 474.214 445.467C471.019 450.707 462.544 446.856 458.438 445.163C454.748 443.941 452.827 449.111 456.395 450.67C485.874 462.332 485.766 431.553 465.935 432.005C463.752 432.054 463.683 434.257 464.866 434.708ZM425.863 394.574L426.612 394.356C430.505 393.228 434.479 391.281 437.935 394.319C439.292 395.512 439.571 397.991 438.6 399.479C436.388 402.87 433.108 402.352 429.535 402.641C426.815 402.861 424.135 403.66 421.596 404.658C419.521 405.475 417.597 406.624 415.78 407.906C413.995 409.167 412.775 411.137 410.944 412.272C410.273 412.688 409.498 412.26 409.257 411.585C408.403 409.193 409.846 406.212 411.067 404.174C412.558 401.687 414.822 399.653 417.256 398.114C419.922 396.428 422.87 395.455 425.863 394.574ZM482.582 392C489.162 391.998 495.493 395.658 499.173 401.022C500.423 402.845 499.507 405.545 497.712 406.594C495.698 407.772 493.545 406.924 492.218 405.236L492.139 405.134C490.029 402.323 487.308 400.109 484.083 398.668C482.51 397.965 480.77 397.395 479.068 397.105L478.518 397.011C477.747 396.882 476.853 396.758 476.155 396.879C475.782 396.928 475.439 397.052 475.123 397.24C475.275 397.572 474.882 397.972 474.52 397.773C472.885 396.875 473.085 395.273 474.436 394.028C476.346 392.266 480.115 392.001 482.582 392Z" fill="black"/>
</svg>
