<svg width="284" height="284" viewBox="0 0 284 284" fill="none" xmlns="http://www.w3.org/2000/svg">
<path fill-rule="evenodd" clip-rule="evenodd" d="M178.534 197.337C181.965 191.283 192.203 192.267 193.768 199.328C196.943 213.642 179.874 226.86 166.91 227.19C154.027 227.517 139.572 216.552 141.437 202.702C141.898 199.276 146.474 199.692 148.034 201.84L148.639 202.664C152.876 208.356 158.467 214.248 166.331 212.86C169.59 212.286 172.55 210.25 174.52 207.629C176.896 204.466 176.635 200.689 178.534 197.337ZM96.6148 92.6163C98.3608 92.1353 100.123 92.3213 101.67 92.9793C105.124 93.6123 108.009 96.4923 109.023 99.7803C109.103 100.065 109.192 100.346 109.291 100.624L109.445 101.039L109.031 99.9853C109.222 101.023 110.067 102.114 110.371 103.156C110.745 104.437 110.836 105.892 110.71 107.302C111.808 107.313 112.906 107.35 114.002 107.445L115.061 107.54C120.984 108.091 127.486 109.1 130.998 114.218C132.97 117.094 131.119 122.272 127.496 122.826C121.919 123.679 117.115 120.593 111.557 119.975C106.303 119.39 100.805 119.725 95.6188 120.674C84.9119 122.632 75.0732 126.972 64.6393 129.695L63.2188 130.055L63.2208 130.048C61.4328 130.48 59.4028 127.994 61.1718 126.54C69.5308 119.673 80.2328 114.108 90.7758 110.719C89.2398 108.276 88.7648 105.058 89.8148 102.435C89.9774 101.892 90.1792 101.363 90.392 100.836L90.8358 99.7523C90.8788 99.2413 90.9768 98.7363 91.1188 98.2413L91.1418 98.0903L91.1548 98.0993C91.9398 95.5483 93.9898 93.3403 96.6148 92.6163ZM203.26 93.0111C205.546 90.7239 208.758 91.0619 211.144 92.862L211.461 93.1101C213.71 94.1091 215.571 96.2921 216.793 98.3151C218.062 100.416 218.905 102.556 218.938 104.869C224.472 104.887 229.773 106.547 233.836 111.015C235.148 112.457 236.044 114.681 235.322 116.636L234.892 117.799C233.527 121.491 227.394 123.617 225.309 119.275L225.213 119.063C222.998 113.907 214.495 114.448 209.976 114.975C206.826 115.344 203.715 116.127 200.673 117.004C199.601 117.313 198.539 117.649 197.478 117.991L196.417 118.335C195.851 118.518 192.903 120.119 194.737 119.74C195.23 119.638 195.601 120.356 195.098 120.597C192.912 121.642 190.58 119.561 190.726 117.213C190.979 113.137 197.451 110.903 200.565 109.497L200.752 109.412C201.946 108.86 203.197 108.331 204.488 107.84C203.762 106.76 203.162 105.56 202.663 104.272C202.191 103.056 201.876 101.874 201.703 100.581C201.533 99.9491 201.533 99.3171 201.703 98.6841L201.729 98.5031C201.641 98.0851 201.599 97.6531 201.605 97.2181L201.587 97.0491H201.605C201.666 95.5261 202.271 94.0001 203.26 93.0111ZM166.732 136.416C175.515 139.13 190.005 146.523 185.428 157.934C179.037 168.414 162.088 160.712 153.875 157.326C146.496 154.882 142.654 165.223 149.789 168.34C208.748 191.665 208.531 130.106 168.87 131.01C164.503 131.109 164.366 135.514 166.732 136.416ZM88.7267 56.1487L90.2249 55.7115C98.0099 53.4565 105.957 49.5625 112.869 55.6385C115.583 58.0245 116.142 62.9825 114.2 65.9585C109.776 72.7395 103.215 71.7035 96.0699 72.2815C90.6299 72.7215 85.2709 74.3195 80.1929 76.3165C76.0429 77.9495 72.1939 80.2485 68.5599 82.8125C64.9899 85.3335 62.5509 89.2745 58.8889 91.5435C57.5469 92.3755 55.9969 91.5195 55.5149 90.1705C53.8069 85.3855 56.6929 79.4245 59.1349 75.3475C62.1159 70.3735 66.6439 66.3055 71.5129 63.2275C76.8446 59.8564 82.7404 57.91 88.7267 56.1487ZM202.164 51C215.323 50.996 227.985 58.315 235.345 69.044C237.846 72.689 236.013 78.089 232.423 80.188C228.396 82.5439 224.09 80.8475 221.436 77.4716L221.278 77.267C217.057 71.646 211.616 67.219 205.166 64.337C202.019 62.93 198.539 61.789 195.135 61.21L194.035 61.0215C192.493 60.7631 190.705 60.5164 189.31 60.758C188.563 60.856 187.877 61.103 187.245 61.479C187.549 62.143 186.764 62.943 186.039 62.545C182.769 60.749 183.17 57.545 185.871 55.055C189.692 51.532 197.229 51.001 202.164 51Z" fill="black"/>
</svg>
