<svg width="788" height="788" viewBox="0 0 788 788" fill="none" xmlns="http://www.w3.org/2000/svg">
<path fill-rule="evenodd" clip-rule="evenodd" d="M428.801 173.707C473.573 173.707 527.29 195.411 531.858 195.845L531.981 195.852C534.384 195.852 543.773 203.005 560.149 217.311L542.412 251.905L543.847 253.276C550.716 259.861 556.58 265.864 561.208 270.595C599 309.23 605.792 460.919 596.886 513.818C587.98 566.718 571.484 618.48 494.685 618.48C417.887 618.48 332.447 572.303 319.285 557.923C310.511 548.336 300.655 543.743 289.718 544.144C289.268 543.577 288.822 543.011 288.38 542.448L286.771 542.22C271.633 540.027 260.787 537.076 254.233 533.368C241.429 526.125 227.357 488.045 227.357 479.657C227.357 471.353 206.344 410.94 205.924 404.547L205.918 404.37C205.918 399.026 178.467 374.458 178.467 366.656C178.467 358.854 172.934 359.327 178.467 331.834L180.074 323.757C185.963 294.484 197.487 246.013 241.429 224.951C289.718 201.805 383.577 173.707 428.801 173.707Z" fill="white"/>
<path fill-rule="evenodd" clip-rule="evenodd" d="M233.976 223.863C258.059 198.302 394.78 158.764 463.952 167.145L466.027 167.413C471.547 168.113 476.987 169.173 482.356 170.613C499.71 174.666 517.636 180.803 531.975 191.054C543.946 199.44 581.709 213.135 570.579 235.073C574.706 242.892 576.246 252.552 573.457 260.253C573.106 262.913 572.286 265.363 571.237 267.903C580.054 280.914 587.035 295.628 592.686 309.623C602.561 344.844 608.706 381.498 609.606 417.433C612.6 485.705 605.114 567.256 545.652 611.404C509.731 639.379 453.463 640.319 413.096 605.633C410.805 602.922 400.032 595.606 403.627 594.323C404.697 595.453 405.797 596.553 406.917 597.633C406.866 597.513 406.856 597.393 406.877 597.263L405.823 596.309C403.84 594.474 401.27 591.813 404.197 592.333C404.326 592.483 404.467 592.613 404.606 592.763C405.226 593.135 405.694 593.458 406.059 593.742L406.246 593.892L406.188 593.832C404.502 592.034 403.491 590.2 406.012 591.371L406.346 591.533C407.467 592.713 408.606 593.843 409.766 594.943C409.747 594.813 409.766 594.683 409.837 594.543L408.755 593.499C407.7 592.464 407.861 592.46 408.377 591.623C406.133 588.478 410.322 590.346 410.616 591.573C413.237 590.953 415.538 595.873 417.226 596.473C491.225 653.363 598.612 602.884 596.873 444.359L596.846 441.258C596.338 390.568 592.072 338.469 571.106 292.583C569.067 288.163 566.786 283.863 564.277 279.703C562.547 276.583 560.697 273.543 558.707 270.583C553.136 270.133 547.636 269.113 542.217 267.533C540.356 267.063 538.516 266.543 536.677 265.933C509.797 267.399 483.516 268.994 456.561 270.506L448.141 271.031C425.307 272.499 401.692 274.85 383.266 288.973C365.186 301.831 365.104 327.186 349.627 341.303C327.557 356.282 327.396 369.789 323.146 391.863C323.461 408.503 334.999 432.68 313.826 439.683C317.398 444.776 312.419 442.329 312.027 440.543C311.987 440.553 311.947 440.563 311.917 440.563C315.1 446.48 310.421 442.754 310.007 440.853C309.757 440.783 309.507 440.603 309.257 440.353C312.464 445.537 307.28 441.907 307.587 440.963C301.39 431.438 288.636 429.959 279.646 432.483C279.536 432.823 279.137 432.853 278.887 432.673C240.66 440.957 250.523 520.093 289.697 512.443C291.374 512.101 291.334 512.906 291.667 512.983C290.762 510.607 293.313 511.574 293.286 512.073L293.441 512.066C293.564 512.055 293.514 512.042 293.606 512.073C292.731 507.214 297.655 514.254 297.266 514.543C297.417 514.453 297.587 514.403 297.737 514.383L297.567 513.922C296.75 511.745 296.82 512.65 296.826 511.403C296.212 509.862 296.167 510.536 296.311 509.532C298.469 507.86 299.106 512.932 299.826 513.303C298.592 511.583 299.573 510.178 300.737 511.112C309.56 529.67 320.957 547.107 335.686 560.843C337.297 562.113 338.927 563.363 340.616 564.543C346.881 570 356.491 573.509 362.356 578.343C362.356 578.423 362.317 578.523 362.257 578.623L362.391 578.745L362.527 578.873L364.567 579.853C365.167 580.363 365.707 580.933 366.186 581.563C366.697 582.153 367.146 582.803 367.527 583.493C367.717 584.333 367.297 584.683 366.497 584.323C366.146 584.203 365.797 584.063 365.447 583.933C365.467 583.963 365.476 583.983 365.497 584.003C365.612 584.177 366.388 585.978 365.493 585.685L365.387 585.643C364.896 585.463 364.407 585.263 363.927 585.073C364.497 585.783 365.016 586.553 365.476 587.203C365.967 587.713 366.266 588.313 366.387 588.993C366.366 589.373 366.157 589.533 365.777 589.483C365.197 589.293 364.627 589.093 364.056 588.883L364.218 589.193C364.622 589.987 365.195 591.318 364.177 590.873C363.306 590.603 362.467 590.293 361.627 589.953C361.556 590.093 361.417 590.143 361.137 590.013C358.467 589.063 355.887 587.903 353.417 586.533C351.247 584.953 349.056 583.403 346.877 581.833C344.826 580.603 342.846 579.233 340.957 577.693C328.311 569.525 317.24 559.149 308.457 547.593C293.768 560.314 264.399 548.161 246.232 538.203C230.163 529.303 223.847 512.847 222.214 495.105C218.819 471.219 199.299 463.043 200.657 410.633C200.627 410.643 200.596 410.643 200.556 410.643C199.846 410.433 199.157 410.153 198.507 409.793C197.837 409.473 197.207 409.093 196.616 408.633L195.886 407.623C195.507 407.413 195.167 407.193 194.907 406.973L194.772 407.147C194.345 407.662 194.632 406.887 194.657 406.733L193.389 405.009C190.382 400.904 187.083 396.297 184.396 392.613L184.311 392.763C184.25 392.876 184.218 392.958 184.247 392.993C177.852 383.805 171.838 372.707 170.167 361.963C168.194 353.687 168.965 345.159 170.686 337.493C178.065 310.648 202.237 249.9 233.976 223.863ZM407.524 595.116L407.123 594.76L407.475 595.201C407.66 595.429 407.849 595.634 408.157 595.843C408.137 595.773 408.137 595.703 408.146 595.623C407.942 595.468 407.733 595.297 407.524 595.116ZM463.646 180.633C416.738 176.6 370.601 186.934 325.839 199.443L322.751 200.331C297.299 207.594 270.386 214.129 248.877 229.673C218.826 252.69 203.308 289.306 189.766 323.113C177.941 348.231 183.986 376.554 201.806 394.093C203.66 376.664 206.821 359.745 211.761 342.962C212.792 340.34 212.012 339.481 214.234 339.139C217.59 384.367 201.061 417.783 233.771 471.385C247.964 496.677 231.534 515.183 271.614 528.492L272.699 528.907C281.049 532.058 290.167 534.545 298.346 532.783L297.613 531.592C296.866 530.364 296.639 529.768 297.726 529.243C297.697 529.183 297.657 529.123 297.616 529.053C296.737 527.393 295.887 525.713 295.076 524.013C294.747 524.123 294.417 524.203 294.076 524.293C294.297 524.703 294.326 525.113 293.707 525.253C291.503 526.009 289.24 526.312 286.924 526.171L286.427 526.133C283.81 525.973 282.161 525.496 280.686 525.053C280.197 524.973 279.707 524.893 279.226 524.793C274.481 523.741 269.458 521.065 266.207 518.413C229.149 497.365 232.979 425.716 278.657 418.943C279.594 373.831 301.051 297.723 336.661 254.736C368.849 215.195 456.723 198.057 517.859 204.1C518.75 204.395 519.641 204.693 520.532 204.994C529.964 205.832 538.953 210.034 548.392 211.986C541.615 206.907 533.927 203.524 526.008 200.649C510.23 190.998 492.142 185.776 474.667 182.093C471.047 181.203 467.377 180.713 463.646 180.633ZM276.566 455.183C279.022 453.849 278.741 455.137 279.306 454.763C296.972 453.322 316.021 468.789 325.896 481.683C325.116 482.493 323.006 480.093 322.636 479.713C322.586 479.763 322.526 479.803 322.466 479.823L322.741 480.211C326.744 485.955 318.809 479.196 318.066 477.803C317.936 477.873 317.806 477.913 317.656 477.883C318.285 478.5 320.206 480.109 320.536 481.253L321.045 481.677C325.848 485.79 325.449 488.883 319.997 483.043C320.126 483.313 320.176 483.563 320.086 483.763L320.274 483.888C322.955 485.762 325.16 490.985 319.556 485.623C320.139 489.539 314.003 481.97 313.806 482.023C303.188 473.688 287.555 465.582 274.236 464.493L273.778 464.441C271.334 464.127 270.178 463.401 271.036 461.803C268.026 461.087 268.731 459.605 270.156 459.653C268.033 458.257 269.944 456.922 271.176 457.443C270.329 455.098 273.726 456.66 274.036 456.333C275.799 453.614 276.274 455.882 276.566 455.183ZM239.536 309.833C248.021 306.725 273.084 316.029 271.079 328.351C269.885 331.18 265.951 332.801 263.186 331.204L259.577 328.781C253.297 324.575 247.633 320.887 240.89 317.218C237.22 315.397 235.64 311.531 239.536 309.833ZM287.811 291.522L284.534 289.39C266.85 277.816 241.851 260.279 286.186 278.423C291.239 280.59 297.953 281.872 300.71 286.684C305.041 295.553 293.643 296.149 287.811 291.522ZM289.798 239.593C288.379 234.208 306.036 240.527 311.176 242.193L311.959 242.489C316.959 244.352 322.691 246.08 325.681 250.395C329.185 256.357 322.093 257.592 317.7 254.899C308.693 249.013 298.818 244.572 289.798 239.593ZM334.699 214.508C324.76 203.655 351.359 214.052 355.343 216.938L355.457 217.023C358.43 219.116 357.827 223.624 355.034 224.948C347.087 225.099 341.239 218.475 334.699 214.508ZM379.925 202.617C364.125 191.262 384.938 196.663 392.167 201.113C397.094 205.458 392.019 212.793 379.925 202.617Z" fill="black"/>
</svg>
