<svg width="900" height="900" viewBox="0 0 900 900" fill="none" xmlns="http://www.w3.org/2000/svg">
<path fill-rule="evenodd" clip-rule="evenodd" d="M425.363 266.402C450.931 266.402 481.607 278.797 484.216 279.045L484.286 279.049C485.658 279.049 491.02 283.133 500.372 291.303L490.243 311.059L491.062 311.841C494.985 315.602 498.334 319.03 500.977 321.732C522.558 343.795 526.437 430.419 521.351 460.628C516.265 490.838 506.845 520.397 462.988 520.397C419.131 520.397 370.339 494.027 362.823 485.815C357.812 480.34 352.184 477.717 345.938 477.946C345.681 477.623 345.426 477.299 345.174 476.978L344.255 476.848C335.61 475.595 329.416 473.91 325.674 471.792C318.362 467.656 310.326 445.91 310.326 441.12C310.326 436.378 298.326 401.878 298.086 398.227L298.083 398.126C298.083 395.074 282.406 381.044 282.406 376.589C282.406 372.133 279.247 372.404 282.406 356.703L283.324 352.091C286.687 335.374 293.268 307.694 318.362 295.666C345.938 282.448 399.538 266.402 425.363 266.402Z" fill="white"/>
<path fill-rule="evenodd" clip-rule="evenodd" d="M314.106 295.043C327.858 280.446 405.935 257.868 445.437 262.654L446.622 262.807C449.774 263.207 452.881 263.812 455.947 264.634C465.857 266.949 476.094 270.453 484.283 276.307C491.119 281.096 512.684 288.917 506.328 301.445C508.685 305.91 509.564 311.427 507.972 315.825C507.771 317.344 507.303 318.743 506.704 320.193C511.739 327.623 515.725 336.026 518.953 344.018C524.592 364.132 528.101 385.063 528.615 405.585C530.325 444.573 526.05 491.144 492.093 516.355C471.58 532.331 439.447 532.867 416.395 513.059C415.087 511.511 408.934 507.333 410.987 506.601C411.598 507.246 412.227 507.874 412.866 508.491C412.837 508.422 412.831 508.354 412.843 508.279L412.241 507.735C411.109 506.687 409.641 505.167 411.313 505.464C411.387 505.55 411.467 505.624 411.546 505.71C411.901 505.922 412.168 506.107 412.376 506.269L412.483 506.354L412.45 506.32C411.487 505.293 410.91 504.246 412.349 504.915L412.54 505.007C413.18 505.681 413.831 506.326 414.493 506.955C414.482 506.88 414.493 506.806 414.534 506.726L413.916 506.13C413.313 505.539 413.405 505.537 413.7 505.059C412.419 503.263 414.811 504.329 414.979 505.03C416.475 504.676 417.789 507.486 418.753 507.828C461.012 540.316 522.337 511.489 521.344 420.961L521.328 419.19C521.038 390.243 518.602 360.491 506.629 334.287C505.465 331.763 504.162 329.307 502.729 326.932C501.741 325.15 500.685 323.414 499.548 321.724C496.367 321.467 493.226 320.884 490.131 319.982C489.069 319.713 488.018 319.417 486.968 319.068C471.618 319.905 456.609 320.816 441.216 321.68L436.408 321.979C423.368 322.818 409.882 324.16 399.36 332.226C389.035 339.568 388.988 354.048 380.15 362.109C367.546 370.663 367.454 378.377 365.027 390.983C365.207 400.485 371.796 414.292 359.705 418.291C361.745 421.199 358.902 419.802 358.678 418.782C358.655 418.788 358.632 418.793 358.615 418.793C360.433 422.172 357.761 420.045 357.524 418.959C357.381 418.919 357.239 418.816 357.096 418.674C358.927 421.634 355.967 419.561 356.142 419.022C352.603 413.582 345.32 412.738 340.186 414.179C340.123 414.373 339.895 414.391 339.753 414.288C317.923 419.018 323.555 464.21 345.926 459.842C346.884 459.646 346.861 460.106 347.051 460.15C346.534 458.793 347.991 459.345 347.975 459.63L348.064 459.626C348.134 459.62 348.106 459.613 348.158 459.63C347.658 456.856 350.47 460.876 350.248 461.041C350.334 460.99 350.432 460.961 350.517 460.95L350.42 460.686C349.954 459.443 349.994 459.96 349.997 459.248C349.646 458.368 349.621 458.753 349.703 458.179C350.935 457.224 351.299 460.121 351.71 460.333C351.005 459.351 351.566 458.548 352.23 459.082C357.269 469.679 363.777 479.637 372.189 487.481C373.109 488.207 374.039 488.92 375.004 489.594C378.582 492.711 384.07 494.714 387.419 497.475C387.419 497.521 387.397 497.578 387.362 497.635L387.439 497.704L387.517 497.778L388.682 498.337C389.024 498.628 389.333 498.954 389.606 499.314C389.898 499.651 390.154 500.022 390.372 500.416C390.48 500.896 390.241 501.095 389.784 500.89C389.583 500.821 389.384 500.741 389.184 500.667C389.196 500.684 389.201 500.696 389.213 500.707C389.278 500.807 389.721 501.835 389.21 501.668L389.15 501.644C388.869 501.541 388.59 501.427 388.316 501.318C388.642 501.724 388.938 502.163 389.201 502.535C389.481 502.826 389.652 503.168 389.721 503.557C389.709 503.774 389.59 503.865 389.373 503.837C389.041 503.728 388.716 503.614 388.39 503.494L388.482 503.671C388.713 504.124 389.04 504.884 388.459 504.63C387.961 504.476 387.482 504.299 387.003 504.105C386.962 504.185 386.883 504.213 386.723 504.139C385.198 503.597 383.725 502.934 382.314 502.152C381.075 501.25 379.824 500.365 378.579 499.468C377.408 498.766 376.277 497.983 375.199 497.104C367.977 492.439 361.655 486.514 356.639 479.915C348.251 487.179 331.479 480.239 321.104 474.552C311.928 469.47 308.321 460.072 307.389 449.941C305.45 436.3 294.303 431.631 295.078 401.701C295.061 401.707 295.043 401.707 295.02 401.707C294.615 401.587 294.222 401.427 293.85 401.222C293.468 401.039 293.108 400.822 292.77 400.559L292.354 399.983C292.137 399.863 291.943 399.737 291.795 399.611L291.717 399.711C291.474 400.005 291.637 399.562 291.652 399.474L290.928 398.49C289.21 396.146 287.327 393.515 285.792 391.411L285.744 391.496C285.709 391.561 285.69 391.608 285.707 391.628C282.055 386.381 278.621 380.043 277.666 373.908C276.54 369.182 276.98 364.311 277.963 359.934C282.177 344.603 295.98 309.912 314.106 295.043ZM413.213 507.053L412.984 506.85L413.185 507.102C413.291 507.232 413.398 507.349 413.574 507.469C413.563 507.429 413.563 507.389 413.568 507.343C413.452 507.254 413.332 507.157 413.213 507.053ZM445.262 270.356C418.475 268.053 392.127 273.955 366.565 281.098L364.802 281.605C350.267 285.753 334.898 289.485 322.615 298.361C305.454 311.506 296.592 332.416 288.859 351.722C282.106 366.066 285.558 382.24 295.734 392.256C296.793 382.303 298.598 372.641 301.419 363.057C302.008 361.559 301.563 361.069 302.832 360.874C304.748 386.702 295.309 405.785 313.988 436.395C322.094 450.838 312.711 461.406 335.599 469.007L336.219 469.244C340.987 471.043 346.194 472.463 350.865 471.457L350.446 470.777C350.02 470.076 349.89 469.735 350.511 469.436C350.494 469.401 350.472 469.367 350.448 469.327C349.946 468.379 349.461 467.42 348.998 466.449C348.81 466.512 348.621 466.557 348.427 466.609C348.553 466.843 348.569 467.077 348.216 467.157C346.957 467.589 345.665 467.762 344.342 467.681L344.058 467.66C342.564 467.568 341.622 467.296 340.78 467.043C340.501 466.997 340.221 466.951 339.946 466.894C337.237 466.294 334.368 464.765 332.512 463.251C311.349 451.231 313.536 410.315 339.621 406.447C340.156 380.685 352.41 337.222 372.745 312.674C391.127 290.093 441.309 280.307 476.221 283.757C476.73 283.926 477.239 284.096 477.748 284.268C483.134 284.747 488.268 287.146 493.658 288.261C489.788 285.36 485.397 283.429 480.875 281.787C471.865 276.275 461.535 273.293 451.556 271.19C449.489 270.682 447.393 270.402 445.262 270.356ZM338.427 427.142C339.83 426.381 339.669 427.116 339.992 426.903C350.08 426.08 360.959 434.912 366.598 442.276C366.152 442.738 364.947 441.368 364.736 441.151C364.708 441.179 364.673 441.202 364.639 441.213L364.796 441.435C367.082 444.715 362.551 440.855 362.126 440.06C362.052 440.1 361.978 440.123 361.892 440.106C362.252 440.458 363.349 441.377 363.537 442.03L363.828 442.272C366.57 444.621 366.343 446.387 363.229 443.052C363.303 443.207 363.331 443.349 363.28 443.463L363.387 443.535C364.918 444.605 366.178 447.588 362.977 444.526C363.31 446.762 359.806 442.44 359.694 442.47C353.63 437.71 344.703 433.081 337.097 432.459L336.835 432.429C335.439 432.25 334.779 431.835 335.269 430.923C333.55 430.514 333.953 429.668 334.767 429.695C333.554 428.898 334.646 428.136 335.349 428.433C334.865 427.094 336.805 427.986 336.982 427.799C337.989 426.246 338.26 427.542 338.427 427.142ZM317.281 344.138C322.126 342.363 336.439 347.676 335.294 354.713C334.612 356.329 332.365 357.254 330.786 356.342L328.725 354.959C325.139 352.557 321.905 350.451 318.054 348.355C315.958 347.315 315.056 345.108 317.281 344.138ZM344.849 333.681L342.977 332.464C332.879 325.854 318.603 315.839 343.921 326.201C346.806 327.438 350.641 328.17 352.215 330.918C354.688 335.983 348.179 336.324 344.849 333.681ZM345.984 304.026C345.173 300.951 355.257 304.56 358.192 305.511L358.639 305.68C361.494 306.744 364.768 307.731 366.475 310.195C368.476 313.6 364.426 314.305 361.917 312.767C356.774 309.406 351.135 306.87 345.984 304.026ZM371.625 289.701C365.949 283.503 381.139 289.441 383.414 291.089L383.479 291.137C385.177 292.333 384.833 294.907 383.238 295.663C378.699 295.749 375.36 291.967 371.625 289.701ZM397.452 282.911C388.429 276.426 400.315 279.51 404.443 282.052C407.257 284.533 404.358 288.722 397.452 282.911Z" fill="black"/>
</svg>
