<svg width="900" height="900" viewBox="0 0 900 900" fill="none" xmlns="http://www.w3.org/2000/svg">
<path fill-rule="evenodd" clip-rule="evenodd" d="M453.183 449.758C459.378 449.728 468.658 449.548 474.848 449.913C476.633 450.018 477.513 452.569 477.638 453.779C478.823 465.024 469.843 473.993 459.928 477.468C450.728 480.693 438.578 481.304 430.373 475.279C426.808 472.664 424.108 469.039 422.347 465.004C421.397 462.829 420.702 460.573 420.317 458.233C420.022 456.448 419.462 454.043 420.117 452.288C421.017 449.893 423.523 450.063 425.668 450.023C428.628 449.963 431.588 449.888 434.543 449.854C440.758 449.783 446.973 449.783 453.183 449.758ZM470.368 453.033C467.583 453.333 436.833 453.553 432.083 453.658C431.368 453.673 430.618 453.658 429.858 453.638C429.331 455.267 430.698 458.621 432.168 459.203C433.638 459.785 446.068 460.357 453.408 460.022C458.413 459.797 471.396 456.763 471.396 455.462C471.396 454.16 470.843 452.983 470.368 453.033ZM408.172 424.188C409.128 423.682 410.023 424.337 410.147 425.321C410.396 427.296 409.353 429.362 409.301 431.396C409.244 433.572 409.481 435.745 409.408 437.921C409.28 441.72 408.145 445.534 405.95 448.663C403.33 452.398 396.42 456.477 393.122 451.071C390.75 447.184 392.614 441.514 394.34 437.764C395.694 434.824 397.662 432.105 399.867 429.744C401.335 428.172 404.419 424.632 406.79 424.988C406.881 425.001 406.922 425.11 406.905 425.189C406.889 425.259 406.862 425.32 406.841 425.386C407.184 424.898 407.615 424.482 408.172 424.188ZM406.366 426.229C405.946 426.731 405.374 427.132 404.89 427.622C403.861 428.665 402.838 429.712 401.915 430.853C400.232 432.931 398.843 435.254 397.742 437.688C396.428 440.589 394.265 445.563 395.808 448.788C396.635 450.517 398.763 450.206 400.198 449.365C402.879 447.793 404.46 444.44 405.211 441.556C406.049 438.339 405.559 435.075 405.575 431.8C405.582 430.128 405.613 427.92 406.366 426.229ZM484.5 419.091C484.546 417.855 485.786 417.198 486.863 417.736C488.707 418.657 489.485 420.529 490.504 422.245C491.685 424.236 492.866 426.227 494.047 428.217C496.131 431.73 498.976 435.478 500.026 439.473C501.578 445.377 496.455 449.71 490.777 448.442C484.851 447.119 482.651 440.228 482.776 434.845C482.842 432.028 483.499 429.167 484.054 426.415C484.381 424.796 484.493 423.038 484.912 421.414C484.634 420.646 484.471 419.869 484.5 419.091ZM454.407 424.184C453.418 423.474 454.203 421.122 456.317 421.485C475.516 424.784 465.568 457.854 441.056 439.706C438.138 437.352 441.672 432.167 444.817 434.183C448.209 436.784 455.093 442.537 459.874 437.52C463.936 431.83 458.183 426.479 454.407 424.184ZM487.377 425.762C487.14 427.343 486.785 428.865 486.621 429.988C485.972 434.408 485.513 440.149 489.167 443.493C490.713 444.908 493.4 445.433 495.197 444.098C497.826 442.145 495.066 438.388 493.84 436.382C492.028 433.419 490.243 430.442 488.471 427.455C488.15 426.914 487.77 426.347 487.377 425.762ZM417.061 402.799C423.339 401.784 430.13 405.918 432.322 411.877C432.875 413.381 431.956 415.243 430.64 416.012C429.121 416.899 427.497 416.469 426.203 415.439C424.464 414.056 423.637 411.835 421.727 410.578C420.111 409.514 417.945 409.458 416.087 409.765C411.718 410.488 408.284 413.308 404.294 414.955C403.734 415.186 403.407 414.469 403.595 414.046C406.012 408.614 411.058 403.769 417.061 402.799ZM477.921 402.553C482.938 402.122 488.917 404.296 490.504 409.459C490.542 409.583 490.411 409.729 490.282 409.681C487.246 408.555 483.888 407.871 480.643 408.444C478.553 408.813 474.427 410.292 474.269 412.69C474.025 416.387 469.736 417.297 467.646 414.484C465.614 411.748 467.363 408.005 469.608 406.028C471.962 403.955 474.816 402.819 477.921 402.553ZM429.802 381.601C430.891 382.839 431.266 385.14 429.802 386.325C427.226 388.41 424.378 387.602 421.29 387.778C418.746 387.924 416.301 388.345 413.851 389.046C408.475 390.582 404.094 393.387 399.503 396.467C398.9 396.871 398.285 396.101 398.573 395.537C401.223 390.346 406.36 386.081 411.505 383.482C414.251 382.094 417.256 380.943 420.294 380.415L421.233 380.251C424.137 379.749 427.747 379.266 429.802 381.601ZM470.597 378.09L471.315 378.237C479.134 379.871 489.292 383.136 492.994 390.815C493.136 391.901 492.986 392.134 492.865 392.286L492.825 392.337C492.725 392.466 492.645 392.645 492.175 392.793C492.044 392.762 491.912 392.729 491.779 392.694C490.082 392.249 488.739 391.637 487.439 391.001L486.029 390.307C484.394 389.505 482.744 388.732 480.996 388.162C477.265 386.945 473.427 386.087 469.53 385.63C468.685 385.531 467.872 385.246 467.23 384.757C466.621 384.293 466.156 383.651 465.944 382.798C465.669 381.693 465.748 380.857 466.34 379.86C466.786 379.112 467.424 378.593 468.156 378.296C468.902 377.992 469.752 377.92 470.597 378.09Z" fill="black"/>
</svg>
