<svg width="284" height="284" viewBox="0 0 284 284" fill="none" xmlns="http://www.w3.org/2000/svg">
<path fill-rule="evenodd" clip-rule="evenodd" d="M177.085 228.67C170.694 228.722 163.508 226.324 158.704 224.446L157.451 223.949C153.292 222.284 149.02 220.372 145.835 217.163C144.816 216.12 143.732 214.94 143.181 213.699C142.858 212.972 142.724 212.219 143.036 211.472C144.188 211.359 145.279 211.211 146.313 211.022C146.806 210.932 147.277 210.839 147.639 210.837C148.972 210.828 150.29 210.998 151.607 211.164C151.798 211.188 151.989 211.212 152.18 211.236C153.205 211.363 154.226 211.5 155.245 211.637C158.208 212.035 161.156 212.43 164.163 212.573C166.333 212.678 168.609 212.556 170.906 212.431C176.861 212.107 183.018 211.664 187.607 215.835C188.809 216.928 189.311 218.304 189.311 219.706C189.311 221.409 188.594 223.143 187.5 224.504C185.023 227.584 181.211 228.636 177.085 228.67ZM211.938 174.95C209.157 179.122 204.525 181.804 198.177 181.513C185.56 180.936 170.503 176.176 159.936 169.293C157.184 167.501 155.4 164.636 155.08 161.566L154.51 156.106L151.434 160.653C151.113 161.127 150.79 161.599 150.467 162.072C149.576 163.374 148.686 164.675 147.846 166.009C144.622 171.132 141.667 176.305 138.984 181.73C137.084 185.572 135.695 189.869 134.302 194.204C131.95 201.524 129.679 208.722 124.654 213.867C123.895 214.645 122.727 214.923 121.658 214.786C120.716 214.664 119.793 214.202 119.34 213.282C113.337 201.074 121.411 186.363 127.961 176.136L128.654 175.068C134.727 165.826 144.647 153.595 156.007 151.933L157.307 154.007L159.198 152.746C162.291 150.683 166.373 150.779 169.947 152.393L173.521 154.006C180.174 156.991 186.737 159.746 193.935 161.255C194.46 161.365 194.984 161.468 195.507 161.563C196.001 161.653 196.498 161.737 196.997 161.815C196.89 161.325 196.775 160.836 196.659 160.349C196.538 159.834 196.415 159.317 196.283 158.802C196.147 158.27 196.002 157.742 195.857 157.215C195.28 155.115 194.629 153.034 193.856 150.997C190.95 143.338 186.309 136.175 181.794 129.342L181.263 128.539C180.615 127.56 179.906 126.538 179.173 125.481C175.652 120.411 171.747 114.909 171.471 109.385C176.144 109.679 180.055 112.583 183.498 115.111C188.223 118.578 192.601 122.543 196.573 126.85C204.277 135.207 211.191 145.89 214.224 156.933C215.96 163.257 215.196 170.061 211.938 174.95ZM88.673 111.95L88.6717 111.724C88.6857 105.348 92.3997 90.788 101.58 90.788C107.315 90.788 110.797 100.697 111.399 110.911L111.42 111.328C111.687 117.678 109.944 131.56 101.58 131.56C93.1273 131.56 88.7599 118.412 88.673 111.95ZM223.828 109.95L223.83 109.724C223.816 103.348 220.102 88.788 210.921 88.788C205.33 88.788 201.88 98.2076 201.152 108.146L201.102 108.911C200.74 115.048 202.369 129.56 210.921 129.56C219.374 129.56 223.741 116.412 223.828 109.95ZM119.59 68.7939C118.373 68.9365 117.163 69.1234 115.953 69.3156C112.423 69.8779 108.912 70.5529 105.425 71.3397C98.8024 72.8348 92.2329 74.7226 85.789 76.8558C79.759 78.8528 73.8228 81.1096 67.8881 83.3661C67.5714 83.4866 67.2548 83.607 66.9379 83.7274C64.8425 84.5242 62.7541 85.4168 60.6593 86.3125C57.4711 87.6757 54.2683 89.048 51 90.0821C59.6108 78.1762 72.8795 69.3544 85.6466 63.0415C92.931 59.4398 100.659 56.5353 108.433 54.1555L112.762 52.8546C119.137 50.9739 126.106 49.2367 132.095 52.9866C134.463 54.4698 135.974 56.7754 136.45 59.2678C136.917 61.7121 136.385 64.3329 134.697 66.5201C133.226 68.4255 131.394 69.5106 129.443 69.8825C127.291 70.293 125.009 69.8422 122.932 68.733C121.269 68.6091 120.778 68.6539 120.286 68.7086L119.59 68.7939ZM215.488 70.0052C211.221 69.0777 206.997 68.7054 202.619 68.8389C200.64 68.8983 198.725 69.2041 196.815 69.5118C193.849 69.9897 190.894 70.4833 187.698 69.9035C186.031 69.6007 184.611 68.6255 183.514 67.3525C182.232 65.8643 181.383 63.9622 181.111 62.1537C180.83 60.2854 181.11 58.6516 181.801 57.2089C182.618 55.5044 183.993 54.068 185.656 52.8097C190.687 49.001 199.319 49.917 205.256 50.6871C211.124 51.4499 216.959 53.2693 222.145 56.1589C227.262 59.0112 231.711 62.8534 235.182 67.5498C238.108 71.5083 239.486 76.0643 240.909 80.7032C234.214 75.0869 223.969 71.8463 215.488 70.0052Z" fill="black"/>
</svg>
