<svg width="900" height="900" viewBox="0 0 900 900" fill="none" xmlns="http://www.w3.org/2000/svg">
<path fill-rule="evenodd" clip-rule="evenodd" d="M524.095 430.961C520.514 405.124 512.323 380.039 511.147 353.814C510.447 342.592 509.748 331.37 509.049 320.146C508.783 313.137 499.678 310.772 496.2 316.982C488.295 308.215 474.14 309.506 463.34 309.772C399.764 312.025 339.349 355.009 317.525 414.942C317 416.371 317.159 417.892 317.753 419.253C307.58 453.174 343.554 475.017 368.09 490.141C378.043 500.659 389.742 509.397 402.953 515.382C418.149 522.531 435.065 526.517 451.855 526.899C455.541 526.983 457.755 524.003 458.021 520.919C463.378 519.672 472.544 521.111 475.376 515.622C507.68 501.592 528.728 466.03 524.095 430.961Z" fill="white"/>
<path fill-rule="evenodd" clip-rule="evenodd" d="M508.981 339.334C508.889 338.497 510.099 338.471 510.348 339.149C512.395 344.727 514.518 350.266 516.14 355.985C517.703 361.496 518.829 367.133 519.97 372.745C521.861 382.059 523.487 391.442 524.833 400.855C527.708 398.609 531.469 398.405 535.01 400.152C536.672 400.972 537.308 403.139 536.909 404.82C536.589 406.169 536.198 407.511 535.729 408.826C536.732 409.714 537.585 410.809 538.204 412.066C539.834 415.379 539.309 418.855 537.846 422.015C537.958 422.203 538.068 422.393 538.172 422.594C540.289 426.705 539.156 430.387 537.609 434.398C536.451 437.399 537.098 440.779 534.599 443.045C533.731 445.835 532.428 448.43 530.53 450.774C530.1 451.563 529.455 452.197 528.689 452.664C528.496 457.067 528.031 461.456 527.157 465.806C523.762 482.698 512.987 497.748 499.649 508.363C486.597 518.751 471.268 524.958 454.727 526.964C446.696 527.939 438.652 527.631 430.686 526.24L429.694 526.063C422.344 524.73 413.449 522.523 408.366 516.978C405.694 514.062 407.256 507.645 411.982 508.251C414.485 508.571 416.664 508.972 419.022 509.896C420.86 510.617 422.702 511.311 424.589 511.9C428.204 513.025 431.943 513.903 435.696 514.388C443.516 515.399 451.642 515.131 459.372 513.607C473.428 510.833 487.084 504.437 497.751 494.806C510.151 483.612 517.419 469.123 518.489 452.413C519.68 433.802 517.531 414.744 515.747 396.23C514.819 386.599 513.641 376.987 512.223 367.416C510.837 358.064 510.006 348.725 508.981 339.334ZM399.246 279.238L399.847 279.146C423.717 275.513 448.833 275.771 471.27 285.622C475.57 287.511 479.779 289.79 483.742 292.434C486.581 292.137 489.436 291.897 492.24 291.858C495.769 291.811 499.212 293.644 499.646 297.214C502.953 297.625 505.997 298.841 507.944 301.274C508.703 302.222 509.211 303.318 509.469 304.46C511.501 304.941 513.494 305.677 515.385 306.648C517.68 307.83 519.005 311.119 518.194 313.552C518.007 314.105 517.795 314.643 517.556 315.17L517.372 315.562L517.48 315.71C519.314 318.657 518.04 322.523 515.23 324.282C513.123 325.601 510.77 326.652 508.349 327.16C508.549 328.131 508.732 329.108 508.88 330.096C508.937 330.496 508.424 330.781 508.195 330.387C508.774 332.188 509.499 334.08 510.371 336.064C510.885 337.234 509.24 338.273 508.612 337.091C506.945 333.939 505.911 330.707 504.397 327.457C502.999 327.366 501.605 327.046 500.263 326.435C499.383 326.035 498.716 325.361 498.236 324.556C498.207 324.591 498.19 324.631 498.161 324.67C493.656 330.467 484.85 332.5 478.043 334.333C470.734 336.304 463.252 337.519 455.743 338.416C442.631 339.975 429.416 340.266 416.242 340.872C415.37 340.912 414.499 340.956 413.628 340.998C408.277 345.692 401.384 348.609 394.315 349.496C390.732 349.945 386.495 349.831 382.478 348.916C381.024 350.4 379.187 351.5 377.182 352.065C376.821 359.545 372.65 366.628 366.344 370.756L366.456 371.201C368.023 377.588 368.003 384.571 362.385 389.01C361.624 389.611 360.793 390.126 359.919 390.553L360.111 390.995C363.013 397.776 363.94 405.266 358.485 410.892C356.274 413.173 352.392 412.633 350.733 410.016L350.652 409.883C350.56 409.727 350.461 409.577 350.365 409.424C350.218 409.727 349.991 409.982 349.656 410.125C347.583 411.016 346.755 410.359 344.864 409.44C343.117 408.583 341.272 407.943 339.388 407.447C337.852 407.047 336.321 406.761 334.779 406.596C325.037 410.319 318.744 421.74 320.24 432.459C321.051 438.295 324.255 444.075 329.84 446.496C332.284 447.558 335.156 448.004 337.8 447.644C341.381 447.158 344.133 444.903 347.84 446.193C349.302 446.702 350.216 447.85 350.295 449.42C350.427 451.887 349.553 453.737 348.079 455.108C350.678 457.278 352.774 460.293 355.029 462.698C357.851 465.707 360.711 468.716 363.761 471.492C366.639 474.124 369.701 476.568 372.944 478.739L373.285 478.963C377.348 481.61 382.469 483.96 382.663 489.492C382.726 491.16 381.715 492.69 380.345 493.54C375.223 496.716 369.649 492.547 365.634 489.492C364.018 488.264 362.447 486.99 360.934 485.671C359.923 485.751 358.821 485.586 357.673 485.077C356.937 484.757 356.217 484.381 355.509 483.981C353.208 484.558 351.038 484.049 349.25 482.844C346.675 483.478 343.945 483.552 341.626 483.044C339.508 482.576 337.618 481.577 336.058 480.235C332.803 481.274 329.189 481.08 325.979 479.11C324.055 477.928 322.553 476.243 321.736 474.273C321.32 473.622 321.055 472.863 321.034 472.026L321.034 471.709C318.236 471.771 315.432 470.812 313.267 468.597C311.28 466.563 310.31 464.028 310.201 461.452C307.385 460.653 304.81 459.013 302.851 456.484C299.607 452.292 299.174 447.113 300.841 442.487C300.732 442.242 300.635 441.99 300.55 441.739C297.963 438.09 296.255 433.687 296.392 429.273C296.409 428.587 296.501 427.914 296.638 427.246C294.091 425.892 292.218 423.516 292.018 420.495C291.864 418.125 292.715 415.807 294.251 414.054C293.503 412.266 293.171 410.325 293.4 408.383C293.634 406.39 294.336 404.66 295.365 403.215C295.341 402.69 295.37 402.158 295.456 401.616C295.353 401.085 295.267 400.537 295.222 399.978C294.736 393.855 298.962 388.499 304.107 385.672C305.461 384.929 306.923 384.324 308.385 383.81C309.447 383.433 311.046 383.308 311.982 382.617C311.942 382.588 312.331 382.086 312.399 381.817C312.473 381.486 312.553 381.16 312.594 380.823C312.748 379.407 312.633 377.951 312.605 376.529C312.479 370.076 312.679 363.594 313.359 357.176C314.621 345.275 317.734 333.631 323.798 323.231C328.886 314.517 335.853 307.156 343.842 301.051C359.755 288.897 379.614 282.289 399.246 279.238ZM325.499 427.24C323.428 422.262 333.18 422.213 335.758 422.449L335.834 422.456C341.638 423.034 350.711 425.825 353.086 431.681C354.069 434.106 351.159 436.733 348.831 435.936C346.552 435.156 345.274 433.48 343.445 432.014C342.965 431.629 342.465 431.27 341.955 430.924C342.224 431.778 342.653 432.567 343.249 433.156L343.389 433.289C346.198 435.812 341.175 439.777 339.311 436.436C338.319 434.658 337.921 432.707 338.231 430.688C338.323 430.093 338.483 429.548 338.715 429.028C338.53 428.936 338.348 428.835 338.161 428.746L337.826 428.591C335.591 427.577 326.053 423.595 326.13 427.155C326.139 427.549 325.627 427.55 325.499 427.24Z" fill="black"/>
</svg>
