<svg width="788" height="788" viewBox="0 0 788 788" fill="none" xmlns="http://www.w3.org/2000/svg">
<path fill-rule="evenodd" clip-rule="evenodd" d="M579.424 448.603C573.153 403.36 558.81 359.432 556.751 313.51C555.526 293.859 554.301 274.207 553.077 254.554C552.612 242.28 536.668 238.139 530.578 249.013C516.735 233.661 491.947 235.922 473.036 236.388C361.708 240.333 255.914 315.603 217.698 420.552C216.779 423.054 217.057 425.717 218.096 428.1C200.283 487.5 263.278 525.749 306.242 552.233C323.671 570.651 344.158 585.953 367.291 596.433C393.902 608.952 423.524 615.932 452.925 616.6C459.379 616.748 463.256 611.53 463.722 606.129C473.102 603.946 489.153 606.466 494.113 596.854C550.68 572.285 587.537 510.013 579.424 448.603Z" fill="white"/>
<path fill-rule="evenodd" clip-rule="evenodd" d="M552.957 288.154C552.797 286.687 554.915 286.642 555.351 287.83C558.936 297.597 562.653 307.297 565.493 317.311C568.231 326.962 570.203 336.832 572.2 346.66C575.512 362.97 578.36 379.4 580.716 395.883C585.751 391.951 592.336 391.593 598.537 394.653C601.447 396.088 602.561 399.883 601.863 402.827C601.303 405.189 600.618 407.539 599.796 409.841C601.553 411.396 603.046 413.314 604.13 415.516C606.985 421.316 606.065 427.404 603.504 432.937C603.699 433.267 603.892 433.599 604.074 433.951C607.781 441.15 605.798 447.597 603.089 454.621C601.061 459.877 602.193 465.795 597.818 469.763C596.297 474.649 594.015 479.193 590.693 483.298C589.939 484.679 588.809 485.789 587.468 486.606C587.131 494.317 586.317 502.002 584.786 509.62C578.841 539.199 559.973 565.554 536.616 584.142C513.76 602.332 486.917 613.201 457.953 616.714C443.889 618.421 429.804 617.883 415.855 615.446L414.117 615.136C401.246 612.802 385.67 608.937 376.77 599.228C372.09 594.122 374.826 582.884 383.101 583.945C387.485 584.506 391.301 585.209 395.429 586.827C398.648 588.089 401.873 589.305 405.178 590.335C411.508 592.306 418.055 593.843 424.627 594.693C438.321 596.462 452.551 595.994 466.087 593.324C490.701 588.468 514.614 577.267 533.293 560.403C555.006 540.8 567.734 515.429 569.607 486.167C571.693 453.577 567.93 420.205 564.806 387.784C563.181 370.919 561.118 354.088 558.634 337.328C556.207 320.952 554.752 304.599 552.957 288.154ZM360.799 182.919L361.851 182.757C403.651 176.396 447.631 176.847 486.921 194.097C494.451 197.406 501.821 201.396 508.761 206.026C513.732 205.507 518.732 205.086 523.642 205.017C529.821 204.936 535.851 208.146 536.611 214.396C542.401 215.116 547.732 217.246 551.142 221.507C552.471 223.166 553.361 225.086 553.812 227.086C557.371 227.927 560.861 229.216 564.171 230.916C568.191 232.986 570.511 238.746 569.091 243.007C568.763 243.975 568.391 244.917 567.973 245.839L567.651 246.526L567.841 246.786C571.051 251.946 568.821 258.716 563.901 261.796C560.211 264.106 556.091 265.946 551.851 266.836C552.201 268.536 552.521 270.246 552.781 271.976C552.881 272.677 551.982 273.177 551.581 272.486C552.595 275.64 553.865 278.953 555.392 282.427C556.291 284.476 553.411 286.296 552.312 284.226C549.392 278.706 547.581 273.046 544.931 267.356C542.482 267.196 540.041 266.636 537.691 265.566C536.151 264.866 534.982 263.686 534.142 262.276C534.091 262.336 534.062 262.406 534.011 262.476C526.121 272.626 510.701 276.186 498.781 279.396C485.982 282.847 472.881 284.976 459.732 286.546C436.771 289.276 413.631 289.786 390.562 290.847C389.034 290.916 387.509 290.993 385.983 291.067C376.613 299.287 364.544 304.395 352.164 305.948C345.891 306.734 338.471 306.534 331.437 304.932C328.891 307.532 325.674 309.458 322.162 310.447C321.53 323.546 314.226 335.948 303.184 343.177L303.38 343.956C306.124 355.141 306.089 367.368 296.252 375.142C294.919 376.194 293.464 377.096 291.934 377.844L292.27 378.617C297.351 390.491 298.974 403.608 289.423 413.46C285.551 417.454 278.752 416.508 275.848 411.925L275.706 411.692C275.545 411.419 275.371 411.157 275.204 410.889C274.945 411.419 274.549 411.866 273.961 412.116C270.331 413.677 268.881 412.526 265.571 410.916C262.511 409.416 259.281 408.296 255.982 407.427C253.291 406.726 250.611 406.226 247.911 405.936C230.851 412.456 219.831 432.456 222.451 451.226C223.871 461.446 229.482 471.566 239.261 475.806C243.541 477.666 248.571 478.446 253.201 477.816C259.471 476.966 264.291 473.017 270.781 475.276C273.341 476.166 274.942 478.177 275.081 480.927C275.312 485.246 273.781 488.486 271.201 490.886C275.751 494.686 279.421 499.966 283.371 504.177C288.312 509.446 293.321 514.716 298.661 519.576C303.701 524.186 309.062 528.466 314.741 532.267L315.338 532.66C322.454 537.294 331.421 541.409 331.761 551.097C331.871 554.017 330.101 556.696 327.701 558.186C318.732 563.746 308.971 556.446 301.941 551.097C299.111 548.946 296.361 546.716 293.711 544.406C291.941 544.546 290.011 544.257 288.001 543.366C286.711 542.806 285.451 542.146 284.211 541.446C280.181 542.456 276.381 541.566 273.251 539.456C268.741 540.566 263.961 540.696 259.901 539.806C256.192 538.986 252.881 537.236 250.151 534.886C244.451 536.706 238.121 536.366 232.501 532.916C229.131 530.847 226.501 527.896 225.071 524.446C224.343 523.307 223.878 521.977 223.842 520.512L223.841 519.956C218.941 520.066 214.031 518.386 210.241 514.507C206.761 510.946 205.062 506.507 204.871 501.996C199.941 500.597 195.431 497.725 192.001 493.296C186.321 485.956 185.562 476.886 188.482 468.786C188.291 468.356 188.121 467.916 187.971 467.476C183.441 461.086 180.451 453.376 180.691 445.646C180.721 444.446 180.881 443.267 181.121 442.097C176.661 439.726 173.381 435.566 173.031 430.276C172.761 426.126 174.251 422.066 176.941 418.996C175.631 415.866 175.051 412.466 175.451 409.066C175.861 405.576 177.091 402.546 178.892 400.017C178.851 399.097 178.901 398.166 179.051 397.216C178.871 396.286 178.721 395.326 178.642 394.347C177.791 383.626 185.191 374.246 194.201 369.296C196.571 367.996 199.131 366.936 201.691 366.036C203.551 365.376 206.351 365.156 207.991 363.946C207.921 363.896 208.601 363.017 208.721 362.546C208.851 361.966 208.991 361.396 209.062 360.806C209.331 358.326 209.131 355.776 209.081 353.286C208.861 341.986 209.211 330.636 210.401 319.396C212.611 298.556 218.062 278.166 228.681 259.956C237.591 244.696 249.791 231.806 263.781 221.116C291.647 199.833 326.421 188.261 360.799 182.919ZM231.66 442.087C228.033 433.369 245.11 433.283 249.625 433.697L249.758 433.71C259.921 434.721 275.81 439.609 279.968 449.864C281.689 454.109 276.594 458.71 272.517 457.314C268.526 455.948 266.288 453.014 263.085 450.447C262.245 449.773 261.369 449.144 260.477 448.537C260.947 450.033 261.699 451.415 262.742 452.447L262.988 452.679C267.906 457.097 259.111 464.04 255.847 458.189C254.109 455.076 253.413 451.66 253.955 448.125C254.116 447.082 254.396 446.128 254.803 445.218C254.479 445.056 254.16 444.88 253.832 444.724L253.246 444.452C249.332 442.676 232.63 435.703 232.765 441.938C232.78 442.628 231.885 442.629 231.66 442.087Z" fill="black"/>
</svg>
