<svg width="284" height="284" viewBox="0 0 284 284" fill="none" xmlns="http://www.w3.org/2000/svg">
<path fill-rule="evenodd" clip-rule="evenodd" d="M164.884 243.932C172.443 242.88 180.571 238.599 187.791 242.078C191.166 243.704 192.768 249.265 190.486 252.356C187.001 257.077 183.403 257.858 177.746 258.312C173.505 258.652 169.241 258.677 165.011 258.188L163.935 258.056C156.387 257.082 148.542 254.975 142.695 249.903C141.499 248.865 142.112 246.623 143.647 246.299C150.591 244.838 157.855 244.911 164.884 243.932ZM155.987 226.526C155.984 226.465 156.077 226.465 156.08 226.526C156.263 230.846 157.477 234.851 159.721 238.547C159.752 238.6 159.671 238.647 159.64 238.595C157.395 234.896 156.17 230.85 155.987 226.526ZM179.814 137.367C187.366 141.957 198.872 152.66 190.748 164.04C181.186 174.073 167.419 162.569 160.634 157.366C154.343 153.334 147.275 163.705 153.112 168.413C202.136 204.708 222.031 138.568 183.634 131.971C179.406 131.244 177.836 135.947 179.814 137.367ZM218.464 86.0004C220.237 86.0004 221.933 86.6023 223.478 87.716C224.998 88.812 226.374 90.4118 227.52 92.407C229.689 96.1828 231.045 101.396 231.045 107.16C231.045 112.925 229.689 118.138 227.52 121.914C226.374 123.909 224.998 125.509 223.478 126.605C221.933 127.719 220.237 128.32 218.464 128.32C216.691 128.32 214.995 127.719 213.45 126.605C211.93 125.509 210.554 123.909 209.408 121.914C207.239 118.138 205.883 112.925 205.883 107.16C205.883 101.396 207.239 96.1828 209.408 92.407C210.554 90.4118 211.93 88.812 213.45 87.716C214.995 86.6023 216.691 86.0004 218.464 86.0004ZM136.347 91.88L137.014 91.7534C140.909 91.045 142.877 91.2835 146.269 93.938C148.818 95.933 148.088 99.862 146.269 101.96C143.1 105.616 140.005 104.968 135.665 105.108L135.36 105.119C131.743 105.266 128.123 105.369 124.503 105.424C123.513 105.44 122.522 105.436 121.532 105.442C121.637 114.603 116.355 121.578 109.399 126.881C104.903 130.31 99.2157 126.354 97.6117 122.086C96.2847 118.554 95.9997 114.211 96.6877 110.344C96.9426 108.919 97.4738 107.371 98.2862 106.052L98.5147 105.698L98.4777 105.192C98.4687 105.067 98.4777 104.946 98.4737 104.821C92.0162 104.429 85.596 103.781 79.178 102.967L77.0387 102.69C71.5607 101.965 63.5157 101.732 59.0827 98.169C58.9427 98.055 58.9927 97.806 59.1407 97.727C61.5777 96.4145 64.0502 96.4888 66.7756 96.3678L67.1667 96.349C70.1307 96.196 73.088 96.0683 76.0503 95.9668L79.0147 95.874C86.5967 95.657 94.1857 95.289 101.761 94.886C103.078 94.816 104.395 94.733 105.714 94.652C107.093 94.074 108.559 93.728 110.007 93.664C111.207 93.61 112.361 93.776 113.446 94.121C116.212 93.9072 118.978 93.6744 121.74 93.4241L124.503 93.168C128.401 92.797 132.499 92.635 136.347 91.88ZM184.215 23.2198C192.548 19.1248 202.68 19.0248 211.262 22.4138L211.831 22.6441C220.499 26.241 230.943 34.5492 228.681 44.8978C226.612 54.3698 211.755 52.7648 211.002 43.8118C206.205 37.1658 195.448 35.7078 188.686 39.9338C184.585 42.4978 181.77 46.8148 179.846 51.1688C178.206 54.8768 177.897 59.4558 175.378 62.6858C175.296 62.7908 175.132 62.8098 175.013 62.7818C167.501 61.0438 167.327 49.1068 168.608 43.3168C170.469 34.8988 176.442 27.0418 184.215 23.2198Z" fill="black"/>
</svg>
