<svg width="900" height="900" viewBox="0 0 900 900" fill="none" xmlns="http://www.w3.org/2000/svg">
<path fill-rule="evenodd" clip-rule="evenodd" d="M460.907 419.183C464.683 421.478 470.436 426.83 466.374 432.52C461.593 437.537 454.709 431.784 451.317 429.183C448.172 427.167 444.638 432.352 447.556 434.706C472.068 452.854 482.016 419.784 462.817 416.485C460.703 416.122 459.918 418.473 460.907 419.183ZM426.794 375.415L427.733 375.251L428.214 375.169C431.026 374.704 434.359 374.393 436.302 376.601C437.391 377.839 437.766 380.14 436.302 381.325C433.726 383.41 430.878 382.602 427.79 382.778C425.246 382.924 422.801 383.345 420.351 384.046C414.975 385.582 410.594 388.387 406.003 391.467C405.4 391.871 404.785 391.101 405.073 390.537C407.723 385.346 412.86 381.081 418.005 378.482C420.751 377.094 423.756 375.943 426.794 375.415ZM451.663 447.135C459.879 447.732 477.684 443.81 485.077 449.693C512.94 484.486 402.475 493.432 414.405 454.938C422.004 442.492 439.481 447.494 451.663 447.135ZM450.254 468.14C448.222 467.974 445.756 469.584 445.16 470.827C444.563 472.071 444.794 474.7 444.812 475.156C448.364 475.514 451.948 475.568 455.51 475.335C454.585 472.273 454.555 468.603 450.254 468.14ZM466.657 473.276C466.086 469.476 463.368 468.576 461.168 469.146C458.918 469.729 457.597 472.32 457.74 474.627C457.749 474.786 457.657 474.921 457.597 475.049C460.656 474.687 463.686 474.092 466.657 473.276ZM441.46 468.828C440.179 466.879 437.118 465.938 435.158 466.282C431.956 466.956 431.577 471.024 431.577 471.853C434.529 472.978 437.662 473.725 440.658 474.32C441.26 474.439 441.863 474.546 442.467 474.646L442.506 474.152C442.579 473.094 442.633 470.612 441.46 468.828ZM477.675 468.507C474.392 463.428 467.336 467.064 467.919 472.612C468.546 472.414 469.17 472.208 469.791 471.992C472.37 471.093 475.199 470.024 477.675 468.507ZM451.832 451.008C447.416 450.611 443.794 450.745 440.914 451.279L440.826 452.241C440.508 455.576 440.097 458.856 441.848 460.198C443.271 461.288 447.992 461.184 451.158 460.395C451.94 460.198 452.957 453.28 451.832 451.008ZM458.661 450.611C457.953 453.898 457.62 457.889 459.041 459.075C460.542 460.327 465.372 460.158 466.636 459.324C467.741 458.594 467.713 455.237 467.303 451.468C464.856 450.892 460.596 450.611 458.661 450.611ZM438.961 451.312L437.515 451.325L436.696 451.336C434.627 451.373 432.394 451.491 430.283 451.952C426.09 461.014 441.403 462.578 439.038 451.647L438.961 451.312ZM469.251 451.531L469.224 452.044C469.098 454.589 469.182 457.941 470.592 458.846C472.667 460.178 476.563 459.921 478.674 453.761C477.975 451.924 470.567 451.665 469.251 451.531ZM428.612 397.5C429.498 397.5 430.347 397.801 431.119 398.358C431.879 398.906 432.567 399.706 433.14 400.703C434.225 402.591 434.903 405.198 434.903 408.08C434.903 410.962 434.225 413.569 433.14 415.457C432.567 416.455 431.879 417.254 431.119 417.802C430.347 418.359 429.498 418.66 428.612 418.66C427.725 418.66 426.877 418.359 426.105 417.802C425.345 417.254 424.657 416.455 424.084 415.457C422.999 413.569 422.321 410.962 422.321 408.08C422.321 405.198 422.999 402.591 424.084 400.703C424.657 399.706 425.345 398.906 426.105 398.358C426.877 397.801 427.725 397.5 428.612 397.5ZM484.732 397.5C485.619 397.5 486.467 397.801 487.239 398.358C487.999 398.906 488.687 399.706 489.26 400.703C490.345 402.591 491.023 405.198 491.023 408.08C491.023 410.962 490.345 413.569 489.26 415.457C488.687 416.455 487.999 417.254 487.239 417.802C486.467 418.359 485.619 418.66 484.732 418.66C483.846 418.66 482.998 418.359 482.225 417.802C481.465 417.254 480.777 416.455 480.204 415.457C479.12 413.569 478.442 410.962 478.442 408.08C478.442 405.198 479.12 402.591 480.204 400.703C480.777 399.706 481.465 398.906 482.225 398.358C482.998 397.801 483.846 397.5 484.732 397.5ZM477.097 373.09L477.815 373.237L478.292 373.338C486.042 375.005 495.867 378.291 499.494 385.815C499.636 386.901 499.486 387.134 499.365 387.286L499.325 387.337C499.225 387.466 499.145 387.645 498.675 387.793C498.544 387.762 498.412 387.729 498.279 387.694C496.582 387.25 495.239 386.637 493.939 386.001L492.529 385.307C490.894 384.505 489.244 383.732 487.496 383.162C483.765 381.945 479.927 381.087 476.03 380.63C475.185 380.531 474.372 380.246 473.73 379.757C473.121 379.293 472.656 378.651 472.444 377.798C472.169 376.693 472.248 375.857 472.84 374.86C473.286 374.112 473.924 373.593 474.656 373.296C475.402 372.992 476.252 372.92 477.097 373.09Z" fill="black"/>
</svg>
