<svg width="284" height="284" viewBox="0 0 284 284" fill="none" xmlns="http://www.w3.org/2000/svg">
<path fill-rule="evenodd" clip-rule="evenodd" d="M159.365 180.517C171.755 180.457 190.315 180.097 202.695 180.827C206.265 181.037 208.025 186.137 208.275 188.557C210.645 211.047 192.685 228.987 172.855 235.937C154.455 242.387 130.155 243.607 113.745 231.557C106.615 226.327 101.215 219.077 97.6945 211.007C95.7945 206.657 94.4045 202.147 93.6345 197.467C93.0445 193.897 91.9245 189.087 93.2345 185.577C95.0345 180.787 100.045 181.127 104.335 181.047C110.255 180.927 116.175 180.776 122.085 180.707C134.515 180.566 146.945 180.566 159.365 180.517ZM193.735 187.066C188.165 187.667 126.665 188.106 117.165 188.316C115.735 188.347 114.235 188.316 112.715 188.276C111.662 191.534 114.395 198.242 117.335 199.407C120.275 200.571 145.135 201.714 159.815 201.044C169.825 200.594 195.791 194.526 195.791 191.923C195.791 189.319 194.685 186.967 193.735 187.066ZM69.3439 129.376C71.2569 128.364 73.0459 129.674 73.2939 131.642C73.7929 135.593 71.7069 139.723 71.6019 143.792C71.4889 148.143 71.9619 152.49 71.8159 156.841C71.5609 164.44 69.2909 172.069 64.9009 178.327C59.6609 185.796 45.8399 193.953 39.2439 183.141C34.5009 175.367 38.2289 164.029 41.6809 156.528C44.3879 150.648 48.3249 145.211 52.7349 140.489C55.6699 137.345 61.8389 130.263 66.5809 130.975C66.7629 131.002 66.8449 131.221 66.8099 131.379C66.7779 131.518 66.7249 131.641 66.6819 131.773C67.3679 130.796 68.2309 129.964 69.3439 129.376ZM65.7329 133.459C64.8919 134.462 63.7489 135.264 62.7809 136.245C60.7219 138.331 58.6759 140.425 56.8299 142.706C53.4649 146.863 50.6869 151.508 48.4839 156.376C45.8569 162.178 41.5309 172.125 44.6159 178.576C46.2699 182.033 50.5259 181.413 53.3959 179.73C58.7579 176.587 61.9209 169.88 63.4229 164.112C65.0979 157.678 64.1189 151.149 64.1499 144.6C64.1649 141.255 64.2259 136.841 65.7329 133.459ZM221.999 119.183C222.091 116.71 224.572 115.396 226.725 116.471C230.414 118.314 231.97 122.058 234.007 125.491C236.369 129.472 238.732 133.454 241.094 137.435C245.262 144.46 250.952 151.957 253.052 159.946C256.156 171.754 245.91 180.42 234.553 177.884C222.702 175.238 218.302 161.456 218.552 150.691C218.683 145.056 219.998 139.333 221.108 133.83C221.761 130.592 221.986 127.075 222.824 123.828C222.268 122.292 221.941 120.738 221.999 119.183ZM161.814 129.367C159.836 127.947 161.406 123.243 165.634 123.97C204.031 130.567 184.136 196.708 135.112 160.413C129.275 155.704 136.343 145.334 142.634 149.366C149.418 154.569 163.186 166.073 172.748 156.039C180.872 144.66 169.366 133.957 161.814 129.367ZM227.753 132.525C227.279 135.687 226.57 138.729 226.241 140.975C224.944 149.816 224.025 161.298 231.333 167.986C234.426 170.817 239.8 171.866 243.394 169.195C248.651 165.289 243.132 157.777 240.679 153.765C237.055 147.839 233.486 141.884 229.941 135.911C229.299 134.829 228.54 133.695 227.753 132.525ZM87.1223 86.5971C99.6773 84.5671 113.26 92.8361 117.643 104.755C118.749 107.762 116.912 111.486 114.279 113.024C111.241 114.798 107.994 113.938 105.406 111.879C101.928 109.113 100.274 104.67 96.4543 102.156C93.2223 100.028 88.8903 99.9161 85.1743 100.531C76.4363 101.977 69.5683 107.616 61.5873 110.91C60.4683 111.372 59.8133 109.937 60.1893 109.092C65.0233 98.2281 75.1163 88.5381 87.1223 86.5971ZM208.841 86.1056C218.876 85.2446 230.833 89.5916 234.007 99.9176C234.083 100.166 233.822 100.458 233.563 100.362C227.491 98.1106 220.776 96.7426 214.285 97.8876C210.105 98.6256 201.854 101.585 201.538 106.38C201.049 113.774 192.471 115.593 188.292 109.967C184.228 104.495 187.725 97.0106 192.215 93.0556C196.923 88.9096 202.631 86.6386 208.841 86.1056ZM112.603 44.2012C114.782 46.6772 115.532 51.2792 112.603 53.6492C107.451 57.8192 101.755 56.2032 95.5808 56.5562C90.4928 56.8482 85.6028 57.6902 80.7018 59.0912C69.9498 62.1642 61.1888 67.7742 52.0058 73.9342C50.8008 74.7422 49.5708 73.2012 50.1458 72.0742C55.4468 61.6912 65.7198 53.1622 76.0098 47.9632C81.5018 45.1882 87.5118 42.8862 93.5878 41.8302L95.4652 41.5016C101.273 40.4972 108.494 39.532 112.603 44.2012ZM194.193 37.1791L195.63 37.4732C211.267 40.7418 231.583 47.2711 238.988 62.6306C239.271 64.8025 238.972 65.2679 238.73 65.572L238.649 65.6733C238.449 65.9329 238.29 66.2909 237.349 66.5865C237.087 66.5243 236.824 66.4584 236.557 66.3885C233.163 65.499 230.477 64.2735 227.877 63.002L225.058 61.6132C221.788 60.0096 218.488 58.4643 214.992 57.3235C207.529 54.8896 199.854 53.175 192.06 52.2595C190.37 52.0612 188.744 51.4911 187.46 50.5139C186.242 49.5864 185.311 48.3022 184.887 46.5953C184.337 44.3862 184.495 42.7137 185.68 40.7208C186.572 39.2242 187.847 38.1868 189.311 37.5912C190.804 36.9839 192.503 36.8407 194.193 37.1791Z" fill="black"/>
</svg>
