<svg width="900" height="900" viewBox="0 0 900 900" fill="none" xmlns="http://www.w3.org/2000/svg">
<path fill-rule="evenodd" clip-rule="evenodd" d="M466.942 472.966C470.722 472.44 474.786 470.3 478.396 472.039C480.083 472.852 480.884 475.633 479.743 477.178C478.001 479.539 476.202 479.929 473.373 480.156C471.253 480.326 469.121 480.338 467.006 480.094L466.468 480.028C462.694 479.541 458.771 478.487 455.848 475.951C455.25 475.432 455.556 474.311 456.324 474.149C459.796 473.419 463.428 473.456 466.942 472.966ZM462.494 464.263C462.492 464.233 462.539 464.233 462.54 464.263C462.632 466.423 463.239 468.425 464.361 470.273C464.376 470.3 464.336 470.324 464.32 470.298C463.198 468.448 462.585 466.425 462.494 464.263ZM474.407 419.684C478.183 421.979 483.936 427.33 479.874 433.02C475.093 438.036 468.21 432.284 464.817 429.683C461.672 427.667 458.138 432.852 461.056 435.206C485.568 453.354 495.516 420.284 476.317 416.985C474.203 416.622 473.418 418.974 474.407 419.684ZM493.732 394C494.619 394 495.467 394.301 496.239 394.858C496.999 395.406 497.687 396.206 498.26 397.203C499.345 399.091 500.023 401.698 500.023 404.58C500.023 407.463 499.345 410.069 498.26 411.957C497.687 412.955 496.999 413.755 496.239 414.303C495.467 414.86 494.619 415.16 493.732 415.16C492.846 415.16 491.998 414.86 491.225 414.303C490.465 413.755 489.777 412.955 489.204 411.957C488.12 410.069 487.442 407.463 487.442 404.58C487.442 401.698 488.12 399.091 489.204 397.203C489.777 396.206 490.465 395.406 491.225 394.858C491.998 394.301 492.846 394 493.732 394ZM452.674 396.94L453.007 396.877C454.955 396.523 455.939 396.642 457.635 397.969C458.909 398.967 458.544 400.931 457.635 401.98C456.05 403.808 454.503 403.484 452.333 403.554L452.18 403.56C450.372 403.633 448.562 403.685 446.752 403.712C446.257 403.72 445.761 403.718 445.266 403.721C445.319 408.302 442.678 411.789 439.2 414.44C436.952 416.155 434.108 414.177 433.306 412.043C432.642 410.277 432.5 408.106 432.844 406.172C432.971 405.46 433.237 404.686 433.643 404.026L433.757 403.849L433.739 403.596C433.734 403.534 433.739 403.473 433.737 403.41C430.508 403.214 427.298 402.891 424.089 402.484L423.019 402.345C420.28 401.983 416.258 401.866 414.041 400.084C413.971 400.027 413.996 399.903 414.07 399.863C415.289 399.207 416.525 399.244 417.888 399.184L418.083 399.174C419.565 399.098 421.044 399.034 422.525 398.983L424.007 398.937C427.798 398.829 431.593 398.645 435.381 398.443C436.039 398.408 436.698 398.367 437.357 398.326C438.047 398.037 438.78 397.864 439.504 397.832C440.104 397.805 440.681 397.888 441.223 398.061C442.606 397.954 443.989 397.837 445.37 397.712L446.752 397.584C448.701 397.398 450.75 397.317 452.674 396.94ZM476.608 362.61C480.774 360.562 485.84 360.512 490.131 362.207L490.416 362.322C494.75 364.12 499.972 368.275 498.841 373.449C497.806 378.185 490.378 377.382 490.001 372.906C487.603 369.583 482.224 368.854 478.843 370.967C476.793 372.249 475.385 374.407 474.423 376.584C473.603 378.438 473.449 380.728 472.189 382.343C472.148 382.395 472.066 382.405 472.007 382.391C468.251 381.522 468.164 375.553 468.804 372.658C469.735 368.449 472.721 364.521 476.608 362.61Z" fill="black"/>
</svg>
