<svg width="900" height="900" viewBox="0 0 900 900" fill="none" xmlns="http://www.w3.org/2000/svg">
<path fill-rule="evenodd" clip-rule="evenodd" d="M431.664 265.263C464.09 265.263 504.701 302.251 516.587 317.992C526.58 331.225 525.167 399.399 525.167 439.841C525.167 448.299 521.343 464.306 519.956 472.397C514.87 502.043 492.711 526.908 448.854 526.908C413.143 526.908 385.662 515.597 359.087 486.667C353.025 480.067 323.416 503.694 317.361 495.185C301.544 495.185 288.319 347.407 319.373 303.081C350.426 258.756 399.238 265.263 431.664 265.263Z" fill="white"/>
<path fill-rule="evenodd" clip-rule="evenodd" d="M334.206 275.673C352.943 258.626 377.904 250.426 403.088 251.031C416.131 251.345 429.129 253.829 441.447 258.084C447.608 260.22 453.576 263.006 459.281 266.159C461.337 267.292 463.232 268.62 465.057 270.03L465.511 270.385H465.517C470.411 272.144 474.78 275.302 478.743 278.996C486.686 278.362 494.693 279.076 502.374 281.526C513.064 284.941 522.961 291.194 529.91 300.074C538.006 310.412 540.697 322.952 539.737 335.897L539.56 338.096C538.61 349.532 536.909 364.24 527.523 371.755C526.81 372.326 526.021 372.76 525.205 373.022C531.252 383.381 536.215 394.883 539.185 406.498C550.52 450.864 541.806 497.132 528.174 539.894C527.055 543.417 521.727 545.758 519.015 542.315C514.172 536.159 507.136 531.465 499.221 530.585C494.339 530.043 489.479 531.025 484.865 528.809C483.054 527.935 481.307 526.508 480.051 524.772C472.261 527.724 463.872 529.117 455.552 528.775C441.898 528.215 427.301 523.487 417.907 513.116C416.4 511.452 416.018 509.582 416.365 507.898C417.543 507.478 418.752 507.165 419.999 506.969C431.911 513.989 445.042 518.681 459.154 518.975C467.308 519.146 475.262 518.005 481.874 512.914C483.305 511.811 484.62 510.591 485.837 509.28C499.661 500.387 509.407 485.283 514.041 469.104C518.358 454.017 517.827 438.307 516.342 422.831L515.559 414.664C514.417 402.678 513.358 390.656 513.061 378.619L513.15 378.614C516.07 378.426 516.091 373.856 513.15 374.046C505.544 374.538 497.996 373.29 490.413 373.834C490.35 370.249 490.092 366.681 489.038 363.223C488.437 361.248 484.997 360.859 484.633 363.223C484.145 366.387 483.967 369.533 483.914 372.711C472.566 372.56 461.229 371.606 449.88 371.998C447.787 369.765 447.12 365.806 446.141 363.052C445.998 362.646 445.855 362.246 445.707 361.841C444.846 365.777 443.627 369.626 442.022 373.395L439.238 373.404C423.446 373.478 407.332 373.95 391.91 377.23C390.838 376.407 390.2 374.971 390.028 373.668C388.91 365.184 387.313 356.926 384.483 348.841L384.079 347.701C384.046 347.606 384.011 347.505 383.974 347.4C381.889 350.765 379.401 353.902 376.688 356.823C375.089 358.545 373.413 360.191 371.692 361.791C370.021 363.647 368.293 365.475 366.619 367.336C366.684 367.675 366.741 368.019 366.788 368.369C367.3 372.232 367.353 376.15 366.978 380.028C366.299 387.039 364.32 393.795 361.14 400.045L361.04 400.67C360.557 403.599 359.87 406.626 358.266 408.832C360.268 411.075 361.81 413.754 362.705 416.731C363.501 419.381 359.834 421.678 357.932 419.509C356.422 417.786 354.743 416.361 352.9 415.223C352.783 415.381 352.573 415.459 352.337 415.327C347.204 412.477 338.483 413.34 333.355 416.024C326.976 419.359 324.487 426.206 325.195 433.144C325.874 439.774 328.775 447.524 334.4 450.921C336.981 452.48 338.992 452.612 341.733 451.864C342.609 451.626 343.696 450.895 344.163 450.533L344.621 450.165C346.418 448.745 348.092 447.772 350.213 447.735C352.383 447.058 354.563 447.996 355.393 450.272L355.444 450.419C355.832 451.578 356.541 453.034 356.386 454.805C356.226 456.701 355.358 458.425 354.062 459.813C353.839 460.053 353.6 460.293 353.354 460.515C375.683 484.689 378.549 522.356 367.1 552.554C366.603 553.879 366.072 555.187 365.518 556.483C363.605 560.926 356.238 559.55 355.301 555.147C355.021 553.827 354.713 552.514 354.376 551.212C353.757 548.806 353.048 546.422 352.248 544.073L351.943 543.194C351.264 541.253 350.63 539.294 349.945 537.352L349.876 537.13C349.85 537.042 349.822 536.941 349.791 536.827L348.631 539.357L345.108 546.992C343.459 550.555 338.221 548.618 338.026 545.185L338.021 545.067C338.004 544.433 337.981 543.805 337.941 543.183C337.69 538.517 336.884 533.983 335.605 529.546L335.144 530.119C328.272 538.615 320.206 546.579 309.142 548.539C306.367 549.031 303.226 546.13 305.133 543.326C305.921 542.166 306.681 540.979 307.4 539.774C306.778 539.482 306.19 539.18 305.647 538.871C301.45 536.513 297.955 533.155 295.065 529.346C288.938 521.271 286.745 511.106 286.208 501.158C285.637 490.645 286.562 479.56 289.435 469.418C290.679 465.032 292.364 460.824 294.311 456.741C294.174 456.375 294.043 456.01 293.912 455.644C291.81 449.785 290.086 443.795 288.652 437.736C285.763 425.503 284.209 412.883 284.021 400.314C283.678 377.796 287.561 354.92 295.745 333.921C304.197 312.267 316.909 291.406 334.206 275.673ZM323.681 472.542C322.13 470.098 318.247 472.3 319.687 474.761L319.741 474.849C322.202 478.727 323.356 483.135 324.772 487.458C325.68 490.239 330.094 489.052 329.175 486.242L328.871 485.304C327.462 480.92 326.176 476.465 323.681 472.542ZM337.199 425.897L338.23 425.398C341.482 423.846 344.332 422.789 348.174 424.144C353.32 425.954 358.83 431.716 355.353 437.307C354.074 439.369 351.801 440.191 349.459 439.706C345.512 438.887 344.494 435.332 342.491 432.414L342.146 431.92C340.925 430.155 339.381 427.714 337.347 427.022C336.884 426.862 336.69 426.143 337.199 425.897ZM340.099 307.196L340.431 306.899C342.641 304.946 339.397 301.725 337.199 303.666C327.136 312.558 323.641 326.475 318.422 338.336C317.251 341.003 321.186 343.333 322.368 340.643C327.347 329.324 330.652 315.786 340.099 307.196ZM461.018 303.307C458.388 302.122 456.088 305.948 458.616 307.208L458.71 307.253C467.596 311.267 471.376 320.359 474.997 328.799C476.15 331.494 480.085 329.17 478.943 326.498L478.289 324.983C474.512 316.285 470.106 307.419 461.018 303.307ZM474.945 297.813C472.159 296.848 470.965 301.256 473.729 302.222C481.261 304.843 486.429 310.496 490.787 316.961C492.42 319.382 496.378 317.098 494.728 314.654C489.668 307.15 483.66 300.851 474.945 297.813Z" fill="black"/>
</svg>
