<svg width="788" height="788" viewBox="0 0 788 788" fill="none" xmlns="http://www.w3.org/2000/svg">
<path fill-rule="evenodd" clip-rule="evenodd" d="M419.576 153.977C476.357 153.977 547.472 218.748 568.286 246.311C585.785 269.484 583.309 388.865 583.309 459.682C583.309 474.493 576.614 502.524 574.184 516.692C565.278 568.606 526.475 612.146 449.677 612.146C387.144 612.146 339.022 592.339 292.486 541.68C281.87 530.123 230.021 571.497 219.418 556.597C191.721 556.597 168.562 297.82 222.941 220.201C277.319 142.583 362.795 153.977 419.576 153.977Z" fill="white"/>
<path fill-rule="evenodd" clip-rule="evenodd" d="M248.916 172.205C281.726 142.355 325.436 127.995 369.536 129.055C392.376 129.605 415.136 133.955 436.706 141.405C447.496 145.145 457.946 150.025 467.936 155.545C471.536 157.529 474.855 159.855 478.05 162.324L478.846 162.945H478.856C487.426 166.025 495.076 171.555 502.016 178.025C515.926 176.915 529.946 178.165 543.396 182.455C562.116 188.435 579.446 199.385 591.616 214.935C605.792 233.038 610.505 254.997 608.824 277.665L608.513 281.516C606.85 301.541 603.871 327.297 587.436 340.455C586.186 341.455 584.806 342.215 583.376 342.675C593.966 360.815 602.656 380.955 607.856 401.295C627.706 478.985 612.446 560.005 588.576 634.885C586.616 641.055 577.286 645.155 572.536 639.125C564.056 628.345 551.736 620.125 537.876 618.585C529.326 617.635 520.816 619.355 512.736 615.475C509.566 613.945 506.506 611.445 504.306 608.405C490.666 613.575 475.976 616.015 461.406 615.415C437.496 614.435 411.936 606.155 395.486 587.995C392.846 585.08 392.177 581.807 392.785 578.857C394.848 578.121 396.966 577.573 399.148 577.23C420.008 589.524 443.002 597.739 467.714 598.255C481.993 598.553 495.921 596.556 507.499 587.64C510.004 585.71 512.308 583.573 514.438 581.277C538.645 565.705 555.712 539.256 563.826 510.925C571.386 484.505 570.456 456.995 567.856 429.895L566.485 415.594C564.485 394.605 562.63 373.553 562.11 352.475L562.267 352.467C567.379 352.137 567.416 344.134 562.267 344.467C548.948 345.329 535.73 343.144 522.452 344.096C522.341 337.819 521.889 331.57 520.044 325.516C518.991 322.057 512.968 321.375 512.33 325.516C511.476 331.056 511.164 336.565 511.071 342.13C491.2 341.866 471.348 340.194 451.474 340.881C447.808 336.971 446.641 330.038 444.926 325.215C444.676 324.505 444.426 323.805 444.166 323.095C442.659 329.987 440.524 336.728 437.714 343.327L432.839 343.343C405.185 343.473 376.967 344.299 349.962 350.043C348.085 348.602 346.968 346.088 346.666 343.805C344.708 328.949 341.912 314.488 336.957 300.331L336.249 298.334C336.191 298.168 336.129 297.992 336.065 297.807C332.414 303.7 328.058 309.193 323.307 314.308C320.507 317.323 317.571 320.206 314.558 323.007C311.631 326.257 308.606 329.458 305.674 332.718C305.789 333.311 305.889 333.913 305.97 334.526C306.867 341.291 306.96 348.152 306.303 354.943C305.115 367.22 301.649 379.05 296.081 389.994L295.905 391.089C295.06 396.218 293.857 401.519 291.047 405.381C294.553 409.309 297.254 414.001 298.82 419.214C300.214 423.855 293.793 427.877 290.463 424.079C287.818 421.062 284.879 418.565 281.651 416.573C281.447 416.85 281.079 416.986 280.666 416.755C271.676 411.765 256.406 413.275 247.426 417.975C236.256 423.815 231.896 435.805 233.136 447.955C234.326 459.565 239.406 473.135 249.256 479.085C253.776 481.815 257.296 482.045 262.096 480.735C263.631 480.318 265.534 479.039 266.351 478.404L267.154 477.76C270.301 475.273 273.232 473.57 276.946 473.505C280.746 472.32 284.564 473.963 286.017 477.947L286.106 478.205C286.786 480.235 288.026 482.785 287.756 485.885C287.476 489.205 285.956 492.225 283.686 494.655C283.296 495.075 282.876 495.495 282.446 495.885C321.546 538.215 326.566 604.175 306.516 657.055C305.646 659.375 304.716 661.665 303.746 663.935C300.396 671.715 287.496 669.305 285.856 661.595C285.366 659.285 284.826 656.985 284.236 654.705C283.152 650.491 281.91 646.317 280.509 642.204L279.976 640.665C278.786 637.265 277.676 633.835 276.476 630.435L276.356 630.046C276.311 629.892 276.261 629.715 276.206 629.515L274.176 633.945L268.006 647.315C265.119 653.554 255.946 650.163 255.605 644.151L255.596 643.945C255.566 642.835 255.526 641.735 255.456 640.645C255.016 632.475 253.606 624.535 251.366 616.765L250.558 617.769C238.524 632.647 224.401 646.592 205.026 650.025C200.166 650.885 194.666 645.805 198.006 640.895C199.386 638.865 200.716 636.785 201.976 634.675C200.886 634.165 199.856 633.635 198.906 633.095C191.556 628.965 185.436 623.085 180.376 616.415C169.646 602.275 165.806 584.475 164.866 567.055C163.866 548.645 165.486 529.235 170.516 511.475C172.696 503.795 175.646 496.425 179.056 489.275C178.816 488.635 178.586 487.995 178.356 487.355C174.676 477.095 171.656 466.605 169.146 455.995C164.086 434.575 161.366 412.475 161.036 390.465C160.436 351.035 167.236 310.975 181.566 274.205C196.366 236.285 218.626 199.755 248.916 172.205ZM230.486 516.945C227.769 512.666 220.969 516.522 223.492 520.831L223.586 520.985C227.896 527.775 229.916 535.495 232.396 543.065C233.986 547.935 241.716 545.855 240.106 540.935L239.573 539.292C237.106 531.615 234.854 523.814 230.486 516.945ZM254.156 435.265L255.962 434.391C261.657 431.673 266.647 429.822 273.376 432.195C282.386 435.365 292.036 445.455 285.946 455.245C283.706 458.855 279.726 460.295 275.626 459.445C268.714 458.011 266.931 451.787 263.423 446.677L262.82 445.812C260.681 442.72 257.977 438.446 254.416 437.235C253.606 436.955 253.266 435.695 254.156 435.265ZM259.235 227.406L259.816 226.885C263.686 223.465 258.006 217.825 254.156 221.225C236.536 236.795 230.416 261.165 221.276 281.935C219.226 286.605 226.116 290.685 228.186 285.975C236.905 266.155 242.692 242.447 259.235 227.406ZM470.977 220.595C466.373 218.52 462.345 225.22 466.771 227.426L466.936 227.505C482.496 234.535 489.116 250.455 495.456 265.235C497.476 269.955 504.366 265.885 502.366 261.205L501.222 258.553C494.607 243.321 486.891 227.796 470.977 220.595ZM495.366 210.975C490.486 209.285 488.396 217.005 493.236 218.695C506.426 223.285 515.476 233.185 523.106 244.505C525.966 248.745 532.897 244.745 530.007 240.465C521.147 227.325 510.626 216.295 495.366 210.975Z" fill="black"/>
</svg>
