<svg width="900" height="900" viewBox="0 0 900 900" fill="none" xmlns="http://www.w3.org/2000/svg">
<path fill-rule="evenodd" clip-rule="evenodd" d="M515.724 333.78C481.385 311.05 412.59 313.519 374.789 327.445C337.905 339.142 324.991 371.736 318.867 406.949C311.423 446.526 312.424 503.577 365.952 502.887C373.477 506.526 381.814 508.105 389.601 511.119C400.258 514.803 410.707 519.08 421.522 522.308C442.821 529.167 466.523 528.57 486.728 518.533C497.89 513.141 502.511 504.743 509.811 495.795C531.049 469.763 541.736 432.507 540.779 399.407C539.099 376.099 535.244 349.117 515.724 333.78Z" fill="white"/>
<path fill-rule="evenodd" clip-rule="evenodd" d="M559.179 429.724C555.655 407.852 554.679 385.609 550.064 363.909C545.724 343.488 537.609 324.191 523.43 308.624C510.741 294.696 494.334 284.468 476.722 277.986C442.413 265.36 402.952 268.215 369.762 282.955C338.696 296.746 313.917 322.261 299.475 352.882C290.092 372.778 285.375 393.93 283.28 415.762C280.955 440.015 280.704 464.519 279.756 488.858C279.642 491.862 279.476 494.866 279.436 497.87C279.391 501.159 280.721 504.043 281.806 507.104C281.88 507.321 281.989 507.527 282.12 507.721C281.304 507.823 280.487 507.943 279.67 508.074C278.757 508.217 278.797 509.702 279.67 509.879C287.066 511.387 294.667 511.598 302.188 511.969C309.983 512.357 317.789 512.569 325.595 512.831C333.208 513.088 340.82 513.345 348.432 513.602C352.43 513.739 356.427 513.876 360.425 514.008C362.326 514.071 364.228 514.14 366.135 514.202C367.083 514.237 368.037 514.264 368.985 514.299C369.756 514.322 371.012 514.813 371.092 514.248C371.235 514.334 371.389 514.407 371.555 514.459C371.738 514.556 371.915 514.67 372.086 514.796C373.017 515.435 374.427 515.356 375.37 514.796C375.455 514.744 375.547 514.687 375.638 514.63C376.34 514.213 376.832 513.608 377.106 512.923C381.012 517.64 387.927 512.34 383.93 507.349C381.783 504.665 360.425 438.861 369.265 388.733L404.717 384.039C409.038 383.601 415.219 382.946 423.259 382.074C425.228 375.652 426.493 371.407 427.057 369.34C427.12 369.111 427.182 368.877 427.251 368.649C428.096 370.14 428.947 371.624 429.804 373.109L434.178 382C477.221 381.281 504.019 380.955 514.573 381.024C514.841 381.024 516.115 400.269 515.538 408.743C514.373 425.761 513.134 442.767 511.409 459.739C510.308 470.607 507.655 481.265 503.702 491.281C497.46 507.104 479.332 522.143 461.658 522.143C450.656 522.143 425.795 513.232 422.174 511.433C418.554 509.633 416.396 514.545 419.696 516.509C426.379 520.488 444.803 528.93 461.658 528.93C486.135 528.93 504.613 505.705 506.88 502.375C529.169 501.154 551.966 501.718 574.226 503.929C576.094 504.111 577.704 501.861 577.104 500.142C569.109 477.26 563.028 453.658 559.179 429.724Z" fill="black"/>
</svg>
