<svg width="788" height="788" viewBox="0 0 788 788" fill="none" xmlns="http://www.w3.org/2000/svg">
<path fill-rule="evenodd" clip-rule="evenodd" d="M597.867 178.178C587.566 140.992 548.191 124.766 512.729 122.191C416.715 112.21 318.985 165.734 276.419 252.525C242.346 318.428 241.279 387.658 314.521 425.287C318.521 427.492 322.698 429.849 326.964 431.989C330.67 435.435 334.487 438.746 338.653 441.526C378.536 467.752 427.487 479.095 474.925 476.635C544.966 475.223 569.97 427.696 585.271 366.747C601.409 306.068 610.434 240.226 597.867 178.178Z" fill="white"/>
<path fill-rule="evenodd" clip-rule="evenodd" d="M643.844 528.684C640.574 518.794 636.474 509.204 632.644 499.514C631.834 494.684 631.294 489.814 631.155 484.904C630.624 467.364 633.905 449.674 637.584 432.594C645.064 397.884 652.994 363.534 656.974 328.184C664.084 264.954 659.854 199.204 631.094 141.484C606.174 91.4841 563.944 50.5941 509.394 35.2741C493.268 30.7431 476.671 28.2441 459.96 27.2461C457.891 26.9171 455.825 26.5951 453.769 26.2851C430.525 22.7811 406.995 21.0351 383.501 22.5461C344.541 25.0531 305.945 36.2491 273.497 58.3931C240.828 80.6901 217.616 111.954 206.815 150.087C195.579 189.757 196.532 232.72 177.129 269.912C171.397 280.9 164.706 291.346 158.325 301.966C141.394 320.857 123.012 341.858 118.984 367.833C114.014 399.934 132.484 427.064 149.964 452.114C165.764 474.734 187.204 505.974 170.944 533.824C163.274 546.964 150.984 556.794 141.754 568.774C132.184 581.214 124.714 595.494 120.854 610.754C113.604 639.413 120.274 669.284 139.664 691.684C149.764 703.344 162.734 711.054 176.774 717.064C191.144 723.204 205.184 729.034 217.064 739.484C222.494 744.254 227.464 749.484 232.164 754.964C236.544 761.814 241.644 768.214 247.394 774.074C253.724 780.524 266.124 771.694 260.314 764.104C259.884 763.544 259.464 762.994 259.034 762.434C254.784 756.894 250.514 751.354 246.044 745.994C232.714 724.873 227.584 699.014 234.214 674.344C235.934 667.934 238.354 661.854 241.365 656.114C242.004 657.784 242.704 659.434 243.444 661.064C246.324 667.384 250.365 674.873 255.504 681.274C255.704 685.663 256.365 690.014 257.644 694.274C265.564 720.684 292.044 733.714 315.924 743.854C318.264 744.854 320.574 745.814 322.844 746.764C329.084 749.373 335.684 740.484 331.794 735.123C330.774 733.714 329.784 732.274 328.844 730.814C317.644 713.474 312.314 692.734 315.334 672.074C318.514 650.224 331.394 632.144 344.184 614.794C356.744 597.734 370.234 580.324 375.854 559.514C382.074 536.524 376.414 513.604 366.814 492.444C358.024 473.081 346.315 455.234 336.496 436.404C339.858 439.757 343.327 443 346.901 446.128C350.92 449.646 355.049 453.672 359.812 456.152C363.334 457.985 366.862 453.597 364.073 450.63C360.407 446.732 355.716 443.72 351.645 440.241C347.737 436.902 343.942 433.429 340.241 429.862C335.684 425.471 331.349 420.873 327.169 416.136C323.824 407.615 321.068 398.865 318.824 389.984C315.774 377.964 312.954 365.174 313.174 352.714C313.394 339.934 320.034 330.984 328.874 322.404C332.618 318.771 336.398 315.181 340.171 311.584C348.207 305.685 355.787 299.095 363.15 292.523C376.27 280.812 388.96 268.433 401.079 255.692C404.33 252.274 407.554 248.818 410.738 245.322C421.863 233.906 432.473 221.986 442.474 209.654C452.414 206.034 461.964 201.244 470.924 195.604C467.024 199.554 463.084 203.454 459.164 207.384C450.434 216.144 441.365 224.944 431.244 232.083C430.204 232.824 430.834 234.394 432.115 234.144C444.984 231.574 457.024 227.294 468.264 220.474C479.694 213.534 489.764 204.104 499.164 194.644C504.484 192.244 509.615 189.154 514.304 186.114C514.554 185.954 514.804 185.784 515.054 185.623C510.434 200.264 503.655 216.844 489.204 222.064C488.734 222.234 488.764 223.014 489.324 222.984C501.498 222.27 511.282 216.793 519.006 208.81C525.218 204.34 531.146 199.603 536.803 194.446C542.283 189.45 547.474 184.092 552.404 178.544C545.514 192.193 537.796 205.539 530.184 218.734C529.784 219.434 530.624 220.384 531.344 219.894C547.414 209.014 559.604 194.974 569.574 178.373C571.046 175.929 572.451 173.445 573.821 170.942C572.787 174.859 571.658 178.751 570.449 182.623C568.26 189.632 566.105 196.657 563.912 203.662C562.73 207.439 561.289 211.13 559.708 214.758C558.576 217.354 557.094 219.945 556.864 222.792C556.849 222.981 557.055 223.105 557.22 223.064C563.628 221.462 569.595 214.154 574.161 209.627C576.704 207.106 579.086 204.339 581.277 201.421C581.684 218.228 581.964 235.037 581.594 251.894C580.905 282.854 578.905 313.804 576.344 344.663C574.084 371.944 572.414 400.574 557.194 424.284C545.414 442.634 526.314 455.333 505.564 461.484C503.734 462.034 501.894 462.524 500.044 462.964C470.004 470.094 440.084 462.014 413.524 447.734C405.544 443.444 398.724 455.083 406.424 459.873C435.244 477.814 471.774 483.924 504.394 475.884C503.365 514.413 522.354 550.964 541.244 583.644C551.814 601.934 562.394 620.104 569.865 639.934C576.204 656.774 580.514 674.244 581.964 692.214C583.684 713.394 581.994 734.694 579.034 755.694C578.874 756.833 578.714 757.984 578.544 759.123C577.884 763.634 581.934 767.413 586.324 765.104C605.734 754.904 614.104 733.163 619.194 713.064C623.954 694.234 627.184 675.034 628.984 655.704C631.624 662.994 633.764 670.464 635.424 678.083C635.655 679.174 635.874 680.264 636.094 681.354C637.354 687.724 646.994 687.274 648.534 681.354C648.814 680.284 649.084 679.214 649.334 678.134C657.284 645.984 659.424 612.454 655.224 579.583C653.014 562.294 649.324 545.234 643.844 528.684Z" fill="black"/>
</svg>
