<svg width="900" height="900" viewBox="0 0 900 900" fill="none" xmlns="http://www.w3.org/2000/svg">
<path fill-rule="evenodd" clip-rule="evenodd" d="M435.925 304.932C521.877 307.653 527.062 348.48 527.062 416.948C527.062 485.415 482.473 528.56 466.055 536.094C449.637 543.628 406.406 575.987 367.392 561.075C328.378 546.163 339.676 483.16 339.676 456.091C339.676 429.021 349.972 302.211 435.925 304.932Z" fill="white"/>
<path fill-rule="evenodd" clip-rule="evenodd" d="M470.794 513.607C455.01 522.418 436.936 522.761 419.958 517.216C409.776 513.899 400.439 508.77 391.702 502.637C384.101 497.297 377.316 491.375 370.595 485.087C365.061 472.884 360.134 460.703 357.826 447.426C355.759 435.508 355.485 423.133 357.883 411.237C375.621 396.647 393.25 381.936 410.855 367.18C419.821 359.665 428.809 352.19 437.906 344.834C442.526 341.099 447.101 337.307 451.703 333.555C452.463 332.939 453.217 332.322 453.977 331.705C463.479 338.661 473.667 344.623 483.101 351.692C488.04 355.399 492.843 359.345 497.417 363.496C499.816 365.672 502.158 367.916 504.442 370.218C506.531 372.32 508.547 375.335 511.512 376.129C511.917 376.237 512.299 376.26 512.659 376.208C516.622 410.906 519.438 448.374 502.46 479.885C495.053 493.631 484.552 505.92 470.794 513.607ZM368.111 526.359C365.938 524.368 369.177 521.145 371.341 523.128C384.936 535.581 402.709 542.182 420.661 545.237C423.557 545.731 422.322 550.132 419.446 549.642C400.703 546.452 382.282 539.339 368.111 526.359ZM351.798 545.465C349.203 544.073 351.513 540.131 354.104 541.52C364.695 547.201 376.312 550.152 388.096 552.145C390.994 552.635 389.758 557.036 386.882 556.55C374.698 554.49 362.743 551.335 351.798 545.465ZM394.905 353.001C403.694 345.114 413.139 337.609 423.116 331.277C433.212 324.869 444.24 321.038 456.158 320.946C455.324 321.614 454.53 322.357 453.725 323.047C451.476 324.972 449.231 326.908 446.986 328.838C442.498 332.705 437.998 336.564 433.566 340.494C424.84 348.238 416.086 355.941 407.377 363.702C390.639 378.618 374.262 393.859 358.237 409.541C358.323 409.159 358.415 408.776 358.505 408.394C363.811 386.236 378.241 367.956 394.905 353.001ZM463.799 321.911C463.856 321.74 463.896 321.574 463.919 321.415C486.79 324.395 505.892 341.224 512.208 363.382C511.66 364.147 511.357 365.055 511.471 366.02C511.528 366.506 511.585 366.997 511.643 367.482C510.86 366.706 510.055 365.981 509.37 365.29C507.091 362.982 504.756 360.738 502.357 358.55C497.452 354.08 492.358 349.899 486.99 345.999C477.653 339.215 467.545 332.979 456.415 329.724C457.146 329.124 457.877 328.524 458.614 327.93C460.812 326.142 462.851 324.67 463.799 321.911ZM504.802 298.218C490.759 282.873 471.314 271.635 450.836 267.729C431.282 263.994 411.038 266.455 392.564 273.714C353.908 288.904 323.408 322.306 309.125 361.012C300.799 383.564 298.07 408.285 300.571 432.156C303.061 455.917 310.216 480.456 323.236 500.672C324.43 502.523 325.738 504.298 327.108 506.017C326.497 512.996 324.167 519.837 320.501 525.788C320.304 526.106 320.096 526.419 319.891 526.733C316.136 529.544 312.242 532.182 308.441 534.906C305.146 537.265 301.885 539.686 298.787 542.3C295.863 544.768 292.467 547.516 290.487 550.846C288.865 553.574 288.202 557.283 290.417 559.885C293.085 563.019 297.607 561.914 301.222 561.914C301.531 561.914 301.84 561.921 302.149 561.924C303.235 562.607 304.353 563.223 305.436 563.797C316.384 569.6 327.371 575.339 338.37 581.05C360.276 592.431 382.091 604.27 404.448 614.748C414.807 619.608 425.897 623.856 437.501 623.84C448.386 623.823 458.225 619.5 466.722 612.927C476.408 605.439 484.506 595.932 492.363 586.612C495.504 582.882 498.582 579.108 501.603 575.282C507.405 573.346 513.162 572.781 518.335 576.515C522.487 579.514 527.958 575.436 528.055 570.936C528.089 569.338 528.021 567.761 527.849 566.208C526.811 556.613 522.116 547.934 516.828 539.882C513.939 535.479 510.895 531.155 507.833 526.872C507.114 525.862 506.406 524.851 505.721 523.823C518.016 505.72 527.769 485.647 533.766 464.672C540.065 442.6 542.207 419.712 540.802 396.841C538.642 361.789 529.026 324.692 504.802 298.218Z" fill="black"/>
</svg>
