<svg width="788" height="788" viewBox="0 0 788 788" fill="none" xmlns="http://www.w3.org/2000/svg">
<path fill-rule="evenodd" clip-rule="evenodd" d="M425.282 154.174C575.794 158.939 584.873 230.431 584.873 350.326C584.873 470.22 506.793 545.771 478.043 558.964C449.293 572.157 373.59 628.821 305.272 602.709C236.955 576.596 256.739 466.272 256.739 418.87C256.739 371.468 274.769 149.409 425.282 154.174Z" fill="white"/>
<path fill-rule="evenodd" clip-rule="evenodd" d="M486.342 519.587C458.702 535.017 427.053 535.617 397.322 525.907C379.492 520.098 363.143 511.117 347.842 500.377C334.532 491.027 322.652 480.657 310.882 469.646C301.192 448.277 292.563 426.947 288.522 403.697C284.902 382.827 284.422 361.157 288.622 340.327C319.683 314.777 350.553 289.017 381.382 263.178C397.082 250.017 412.822 236.928 428.752 224.047C436.842 217.507 444.853 210.867 452.912 204.297C454.242 203.217 455.563 202.137 456.893 201.057C473.532 213.237 491.372 223.678 507.893 236.057C516.542 242.547 524.952 249.457 532.962 256.726C537.162 260.537 541.263 264.467 545.263 268.497C548.922 272.178 552.452 277.457 557.643 278.848C558.353 279.037 559.022 279.077 559.652 278.987C566.592 339.747 571.522 405.357 541.792 460.537C528.822 484.607 510.433 506.127 486.342 519.587ZM306.533 541.918C302.727 538.431 308.399 532.788 312.189 536.26C335.995 558.066 367.117 569.625 398.553 574.975C403.625 575.84 401.462 583.547 396.426 582.689C363.605 577.103 331.347 564.647 306.533 541.918ZM277.967 575.375C273.423 572.937 277.468 566.034 282.004 568.467C300.551 578.414 320.894 583.582 341.528 587.072C346.603 587.93 344.438 595.637 339.402 594.786C318.067 591.178 297.132 585.653 277.967 575.375ZM353.452 238.348C368.842 224.537 385.382 211.396 402.853 200.307C420.532 189.087 439.842 182.377 460.712 182.217C459.252 183.387 457.862 184.687 456.452 185.896C452.513 189.267 448.582 192.657 444.652 196.037C436.792 202.807 428.912 209.566 421.152 216.447C405.872 230.007 390.542 243.497 375.292 257.087C345.982 283.207 317.303 309.896 289.242 337.357C289.393 336.687 289.553 336.017 289.712 335.348C299.002 296.547 324.272 264.537 353.452 238.348ZM474.092 183.907C474.192 183.607 474.263 183.316 474.303 183.037C514.353 188.257 547.803 217.726 558.862 256.527C557.902 257.867 557.372 259.457 557.572 261.146C557.672 261.997 557.772 262.857 557.872 263.707C556.502 262.348 555.092 261.077 553.893 259.867C549.902 255.827 545.813 251.896 541.612 248.066C533.022 240.237 524.103 232.917 514.702 226.087C498.353 214.207 480.652 203.287 461.162 197.587C462.442 196.537 463.723 195.487 465.013 194.447C468.862 191.316 472.433 188.737 474.092 183.907ZM545.893 142.417C521.303 115.547 487.252 95.8673 451.393 89.0273C417.152 82.4873 381.702 86.7973 349.353 99.5073C281.662 126.107 228.252 184.598 203.242 252.377C188.662 291.867 183.882 335.157 188.263 376.957C192.622 418.566 205.152 461.537 227.952 496.937C230.042 500.178 232.332 503.287 234.732 506.297C233.662 518.517 229.582 530.497 223.162 540.917C222.817 541.475 222.453 542.023 222.093 542.572C215.519 547.495 208.7 552.115 202.043 556.884C196.274 561.016 190.564 565.255 185.139 569.832C180.018 574.153 174.071 578.965 170.604 584.797C167.763 589.574 166.603 596.069 170.481 600.625C175.154 606.113 183.072 604.178 189.402 604.178C189.944 604.178 190.485 604.19 191.026 604.196C192.927 605.391 194.885 606.471 196.782 607.476C215.952 617.637 235.192 627.687 254.452 637.687C292.813 657.617 331.013 678.348 370.162 696.697C388.303 705.207 407.723 712.646 428.042 712.617C447.103 712.587 464.332 705.017 479.212 693.507C496.172 680.396 510.353 663.747 524.112 647.428C529.612 640.896 535.002 634.287 540.292 627.587C550.452 624.197 560.532 623.207 569.592 629.747C576.862 634.997 586.442 627.857 586.612 619.976C586.672 617.178 586.553 614.417 586.252 611.697C584.433 594.896 576.212 579.697 566.952 565.598C561.893 557.887 556.563 550.316 551.202 542.816C549.942 541.047 548.702 539.277 547.502 537.476C569.032 505.777 586.112 470.627 596.612 433.896C607.643 395.247 611.393 355.167 608.933 315.117C605.152 253.737 588.313 188.777 545.893 142.417Z" fill="black"/>
</svg>
