<svg width="284" height="284" viewBox="0 0 284 284" fill="none" xmlns="http://www.w3.org/2000/svg">
<path fill-rule="evenodd" clip-rule="evenodd" d="M173.042 231.1C165.675 233.233 157.768 233.424 150.259 231.221C143.448 229.222 136.455 224.823 131.442 219.003C126.989 213.832 124.105 207.549 124.219 200.842C124.232 200.076 124.506 199.436 124.927 198.94C125.38 198.406 126.014 198.039 126.693 197.88C127.391 197.716 128.128 197.774 128.757 198.059C129.326 198.318 129.813 198.756 130.118 199.398C130.888 200.41 131.655 201.407 132.426 202.376C138.62 210.024 144.618 215.74 153.932 217.79C158.985 218.903 164.032 218.409 168.663 216.712C173.62 214.895 178.102 211.7 181.613 207.612C183.2 205.765 185.073 205.011 186.905 204.998C188.982 204.983 191.034 205.948 192.579 207.49C194.099 209.006 195.116 211.065 195.209 213.219C195.29 215.11 194.673 217.085 193.032 218.848C187.626 224.652 180.621 228.904 173.042 231.1ZM172.814 135.308C180.366 139.898 191.872 150.601 183.748 161.98C174.186 172.014 160.418 160.51 153.634 155.307C147.343 151.275 140.275 161.645 146.112 166.354C195.136 202.649 215.031 136.508 176.634 129.911C172.406 129.184 170.836 133.888 172.814 135.308ZM102.175 115.111C99.7479 113.559 96.8928 113.026 93.7287 114.465C91.256 115.59 86.9192 119.338 83.9011 124.266C81.8363 127.637 80.3721 131.592 80.6769 135.712C80.7477 136.668 80.3942 137.374 79.8366 137.895C79.3962 138.307 78.7601 138.61 78.013 138.705C77.3786 138.785 76.6686 138.713 76.0913 138.532C74.9931 138.19 74.4119 137.477 74.1929 136.896C72.0797 131.284 72.9901 125.021 75.3585 119.371C78.5547 111.746 84.3592 105.359 88.1622 103.299C94.6698 99.7742 102.347 99.612 108.864 103.203C114.411 106.26 117.88 111.194 121.33 116.224C122.063 117.293 122.791 118.355 123.544 119.398C125.051 121.487 125.201 123.559 124.617 125.336C123.971 127.305 122.321 128.966 120.259 129.836C118.353 130.639 116.141 130.752 114.183 129.927C112.529 129.229 111.012 127.87 110.051 125.562C108.434 121.677 105.739 117.39 102.175 115.111ZM225.441 123.755C223.779 124.621 222.478 124.882 220.634 124.33C219.615 124.024 218.607 123.437 217.818 122.648C217.036 121.866 216.472 120.893 216.252 119.815C215.713 117.152 214.256 114.66 212.181 113.036C210.406 111.647 208.167 110.911 205.683 111.326C203.002 111.774 200.449 113.493 198.69 115.519C198.102 116.198 197.641 116.968 197.178 117.733C196.311 119.164 195.469 120.493 194.274 121.544C193.821 121.944 193.138 122.221 192.477 122.221C192.208 122.221 191.935 122.177 191.676 122.096C189.008 119.418 188.495 117.387 188.581 115.372C188.671 113.259 189.504 111.12 190.85 109.124C194.007 104.442 200.003 100.604 204.048 99.7341C209.589 98.5435 215.091 99.9727 219.503 103.067C224.042 106.251 227.405 111.195 228.454 116.766C228.706 118.108 228.599 119.556 228.088 120.812C227.589 122.039 226.719 123.09 225.441 123.755ZM114.394 65.1934C111.069 68.4329 107.134 68.9347 103.153 69.381C100.941 69.6313 99.1746 69.8331 97.4369 70.2252C92.6605 71.3034 87.9393 72.9272 83.6319 75.2659C79.1292 77.7106 74.2224 80.659 70.6922 84.4361C69.8528 85.3349 69.0615 86.2781 68.2691 87.2232C67.5465 88.0851 66.8505 88.9149 66.1169 89.7149C65.2745 90.6339 64.4745 91.597 63.6787 92.5576C63.1867 93.3681 63.0895 93.5675 62.9904 93.775C62.8413 94.0869 62.6679 94.4359 62.4698 94.8103C62.1985 95.323 61.8807 95.8843 61.5478 96.3932C60.9941 97.3234 60.697 97.5796 60.4402 97.6942C60.0142 97.8839 59.6101 97.9774 59.2182 97.9268C58.8506 97.8793 58.5044 97.7028 58.1624 97.4138C56.4554 95.9715 55.9519 93.6046 56.0035 91.092C56.0818 87.2793 57.4881 83.0578 58.7845 80.4628C61.7989 74.4331 65.9794 68.1649 71.0062 63.6646C76.7422 58.5276 83.0177 54.6387 90.2256 51.9589C94.705 50.293 99.8913 48.7639 104.771 48.9571C108.284 49.0961 111.637 50.1403 114.407 52.7478C116.107 54.3485 116.923 56.6254 116.923 58.9006C116.923 61.2211 116.076 63.5554 114.394 65.1934ZM232.203 94.8583C231.991 95.2049 231.699 95.4437 231.373 95.5872C231.032 95.7375 230.651 95.7808 230.285 95.7192C229.921 95.6579 229.575 95.4928 229.3 95.2406C229.037 94.9988 228.837 94.6781 228.747 94.2853C226.54 84.5898 222.253 77.3762 213.104 72.7244C208.604 70.4361 203.429 68.9821 198.53 67.8229C197.106 67.486 195.602 67.2677 194.087 67.0465C189.339 66.3533 184.557 65.5594 181.462 61.7216C179.597 59.4099 178.814 56.4534 179.256 53.7496C179.673 51.2038 181.161 48.8695 183.865 47.4706C190.597 43.9897 198.964 47.4054 205.763 50.3151C206.267 50.531 206.762 50.7429 207.246 50.9473C213.895 53.7537 219.959 57.4582 224.944 62.7559C228.899 66.9588 232.563 73.172 234.039 79.5637C235.267 84.8813 234.978 90.3099 232.203 94.8583Z" fill="black"/>
</svg>
