<svg width="900" height="900" viewBox="0 0 900 900" fill="none" xmlns="http://www.w3.org/2000/svg">
<path fill-rule="evenodd" clip-rule="evenodd" d="M468.043 480.335C464.847 480.361 461.254 479.162 458.852 478.223L458.226 477.975C456.146 477.142 454.01 476.186 452.418 474.582C451.908 474.06 451.366 473.47 451.09 472.85C450.929 472.486 450.862 472.11 451.018 471.736C451.594 471.68 452.14 471.606 452.657 471.511C452.903 471.466 453.139 471.42 453.32 471.419C453.986 471.414 454.645 471.499 455.303 471.582C455.399 471.594 455.494 471.606 455.59 471.618C456.102 471.682 456.613 471.75 457.122 471.819C458.604 472.018 460.078 472.215 461.581 472.287C462.666 472.339 463.805 472.278 464.953 472.216C467.931 472.054 471.009 471.832 473.303 473.918C473.904 474.464 474.156 475.152 474.156 475.853C474.156 476.705 473.797 477.572 473.25 478.252C472.012 479.792 470.106 480.318 468.043 480.335ZM485.469 453.475C484.079 455.561 481.763 456.902 478.589 456.757C472.28 456.468 464.752 454.088 459.468 450.647C458.092 449.751 457.2 448.318 457.04 446.783L456.755 444.053L455.217 446.327C455.057 446.564 454.895 446.8 454.733 447.036C454.288 447.687 453.843 448.338 453.423 449.005C451.811 451.566 450.333 454.153 448.992 456.865C448.042 458.786 447.348 460.935 446.651 463.102C445.475 466.762 444.339 470.361 441.827 472.934C441.447 473.323 440.863 473.462 440.329 473.393C439.858 473.332 439.396 473.101 439.17 472.641C436.168 466.537 440.205 459.182 443.48 454.068L443.827 453.534C446.864 448.913 451.824 442.798 457.504 441.967L458.154 443.004L459.099 442.373C460.645 441.342 462.687 441.39 464.474 442.197L466.26 443.003C469.587 444.496 472.868 445.873 476.467 446.628C476.73 446.683 476.992 446.734 477.254 446.782C477.501 446.827 477.749 446.869 477.998 446.908C477.945 446.663 477.887 446.418 477.829 446.175C477.769 445.917 477.708 445.659 477.642 445.401C477.574 445.135 477.501 444.871 477.428 444.608C477.14 443.558 476.815 442.517 476.428 441.499C474.975 437.669 472.655 434.088 470.397 430.671L470.132 430.27C469.808 429.78 469.453 429.269 469.087 428.741C467.326 426.206 465.373 423.455 465.235 420.693C467.572 420.84 469.528 422.292 471.249 423.556C473.612 425.289 475.8 427.272 477.786 429.425C481.638 433.604 485.095 438.945 486.612 444.467C487.48 447.629 487.098 451.031 485.469 453.475ZM423.836 421.975L423.836 421.862C423.843 418.674 425.7 411.394 430.29 411.394C433.158 411.394 434.899 416.349 435.2 421.456L435.21 421.664C435.343 424.839 434.472 431.78 430.29 431.78C426.064 431.78 423.88 425.206 423.836 421.975ZM491.414 420.975L491.415 420.862C491.408 417.674 489.551 410.394 484.961 410.394C482.165 410.394 480.44 415.104 480.076 420.073L480.051 420.456C479.87 423.524 480.685 430.78 484.961 430.78C489.187 430.78 491.371 424.206 491.414 420.975ZM439.295 400.397C438.686 400.468 438.082 400.562 437.477 400.658C435.712 400.939 433.956 401.276 432.213 401.67C428.901 402.417 425.616 403.361 422.395 404.428C419.38 405.426 416.411 406.555 413.444 407.683C413.286 407.743 413.127 407.804 412.969 407.864C411.921 408.262 410.877 408.708 409.83 409.156C408.236 409.838 406.634 410.524 405 411.041C409.305 405.088 415.94 400.677 422.323 397.521C425.965 395.72 429.829 394.268 433.716 393.078L435.881 392.427C439.069 391.487 442.553 390.618 445.548 392.493C446.732 393.235 447.487 394.388 447.725 395.634C447.958 396.856 447.693 398.166 446.849 399.26C446.113 400.213 445.197 400.755 444.221 400.941C443.145 401.147 442.004 400.921 440.966 400.367C440.134 400.305 439.889 400.327 439.643 400.354L439.295 400.397ZM487.244 401.003C485.111 400.539 482.999 400.353 480.81 400.419C479.82 400.449 478.863 400.602 477.908 400.756C476.425 400.995 474.947 401.242 473.349 400.952C472.515 400.8 471.806 400.313 471.257 399.676C470.616 398.932 470.191 397.981 470.055 397.077C469.915 396.143 470.055 395.326 470.4 394.604C470.809 393.752 471.497 393.034 472.328 392.405C474.844 390.501 479.159 390.959 482.128 391.344C485.062 391.725 487.98 392.635 490.573 394.079C493.131 395.506 495.356 397.427 497.091 399.775C498.554 401.754 499.243 404.032 499.954 406.352C496.607 403.543 491.485 401.923 487.244 401.003Z" fill="black"/>
</svg>
