<svg width="284" height="284" viewBox="0 0 284 284" fill="none" xmlns="http://www.w3.org/2000/svg">
<path fill-rule="evenodd" clip-rule="evenodd" d="M162.814 124.367C170.366 128.957 181.872 139.66 173.748 151.039C164.186 161.073 150.418 149.569 143.634 144.366C137.343 140.334 130.275 150.704 136.112 155.413C185.136 191.708 205.031 125.567 166.634 118.97C162.406 118.243 160.836 122.947 162.814 124.367ZM94.5878 36.8302L96.4652 36.5016L97.4275 36.3385C103.052 35.4087 109.718 34.7867 113.603 39.2012C115.782 41.6772 116.532 46.2792 113.603 48.6492C108.451 52.8192 102.755 51.2032 96.5808 51.5562C91.4928 51.8482 86.6028 52.6902 81.7018 54.0912C70.9498 57.1642 62.1888 62.7742 53.0058 68.9342C51.8008 69.7422 50.5708 68.2012 51.1458 67.0742C56.4468 56.6912 66.7199 48.1622 77.0099 42.9632C82.5019 40.1882 88.5118 37.8862 94.5878 36.8302ZM144.325 180.271C160.757 181.464 196.367 173.62 211.153 185.386C266.88 254.973 45.95 272.864 69.81 195.877C85.007 170.984 119.962 180.989 144.325 180.271ZM141.508 222.28C137.444 221.949 132.512 225.168 131.319 227.655C130.126 230.143 130.587 235.4 130.623 236.311C137.728 237.027 144.895 237.136 152.02 236.669C150.169 230.546 150.109 223.207 141.508 222.28ZM174.314 232.552C173.172 224.952 167.736 223.152 163.336 224.293C158.835 225.459 156.193 230.64 156.479 235.253C156.498 235.571 156.314 235.841 156.193 236.097C162.311 235.374 168.372 234.184 174.314 232.552ZM123.92 223.656C121.358 219.758 115.236 217.877 111.315 218.564C104.912 219.912 104.154 228.048 104.154 229.706C110.057 231.956 116.324 233.45 122.316 234.64C123.519 234.878 124.725 235.091 125.933 235.292L126.012 234.304C126.157 232.187 126.266 227.224 123.92 223.656ZM196.349 223.013C189.784 212.856 175.672 220.128 176.838 231.224C178.092 230.829 179.34 230.416 180.582 229.983C185.74 228.185 191.398 226.048 196.349 223.013ZM144.664 188.017C135.832 187.222 128.587 187.49 122.827 188.558L122.652 190.482C122.015 197.153 121.193 203.712 124.696 206.396C127.541 208.576 136.984 208.368 143.316 206.79C144.88 206.396 146.913 192.56 144.664 188.017ZM158.321 187.222C156.905 193.796 156.24 201.779 159.082 204.15C162.083 206.654 171.744 206.315 174.271 204.647C176.482 203.187 176.426 196.473 175.605 188.936C170.712 187.783 162.192 187.222 158.321 187.222ZM118.921 188.624L116.029 188.65L114.392 188.671C110.253 188.745 105.787 188.983 101.566 189.905C93.1798 208.028 123.805 211.156 119.075 189.294L118.921 188.624ZM179.501 189.061L179.448 190.087C179.196 195.178 179.363 201.882 182.183 203.692C186.333 206.355 194.126 205.841 198.347 193.522C196.95 189.847 182.134 189.33 179.501 189.061ZM98.2237 80.9999C99.9969 80.9999 101.693 81.6018 103.237 82.7155C104.758 83.8116 106.134 85.4113 107.28 87.4066C109.449 91.1823 110.805 96.3956 110.805 102.16C110.805 107.924 109.449 113.138 107.28 116.913C106.134 118.909 104.758 120.508 103.237 121.604C101.693 122.718 99.9969 123.32 98.2237 123.32C96.4506 123.32 94.7546 122.718 93.2101 121.604C91.69 120.508 90.3138 118.909 89.1676 116.913C86.9987 113.138 85.6427 107.924 85.6427 102.16C85.6427 96.3956 86.9987 91.1823 89.1676 87.4066C90.3138 85.4113 91.69 83.8116 93.2101 82.7155C94.7546 81.6018 96.4506 80.9999 98.2237 80.9999ZM210.464 80.9999C212.237 80.9999 213.933 81.6018 215.478 82.7155C216.998 83.8116 218.374 85.4113 219.52 87.4066C221.689 91.1823 223.045 96.3956 223.045 102.16C223.045 107.924 221.689 113.138 219.52 116.913C218.374 118.909 216.998 120.508 215.478 121.604C213.933 122.718 212.237 123.32 210.464 123.32C208.691 123.32 206.995 122.718 205.45 121.604C203.93 120.508 202.554 118.909 201.408 116.913C199.239 113.138 197.883 107.924 197.883 102.16C197.883 96.3956 199.239 91.1823 201.408 87.4066C202.554 85.4113 203.93 83.8116 205.45 82.7155C206.995 81.6018 208.691 80.9999 210.464 80.9999ZM195.193 32.1791L196.63 32.4732L197.583 32.6753C213.083 36.0092 232.733 42.5814 239.988 57.6306C240.271 59.8025 239.972 60.2679 239.73 60.572L239.649 60.6733C239.45 60.9329 239.29 61.2909 238.349 61.5865C238.088 61.5243 237.824 61.4584 237.557 61.3885C234.163 60.499 231.477 59.2735 228.877 58.002L226.058 56.6132C222.788 55.0096 219.488 53.4643 215.992 52.3235C208.53 49.8896 200.854 48.175 193.06 47.2595C191.37 47.0612 189.744 46.4911 188.46 45.5139C187.242 44.5864 186.311 43.3022 185.887 41.5953C185.337 39.3862 185.495 37.7137 186.68 35.7208C187.572 34.2242 188.847 33.1868 190.311 32.5912C191.804 31.9839 193.503 31.8407 195.193 32.1791Z" fill="black"/>
</svg>
