<svg width="900" height="900" viewBox="0 0 900 900" fill="none" xmlns="http://www.w3.org/2000/svg">
<path fill-rule="evenodd" clip-rule="evenodd" d="M477.774 457.957C478.514 456.991 480.314 461.197 480.681 461.712L480.699 461.735C482.301 463.674 483.609 466.642 483.794 469.131C483.799 469.205 483.799 469.278 483.799 469.35C486.367 468.997 488.936 468.638 491.503 468.244C492.496 467.498 493.886 467.729 495.23 468.409C498.229 469.922 496.769 474.731 493.539 474.654C484.804 474.446 475.882 475.567 467.22 476.576C462.764 477.096 458.318 477.647 453.886 478.352C449.745 479.009 445.512 479.938 441.321 480.119C441.093 480.128 440.997 479.788 441.203 479.682C444.898 477.784 449.118 476.636 453.107 475.524C457.423 474.322 461.772 473.193 466.151 472.24C470.08 471.384 474.03 470.744 477.989 470.168C477.959 470.09 477.929 470.011 477.904 469.928C477.402 468.244 477.415 466.311 477.308 464.535L477.246 463.593C477.148 461.969 477.051 458.904 477.774 457.957ZM464.908 437.184C468.683 439.479 474.436 444.83 470.375 450.52C465.594 455.537 458.71 449.785 455.318 447.184C452.172 445.167 448.638 450.352 451.557 452.706C476.068 470.854 486.016 437.784 466.817 434.486C464.704 434.122 463.919 436.474 464.908 437.184ZM404.201 416.984C410.484 416.025 416.919 415.915 423.267 416.232C426.568 416.397 429.864 416.642 433.153 416.968C434.87 417.138 436.586 417.329 438.298 417.544C439.526 417.698 441.422 418.401 442.589 418.081C446.155 417.104 449.54 420.479 448.557 424.049C447.581 427.593 443.401 428.527 440.712 426.399C439.437 425.95 438.154 425.524 436.864 425.126C436.766 425.532 436.621 425.934 436.417 426.323C436.188 426.758 435.968 427.196 435.759 427.64C435.804 427.569 435.458 428.398 435.449 428.422L435.173 429.143C434.691 430.387 434.152 431.567 432.844 432.212C431.047 433.098 428.227 432.609 427.5 430.495C426.365 428.272 427.116 425.166 427.767 422.862L427.817 422.685C419.977 420.821 412.006 419.423 404.201 417.526C403.946 417.464 403.92 417.027 404.201 416.984ZM497.448 408.621C497.856 407.804 498.781 407.801 499.331 408.568C500.555 410.27 497.814 412.709 496.671 413.842L496.557 413.957C493.986 416.565 490.851 418.667 487.743 420.567C487.091 420.966 486.429 421.346 485.765 421.72C485.888 421.968 486 422.22 486.091 422.478C486.562 423.807 486.571 425.394 486.147 426.737C485.264 429.538 482.914 431.775 479.867 431.772C478.26 431.771 476.358 430.251 476.575 428.48C476.653 427.85 476.716 427.179 476.813 426.508C474.67 427.221 472.038 426.386 470.675 424.619C468.78 422.164 469.301 418.139 472.203 416.614C474.337 415.493 476.693 415.21 479.004 414.618C481.298 414.031 483.576 413.356 485.822 412.603C488.036 411.86 490.24 411.064 492.441 410.277C493.529 409.888 494.606 409.529 495.714 409.199C496.209 409.052 496.922 408.665 497.448 408.621Z" fill="black"/>
</svg>
