<svg width="284" height="284" viewBox="0 0 284 284" fill="none" xmlns="http://www.w3.org/2000/svg">
<path fill-rule="evenodd" clip-rule="evenodd" d="M102.162 202.672C109.415 201.272 118.438 204.322 125.671 205.658L126.21 205.755C134.981 207.287 143.733 209.139 152.601 210.043C161.067 210.908 169.713 211.063 178.18 210.09C182.246 209.622 186.277 208.826 190.227 207.758C191.917 207.301 193.593 206.791 195.249 206.225L195.436 206.154C196.653 205.651 199.943 203.759 199.904 204.813C200.829 203.746 202.103 202.989 203.502 202.621C205.476 202.102 208.01 202.589 209.662 203.985C211.811 202.283 215.035 203.504 216.476 205.542C218.947 209.037 218.143 213.134 217.824 217.189L217.797 217.546C217.526 221.368 217.111 225.164 216.599 228.958L216.373 230.583C215.576 236.194 215.357 245.448 208.558 247.287C203.181 248.743 198.26 243.21 194.794 238.819L192.896 236.387C190.649 233.536 188.609 230.601 186.965 227.36C186.216 225.885 185.492 224.374 184.865 222.843C184.786 222.65 184.728 222.477 184.668 222.303C174.696 223.645 164.488 223.453 154.49 222.135C148.16 221.3 141.924 220.094 135.782 218.474L133.011 223.483C129.768 229.324 126.479 235.147 123.022 240.856L122.754 241.291C119.518 246.44 114.099 251.597 107.692 247.74C101.959 244.288 101.715 236.436 101.111 230.577C100.708 226.663 100.381 222.723 100.224 218.787L100.167 217.101C100.064 213.285 99.4432 208.862 100.91 205.293C101.123 204.773 101.87 204.373 102.32 204.92C105.385 208.646 106.312 214.421 107.636 218.994C109.11 224.082 111.245 229.639 112.011 234.917L112.225 234.545C112.98 233.112 113.749 231.686 114.523 230.262L116.843 225.991C118.924 222.135 121.043 218.303 123.181 214.48C120.74 213.563 118.321 212.578 115.912 211.576L110.445 209.29C107.322 207.971 104.138 206.482 101.79 204.082C101.374 203.657 101.519 202.795 102.162 202.672ZM205.88 216.76C200.493 218.95 194.921 220.53 189.248 221.578C189.614 221.953 189.979 222.328 190.319 222.722C191.654 224.267 193.07 225.751 194.495 227.219L195.35 228.097C197.532 230.336 200.81 234.023 204.155 236.166L204.336 235.199C204.366 235.032 204.389 234.887 204.401 234.775L204.757 231.594C204.815 231.064 204.871 230.533 204.924 230.002C205.212 227.133 205.441 224.258 205.681 221.385C205.807 219.871 205.837 218.316 205.88 216.76ZM142.13 31.8928C154.96 26.4128 170.187 29 181.238 37.2778C192.546 45.7488 197.491 59.5208 198.145 73.2608C207.088 65.6248 219.967 71.4048 227.499 78.5598C236.191 86.8168 240.587 99.2778 238.561 111.104C236.542 122.89 228.013 133.288 216.474 136.793C210.953 138.47 204.8 138.508 199.246 136.948C197.36 136.417 195.049 135.595 192.914 134.45C193.036 134.94 193.16 135.431 193.276 135.92C196.047 147.649 197.618 160.833 193.46 172.432C186.777 191.071 163.04 201.505 148.22 184.961C142.401 178.466 137.878 168.294 138.23 159.439C138.415 154.786 141.051 149.403 146.493 149.718C150.713 149.961 152.714 153.493 151.634 157.23L151.568 157.446C149.28 164.591 153.186 174.915 158.845 179.788C167.523 187.261 179.432 180.758 184.177 171.995C189.707 161.782 189.034 148.688 187.266 137.577C185.53 126.667 181.659 116.688 177.55 106.593C177.114 106.672 176.672 106.745 176.22 106.806C168.048 107.915 151.421 108.333 142.392 102.413C143.362 111.55 141.459 120.956 136.268 128.693C130.484 137.315 121.77 141.878 111.628 143.276C101.778 144.636 90.3599 144.911 80.6349 142.577C59.9259 137.607 52.6239 112.04 58.8869 93.5838C62.5919 82.6668 72.9299 72.8478 84.4209 70.3678C90.3409 66.4738 98.2899 65.3208 105.122 65.8518C115.326 66.6468 125.376 71.0558 132.21 78.7988C134.821 81.7568 136.968 85.1058 138.623 88.6898C139.179 88.2518 139.827 87.9228 140.559 87.7508C141.702 87.4828 142.702 87.4228 143.82 87.8168C144.377 88.0138 145.18 88.7098 145.663 89.1618L146.766 90.4578C148.119 92.0344 149.406 93.3567 151.814 94.3368C158.528 97.0698 167.634 97.6628 174.767 97.1038C192.967 95.6798 190.675 71.5728 186.192 59.1878C180.882 44.5158 165.662 35.3888 150.178 37.9948C143.525 39.1138 137.178 42.6548 132.308 47.2818C126.872 52.4478 124.544 58.6878 121.283 65.2268C121.09 65.6138 120.424 65.5298 120.341 65.1028C117.661 51.3148 130.369 36.9168 142.13 31.8928ZM45.194 143.055C44.641 142.406 45.367 141.265 46.159 141.803C51.96 145.744 58.411 148.588 65.424 149.357C68.718 149.717 72.038 149.742 75.319 149.237C78.114 148.805 80.633 147.953 83.423 148.723C84.908 149.133 85.178 150.856 84.271 151.936C80.056 156.953 69.679 155.613 64.021 154.268C56.704 152.53 50.071 148.785 45.194 143.055ZM240.405 133.895C243.253 132.13 246.643 135.625 244.959 138.448C240.635 145.691 228.102 146.281 220.831 144.547C220.262 144.413 220.392 143.52 220.968 143.536C225.147 143.639 228.924 142.836 232.524 140.656C235.6 138.793 237.435 135.735 240.405 133.895ZM101.443 75.9959L100.872 76.0008C94.2239 76.1078 88.1359 78.6428 81.7299 79.9828C81.1989 80.0948 80.6659 80.0378 80.1849 79.8618C72.3829 85.0668 67.0049 93.2508 66.2749 104.02C65.7689 111.479 67.5899 119.606 72.0189 125.727C77.06 132.694 85.1808 133.769 93.1781 133.976L93.9909 133.995C109.109 134.29 125.741 133.397 131.13 116.495C135.118 103.986 130.859 88.7998 119.75 81.3068C114.355 77.6678 107.911 75.9898 101.443 75.9959ZM223.242 84.9668L222.798 84.4491C216.869 77.6459 207.467 71.4495 198.198 74.8758L198.225 76.0216C198.228 76.2127 198.23 76.4038 198.23 76.5948C198.202 89.7328 193.111 101.994 180.598 105.849C183.955 110.638 186.652 115.952 188.812 121.467C189.574 120.969 190.501 120.653 191.577 120.544C195.982 120.098 198.506 124.235 202.326 125.778C205.902 127.224 209.958 127.597 213.733 126.85C221.991 125.217 227.785 118.096 229.815 110.194C232.11 101.261 229.078 91.8958 223.242 84.9668ZM97.5344 96.0239C100.288 91.3721 107.082 92.0454 109.805 96.1464L109.935 96.3509L109.964 96.3129C114.5 102.191 112.308 111.475 105.722 114.78C100.439 117.429 93.7204 116.734 90.2084 111.577C89.4214 110.421 88.9164 109.061 88.7314 107.684C88.6054 106.747 88.6774 105.811 88.8874 104.88L88.8343 105.098C88.9384 104.628 89.1034 103.891 89.1464 103.716C89.6104 101.82 90.7234 99.7859 92.1164 98.4129C93.5514 96.9989 95.5444 96.1389 97.5344 96.0239ZM210.702 91.1919C213.141 91.1919 215.305 92.2119 217.067 93.8289C219.573 96.1299 219.922 99.4419 219.381 102.585C219.215 103.544 218.987 104.471 218.748 105.415L218.543 106.269C218.507 106.41 218.468 106.551 218.424 106.69C218.274 107.275 218.035 107.812 217.751 108.326C216.708 112.209 212.485 114.137 208.762 113.29C207.01 112.891 205.263 111.437 204.371 109.913C204.077 109.411 203.871 108.911 203.725 108.409L203 106.69C202.864 106.278 202.779 105.836 202.67 105.415C202.427 104.472 202.193 103.543 202.024 102.585C201.449 99.3369 201.907 96.2589 204.338 93.8289C205.97 92.1959 208.395 91.1919 210.702 91.1919ZM156.98 57.5084C161.213 56.9404 165.524 58.9124 167.713 62.6514C169.615 65.9014 169.607 70.2744 167.713 73.5244L167.553 73.7994C164.064 79.7854 155.927 80.5534 151.032 75.9284L150.795 75.7044C147.647 72.7314 146.938 67.8004 148.568 63.9384C150.058 60.4064 153.182 58.0194 156.98 57.5084Z" fill="black"/>
</svg>
