<svg width="900" height="900" viewBox="0 0 900 900" fill="none" xmlns="http://www.w3.org/2000/svg">
<path fill-rule="evenodd" clip-rule="evenodd" d="M451.941 454.867C456.602 453.197 461.549 453.825 466.251 455.56L466.673 455.717C470.992 457.364 476.27 460.224 478.037 464.69C478.387 465.576 478.551 466.482 478.573 467.383C479.151 467.44 479.723 467.515 480.291 467.615C481.459 467.82 481.404 469.677 480.291 469.921C479.586 470.075 478.868 470.188 478.143 470.272C477.473 472.355 476.087 474.246 474.336 475.572C470.237 478.675 464.588 479.26 459.633 479.734C454.153 480.259 448.647 480.131 443.188 479.467L441.266 479.221C436.796 478.641 431.811 477.894 428.01 475.503C424.433 473.252 421.986 468.906 423.5 464.686C425.051 460.364 430.366 458.53 434.311 457.143C439.98 455.149 446.012 454.366 451.941 454.867ZM444.033 469.351C444.088 470.614 444.136 471.878 444.186 473.142C444.201 473.529 444.089 473.88 443.899 474.183C446.61 474.501 449.345 474.651 452.073 474.649C451.574 473.142 451.547 471.411 451.519 469.801C449.021 469.679 446.527 469.534 444.033 469.351ZM454.071 469.919L454.288 470.735C454.625 472.015 454.931 473.331 454.886 474.594C456.158 474.546 457.425 474.47 458.686 474.36L460.294 474.224C460.659 474.193 461.029 474.159 461.402 474.124C461.485 472.815 461.639 471.489 461.776 470.18C459.207 470.111 456.638 470.027 454.071 469.919ZM464.261 470.237C464.378 471.393 464.487 472.576 464.533 473.747C466.597 473.426 468.622 472.926 470.351 472.041C471.221 471.596 471.919 471.058 472.439 470.462C470.692 470.421 468.95 470.333 467.26 470.305C466.926 470.3 466.593 470.293 466.26 470.285L464.261 470.237ZM428.408 467.576C428.543 469.99 432.359 471.713 434.324 472.28C436.198 472.821 438.106 473.26 440.034 473.609C439.997 473.448 439.979 473.288 439.992 473.142C440.115 471.78 440.235 470.419 440.364 469.059L439.329 468.977C435.694 468.697 431.913 468.472 428.408 467.576ZM452.219 458.381C452.525 461.405 452.949 464.411 453.514 467.397L454.548 467.42C457.032 467.459 459.516 467.475 462 467.478C462.006 467.356 462.013 467.234 462.017 467.114C462.11 464.588 462.075 462.061 461.982 459.536C458.827 458.84 455.524 458.613 452.219 458.381ZM463.278 459.854C463.555 462.389 463.785 464.929 463.995 467.472L466.172 467.468C466.534 467.467 466.897 467.466 467.26 467.463C469.298 467.444 471.393 467.31 473.485 467.254C473.329 466.162 472.686 465.052 471.501 464.041C468.993 461.903 466.211 460.641 463.278 459.854ZM450.279 457.8C447.881 458.057 445.501 458.478 443.156 459.067C443.768 460.843 443.651 462.875 443.781 464.729C443.838 465.546 443.885 466.363 443.928 467.179C446.437 467.241 448.946 467.3 451.455 467.354C451.375 464.347 451.427 461.341 451.596 458.337L451.323 458.317C450.917 458.288 450.554 458.086 450.279 457.8ZM441.566 459.494C440.47 459.808 439.382 460.156 438.304 460.546L437.129 460.97C434.296 462.003 430.547 463.497 428.967 465.806C428.701 466.194 428.542 466.569 428.463 466.932C432.435 466.565 436.553 466.935 440.561 467.086C440.615 466.562 440.672 466.038 440.731 465.515L440.823 464.729C441.028 463.034 441.026 461.151 441.566 459.494ZM461.407 423.184C465.183 425.479 470.936 430.83 466.874 436.52C462.093 441.536 455.209 435.784 451.817 433.183C448.672 431.167 445.138 436.352 448.056 438.706C472.568 456.854 482.516 423.784 463.317 420.486C461.203 420.122 460.418 422.474 461.407 423.184ZM415.128 395.357C420.494 386.032 433.769 385.924 441.363 393.045C448.614 399.845 449.511 411.445 443.72 419.397C437.547 427.872 425.556 430.216 415.833 427.196C406.718 424.364 401.818 414.475 404.943 405.414C406.633 400.513 410.523 397.125 415.128 395.357ZM410.129 379.738C414.663 375.724 422.903 371.847 429.017 373.823C432.533 374.958 434.066 380.623 430.141 382.418C425.596 384.497 420.357 383.651 415.731 385.806C413.789 386.712 411.962 387.843 410.609 389.503C409.544 390.811 408.46 392.532 406.919 393.286C406.514 393.484 405.965 393.489 405.641 393.121C402.263 389.3 407.179 382.348 410.129 379.738ZM474.901 373.623C477.704 372.837 480.813 372.853 483.66 373.347C486.506 373.841 489.395 375.02 491.719 376.741L491.988 376.942C494.525 378.854 497.552 381.635 497.39 385.021C497.254 387.848 494.28 389.761 491.712 388.279C489.618 387.07 488.633 384.649 486.861 383.037C485.398 381.707 483.68 380.658 481.847 379.923C479.811 379.106 477.772 378.724 475.587 378.687C473.904 378.659 472.212 379.211 470.561 379.388C470.697 379.667 469.392 379.537 468.644 379.289C468.09 379.053 468.087 378.353 468.279 377.898C469.231 375.647 472.697 374.241 474.901 373.623ZM477.952 389.445C482.646 388.513 487.866 389.534 491.795 392.286C498.84 397.22 502 407.426 498.726 415.407C495.477 423.329 486.597 428.368 478.129 426.854C469.484 425.309 462.797 416.604 463.73 407.834C464.126 404.101 465.755 400.736 468.164 398.192C468.183 398.105 468.203 398.016 468.238 397.925C469.932 393.417 473.142 390.401 477.952 389.445ZM434.995 396.615C429.612 393.375 421.698 395.184 417.075 399.096C416.157 399.873 415.121 399.645 414.557 398.967C411.419 401.5 409.204 405.044 408.848 409.359C408.21 417.098 413.722 422.188 421.148 422.773C428.737 423.372 436.591 421.254 440.166 413.982C443.252 407.705 440.987 400.222 434.995 396.615ZM485.949 396.95C481.735 395.297 475.69 396.274 472.01 399.102C469.209 402.714 467.845 407.67 468.922 411.729C470.478 417.591 476.103 422.158 482.283 421.508C488.002 420.907 493.169 416.329 493.783 410.516C494.373 404.926 491.305 399.05 485.949 396.95ZM482.374 405.722C483.334 405.037 484.48 405.809 484.832 406.722L485.033 407.136C485.139 407.358 485.248 407.587 485.252 407.595L485.29 407.706C485.341 407.801 485.402 407.89 485.46 407.98C485.505 408.011 485.879 408.479 485.929 408.54C486.531 409.284 486.851 409.965 486.832 410.944C486.796 412.879 484.99 414.242 483.117 413.773C481.103 413.269 480.246 411.186 480.429 409.274C480.575 407.76 481.126 406.612 482.374 405.722ZM427.694 406.092C428.582 405.284 429.954 405.216 430.831 406.092C431.312 406.573 431.507 407.109 431.853 407.668L432.016 407.925C432.376 408.477 432.752 409.008 432.849 409.685C433.078 411.28 432.583 412.763 431.012 413.427C429.449 414.086 428.002 413.412 427.051 412.129C425.925 410.609 426.267 407.389 427.694 406.092Z" fill="black"/>
</svg>
