<svg width="284" height="284" viewBox="0 0 284 284" fill="none" xmlns="http://www.w3.org/2000/svg">
<path fill-rule="evenodd" clip-rule="evenodd" d="M197.548 166.914C199.028 164.982 202.627 173.395 203.362 174.424L203.397 174.47C206.601 178.347 209.217 184.284 209.587 189.262C209.598 189.411 209.598 189.555 209.598 189.699C214.734 188.994 219.871 188.276 225.006 187.488C226.992 185.995 229.771 186.458 232.46 187.817C238.457 190.844 235.538 200.461 229.077 200.307C211.607 199.891 193.764 202.134 176.44 204.153C167.528 205.192 158.635 206.294 149.771 207.703C141.49 209.018 133.023 210.876 124.642 211.239C124.185 211.257 123.994 210.576 124.406 210.364C131.795 206.569 140.235 204.271 148.213 202.048C156.846 199.643 165.543 197.385 174.301 195.479C182.16 193.768 190.06 192.488 197.978 191.335C197.917 191.18 197.858 191.022 197.808 190.856C196.804 187.487 196.83 183.622 196.615 180.071L196.491 178.187C196.296 174.939 196.101 168.807 197.548 166.914ZM171.815 125.368C179.366 129.958 190.872 140.661 182.749 152.04C173.187 162.074 159.419 150.569 152.635 145.367C146.344 141.334 139.276 151.705 145.113 156.413C194.136 192.709 214.031 126.568 175.634 119.971C171.407 119.244 169.837 123.948 171.815 125.368ZM50.4022 84.9675C62.9672 83.0505 75.8382 82.8305 88.5342 83.4645C95.1352 83.7935 101.728 84.2835 108.306 84.9355C111.74 85.2765 115.171 85.6585 118.595 86.0875C121.051 86.3955 124.843 87.8015 127.177 87.1615C134.309 85.2085 141.08 91.9575 139.113 99.0985C137.162 106.185 128.801 108.054 123.423 103.798C120.873 102.899 118.308 102.047 115.728 101.251C115.531 102.064 115.242 102.868 114.834 103.645C114.376 104.515 113.935 105.391 113.517 106.28C113.607 106.138 112.916 107.795 112.897 107.843L112.345 109.286C111.382 111.774 110.303 114.133 107.688 115.423C104.093 117.195 98.4532 116.218 97.0002 111.99C94.7306 107.543 96.2327 101.331 97.5335 96.7246L97.6342 96.3705C81.9532 92.6415 66.0122 89.8455 50.4022 86.0525C49.8922 85.9285 49.8402 85.0535 50.4022 84.9675ZM236.895 68.241C237.711 66.608 239.561 66.601 240.662 68.135C243.109 71.5405 237.628 76.4179 235.341 78.6843L235.113 78.913C229.972 84.129 223.702 88.333 217.486 92.134C216.182 92.931 214.858 93.691 213.529 94.44C213.775 94.935 213.999 95.44 214.182 95.955C215.123 98.613 215.141 101.788 214.293 104.474C212.527 110.075 207.828 114.55 201.734 114.544C198.52 114.541 194.715 111.502 195.15 107.96C195.305 106.699 195.432 105.357 195.625 104.016C191.339 105.442 186.076 103.771 183.35 100.238C179.559 95.327 180.602 87.278 186.406 84.228C190.674 81.986 195.385 81.42 200.008 80.235C204.596 79.061 209.152 77.712 213.643 76.205C218.072 74.719 222.48 73.127 226.881 71.554C229.058 70.775 231.212 70.057 233.428 69.397C234.418 69.103 235.843 68.33 236.895 68.241Z" fill="black"/>
</svg>
