<svg width="900" height="900" viewBox="0 0 900 900" fill="none" xmlns="http://www.w3.org/2000/svg">
<path fill-rule="evenodd" clip-rule="evenodd" d="M465.936 478.958C462.542 480.292 458.533 480.607 455.03 479.471C451.681 478.384 448.64 475.964 446.8 472.922C445.161 470.212 444.476 466.996 445.445 463.789C445.491 463.636 445.641 463.538 445.786 463.5C446.579 464.221 447.069 464.938 447.558 465.651C448.382 466.853 449.209 468.043 450.344 469.071C451.994 470.566 454.219 471.78 456.426 472.181C458.587 472.574 460.799 472.226 462.735 471.192C463.912 470.563 464.863 469.723 465.805 468.878C466.831 467.959 467.841 467.025 469.254 466.506C470.387 466.09 471.576 466.441 472.49 467.137C473.472 467.885 474.179 469.056 474.139 470.281C474.079 472.178 473.248 473.76 472.044 475.066C470.415 476.831 468.111 478.103 465.936 478.958ZM461.907 431.683C465.682 433.978 471.435 439.33 467.374 445.019C462.593 450.036 455.709 444.284 452.317 441.683C449.171 439.666 445.637 444.852 448.556 447.206C473.067 465.354 483.015 432.283 463.816 428.985C461.703 428.621 460.918 430.973 461.907 431.683ZM422.194 399.884C427.34 399.638 431.875 401.949 436.779 402.999C441.311 403.97 445.776 403.387 450.183 402.152C457.336 400.147 460.293 411.097 453.238 413.231C448.1 414.785 442.69 414.893 437.417 414.092C432.734 413.38 428.808 411.1 424.342 409.773C420.51 408.634 416.002 409.107 411.955 409.644L410.384 409.855C408.049 410.169 405.701 410.485 403.389 410.941C401.383 411.338 399.381 412.063 397.333 412.147C397.101 412.157 396.904 411.855 397.05 411.654C399.429 408.389 404.013 405.812 407.659 404.094L407.906 403.978C412.407 401.879 417.182 400.123 422.194 399.884ZM420.309 423.961L420.308 423.849C420.315 420.66 422.172 413.381 426.762 413.381C429.629 413.381 431.37 418.335 431.672 423.442L431.682 423.651C431.815 426.826 430.944 433.766 426.762 433.766C422.536 433.766 420.352 427.193 420.309 423.961ZM487.886 423.961L487.887 423.849C487.88 420.66 486.023 413.381 481.433 413.381C478.637 413.381 476.912 418.091 476.548 423.06L476.523 423.442C476.342 426.51 477.157 433.766 481.433 433.766C485.659 433.766 487.842 427.193 487.886 423.961ZM487.816 396.001L488.144 396.008C493.508 396.194 499.025 399.371 500.457 404.709C500.531 404.986 500.19 405.172 499.987 404.982C495.577 400.853 489.645 404.799 485.229 406.867L483.606 407.616C477.913 410.265 471.437 413.379 465.115 411.405C462.113 410.468 460.206 407.383 461.062 404.267C461.824 401.494 465.171 399.164 468.069 400.165L468.201 400.213C470.556 401.114 473.452 400.201 475.884 399.301L477.882 398.551C481.094 397.332 484.322 395.968 487.816 396.001Z" fill="black"/>
</svg>
