<svg width="900" height="900" viewBox="0 0 900 900" fill="none" xmlns="http://www.w3.org/2000/svg">
<path fill-rule="evenodd" clip-rule="evenodd" d="M446.233 442.74C456.51 442.333 475.539 444.217 483.301 450.295C491.283 456.313 481.27 475.692 480.149 475.65C468.678 475.22 457.307 476.864 445.968 478.39L443.685 478.698C436.034 479.752 425.367 481.604 421.731 472.776C417.218 457.502 430.89 442.67 446.233 442.74ZM464.343 449.213C458.254 448.298 452.077 448.158 445.878 448.776C440.362 449.327 435.172 450.832 431.719 455.019C432.549 455.159 433.284 455.771 433.788 456.587C441.184 456.811 448.825 456.486 456.308 456.879C460.491 456.97 464.783 457.416 468.959 457.221C472.558 457.053 471.569 454.042 472.074 451.499C469.691 450.43 466.836 449.593 464.343 449.213ZM397.016 391.306C404.401 379.116 426.703 386.718 437.878 389.225C446.454 387.358 447.317 401.624 438.392 400.139C443.248 407.175 441.379 416.379 434.813 421.737C417.698 436.001 386.278 412.699 407.969 396.07C408.217 393.98 410.979 393.386 412.611 392.592L412.027 392.456C407.259 391.352 402.431 390.619 397.695 392.197C397.214 392.226 396.926 391.727 397.016 391.306ZM457.407 416.683C461.183 418.978 466.936 424.33 462.874 430.019C458.093 435.036 451.209 429.284 447.817 426.683C444.672 424.667 441.138 429.852 444.056 432.206C468.568 450.354 478.516 417.283 459.317 413.985C457.203 413.621 456.418 415.973 457.407 416.683ZM496.231 378.002C496.504 377.972 496.619 378.351 496.447 378.522C491.791 383.12 485.975 386.49 480.765 390.412C489.168 391.068 496.832 397.483 499.438 405.437C501.754 418.084 483.48 423.9 473.725 420.08C465.677 417.302 459.842 409.491 464.231 401.197C459.64 401.242 454.995 395.234 458.379 391.778C461.379 388.714 464.867 390.569 466.223 389.845L467.676 389.07C476.732 384.258 486.122 379.632 496.231 378.002ZM433.875 403.682C428.055 394.533 405.218 394.371 405.831 408.478C406.754 427.124 443.674 422.894 433.875 403.682ZM480.996 395.869C476.702 394.951 472.939 399.878 470.532 398.608C456.918 414.148 484.62 423.075 493.692 411.199C498.657 404.785 487.079 396.01 480.996 395.869ZM423.455 404.474C429.091 402.42 429.044 410.774 424.873 412.425C420.103 414.3 418.521 404.361 423.455 404.474ZM474.065 405.372C473.769 400.248 481.49 397.912 483.431 402.98C486.17 409.853 474.47 413.294 474.065 405.372Z" fill="#231F20"/>
</svg>
