<svg width="284" height="284" viewBox="0 0 284 284" fill="none" xmlns="http://www.w3.org/2000/svg">
<path fill-rule="evenodd" clip-rule="evenodd" d="M82.2844 205.22C82.3897 194.202 91.9377 192.302 101.008 193.771C116.363 196.255 131.775 198.003 147.338 198.318L150.02 198.365C150.452 197.735 151.174 197.257 152.154 197.152C160.781 196.22 169.594 196.371 178.268 196.115C185.835 195.893 193.611 195.136 201.177 195.73L201.779 195.783C211.026 196.678 220.784 201.398 219.668 212.25C218.641 222.299 209.035 231.195 201.364 236.779C199.813 237.898 198.227 238.947 196.595 239.903C196.083 240.556 195.336 241.011 194.473 241.104C186.919 245.184 178.584 247.598 169.956 248.402C151.664 250.104 130.399 248.262 112.83 240.335C107.118 237.758 101.79 234.54 97.0797 230.588C89.8167 224.491 82.2037 215.246 82.2844 205.22ZM154.357 227.067C147.024 226.846 139.703 227.872 132.719 230.134C127.986 231.661 123.672 234.598 119.137 236.639C134.421 242.468 152.177 243.739 167.857 242.678C174.736 242.212 181.405 240.626 187.619 237.898C186.651 237.199 185.671 236.488 184.645 235.869C181.545 233.992 178.303 232.395 174.922 231.124C168.336 228.653 161.387 227.289 154.357 227.067ZM156.815 130.717C154.836 129.297 156.406 124.593 160.634 125.32C199.031 131.917 179.136 198.058 130.112 161.763C124.276 157.054 131.344 146.684 137.634 150.716L139.868 152.438C147.13 158.004 159.142 166.419 167.748 157.389C175.872 146.01 164.366 135.307 156.815 130.717ZM182.809 80.659C190.971 73.6949 201.208 78.8273 207.217 85.8808L208.277 87.1419C209.479 88.5809 210.81 90.257 211.61 92.049C218.269 86.379 227.299 82.389 235.94 84.979C244.32 87.5 249.099 95.5 247.66 104.089C246.027 113.856 238.637 120.421 230.696 125.497L228.444 126.927C218.902 133.01 209.973 139.138 202.12 147.5C200.839 148.859 198.07 148.679 197.23 146.87L196.553 145.414L195.87 143.959C190.299 132.08 184.33 120.279 179.429 108.12C175.799 99.109 174.62 87.639 182.809 80.659ZM89.7657 86.9673L91.0091 85.5295C96.9891 78.5695 107.119 73.9095 115.11 80.6595C123.619 87.8495 121.949 99.7395 118.159 108.91C113.595 119.97 108.265 130.786 103.143 141.634L102.049 143.96C101.589 144.93 101.139 145.9 100.69 146.87C99.8491 148.68 97.0701 148.86 95.7991 147.5C88.19 139.4 79.5809 133.406 70.3858 127.516L67.6101 125.75C59.5391 120.63 51.9091 114.02 50.2491 104.09C48.8291 95.5195 53.5791 87.4695 61.9691 84.9785C70.6291 82.4095 79.6391 86.3695 86.3091 92.0495C87.1041 90.212 88.4729 88.4814 89.7657 86.9673ZM100.708 37.0352C103.629 40.8272 100.51 47.0242 96.2446 48.0042C90.9626 49.2192 85.6266 48.4802 80.4406 49.9872C75.6886 51.3682 71.1366 54.1352 67.0636 56.8932C62.4186 60.0372 58.1406 63.5472 54.2096 67.5462C51.8716 69.9252 48.9256 75.5612 45.3196 75.6662C41.7346 75.7712 46.5466 64.5602 46.9446 63.5902C49.7716 56.6852 53.7426 50.3312 58.7096 44.7652C68.5106 33.7822 89.2676 22.1932 100.708 37.0352ZM210.159 34.0002L212.606 34.6798C218.66 36.3628 225.123 38.4308 230.317 42.0598L230.725 42.3487L231.353 42.8086C237.874 47.6698 247.097 57.3697 242.479 65.8318C242.16 66.4148 241.484 66.4728 240.94 66.2348C234.796 63.5438 230.241 58.1698 223.706 55.9218L222.5 55.5113C216.171 53.3794 208.341 51.138 201.529 51.3418C196.739 52.8987 190.27 51.6092 189.023 45.7785L188.967 45.4928L188.859 44.8888C188.141 40.9048 189.209 35.8258 193.328 33.9058C198.972 31.2756 204.478 32.4459 210.159 34.0002Z" fill="black"/>
</svg>
