<svg width="900" height="900" viewBox="0 0 900 900" fill="none" xmlns="http://www.w3.org/2000/svg">
<path fill-rule="evenodd" clip-rule="evenodd" d="M422.668 274.57C455.093 274.57 488.631 299.704 500.518 315.742C510.511 329.227 515.891 390.203 515.891 431.411C515.891 440.029 520.647 456.276 519.259 464.519C514.173 494.728 492.014 520.064 448.158 520.064C404.3 520.064 372.856 502.68 340.258 456.005C324.441 456.005 316.776 443.876 316.663 424.734C316.59 411.973 321.679 403.271 331.931 398.629C328.276 348.269 331.051 316.533 340.258 303.422C354.067 283.755 390.242 274.57 422.668 274.57Z" fill="white"/>
<path fill-rule="evenodd" clip-rule="evenodd" d="M409.023 263.889C429.495 261.816 449.557 263.558 469.733 267.162C471.275 267.441 472.148 268.452 472.473 269.668C481.976 270.102 491.49 270.799 500.981 271.319C504.425 271.507 506.377 274.91 504.807 277.983C504.493 278.594 504.167 279.188 503.836 279.782L504.252 279.644C507.107 278.729 510.192 278.277 512.973 279.731C516.514 281.581 517.902 285.664 517.12 289.421C516.919 290.381 516.583 291.3 516.2 292.197C516.977 292.146 517.759 292.163 518.536 292.266C522.67 292.814 525.743 295.983 525.96 300.203C526.28 306.576 522.174 313.041 517.337 317.603C518.039 319.049 518.308 320.75 518.016 322.475C517.433 325.884 514.922 327.926 512.01 329.258C513.224 333.113 513.798 337.143 513.46 341.263C513.347 342.638 512.144 343.773 510.875 344.052C515.606 357.08 518.001 371.068 519.724 384.698C520.952 394.395 521.557 404.149 521.631 413.919C521.667 418.331 521.594 422.747 521.409 427.159L521.334 428.813C521.106 433.582 521.094 438.589 520.238 443.307C523.162 448.28 524.338 454.454 524.835 460.027C525.452 466.926 524.475 474.041 522.299 480.603C514.087 505.398 489.303 521.046 464.41 525.112C441.368 528.875 414.705 523.81 401.239 502.88C401.028 502.549 401.479 502.275 401.742 502.492C411.375 510.327 422.551 513.822 434.692 515.523C455.684 518.459 479.28 513.479 496.127 500.276C504.213 493.938 510.044 484.709 512.608 474.778C513.916 469.702 514.367 464.407 513.853 459.182C513.327 453.883 510.981 449.36 509.502 444.352C509.005 442.661 509.53 441.091 510.564 439.972C510.855 435.905 511.54 431.805 511.803 427.751C512.094 423.142 512.271 418.533 512.334 413.919C512.454 404.348 512.054 394.76 511.249 385.229C509.776 367.777 505.864 350.748 503.568 333.445C502.719 334.207 501.5 334.52 500.223 333.854L500.091 333.782L499.394 333.382C499.354 333.382 499.308 333.388 499.268 333.393C494.5 333.856 489.554 333.194 484.986 331.771C480.205 330.287 475.769 328.003 471.805 324.959C471.052 328.779 470.737 332.639 470.732 336.534C470.726 338.967 468.151 340.229 466.106 339.19C457.044 334.587 448.386 329.282 440.169 323.32C439.209 328.237 438.25 333.153 437.284 338.076C436.913 339.972 434.497 340.738 432.95 339.835C426.794 336.254 421.478 331.566 417.149 325.992C416.285 327.645 415.418 329.298 414.545 330.946L413.231 333.416C411.935 335.843 410.199 338.528 407.361 339.304C404.357 340.126 401.849 338.179 400.839 335.46C400.531 334.616 400.245 333.747 399.983 332.874C397.424 338.716 394.535 344.427 391.268 349.875C386.368 358.046 380.486 365.327 374.622 372.797C372.84 375.064 369.79 372.9 369.545 370.696C369.402 369.4 369.282 368.097 369.179 366.801C365.762 373.697 362.196 380.528 358.311 387.162L358.867 389.342C360.47 395.782 361.801 402.268 363.248 408.743C363.715 410.832 362.605 413.819 360.164 414.174C357.249 414.599 354.49 416.089 351.503 415.064C348.246 413.946 347.603 411.131 346.065 408.463C345.759 407.932 345.402 407.443 345.018 406.98L344.92 407.106C344.681 407.421 344.11 407.078 344.252 406.719L344.42 406.303C343.099 404.901 341.518 403.731 340.065 402.473C336.611 401.891 332.726 402.529 330.346 403.932C324.927 407.129 322.438 413.719 322.386 419.779C322.323 426.872 324.521 434.844 328.233 440.908C329.867 443.575 332.106 445.985 335.063 447.167C337.999 448.343 341.18 447.978 344.167 449.085C346.143 449.823 347.359 452.016 346.165 454.002C346.085 454.14 345.994 454.265 345.908 454.397L346.796 455.576C347.407 456.393 348.044 457.267 348.638 458.177C350.157 459.925 351.756 461.61 353.304 463.328C356.164 466.497 358.94 469.753 361.755 472.967C364.411 476 367.221 478.849 370.116 481.653C372.851 484.309 376.266 486.542 378.779 489.375C381.223 492.139 381.886 496.964 377.865 498.563C373.417 500.338 369.479 496.18 366.484 493.408L366.358 493.292C360.869 488.241 355.912 482.468 351.976 476.113C348.077 478.767 342.437 479.021 338.554 476.367C336.511 474.971 334.943 472.624 334.182 470.072C333.463 470.233 332.745 470.327 332.045 470.316C331.685 470.525 331.323 470.728 330.958 470.918C328.062 472.425 324.505 471.752 323.18 468.547C321.974 465.639 323.217 462.335 324.304 459.533L324.528 458.953C325.144 457.355 325.824 455.613 326.669 453.974C324.316 452.204 322.306 450.005 320.604 447.504C314.888 439.081 312.033 426.763 313.295 416.712C314.054 410.648 316.903 404.366 321.569 400.276L321.398 399.831C320.091 396.514 318.902 393.184 318.132 389.678C317.229 385.578 316.789 381.329 316.39 377.155C315.545 368.337 315.773 359.32 316.898 350.537C319.011 334.005 324.368 317.775 333.876 304.018C331.18 300.791 329.045 296.993 330.158 292.625C330.667 290.62 331.825 288.719 333.573 287.571C334.538 286.938 335.686 286.84 336.651 286.315L336.942 286.156C337.366 285.908 337.041 285.934 336.788 284.785C335.789 280.193 336.617 275.756 341.671 274.231C346.428 272.798 350.928 275.842 353.743 279.468C361.11 274.242 370.818 271.507 379.356 269.183C389.064 266.55 399.023 264.906 409.023 263.889ZM329.451 417.906C329.416 414.165 332.962 411.858 336.452 412.47C338.795 412.878 340.75 414.276 342.585 415.722L343.481 416.43C345.716 418.185 348.282 420.076 349.615 422.561C351.568 426.227 347.439 431.16 343.585 428.59C340.94 426.818 339.245 423.979 337.511 421.341L337.332 421.07C336.543 419.887 335.853 418.631 334.773 417.683L334.539 417.479C334.184 417.176 333.803 416.9 333.345 416.769C332.46 416.515 330.823 416.871 330.433 417.924L330.398 418.031C330.255 418.563 329.457 418.448 329.451 417.906Z" fill="black"/>
</svg>
