<svg width="788" height="788" viewBox="0 0 788 788" fill="none" xmlns="http://www.w3.org/2000/svg">
<path fill-rule="evenodd" clip-rule="evenodd" d="M395.041 188.26C451.821 188.26 510.551 232.272 531.365 260.357C548.864 283.97 558.286 390.746 558.286 462.905C558.286 477.997 566.614 506.446 564.184 520.882C555.278 573.781 516.475 618.146 439.677 618.146C362.878 618.146 307.815 587.705 250.732 505.973C223.036 505.973 209.613 484.733 209.415 451.214C209.287 428.868 218.199 413.63 236.152 405.5C229.751 317.314 234.611 261.741 250.732 238.782C274.914 204.343 338.26 188.26 395.041 188.26Z" fill="white"/>
<path fill-rule="evenodd" clip-rule="evenodd" d="M371.146 169.556C406.996 165.926 442.126 168.976 477.456 175.287C480.156 175.776 481.686 177.547 482.255 179.676C498.896 180.436 515.556 181.657 532.175 182.567C538.206 182.897 541.625 188.856 538.875 194.237C538.326 195.306 537.755 196.346 537.175 197.386L537.904 197.146C542.903 195.542 548.304 194.752 553.175 197.297C559.375 200.537 561.806 207.686 560.436 214.266C560.085 215.946 559.496 217.556 558.826 219.127C560.186 219.037 561.556 219.067 562.916 219.247C570.156 220.207 575.536 225.757 575.916 233.147C576.476 244.306 569.286 255.627 560.816 263.616C562.045 266.147 562.516 269.127 562.005 272.147C560.985 278.117 556.587 281.692 551.489 284.024C553.615 290.775 554.62 297.833 554.027 305.046C553.829 307.454 551.723 309.443 549.5 309.931C557.786 332.745 561.98 357.239 564.996 381.106C567.146 398.087 568.206 415.167 568.335 432.276C568.398 440.001 568.271 447.734 567.947 455.46L567.816 458.356C567.416 466.707 567.396 475.476 565.896 483.737C571.016 492.446 573.076 503.257 573.946 513.016C575.026 525.096 573.316 537.556 569.505 549.047C555.125 592.466 511.726 619.866 468.135 626.987C427.786 633.577 381.096 624.707 357.516 588.056C357.146 587.476 357.936 586.997 358.396 587.377C375.266 601.096 394.835 607.216 416.096 610.196C452.856 615.337 494.175 606.616 523.675 583.497C537.835 572.397 548.045 556.237 552.536 538.846C554.826 529.957 555.616 520.686 554.715 511.537C553.795 502.257 549.686 494.337 547.096 485.567C546.226 482.606 547.146 479.856 548.956 477.897C549.465 470.776 550.666 463.596 551.125 456.497C551.635 448.426 551.946 440.356 552.056 432.276C552.266 415.516 551.566 398.726 550.156 382.037C547.576 351.476 540.726 321.657 536.706 291.356C535.218 292.691 533.084 293.239 530.848 292.073L530.616 291.946L529.396 291.247C529.326 291.247 529.246 291.257 529.175 291.266C520.826 292.077 512.166 290.917 504.166 288.426C495.795 285.827 488.026 281.827 481.085 276.497C479.766 283.186 479.215 289.946 479.206 296.766C479.196 301.026 474.686 303.237 471.106 301.417C455.236 293.356 440.076 284.067 425.686 273.627C424.005 282.237 422.326 290.846 420.635 299.466C419.986 302.787 415.755 304.127 413.045 302.547C402.266 296.276 392.956 288.067 385.376 278.306C383.863 281.2 382.345 284.094 380.817 286.981L378.516 291.306C376.246 295.556 373.206 300.257 368.236 301.616C362.976 303.056 358.585 299.647 356.816 294.886C356.276 293.407 355.776 291.886 355.316 290.356C350.835 300.587 345.776 310.587 340.056 320.127C331.476 334.436 321.175 347.186 310.906 360.266C307.786 364.237 302.446 360.446 302.016 356.587C301.766 354.317 301.556 352.037 301.375 349.766C295.391 361.842 289.147 373.805 282.344 385.421L283.318 389.238C286.125 400.516 288.456 411.874 290.99 423.212C291.808 426.87 289.864 432.1 285.59 432.723C280.484 433.467 275.653 436.076 270.423 434.281C264.72 432.323 263.593 427.394 260.901 422.722C260.364 421.791 259.739 420.936 259.067 420.124L258.896 420.346C258.476 420.897 257.476 420.297 257.726 419.667L258.019 418.939C255.706 416.484 252.938 414.436 250.393 412.233C244.345 411.214 237.542 412.33 233.375 414.787C223.885 420.386 219.526 431.926 219.436 442.537C219.326 454.957 223.175 468.917 229.675 479.537C232.536 484.207 236.456 488.426 241.635 490.497C246.776 492.556 252.346 491.917 257.576 493.856C261.036 495.147 263.166 498.987 261.076 502.466C260.936 502.707 260.776 502.926 260.625 503.157L262.181 505.222C263.251 506.652 264.366 508.183 265.406 509.776C268.066 512.837 270.866 515.787 273.576 518.797C278.585 524.346 283.446 530.047 288.375 535.676C293.026 540.987 297.946 545.976 303.016 550.886C307.806 555.537 313.786 559.446 318.186 564.407C322.465 569.247 323.626 577.696 316.585 580.497C308.796 583.604 301.9 576.324 296.657 571.47L296.436 571.266C286.824 562.421 278.144 552.313 271.251 541.184C264.423 545.832 254.547 546.276 247.748 541.629C244.17 539.184 241.425 535.075 240.091 530.605C238.833 530.887 237.576 531.052 236.35 531.033C235.719 531.399 235.086 531.755 234.446 532.087C229.375 534.726 223.146 533.547 220.826 527.936C218.714 522.843 220.891 517.058 222.794 512.15L223.186 511.136C224.266 508.337 225.456 505.287 226.936 502.417C222.816 499.317 219.295 495.466 216.316 491.087C206.306 476.337 201.306 454.766 203.516 437.167C204.846 426.547 209.835 415.547 218.005 408.386L217.706 407.606C215.416 401.797 213.335 395.966 211.986 389.827C210.406 382.647 209.635 375.207 208.936 367.897C207.456 352.457 207.856 336.667 209.826 321.287C213.526 292.337 222.906 263.917 239.556 239.827C234.835 234.176 231.096 227.526 233.045 219.877C233.936 216.366 235.965 213.037 239.026 211.026C240.715 209.917 242.726 209.747 244.416 208.827L244.924 208.548C245.667 208.114 245.099 208.16 244.656 206.147C242.906 198.106 244.356 190.337 253.206 187.667C261.536 185.157 269.416 190.487 274.346 196.837C287.246 187.686 304.246 182.897 319.196 178.827C336.196 174.216 353.635 171.337 371.146 169.556ZM231.807 439.257C231.746 432.707 237.956 428.667 244.067 429.738C248.17 430.452 251.593 432.901 254.807 435.432L256.375 436.672C260.289 439.745 264.782 443.057 267.116 447.408C270.536 453.828 263.307 462.467 256.557 457.967C251.926 454.864 248.958 449.892 245.921 445.273L245.607 444.797C244.227 442.727 243.017 440.527 241.126 438.867L240.717 438.509C240.096 437.979 239.428 437.496 238.626 437.267C237.077 436.822 234.209 437.445 233.527 439.288L233.466 439.477C233.216 440.408 231.817 440.207 231.807 439.257Z" fill="black"/>
</svg>
