<svg width="788" height="788" viewBox="0 0 788 788" fill="none" xmlns="http://www.w3.org/2000/svg">
<path fill-rule="evenodd" clip-rule="evenodd" d="M534.417 306.809C527.339 281.313 528.351 278.555 517.802 254.202C482.822 183.452 249.063 207.141 225.206 277.765C212.263 316.079 215.304 370.038 211.935 403.261C210.904 420.876 209.891 438.492 208.842 456.105C208.48 462.188 208.113 468.27 207.74 474.352C207.013 486.192 206.306 498.032 205.646 509.876C201.251 546.362 219.587 550.073 251.038 548.993C259.353 569.054 272.82 585.8 289.455 599.425C285.44 610.347 300 616.001 307.854 620.368C350.587 644.228 403.078 658.783 450.411 645.366C464.319 641.424 521.753 627.771 539.412 585.505C548.084 564.749 565.713 457.264 542.465 360.576L534.417 306.809Z" fill="white"/>
<path fill-rule="evenodd" clip-rule="evenodd" d="M385.001 140.506C391.61 139.337 399.001 139.787 402.79 146.277C403.61 147.676 404.13 149.087 404.38 150.477C422.44 146.417 441.19 145.977 459.64 148.637C465.14 149.426 467.07 156.756 464.65 160.947C464.4 161.377 464.15 161.796 463.88 162.207C469.66 162.676 475.43 163.676 481.15 165.217C485.22 166.317 489.02 171.587 487.211 175.907C487.05 176.287 486.88 176.667 486.711 177.046C495.7 178.557 504.29 182.087 511.8 187.787C512.7 188.457 513.53 189.327 514.22 190.317C531.01 188.426 548.3 191.897 563.29 199.997C567.49 202.266 569.52 208.807 566.67 212.887C565.78 214.157 564.85 215.367 563.85 216.537C570.37 218.947 576.14 222.846 580.03 229.197C584.26 236.087 585.56 244.957 583.29 252.537C588.03 257.367 590.51 264.766 588.82 272.186C587.28 278.957 583.13 283.256 577.81 285.837C578.89 289.137 578.02 292.887 575.57 295.436C571.81 299.346 567.31 302.346 562.41 304.317C562.4 305.587 562.08 306.897 561.44 308.117C557.02 316.596 547.49 322.227 537.8 323.077C541.06 336.766 543.74 350.627 546.34 364.407C550.961 388.917 554.54 413.667 556.72 438.516L556.985 441.589C560.536 483.637 561.362 527.688 552.81 569.167C547.36 595.577 530.84 617.837 508.8 632.917C486.39 648.256 459.01 655.887 432.07 657.096C418.33 657.707 404.461 656.546 391.001 653.727C384.61 652.387 378.44 650.487 372.37 648.067C365.84 645.457 360.461 641.607 354.94 637.277C352.07 635.027 353.711 629.717 357.11 629.046C359.54 628.557 361.94 628.027 364.36 627.587C366.58 627.176 369.001 629.397 368.54 631.447L373.223 632.653C374.783 633.055 376.343 633.461 377.899 633.879L380.23 634.516C386.86 636.367 393.64 637.926 400.44 639.037C414.28 641.287 428.68 641.337 442.59 639.587C465.98 636.657 489.87 628.317 508.06 612.947C516.98 605.407 524.41 596.477 529.8 586.107C536.65 572.936 538.72 558.266 540.44 543.697C545.41 501.567 543.88 459.377 540.02 417.237C538.1 396.277 535.48 375.357 532.7 354.487C531.27 343.787 529.73 333.067 528.461 322.327C525.63 321.567 522.93 320.307 520.51 318.477C518.87 317.237 517.91 315.796 517.49 314.327C515.047 313.866 512.705 312.525 511.017 310.258L510.8 309.957C506.37 303.546 498.711 299.877 491.62 297.207C487.32 295.587 482.94 294.176 478.58 292.737C474.04 291.227 469.24 288.997 464.47 288.417C459.06 287.777 453.61 289.407 448.15 288.827C443.19 288.287 438.82 286.506 435.251 282.947C434.001 281.707 432.92 280.277 432.06 278.737C415.41 282.296 397.92 277.807 380.62 278.887C369.24 279.607 359.2 286.647 347.7 286.457C344.56 286.407 341.52 285.307 339.31 283.377C328.461 285.447 317.43 289.426 307.23 292.846C297.15 296.227 287.45 300.777 277.49 304.467C277.48 304.477 277.48 304.477 277.48 304.487C276.18 308.697 272.3 310.516 268.17 309.777C254.66 307.367 243.28 298.846 230.13 295.727C226.51 308.917 222.62 321.936 219.961 335.387C217.27 348.957 215.38 362.707 214.13 376.487C212.87 390.317 212.27 404.287 212.24 418.167C212.23 425.247 212.41 432.346 212.65 439.426C212.845 445.358 213.975 452.857 211.832 458.562L211.64 459.046H211.63C211.37 459.877 210.2 460.377 209.54 459.607C205.51 454.926 204.55 447.477 203.43 441.596C202.07 434.457 201.2 427.247 200.501 420.016C199.1 405.506 198.79 391.057 199.53 376.487C200.98 347.807 205.58 317.516 215.4 290.407C212.38 290.686 211.03 286.237 210.83 283.727C210.448 278.683 211.238 273.33 212.094 268.271L212.99 263.033C213.838 258.09 214.737 253.275 216.42 248.467C220.461 236.926 226.27 226.087 233.51 216.237C248.28 196.147 268.751 180.936 292.06 172.167C293.52 171.617 294.9 171.627 296.12 172.046C317.33 160.617 340.13 151.817 363.29 145.557C370.45 143.627 377.7 141.807 385.001 140.506ZM208.861 462.936C218.491 456.897 238.361 455.317 243.731 468.186C243.951 468.706 243.331 469.167 242.871 469.047L241.557 468.715C236.509 467.464 232.147 466.745 226.971 468.818C222.421 470.638 218.001 473.486 214.991 477.406C207.875 486.677 207.104 499.269 207.767 510.514L207.801 511.057C208.421 520.926 210.951 532.947 220.601 537.827C225.491 540.297 230.781 540.117 236.091 540.077C242.141 540.037 248.321 540.696 254.101 542.557C257.331 543.596 258.851 547.877 256.171 550.388C255.281 551.218 254.351 551.997 253.371 552.697C256.301 555.818 259.181 558.977 261.971 562.307C266.701 567.956 271.731 573.416 276.981 578.586C282.061 583.576 287.441 588.407 293.241 592.547C299.341 596.888 306.641 599.937 311.921 605.257C315.361 608.718 314.771 613.547 311.921 617.047C304.845 625.745 292.803 616.601 286.038 611.457L285.221 610.836C278.191 605.516 271.511 599.777 265.821 593.017C260.021 586.117 255.001 578.777 251.291 570.547C249.111 565.707 247.721 561.138 246.971 556.358C234.811 561.638 219.481 559.956 208.581 552.526C194.111 542.666 190.051 524.568 190 508.047L190.001 507.067C190.109 491.009 194.327 472.05 208.861 462.936ZM236.294 486.212L236.74 486.217C242.096 486.333 246.872 488.262 251.421 490.919L251.89 491.197C256.31 493.827 262.65 495.936 264.99 500.857C266.39 503.827 266.29 507.227 263.85 509.686C259.43 514.147 252.76 513.407 247.98 509.926C244.41 507.317 242.06 503.407 238.56 500.766C231.98 495.787 221.6 496.067 214.751 500.377C214.33 500.647 213.921 500.137 214.11 499.737C218.317 491.129 226.653 486.178 236.294 486.212Z" fill="black"/>
</svg>
