<svg width="900" height="900" viewBox="0 0 900 900" fill="none" xmlns="http://www.w3.org/2000/svg">
<path fill-rule="evenodd" clip-rule="evenodd" d="M511.685 321.259C507.643 306.7 508.221 305.125 502.197 291.217C482.221 250.814 348.729 264.342 335.106 304.673C327.714 326.553 329.451 357.367 327.527 376.34C326.938 386.399 326.36 396.459 325.761 406.517C325.554 409.991 325.344 413.464 325.131 416.938C324.716 423.699 324.312 430.46 323.935 437.224C321.426 458.06 331.897 460.179 349.857 459.562C354.606 471.019 362.296 480.582 371.796 488.362C369.503 494.6 377.818 497.828 382.303 500.322C406.706 513.948 436.682 522.26 463.712 514.598C471.655 512.347 504.453 504.55 514.538 480.413C519.49 468.56 529.558 407.179 516.281 351.964L511.685 321.259Z" fill="white"/>
<path fill-rule="evenodd" clip-rule="evenodd" d="M426.358 226.289C430.133 225.621 434.353 225.878 436.517 229.585C436.985 230.384 437.282 231.189 437.425 231.983C447.739 229.665 458.446 229.413 468.982 230.932C472.123 231.383 473.225 235.569 471.843 237.962C471.701 238.208 471.558 238.447 471.404 238.682C474.704 238.949 477.999 239.521 481.266 240.401C483.59 241.029 485.76 244.038 484.727 246.505C484.635 246.722 484.538 246.939 484.442 247.156C489.575 248.019 494.48 250.034 498.769 253.29C499.283 253.672 499.757 254.169 500.151 254.734C509.739 253.654 519.613 255.637 528.173 260.262C530.572 261.558 531.731 265.293 530.103 267.623C529.595 268.349 529.064 269.04 528.493 269.708C532.216 271.084 535.511 273.311 537.733 276.937C540.149 280.872 540.891 285.937 539.595 290.266C542.301 293.024 543.718 297.25 542.753 301.487C541.873 305.354 539.503 307.809 536.465 309.283C537.082 311.167 536.585 313.309 535.186 314.764C533.039 316.997 530.469 318.71 527.671 319.836C527.665 320.561 527.482 321.309 527.117 322.006C524.593 326.848 519.15 330.064 513.617 330.549C515.478 338.366 517.009 346.282 518.494 354.151C521.133 368.148 523.176 382.282 524.421 396.472L524.573 398.227C526.601 422.239 527.072 447.395 522.188 471.083C519.076 486.165 509.642 498.876 497.056 507.488C484.258 516.248 468.622 520.606 453.238 521.296C445.392 521.645 437.471 520.982 429.785 519.372C426.135 518.607 422.612 517.522 419.145 516.14C415.416 514.649 412.344 512.451 409.192 509.978C407.553 508.693 408.49 505.661 410.431 505.278C411.819 504.998 413.189 504.696 414.571 504.444C415.839 504.21 417.221 505.478 416.958 506.649L419.632 507.337C420.523 507.567 421.414 507.799 422.303 508.038L423.634 508.401C427.42 509.458 431.292 510.349 435.175 510.983C443.079 512.268 451.302 512.297 459.246 511.297C472.603 509.624 486.246 504.861 496.633 496.084C501.727 491.778 505.97 486.679 509.048 480.757C512.96 473.235 514.142 464.858 515.124 456.538C517.963 432.479 517.089 408.385 514.885 384.321C513.788 372.351 512.292 360.404 510.704 348.486C509.888 342.376 509.008 336.254 508.284 330.121C506.667 329.687 505.125 328.967 503.743 327.922C502.806 327.214 502.258 326.391 502.018 325.552C500.623 325.289 499.286 324.523 498.322 323.229L498.198 323.057C495.668 319.396 491.294 317.3 487.245 315.776C484.789 314.85 482.288 314.045 479.798 313.223C477.206 312.361 474.464 311.087 471.74 310.756C468.651 310.39 465.539 311.321 462.421 310.99C459.588 310.682 457.093 309.665 455.055 307.632C454.341 306.924 453.723 306.107 453.232 305.228C443.724 307.26 433.736 304.697 423.857 305.314C417.358 305.725 411.624 309.745 405.057 309.637C403.264 309.608 401.528 308.98 400.266 307.878C394.07 309.06 387.771 311.332 381.946 313.285C376.19 315.216 370.65 317.814 364.963 319.922C364.957 319.927 364.957 319.927 364.957 319.933C364.214 322.337 361.999 323.376 359.64 322.954C351.925 321.578 345.426 316.712 337.917 314.93C335.85 322.463 333.628 329.897 332.11 337.579C330.573 345.328 329.494 353.18 328.78 361.05C328.06 368.948 327.718 376.925 327.701 384.852C327.695 388.895 327.798 392.949 327.935 396.992C328.046 400.38 328.691 404.662 327.468 407.92L327.358 408.196H327.352C327.204 408.671 326.536 408.956 326.159 408.517C323.857 405.844 323.309 401.59 322.669 398.231C321.893 394.154 321.396 390.037 320.997 385.908C320.197 377.621 320.02 369.37 320.442 361.05C321.27 344.672 323.897 327.373 329.505 311.892C327.78 312.052 327.01 309.511 326.895 308.078C326.677 305.197 327.128 302.14 327.617 299.251L328.129 296.26C328.613 293.437 329.126 290.688 330.088 287.942C332.395 281.351 335.713 275.161 339.847 269.536C348.282 258.064 359.972 249.377 373.283 244.369C374.117 244.055 374.905 244.061 375.602 244.3C387.714 237.774 400.734 232.748 413.96 229.173C418.049 228.071 422.189 227.032 426.358 226.289ZM325.771 410.418C331.27 406.969 342.617 406.067 345.684 413.416C345.81 413.713 345.456 413.976 345.193 413.908L344.442 413.718C341.56 413.004 339.069 412.593 336.113 413.777C333.515 414.816 330.99 416.443 329.272 418.681C325.208 423.975 324.768 431.166 325.146 437.588L325.166 437.898C325.52 443.534 326.964 450.399 332.475 453.185C335.268 454.596 338.289 454.493 341.321 454.47C344.776 454.448 348.305 454.824 351.606 455.887C353.45 456.48 354.318 458.925 352.788 460.359C352.28 460.833 351.749 461.278 351.189 461.677C352.862 463.46 354.507 465.264 356.1 467.165C358.801 470.391 361.674 473.509 364.672 476.462C367.573 479.311 370.645 482.07 373.957 484.434C377.441 486.913 381.61 488.654 384.625 491.692C386.589 493.669 386.252 496.427 384.625 498.425C380.584 503.392 373.707 498.171 369.844 495.233L369.377 494.878C365.363 491.84 361.548 488.563 358.299 484.703C354.987 480.762 352.12 476.571 350.001 471.871C348.756 469.107 347.962 466.498 347.534 463.768C340.59 466.783 331.836 465.823 325.611 461.58C317.348 455.949 315.029 445.614 315 436.179L315.001 435.619C315.062 426.449 317.471 415.622 325.771 410.418ZM341.437 423.71L341.692 423.713C344.75 423.779 347.478 424.881 350.075 426.398L350.343 426.557C352.867 428.059 356.488 429.263 357.824 432.073C358.624 433.769 358.567 435.711 357.173 437.115C354.649 439.663 350.84 439.24 348.11 437.252C346.072 435.762 344.73 433.529 342.731 432.021C338.973 429.178 333.046 429.338 329.134 431.799C328.894 431.953 328.66 431.662 328.768 431.434C331.171 426.518 335.931 423.69 341.437 423.71Z" fill="black"/>
</svg>
