<svg width="788" height="788" viewBox="0 0 788 788" fill="none" xmlns="http://www.w3.org/2000/svg">
<path fill-rule="evenodd" clip-rule="evenodd" d="M615.548 398.86C621.742 354.157 608.514 311.016 591.377 270.16C590.436 267.672 588.943 265.517 587.024 263.985C538.661 166.508 467.598 157.681 368.459 164.394C365.53 164.329 365.356 164.381 363.132 163.386C362.764 123.788 317.539 102.813 283.124 115.878C130.492 186.807 178.486 386.492 208.859 516.857C219.695 567.322 230.534 617.784 241.372 668.247C241.736 669.935 242.503 671.394 243.523 672.624C241.949 673.221 240.374 673.781 238.829 674.307C235.303 675.507 236.704 680.764 240.374 679.912C243.971 679.077 247.437 677.958 250.866 676.739C256.212 677.899 260.694 674.406 264.891 671.62C314.037 652.186 334.669 588.315 347.275 541.262C398.526 577.422 480.419 604.504 539.018 571.988C593.926 538.922 613.7 469.947 609.799 409.068C613.806 407.224 615.423 403.204 615.528 399.013H615.552C615.551 398.962 615.548 398.911 615.548 398.86Z" fill="white"/>
<path fill-rule="evenodd" clip-rule="evenodd" d="M269.041 119.602C280.372 112.262 294.915 109.53 308.265 110.065C315.385 110.35 322.032 112.125 328.596 114.791C334.68 117.263 340.044 120.814 345.968 123.52C346.328 123.684 346.056 124.189 345.716 124.12C338.701 122.704 330.465 123.559 323.352 124.573L322.644 124.675C315.653 125.69 308.539 126.215 301.648 127.826C288.954 130.793 277.147 137.258 270.18 148.503C261.083 163.189 258.751 182.199 259.724 199.143C260.216 207.716 261.906 216.15 264.538 224.323C266.118 229.228 269.789 234.163 271.504 239.31C272.809 236.874 274.156 234.462 275.551 232.079C269.196 229.084 267.414 220.76 267.085 213.248C266.106 212.302 265.476 210.933 265.455 209.676C265.399 206.297 266.194 203.238 267.546 200.439C268.318 192.511 269.954 184.607 272.77 177.178C283.823 148.011 312.982 121.723 346.049 124.32C355.137 125.034 363.98 128.893 368.679 137.097C372.454 143.685 372.479 151.632 369.875 158.639C369.103 160.719 368.099 162.597 366.919 164.31C370.492 163.404 374.071 162.535 377.644 161.674C390.04 158.686 402.499 156.345 415.191 155.043C432.476 153.271 450.117 155.952 465.956 162.851C470.3 163.968 474.623 165.168 478.92 166.45C497.829 172.088 517.229 179.452 532.502 192.321C539.529 198.242 544.558 205.13 548.64 212.694C563.929 226.325 578.549 241.777 588.869 259.453C610.132 295.872 615.21 340.921 616.084 382.324C616.887 420.358 613.546 458.782 606.418 496.153C603.182 513.113 597.951 528.875 587.369 542.784C575.585 558.273 559.868 570.476 542.232 578.664C506.327 595.334 461.888 597.759 426.988 577.106C416.491 570.895 425.943 554.704 436.546 560.755C471.001 580.416 514.973 575.925 548.125 555.081C562.13 546.276 574.199 534.235 581.866 519.49C587.465 508.72 589.868 496.37 591.948 484.345L593.054 477.913C599.477 440.935 602.381 403.006 600.836 365.493C599.294 328.073 593.359 287.543 572.163 255.73C560.983 238.95 546.726 224.25 531.751 210.846C530.699 209.904 529.645 208.966 528.59 208.031C522.737 204.514 516.671 201.443 510.702 198.822L509.432 198.273C505.999 196.809 501.197 194.919 496.742 193.407C490.374 191.246 483.903 189.326 477.405 187.596C473.999 186.689 470.577 185.857 467.146 185.062C468.342 186.159 469.531 187.266 470.699 188.401C476.233 193.778 480.623 200.168 485.87 205.806C486.463 206.442 485.715 207.37 484.961 206.983C476.982 202.889 468.134 200.239 459.803 196.922C451.926 193.786 444.271 190.176 436.534 186.716C434.596 185.848 432.664 184.921 430.737 184.004C423.128 184.082 415.519 184.261 407.927 184.694C417.105 191.227 425.487 198.948 432.43 207.415C433.003 208.112 432.482 209.229 431.518 208.982C416.984 205.26 403.162 199.791 389.348 194.059L382.738 191.308C377.88 191.062 373.015 190.947 368.149 191.019L365.791 191.058C360.683 191.156 355.584 191.358 350.521 192.132C349.317 192.315 348.137 192.489 346.965 192.649C339.84 195.557 332.984 199.063 326.815 203.684L328.422 203.589C338.176 203.034 348.121 203.874 357.567 206.392C375.921 211.287 391.582 223.074 402.978 238.103C403.319 238.553 402.656 239.179 402.209 238.873C387.872 229.058 371.243 224.114 354.206 221.429C345.971 220.13 337.49 219.683 329.176 220.33C322.292 220.865 315.171 223.29 308.322 222.113C306.455 224.438 304.662 226.833 302.936 229.281C303.843 229.223 304.754 229.17 305.671 229.127C315.507 228.665 325.524 229.296 335.128 231.56C354.311 236.085 370.341 247.601 385.005 260.244C385.295 260.494 384.921 260.94 384.607 260.76C368.704 251.582 350.22 248.839 332.205 247.183C323.133 246.349 313.959 245.971 304.867 246.695C300.702 247.026 296.583 247.713 292.43 248.14C292.094 248.175 291.745 248.184 291.399 248.2C288.389 253.876 285.66 259.654 283.198 265.415C290.712 263.399 298.819 262.341 306.577 262.863C322.335 263.924 337.965 271.149 350.544 280.39C350.938 280.679 350.718 281.449 350.183 281.247C336.491 276.074 322.918 276.032 308.629 278.028C301.93 278.964 295.299 280.234 288.827 282.226C285.573 283.228 282.356 284.321 279.268 285.76C277.866 286.412 276.501 287.172 275.121 287.889C274.017 291.637 273.03 295.42 272.14 299.226C295.496 300.543 317.499 311.567 336.648 324.219C337.111 324.525 336.822 325.377 336.25 325.161C324.819 320.848 312.384 318.854 300.259 317.693C289.657 316.678 279.253 317.23 268.712 317.526C268.147 321.531 267.69 325.548 267.359 329.573C269.054 330.048 270.717 330.56 272.316 331.041C277.575 332.621 282.824 334.748 287.731 337.214C297.699 342.223 305.776 348.994 313.903 356.521C314.327 356.914 313.885 357.772 313.31 357.539C303.877 353.726 293.57 351.284 283.64 349.123C278.501 348.005 273.36 346.973 268.185 346.026C267.684 345.934 267.175 345.857 266.667 345.781C266.618 354.957 267.137 364.137 268.281 373.241L268.503 374.947C269.123 379.555 268.616 384.012 265.565 387.195C269.785 384.39 274.613 382.447 279.964 381.702C294.055 379.741 307.103 385.371 315.97 396.261C316.385 396.77 315.745 397.438 315.241 396.99C306.636 389.333 293.375 387.978 282.688 391.583C272.794 394.92 265.356 402.887 262.375 412.856C259.207 423.45 260.658 435.146 266.435 444.59C269.313 449.295 273.47 453.501 278.672 455.57C279.314 455.826 279.968 456.039 280.629 456.224C283.769 455.076 287.148 455.596 290.377 457.051L290.796 457.248C292.856 457.236 294.907 457.173 296.9 457.191C300.779 457.228 302.644 461.346 301.016 464.411C301.939 466.102 302.615 468.002 303.426 469.659C304.891 472.649 306.425 475.62 307.967 478.572C310.148 481.074 312.231 483.664 313.645 486.684C314.225 487.923 314.773 489.265 315.193 490.611C316.405 492.434 317.637 494.247 318.899 496.051C322.979 501.879 327.276 507.4 332.041 512.691C334.905 515.871 338.2 518.71 341.232 521.758C342.151 521.88 343.052 522.506 343.336 523.406L343.584 524.267C344.561 525.368 345.496 526.502 346.338 527.71C348.206 530.389 347.694 533.107 346.053 535.066C348.652 551.282 346.882 568.534 343.405 584.258C341.157 594.418 338.532 604.569 335.009 614.37C333.218 619.352 331.049 624.138 328.052 628.514C326.409 630.912 324.269 633.705 321.869 635.987C321.504 638.643 321.03 641.277 320.351 643.859C312.3 674.456 279.344 683.771 251.75 687.679C246.424 688.432 241.153 687.146 238.252 682.185C237.582 681.04 237.132 679.805 236.89 678.536C235.688 678.216 234.532 677.653 233.495 676.844C233.322 678.761 233.122 680.685 232.869 682.63C232.238 687.492 225.675 688.954 224.03 683.826C217.088 662.184 213.317 639.365 208.56 617.126C203.813 594.934 198.512 572.86 193.607 550.702L187.397 522.737C172.242 454.261 158.048 384.909 161.532 314.482C163.434 276.038 170.488 237.694 185.586 202.168C198.163 172.573 219.389 139.324 253.678 133.273C253.914 133.232 254.124 133.256 254.32 133.306C258.392 128.011 263.257 123.348 269.041 119.602ZM289.731 491.827C292.496 501 294.47 510.404 295.544 520.001C297.333 535.996 296.446 552.381 295.669 568.419C294.954 583.153 293.257 598.015 290.368 612.483C287.595 626.375 283.249 639.995 276.788 652.632C275.743 654.676 274.62 656.666 273.44 658.618C277.013 657.427 280.239 656.041 283.599 654.119C287.828 651.699 291.698 648.579 293.815 645.288C297.213 640.009 298.353 634.144 298.85 627.852C300.128 611.67 300.719 595.44 301.534 579.231L301.715 575.701C303.033 550.376 304.761 524.403 302.18 499.05C298.549 498.096 295.273 496.223 292.25 493.873C291.416 493.225 290.574 492.539 289.731 491.827ZM262.116 461.159C262.879 468.863 263.609 476.568 264.27 484.279C266.615 511.65 268.064 539.173 266.731 566.639C266.037 580.942 264.643 595.285 262.233 609.406C261.147 615.771 259.834 622.134 258.367 628.43L257.872 630.526C256.383 636.762 255.434 644.556 250.666 649.091L250.702 650.032C254.049 644.952 257.145 639.241 259.362 633.924C269.241 610.235 271.046 584.447 272.831 559.188C273.931 543.621 274.746 528.034 276.019 512.48L276.637 504.995C277.347 496.284 277.957 487.637 277.874 478.934C275.971 476.097 274.425 473.114 273.465 470.052C273.311 469.559 273.205 469.061 273.131 468.563C269.107 466.656 265.318 464.053 262.116 461.159ZM316.191 515.362C318.176 521.967 319.796 528.656 320.95 535.373C322.788 546.065 323.891 556.824 324.376 567.619L325.39 563.805C327.943 554.266 330.657 544.714 334.019 535.457C328.7 531.733 324.256 525.885 320.39 520.997C318.945 519.171 317.544 517.286 316.191 515.362ZM240.021 221.623C237.977 228.221 236.19 234.894 234.344 241.546C230.006 257.172 227.19 273.226 225.236 289.31C217.439 353.528 223.933 418.006 232.426 481.804C235.945 508.238 239.771 534.633 243.055 561.098C243.142 558.501 243.215 555.904 243.262 553.31C244.26 497.136 234.805 441.748 231.019 385.864L230.792 382.459C229.076 356.329 228.026 329.712 231.132 303.678C232.73 290.278 235.546 277.165 239.293 264.216L241.524 256.61C243.031 251.497 244.634 246.246 246.535 241.155C246.281 240.667 246.039 240.175 245.814 239.682C243.183 233.898 241.352 227.818 240.021 221.623ZM246.608 145.924C226.982 171.227 210.513 198.106 200.549 229.022C177.745 299.778 182.836 375.439 196.051 447.561C202.278 481.543 210.308 515.129 217.635 548.875C209.792 488.276 199.678 427.81 198.068 366.628C197.189 333.236 198.916 299.688 205.067 266.812L205.431 264.879C208.068 250.985 211.333 236.264 218.018 223.778C221.648 216.998 225.655 210.671 230.407 204.615C232.411 202.061 234.661 200.013 237.048 198.14C236.348 180.697 238.986 161.782 246.608 145.924ZM278.628 415.521C288.392 415.905 298.147 418.627 305.836 424.973C311.851 429.936 303.273 438.324 297.307 433.501C290.819 428.257 285 422.3 278.084 417.53C277.26 416.961 277.486 415.476 278.628 415.521ZM262.43 389.506C260.259 390.625 258.102 390.851 255.643 390.247C255.553 390.225 255.467 390.2 255.382 390.174L254.879 390.01C255.094 392.338 255.32 394.666 255.544 396.994C257.528 394.2 259.829 391.67 262.43 389.506ZM252.711 249.015C251.847 256.235 251.284 263.49 250.984 270.756C250.693 277.835 250.571 284.935 250.538 292.038L250.529 295.082L250.542 295.024C253.899 280.702 258.647 266.607 264.711 253.119C263.667 253.293 262.607 253.265 261.563 253.139C259.175 252.85 256.885 251.791 254.836 250.552C254.089 250.1 253.388 249.573 252.711 249.015ZM352.306 165.33C348.133 167.216 344.103 169.384 339.915 171.227C331.61 174.883 323.484 179.133 315.798 183.958C308.02 188.841 300.527 193.982 293.636 200.072C292.829 200.786 292.029 201.508 291.23 202.229C291.069 203.804 290.952 205.385 290.899 206.979C290.87 207.836 290.869 208.732 290.88 209.653C303.883 193.546 319.604 180.838 339.548 172.844C343.005 171.458 346.519 170.224 350.065 169.082C350.909 167.91 351.666 166.666 352.306 165.33ZM351.935 149.879C349.616 146.801 342.95 147.052 338.747 147.738C331.951 148.848 325.965 151.224 320.14 154.664C313.255 158.728 307.316 164.234 302.669 170.71C304.956 169.42 307.286 168.203 309.665 167.073L311.295 166.303C320.306 162.079 330.066 158.064 339.922 156.754C344.482 156.148 349.386 155.271 353.993 155.765C353.766 153.526 353.1 151.426 351.935 149.879Z" fill="black"/>
</svg>
