<svg width="900" height="900" viewBox="0 0 900 900" fill="none" xmlns="http://www.w3.org/2000/svg">
<path fill-rule="evenodd" clip-rule="evenodd" d="M527.576 418.958C531.114 393.43 523.56 368.794 513.773 345.462C513.236 344.041 512.383 342.811 511.287 341.936C483.669 286.27 443.087 281.229 386.472 285.063C384.8 285.026 384.7 285.055 383.43 284.487C383.22 261.874 357.394 249.896 337.74 257.357C250.577 297.862 277.985 411.895 295.33 486.342C301.518 515.161 307.708 543.978 313.897 572.796C314.105 573.76 314.543 574.593 315.126 575.296C314.227 575.637 313.327 575.956 312.445 576.257C310.431 576.942 311.231 579.944 313.327 579.458C315.381 578.981 317.361 578.342 319.319 577.646C322.372 578.308 324.931 576.313 327.328 574.722C355.394 563.624 367.176 527.15 374.375 500.279C403.643 520.929 450.409 536.395 483.873 517.826C515.229 498.943 526.521 459.554 524.293 424.788C526.582 423.735 527.505 421.439 527.565 419.046H527.579C527.578 419.017 527.576 418.987 527.576 418.958Z" fill="white"/>
<path fill-rule="evenodd" clip-rule="evenodd" d="M329.699 259.483C336.169 255.292 344.474 253.732 352.098 254.037C356.164 254.2 359.96 255.214 363.708 256.736C367.183 258.148 370.246 260.175 373.629 261.721C373.835 261.814 373.679 262.103 373.485 262.063C369.479 261.255 364.776 261.743 360.714 262.322L360.31 262.38C356.317 262.96 352.255 263.26 348.319 264.18C341.07 265.874 334.328 269.566 330.349 275.988C325.154 284.374 323.822 295.23 324.378 304.907C324.659 309.802 325.624 314.619 327.127 319.286C328.029 322.087 330.126 324.905 331.105 327.845C331.85 326.453 332.62 325.076 333.416 323.715C329.787 322.005 328.77 317.251 328.582 312.961C328.023 312.421 327.663 311.639 327.651 310.922C327.619 308.992 328.073 307.245 328.845 305.647C329.286 301.119 330.22 296.606 331.828 292.363C338.14 275.707 354.792 260.695 373.675 262.178C378.865 262.585 383.915 264.789 386.599 269.474C388.754 273.236 388.769 277.775 387.282 281.776C386.841 282.964 386.267 284.036 385.593 285.015C387.634 284.497 389.678 284.001 391.718 283.509C398.797 281.803 405.912 280.466 413.16 279.723C423.031 278.711 433.105 280.242 442.15 284.181C444.631 284.819 447.1 285.505 449.553 286.237C460.352 289.456 471.43 293.662 480.152 301.011C484.165 304.392 487.037 308.325 489.368 312.645C498.099 320.429 506.448 329.253 512.342 339.348C524.484 360.145 527.384 385.871 527.883 409.515C528.342 431.235 526.434 453.178 522.363 474.519C520.515 484.204 517.528 493.205 511.485 501.148C504.756 509.993 495.78 516.962 485.709 521.638C465.205 531.158 439.827 532.543 419.897 520.748C413.902 517.201 419.3 507.955 425.355 511.411C445.031 522.639 470.142 520.074 489.074 508.171C497.072 503.142 503.964 496.266 508.342 487.846C511.54 481.695 512.912 474.643 514.1 467.776L514.731 464.103C518.399 442.986 520.058 421.326 519.176 399.903C518.295 378.534 514.906 355.389 502.801 337.221C496.417 327.639 488.275 319.244 479.723 311.59C479.123 311.052 478.521 310.516 477.918 309.982C474.576 307.974 471.112 306.22 467.703 304.723L466.978 304.41C465.017 303.574 462.275 302.494 459.731 301.631C456.094 300.397 452.399 299.3 448.688 298.312C446.743 297.794 444.789 297.319 442.83 296.865C443.513 297.492 444.192 298.124 444.859 298.772C448.019 301.843 450.526 305.492 453.522 308.712C453.861 309.075 453.434 309.605 453.003 309.384C448.447 307.046 443.394 305.532 438.636 303.638C434.138 301.847 429.767 299.786 425.348 297.81C424.241 297.314 423.138 296.785 422.038 296.261C417.693 296.306 413.347 296.408 409.012 296.655C414.253 300.386 419.04 304.795 423.005 309.63C423.332 310.028 423.034 310.666 422.484 310.525C414.184 308.4 406.291 305.277 398.402 302.003L394.627 300.432C391.853 300.292 389.075 300.226 386.296 300.267L384.949 300.289C382.032 300.345 379.12 300.461 376.229 300.903C375.542 301.007 374.868 301.107 374.198 301.198C370.13 302.859 366.214 304.861 362.691 307.5L363.609 307.445C369.179 307.129 374.859 307.608 380.253 309.046C390.734 311.842 399.678 318.573 406.186 327.155C406.38 327.412 406.002 327.77 405.746 327.595C397.559 321.99 388.063 319.167 378.333 317.633C373.631 316.891 368.788 316.636 364.04 317.006C360.108 317.311 356.042 318.696 352.131 318.024C351.065 319.352 350.041 320.719 349.055 322.117C349.573 322.084 350.093 322.054 350.617 322.029C356.234 321.766 361.954 322.126 367.439 323.419C378.393 326.003 387.548 332.579 395.922 339.799C396.087 339.942 395.874 340.197 395.694 340.094C386.613 334.853 376.057 333.286 365.769 332.341C360.589 331.864 355.35 331.648 350.158 332.062C347.779 332.251 345.427 332.643 343.055 332.887C342.863 332.907 342.664 332.912 342.467 332.921C340.748 336.163 339.189 339.462 337.783 342.752C342.074 341.601 346.704 340.997 351.134 341.295C360.133 341.901 369.059 346.027 376.242 351.304C376.467 351.469 376.342 351.909 376.036 351.793C368.217 348.839 360.466 348.815 352.306 349.955C348.48 350.49 344.694 351.215 340.998 352.352C339.14 352.925 337.302 353.549 335.539 354.371C334.738 354.743 333.959 355.177 333.171 355.586C332.54 357.727 331.977 359.887 331.468 362.061C344.806 362.813 357.371 369.108 368.307 376.333C368.571 376.508 368.406 376.994 368.079 376.871C361.552 374.408 354.45 373.269 347.526 372.606C341.472 372.027 335.53 372.342 329.511 372.511C329.188 374.798 328.927 377.092 328.738 379.391C329.706 379.662 330.656 379.954 331.569 380.229C334.572 381.131 337.57 382.346 340.372 383.754C346.064 386.615 350.677 390.481 355.318 394.78C355.56 395.004 355.308 395.494 354.979 395.361C349.592 393.184 343.706 391.789 338.036 390.555C335.101 389.917 332.165 389.327 329.21 388.786C328.924 388.734 328.633 388.69 328.343 388.646C328.315 393.887 328.611 399.129 329.265 404.328L329.391 405.302C329.745 407.934 329.456 410.479 327.714 412.297C330.124 410.695 332.881 409.585 335.936 409.16C343.983 408.04 351.435 411.255 356.498 417.474C356.735 417.765 356.37 418.146 356.082 417.89C351.168 413.518 343.595 412.744 337.492 414.802C331.842 416.708 327.594 421.258 325.892 426.951C324.083 433.001 324.911 439.68 328.21 445.073C329.854 447.76 332.228 450.162 335.199 451.343C335.565 451.489 335.939 451.611 336.316 451.717C338.109 451.061 340.039 451.358 341.883 452.189L342.122 452.302C343.299 452.295 344.47 452.259 345.608 452.269C347.823 452.29 348.888 454.642 347.958 456.392C348.486 457.358 348.872 458.443 349.335 459.389C350.171 461.096 351.047 462.793 351.928 464.479C353.173 465.908 354.363 467.387 355.17 469.111C355.502 469.819 355.815 470.585 356.054 471.354C356.747 472.395 357.45 473.43 358.171 474.461C360.501 477.789 362.955 480.942 365.676 483.963C367.311 485.779 369.193 487.4 370.924 489.141C371.449 489.211 371.964 489.568 372.126 490.082L372.268 490.574C372.826 491.203 373.36 491.85 373.84 492.54C374.907 494.07 374.615 495.622 373.678 496.741C375.162 506.001 374.151 515.853 372.165 524.833C370.882 530.635 369.383 536.432 367.371 542.029C366.348 544.874 365.109 547.607 363.398 550.106C362.46 551.475 361.237 553.07 359.867 554.373C359.658 555.89 359.388 557.394 359 558.869C354.402 576.342 335.582 581.661 319.824 583.893C316.783 584.323 313.773 583.588 312.116 580.755C311.733 580.102 311.477 579.396 311.338 578.672C310.652 578.489 309.992 578.167 309.4 577.705C309.301 578.8 309.187 579.899 309.042 581.01C308.682 583.786 304.934 584.621 303.994 581.692C300.03 569.333 297.877 556.302 295.16 543.602C292.449 530.929 289.422 518.324 286.621 505.67L283.075 489.7C274.42 450.596 266.314 410.991 268.304 370.773C269.39 348.819 273.418 326.922 282.04 306.634C289.223 289.733 301.344 270.746 320.925 267.29C321.06 267.267 321.18 267.281 321.292 267.309C323.617 264.285 326.396 261.623 329.699 259.483ZM341.514 472.048C343.093 477.287 344.22 482.657 344.834 488.138C345.855 497.272 345.349 506.629 344.905 515.787C344.497 524.202 343.528 532.689 341.878 540.951C340.294 548.884 337.812 556.662 334.123 563.879C333.526 565.046 332.885 566.182 332.211 567.297C334.251 566.617 336.093 565.825 338.012 564.728C340.427 563.346 342.637 561.564 343.846 559.685C345.787 556.67 346.438 553.321 346.722 549.728C347.451 540.487 347.789 531.218 348.254 521.962L348.358 519.946C349.11 505.484 350.097 490.651 348.623 476.173C346.55 475.628 344.679 474.559 342.953 473.217C342.476 472.847 341.995 472.455 341.514 472.048ZM325.744 454.535C326.18 458.934 326.597 463.335 326.974 467.738C328.313 483.369 329.141 499.086 328.379 514.771C327.983 522.939 327.187 531.13 325.811 539.194C325.191 542.829 324.441 546.462 323.603 550.058L323.32 551.255C322.47 554.816 321.928 559.267 319.205 561.857L319.226 562.394C321.137 559.493 322.905 556.232 324.171 553.195C329.813 539.667 330.844 524.941 331.863 510.516C332.491 501.626 332.957 492.725 333.684 483.843L334.036 479.568C334.442 474.594 334.79 469.656 334.743 464.686C333.656 463.066 332.773 461.362 332.225 459.613C332.137 459.332 332.077 459.048 332.034 458.763C329.736 457.674 327.573 456.188 325.744 454.535ZM356.624 485.488C357.758 489.26 358.683 493.08 359.342 496.916C360.392 503.022 361.022 509.166 361.299 515.331L361.878 513.153C363.336 507.705 364.885 502.25 366.805 496.964C363.768 494.837 361.23 491.498 359.022 488.706C358.197 487.664 357.397 486.587 356.624 485.488ZM313.126 317.744C311.959 321.512 310.939 325.323 309.884 329.121C307.407 338.045 305.799 347.213 304.683 356.398C300.231 393.071 303.939 429.892 308.789 466.325C310.799 481.42 312.984 496.493 314.859 511.607C314.909 510.124 314.95 508.641 314.977 507.159C315.547 475.08 310.148 443.45 307.986 411.537L307.856 409.592C306.876 394.67 306.276 379.47 308.05 364.603C308.963 356.951 310.571 349.462 312.711 342.068L313.985 337.724C314.845 334.804 315.761 331.805 316.846 328.898C316.701 328.619 316.563 328.339 316.435 328.057C314.932 324.754 313.886 321.282 313.126 317.744ZM316.888 274.515C305.68 288.965 296.275 304.314 290.585 321.969C277.563 362.376 280.47 405.583 288.017 446.77C291.573 466.176 296.158 485.355 300.342 504.627C295.864 470.021 290.088 435.49 289.168 400.552C288.666 381.482 289.653 362.324 293.165 343.55L293.373 342.446C294.879 334.512 296.744 326.105 300.561 318.975C302.634 315.103 304.922 311.49 307.636 308.031C308.781 306.573 310.065 305.403 311.429 304.334C311.029 294.373 312.535 283.571 316.888 274.515ZM335.173 428.473C340.749 428.692 346.32 430.246 350.711 433.87C354.146 436.705 349.247 441.495 345.84 438.74C342.135 435.746 338.812 432.344 334.863 429.62C334.392 429.295 334.521 428.447 335.173 428.473ZM325.923 413.616C324.684 414.255 323.452 414.384 322.048 414.04C321.996 414.027 321.947 414.013 321.898 413.998L321.611 413.904C321.734 415.234 321.863 416.563 321.991 417.892C323.124 416.297 324.438 414.852 325.923 413.616ZM320.373 333.387C319.88 337.51 319.558 341.653 319.387 345.802C319.221 349.845 319.151 353.899 319.132 357.956L319.127 359.694L319.135 359.661C321.052 351.482 323.763 343.433 327.226 335.73C326.63 335.83 326.024 335.814 325.428 335.742C324.065 335.577 322.757 334.972 321.587 334.264C321.16 334.006 320.76 333.705 320.373 333.387ZM377.248 285.597C374.865 286.674 372.564 287.912 370.172 288.965C365.43 291.052 360.789 293.479 356.4 296.235C351.958 299.023 347.679 301.959 343.744 305.437C343.283 305.845 342.826 306.257 342.37 306.669C342.278 307.568 342.211 308.471 342.181 309.381C342.164 309.871 342.164 310.382 342.17 310.908C349.596 301.71 358.573 294.453 369.963 289.888C371.937 289.097 373.944 288.392 375.969 287.74C376.451 287.07 376.883 286.36 377.248 285.597ZM377.037 276.774C375.712 275.016 371.906 275.159 369.505 275.551C365.624 276.185 362.206 277.542 358.88 279.506C354.948 281.827 351.556 284.971 348.902 288.669C350.208 287.933 351.539 287.238 352.898 286.592L353.828 286.153C358.974 283.741 364.548 281.448 370.176 280.7C372.78 280.354 375.581 279.853 378.212 280.135C378.082 278.856 377.702 277.657 377.037 276.774Z" fill="black"/>
</svg>
