<svg width="900" height="900" viewBox="0 0 900 900" fill="none" xmlns="http://www.w3.org/2000/svg">
<path fill-rule="evenodd" clip-rule="evenodd" d="M554.65 520.096C548.134 489.51 543.955 458.529 540.214 427.509C538.404 412.484 536.959 397.42 535.285 382.384C533.721 368.375 531.899 354.321 528.244 340.684C524.847 328.012 519.878 315.466 512.557 304.525C505.693 294.268 497.064 285.479 487.157 278.141C467.58 263.642 442.544 255.926 418.195 258.485C414.516 258.873 410.873 259.496 407.27 260.329C408.417 259.992 409.577 259.678 410.747 259.404C411.124 259.313 410.957 258.806 410.587 258.839C311.522 267.84 288.219 440.124 286.101 474.862C285.935 477.563 285.804 480.258 285.707 482.959C284.964 488.985 284.41 495.027 284.148 501.085C283.851 508.075 283.994 515.111 284.639 522.077C285.301 529.221 286.055 536.542 289.037 543.11C290.863 547.153 376.066 541.614 376.946 536.839C378.728 527.2 379.641 517.252 379.082 507.447C378.82 502.747 378.334 498.081 377.329 493.478C377.054 492.222 376.763 489.864 376.027 487.996C383.799 473.229 392.348 458.883 401.148 444.704C419.462 415.18 438.935 386.204 453.903 354.76C461.407 339.005 468.802 322.273 472.342 305.01L472.914 305.124C472.845 305.329 472.891 305.586 473.096 305.729C489.366 316.973 500.24 334.014 507.287 352.26C515.492 373.503 519.473 396.443 518.901 419.206C517.994 455.377 504.283 500.08 465.49 511.513C456.638 514.122 447.079 514.859 438.01 512.952C433.733 512.049 429.541 510.661 425.681 508.606C421.398 506.327 417.88 503.101 413.866 500.446C410.193 498.019 405.859 502.753 407.972 506.345C412.638 514.282 422.677 519.136 431.3 521.523C440.5 524.076 450.203 524.197 459.573 522.575C460.287 522.454 460.995 522.317 461.698 522.169C461.858 524.522 462.868 526.864 464.513 528.765C465.25 529.622 466.158 530.363 467.174 530.986C467.306 533.282 468.785 535.589 471.19 536.092C484.032 538.764 537.37 531.757 550.196 527.936C553.639 526.909 555.381 523.534 554.65 520.096Z" fill="black"/>
<path fill-rule="evenodd" clip-rule="evenodd" d="M521.15 409.799C520.189 364.924 509.008 315.245 470.681 287.514C468.239 285.745 464.575 286.602 462.552 288.622C460.891 288.946 459.365 289.952 458.35 291.803C435.686 333.168 411.828 373.879 386.785 413.849C370.706 439.693 351.175 465.57 348.598 496.896C348.152 497.488 344.013 502.162 346.425 501.821C347.495 501.261 348.586 500.801 349.732 500.46C352.794 504.925 359.905 504.223 361.595 499.184C367.455 499.353 373.255 500.85 378.838 502.587C392.533 506.874 406.452 511.111 420.428 514.387C466.471 526.607 515.945 511.059 519.623 457.38C524.565 450.417 521.892 419.384 521.15 409.799Z" fill="white"/>
</svg>
