<svg width="788" height="788" viewBox="0 0 788 788" fill="none" xmlns="http://www.w3.org/2000/svg">
<path fill-rule="evenodd" clip-rule="evenodd" d="M625.939 606.959C614.529 553.399 607.21 499.149 600.66 444.829C597.49 418.519 594.96 392.14 592.029 365.81C589.29 341.279 586.099 316.669 579.699 292.789C573.75 270.599 565.049 248.629 552.229 229.47C540.21 211.509 525.099 196.119 507.75 183.269C473.469 157.879 429.629 144.369 386.99 148.849C380.549 149.529 374.169 150.619 367.859 152.079C369.869 151.489 371.9 150.938 373.949 150.459C374.609 150.3 374.316 149.411 373.669 149.47C200.195 165.231 159.389 466.919 155.679 527.749C155.389 532.48 155.16 537.199 154.99 541.929C153.689 552.48 152.719 563.06 152.259 573.669C151.74 585.909 151.99 598.23 153.119 610.429C154.279 622.938 155.599 635.759 160.82 647.259C164.019 654.339 313.219 644.64 314.759 636.279C317.879 619.399 319.479 601.98 318.5 584.81C318.04 576.579 317.189 568.409 315.429 560.349C314.949 558.149 314.439 554.019 313.15 550.749C326.759 524.89 341.729 499.769 357.139 474.939C389.21 423.239 423.309 372.499 449.519 317.438C462.66 289.849 475.609 260.55 481.809 230.319L482.809 230.519C482.689 230.879 482.769 231.329 483.129 231.579C511.619 251.269 530.66 281.109 543 313.06C557.369 350.259 564.339 390.429 563.339 430.289C561.75 493.629 537.74 571.909 469.809 591.929C454.309 596.499 437.57 597.789 421.689 594.449C414.199 592.869 406.859 590.438 400.099 586.839C392.599 582.849 386.439 577.199 379.41 572.55C372.979 568.3 365.389 576.589 369.089 582.879C377.259 596.779 394.839 605.279 409.939 609.459C426.049 613.929 443.04 614.14 459.449 611.3C460.699 611.089 461.939 610.849 463.169 610.589C463.449 614.709 465.219 618.81 468.099 622.14C469.389 623.64 470.979 624.938 472.759 626.029C472.99 630.05 475.58 634.089 479.79 634.97C502.279 639.649 595.679 627.379 618.139 620.688C624.169 618.89 627.219 612.98 625.939 606.959Z" fill="black"/>
<path fill-rule="evenodd" clip-rule="evenodd" d="M567.277 413.815C565.593 335.234 546.014 248.24 478.899 199.68C474.624 196.583 468.208 198.083 464.665 201.62C461.756 202.188 459.084 203.95 457.307 207.19C417.62 279.625 375.841 350.915 331.989 420.907C303.833 466.163 269.631 511.476 265.119 566.331C264.338 567.368 257.089 575.552 261.313 574.956C263.188 573.975 265.097 573.169 267.105 572.573C272.467 580.39 284.918 579.161 287.878 570.338C298.14 570.633 308.296 573.255 318.073 576.297C342.054 583.803 366.427 591.223 390.901 596.96C471.527 618.358 558.161 591.133 564.603 497.135C573.257 484.942 568.575 430.599 567.277 413.815Z" fill="white"/>
</svg>
