<svg width="900" height="900" viewBox="0 0 900 900" fill="none" xmlns="http://www.w3.org/2000/svg">
<path fill-rule="evenodd" clip-rule="evenodd" d="M423.097 281.572C455.523 281.572 489.062 306.706 500.947 322.745C514.691 341.29 525.533 430.317 520.447 460.526C515.361 490.735 490.097 523.661 446.24 523.661C402.383 523.661 375.693 518.259 374.623 510.413C373.909 505.182 364.267 488.008 345.696 458.892C326.702 453.549 317.168 444.497 317.094 431.737C317.02 418.976 322.109 410.274 332.361 405.631C328.706 355.271 331.481 323.535 340.688 310.424C354.497 290.757 390.672 281.572 423.097 281.572Z" fill="white"/>
<path fill-rule="evenodd" clip-rule="evenodd" d="M406.588 274L407.166 274.003C443.043 274.235 479.532 290.744 500.876 319.583L501.518 320.46C501.553 320.505 502.192 321.456 502.343 321.728C503.227 323.315 504.27 324.8 505.069 326.415C505.744 327.786 506.193 329.317 506.689 330.777L506.839 331.212C508.113 334.856 509.186 338.533 510.135 342.274C511.973 349.555 513.407 356.95 514.801 364.329C519.781 390.748 523.037 417.546 524.678 444.378L525.002 449.773C525.333 455.369 525.583 460.989 524.954 466.566C524.228 473.059 522.362 479.153 519.535 485.035C516.93 490.46 513.572 495.485 509.73 500.105C507.674 502.578 505.492 504.982 502.808 506.792C500.672 508.231 498.176 509.179 495.772 510.093C491.861 513.999 486.841 516.952 481.936 519.31C473.849 523.188 465.084 525.329 456.215 526.403C447.146 527.493 437.987 527.231 428.992 525.672C420.398 524.187 411.186 520.389 405.893 513.154C405.436 512.532 406.286 511.943 406.846 512.2C422.208 519.31 439.471 521.166 456.215 518.922C464.027 517.877 471.713 515.718 478.846 512.366C484.865 509.539 489.942 505.427 495.344 501.704C496.395 500.305 497.457 498.929 498.668 497.65L500.558 495.668C501.97 494.179 503.357 492.671 504.618 491.042C508.513 486.023 511.739 480.329 513.87 474.339C518.013 462.677 516.893 450.02 516.16 437.868L516.097 436.797C515.343 423.799 514.115 410.848 512.414 397.941C510.711 385.018 508.547 372.146 505.989 359.366C504.727 353.067 503.31 346.808 502.06 340.509C501.414 337.26 500.964 333.965 500.473 330.681C500.175 328.683 500.181 326.758 500.175 324.805C500.119 324.896 500.049 324.982 499.981 325.068C500.187 325.553 500.044 326.176 499.542 326.461C497.64 327.546 495.447 327.181 493.306 327.186C491.032 327.198 488.759 327.204 486.487 327.209C484.12 327.218 481.752 327.218 479.385 327.214L472.284 327.198L443.879 327.112C425.277 327.056 406.36 327.796 387.817 326.043L386.402 325.903C384.945 325.735 368.501 323.724 364.055 323.204L363.919 323.189C355.792 322.252 347.781 320.865 339.883 318.786C342.464 319.82 344.948 321.213 347.506 322.27C350.808 323.629 354.193 324.816 357.58 325.953C364.53 328.289 371.491 330.556 378.412 332.966C380.397 333.655 384.906 350.654 386.043 353.344L386.076 353.421C386.653 354.717 387.447 356.139 387.007 357.613C386.037 360.868 380.891 363.278 378.339 365.117L375.715 367.01L372.283 369.493C370.875 370.501 369.575 371.273 367.733 370.696C367.728 370.69 367.723 370.69 367.717 370.69C369.293 378.006 370.058 401.665 370.292 405.816C370.497 409.431 371.56 414.063 369.869 417.358C369.469 418.14 368.431 418.757 367.545 418.694C363.685 418.403 359.825 418.117 355.964 417.832C354.93 417.752 353.988 417.164 353.702 416.113L353.691 416.056C353.566 416.09 353.423 416.067 353.303 415.941C353.092 415.73 352.875 415.525 352.652 415.325C347.57 410.79 339.62 409.671 333.35 412.03C330.061 413.263 326.32 415.342 324.001 418.037C321.426 421.03 320.872 425.21 320.866 429.03C320.855 436.397 323.516 443.855 328.947 448.966C333.937 453.658 340.375 455.023 346.853 456.366L347.547 456.51C349.025 456.818 349.494 459.023 348.381 459.948C351.344 462.849 353.903 466.309 356.398 469.502C359.712 473.737 362.881 478.139 365.964 482.552L367.452 484.686C372.756 492.255 380.433 502.681 377.094 512.143C376.648 513.417 374.787 513.874 374.061 512.537C371.679 508.14 370.349 503.297 368.087 498.849C365.867 494.486 363.103 490.443 360.361 486.4L358.78 484.056C356.147 480.143 353.539 476.188 351.121 472.157L349.438 469.366C347.856 466.731 346.29 464.008 345.125 461.176C337.33 463.054 328.855 458.874 323.379 453.306C316.492 446.294 313.254 435.963 314.145 426.249C314.613 421.167 316.115 416.25 319.838 412.595C320.215 412.23 320.61 411.881 321.015 411.533C320.872 411.459 320.752 411.344 320.695 411.207C318.199 405.28 317.668 398.216 317.457 391.831C317.235 385.23 317.377 378.611 317.879 372.021C318.799 359.937 320.98 347.916 324.441 336.301C329.563 319.134 338.364 302.328 352.424 290.809C367.416 278.524 387.503 273.969 406.588 274ZM331.957 424.148C334.074 423.187 337.377 424.898 339.262 425.989L339.386 426.061C344.954 429.299 348.918 434.815 350.751 440.926C351.927 444.866 345.32 446.436 344.76 442.576C344.304 439.429 343.252 436.483 341.523 433.85C341.111 433.987 340.711 434.164 340.352 434.393C338.976 435.283 338.176 436.814 336.263 436.585C334.846 436.42 333.396 435.438 333.493 433.816C333.648 431.138 335.806 430.07 338.119 429.933C337.788 429.637 337.456 429.344 337.115 429.063L336.741 428.762C336.318 428.457 331.792 425.335 331.662 426.138L331.66 426.186C331.665 426.506 331.237 426.689 331.02 426.449C330.146 425.513 330.958 424.605 331.957 424.148Z" fill="black"/>
</svg>
