<svg width="788" height="788" viewBox="0 0 788 788" fill="none" xmlns="http://www.w3.org/2000/svg">
<path fill-rule="evenodd" clip-rule="evenodd" d="M395.041 190.259C451.822 190.259 510.552 234.271 531.365 262.357C555.432 294.831 574.417 450.728 565.511 503.627C556.605 556.526 512.365 614.183 435.567 614.183C358.768 614.183 312.031 604.724 310.157 590.984C308.908 581.824 292.023 551.751 259.503 500.765C226.243 491.41 209.548 475.559 209.417 453.214C209.288 430.868 218.2 415.63 236.152 407.5C229.751 319.313 234.611 263.741 250.733 240.781C274.914 206.342 338.261 190.259 395.041 190.259Z" fill="white"/>
<path fill-rule="evenodd" clip-rule="evenodd" d="M366.132 177L367.144 177.005C429.969 177.411 493.864 206.32 531.241 256.82L532.365 258.356C532.426 258.436 533.545 260.101 533.809 260.576C535.358 263.356 537.183 265.957 538.583 268.785C539.765 271.185 540.551 273.866 541.42 276.422L541.683 277.185C543.914 283.565 545.793 290.005 547.454 296.555C550.673 309.305 553.183 322.255 555.624 335.175C564.345 381.439 570.047 428.364 572.92 475.35L573.487 484.798C574.067 494.597 574.505 504.438 573.404 514.205C572.133 525.575 568.864 536.245 563.914 546.545C559.353 556.045 553.473 564.845 546.744 572.935C543.144 577.265 539.324 581.475 534.624 584.644C530.883 587.165 526.513 588.825 522.303 590.425C515.454 597.265 506.664 602.435 498.074 606.565C483.914 613.355 468.564 617.105 453.034 618.985C437.154 620.894 421.114 620.435 405.364 617.705C390.314 615.105 374.183 608.455 364.914 595.785C364.114 594.695 365.603 593.665 366.583 594.115C393.484 606.565 423.713 609.815 453.034 605.885C466.713 604.055 480.173 600.275 492.664 594.405C503.204 589.455 512.093 582.255 521.553 575.735C523.394 573.285 525.253 570.875 527.374 568.635L530.683 565.165C533.156 562.558 535.585 559.917 537.793 557.065C544.614 548.275 550.263 538.305 553.994 527.815C561.25 507.395 559.288 485.23 558.005 463.95L557.894 462.075C556.574 439.315 554.423 416.635 551.444 394.035C548.463 371.405 544.673 348.865 540.194 326.485C537.984 315.455 535.503 304.495 533.314 293.465C532.183 287.775 531.394 282.005 530.534 276.255C530.013 272.755 530.023 269.385 530.013 265.965C529.914 266.125 529.793 266.275 529.673 266.425C530.034 267.275 529.784 268.365 528.904 268.865C525.574 270.765 521.734 270.125 517.984 270.135C514.003 270.155 510.023 270.165 506.043 270.175C501.898 270.19 497.753 270.19 493.608 270.183L481.173 270.155L431.433 270.005C398.859 269.907 365.732 271.202 333.262 268.132L330.783 267.887C328.232 267.593 299.437 264.072 291.651 263.162L291.414 263.135C277.183 261.495 263.154 259.065 249.324 255.425C253.843 257.235 258.194 259.675 262.673 261.525C268.454 263.905 274.383 265.985 280.314 267.975C292.484 272.065 304.673 276.035 316.793 280.255C320.268 281.463 328.164 311.23 330.155 315.94L330.213 316.075C331.223 318.345 332.614 320.835 331.843 323.415C330.144 329.115 321.133 333.335 316.664 336.555L312.069 339.871L306.059 344.219C303.594 345.984 301.318 347.335 298.093 346.325C298.083 346.315 298.074 346.315 298.064 346.315C300.824 359.125 302.164 400.555 302.574 407.825C302.933 414.155 304.793 422.265 301.833 428.035C301.133 429.405 299.314 430.485 297.763 430.375C291.003 429.865 284.244 429.365 277.484 428.865C275.673 428.725 274.023 427.695 273.523 425.855L273.503 425.755C273.284 425.815 273.034 425.775 272.824 425.555C272.454 425.185 272.074 424.825 271.683 424.475C262.784 416.535 248.864 414.575 237.883 418.705C232.124 420.865 225.574 424.505 221.513 429.225C217.003 434.465 216.034 441.785 216.023 448.475C216.003 461.375 220.664 474.435 230.173 483.385C238.911 491.6 250.186 493.991 261.529 496.343L262.744 496.595C265.333 497.135 266.154 500.995 264.204 502.615C269.394 507.695 273.874 513.755 278.244 519.345C284.047 526.761 289.596 534.47 294.995 542.197L297.601 545.935C306.888 559.189 320.331 577.445 314.484 594.015C313.704 596.245 310.444 597.045 309.173 594.705C305.003 587.005 302.673 578.525 298.713 570.735C294.824 563.095 289.984 556.015 285.183 548.935L282.414 544.832C277.804 537.979 273.237 531.053 269.003 523.995L266.055 519.107C263.286 514.493 260.544 509.724 258.503 504.765C244.853 508.055 230.013 500.735 220.423 490.985C208.364 478.705 202.694 460.615 204.253 443.605C205.074 434.705 207.704 426.095 214.223 419.695C214.883 419.055 215.574 418.445 216.284 417.835C216.034 417.705 215.824 417.505 215.723 417.265C211.353 406.885 210.423 394.515 210.053 383.335C209.664 371.775 209.914 360.185 210.793 348.645C212.404 327.485 216.223 306.435 222.284 286.095C231.253 256.035 246.664 226.605 271.284 206.435C297.538 184.922 332.712 176.945 366.132 177ZM235.445 439.925C239.152 438.242 244.936 441.239 248.237 443.149L248.454 443.275C258.204 448.945 265.145 458.605 268.354 469.305C270.414 476.205 258.844 478.955 257.864 472.195C257.065 466.685 255.224 461.525 252.195 456.915C251.474 457.155 250.774 457.465 250.145 457.865C247.735 459.425 246.334 462.105 242.985 461.705C240.504 461.415 237.964 459.695 238.134 456.855C238.405 452.165 242.184 450.295 246.235 450.055C245.656 449.537 245.073 449.025 244.476 448.532L243.822 448.006C243.081 447.471 235.156 442.005 234.928 443.411L234.924 443.495C234.934 444.055 234.184 444.375 233.804 443.955C232.274 442.315 233.695 440.725 235.445 439.925Z" fill="black"/>
</svg>
