<svg width="900" height="900" viewBox="0 0 900 900" fill="none" xmlns="http://www.w3.org/2000/svg">
<path fill-rule="evenodd" clip-rule="evenodd" d="M422.641 447.644C428.764 440.529 439.076 440.034 447.619 441.813C453.101 442.955 458.438 444.857 464.006 445.562C466.607 445.891 469.235 445.99 471.855 445.941C474.428 445.894 477.005 445.375 479.569 445.472C479.963 445.486 480.112 446.004 479.77 446.214C476.253 448.375 471.514 449.068 467.359 449.49C467.372 449.798 467.391 450.098 467.433 450.352C467.547 451.031 467.65 451.705 467.734 452.388C467.922 453.928 468.133 455.464 468.344 457.001C468.759 460.027 468.889 463.149 469.619 466.122L469.746 466.616C469.915 467.241 469.954 467.805 469.897 468.313L470.066 468.236L470.6 467.978L470.95 467.813C472.227 467.221 473.445 466.79 474.947 466.933C476.09 467.042 477.049 467.822 477.056 469.042C477.085 474.52 469.703 476.281 465.48 477.33L464.242 477.635C458.867 478.946 453.38 480.095 447.852 480.37C438.981 480.81 429.012 478.363 423.209 471.168C417.795 464.454 416.802 454.428 422.641 447.644ZM462.926 470.658C461.995 462.412 451.861 461.958 448.946 467.188C447.652 459.898 428.514 466.558 430.011 468.007C435.683 473.5 444.29 473.994 451.69 472.978C455.458 472.461 459.23 471.618 462.926 470.658ZM451.679 449.044L449.131 448.677L448.128 448.539C441.812 447.693 434.708 447.256 429.515 451.305C427.619 452.783 426.552 454.711 426.154 456.782C431.067 456.054 435.999 455.498 440.946 455.036L442.295 454.912C445.39 454.633 448.484 454.339 451.576 454.03L453.773 453.808L455.97 453.58C456.743 453.499 461.952 453.232 462.932 453.411C463.036 452.531 463.173 450.627 463.394 449.77C459.693 449.896 456.008 449.621 452.328 449.132L451.679 449.044ZM463.407 412.183C467.183 414.478 472.936 419.83 468.874 425.519C464.093 430.536 457.21 424.784 453.817 422.183C450.672 420.166 447.138 425.352 450.056 427.706C474.568 445.854 484.516 412.783 465.317 409.485C463.203 409.121 462.418 411.473 463.407 412.183ZM470.164 421.851L470.346 421.753L470.407 421.716C470.513 421.647 470.446 421.654 470.204 421.738L470.023 421.803V421.931C470.07 421.902 470.119 421.881 470.164 421.851ZM421.809 401.462L421.808 401.349C421.815 398.161 423.672 390.881 428.262 390.881C431.13 390.881 432.871 395.835 433.172 400.943L433.183 401.151C433.316 404.326 432.444 411.266 428.262 411.266C424.036 411.266 421.852 404.693 421.809 401.462ZM489.387 400.462L489.387 400.349C489.38 397.161 487.523 389.881 482.933 389.881C480.137 389.881 478.413 394.591 478.049 399.56L478.023 399.943C477.842 403.011 478.657 410.266 482.933 410.266C487.159 410.266 489.343 403.693 489.387 400.462ZM424.428 369.142C428.174 368.573 433.134 369.655 434.881 373.464C435.659 375.161 434.737 377.037 432.776 377.131C428.035 377.358 423.784 376.303 419.623 379.386C417.832 380.712 416.326 382.55 415.063 384.382L414.585 385.079L414.189 385.654C413.331 386.915 412.519 388.285 412.646 389.807C412.683 390.258 412.223 390.685 411.785 390.667C409.058 390.555 408.765 387.136 409.123 385.083C409.79 381.272 411.635 377.694 414.191 374.813C416.876 371.787 420.421 369.752 424.428 369.142ZM476.022 373.767C478.605 372.107 481.909 371.469 484.935 371.713C490.902 372.194 500.911 377.266 499.594 384.553C499.187 386.801 496.061 387.987 494.219 386.74C492.239 385.399 491.757 383.316 490.283 381.564C489.107 380.164 487.616 379.152 486.02 378.289C484.447 377.439 482.627 376.923 480.842 376.735L480.545 376.707C479.47 376.615 474.044 376.64 474.841 378.665C474.997 379.062 474.407 379.376 474.136 379.076C472.472 377.236 474.356 374.838 476.022 373.767Z" fill="black"/>
</svg>
