<svg width="284" height="284" viewBox="0 0 284 284" fill="none" xmlns="http://www.w3.org/2000/svg">
<path fill-rule="evenodd" clip-rule="evenodd" d="M183.321 175.417C183.62 175.744 182.961 176.184 182.632 175.946C178.823 173.185 172.823 174.752 169.146 176.002C168.25 204.879 168.298 219.659 169.289 220.343C170.776 221.37 191.733 220.76 191.733 223.33C191.733 231.731 179.13 234.885 172.289 234.385C161.518 233.6 150.417 232.064 139.661 233.308C128.905 234.552 106.055 241.416 94.359 231.93C80.4088 220.616 82.295 202.022 93.902 189.883C101.219 182.232 111.985 177.641 122.601 174.24C138.136 169.263 174.748 166.05 183.321 175.417ZM154.668 207.217C149.035 209.41 121.031 218.659 114.377 220.343C122.154 219.785 148.707 219.168 154.668 216.284C155.337 213.583 155.764 206.79 154.668 207.217ZM158.944 177.191C143.701 179.667 110.784 190.831 106.055 196.773C113.241 195.643 153.332 190.831 157.855 190.831C158.512 187.333 158.077 181.2 158.944 177.191ZM163.814 109.367C171.366 113.957 182.872 124.66 174.748 136.04C165.186 146.073 151.419 134.569 144.634 129.366C138.344 125.334 131.276 135.705 137.112 140.413C186.136 176.708 206.031 110.568 167.634 103.971C163.406 103.244 161.836 107.947 163.814 109.367ZM180.557 42.3902C184.99 42.3539 187.579 45.2309 190.903 47.7929C194.326 50.4319 198.453 52.5369 202.454 54.1489C206.626 55.8279 211.086 57.1609 215.478 58.1119C220.031 59.0959 224.22 58.6349 228.74 59.4679C240.722 61.6769 237.886 81.6559 225.871 80.6679C215.057 79.7789 203.448 73.1349 195.247 66.2459C191.328 62.9546 188.02 59.1823 184.801 55.24L184.198 54.4989C181.34 50.9729 178.671 47.3639 180.105 42.7349C180.167 42.5349 180.345 42.3929 180.557 42.3902ZM80.6162 100.699C80.6302 94.322 84.3442 79.7624 93.5243 79.7624C99.2593 79.7624 102.741 89.6712 103.344 99.8858L103.365 100.302C103.631 106.653 101.888 120.534 93.5243 120.534C85.0718 120.534 80.7044 107.387 80.6175 100.924L80.6162 100.699ZM215.774 100.699C215.76 94.322 212.046 79.7624 202.866 79.7624C197.274 79.7624 193.825 89.182 193.097 99.1204L193.046 99.8858C192.684 106.022 194.314 120.534 202.866 120.534C211.318 120.534 215.686 107.387 215.773 100.924L215.774 100.699ZM110.658 43.3419C116.383 40.8709 122.944 41.5729 126.391 47.4669C129.654 53.0449 127.433 59.7679 122.265 63.1999C117.19 66.5711 110.377 68.4042 104.541 70.3322L103.897 70.5469C98.2412 72.4499 92.5812 74.0059 86.7392 75.2219C81.2801 76.3583 75.7797 77.1996 70.2477 77.8706L68.5872 78.0669C64.2722 78.5649 58.2532 80.2419 54.3692 77.7859C54.0242 77.5689 53.8912 77.1199 54.0992 76.7599C56.3602 72.8449 62.3622 71.2849 66.2132 69.3019C71.1582 66.7539 76.0322 64.0409 80.8622 61.2819C85.7452 58.4919 90.6152 55.6559 95.4462 52.7759C100.464 49.7849 105.322 45.6439 110.658 43.3419Z" fill="black"/>
</svg>
