<svg width="900" height="900" viewBox="0 0 900 900" fill="none" xmlns="http://www.w3.org/2000/svg">
<path fill-rule="evenodd" clip-rule="evenodd" d="M398.871 289.089C485.428 284.832 491.473 309.99 503.359 326.028C509.257 333.988 524.486 345.775 527.013 372.996C528.767 391.891 517.603 413.67 517.603 430.554C517.603 439.173 528.155 457.676 523.243 470.237C512.309 498.196 489.157 529.225 459.656 529.225C430.155 529.225 375.697 512.965 343.099 466.291C332.422 451.003 312.315 293.346 398.871 289.089Z" fill="white"/>
<path fill-rule="evenodd" clip-rule="evenodd" d="M524.856 432.24C522.965 430.156 521.498 428.443 521.007 425.576C520.801 424.382 520.71 423.155 520.67 421.921C528.259 411.311 535.637 386.248 535.637 372.541C535.637 353.201 528.505 334.594 516.798 319.204C493.978 289.228 455.991 273.86 418.814 275.066C383.214 276.213 345.348 289.336 323.14 317.388C249.459 410.458 311.299 512.117 356.591 533.267C360.534 535.108 373.267 534.469 371.493 530.537C366.397 519.242 362.382 498.438 361.445 493.755C362.896 494.732 364.357 495.686 365.825 496.674C368.423 498.415 371.907 500.408 375.173 499.831C375.328 499.803 375.425 499.638 375.43 499.495C375.579 496.428 373.386 493.275 371.456 491.088C368.778 488.05 366.231 484.938 363.347 482.088C362.119 480.872 360.874 479.667 359.629 478.462C359.469 471.232 359.955 463.969 361.251 456.699C363.495 444.096 367.367 431.818 371.816 419.734C375.533 416.992 379.142 414.109 382.483 410.956C390.529 403.367 396.668 394.082 401.934 384.316C401.996 384.287 402.065 384.253 402.128 384.225C412.333 379.479 422.452 374.551 432.491 369.469C437.671 366.847 442.816 364.163 447.962 361.48C450.76 360.017 453.644 358.686 456.505 357.31C455.734 361.262 454.694 365.157 453.432 368.989C452.393 372.136 455.568 374.459 458.378 373.94C467.943 372.17 477.189 368.612 485.509 363.575C489.632 361.08 493.555 358.196 497.193 355.032C500.831 360.451 505.251 365.534 509.711 369.908C512.72 372.861 515.867 375.67 519.134 378.332C517.654 388.514 516.387 398.718 514.782 408.878C513.943 414.189 512.932 419.499 512.298 424.839C511.607 430.658 513.531 434.804 517.363 439.058C522.72 445.004 522.714 453.603 520.664 460.988C520.413 461.901 520.099 462.792 519.773 463.677C519.705 463.86 519.505 464.357 519.43 464.551C519.43 464.557 519.43 464.563 519.425 464.574C519.425 464.579 519.419 464.586 519.419 464.591C519.413 464.591 519.413 464.596 519.408 464.603V464.614V464.619L519.402 464.625C519.162 465.185 518.905 465.733 518.648 466.281C517.477 468.754 516.17 471.17 514.811 473.546C508.129 485.275 499.689 496.005 490.072 505.473C485.595 509.882 480.941 513.983 475.681 517.341C474.573 518.043 473.443 518.722 472.283 519.344C471.661 519.681 471.021 519.996 470.382 520.315C469.445 520.778 469.833 520.595 469.262 520.824C468.229 521.23 467.172 521.583 466.093 521.863C465.516 522.011 464.934 522.138 464.345 522.245C464.34 522.245 464.328 522.251 464.311 522.251C464.305 522.251 464.3 522.257 464.294 522.251C464.288 522.257 464.277 522.257 464.265 522.257C464.048 522.274 463.66 522.308 463.586 522.308C455.385 522.337 447.253 521.235 439.316 519.197C435.015 518.089 430.721 516.746 426.678 514.902C424.622 513.96 422.612 512.915 420.687 511.732C419.825 511.202 419.008 510.561 418.101 510.099C416.741 509.402 415.411 509.477 413.943 509.414C411.705 509.322 410.117 511.664 410.665 513.72C411.333 516.226 412.384 517.706 414.543 519.197C416.267 520.384 418.095 521.435 419.956 522.388C424.011 524.473 428.3 526.169 432.64 527.556C440.766 530.149 449.321 531.742 457.83 532.325C464.026 532.748 469.394 531.919 475.036 529.31C480.992 526.551 486.331 522.434 491.271 518.162C502.333 508.603 511.955 497.004 520.116 484.903C527.785 473.528 533.736 461.141 531.777 447.019C530.995 441.354 528.687 436.478 524.856 432.24Z" fill="black"/>
</svg>
