<svg width="788" height="788" viewBox="0 0 788 788" fill="none" xmlns="http://www.w3.org/2000/svg">
<path fill-rule="evenodd" clip-rule="evenodd" d="M365.396 196.672C516.966 189.218 527.552 233.272 548.365 261.357C558.694 275.295 585.362 295.936 589.786 343.602C592.858 376.69 573.308 414.827 573.308 444.393C573.308 459.485 591.786 491.886 583.184 513.882C564.038 562.841 523.497 617.176 471.837 617.176C420.177 617.176 324.815 588.704 267.733 506.972C249.035 480.201 213.826 204.126 365.396 196.672Z" fill="white"/>
<path fill-rule="evenodd" clip-rule="evenodd" d="M586.009 447.345C582.699 443.695 580.129 440.695 579.269 435.675C578.909 433.584 578.749 431.435 578.679 429.275C591.969 410.695 604.889 366.808 604.889 342.804C604.889 308.939 592.399 276.355 571.899 249.405C531.939 196.914 465.419 170.004 400.319 172.115C337.979 174.124 271.671 197.104 232.783 246.226C103.759 409.201 212.047 587.217 291.359 624.254C298.263 627.478 320.561 626.358 317.454 619.473C308.53 599.694 301.499 563.265 299.859 555.064C302.399 556.775 304.959 558.445 307.529 560.175C312.079 563.224 318.179 566.714 323.899 565.704C324.169 565.655 324.339 565.365 324.349 565.115C324.609 559.744 320.769 554.224 317.389 550.394C312.699 545.074 308.239 539.624 303.189 534.634C301.039 532.504 298.859 530.394 296.679 528.284C296.399 515.624 297.249 502.905 299.519 490.175C303.449 468.105 310.229 446.605 318.019 425.445C324.529 420.644 330.849 415.595 336.699 410.074C350.789 396.784 361.539 380.525 370.759 363.425C370.869 363.374 370.989 363.314 371.099 363.265C388.969 354.954 406.689 346.325 424.269 337.425C433.339 332.834 442.349 328.134 451.359 323.435C456.259 320.874 461.309 318.544 466.319 316.134C464.969 323.054 463.149 329.874 460.939 336.584C459.119 342.095 464.679 346.164 469.599 345.254C486.349 342.155 502.539 335.925 517.109 327.105C524.329 322.735 531.199 317.685 537.569 312.144C543.939 321.634 551.679 330.534 559.489 338.195C564.759 343.365 570.269 348.284 575.989 352.945C573.399 370.775 571.179 388.644 568.369 406.435C566.899 415.735 565.129 425.034 564.019 434.384C562.809 444.574 566.179 451.834 572.889 459.284C582.269 469.695 582.259 484.754 578.669 497.685C578.229 499.284 577.679 500.845 577.109 502.394C576.989 502.714 576.639 503.584 576.509 503.925C576.509 503.935 576.509 503.945 576.499 503.964C576.499 503.974 576.489 503.985 576.489 503.994C576.479 503.994 576.479 504.004 576.469 504.015V504.034V504.044L576.459 504.054C576.039 505.034 575.589 505.994 575.139 506.954C573.089 511.284 570.799 515.515 568.419 519.675C556.719 540.214 541.939 559.004 525.099 575.584C517.259 583.304 509.109 590.485 499.899 596.365C497.959 597.595 495.979 598.784 493.949 599.874C492.859 600.464 491.739 601.015 490.619 601.574C488.979 602.384 489.659 602.064 488.659 602.464C486.849 603.175 484.999 603.794 483.109 604.284C482.099 604.544 481.079 604.765 480.049 604.954C480.039 604.954 480.019 604.964 479.989 604.964C479.979 604.964 479.969 604.974 479.959 604.964C479.949 604.974 479.929 604.974 479.909 604.974C479.529 605.004 478.849 605.064 478.719 605.064C464.359 605.115 450.119 603.185 436.219 599.615C428.689 597.675 421.169 595.324 414.089 592.095C410.489 590.445 406.969 588.615 403.599 586.544C402.089 585.615 400.659 584.494 399.069 583.685C396.689 582.464 394.359 582.595 391.789 582.485C387.869 582.324 385.089 586.425 386.049 590.025C387.219 594.414 389.059 597.004 392.839 599.615C395.859 601.695 399.059 603.534 402.319 605.204C409.419 608.855 416.929 611.824 424.529 614.254C438.759 618.794 453.739 621.584 468.639 622.605C479.489 623.345 488.889 621.894 498.769 617.324C509.199 612.494 518.549 605.284 527.199 597.804C546.569 581.064 563.419 560.754 577.709 539.564C591.139 519.644 601.559 497.954 598.129 473.224C596.759 463.304 592.719 454.765 586.009 447.345Z" fill="black"/>
</svg>
