<svg width="900" height="900" viewBox="0 0 900 900" fill="none" xmlns="http://www.w3.org/2000/svg">
<path fill-rule="evenodd" clip-rule="evenodd" d="M346.986 324.7C349.579 321.918 352.896 319.845 356.521 319.182C353.207 320.838 349.968 322.563 346.986 324.7ZM341.907 348.692C341.449 346.572 341.141 344.431 341.044 342.29C341.623 343.171 342.549 343.76 343.588 344.064C342.917 345.567 342.346 347.116 341.907 348.692ZM515.417 381.939C512.424 369.481 498.46 345.517 495.16 340.905C491.576 329.484 511.123 320.325 500.492 311.395C495.679 307.365 489.318 305.939 483.351 304.51C442.036 294.588 397.647 299.592 359.329 317.838C353.501 316.611 347.428 319.008 343.19 323.218C323.277 343.232 350.414 379.343 356.348 401.906C366.529 427.065 345.557 431.297 347.806 452.583C349.554 463.58 360.692 466.487 370.092 468.149C371.598 468.501 373.612 468.554 374.098 470.147C375.621 479.442 380.842 488.301 387.852 494.313C387.239 496.129 387.707 498.333 389.868 499.928C409.452 514.482 434.146 521.765 458.572 520.456C487.681 518.896 502.734 502.211 506.367 497.915C526.451 470.792 524.051 435.005 519.954 402.68C517.1 380.162 520.719 404.009 515.417 381.939Z" fill="white"/>
<path fill-rule="evenodd" clip-rule="evenodd" d="M425.661 278.271C426.576 275.411 429.166 273.691 432.131 274.046C434.756 274.356 437.566 276.961 437.246 279.836C437.186 280.391 437.106 280.911 437.011 281.401L437.023 281.406L437.036 281.406L436.971 281.596C436.776 282.511 436.506 283.331 436.106 284.106C435.596 285.591 435.106 287.081 434.621 288.576C435.321 288.546 436.036 288.586 436.761 288.721C437.511 286.801 438.266 284.886 439.016 282.961C439.821 280.906 440.386 278.266 441.976 276.676C444.011 274.646 447.541 274.226 450.021 275.676C452.641 277.206 453.576 279.926 453.006 282.841C452.716 284.328 451.722 285.363 450.493 286.013L450.361 286.081L449.416 288.321C449.706 288.196 450.006 288.081 450.331 287.986C450.841 287.836 451.341 287.741 451.831 287.701C453.181 285.256 454.666 282.881 456.201 280.551C457.966 277.871 461.416 276.731 464.311 278.426C466.901 279.941 468.291 283.921 466.436 286.536C465.026 288.521 463.691 290.546 462.376 292.591C462.601 292.631 462.826 292.681 463.041 292.746C463.141 292.611 463.246 292.476 463.356 292.341C464.791 290.561 466.461 289.226 468.176 287.746C469.781 286.356 470.521 284.171 472.631 283.116C475.286 281.791 478.486 282.426 480.066 285.066C483.456 290.721 477.766 294.851 474.126 298.276C477.291 296.301 480.586 294.496 483.966 292.936C485.866 292.061 487.796 291.216 489.756 290.486C492.661 289.406 495.011 289.752 497.396 291.761C498.461 292.661 498.991 294.627 498.501 295.936C497.551 298.446 496.051 299.971 493.421 300.696C491.571 301.206 489.676 301.551 487.826 302.086C484.726 302.976 481.716 304.061 478.796 305.416C479.006 305.546 479.206 305.686 479.391 305.846C481.571 305.141 483.791 304.531 486.021 304.011C489.719 303.144 493.483 302.558 497.264 302.192L498.52 302.075C503.053 301.64 508.504 300.837 511.286 305.176C512.201 306.606 512.301 308.966 511.286 310.381C509.346 313.101 507.416 313.641 504.206 313.691C507.366 314.026 510.521 314.441 513.661 314.926C515.825 315.256 517.989 315.63 520.144 316.045L521.221 316.256C523.846 316.781 526.776 317.086 529.031 318.606C533.951 321.926 531.641 328.391 526.191 329.081C523.556 329.411 520.631 328.296 518.046 327.776C515.536 327.271 513.016 326.826 510.486 326.436C509.176 326.231 507.866 326.051 506.551 325.886C509.226 326.271 511.881 326.816 514.466 327.586L515.184 327.803C520.181 329.326 526.927 331.752 528.486 337.091C529.431 340.336 526.846 343.166 523.716 343.356C520.806 343.531 518.381 341.796 515.911 340.516C514.111 339.586 512.281 338.891 510.341 338.296C508.336 337.681 506.291 337.171 504.231 336.756C505.972 337.715 507.667 338.77 509.294 339.949L510.043 340.502C514.368 343.725 520.965 348.715 519.441 354.756C518.961 356.661 516.836 358.481 514.796 358.286C509.486 357.791 506.556 352.136 502.551 349.106C501.506 348.316 500.361 347.536 499.161 346.776C505.231 354.016 510.061 362.386 513.736 371.031C521.812 390.05 524.29 407.663 524.35 428.113L524.351 428.746C524.361 440.026 524.106 451.511 523.006 462.741C521.986 473.116 520.116 483.356 515.411 492.752C507.526 508.506 492.161 520.776 475.216 525.446C456.361 530.646 435.286 526.581 419.841 514.581C415.901 511.521 421.126 504.877 425.151 507.701C441.226 518.976 462.016 522.546 480.466 514.916C495.101 508.866 506.886 495.851 511.881 480.866C515.06 471.333 515.986 461.168 517.12 451.233L517.196 450.571C518.396 440.181 519.091 429.721 519.081 419.261C519.066 399.836 516.276 383.846 507.731 366.226C503.711 357.926 498.496 350.252 492.266 343.516C490.376 343.901 488.366 343.361 486.456 343.156C485.481 343.051 484.506 342.951 483.531 342.861C484.527 343.505 485.503 344.175 486.464 344.86L487.723 345.768C491.664 348.591 496.664 351.805 495.651 357.261C495.376 358.736 493.906 360.091 492.481 360.426C487.316 361.656 483.766 356.636 480.276 353.656C477.241 351.066 474.066 348.746 470.831 346.421C470.096 345.896 469.356 345.371 468.611 344.851C469.311 345.667 469.991 346.496 470.656 347.333L471.638 348.577C474.609 352.295 478.892 357.127 476.246 361.946C475.496 363.306 473.896 364.211 472.346 364.181C467.016 364.071 464.896 358.021 462.396 354.201C460.246 350.926 457.911 347.841 455.496 344.756C454.831 343.911 454.161 343.066 453.481 342.221C442.286 342.801 431.131 344.281 420.171 346.646C412.641 348.271 405.236 350.377 397.886 352.681L397.275 352.876C393.297 354.156 389.199 355.796 386.331 358.606C385.921 360.543 386.235 362.585 386.627 364.519L386.932 366C388.19 372.19 389.047 378.266 388.406 384.621C387.741 391.176 385.766 397.071 383.356 403.161C382.216 406.031 381.036 405.511 380.631 408.591C380.32 410.937 380.512 413.359 380.724 415.725L380.901 417.73C381.346 422.984 381.569 428.712 378.126 433.046C377.591 433.711 376.446 433.446 376.066 432.781C375.916 432.516 375.756 432.261 375.581 432.016C373.921 429.611 371.376 428.241 368.466 427.711C368.096 427.646 368.241 427.151 368.551 427.111C371.011 426.821 373.341 427.436 375.321 428.706C374.382 425.46 367.113 427.039 364.723 427.67L364.641 427.691C361.661 428.491 358.841 429.791 356.356 431.631C351.356 435.331 348.466 441.101 348.611 447.316C348.756 453.426 351.911 459.071 357.331 461.996C359.946 463.406 362.921 464.086 365.881 464.056C368.971 464.026 371.721 462.671 374.816 462.861C376.606 462.971 377.976 464.891 376.941 466.566C376.251 467.686 375.351 468.566 374.311 469.241C376.846 475.086 380.081 480.661 383.811 485.806C385.876 488.661 388.216 491.296 390.791 493.701C392.801 495.581 397.156 497.756 396.911 500.891C396.826 502.021 396.241 502.711 395.211 503.131C392.008 504.441 388.115 499.933 385.973 497.76L385.801 497.586C383.131 494.926 380.696 491.986 378.576 488.866C374.816 483.326 372.481 477.081 371.516 470.521C366.381 472.066 359.581 470.616 355.391 468.721C342.221 462.771 337.916 445.036 345.921 433.226C347.471 430.941 349.411 428.986 351.621 427.406C351.136 427.141 350.681 426.801 350.276 426.371C348.035 423.992 346.451 420.886 344.879 418.024L344.691 417.681C343.295 415.161 341.979 412.602 340.745 410.003L340.286 409.026C337.531 403.101 335.116 400.511 333.151 394.281C331.261 388.271 329.771 382.146 328.806 375.916L328.549 374.267C327.991 370.652 327.463 366.787 327.871 363.116C325.066 364.031 322.246 364.596 319.471 363.221C317.641 362.316 316.631 359.676 317.256 357.781C317.711 356.386 318.471 355.291 319.436 354.431C318.861 354.141 318.321 353.771 317.846 353.361L317.431 353.002C315.751 351.541 315.631 348.766 316.651 346.936C316.751 346.761 316.851 346.581 316.946 346.406C317.916 344.671 319.921 343.536 321.901 343.566C322.221 343.571 322.541 343.571 322.866 343.566C321.941 343.361 321.036 343.046 320.176 342.516C316.296 340.131 316.786 333.666 321.481 332.526C323.451 332.051 325.626 332.246 327.796 332.756C327.716 332.711 327.636 332.666 327.556 332.616C325.916 331.611 324.541 329.646 324.696 327.631C324.866 325.401 325.586 323.811 327.556 322.641C329.266 321.631 331.686 321.536 333.386 322.641C334.861 323.606 336.306 324.671 337.696 325.816C336.301 324.101 335.091 322.236 334.601 320.256C333.996 317.791 335.006 315.106 337.226 313.806C338.996 312.771 340.866 312.886 342.536 313.686C342.446 312.391 342.761 311.071 343.621 309.901C345.381 307.502 348.581 306.121 351.366 307.871C351.731 308.101 352.221 308.496 352.696 308.981C351.771 306.036 352.606 302.946 355.761 301.616C357.686 300.801 360.291 301.211 361.961 302.616C360.901 296.881 369.366 292.666 372.656 298.591C373.402 299.934 374.141 301.347 374.802 302.793L375.046 303.336L375.071 303.326L374.902 302.929L374.731 302.531C373.816 300.406 372.651 298.196 372.331 295.891C371.861 292.481 373.381 289.246 377.091 288.746C379.006 288.486 381.136 289.356 382.421 290.877C381.726 285.586 387.636 281.741 391.891 285.691C393.906 287.561 394.981 290.296 396.261 292.696C396.986 294.051 397.726 295.401 398.451 296.761C398.636 296.541 398.836 296.321 399.046 296.106C397.971 292.886 397.136 289.586 396.431 286.266C395.761 283.136 397.326 279.886 400.556 279.002C403.491 278.191 407.166 280.002 407.821 283.127C408.281 285.326 408.826 287.502 409.426 289.666C409.836 289.566 410.241 289.496 410.641 289.446C410.674 289.04 410.712 288.631 410.754 288.224L410.911 286.778C411.261 283.473 411.614 279.701 413.341 276.891C416.286 272.091 423.836 274.081 423.916 279.756C423.961 282.691 422.766 285.601 422.351 288.506C422.171 289.771 422.066 291.051 422.006 292.331C422.811 288.081 423.916 283.886 425.196 279.756C425.346 279.261 425.506 278.766 425.661 278.271ZM360.521 442.162C367.146 441.137 373.201 444.832 377.126 450.007C377.841 450.952 377.371 452.287 376.726 453.082C376.261 453.667 375.636 453.737 374.931 453.827C374.121 453.932 373.096 453.277 372.741 452.572C370.216 447.532 365.711 444.347 360.521 442.387C360.426 442.352 360.396 442.182 360.521 442.162ZM369.704 351.859L369.905 351.644C371.246 350.253 369.127 348.129 367.784 349.523C366.369 350.99 365.429 352.772 364.525 354.578C363.664 356.3 366.251 357.821 367.116 356.092L367.51 355.307C368.128 354.085 368.787 352.878 369.704 351.859ZM351.099 349.005C352.999 348.685 352.194 345.794 350.302 346.113C347.851 346.526 345.409 346.995 342.958 347.409C341.058 347.729 341.864 350.62 343.756 350.302C346.207 349.888 348.648 349.419 351.099 349.005ZM464.283 329.265C462.448 328.652 461.66 331.549 463.486 332.158C466.008 332.999 468.51 333.862 470.903 335.03C472.632 335.874 474.154 333.288 472.417 332.44C469.791 331.157 467.052 330.189 464.283 329.265ZM350.667 325.377C348.875 324.66 348.096 327.56 349.87 328.27L356.35 330.861C358.142 331.578 358.921 328.678 357.147 327.969L350.667 325.377ZM486.91 318.333L486.674 318.184C485.049 317.131 483.543 319.727 485.159 320.774C486.108 321.389 487.261 321.806 488.13 322.538L488.312 322.7C489.715 324.025 491.84 321.908 490.433 320.578C489.404 319.607 488.101 319.066 486.91 318.333Z" fill="black"/>
</svg>
