<svg width="788" height="788" viewBox="0 0 788 788" fill="none" xmlns="http://www.w3.org/2000/svg">
<path fill-rule="evenodd" clip-rule="evenodd" d="M235.973 246.401C241.159 240.836 247.792 236.69 255.043 235.365C248.415 238.676 241.936 242.127 235.973 246.401ZM225.815 294.385C224.898 290.144 224.282 285.862 224.088 281.581C225.247 283.343 227.098 284.52 229.177 285.128C227.834 288.135 226.692 291.233 225.815 294.385ZM572.835 360.879C566.849 335.962 538.921 288.034 532.32 278.81C525.152 255.969 564.246 237.651 542.985 219.79C533.359 211.731 520.637 208.879 508.703 206.021C426.073 186.177 337.295 196.185 260.659 232.676C249.002 230.223 236.857 235.017 228.38 243.437C188.555 283.465 242.829 355.687 254.697 400.813C275.059 451.13 233.115 459.594 237.613 502.167C241.108 524.161 263.385 529.974 282.184 533.298C285.197 534.003 289.225 534.109 290.197 537.294C293.243 555.885 303.685 573.602 317.704 585.626C316.478 589.258 317.414 593.667 321.737 596.857C360.905 625.964 410.292 640.531 459.144 637.912C517.362 634.792 547.469 601.423 554.734 592.831C594.903 538.584 590.103 467.01 581.909 402.361C576.201 357.325 583.439 405.019 572.835 360.879Z" fill="white"/>
<path fill-rule="evenodd" clip-rule="evenodd" d="M393.322 153.542C395.152 147.822 400.332 144.382 406.262 145.092C411.512 145.712 417.132 150.922 416.492 156.672C416.372 157.782 416.212 158.822 416.022 159.802L416.047 159.811L416.072 159.812L415.942 160.192C415.552 162.022 415.012 163.662 414.212 165.212C413.192 168.182 412.212 171.162 411.242 174.152C412.642 174.092 414.072 174.172 415.522 174.442C417.022 170.602 418.532 166.772 420.032 162.922C421.642 158.812 422.772 153.532 425.952 150.352C430.022 146.292 437.082 145.452 442.042 148.352C447.282 151.412 449.152 156.852 448.012 162.682C447.432 165.656 445.445 167.726 442.987 169.026L442.722 169.162L440.832 173.642C441.412 173.392 442.012 173.162 442.662 172.972C443.682 172.672 444.682 172.482 445.662 172.402C448.362 167.512 451.332 162.762 454.402 158.102C457.932 152.742 464.832 150.462 470.622 153.852C475.802 156.882 478.582 164.842 474.872 170.072C472.052 174.042 469.382 178.092 466.752 182.182C467.202 182.262 467.652 182.362 468.082 182.492C468.282 182.222 468.492 181.952 468.712 181.682C471.582 178.122 474.922 175.452 478.352 172.492C481.562 169.712 483.042 165.342 487.262 163.232C492.572 160.582 498.972 161.852 502.132 167.132C508.912 178.442 497.532 186.702 490.252 193.552C496.582 189.602 503.172 185.992 509.932 182.872C513.732 181.122 517.592 179.432 521.512 177.972C527.322 175.812 532.022 176.503 536.792 180.522C538.922 182.322 539.982 186.253 539.002 188.872C537.102 193.892 534.102 196.942 528.842 198.392C525.142 199.412 521.352 200.102 517.652 201.172C511.452 202.952 505.432 205.122 499.592 207.832C500.012 208.092 500.412 208.372 500.782 208.692C505.142 207.282 509.582 206.062 514.042 205.022C521.439 203.288 528.967 202.116 536.529 201.383L539.041 201.149C548.107 200.279 559.008 198.674 564.572 207.352C566.402 210.212 566.602 214.932 564.572 217.762C560.692 223.202 556.832 224.282 550.412 224.382C556.732 225.052 563.042 225.882 569.322 226.852C573.65 227.512 577.979 228.26 582.289 229.09L584.442 229.512C589.692 230.562 595.552 231.172 600.062 234.212C609.902 240.852 605.282 253.782 594.382 255.162C589.112 255.822 583.262 253.592 578.092 252.552C573.072 251.542 568.032 250.652 562.972 249.872C560.352 249.462 557.732 249.102 555.102 248.772C560.452 249.542 565.762 250.632 570.932 252.172L572.368 252.606C582.363 255.652 595.854 260.503 598.972 271.182C600.862 277.672 595.692 283.332 589.432 283.712C583.612 284.062 578.762 280.592 573.822 278.032C570.222 276.172 566.562 274.782 562.682 273.592C558.672 272.362 554.582 271.342 550.462 270.512C553.944 272.43 557.334 274.539 560.589 276.897L562.086 278.003C570.737 284.449 583.93 294.429 580.882 306.512C579.922 310.322 575.672 313.962 571.592 313.572C560.972 312.582 555.112 301.272 547.102 295.212C545.012 293.632 542.722 292.072 540.322 290.552C552.462 305.032 562.122 321.772 569.472 339.062C585.625 377.1 590.581 412.326 590.7 453.226L590.702 454.492C590.722 477.052 590.212 500.022 588.012 522.482C585.972 543.232 582.232 563.712 572.822 582.503C557.052 614.012 526.322 638.552 492.432 647.892C454.722 658.292 412.572 650.162 381.682 626.162C373.802 620.042 384.252 606.753 392.302 612.402C424.452 634.952 466.032 642.092 502.932 626.832C532.202 614.732 555.772 588.702 565.762 558.732C572.12 539.666 573.972 519.336 576.24 499.466L576.392 498.142C578.792 477.362 580.182 456.442 580.162 435.522C580.132 396.672 574.552 364.692 557.462 329.452C549.422 312.852 538.992 297.503 526.532 284.032C522.752 284.802 518.732 283.722 514.912 283.312C512.962 283.102 511.012 282.902 509.062 282.722C511.054 284.01 513.007 285.35 514.928 286.72L517.446 288.536C525.328 294.181 535.328 300.61 533.302 311.522C532.752 314.472 529.812 317.182 526.962 317.852C516.632 320.312 509.532 310.272 502.552 304.312C496.482 299.132 490.132 294.492 483.662 289.842C482.192 288.792 480.712 287.742 479.222 286.702C480.622 288.334 481.983 289.992 483.312 291.665L485.276 294.154C491.218 301.589 499.784 311.254 494.492 320.892C492.992 323.612 489.792 325.422 486.692 325.362C476.032 325.142 471.792 313.042 466.792 305.402C462.492 298.852 457.822 292.682 452.992 286.512C451.662 284.822 450.322 283.132 448.962 281.442C426.572 282.602 404.262 285.562 382.342 290.292C367.282 293.542 352.472 297.753 337.772 302.362L336.55 302.751C328.595 305.312 320.398 308.591 314.662 314.212C313.843 318.086 314.471 322.17 315.255 326.038L315.865 328.999C318.38 341.38 320.094 353.531 318.812 366.242C317.482 379.352 313.532 391.142 308.712 403.322C306.432 409.062 304.072 408.022 303.262 414.182C302.641 418.874 303.025 423.718 303.449 428.449L303.803 432.46C304.692 442.967 305.139 454.423 298.252 463.092C297.182 464.422 294.892 463.892 294.132 462.562C293.832 462.032 293.512 461.522 293.162 461.032C289.842 456.222 284.752 453.482 278.932 452.422C278.192 452.292 278.482 451.302 279.102 451.222C284.022 450.642 288.682 451.872 292.642 454.412C290.764 447.919 276.226 451.077 271.446 452.339L271.282 452.382C265.322 453.982 259.682 456.582 254.712 460.262C244.712 467.662 238.932 479.202 239.222 491.632C239.512 503.852 245.822 515.142 256.662 520.992C261.892 523.812 267.842 525.172 273.762 525.112C279.942 525.052 285.442 522.342 291.632 522.722C295.212 522.942 297.952 526.782 295.882 530.132C294.502 532.372 292.702 534.132 290.622 535.482C295.692 547.172 302.162 558.322 309.622 568.612C313.752 574.322 318.432 579.592 323.582 584.402C327.602 588.162 336.312 592.512 335.822 598.782C335.652 601.042 334.482 602.422 332.422 603.262C326.017 605.881 318.23 596.865 313.946 592.519L313.602 592.172C308.262 586.852 303.392 580.972 299.152 574.732C291.632 563.652 286.962 551.162 285.032 538.042C274.762 541.132 261.162 538.232 252.782 534.442C226.442 522.542 217.832 487.072 233.842 463.452C236.942 458.882 240.822 454.972 245.242 451.812C244.272 451.282 243.362 450.602 242.552 449.742C238.071 444.983 234.903 438.772 231.759 433.047L231.382 432.362C228.591 427.322 225.958 422.203 223.49 417.005L222.572 415.052C217.062 403.202 212.232 398.022 208.302 385.562C204.522 373.542 201.542 361.292 199.612 348.832L199.099 345.534C197.983 338.304 196.927 330.573 197.742 323.232C192.132 325.062 186.492 326.192 180.942 323.442C177.282 321.632 175.262 316.352 176.512 312.562C177.422 309.772 178.942 307.582 180.872 305.862C179.722 305.282 178.642 304.542 177.692 303.722L176.862 303.003C173.502 300.082 173.262 294.532 175.302 290.872C175.502 290.522 175.702 290.162 175.892 289.812C177.832 286.342 181.842 284.072 185.802 284.132C186.442 284.142 187.082 284.142 187.732 284.132C185.882 283.722 184.072 283.092 182.352 282.032C174.592 277.262 175.572 264.332 184.962 262.052C188.902 261.102 193.252 261.492 197.592 262.512C197.432 262.422 197.272 262.332 197.112 262.232C193.832 260.222 191.082 256.292 191.392 252.262C191.732 247.802 193.172 244.622 197.112 242.282C200.532 240.262 205.372 240.072 208.772 242.282C211.722 244.212 214.612 246.342 217.392 248.632C214.602 245.202 212.182 241.472 211.202 237.512C209.992 232.582 212.012 227.212 216.452 224.612C219.992 222.542 223.732 222.772 227.072 224.372C226.892 221.782 227.522 219.142 229.242 216.802C232.762 212.003 239.162 209.242 244.732 212.742C245.462 213.202 246.442 213.992 247.392 214.962C245.542 209.072 247.212 202.892 253.522 200.232C257.372 198.602 262.582 199.422 265.922 202.232C263.802 190.762 280.732 182.332 287.312 194.182C288.805 196.867 290.283 199.693 291.604 202.585L292.092 203.672L292.142 203.652L291.805 202.857L291.462 202.062C289.632 197.812 287.302 193.392 286.662 188.782C285.722 181.962 288.762 175.492 296.182 174.492C300.012 173.972 304.272 175.712 306.842 178.753C305.452 168.172 317.272 160.482 325.782 168.382C329.812 172.122 331.962 177.592 334.522 182.392C335.972 185.102 337.452 187.802 338.902 190.522C339.272 190.082 339.672 189.642 340.092 189.212C337.942 182.772 336.272 176.172 334.862 169.532C333.522 163.272 336.652 156.772 343.112 155.003C348.982 153.382 356.332 157.003 357.642 163.253C358.562 167.652 359.652 172.003 360.852 176.332C361.672 176.132 362.482 175.992 363.282 175.892C363.348 175.079 363.424 174.261 363.508 173.448L363.823 170.555C364.522 163.946 365.228 156.401 368.682 150.782C374.572 141.182 389.672 145.162 389.832 156.512C389.922 162.382 387.532 168.202 386.702 174.012C386.342 176.542 386.132 179.102 386.012 181.662C387.622 173.162 389.832 164.772 392.392 156.512C392.692 155.522 393.012 154.532 393.322 153.542ZM263.042 481.323C276.292 479.273 288.402 486.663 296.252 497.013C297.682 498.903 296.742 501.573 295.452 503.163C294.522 504.333 293.272 504.473 291.862 504.653C290.242 504.863 288.192 503.553 287.482 502.143C282.432 492.063 273.422 485.693 263.042 481.773C262.852 481.703 262.792 481.363 263.042 481.323ZM281.409 300.718L281.811 300.287C284.492 297.506 280.255 293.258 277.568 296.045C274.739 298.979 272.859 302.543 271.051 306.155C269.328 309.599 274.502 312.641 276.232 309.184L277.02 307.613C278.256 305.17 279.574 302.756 281.409 300.718ZM244.199 295.01C247.999 294.37 246.388 288.587 242.604 289.225C237.702 290.051 232.819 290.99 227.916 291.817C224.117 292.457 225.728 298.24 229.512 297.603C234.414 296.776 239.297 295.837 244.199 295.01ZM470.567 255.529C466.896 254.304 465.321 260.097 468.972 261.315C474.017 262.998 479.021 264.723 483.807 267.06C487.264 268.748 490.309 263.575 486.835 261.879C481.582 259.314 476.105 257.377 470.567 255.529ZM243.335 247.753C239.75 246.319 238.193 252.12 241.74 253.539L254.7 258.722C258.285 260.156 259.842 254.356 256.295 252.937L243.335 247.753ZM515.821 233.666L515.348 233.367C512.098 231.261 509.087 236.453 512.319 238.548C514.216 239.778 516.523 240.611 518.26 242.076L518.624 242.399C521.43 245.049 525.681 240.815 522.867 238.156C520.808 236.213 518.202 235.131 515.821 233.666Z" fill="black"/>
</svg>
