<svg width="900" height="900" viewBox="0 0 900 900" fill="none" xmlns="http://www.w3.org/2000/svg">
<path fill-rule="evenodd" clip-rule="evenodd" d="M528.191 345.717C516.938 277.659 431.015 265.388 375.026 279.713C373.994 266.622 365.746 255.054 355.455 247.445C311.736 215.986 259.978 269.398 270.34 315.43C272.199 329.375 283.346 345.288 298.943 342.901C279.339 380.002 271.678 454.813 314.871 477.939C319.038 480.905 319.73 486.928 322.937 490.79C328.144 497.018 350.387 504.952 362.421 498.594C366.202 502.068 370.564 505.449 375.664 506.651C402.012 527.742 440.517 532.501 472.601 523.798C492.368 520.444 512.859 511.527 523.028 493.309C531.645 479.444 527.675 463.199 523.723 448.525C522.016 440.452 520.905 432.315 520.221 424.109C521.622 422.473 521.701 420.202 522.05 418.133C523.567 410.799 526.883 403.994 528.541 396.682C532.252 380.084 531.608 362.35 528.191 345.717Z" fill="white"/>
<path fill-rule="evenodd" clip-rule="evenodd" d="M527.29 380.377C526.64 388.583 523.161 395.967 520.25 403.615C520.568 399.09 520.418 394.381 520.735 389.682C517.349 360.259 477.336 352.529 461.803 330.281C462.391 329.025 462.603 317.791 460.286 320.95C451.302 360.265 397.901 379.989 361.34 380.065C358.575 377.787 353.091 380.194 354.127 384.736C359.594 408.704 360.791 433.777 357.28 458.131C355.626 466.731 355.347 477.079 350.187 484.489C344.711 489.697 351.295 490.115 354.918 488.94C355.928 490.36 356.994 491.739 358.065 493.113C352.86 496.708 345.266 494.747 339.879 492.354C333.887 489.182 330.461 483.036 326.12 478.109C323.749 473.338 320.154 470.596 315.532 468.012C289.817 450.535 290.481 412.197 294.173 384.488C304.929 302.034 396.446 262.25 469.891 290.894C509.556 301.037 528.139 342.047 527.29 380.377ZM288.067 333.696C272.382 318.075 275.539 290.767 285.399 272.759C305.157 235.133 361.275 236.356 367.995 281.962C339.377 291.766 315.229 312.787 300.852 339.331C296.171 338.831 291.646 336.746 288.067 333.696ZM528.191 345.729C516.938 277.671 431.016 265.4 375.026 279.726C373.994 266.634 365.747 255.066 355.455 247.457C311.736 215.998 259.978 269.41 270.34 315.442C272.199 329.387 283.346 345.3 298.943 342.913C279.339 380.014 271.678 454.825 314.871 477.951C319.038 480.917 319.73 486.94 322.937 490.801C328.144 497.03 350.387 504.965 362.421 498.606C365.282 502.116 381.521 512.792 380.337 502.327C379.143 499.508 375.451 498.772 372.993 497.379C367.827 494.527 363.339 490.508 359.813 485.787C370.889 454.556 370.045 419.782 363.84 387.626C400.92 385.761 444.55 369.508 460.905 333.819C471.961 359.791 506.246 363.134 514.907 392.172C515.43 407.423 512.159 422.449 514.531 437.708C515.227 452.653 523.128 467.5 518.56 482.348C505.799 514.726 459.86 519.477 429.51 518.124C422.301 517.529 416.318 513.633 410.391 509.934C406.839 508.248 402.611 511.775 404.787 515.539C413.097 527.134 430.188 528.148 443.313 527.73C477.373 525.71 526.596 515.648 528.364 473.59C527.241 456.918 520.699 440.962 520.222 424.121C521.622 422.485 521.701 420.214 522.05 418.145C523.567 410.811 526.884 404.006 528.541 396.694C532.252 380.096 531.608 362.362 528.191 345.729Z" fill="black"/>
</svg>
