<svg width="788" height="788" viewBox="0 0 788 788" fill="none" xmlns="http://www.w3.org/2000/svg">
<path fill-rule="evenodd" clip-rule="evenodd" d="M613.872 333.624C594.167 214.447 443.707 192.96 345.663 218.044C343.856 195.12 329.414 174.864 311.392 161.54C234.836 106.451 144.202 199.981 162.347 280.589C165.602 305.008 185.122 332.873 212.433 328.694C178.104 393.661 164.689 524.664 240.326 565.16C247.623 570.353 248.834 580.9 254.45 587.663C263.567 598.57 302.518 612.463 323.59 601.329C330.211 607.413 337.85 613.333 346.781 615.438C392.919 652.37 460.346 660.703 516.528 645.464C551.142 639.59 587.024 623.976 604.832 592.075C619.921 567.796 612.968 539.349 606.049 513.652C603.06 499.516 601.114 485.267 599.916 470.898C602.37 468.033 602.507 464.055 603.119 460.432C605.776 447.591 611.582 435.674 614.486 422.87C620.983 393.804 619.855 362.75 613.872 333.624Z" fill="white"/>
<path fill-rule="evenodd" clip-rule="evenodd" d="M612.294 394.319C611.156 408.689 605.065 421.619 599.966 435.011C600.523 427.087 600.261 418.841 600.816 410.613C594.886 359.09 524.819 345.554 497.619 306.595C498.649 304.395 499.02 284.724 494.964 290.256C479.231 359.101 385.72 393.64 321.698 393.773C316.856 389.783 307.253 393.998 309.067 401.952C318.641 443.923 320.737 487.828 314.589 530.475C311.692 545.534 311.203 563.654 302.168 576.63C292.578 585.751 304.107 586.483 310.452 584.424C312.221 586.911 314.088 589.326 315.962 591.732C306.848 598.028 293.55 594.594 284.117 590.403C273.624 584.849 267.626 574.086 260.023 565.459C255.872 557.104 249.576 552.302 241.482 547.777C196.453 517.173 197.616 450.039 204.08 401.518C222.916 257.132 383.172 187.465 511.783 237.625C581.24 255.386 613.782 327.198 612.294 394.319ZM193.389 312.576C165.922 285.222 171.451 237.402 188.717 205.868C223.315 139.981 321.584 142.122 333.351 221.984C283.238 239.151 240.952 275.962 215.776 322.443C207.579 321.567 199.655 317.916 193.389 312.576ZM613.872 333.646C594.167 214.469 443.708 192.982 345.663 218.067C343.857 195.142 329.415 174.886 311.392 161.561C234.836 106.473 144.202 200.003 162.347 280.611C165.602 305.03 185.122 332.895 212.433 328.716C178.104 393.683 164.69 524.686 240.326 565.182C247.623 570.376 248.834 580.923 254.45 587.684C263.567 598.592 302.518 612.486 323.59 601.351C328.6 607.498 357.037 626.192 354.964 607.867C352.872 602.93 346.408 601.642 342.104 599.202C333.058 594.208 325.199 587.17 319.024 578.903C338.419 524.215 336.941 463.322 326.076 407.012C391.006 403.746 467.408 375.286 496.047 312.791C515.407 358.271 575.445 364.124 590.611 414.973C591.526 441.68 585.799 467.991 589.952 494.711C591.171 520.883 605.006 546.881 597.007 572.881C574.661 629.579 494.218 637.899 441.071 635.529C428.447 634.487 417.97 627.665 407.592 621.188C401.372 618.236 393.968 624.411 397.779 631.002C412.33 651.307 442.259 653.082 465.241 652.35C524.884 648.814 611.08 631.193 614.176 557.545C612.209 528.35 600.753 500.41 599.917 470.92C602.37 468.055 602.507 464.077 603.119 460.454C605.776 447.612 611.583 435.696 614.486 422.892C620.983 393.826 619.856 362.773 613.872 333.646Z" fill="black"/>
</svg>
