<svg width="900" height="900" viewBox="0 0 900 900" fill="none" xmlns="http://www.w3.org/2000/svg">
<path fill-rule="evenodd" clip-rule="evenodd" d="M478.29 474.411C476.64 476.568 473.653 478.221 470.307 479.011C467.119 479.764 463.595 479.733 460.554 478.574L460.293 478.47C458.02 477.526 455.837 475.619 455.008 473.63C454.679 472.839 454.567 472.034 454.793 471.284C454.996 470.609 455.471 469.988 456.263 469.454C456.512 469.287 456.846 469.275 457.163 469.331C457.558 469.4 457.946 469.585 458.181 469.834C459.482 471.217 461.369 472.566 463.603 472.543C465.327 472.525 466.735 471.845 468.1 471.075L469.059 470.526C469.985 469.998 470.923 469.502 471.985 469.275C473.886 468.869 476.192 469.611 477.597 470.835C478.209 471.368 478.654 471.995 478.775 472.671C478.877 473.238 478.734 473.83 478.29 474.411ZM468.407 436.683C472.183 438.978 477.936 444.33 473.874 450.019C469.093 455.036 462.209 449.284 458.817 446.683C455.672 444.667 452.138 449.852 455.056 452.206C479.568 470.354 489.515 437.283 470.317 433.985C468.203 433.621 467.418 435.973 468.407 436.683ZM425.812 401.411L426.896 401.113L428.002 400.815L428.75 400.617C433.887 399.272 439.554 398.089 444.648 398.667C446.506 398.878 448.014 399.923 448.277 401.87C448.499 403.512 447.437 405.631 445.631 405.923C439.647 406.891 433.522 406.577 427.511 407.575C424.518 408.072 421.547 408.688 418.565 409.244C416.298 409.667 413.955 409.815 411.668 410.157L412.193 410.23C412.377 410.255 412.331 410.565 412.15 410.552C411.396 410.477 410.641 410.465 409.885 410.518L409.561 410.545C409.067 410.614 408.776 410.025 409.216 409.726C412.003 407.836 414.367 405.787 417.487 404.393C420.186 403.188 422.963 402.195 425.812 401.411ZM472.581 398.511C476.531 394.518 484.931 396.053 489.63 397.879C492.312 398.922 494.862 400.241 496.986 402.213L497.193 402.407L497.512 402.714C498.946 404.118 500.544 406.049 500.317 408.073C500.282 408.381 500.114 408.734 499.766 408.796C497.884 409.129 496.035 408.136 494.297 407.539L493.146 407.144C491.418 406.555 489.678 405.992 487.896 405.586C485.68 405.082 483.42 404.791 481.145 404.82C478.845 404.85 476.375 405.499 474.185 404.586C471.742 403.568 470.475 400.64 472.581 398.511ZM433.558 430.715C432.55 431.744 431.219 432.325 429.516 431.979C428.185 431.709 425.65 430.371 423.626 428.31C422.24 426.9 421.082 425.137 420.767 423.096C420.694 422.622 420.443 422.318 420.112 422.127C419.852 421.976 419.508 421.9 419.133 421.938C418.815 421.97 418.477 422.085 418.216 422.238C417.72 422.528 417.517 422.941 417.475 423.249C417.077 426.221 418.225 429.169 420.014 431.656C422.429 435.011 425.975 437.47 428.06 438.045C431.627 439.031 435.385 438.246 438.156 435.764C440.372 433.779 441.508 431.193 442.562 428.533L442.765 428.018C443.002 427.414 443.237 426.815 443.486 426.223C443.986 425.035 443.826 424.009 443.341 423.209C442.805 422.322 441.815 421.699 440.712 421.507C439.693 421.33 438.602 421.524 437.742 422.146C437.014 422.672 436.428 423.505 436.22 424.737C435.881 426.74 435.095 429.039 433.709 430.555L433.558 430.715ZM494.72 419.12C493.889 418.687 493.239 418.556 492.317 418.833C491.807 418.986 491.303 419.279 490.909 419.674C490.518 420.065 490.236 420.551 490.126 421.09C489.856 422.421 489.128 423.667 488.09 424.48C487.203 425.174 486.083 425.542 484.841 425.334C483.501 425.111 482.224 424.251 481.345 423.238C481.1 422.955 480.899 422.641 480.705 422.322L480.589 422.131C480.156 421.416 479.734 420.751 479.137 420.225C478.91 420.026 478.569 419.887 478.238 419.887C478.104 419.887 477.968 419.909 477.838 419.949C476.504 421.288 476.247 422.304 476.29 423.311C476.335 424.368 476.752 425.437 477.425 426.435C479.004 428.776 482.001 430.696 484.024 431.13C486.794 431.726 489.545 431.011 491.751 429.464C494.021 427.872 495.703 425.4 496.227 422.615C496.353 421.944 496.299 421.22 496.044 420.592C495.794 419.978 495.359 419.453 494.72 419.12Z" fill="black"/>
</svg>
