<svg width="284" height="284" viewBox="0 0 284 284" fill="none" xmlns="http://www.w3.org/2000/svg">
<path fill-rule="evenodd" clip-rule="evenodd" d="M180.138 173.83C180.38 173.072 181.433 173.074 181.675 173.83C183.873 180.681 185.164 187.39 188.446 193.832C189.257 194.667 189.838 195.718 190.149 196.853C191.682 199.4 193.39 201.818 195.301 204.107C197.705 206.987 199.454 209.692 198.18 213.623C197.552 215.56 195.93 216.799 193.886 216.892C188.274 217.146 185.077 211.794 183.092 206.214C169.204 210.826 153.912 213.437 139.356 212.29C127.524 211.356 114.635 208.392 104.041 202.35C104.104 204.632 104.191 206.916 104.271 209.201C104.419 213.427 105.556 218.052 105.116 222.202C104.68 226.32 102.342 229.506 98.1054 230.144C94.4584 230.692 89.9444 228.257 89.2334 224.351C88.4094 219.817 89.9354 216.65 91.1904 212.37C92.2994 208.588 93.1694 204.724 94.1254 200.901C95.0894 197.041 95.8784 193.148 96.5934 189.237C97.1174 186.374 96.7394 183.148 97.7534 180.451C97.8334 180.24 98.0394 180.089 98.2724 180.156C103.667 181.706 103.974 190.392 103.952 195.053L103.95 195.283C103.942 196.233 103.951 197.183 103.961 198.132L106.023 198.583C117.339 201.032 128.332 202.892 140.23 202.217C154.188 201.426 166.462 196.323 179.708 192.826C178.608 186.535 178.27 179.672 180.138 173.83ZM133.461 49.8608C139.655 47.7398 146.351 46.7378 152.865 47.0588C166.827 47.7488 180.128 54.1168 189.282 64.7278C197.925 74.7448 202.622 87.3078 202.561 100.562C202.495 114.177 198.919 129.509 192.185 141.427C178.036 166.468 144.988 166.642 121.238 156.658C95.893 146.004 85.581 119.135 91.686 93.1578C96.276 73.6218 111.933 50.1808 133.461 49.8608ZM174.753 69.2008C167.275 63.1978 157.858 60.5008 148.343 61.1828C143.616 61.5218 138.813 62.7628 134.522 64.7798C132.241 65.8518 130.202 67.3488 127.956 68.4648C125.953 69.4586 123.786 70.0383 121.719 70.8748L120.95 71.2018C117.557 72.7178 114.14 70.5488 113.97 67.3878C106.589 77.7438 103.088 91.7868 103.144 104.245C103.187 113.419 105.372 122.949 110.638 130.587C116.491 139.076 126.202 143.554 135.942 145.932C145.27 148.209 155.441 148.999 164.791 146.412C174.496 143.728 180.765 136.363 184.333 127.182C192.073 107.267 192.712 83.6178 174.753 69.2008ZM141.427 93.8957C145.662 88.1147 153.259 87.8077 157.441 93.8957C160.073 97.7277 159.686 101.42 159.477 105.83L159.436 106.821C159.313 110.312 159.329 113.986 158.022 117.212C156.343 121.353 153.08 124.006 148.458 123.457C145.737 123.132 143.458 121.508 142.136 119.268L142.09 119.294C140.236 115.593 139.758 111.837 139.444 107.797L139.229 104.834C138.967 100.939 138.953 97.273 141.427 93.8957Z" fill="black"/>
</svg>
