<svg width="788" height="788" viewBox="0 0 788 788" fill="none" xmlns="http://www.w3.org/2000/svg">
<path fill-rule="evenodd" clip-rule="evenodd" d="M395.042 222.259C451.822 222.259 534.932 260.176 541.182 296.655C548.548 339.645 564.907 501.299 556.001 554.198C547.094 607.097 512.366 646.183 435.567 646.183C358.769 646.183 301.447 604.302 288.286 589.922C279.511 580.335 269.808 560.626 259.176 530.793C231.144 526.041 217.064 512.492 216.934 490.146C216.804 467.801 223.845 453.175 238.057 446.269C230.386 353.57 234.612 295.741 250.733 272.781C274.915 238.342 338.261 222.259 395.042 222.259Z" fill="white"/>
<path fill-rule="evenodd" clip-rule="evenodd" d="M378.642 144.016C389.081 144.186 399.602 144.576 410.081 145.436C410.572 145.386 411.072 145.346 411.562 145.296C431.282 143.405 450.972 145.105 470.682 145.936C489.461 146.726 509.291 148.666 526.152 157.655C528.32 158.809 530.157 160.121 531.724 161.583C533.921 161.892 536.016 162.515 537.899 163.562C543.327 162.465 549.387 164.897 550.671 171.196C552.541 180.426 553.251 189.735 552.131 199.096C552.102 199.315 552.081 199.546 552.051 199.786C554.318 208.47 554.167 217.954 552.283 226.519C553.077 237.341 553.53 248.194 553.593 259.029C553.637 266.524 553.971 274.155 553.274 281.628C552.66 288.198 549.956 293.397 545.701 298.387C544.899 299.327 543.544 299.483 542.417 299.255C542.125 299.196 541.871 299.116 541.641 299.021C544.206 304.52 546.234 310.354 548.312 315.926C551.612 324.786 554.812 333.796 557.081 342.976C561.682 361.485 564.711 380.346 566.472 399.336C569.581 433.126 570.751 467.206 571.352 501.126C571.932 533.266 569.102 566.786 550.791 594.266C534.782 618.306 510.402 635.756 483.251 645.176C467.801 650.546 450.692 652.536 434.372 653.026C425.942 653.276 417.492 652.916 409.112 652.046C400.982 651.196 392.572 651.286 386.631 645.126C385.001 643.436 385.022 639.966 387.432 638.866C392.022 636.776 395.131 636.556 400.162 637.246C404.331 637.815 408.512 638.266 412.711 638.556C421.711 639.186 430.772 639.206 439.772 638.516C456.312 637.246 473.232 632.575 488.251 625.496C511.801 614.376 532.032 596.155 542.952 572.246C555.642 544.496 554.822 512.346 554.232 482.526C553.581 449.826 552.372 417.226 549.532 384.636C548.152 368.836 546.022 353.146 544.102 337.416C543.091 329.056 541.762 320.735 540.131 312.476C539.272 308.105 538.152 303.796 537.232 299.456C536.562 299.565 535.881 299.626 535.182 299.655C531.001 299.796 526.432 298.776 523.331 295.806C522.142 296.616 520.631 297.126 518.812 297.216C501.622 298.065 484.162 297.016 466.942 297.006C449.662 296.996 432.372 297.006 415.081 297.056C397.812 297.105 380.492 297.266 363.232 296.806C347.162 296.376 330.551 296.726 314.692 293.786C309.362 312.726 309.551 333.536 320.662 350.456C323.801 355.226 321.251 360.846 317.162 363.826C312.981 366.867 305.466 371.53 299.036 372.009C298.413 373.408 297.773 374.8 297.165 376.188C294.096 383.181 291.331 390.218 289.396 397.622C288.399 401.438 287.541 405.317 286.819 409.22C286.878 409.903 286.939 410.585 287.012 411.266C287.012 411.336 287.022 411.405 287.032 411.485C287.072 411.766 287.122 412.086 287.152 412.266C287.522 414.226 287.881 416.186 288.272 418.136C289.202 422.886 289.921 427.676 290.432 432.485C291.362 441.286 291.272 452.726 282.692 457.936C278.102 460.726 272.602 460.436 267.751 458.565C264.492 457.306 261.722 455.526 258.722 453.776C256.942 452.735 255.081 451.886 253.341 450.806C252.862 450.506 252.402 450.146 251.972 449.766C248.722 450.456 245.551 451.746 243.772 452.626C239.001 454.996 234.812 458.426 231.251 462.366C223.682 470.756 221.412 482.576 222.472 493.546C223.461 503.756 227.472 515.485 235.541 522.276C239.051 525.235 243.432 526.966 248.062 526.916C250.341 526.896 252.442 526.416 254.642 525.836C256.812 525.266 259.492 525.436 261.492 524.636C264.461 523.446 268.122 527.076 266.912 530.056C266.001 532.296 265.482 534.276 264.341 536.026C272.622 549.546 281.692 562.646 291.341 575.216C300.041 586.536 310.282 596.056 319.961 606.426C324.232 611.006 326.012 620.026 318.282 621.985C310.572 623.956 304.812 615.676 300.381 610.646C282.032 589.776 268.162 565.815 261.671 538.766C258.742 540.846 255.381 541.976 251.841 542.466C244.791 543.436 237.662 542.046 231.482 538.476C208.081 524.966 202.421 488.456 213.381 465.576C216.024 460.067 219.928 455.149 224.687 451.33C224.312 450.613 224.164 449.773 224.405 448.87C224.828 447.289 225.293 445.727 225.781 444.171C225.248 443.934 224.858 443.444 224.932 442.716C225.372 438.216 225.801 433.716 226.232 429.216C226.081 422.416 225.751 415.626 225.831 408.786C225.952 397.886 226.612 386.996 226.652 376.096C226.782 338.076 228.331 300.096 228.442 262.076C228.501 243.485 228.541 224.866 228.051 206.286C228.041 206.036 228.041 205.796 228.032 205.546C227.631 190.676 223.692 170.776 238.232 161.155C240.622 159.576 243.602 159.556 246.202 160.576C253.682 155.366 263.062 152.855 272.032 151.405C289.122 148.646 306.362 147.315 323.572 145.565C332.551 144.655 342.001 144.306 351.041 144.506C360.182 144.706 369.442 143.876 378.642 144.016ZM240.032 476.796C243.301 473.686 248.182 474.405 252.192 475.146C257.772 476.176 263.192 478.616 267.892 481.746C272.952 485.116 279.202 489.786 280.202 496.176C281.112 502.046 275.272 508.516 269.262 504.586C263.692 500.936 260.982 494.246 256.192 489.666C253.841 487.426 251.301 485.456 248.612 483.655C247.392 482.836 246.192 481.926 244.862 481.296C244.732 481.235 239.252 479.456 240.312 481.806C240.672 482.586 239.732 483.456 239.062 482.766C237.162 480.836 238.222 478.516 240.032 476.796Z" fill="black"/>
</svg>
