<svg width="900" height="900" viewBox="0 0 900 900" fill="none" xmlns="http://www.w3.org/2000/svg">
<path fill-rule="evenodd" clip-rule="evenodd" d="M425.813 280.691C458.238 280.691 505.699 302.345 509.269 323.176C513.475 347.727 522.817 440.042 517.731 470.25C512.645 500.459 492.813 522.78 448.955 522.78C405.099 522.78 372.364 498.863 364.848 490.651C359.837 485.176 354.296 473.921 348.225 456.885C332.216 454.171 324.176 446.434 324.102 433.673C324.027 420.912 328.048 412.56 336.164 408.616C331.784 355.679 334.197 322.654 343.403 309.543C357.213 289.876 393.387 280.691 425.813 280.691Z" fill="white"/>
<path fill-rule="evenodd" clip-rule="evenodd" d="M416.448 236.009C422.409 236.106 428.417 236.329 434.402 236.82C434.682 236.791 434.968 236.769 435.247 236.74C446.509 235.66 457.753 236.631 469.009 237.106C479.733 237.557 491.057 238.665 500.686 243.798C501.924 244.457 502.973 245.206 503.868 246.041C505.122 246.218 506.319 246.573 507.394 247.171C510.494 246.545 513.955 247.934 514.688 251.531C515.756 256.802 516.161 262.118 515.522 267.463C515.505 267.589 515.493 267.72 515.476 267.857C516.771 272.817 516.684 278.233 515.608 283.124C516.062 289.304 516.321 295.502 516.356 301.689C516.382 305.969 516.572 310.327 516.174 314.595C515.824 318.347 514.279 321.316 511.85 324.165C511.392 324.702 510.618 324.791 509.974 324.661C509.807 324.627 509.662 324.581 509.531 324.527C510.996 327.668 512.154 330.999 513.341 334.181C515.225 339.241 517.053 344.386 518.348 349.628C520.976 360.198 522.706 370.969 523.711 381.814C525.487 401.11 526.155 420.572 526.498 439.943C526.829 458.297 525.213 477.439 514.756 493.132C505.614 506.86 491.692 516.825 476.187 522.205C467.364 525.271 457.593 526.408 448.273 526.687C443.459 526.83 438.634 526.625 433.848 526.128C429.206 525.642 424.403 525.694 421.01 522.176C420.079 521.211 420.091 519.229 421.468 518.601C424.089 517.408 425.864 517.282 428.737 517.676C431.118 518.001 433.506 518.259 435.904 518.424C441.043 518.784 446.218 518.795 451.357 518.401C460.803 517.676 470.465 515.009 479.042 510.966C492.49 504.616 504.044 494.21 510.28 480.557C517.527 464.71 517.058 446.35 516.721 429.321C516.35 410.647 515.659 392.03 514.037 373.419C513.249 364.396 512.033 355.436 510.936 346.453C510.359 341.679 509.6 336.927 508.669 332.211C508.178 329.715 507.539 327.254 507.013 324.776C506.631 324.838 506.242 324.873 505.843 324.889C503.455 324.97 500.846 324.387 499.075 322.691C498.396 323.154 497.533 323.445 496.494 323.496C486.678 323.981 476.707 323.382 466.873 323.377C457.005 323.371 447.131 323.377 437.257 323.405C427.395 323.433 417.504 323.525 407.648 323.262C398.471 323.017 388.985 323.217 379.928 321.538C376.884 332.354 376.992 344.238 383.337 353.9C385.13 356.624 383.674 359.833 381.339 361.535C378.951 363.272 374.66 365.935 370.988 366.208C370.632 367.007 370.266 367.802 369.919 368.595C368.167 372.588 366.588 376.607 365.483 380.835C364.913 383.014 364.423 385.229 364.011 387.458C364.045 387.848 364.079 388.238 364.121 388.627C364.121 388.666 364.127 388.706 364.133 388.752C364.155 388.912 364.184 389.095 364.201 389.198C364.412 390.317 364.617 391.436 364.841 392.55C365.372 395.262 365.782 397.998 366.074 400.744C366.605 405.77 366.554 412.303 361.654 415.278C359.033 416.871 355.892 416.706 353.122 415.637C351.261 414.918 349.679 413.902 347.966 412.903C346.949 412.308 345.886 411.823 344.893 411.206C344.619 411.035 344.357 410.83 344.111 410.613C342.255 411.007 340.444 411.743 339.428 412.246C336.704 413.599 334.311 415.558 332.278 417.808C327.956 422.599 326.659 429.349 327.265 435.614C327.829 441.444 330.12 448.142 334.728 452.021C336.732 453.71 339.234 454.699 341.878 454.67C343.18 454.659 344.379 454.385 345.636 454.054C346.875 453.728 348.405 453.825 349.548 453.368C351.243 452.689 353.334 454.762 352.643 456.463C352.122 457.743 351.826 458.873 351.175 459.873C355.903 467.594 361.083 475.074 366.593 482.253C371.562 488.717 377.41 494.154 382.937 500.076C385.376 502.691 386.393 507.842 381.978 508.961C377.575 510.087 374.286 505.358 371.756 502.486C361.277 490.567 353.357 476.884 349.65 461.437C347.977 462.625 346.058 463.271 344.036 463.55C340.01 464.104 335.939 463.311 332.41 461.272C319.046 453.557 315.814 432.707 322.073 419.641C323.582 416.495 325.812 413.687 328.529 411.506C328.315 411.096 328.231 410.617 328.368 410.101C328.61 409.198 328.876 408.306 329.154 407.417C328.85 407.282 328.627 407.002 328.669 406.587C328.921 404.017 329.166 401.447 329.412 398.877C329.326 394.994 329.137 391.116 329.183 387.21C329.252 380.986 329.629 374.767 329.652 368.542C329.726 346.83 330.61 325.141 330.674 303.429C330.707 292.812 330.73 282.18 330.451 271.569C330.445 271.427 330.445 271.29 330.44 271.147C330.211 262.655 327.961 251.291 336.265 245.797C337.629 244.895 339.331 244.884 340.816 245.466C345.088 242.491 350.444 241.057 355.567 240.229C365.326 238.653 375.171 237.893 384.999 236.894C390.127 236.374 395.523 236.175 400.686 236.289C405.906 236.403 411.194 235.929 416.448 236.009ZM337.292 426.048C339.159 424.272 341.947 424.683 344.237 425.106C347.423 425.694 350.518 427.088 353.202 428.875C356.092 430.8 359.661 433.467 360.232 437.116C360.752 440.468 357.417 444.163 353.985 441.918C350.804 439.834 349.256 436.014 346.521 433.398C345.178 432.119 343.728 430.994 342.192 429.965C341.496 429.498 340.81 428.978 340.051 428.618C339.976 428.583 336.847 427.568 337.452 428.91C337.658 429.355 337.121 429.852 336.739 429.458C335.653 428.356 336.259 427.031 337.292 426.048Z" fill="black"/>
</svg>
