<svg width="788" height="788" viewBox="0 0 788 788" fill="none" xmlns="http://www.w3.org/2000/svg">
<path fill-rule="evenodd" clip-rule="evenodd" d="M508.602 249.164C393.512 244.964 283.54 322.313 246.513 431.642C243.822 440.218 252.195 448.229 260.643 446.779C252.003 490.285 270.886 548.845 320.075 555.017C330.15 556.288 340.278 555.556 350.367 556.481C359.36 557.305 408.315 584.845 426.648 591.297C465.243 604.779 562.364 602.31 600.999 591.297C602.406 594.497 632.411 471.451 639.243 433.301C641.735 416.771 618.967 404.534 620.646 387.5C622.803 365.621 648.395 338.944 640.555 318.114C619.887 265.098 559.906 250.305 508.602 249.164Z" fill="white"/>
<path fill-rule="evenodd" clip-rule="evenodd" d="M451.445 152.788C456.615 153.218 461.815 153.948 466.925 154.908C482.455 152.368 498.525 155.188 513.585 160.078C548.855 171.528 582.805 191.408 609.385 217.358C623.065 230.718 634.255 246.108 641.145 264.008C644.645 273.088 646.615 282.778 647.185 292.488L647.248 293.665C647.408 296.886 647.481 300.749 647.096 304.576C648.327 312.301 649.424 320.089 649.507 327.902C649.546 331.521 649.311 335.134 648.871 338.723L649.022 339.064C648.384 343.349 647.622 347.616 646.754 351.861L646.537 352.142C646.418 353.005 646.281 353.866 646.152 354.727C645.68 356.909 645.187 359.086 644.664 361.255C643.532 365.952 642.279 370.618 640.929 375.256C640.693 376.069 640.92 376.71 641.363 377.131C640.379 380.661 639.304 384.165 638.112 387.631C638.697 390.664 639.288 393.696 639.915 396.718C643.185 412.438 645.955 428.258 649.675 443.888C657.215 475.608 668.675 506.818 671.825 539.428C674.275 564.718 670.205 592.368 654.485 613.028C640.935 630.828 620.555 641.338 598.545 644.138C588.015 645.488 577.215 644.868 566.915 642.208L565.792 641.912C560.633 640.523 554.069 638.349 549.275 634.848C544.075 633.018 539.165 629.638 536.205 626.338C532.165 621.828 527.755 614.118 528.855 607.708C522.845 608.198 516.795 608.338 510.845 608.318C496.185 608.288 481.395 607.128 467.295 602.868C454.715 599.068 440.055 592.718 432.615 581.258C432.265 580.718 432.845 579.938 433.455 580.148C439.465 582.258 445.085 585.108 451.285 586.718C457.385 588.298 463.485 589.788 469.775 590.438C482.072 591.705 494.554 591.535 506.893 590.926L511.129 590.706C524.331 589.999 537.977 588.991 550.325 584.048C555.17 582.11 559.654 579.405 563.742 576.19L564.385 575.678C566.575 573.898 568.835 572.398 571.135 570.978C571.465 570.558 571.795 570.138 572.125 569.708C577.355 562.998 582.975 556.528 587.685 549.438C597.045 535.368 600.655 520.748 601.145 503.968C601.658 486.256 601.717 468.52 601.928 450.803L602.005 444.898C602.275 424.638 602.315 404.308 603.875 384.098C604.593 374.709 605.617 365.363 607.189 356.085L607.535 354.098L610.075 339.788C610.686 336.341 611.043 332.789 611.824 329.357C610.946 327.917 609.931 326.531 608.754 325.211C607.669 323.994 606.567 322.813 605.467 321.64L604.674 320.94C602.862 319.323 601.305 317.78 599.846 315.555L599.494 315.005C597.927 313.114 596.449 311.136 595.143 308.963L594.902 308.541C594.576 308.132 594.252 307.722 593.915 307.318C592.868 306.059 591.77 304.87 590.635 303.731C586.654 311.421 581.023 318.082 573.051 322.246C570.168 323.752 566.651 322.462 565.706 319.258C563.321 311.17 559.699 303.649 554.906 296.838C546.903 310.156 534.213 320.573 519.258 325.656C515.521 326.926 512.23 323.006 513.108 319.505C515.806 308.744 516.343 297.801 514.758 286.983C509.113 291.017 503.291 294.816 497.313 298.338C484.01 308.621 469.915 317.875 454.411 324.52C450.829 326.056 445.438 323.475 447.066 318.874C448.436 315 449.563 311.061 450.284 307.016L450.444 306.081C450.449 306.053 450.451 306.025 450.455 305.996C414.548 355.528 327.474 403.259 320.79 403.719L320.609 403.72C324.783 407.707 328.152 412.633 330.356 418.294C332.67 424.24 323.232 426.829 320.791 421.144L320.713 420.953C316.958 411.307 307.67 404.393 297.565 402.758C291.457 403.867 285.684 406.812 281.745 411.278C273.995 420.068 273.925 430.668 279.215 440.668L279.991 442.125C282.855 447.467 285.871 452.821 287.485 458.688C289.455 465.888 287.965 473.188 289.255 480.378L289.325 480.759C289.936 483.956 291.257 487.593 295.065 486.718C295.359 486.65 295.643 486.559 295.926 486.462C296.729 487.102 297.695 487.631 298.899 487.982C301.847 488.841 305.104 488.424 308.038 487.73C310.872 487.06 313.624 486.009 316.273 484.779C316.566 485.503 316.747 486.26 316.765 486.988C316.855 490.708 315.315 493.768 312.945 496.258C316.725 501.038 319.955 506.298 323.595 511.178C328.825 518.178 334.175 525.028 339.865 531.658C345.785 538.568 352.235 545.098 358.925 551.268C363.615 555.588 371.365 560.208 374.305 566.478C377.685 567.528 380.555 570.118 381.605 574.378C383.515 582.098 384.075 600.188 382.575 608.038C381.085 615.818 375.405 620.668 369.125 624.768C367.385 625.908 365.415 625.788 363.815 624.938C362.405 626.308 360.815 627.568 358.995 628.688C352.275 632.838 344.465 634.348 336.725 635.218C326.275 638.558 315.005 639.438 303.865 637.358C300.225 637.788 296.585 638.178 292.935 638.498C255.595 641.748 217.635 638.978 181.215 630.088C164.505 626.008 148.726 618.593 134.025 609.068C108.687 592.651 97.9627 546.571 112.665 502.518L113.829 499.044C120.454 479.365 127.598 459.788 137.175 441.428L138.318 439.244C147.121 422.498 156.804 405.771 169.665 391.798C176.105 384.808 183.585 378.458 192.035 374.018C195.243 372.334 198.988 371.166 202.648 369.841L202.722 368.925L202.802 368.01C203.043 365.076 203.35 362.147 203.746 359.225C205.224 348.297 207.31 337.53 210.273 326.899C213.24 316.254 216.888 305.788 221.277 295.644C228.599 278.72 237.795 262.666 248.41 247.602C249.168 246.046 249.937 244.496 250.725 242.958C259.675 225.468 271.265 208.788 286.215 195.878C303.375 181.058 324.045 171.858 345.615 165.398C367.985 158.708 391.325 154.128 414.635 152.588C426.905 151.778 439.195 151.768 451.445 152.788ZM287.845 433.769C299.075 426.419 314.375 431.458 320.065 443.399C324.175 452.049 310.585 456.919 308.435 448.299C306.295 439.659 297.105 433.469 288.275 434.789C287.665 434.889 287.285 434.129 287.845 433.769Z" fill="black"/>
</svg>
