<svg width="900" height="900" viewBox="0 0 900 900" fill="none" xmlns="http://www.w3.org/2000/svg">
<path fill-rule="evenodd" clip-rule="evenodd" d="M460.912 322.488C395.188 320.089 332.387 364.261 311.242 426.695C309.705 431.592 314.487 436.167 319.311 435.339C314.377 460.184 325.161 493.625 353.251 497.15C359.004 497.876 364.788 497.458 370.549 497.986C375.685 498.457 403.642 514.184 414.111 517.868C436.151 525.567 491.614 524.157 513.677 517.868C514.48 519.696 531.615 449.428 535.517 427.642C536.94 418.202 523.938 411.214 524.897 401.487C526.128 388.992 540.743 373.758 536.266 361.863C524.463 331.587 490.21 323.139 460.912 322.488Z" fill="white"/>
<path fill-rule="evenodd" clip-rule="evenodd" d="M428.272 267.45C431.224 267.696 434.194 268.113 437.112 268.661C445.981 267.21 455.158 268.821 463.758 271.613C483.899 278.152 503.287 289.505 518.466 304.324C526.278 311.953 532.668 320.742 536.603 330.964C538.602 336.149 539.727 341.683 540.052 347.228L540.088 347.9C540.18 349.74 540.221 351.946 540.001 354.131C540.704 358.543 541.331 362.99 541.378 367.452C541.401 369.518 541.266 371.582 541.015 373.631L541.101 373.826C540.737 376.273 540.302 378.71 539.806 381.134L539.682 381.294C539.614 381.787 539.536 382.279 539.462 382.771C539.193 384.017 538.911 385.26 538.613 386.498C537.966 389.181 537.251 391.845 536.48 394.494C536.345 394.958 536.474 395.324 536.727 395.565C536.166 397.581 535.552 399.582 534.871 401.561C535.205 403.293 535.543 405.024 535.901 406.75C537.768 415.727 539.35 424.762 541.474 433.687C545.78 451.802 552.324 469.625 554.123 488.247C555.522 502.689 553.198 518.479 544.221 530.278C536.483 540.442 524.845 546.444 512.276 548.043C506.262 548.814 500.095 548.46 494.213 546.941L493.571 546.772C490.625 545.979 486.877 544.737 484.139 542.738C481.17 541.693 478.366 539.763 476.675 537.878C474.368 535.303 471.85 530.9 472.478 527.239C469.046 527.519 465.591 527.599 462.193 527.588C453.821 527.571 445.375 526.908 437.323 524.475C430.139 522.305 421.767 518.679 417.519 512.135C417.319 511.826 417.65 511.381 417.998 511.501C421.43 512.706 424.64 514.333 428.18 515.253C431.664 516.155 435.147 517.006 438.739 517.377C445.762 518.101 452.89 518.004 459.936 517.656L462.355 517.53C469.894 517.126 477.687 516.551 484.739 513.728C487.506 512.621 490.066 511.077 492.401 509.241L492.768 508.948C494.019 507.932 495.309 507.075 496.623 506.264C496.811 506.024 497 505.784 497.188 505.539C500.175 501.707 503.384 498.012 506.074 493.963C511.419 485.929 513.481 477.58 513.76 467.997C514.053 457.882 514.087 447.754 514.207 437.636L514.251 434.264C514.406 422.694 514.428 411.085 515.319 399.543C515.729 394.182 516.314 388.844 517.212 383.546L517.409 382.411L518.86 374.239C519.209 372.271 519.413 370.243 519.859 368.283C519.357 367.46 518.778 366.669 518.106 365.915C517.486 365.22 516.857 364.546 516.228 363.876L515.776 363.476C514.741 362.553 513.852 361.671 513.019 360.401L512.818 360.087C511.923 359.007 511.079 357.877 510.333 356.636L510.195 356.395C510.009 356.162 509.824 355.928 509.632 355.697C509.034 354.978 508.407 354.299 507.758 353.648C505.485 358.04 502.269 361.844 497.717 364.222C496.07 365.082 494.062 364.345 493.522 362.515C492.16 357.897 490.092 353.602 487.355 349.712C482.785 357.318 475.538 363.266 466.997 366.169C464.863 366.894 462.984 364.656 463.485 362.656C465.026 356.511 465.333 350.262 464.428 344.084C461.204 346.388 457.879 348.557 454.465 350.569C446.869 356.441 438.819 361.726 429.966 365.52C427.92 366.398 424.841 364.924 425.771 362.296C426.553 360.084 427.197 357.834 427.609 355.524L427.7 354.99C427.703 354.974 427.704 354.959 427.706 354.942C407.201 383.228 357.476 410.486 353.659 410.748L353.556 410.749C355.939 413.026 357.863 415.839 359.122 419.072C360.443 422.467 355.054 423.946 353.66 420.699L353.615 420.59C351.471 415.081 346.167 411.133 340.396 410.199C336.908 410.833 333.611 412.515 331.362 415.065C326.936 420.085 326.896 426.138 329.917 431.849L330.36 432.681C331.996 435.731 333.718 438.789 334.64 442.139C335.765 446.251 334.914 450.42 335.651 454.526L335.691 454.743C336.039 456.569 336.794 458.646 338.968 458.146C339.136 458.107 339.299 458.055 339.46 458C339.919 458.365 340.47 458.668 341.158 458.868C342.841 459.359 344.701 459.12 346.377 458.724C347.995 458.341 349.567 457.741 351.08 457.039C351.247 457.452 351.35 457.885 351.361 458.3C351.412 460.425 350.533 462.172 349.179 463.594C351.338 466.324 353.182 469.328 355.261 472.114C358.248 476.112 361.303 480.024 364.552 483.81C367.933 487.756 371.616 491.485 375.437 495.008C378.115 497.475 382.541 500.114 384.22 503.694C386.15 504.294 387.789 505.773 388.389 508.206C389.479 512.614 389.799 522.945 388.942 527.428C388.092 531.871 384.848 534.64 381.262 536.982C380.268 537.633 379.143 537.564 378.229 537.079C377.424 537.861 376.516 538.581 375.477 539.22C371.639 541.59 367.179 542.453 362.759 542.949C356.791 544.857 350.356 545.359 343.994 544.172C341.915 544.417 339.836 544.64 337.752 544.823C316.428 546.679 294.751 545.097 273.953 540.02C264.41 537.69 255.399 533.455 247.004 528.016C232.534 518.641 226.41 492.326 234.806 467.169L235.471 465.185C239.254 453.947 243.334 442.767 248.803 432.283L249.456 431.035C254.483 421.472 260.012 411.92 267.357 403.941C271.034 399.949 275.306 396.323 280.132 393.787C281.964 392.825 284.102 392.158 286.192 391.402L286.235 390.879L286.28 390.356C286.418 388.681 286.593 387.008 286.819 385.339C287.663 379.099 288.855 372.95 290.547 366.879C292.241 360.8 294.324 354.823 296.831 349.03C301.012 339.366 306.264 330.198 312.325 321.595C312.758 320.707 313.197 319.821 313.647 318.943C318.758 308.955 325.377 299.43 333.915 292.057C343.714 283.594 355.518 278.34 367.836 274.651C380.611 270.831 393.939 268.215 407.251 267.336C414.258 266.873 421.276 266.868 428.272 267.45ZM334.845 427.909C341.258 423.711 349.996 426.589 353.245 433.408C355.592 438.348 347.831 441.129 346.604 436.206C345.382 431.272 340.133 427.737 335.091 428.491C334.743 428.548 334.526 428.114 334.845 427.909Z" fill="black"/>
</svg>
