<svg width="284" height="284" viewBox="0 0 284 284" fill="none" xmlns="http://www.w3.org/2000/svg">
<path fill-rule="evenodd" clip-rule="evenodd" d="M167.944 202.352C169.478 199.685 173.01 197.214 176.242 197.593C190.721 199.291 190.696 216.845 185.105 227.093C180.148 236.18 169.889 241.514 159.621 240.735C148.834 239.916 139.643 233.574 135.598 223.483C132.923 216.808 131.687 204.485 138.803 200C138.935 199.916 139.153 199.937 139.258 200.058C142.67 204.027 142.804 209.986 145.791 214.405C148.569 218.515 152.885 221.909 157.941 222.433C161.717 222.825 165.537 221.463 167.014 218.073C167.813 216.239 167.722 215.244 167.422 213.982L167.149 212.885C166.203 209.044 165.779 206.119 167.944 202.352ZM171.815 125.367C179.366 129.957 190.872 140.66 182.749 152.04C173.186 162.073 159.419 150.569 152.635 145.366C146.344 141.334 139.276 151.705 145.113 156.413C194.136 192.708 214.031 126.567 175.634 119.97C171.407 119.244 169.836 123.947 171.815 125.367ZM92.072 93.8927C96.707 86.9387 107.287 87.9627 109.84 96.2147C111.223 100.685 109.313 104.703 109.412 109.167C109.495 112.938 109.248 117.14 108.092 120.792C105.456 129.12 97.966 135.002 89.105 134.758C80.273 134.515 72.494 128.925 68.795 121.052C65.083 113.149 65.869 104.97 68.579 96.9337C68.709 96.5477 69.215 96.3607 69.52 96.6857C72.7234 100.09 75.0684 103.684 77.4948 107.496L79.9815 111.403C81.8818 114.345 84.6436 118.103 88.192 117.867L88.7244 117.815C89.7105 117.73 89.5594 117.926 90.32 116.582C90.672 115.96 90.608 114.804 90.778 114.07L90.837 113.822L90.8049 113.688C90.7298 113.333 90.6553 112.663 90.5948 111.5L90.582 111.244C90.325 105.807 88.788 98.8197 92.072 93.8927ZM209.564 98.5222C208.733 89.6282 221.237 87.6532 225.394 94.2342C227.562 97.6661 228.193 101.977 228.673 106.062L228.897 108C229.389 112.195 229.584 116.559 227.763 120.472C224.895 126.635 218.658 129.893 211.93 129.377C205.505 128.883 199.643 125.158 196.553 119.503C193.798 114.457 191.059 104.605 194.405 99.3422C194.607 99.0232 195.011 98.9822 195.288 99.2282C198.45 102.035 198.965 107.155 200.845 110.812C202.784 114.584 205.725 118.26 210.182 118.833C214.446 119.381 216.075 117.052 214.987 112.987C213.584 107.739 210.092 104.169 209.564 98.5222ZM95.4494 41.016L97.4942 40.2328C104.5 37.5862 114.119 34.527 119.815 40.224C123.329 43.737 123.998 48.912 121.49 53.199C118.451 58.392 113 58.52 107.736 59.285C101.749 60.155 95.6604 61.809 90.0864 64.167C83.8074 66.824 77.9804 70.136 72.2714 73.835C66.8454 77.35 61.4384 83.095 54.9434 84.178C54.6784 84.222 54.3774 84.108 54.3084 83.817C52.8334 77.467 56.9324 71.218 60.5904 66.264C65.0164 60.266 70.3794 55.343 76.3734 50.929C82.1584 46.668 88.7684 43.589 95.4494 41.016ZM222.717 63.5926L223.341 63.4832C227.59 62.7759 231.44 62.9388 234.642 66.3036C237.086 68.8706 238.028 72.1976 236.863 75.5916C235.788 78.7226 233.384 81.9036 229.895 82.5596C218.116 84.7756 205.069 84.4096 193.231 82.7316C187.815 81.9635 182.35 81.0237 177.074 79.5416L174.647 78.838C170.243 77.58 165.201 76.2657 162.002 73.0266C160.852 71.8626 161.515 70.1966 162.891 69.6576C168.473 67.4716 176.124 68.6346 182.076 68.4636C189 68.2656 195.935 67.7466 202.826 67.0316C209.56 66.3316 216.076 64.8106 222.717 63.5926Z" fill="black"/>
</svg>
