<svg width="900" height="900" viewBox="0 0 900 900" fill="none" xmlns="http://www.w3.org/2000/svg">
<path fill-rule="evenodd" clip-rule="evenodd" d="M475.622 470.483L475.967 470.403C478.73 469.751 481.388 468.866 483.961 470.577C486.412 472.208 486.753 475.224 484.843 477.424C482.879 479.686 480.272 479.559 477.519 479.59L477.347 479.592C475.062 479.624 472.738 479.59 470.462 479.387C468.339 479.198 466.203 478.896 464.105 478.5L462.865 478.257C461.597 478 460.349 477.667 459.696 476.44C458.557 474.301 467.023 472.623 468.051 472.33C470.547 471.617 473.09 471.056 475.622 470.483ZM480.317 444.698C478.967 446.097 477.185 447.053 475.184 447.648C470.154 449.143 463.737 448.347 459.63 446.823C458.778 446.507 457.981 445.863 457.524 445.057C457.106 444.321 456.964 443.456 457.282 442.573C457.373 442.322 457.483 442.076 457.594 441.834C457.895 441.174 458.509 440.661 459.231 440.367C459.98 440.063 460.832 440.001 461.515 440.215C461.607 440.244 461.701 440.274 461.797 440.304C464.4 441.125 468.668 442.483 472.205 442.22C474.327 442.062 476.193 441.312 477.158 439.37C477.667 438.346 477.526 437.334 477.075 436.407C476.395 435.009 475.032 433.792 473.884 432.954C472.265 431.772 470.539 431.3 468.754 430.802C468.081 430.615 467.4 430.424 466.712 430.197C466.485 430.122 466.287 429.975 466.138 429.784C465.991 429.595 465.895 429.365 465.864 429.133C465.833 428.894 465.872 428.655 465.983 428.449C466.086 428.258 466.25 428.091 466.496 427.981C469.989 426.416 474.507 427.45 477.917 429.912C479.621 431.142 481.043 432.723 481.919 434.489C482.732 436.128 483.077 437.927 482.759 439.761C482.402 441.814 481.533 443.436 480.317 444.698ZM423.068 409.777C424.049 409.345 424.856 411.369 425.058 411.921L425.476 413.067C426.157 414.913 426.939 416.79 428.372 418.161C429.572 419.308 431.494 420.281 432.885 418.938C434.205 417.665 433.562 416.23 433.756 414.668C434.107 411.842 437.961 409.017 440.278 411.966C445.512 418.629 437.414 427.896 429.955 426.27C426.162 425.443 423.108 422.402 421.853 418.784L421.789 418.593C421.038 416.302 420.278 411.008 423.068 409.777ZM490.61 414.418L490.573 414.333C488.08 408.663 496.973 406.226 497.727 411.317L497.775 411.661C498.509 417.313 496.963 424.914 490.04 425.478C482.269 426.111 479.033 417.44 479.727 411.077C479.852 409.938 481.234 409.781 481.661 410.816L481.752 411.042C483.006 414.239 484.198 420.389 488.619 420.383C491.573 420.378 491.432 416.391 490.61 414.418ZM496.248 398.003C500.715 397.844 500.709 404.835 496.248 404.94C481.347 405.291 466.434 405.757 451.529 405.837L448.82 405.853C434.819 405.947 420.77 406.138 406.81 404.963C405.618 404.863 405.84 403.19 406.835 403.258C421.471 401.175 436.285 400.566 451.032 399.774C466.09 398.966 481.178 398.538 496.248 398.003Z" fill="black"/>
</svg>
