<svg width="900" height="900" viewBox="0 0 900 900" fill="none" xmlns="http://www.w3.org/2000/svg">
<path fill-rule="evenodd" clip-rule="evenodd" d="M536.467 480.634C534.203 477.287 528.752 452.993 525.271 449.257C525.533 434.906 529.501 385.219 518.169 362.884C520.553 360.473 526.887 339.712 525.271 331.864C530.609 315.428 496.315 289.323 483.263 282.268C422.604 249.741 334.704 285.645 307.118 345.901C290.54 382.19 290.235 422.819 288.361 461.866C288.139 470.224 287.371 478.647 287.379 486.995C288.578 494.33 294.394 501.8 289.985 507.9C285.115 511.268 275.271 519.476 279.653 524.13C282.222 526.269 286.325 525.028 289.113 527.084C290.532 527.878 291.417 529.618 293.076 529.882C308.236 529.307 318.933 529.258 334.139 528.643C340.796 528.425 350.933 531.241 358.574 525.635C385.265 540.481 374.1 518.943 379.498 503.609C395.933 509.166 428.672 526.887 446.191 527.459C460.427 529.218 473.739 520.927 487.735 522.815C505.122 529.274 525.499 530.71 541.425 519.781C545.4 516.919 549.821 520.235 554.831 517.144C564.567 512.488 541.38 485.8 536.467 480.634Z" fill="white"/>
<path fill-rule="evenodd" clip-rule="evenodd" d="M516.597 360.978C516.381 359.739 518.089 358.814 518.749 360.07C523.549 369.197 525.472 379.766 527.172 389.846C528.889 400.033 530.024 410.262 530.087 420.603C530.135 428.557 529.412 436.603 528.056 444.564L528.221 445.13C528.525 446.17 528.833 447.21 529.144 448.249L529.612 449.807C530.518 452.798 531.376 455.803 532.306 458.787C534.248 465.015 536.293 471.26 538.798 477.286C541.242 483.167 544.214 488.838 547.748 494.139C551.153 499.249 556.557 503.569 558.956 509.245C559.792 511.222 558.556 513.837 556.246 513.521C556.096 513.702 555.867 513.833 555.556 513.861C553.763 514.017 552.083 513.868 550.293 513.7C549.295 513.607 549.296 512.241 550.293 512.147C551.053 512.076 551.794 512.013 552.533 511.97C547.416 508.939 543.766 503.018 540.847 498.172C537.097 491.945 534.264 485.141 531.954 478.261C529.583 471.197 527.903 463.985 526.554 456.663C526.399 455.82 526.252 454.977 526.11 454.132C524.405 461.381 522.209 468.497 519.607 475.336L519.242 476.288C513.243 491.84 505.118 507.542 491.603 517.821C490.99 518.287 490.363 518.73 489.732 519.162L490.5 519.603C491.266 520.04 492.02 520.459 492.757 520.803C495.488 522.077 498.452 523.049 501.384 523.737C507.441 525.159 513.802 524.751 519.981 524.95C522.007 525.015 523.16 528.053 521.088 529.04C514.264 532.29 506.892 531.6 499.848 529.314C496.362 528.181 493.091 526.597 490.065 524.528C488.814 523.673 487.361 522.617 486.134 521.398C472.619 528.96 455.82 529.806 440.777 527.101C432.96 525.695 425.385 523.128 418.72 518.738C412.309 514.515 407.739 509.169 404.477 502.242C404.187 501.628 404.992 500.864 405.486 501.464C415.734 513.91 433.369 519.104 448.884 520.092C457.162 520.619 465.631 520.181 473.59 517.704C481.14 515.353 487.618 511.045 493.027 505.316C503.991 493.702 510.56 477.903 515.278 462.867C520.411 446.51 522.855 429.301 523.36 412.182C523.615 403.51 523.293 394.764 521.931 386.187C520.58 377.681 518.073 369.448 516.597 360.978ZM362.951 287.294C363.676 286.925 364.188 287.885 363.572 288.357C350.793 298.157 339.349 310.583 330.086 323.736C313.004 347.993 302.049 376.063 297.004 405.231C294.025 422.456 293.247 439.942 293.545 457.397C293.663 464.33 294.059 471.243 294.499 478.157L294.997 485.822C295.228 489.393 295.42 492.933 295.271 496.522L295.231 497.351C294.994 501.527 295.405 505.736 294.358 509.81C293.82 511.898 290.874 512.227 289.807 510.404C289.598 510.047 289.403 509.679 289.213 509.307C286.713 513.384 283.475 517.029 279.883 520.286C281.6 519.92 283.334 519.687 285.114 519.9C287.935 520.238 290.466 521.328 292.257 523.238C294.035 522.436 295.863 521.885 297.965 521.873C299.513 521.865 300.674 523.696 299.791 525.055C298.028 527.769 295.569 529.29 292.775 530.794C290.795 531.859 288.432 530.948 287.701 528.841L287.658 528.713C286.835 526.047 282.459 526.478 280.394 526.89L279.786 527.014C275.942 527.814 272.189 528.837 268.273 527.782C265.747 527.101 265.087 523.299 267.522 522.037C275.214 518.051 281.672 512.696 288.308 507.32C286.843 503.728 286.011 499.714 285.051 496.061C283.701 490.919 283.306 485.386 282.819 480.104C281.892 470.062 281.538 459.911 281.638 449.829C281.974 415.778 287.798 381.621 302.673 350.786C309.19 337.278 317.752 324.78 327.872 313.716C337.932 302.718 349.681 294.033 362.951 287.294ZM351.041 454.053C350.646 453.506 351.417 452.782 351.957 453.137C363.653 460.819 371.77 472.485 377.007 485.3C382.191 497.988 385.374 513.528 380.261 526.759C379.448 528.866 375.55 529.648 375.151 526.759C373.369 513.855 373.092 500.933 369.172 488.388C365.287 475.952 358.638 464.563 351.041 454.053ZM341.973 495.944C342.036 495.716 342.409 495.756 342.393 496.001C342.1 500.551 341.901 505.157 341.329 509.682C341.051 511.881 340.683 514.066 340.37 516.26C340.049 518.51 340.098 520.782 338.789 522.704C337.056 525.251 332.449 524.534 332.604 521.029C332.711 518.61 333.822 517.058 334.863 514.935C335.531 513.575 336.113 512.168 336.674 510.755L337.508 508.635C339.165 504.431 340.751 500.298 341.973 495.944ZM321.029 483.891C321.099 483.532 321.677 483.619 321.66 483.976C321.347 490.416 320.621 496.784 319.483 503.13C318.965 506.023 318.36 508.899 317.72 511.768L317.444 512.997C316.76 516.018 316.318 519.569 314.786 522.268C313.254 524.965 309.618 523.006 310.089 520.287C310.639 517.113 312.587 513.921 313.72 510.872C314.765 508.058 315.678 505.194 316.532 502.317C318.329 496.259 319.803 490.088 321.029 483.891ZM360.03 501.771L360.167 501.631C360.699 501.052 361.493 501.438 361.747 502.048C362.787 504.55 362.266 507.5 362.192 510.156L362.179 510.736C362.123 513.426 362.161 515.946 360.942 518.43C359.46 521.446 355.557 519.572 355.255 516.89C354.925 513.962 356.31 511.096 357.204 508.353C357.772 506.61 358.186 504.798 359.05 503.216C358.311 503.343 357.573 503.599 356.898 503.783C356.595 503.865 356.481 503.42 356.77 503.318C357.887 502.922 359.148 502.625 360.03 501.771ZM515.736 510.649C515.38 510.25 515.824 509.718 516.288 509.934C521.85 512.532 527.052 514.222 533.189 514.775C535.849 515.015 535.865 519.193 533.189 518.951C526.784 518.374 520.071 515.502 515.736 510.649ZM320.046 422.88C324.943 411.865 340.435 402.093 350.823 412.337C351.018 412.528 350.82 412.946 350.537 412.829C344.076 410.151 336.165 413.557 331.693 418.428C328.145 422.292 326.013 427.253 325.59 432.483C325.167 437.716 326.418 443.179 329.894 447.228C331.718 449.351 334.18 451.361 337.078 451.617C340.003 451.874 342.442 449.814 345.208 449.254C347.293 448.833 348.866 450.141 349.071 452.196C349.521 456.732 345.005 459.777 341.091 460.516C336.88 461.311 332.582 460.443 328.953 458.161C317.234 450.79 314.706 434.895 320.046 422.88ZM430.002 314.913C432.132 312.877 435.754 314.901 434.968 317.804C433.297 323.983 429.746 329.205 425.811 334.162C422.026 338.931 417.97 343.514 413.623 347.779C409.305 352.017 404.613 355.938 399.682 359.44L398.196 360.492C394.702 362.955 391 365.447 387.088 367.221C386.143 375.359 384.295 383.388 381.499 391.075C378.807 398.477 375.38 405.631 371.229 412.326L370.633 413.285C366.818 419.399 362.23 426.232 355.756 429.583C355.562 429.684 355.367 429.746 355.176 429.782C356.624 430.748 357.848 431.962 358.575 433.708C359.372 435.618 357.706 437.421 356.109 438.052C352.731 439.387 349.436 437.128 346.399 434.718C346.271 435.007 346.15 435.299 346.046 435.593C345.367 437.517 345.167 439.484 343.416 440.761C342.584 441.368 341.559 440.825 341.035 440.137C339.319 437.881 341.096 434.809 342.605 432.965C342.814 432.71 343.03 432.468 343.252 432.236C342.614 431.767 341.992 431.351 341.389 431.032C337.843 429.154 332.587 428.822 330.545 432.978C330.389 433.298 329.897 433.132 329.897 432.802C329.902 427.697 335.133 424.923 339.672 424.547C342.988 424.271 346.196 425.435 349.18 426.789L349.737 427.044C350.848 427.56 351.992 428.047 353.088 428.591C352.91 428.121 352.912 427.568 353.193 427.02C356.625 420.316 362.52 414.865 366.771 408.656C370.987 402.497 374.606 395.905 377.495 389.022C380.299 382.341 382.496 375.45 384.032 368.422C383.526 368.527 382.956 368.076 382.992 367.548C383.077 366.27 383.703 365.119 384.801 364.628C386.01 358.017 386.628 351.295 386.592 344.518C386.589 343.993 387.35 344.011 387.395 344.518C387.929 350.543 387.972 356.627 387.523 362.676C390.379 360.048 393.392 357.55 396.142 354.852C400.281 350.793 404.284 346.625 408.146 342.303C412.087 337.893 415.811 333.321 419.217 328.484L420.999 325.947C423.74 322.058 426.555 318.209 430.002 314.913ZM424.629 271.497C448.132 270.03 473.233 272.918 494.344 283.951C505.938 290.009 514.9 299.166 521.303 310.562C525.127 317.367 528.027 324.902 529.126 332.649C530.254 340.609 528.929 347.707 523.847 354.034C521.828 356.547 518.428 353.74 518.925 351.169C521.968 335.44 517.033 319.899 508.28 306.877C495.579 287.98 473.398 279.586 451.802 275.842C441.192 274.003 430.43 273.234 419.665 273.608C411.459 273.894 403.04 274.658 395.252 277.419C394.923 277.536 394.793 277.024 395.109 276.904C404.399 273.356 414.77 272.112 424.629 271.497ZM459.486 307.065C460.696 306.298 462.176 307.085 462.592 308.329C464.058 312.716 460.985 318.512 458.929 322.308C456.603 326.604 453.611 330.621 450.521 334.394C444.341 341.94 436.217 348.237 427.303 352.194C426.757 352.437 426.121 351.778 426.622 351.312C433.519 344.889 439.773 338.003 445.186 330.278C447.846 326.482 450.065 322.478 452.184 318.365C454.08 314.684 455.862 309.361 459.486 307.065ZM499.013 312.233C499.787 309.533 504.191 309.992 504.008 312.909C503.537 320.443 499.983 328.006 496.121 334.391C492.144 340.965 487.108 346.824 481.335 351.885C481.05 352.134 480.661 351.75 480.919 351.468C485.899 346.016 489.923 339.805 492.902 333.046C495.878 326.296 497.001 319.254 499.013 312.233ZM477.125 311.013C477.967 308.665 481.999 308.839 481.752 311.639C481.072 319.336 476.555 327.402 472.371 333.76C467.932 340.504 462.265 346.446 455.932 351.437C455.695 351.624 455.36 351.314 455.591 351.096C461.28 345.737 465.893 339.546 469.545 332.64C471.409 329.117 472.972 325.448 474.207 321.658C475.349 318.151 475.885 314.469 477.125 311.013Z" fill="black"/>
</svg>
