<svg width="788" height="788" viewBox="0 0 788 788" fill="none" xmlns="http://www.w3.org/2000/svg">
<path fill-rule="evenodd" clip-rule="evenodd" d="M581.519 469.944C574.655 386.269 553.755 312.159 455.55 308.999C411.232 309.395 365.993 318.81 325.239 336.23C226.183 385.896 194.754 567.377 282.025 640.431C281.506 640.726 281.381 641.579 281.994 641.991C300.024 654.121 320.065 664.101 340.137 672.487C393.603 695.091 456.544 704.909 511.071 680.39C594.284 644.982 595.532 546.457 581.519 469.944Z" fill="white"/>
<path fill-rule="evenodd" clip-rule="evenodd" d="M745.311 430.943C748.731 427.863 751.281 423.823 752.571 419.293C753.751 415.163 753.831 410.653 752.581 406.533C751.241 402.113 748.351 398.593 749.001 393.993C749.071 393.543 749.161 393.073 749.301 392.603C751.801 383.943 757.951 377.693 755.751 368.093C755.131 365.383 753.961 362.943 752.331 361.023C752.511 358.943 752.671 356.843 752.801 354.743C756.411 346.293 756.281 336.253 752.431 327.933C751.961 323.673 751.251 319.453 750.251 315.303C750.711 311.633 750.071 307.593 748.891 304.383C746.818 298.735 744.256 293.169 741.476 287.695C741.803 286.198 741.656 284.616 740.83 283.209C739.328 280.652 737.343 278.404 735.314 276.207C733.879 273.644 732.434 271.102 731.001 268.593C730.337 267.44 729.604 266.161 728.796 264.806C730.998 260.72 732.174 256.738 729.845 251.933C728.97 250.128 726.564 248.797 724.583 248.915C722.418 249.044 720.233 249.141 718.036 249.224C713.93 244.266 709.277 239.815 704.291 237.253C699.241 232.973 694.121 228.773 689.141 224.483C687.731 223.263 686.311 222.043 684.901 220.823C684.891 220.793 684.881 220.753 684.871 220.723C683.831 216.933 682.661 213.193 681.491 209.433C680.761 207.103 680.541 204.663 678.271 203.393C673.531 200.743 666.241 200.323 660.801 199.873C660.261 199.393 659.721 198.923 659.181 198.443C661.651 191.863 661.211 184.873 658.101 178.283C657.041 176.043 653.361 175.033 651.341 176.513C646.681 179.933 641.151 181.143 635.681 180.643C627.641 174.463 595.211 146.517 590.2 143.567C590.138 143.461 590.088 143.355 590.022 143.25C587.205 138.752 583.784 135.14 579.938 132.244C579.389 131.671 578.84 131.097 578.291 130.523C578.774 127.094 580.045 123.783 582.091 121.013C582.311 120.693 582.561 120.383 582.811 120.083C586.391 115.823 582.021 110.343 577.021 112.573C576.661 112.733 576.301 112.893 575.941 113.063C572.097 114.777 567.844 116.64 563.415 118.212C561.794 117.605 560.142 117.055 558.635 116.449L542.499 109.962C539.843 108.894 537.035 107.989 534.466 106.734C533.57 100.775 527.598 96.8674 521.396 97.0714C521.754 95.9274 522.288 94.8164 523.041 93.7634C523.261 93.4534 523.501 93.1534 523.751 92.8634C526.941 89.1534 522.681 82.2734 518.121 85.5734C517.801 85.8034 517.471 86.0334 517.151 86.2634C515.884 87.1524 514.587 87.9864 513.276 88.7944C511.177 87.8784 508.813 87.6694 506.339 88.6384C500.861 90.7834 495.811 92.9644 490.988 96.3264C490.792 96.4634 490.589 96.5784 490.391 96.7074C487.997 93.8154 484.196 91.8814 480.773 91.9024C480.703 91.9024 480.649 91.9014 480.587 91.9004C478.028 88.0014 473.337 85.7354 468.807 86.2864C469.113 80.6914 463.512 75.6984 458.413 75.0914C452.455 74.3834 447.085 77.8424 445.297 83.6544C444.799 85.2724 444.302 86.8914 443.804 88.5104C439.178 86.1754 434.296 84.3864 429.196 83.4934C417.583 81.4594 406.228 83.6254 395.037 86.8494C393.919 87.1714 392.802 87.5024 391.685 87.8324C390.089 85.9834 388.592 84.0904 387.161 82.3234C384.691 79.2734 378.761 81.7134 379.161 85.6334C379.439 88.3384 378.34 90.2844 376.571 91.6674C374.628 91.9514 372.75 92.0374 369.918 91.9804C366.175 91.9044 364.472 91.7874 360.558 90.2614C358.734 89.5514 356.463 87.6844 355.4 86.0084C351.325 79.5814 340.974 77.8504 336.044 83.9784C330.856 81.7074 324.306 84.8394 321.426 89.2554C319.919 91.5644 316.775 92.8554 312.817 93.9654C309.846 94.7974 306.808 95.4274 303.756 95.9784C302.396 94.1334 299.532 92.8964 297.431 94.4434C296.008 95.4944 294.626 96.5734 293.263 97.6794C282.753 99.1274 272.298 99.1794 262.277 95.0814C253.793 91.6114 246.003 101.088 247.403 109.044C244.946 110.323 242.28 111.174 239.853 112.514C234.558 115.44 230.21 120.065 227.56 125.499C227.085 126.472 226.656 127.46 226.247 128.453C224.268 130.064 222.311 131.718 220.401 133.463C217.221 131.833 214.051 130.203 210.871 128.573C208.491 127.353 204.481 128.203 204.011 131.363C203.241 136.563 201.371 140.873 198.701 144.483C190.021 149.043 181.671 154.163 173.681 159.853C164.491 162.733 154.721 164.413 146.691 166.303C143.941 166.953 142.441 170.543 143.991 172.933C145.631 175.463 147.271 177.993 148.901 180.523C144.331 184.983 140.041 189.643 135.991 194.463C124.721 207.863 115.291 222.553 106.851 238.113C103.511 239.463 100.171 240.803 96.8312 242.153C93.6112 243.453 92.1612 247.193 94.7712 249.943C96.0112 251.253 97.1212 252.633 98.0712 254.083C93.3412 261.913 87.7712 269.053 79.9812 273.733C77.6112 275.153 75.8312 277.383 74.8812 279.913C74.0712 280.453 73.2712 281.033 72.4812 281.623C70.2812 283.283 68.9512 286.903 71.5312 289.053C73.3412 290.573 75.0412 292.373 76.4812 294.363C76.7912 295.493 77.1112 296.633 77.4312 297.763C70.1912 304.423 64.1712 312.163 59.6512 320.843C58.5812 320.673 57.4812 320.783 56.5912 321.443C48.5112 327.413 48.2712 336.923 51.5212 345.423C49.5612 358.233 50.8212 371.363 54.6012 383.773C49.6312 388.733 46.6412 395.893 45.4212 402.793C43.2712 414.913 43.1212 433.553 42.5612 445.923C37.1412 451.153 33.2812 457.923 31.1312 465.203C29.3212 466.103 27.5112 467.003 25.7012 467.903C24.0912 468.703 22.9112 470.813 23.0053 472.593C23.4712 481.203 27.0212 488.003 31.7312 494.163C33.4012 498.913 35.8712 503.293 39.1112 507.493C41.3512 510.373 43.5412 513.133 45.4712 516.243C45.6712 516.553 45.7912 516.843 45.8812 517.043C45.1212 517.863 44.4912 519.223 43.9412 520.193C39.3212 528.333 39.2512 537.873 45.8112 544.963C43.3412 546.983 43.2612 551.063 45.4412 553.563C59.6312 569.773 71.4612 589.483 91.1512 598.093C91.2412 598.243 91.3212 598.393 91.3912 598.543C87.4012 608.143 86.8612 613.133 90.1212 623.053C90.1412 623.143 90.1712 623.223 90.2012 623.313C91.9412 628.513 95.1412 636.843 100.911 638.463C102.731 638.973 104.521 639.203 106.291 639.193C110.871 643.603 115.441 648.023 120.011 652.443C120.411 654.633 120.661 656.843 120.741 659.073C120.871 662.803 124.381 665.823 128.161 664.723C129.491 664.333 136.851 657.183 138.201 657.223C138.881 657.903 139.541 658.583 140.201 659.273C142.631 661.823 146.001 665.843 146.281 668.513C146.821 673.543 150.121 679.303 155.451 680.323C157.451 682.353 160.651 682.963 163.101 680.313C163.261 680.143 163.421 679.973 163.591 679.823C163.851 679.793 164.101 679.763 164.361 679.733C165.541 683.253 166.721 686.773 167.911 690.283C170.241 697.203 179.141 701.653 185.461 697.613C186.481 698.223 187.481 698.873 188.481 699.523C190.001 700.493 191.541 701.483 193.121 702.413C193.211 702.673 193.301 702.933 193.381 703.183C194.401 706.293 198.641 707.963 201.251 706.173C202.061 706.433 202.891 706.643 203.731 706.813C208.141 707.683 212.581 707.443 216.841 705.973C219.891 704.933 222.801 702.943 226.081 702.673C226.286 702.656 226.497 702.67 226.705 702.664C229.381 708.146 235.496 712.87 240.315 714.475C246.627 716.578 253.087 715.826 258.835 713.251C260.386 716.352 262.334 719.288 264.661 722.003C265.951 723.503 268.281 723.183 269.611 722.003C272.137 719.764 274.647 717.514 277.153 715.261C278.967 714.562 280.798 713.723 282.708 712.943C288.682 710.503 295.231 709.492 300.756 705.966C303.379 704.292 305.846 702.156 307.878 699.681C311.706 697.471 315.223 694.718 318.391 691.563C319.971 691.573 321.621 691.203 323.221 690.393C329.911 686.993 333.431 680.073 333.741 672.993C339.161 660.243 342.361 646.643 343.241 632.723C343.521 628.153 343.571 623.543 343.221 618.973C342.981 615.753 342.171 613.603 340.951 610.693C340.541 609.743 340.171 608.873 339.881 607.913C339.951 604.833 339.991 601.753 340.031 598.683C340.861 596.093 342.341 593.683 344.401 591.653C347.591 588.513 349.051 581.993 346.151 578.113C344.261 575.603 342.381 573.093 340.491 570.583C341.021 559.813 343.601 542.673 337.881 540.873C338.111 539.273 338.601 537.693 338.881 536.103C340.221 528.463 339.421 521.633 335.361 514.953C334.511 513.563 333.791 512.333 333.201 511.133C332.831 508.933 332.461 506.733 332.091 504.533C331.521 501.143 330.961 497.723 330.481 494.283C330.231 489.903 330.001 485.523 329.751 481.133C329.521 477.093 329.261 473.053 328.991 469.003C329.101 467.193 329.261 465.383 329.491 463.573C330.861 452.783 335.271 448.793 342.911 441.293C344.111 441.103 345.301 440.893 346.471 440.653C351.921 439.523 357.621 437.773 363.231 438.403C369.321 439.083 374.771 441.713 380.691 438.353C382.431 437.353 386.261 434.593 386.591 432.403C386.611 432.263 386.641 432.143 386.681 432.053C387.091 431.993 387.621 431.943 387.951 431.933C392.651 431.773 397.141 433.623 401.881 433.113C407.491 432.513 412.511 430.023 415.811 426.333C420.041 427.373 424.361 427.843 428.751 427.263C432.431 426.783 435.731 425.583 438.991 423.803C441.361 422.523 440.611 422.153 443.191 423.193C449.061 425.573 454.371 428.713 460.981 427.083C464.411 426.243 467.371 424.393 469.861 421.903C470.451 421.323 471.451 420.453 472.121 419.633C475.261 421.223 483.161 424.813 484.461 425.133C488.141 426.033 492.041 425.893 495.621 424.693C498.251 423.813 501.471 421.413 503.781 420.923C506.771 420.283 513.411 424.443 516.981 425.873C523.241 428.383 529.871 429.003 536.211 426.413C538.391 425.523 542.631 421.973 544.261 422.003C546.911 425.273 554.311 443.163 556.531 449.693C565.521 476.093 567.851 558.523 563.701 579.553C563.541 580.173 563.371 580.783 563.201 581.403C558.101 599.693 552.791 618.293 544.261 635.333C536.211 651.393 525.081 665.853 509.111 674.623C492.551 683.723 473.111 686.113 454.491 684.883C442.501 684.103 430.711 681.693 419.111 678.673C413.051 677.103 407.041 675.353 401.061 673.533C398.451 672.743 395.801 672.003 393.241 671.083C388.721 669.453 386.351 669.323 382.021 671.413C378.081 673.313 377.071 678.923 379.121 682.453C382.461 688.213 388.581 688.613 394.491 690.293C400.511 692.003 406.551 693.643 412.631 695.113C424.281 697.913 436.121 700.063 448.061 701.053C469.441 702.843 491.471 700.083 510.931 690.753C513.131 689.693 515.251 688.563 517.301 687.343C516.541 688.403 515.771 689.463 514.991 690.513C512.831 693.423 514.431 698.373 517.461 699.963C518.421 700.463 519.381 700.943 520.351 701.413C520.481 701.723 520.621 702.033 520.781 702.343C523.551 707.903 529.351 711.183 535.261 712.603C542.281 714.283 550.141 713.093 557.281 712.883C563.901 712.683 570.521 712.483 577.131 712.283C578.691 712.243 580.251 712.193 581.811 712.143C589.671 711.903 597.521 711.673 605.371 711.433C612.371 711.223 612.041 711.763 618.611 708.963C621.541 707.703 623.941 705.923 625.961 703.553C627.221 702.993 628.441 702.353 629.611 701.623C633.371 699.283 636.711 696.143 639.791 692.683C645.021 694.333 652.351 692.803 653.371 686.233C655.011 675.723 668.671 671.233 675.051 663.633C680.201 657.503 683.881 649.473 683.691 641.763C696.671 635.483 703.731 618.933 705.381 604.893C706.151 598.383 706.031 591.413 707.141 584.793C707.631 584.263 708.071 583.703 708.441 583.103C711.701 577.833 714.541 572.403 717.041 566.843C720.441 564.393 724.531 562.883 728.811 562.633C739.331 562.023 741.311 547.833 731.281 544.413C731.231 544.393 731.191 544.383 731.141 544.363C733.861 537.563 733.631 529.513 730.331 523.073C730.471 522.373 730.601 521.683 730.731 520.983C736.361 514.933 739.591 506.523 739.231 498.333C741.801 496.523 744.681 495.123 747.831 494.253C752.701 492.913 752.731 486.973 749.131 484.313C747.681 483.243 746.481 481.993 745.481 480.613C747.971 473.133 746.991 464.483 741.901 458.343C745.131 454.203 748.361 450.063 751.591 445.923C753.731 443.183 754.861 438.533 751.591 435.933C749.501 434.263 747.411 432.603 745.311 430.943Z" fill="black"/>
</svg>
