<svg width="284" height="284" viewBox="0 0 284 284" fill="none" xmlns="http://www.w3.org/2000/svg">
<path fill-rule="evenodd" clip-rule="evenodd" d="M162.69 184.933C174.561 184.933 179.588 186.863 187.311 191.401C195.034 195.939 203.29 201.788 205.243 210.55C207.065 218.714 203.48 226.669 195.545 229.783C191.107 231.526 139.968 235.606 131.945 236.139C123.923 236.672 116.267 236.014 111.115 230.671C97.8044 216.866 116.289 198.968 128.101 192.359C138.648 186.455 150.819 184.933 162.69 184.933ZM159.945 194.243C151.016 194.243 136.387 200.774 136.387 203.954C136.387 207.134 179.022 203.977 179.936 201.257C180.85 198.537 168.874 194.243 159.945 194.243ZM166.814 121.367C174.365 125.957 185.871 136.66 177.748 148.04C168.186 158.073 154.418 146.569 147.634 141.366C141.343 137.334 134.275 147.704 140.112 152.413C189.136 188.708 209.03 122.567 170.633 115.97C166.406 115.243 164.836 119.947 166.814 121.367ZM81.5413 79.7665C94.4033 70.2705 113.643 77.5795 116.813 92.4365C119.016 93.5955 120.215 95.4385 120.476 98.1365L120.541 98.8115C120.852 102.016 118 105.05 115.149 105.895C111.94 106.845 109.4 106.354 106.421 104.991C103.566 103.684 102.572 99.9763 103.091 97.1554L103.137 96.9225C103.9 93.4215 100.898 90.0295 97.8773 88.6425C94.4683 87.0775 90.6433 88.0575 87.6793 90.1315C84.3883 92.4325 81.6513 96.3685 80.7253 100.29L80.6333 100.698C79.9029 104.083 79.3542 110.436 82.6393 112.38C83.2213 112.723 82.8063 113.511 82.2053 113.407C75.0673 112.186 70.8163 107.892 70.7726 100.211C70.7273 92.0775 75.0963 84.5245 81.5413 79.7665ZM199.98 77.0641C212.825 72.5081 228.889 84.7471 223.941 98.8831C220.692 108.164 208.126 104.444 209.296 95.1407L209.336 94.8571C210.081 90.0171 206.415 87.7341 201.921 89.3221C195.26 91.6771 191.668 102.143 194.789 108.249C195.172 108.999 194.101 109.634 193.655 108.911L193.227 108.224C189.742 102.674 186.563 98.5767 187.708 91.4871C188.762 84.9521 193.763 79.2681 199.98 77.0641ZM173.928 43.4177C173.895 42.7927 174.553 42.3717 175.115 42.5127C179.681 43.6617 183.814 46.9817 187.972 49.1357C192.51 51.4857 197.158 53.3847 202.086 54.7767C206.888 56.1327 211.74 56.8087 216.732 56.7667C222.133 56.7217 227.419 54.6947 232.716 54.8617C240.68 55.1127 244.841 66.6927 236.998 70.6727C225.578 76.4657 208.641 72.2567 197.533 67.4407C188.592 63.5637 174.51 54.4027 173.928 43.4177ZM115.921 46.0653C120.087 40.7013 128.516 40.3793 132.215 46.6993C136.036 53.2293 131.444 59.7763 124.951 61.1273C113.102 66.4243 100.966 70.4783 88.0236 72.1593L86.2707 72.3801C75.0071 73.7504 60.7919 74.4978 50.6136 69.3023C49.6166 68.7923 49.9186 67.2733 50.9166 66.9883C56.6546 65.3473 63.0806 65.3513 68.9816 64.2743C74.5946 63.2513 80.1616 62.1193 85.6276 60.4603C96.4266 57.1813 106.659 52.4953 115.921 46.0653Z" fill="black"/>
</svg>
