<svg width="900" height="900" viewBox="0 0 900 900" fill="none" xmlns="http://www.w3.org/2000/svg">
<path fill-rule="evenodd" clip-rule="evenodd" d="M444.075 451.146C446.872 446.545 452.834 457.816 453.467 459.754C454.028 461.471 454.398 463.229 454.587 465.008C456.755 465.494 459.007 465.496 461.229 465.07C464.531 464.436 466.55 462.661 469.42 461.136C471.402 460.083 473.901 461.318 474.932 463.065C476.144 465.122 475.372 467.255 473.777 468.788C470.752 471.695 464.801 472.363 460.853 471.591C458.591 471.149 456.518 470.301 454.688 469.068C454.675 469.299 454.667 469.529 454.649 469.758L454.614 470.157C454.311 473.381 453.425 477.435 450.921 479.533C446.813 482.974 441.745 476.355 445.735 472.918L445.859 472.815C448.34 470.811 448.881 465.433 448.747 462.471C448.66 460.538 448.308 458.58 447.697 456.739L447.572 456.372C447.388 455.852 445.385 450.918 444.661 451.547L444.626 451.582C444.328 451.938 443.845 451.523 444.075 451.146ZM466.407 425.183C470.182 427.478 475.935 432.83 471.874 438.52C467.093 443.536 460.209 437.784 456.817 435.183C453.671 433.167 450.137 438.352 453.056 440.706C477.567 458.854 487.515 425.784 468.316 422.486C466.203 422.122 465.418 424.473 466.407 425.183ZM426.089 403.97C429.779 403.316 433.559 404.233 436.612 406.392L436.844 406.559C439.786 408.71 443.077 412.488 441.389 416.196C440.711 417.685 438.682 417.919 437.395 417.244C435.251 416.12 434.863 413.354 432.95 411.824C431.382 410.569 429.27 409.808 427.25 409.992C422.505 410.423 419.586 415.104 418.112 419.137C417.923 419.653 417.166 419.853 416.87 419.299C413.394 412.803 419.546 405.131 426.089 403.97ZM485.194 401.519C492.263 400.936 500.536 408.264 498.675 415.725C497.783 419.305 492.472 419.203 491.528 415.725C491.009 413.812 491.061 412.119 489.683 410.53C488.546 409.218 486.931 408.456 485.194 408.573C483.28 408.702 481.515 409.658 480.173 411.003C478.962 412.217 478.237 413.994 476.982 415.068C476.673 415.332 476.26 415.349 475.955 415.068C473.795 413.077 475.091 408.93 476.461 406.851C478.421 403.876 481.612 401.814 485.194 401.519ZM412.629 390.738C417.163 386.724 425.403 382.847 431.517 384.823C435.032 385.958 436.565 391.623 432.64 393.418C428.096 395.497 422.857 394.651 418.231 396.806C416.289 397.712 414.462 398.843 413.109 400.503C412.044 401.811 410.96 403.532 409.419 404.286C409.014 404.484 408.465 404.489 408.141 404.121C404.763 400.3 409.679 393.348 412.629 390.738ZM477.4 384.623C480.203 383.837 483.312 383.853 486.159 384.347C489.005 384.841 491.894 386.02 494.218 387.741L494.488 387.942C497.024 389.854 500.051 392.635 499.889 396.021C499.753 398.848 496.779 400.761 494.211 399.279C492.117 398.07 491.132 395.649 489.36 394.037C487.897 392.707 486.179 391.658 484.346 390.923C482.31 390.106 480.271 389.724 478.086 389.687C476.403 389.659 474.711 390.211 473.06 390.388C473.196 390.667 471.891 390.537 471.143 390.289C470.589 390.053 470.586 389.353 470.778 388.898C471.73 386.647 475.196 385.241 477.4 384.623Z" fill="black"/>
</svg>
