<svg width="788" height="788" viewBox="0 0 788 788" fill="none" xmlns="http://www.w3.org/2000/svg">
<path fill-rule="evenodd" clip-rule="evenodd" d="M587.781 510.753C570.886 434.162 567.594 350.05 523.001 283.174C503.514 255.905 472.204 220.347 435.627 231.554C437.134 215.407 438.557 199.253 439.873 183.089C440.626 173.843 444.087 161.524 436.262 154.415C423.343 143.983 401.956 159.946 391.971 168.865C370.339 189.579 361.797 209.698 333.302 223.532C321.88 215.392 310.748 206.851 299.155 198.931C287.342 190.861 270.444 177.752 258.185 192.65C247.795 205.278 254.432 225.183 258.552 239.077C260.659 246.183 262.753 253.939 265.681 261.247C265.928 266.802 266.358 272.347 266.989 277.876C245.881 281.632 224.157 284.792 203.99 292.163C192.992 298.12 193.962 311.649 201.764 319.747C213.44 331.054 228.215 339.896 244.345 345.831C241.416 355.967 234.395 364.562 225.567 370.182C222.606 372.059 220.945 374.812 220.344 377.749C215.819 379.998 210.974 381.62 205.856 382.673C199.544 383.976 195.897 391.426 197.524 397.347C202.108 411.737 218.262 403.512 228.756 402.496C229.072 412.545 229.236 423.016 233.799 432.325C209.41 438.725 188.282 462.062 193.921 488.356C199.043 513.492 226.176 521.173 247.654 526.885C249.281 527.843 249.276 528.784 249.793 531.157C253.337 547.452 250.353 565.379 244.766 580.849C243.243 585.066 245.481 590.343 248.864 592.872C266.355 604.009 272.154 570.094 292.093 591.681C290.605 591.458 286.903 589.607 287.093 592.289C312.961 637.685 389.339 640.475 436.136 641.589C441.752 644.321 448.218 642.772 454.642 641.028C460.771 640.696 466.893 640.237 473 639.614C484.149 637.602 503.76 639.987 504.46 624.284C533.255 612.925 558.013 593.302 574.897 567.302C587.421 550.049 592.366 531.787 587.781 510.753Z" fill="white"/>
<path fill-rule="evenodd" clip-rule="evenodd" d="M413.154 148.677L414.835 147.943C420.631 145.434 426.959 143.027 433.304 144.399C440.612 145.979 444.837 152.264 446.646 159.116C448.74 167.042 449.676 175.479 450.25 183.637C450.843 192.086 450.614 200.517 449.978 208.953C449.447 216.008 448.349 224.184 445.723 231.022C445.835 230.922 445.969 230.848 446.129 230.831C456.465 229.772 465.99 230.389 475.861 233.718C485.056 236.819 493.97 241.17 501.972 246.667C519.256 258.539 532.629 276.469 541.946 295.032C560.873 332.745 564.866 375.408 570.17 416.65L570.331 417.899C573.185 439.953 576.976 461.673 583.058 483.065L584.108 486.713C589.69 506.284 593.021 525.323 588.57 545.584C579.963 584.764 549.622 614.338 514.524 631.409C496.604 640.125 477.214 646.556 457.63 650.264C437.543 654.068 415.803 654.705 397.488 644.314C388.408 639.162 396.402 626.004 405.579 630.471C424.517 639.69 445.98 636.655 465.638 631.586C485.191 626.545 504.368 619.487 521.693 609.004C551.424 591.016 576.44 559.961 577.26 523.897C577.721 503.604 569.049 484.227 564.868 464.635C561.183 447.37 558.896 429.853 556.738 412.337L555.138 399.327C550.495 362.014 544.681 323.602 525.52 290.625C508.605 261.516 479.471 238.369 445.941 232.212C445.74 232.176 445.607 232.079 445.527 231.956C444.501 237.479 438.414 242.629 434.519 245.807C429 250.313 422.313 253.578 415.039 253.432C401.013 253.151 388.969 242.274 379.355 233.165C378.271 232.139 379.445 230.707 380.678 230.893C391.836 232.572 401.402 241.637 412.839 241.502C418.725 241.432 423.235 238.274 427.078 234.075C428.513 232.505 429.775 230.61 431.14 228.868C431.477 224.292 432.773 219.805 433.353 215.25C433.894 211 434.358 206.685 434.633 202.403C435.193 193.665 435.016 184.862 434.049 176.157C433.634 172.421 433.108 168.65 432.293 164.97L431.911 163.312C431.405 161.032 431.075 158.955 428.319 159.189C422.193 159.707 415.345 163.444 409.988 166.264C389.22 177.201 374.121 194.112 362.976 213.979C363.676 214.329 364.344 214.79 364.969 215.39C366.226 216.597 366.871 218.723 366.295 220.406C364.07 226.91 356.16 227.1 350.595 229.647C344.531 232.421 338.835 235.987 333.441 239.893C322.823 247.581 313.068 256.613 303.792 265.852C289.183 280.4 275.617 295.883 262.516 311.768L259.728 317.995C256.945 324.222 254.223 330.469 251.971 336.954C248.305 347.5 245.234 358.281 242.873 369.194C240.497 380.178 238.948 391.414 238.361 402.637C237.837 412.651 239.166 422.658 239.11 432.614C240 434.279 240.322 436.156 239.903 438.069C242.705 438.862 245.419 440.071 247.968 441.739C248.589 442.147 248.195 443.119 247.462 442.939C244.23 442.143 240.997 441.966 237.831 442.274C236.151 444.346 233.431 445.665 230.792 445.607L229.666 445.582C228.841 445.564 228.023 445.432 227.233 445.207C222.779 447.26 218.681 450.215 215.212 453.746C206.871 462.238 202.843 473.363 203.435 485.248C204.021 496.971 210.265 507.545 220.607 513.176C225.22 515.687 230.346 517.009 235.59 517.106C240.635 517.197 247.256 515.664 251.401 518.951C251.867 519.321 252.174 519.813 252.363 520.357C252.652 519.136 252.959 517.918 253.294 516.705C253.55 515.778 255.093 515.67 255.282 516.705L255.525 518.055C258.999 537.634 260.22 557.793 274.019 573.463C280.473 580.793 288.254 587.404 296.236 593.016L297.557 593.938C300.967 596.292 304.651 598.578 308.717 599.43C313.235 600.377 316.97 600.117 321.125 602.6C323.078 603.768 324.277 606.346 323.558 608.582C318.949 622.934 300.784 616.487 291.627 610.813C286.535 607.658 281.58 603.846 276.976 599.647C272.961 602.093 268.193 603.67 264.096 604.283C257.777 605.229 251.068 603.915 246.031 599.834C240.702 595.518 238.879 589.238 239.784 582.571C240.234 579.254 241.095 576.018 242.022 572.805L242.789 570.18C243.907 566.358 244.781 562.413 247.035 559.076C248.173 557.393 250.874 557.552 251.459 559.655C252.798 564.468 252.219 569.901 251.872 574.914L251.797 576.063C251.57 579.834 249.963 585.618 253.269 588.412C257.251 591.776 261.609 590.24 265.849 587.922C265.417 587.395 264.99 586.865 264.571 586.334C250.851 568.896 247.439 547.188 251.197 525.969C247.656 530.614 238.426 531.619 233.528 531.258C225.838 530.692 218.271 528.354 211.721 524.244C198.002 515.638 190.286 500.545 189.958 484.49C189.638 468.9 196.613 453.133 209.475 444.055C212.873 441.657 216.653 439.793 220.599 438.567C218.681 430.951 218.478 422.537 218.894 414.304C214.293 414.93 209.312 414.117 205.152 412.701L204.506 412.476C198.095 410.179 189.952 405.564 188.752 398.36C187.274 389.5 198.208 384.408 204.552 380.869C207.519 379.215 210.554 377.667 213.703 376.389L214.652 376.014C217.371 374.968 220.572 373.017 223.332 374.571C223.529 374.682 223.577 374.893 223.548 375.1C223.002 378.945 216.7 382.217 213.898 384.642C211.746 386.503 209.666 388.451 207.67 390.48C206.376 391.796 204.43 395.121 202.77 396.054C203.541 396.457 204.465 397.449 205.109 397.83C206.923 398.899 208.836 399.653 210.883 400.141C213.926 400.869 216.974 400.557 220.021 400.488C221.258 388.362 223.504 376.501 227.12 364.852C233.185 345.308 243.126 324.719 257.308 309.268C267.707 289.786 281.138 271.991 296.478 256.078C306.317 245.873 316.71 235.971 328.237 227.679C333.347 224.003 338.722 220.692 344.427 218.023L346.322 217.154C349.489 215.689 353.341 213.786 357.014 213.242C359.39 203.814 363.623 194.797 368.759 186.624C375.835 175.363 385.148 165.865 396.045 158.276C401.422 154.53 407.152 151.309 413.154 148.677ZM224.119 477.05C233.262 470.909 244.475 468.506 255.401 469.413C260.821 469.862 266.182 471.133 271.261 473.076L273.355 473.903C278.206 475.846 283.413 478.245 283.587 484.113C283.656 486.43 281.941 488.275 279.871 488.995C274.822 490.75 270.731 486.547 266.562 484.311C262.353 482.051 257.879 480.561 253.27 479.354C252.828 479.238 252.385 479.133 251.943 479.028C252.183 479.509 252.319 480.041 252.272 480.614C252.158 481.986 251.759 483.006 251.371 484.292C251.254 484.682 250.969 487.063 250.677 487.357C250.772 488.167 250.782 488.933 250.807 489.749C250.877 492.158 250.58 494.193 249.35 496.326C246.286 501.639 237.527 502.129 234.594 496.326C231.661 490.524 233.953 484.846 238.41 480.674C239.625 479.538 241.245 478.381 243.005 477.583C236.825 477.019 230.576 477.286 224.402 478.098C223.8 478.178 223.708 477.327 224.119 477.05ZM224.665 282.404C237.205 280.272 250.301 279.847 262.957 281.108C263.647 281.178 263.905 282.228 263.132 282.397C243.887 286.622 223.937 288.049 206.767 298.633L205.976 299.129C204.328 300.177 200.407 302.156 199.591 304.02C198.628 306.22 201.236 309.048 202.449 310.636C205.176 314.202 208.564 317.315 212.304 319.792C216.255 322.408 220.503 324.427 225.072 325.702C227.242 326.308 229.493 326.616 231.638 327.306C234.08 328.09 234.868 329.341 236.718 330.976C238.85 332.858 238.134 336.47 235.835 337.821L235.19 338.196C232.169 339.924 230.49 340.434 226.652 339.758C223.65 339.228 220.783 338.179 217.973 337.013C212.81 334.869 208.098 332.062 203.751 328.567L203.101 328.038C195.337 321.62 182.182 307.582 190.847 297.362C198.495 288.344 213.524 284.298 224.665 282.404ZM255.549 185.168C267.576 171 284.562 180.674 296.614 189.145C309.603 198.273 320.873 209.04 329.985 222.049C330.564 222.876 329.444 223.882 328.638 223.396C318.535 217.305 308.326 211.474 297.963 205.829C293.708 203.512 289.448 201.25 285.094 199.131L282.767 198.012C279.13 196.217 273.909 192.941 270.031 195.077C261.669 199.686 266.83 214.782 268.553 222.093L268.71 222.782L273.965 246.842L276.359 257.673C277.21 258.363 277.918 259.286 278.419 260.476C279.775 263.693 278.668 268.039 275.388 269.727C265.707 274.709 262.429 264.979 260.606 257.667C259.125 251.727 257.628 245.791 256.128 239.856L253.647 230.047C249.846 215.199 244.451 198.242 255.549 185.168Z" fill="black"/>
</svg>
