<svg width="900" height="900" viewBox="0 0 900 900" fill="none" xmlns="http://www.w3.org/2000/svg">
<path fill-rule="evenodd" clip-rule="evenodd" d="M525.301 446.439C515.653 402.701 513.773 354.667 488.308 316.477C477.179 300.904 459.299 280.598 438.411 286.998C439.272 277.777 440.084 268.552 440.836 259.322C441.266 254.042 443.242 247.007 438.774 242.947C431.396 236.99 419.183 246.106 413.481 251.199C401.127 263.028 396.249 274.517 379.977 282.417C373.454 277.769 367.097 272.891 360.477 268.369C353.731 263.76 344.081 256.274 337.08 264.782C331.147 271.993 334.937 283.36 337.29 291.295C338.493 295.353 339.689 299.782 341.361 303.955C341.502 307.127 341.747 310.294 342.108 313.451C330.054 315.596 317.648 317.401 306.131 321.61C299.851 325.012 300.405 332.738 304.86 337.362C311.528 343.819 319.965 348.869 329.177 352.258C327.504 358.046 323.494 362.955 318.453 366.164C316.762 367.236 315.814 368.808 315.47 370.485C312.886 371.77 310.12 372.696 307.197 373.297C303.592 374.041 301.51 378.296 302.439 381.677C305.056 389.895 314.281 385.198 320.274 384.618C320.455 390.356 320.548 396.336 323.154 401.652C309.226 405.307 297.161 418.634 300.381 433.649C303.306 448.004 318.801 452.39 331.066 455.652C331.995 456.199 331.993 456.736 332.288 458.091C334.312 467.397 332.608 477.635 329.417 486.469C328.547 488.877 329.825 491.891 331.757 493.335C341.746 499.695 345.057 480.327 356.444 492.655C355.594 492.527 353.48 491.47 353.589 493.002C368.361 518.926 411.978 520.519 438.702 521.155C441.909 522.716 445.602 521.831 449.27 520.835C452.77 520.645 456.266 520.383 459.754 520.028C466.12 518.879 477.32 520.241 477.719 511.273C494.163 504.786 508.302 493.58 517.944 478.733C525.096 468.88 527.92 458.451 525.301 446.439Z" fill="white"/>
<path fill-rule="evenodd" clip-rule="evenodd" d="M425.578 239.671L426.538 239.252C429.848 237.819 433.462 236.444 437.085 237.228C441.258 238.13 443.671 241.719 444.704 245.632C445.9 250.159 446.434 254.977 446.762 259.635C447.101 264.46 446.97 269.275 446.607 274.093C446.304 278.121 445.677 282.79 444.177 286.695C444.241 286.638 444.317 286.596 444.409 286.586C450.311 285.982 455.751 286.334 461.388 288.235C466.639 290.006 471.729 292.491 476.299 295.63C486.169 302.409 493.806 312.649 499.127 323.249C509.935 344.786 512.216 369.149 515.244 392.701L515.336 393.414C516.966 406.009 519.131 418.412 522.604 430.629L523.204 432.712C526.392 443.888 528.294 454.761 525.752 466.331C520.837 488.705 503.51 505.594 483.467 515.343C473.233 520.32 462.16 523.993 450.977 526.11C439.506 528.283 427.091 528.646 416.632 522.712C411.446 519.77 416.011 512.256 421.252 514.807C432.067 520.072 444.324 518.339 455.55 515.444C466.716 512.565 477.667 508.535 487.561 502.548C504.539 492.276 518.825 474.541 519.293 453.946C519.557 442.358 514.604 431.292 512.217 420.104C510.112 410.244 508.806 400.241 507.574 390.238L506.66 382.809C504.009 361.5 500.689 339.565 489.746 320.733C480.087 304.109 463.449 290.891 444.302 287.375C444.187 287.354 444.111 287.299 444.065 287.229C443.479 290.383 440.003 293.324 437.779 295.139C434.627 297.712 430.808 299.576 426.654 299.493C418.645 299.333 411.767 293.121 406.277 287.919C405.657 287.333 406.328 286.516 407.032 286.622C413.404 287.581 418.867 292.757 425.398 292.68C428.759 292.64 431.335 290.837 433.529 288.439C434.349 287.542 435.07 286.46 435.849 285.465C436.042 282.852 436.782 280.29 437.113 277.689C437.422 275.262 437.687 272.797 437.844 270.352C438.164 265.362 438.063 260.335 437.51 255.364C437.273 253.23 436.973 251.077 436.508 248.975L436.289 248.029C436 246.726 435.812 245.54 434.238 245.674C430.74 245.97 426.829 248.104 423.77 249.714C411.91 255.96 403.288 265.617 396.923 276.963C397.323 277.163 397.704 277.426 398.061 277.768C398.779 278.458 399.147 279.672 398.818 280.633C397.548 284.347 393.031 284.456 389.853 285.91C386.39 287.494 383.137 289.531 380.057 291.761C373.993 296.152 368.422 301.31 363.125 306.586C354.782 314.893 347.035 323.735 339.554 332.807L337.962 336.363C336.372 339.919 334.818 343.486 333.532 347.19C331.438 353.212 329.685 359.369 328.336 365.601C326.979 371.873 326.095 378.29 325.76 384.699C325.46 390.418 326.219 396.132 326.187 401.818C326.696 402.769 326.879 403.84 326.64 404.933C328.24 405.386 329.79 406.076 331.246 407.029C331.6 407.262 331.375 407.817 330.957 407.714C329.111 407.259 327.265 407.158 325.457 407.334C324.498 408.517 322.944 409.271 321.437 409.238L320.794 409.223C320.323 409.213 319.856 409.138 319.405 409.009C316.861 410.182 314.521 411.869 312.54 413.885C307.777 418.735 305.477 425.088 305.815 431.875C306.149 438.57 309.715 444.608 315.621 447.824C318.255 449.258 321.183 450.013 324.177 450.068C327.058 450.12 330.839 449.245 333.206 451.122C333.472 451.333 333.648 451.614 333.756 451.925C333.921 451.227 334.096 450.532 334.287 449.839C334.434 449.31 335.315 449.248 335.423 449.839L335.561 450.61C337.545 461.791 338.243 473.303 346.123 482.252C349.808 486.438 354.252 490.213 358.81 493.418L359.564 493.944C361.512 495.289 363.616 496.594 365.938 497.081C368.518 497.621 370.651 497.473 373.023 498.891C374.139 499.558 374.823 501.03 374.413 502.307C371.781 510.503 361.407 506.821 356.178 503.581C353.27 501.779 350.441 499.602 347.811 497.205C345.519 498.601 342.796 499.502 340.456 499.852C336.847 500.392 333.016 499.642 330.14 497.311C327.096 494.847 326.055 491.26 326.572 487.453C326.829 485.559 327.321 483.711 327.85 481.876L328.288 480.377C328.927 478.194 329.426 475.942 330.713 474.036C331.363 473.075 332.905 473.166 333.239 474.367C334.004 477.115 333.673 480.218 333.475 483.08L333.432 483.737C333.303 485.89 332.385 489.193 334.273 490.789C336.547 492.71 339.036 491.833 341.457 490.509C341.21 490.208 340.967 489.905 340.727 489.602C332.892 479.644 330.944 467.247 333.09 455.13C331.068 457.782 325.797 458.356 323 458.15C318.608 457.827 314.287 456.492 310.546 454.145C302.712 449.23 298.306 440.611 298.118 431.442C297.936 422.539 301.919 413.535 309.264 408.351C311.204 406.982 313.363 405.917 315.616 405.217C314.521 400.868 314.405 396.063 314.643 391.361C312.015 391.719 309.171 391.255 306.795 390.446L306.426 390.318C302.765 389.006 298.115 386.37 297.43 382.256C296.586 377.197 302.83 374.289 306.452 372.268C308.147 371.323 309.88 370.439 311.678 369.71L312.22 369.495C313.773 368.898 315.601 367.784 317.177 368.671C317.29 368.735 317.317 368.855 317.3 368.973C316.989 371.169 313.39 373.038 311.79 374.423C310.561 375.485 309.373 376.598 308.233 377.756C307.494 378.508 306.383 380.407 305.435 380.94C305.875 381.17 306.403 381.736 306.771 381.954C307.806 382.564 308.899 382.995 310.068 383.273C311.806 383.689 313.546 383.511 315.286 383.472C315.993 376.547 317.275 369.773 319.34 363.121C322.804 351.96 328.481 340.203 336.58 331.379C342.518 320.254 350.188 310.091 358.948 301.004C364.567 295.176 370.502 289.522 377.085 284.786C380.003 282.687 383.072 280.796 386.33 279.272L387.412 278.776C389.221 277.939 391.421 276.852 393.518 276.542C394.875 271.158 397.292 266.009 400.225 261.341C404.266 254.91 409.585 249.486 415.808 245.153C418.878 243.013 422.15 241.174 425.578 239.671ZM317.627 427.194C322.848 423.687 329.251 422.314 335.491 422.832C338.586 423.089 341.647 423.815 344.548 424.924L345.744 425.396C348.514 426.506 351.487 427.876 351.587 431.227C351.626 432.55 350.647 433.604 349.465 434.015C346.581 435.017 344.245 432.617 341.864 431.34C339.461 430.05 336.906 429.199 334.274 428.509C334.021 428.443 333.768 428.383 333.516 428.323C333.653 428.598 333.731 428.902 333.704 429.229C333.639 430.012 333.411 430.595 333.189 431.329C333.122 431.552 332.96 432.912 332.793 433.08C332.847 433.542 332.853 433.98 332.867 434.446C332.907 435.821 332.737 436.983 332.035 438.201C330.285 441.236 325.283 441.515 323.608 438.201C321.933 434.888 323.242 431.646 325.788 429.263C326.481 428.614 327.407 427.954 328.412 427.498C324.882 427.176 321.314 427.328 317.788 427.792C317.444 427.838 317.392 427.352 317.627 427.194ZM317.938 316.038C325.099 314.82 332.578 314.578 339.806 315.298C340.2 315.338 340.347 315.937 339.905 316.034C328.915 318.447 317.523 319.262 307.717 325.306L307.266 325.589C306.325 326.187 304.085 327.318 303.619 328.382C303.069 329.638 304.559 331.253 305.252 332.16C306.809 334.197 308.744 335.974 310.879 337.389C313.136 338.883 315.562 340.036 318.171 340.764C319.41 341.11 320.695 341.286 321.92 341.68C323.315 342.128 323.765 342.842 324.821 343.776C326.039 344.85 325.63 346.913 324.317 347.685L323.949 347.899C322.224 348.886 321.265 349.177 319.073 348.791C317.359 348.488 315.721 347.889 314.117 347.223C311.168 345.999 308.477 344.396 305.995 342.4L305.624 342.098C301.19 338.433 293.678 330.416 298.626 324.58C302.994 319.43 311.576 317.119 317.938 316.038ZM335.575 260.51C342.443 252.419 352.143 257.943 359.026 262.781C366.444 267.994 372.879 274.142 378.083 281.571C378.414 282.043 377.774 282.618 377.314 282.34C371.544 278.862 365.714 275.532 359.796 272.309C357.366 270.985 354.934 269.694 352.447 268.484L351.118 267.844C349.041 266.819 346.06 264.949 343.845 266.168C339.07 268.8 342.017 277.421 343.001 281.596L343.091 281.99L346.092 295.73L347.459 301.915C347.945 302.309 348.349 302.836 348.635 303.516C349.41 305.353 348.778 307.835 346.904 308.798C341.376 311.644 339.504 306.087 338.463 301.911C337.617 298.519 336.762 295.129 335.906 291.74L334.489 286.139C332.318 277.659 329.237 267.976 335.575 260.51Z" fill="black"/>
</svg>
