<svg width="284" height="284" viewBox="0 0 284 284" fill="none" xmlns="http://www.w3.org/2000/svg">
<path fill-rule="evenodd" clip-rule="evenodd" d="M190.06 214.111C196.38 212.638 201.344 217.99 200.102 224.153C198.787 230.677 191.772 232.913 185.89 232.708C179.221 232.477 172.557 231.1 165.855 230.823C158.97 230.539 152.059 230.487 145.17 230.673C138.798 230.845 132.258 231.968 125.936 230.96C123.474 230.567 123.707 227.317 125.309 226.162C130.065 222.732 136.229 221.334 141.835 219.895C147.551 218.427 153.394 217.303 159.256 216.617C165.199 215.922 171.191 215.575 177.173 215.507C179.896 215.476 183.235 216.081 185.89 215.591C187.243 215.34 188.621 214.447 190.06 214.111ZM171.814 129.367C179.366 133.957 190.872 144.66 182.748 156.04C173.186 166.073 159.419 154.569 152.634 149.366C146.344 145.334 139.276 155.705 145.112 160.413C194.136 196.708 214.031 130.567 175.634 123.97C171.406 123.243 169.836 127.947 171.814 129.367ZM117.059 95.0915C127.16 93.4115 128.927 107.812 118.916 108.818C116.815 109.029 114.726 109.213 112.641 109.396C112.844 110.048 112.979 110.719 113.053 111.409C113.148 111.995 113.219 112.617 113.282 113.328C113.599 116.871 111.087 120.555 108.152 122.273C105.102 124.058 100.724 124.296 97.6954 122.273C96.1334 121.229 94.5734 120.052 93.7124 118.326C92.5574 116.553 91.9274 114.501 91.8634 112.395C87.2584 113.591 82.5694 115.208 77.9184 116.065C78.0894 116.233 78.2574 116.412 78.4204 116.609C78.5444 116.76 78.3744 117.043 78.1934 116.904L75.8604 116.387C75.1424 116.481 74.4244 116.558 73.7084 116.603L73.7254 116.54C72.5284 116.519 71.5484 115.104 72.6194 113.972C76.7286 109.628 83.1404 106.742 88.9861 104.328L94.6184 102.019C101.82 99.0923 109.423 96.3617 117.059 95.0915ZM198.32 99.5464C204.936 98.7914 211.487 99.0913 218.114 99.4953C229.267 100.174 224.589 116.438 215.637 112.683C215.729 113.278 215.753 113.874 215.684 114.429C215.334 117.288 214.402 119.704 211.778 121.24C209.341 122.666 206.252 122.662 203.815 121.24C201.205 119.718 200.028 117.573 199.362 114.786C198.846 112.625 199.053 110.817 199.351 108.677C199.45 107.968 199.759 107.307 200.187 106.713C199.563 106.557 198.938 106.406 198.312 106.265C192.746 104.999 187.255 105.253 181.705 104.451C181.113 104.365 181.019 103.409 181.537 103.166C186.524 100.823 192.864 100.168 198.32 99.5464ZM116.04 49.3154C119.858 47.8584 124.654 50.2815 126.603 53.6145C128.815 57.3965 127.87 61.7624 125.14 64.9494C120.952 69.8383 112.976 72.85 107.099 75.6397L106.627 75.8654C100.591 78.7774 94.3896 81.4515 88.1046 83.7815C81.9236 86.0745 75.4936 87.8704 69.0856 89.4124C65.7066 90.2254 62.2556 90.8975 58.8026 91.3215C56.0766 91.6555 53.9746 90.9075 51.3666 90.9075C50.9856 90.9085 50.8666 90.4034 51.1776 90.2094C53.6146 88.6774 55.4236 86.6605 58.0816 85.2415C60.8496 83.7645 63.6276 82.3124 66.4156 80.8744C72.0526 77.9684 77.4806 74.7344 82.9186 71.4794C88.6506 68.0484 94.2526 64.4354 99.7006 60.5674C105.032 56.7824 109.945 51.6404 116.04 49.3154ZM184.076 46.2035C188.844 45.2785 193.566 47.5345 194.977 52.3935C196.33 57.0486 194.915 58.0466 198.524 61.3776C201.401 64.0322 204.503 66.4016 207.634 68.7348L212.241 72.16C220.586 78.3375 229.001 84.1783 238.596 88.3465C239.407 88.6985 238.938 89.9036 238.169 89.9196C222.915 90.2136 208.288 88.1486 194.519 81.3196C188.087 78.1296 181.625 74.0945 177.898 67.7265C173.581 60.3525 173.707 48.2135 184.076 46.2035Z" fill="black"/>
</svg>
