<svg width="900" height="900" viewBox="0 0 900 900" fill="none" xmlns="http://www.w3.org/2000/svg">
<path fill-rule="evenodd" clip-rule="evenodd" d="M417.142 458.61C417.195 453.101 421.969 452.151 426.504 452.886C434.182 454.128 441.888 455.002 449.669 455.159L451.01 455.183C451.226 454.868 451.587 454.629 452.077 454.576C456.391 454.11 460.797 454.186 465.134 454.058C468.918 453.947 472.806 453.568 476.589 453.865L476.89 453.892C481.513 454.339 486.392 456.699 485.834 462.125C485.321 467.15 480.518 471.598 476.682 474.39C475.907 474.949 475.114 475.474 474.298 475.952C474.042 476.278 473.668 476.506 473.237 476.552C469.46 478.592 465.292 479.799 460.978 480.201C451.832 481.052 441.2 480.131 432.415 476.168C429.559 474.879 426.895 473.27 424.54 471.294C420.908 468.246 417.102 463.623 417.142 458.61ZM453.179 469.534C449.512 469.423 445.852 469.936 442.36 471.067C439.993 471.831 437.836 473.299 435.569 474.32C443.211 477.234 452.089 477.87 459.929 477.339C463.368 477.106 466.703 476.313 469.81 474.949C469.326 474.6 468.836 474.244 468.323 473.935C466.773 472.996 465.152 472.198 463.461 471.562C460.168 470.327 456.694 469.645 453.179 469.534ZM454.408 421.359C453.418 420.649 454.203 418.297 456.317 418.66C475.516 421.959 465.568 455.029 441.056 436.882C438.138 434.527 441.672 429.342 444.817 431.358L445.934 432.219C449.565 435.002 455.571 439.21 459.874 434.695C463.936 429.005 458.183 423.654 454.408 421.359ZM467.405 396.33C471.486 392.847 476.604 395.414 479.609 398.94L480.139 399.571C480.74 400.29 481.405 401.129 481.805 402.025C485.135 399.19 489.65 397.195 493.97 398.49C498.16 399.75 500.55 403.75 499.83 408.045C499.014 412.928 495.319 416.211 491.348 418.749L490.222 419.464C485.451 422.505 480.987 425.569 477.06 429.75C476.42 430.43 475.035 430.34 474.615 429.435L474.277 428.707L473.935 427.98C471.15 422.04 468.165 416.14 465.715 410.06C463.9 405.555 463.31 399.82 467.405 396.33ZM420.883 399.484L421.505 398.765C424.495 395.285 429.56 392.955 433.555 396.33C437.81 399.925 436.975 405.87 435.08 410.455C432.798 415.985 430.133 421.393 427.572 426.817L427.025 427.98C426.795 428.465 426.57 428.95 426.345 429.435C425.925 430.34 424.535 430.43 423.9 429.75C420.095 425.7 415.79 422.703 411.193 419.758L409.805 418.875C405.77 416.315 401.955 413.01 401.125 408.045C400.415 403.76 402.79 399.735 406.985 398.489C411.315 397.205 415.82 399.185 419.155 402.025C419.552 401.106 420.236 400.241 420.883 399.484ZM426.354 374.518C427.815 376.414 426.255 379.512 424.122 380.002C421.481 380.61 418.813 380.24 416.22 380.994C413.844 381.684 411.568 383.068 409.532 384.447C407.209 386.019 405.07 387.774 403.105 389.773C401.936 390.963 400.463 393.781 398.66 393.833C396.867 393.886 399.273 388.28 399.472 387.795C400.886 384.343 402.871 381.166 405.355 378.383C410.255 372.891 420.634 367.097 426.354 374.518ZM481.08 373L482.303 373.34C485.33 374.181 488.562 375.215 491.159 377.03L491.363 377.174L491.677 377.404C494.937 379.835 499.549 384.685 497.24 388.916C497.08 389.207 496.742 389.236 496.47 389.117C493.398 387.772 491.121 385.085 487.853 383.961L487.25 383.756C484.086 382.69 480.171 381.569 476.765 381.671C474.37 382.449 471.135 381.805 470.512 378.889L470.484 378.746L470.43 378.444C470.071 376.452 470.605 373.913 472.664 372.953C475.486 371.638 478.239 372.223 481.08 373Z" fill="black"/>
</svg>
