<svg width="900" height="900" viewBox="0 0 900 900" fill="none" xmlns="http://www.w3.org/2000/svg">
<path fill-rule="evenodd" clip-rule="evenodd" d="M423.673 437.739C432.245 436.699 440.553 439.323 448.932 440.645C453.356 441.343 457.785 441.864 462.262 442.058C463.162 442.097 464.064 442.12 464.965 442.139C465.048 441.346 465.492 440.617 466.454 440.181C468.426 439.287 470.004 438.884 472.169 438.97C474.15 439.049 476.139 439.252 478.09 439.609C481.634 440.259 485.193 441.733 487.785 444.295C493.784 450.221 492.87 459.741 488.235 466.196C478.659 479.535 461.182 480.154 446.213 479.98L444.832 479.962C431.202 479.767 411.702 481.799 405.51 466.292C403.233 460.59 403.549 453.98 406.337 448.511C409.662 441.987 416.662 438.59 423.673 437.739ZM466.247 459.948L466.126 459.953C459.842 460.195 453.559 460.365 447.271 460.477C447.459 462.091 447.651 463.706 447.871 465.318C448.043 466.585 448.228 467.852 448.42 469.117C448.501 469.652 448.799 470.484 448.715 471.014L448.685 471.224C449.007 471.37 449.3 471.605 449.518 471.947C449.594 472.065 449.649 472.184 449.704 472.302C454.585 472.341 459.839 472.246 464.815 471.359L464.825 471.251C464.915 470.615 465.18 470.187 465.531 469.894C465.881 467.866 465.849 465.706 465.984 463.695C466.068 462.445 466.159 461.197 466.247 459.948ZM442.469 460.562C437.94 460.639 433.408 460.699 428.88 460.643L426.824 460.612C427.258 462.941 427.731 465.262 428.123 467.606C428.533 470.05 426.382 471.603 424.52 471.541C424.73 471.575 424.938 471.61 425.147 471.64C430.963 472.462 437.002 472.244 442.905 472.238C442.587 470.384 442.716 468.293 442.668 466.746L442.659 466.506C442.569 464.524 442.505 462.543 442.469 460.562ZM411.703 460.135C411.86 461.346 412.166 462.531 412.624 463.635C414.557 468.297 418.989 470.472 423.679 471.389C422.866 471.108 422.219 470.433 422.056 469.276C421.65 466.401 421.503 463.478 421.492 460.559C418.224 460.528 414.934 460.459 411.703 460.135ZM483.293 459.139C480.966 459.688 478.261 459.437 475.978 459.54C473.839 459.638 471.7 459.722 469.561 459.809C469.661 461.269 469.76 462.729 469.867 464.188C470.004 466.074 470.017 468.068 470.378 469.946C474.683 468.477 478.54 466.121 481.434 462.353C482.155 461.415 482.801 460.313 483.293 459.139ZM422.69 445.388C418.816 446.305 415.15 448.243 413.18 451.787C412.01 453.891 411.496 456.384 411.595 458.84C414.869 458.459 418.199 458.315 421.513 458.195C421.524 457.598 421.538 457.002 421.556 456.407L421.607 454.883C421.698 451.974 421.743 448.322 422.69 445.388ZM442.74 445.743L441.035 445.551C436.298 445.012 431.564 444.445 426.827 444.77C426.142 444.817 425.446 444.892 424.748 444.994C425.586 448.015 425.515 451.563 425.865 454.554C426 455.71 426.171 456.857 426.36 458L427.182 457.961C432.265 457.686 437.352 457.516 442.439 457.314C442.438 456.359 442.443 455.404 442.459 454.448L442.478 453.492C442.535 451.05 442.378 448.3 442.74 445.743ZM466.524 445.355C461.563 446.156 456.437 446.326 451.564 446.332C449.618 446.335 447.672 446.215 445.728 446.043C445.855 447.078 445.921 448.125 446.016 449.146C446.208 451.209 446.427 453.269 446.666 455.327L446.879 457.127C453.131 456.844 459.382 456.537 465.633 456.22L466.515 456.173L466.761 452.712C466.93 450.405 467.115 448.098 467.377 445.801L467.18 445.73C466.95 445.635 466.731 445.505 466.524 445.355ZM468.679 446.214C468.952 449.477 469.103 452.753 469.304 456.021L473.425 455.801C474.112 455.764 474.799 455.725 475.485 455.686C478.156 455.532 481.587 454.723 484.227 455.478C484.428 453.078 483.742 450.74 481.576 449.128C477.773 446.296 472.932 447.304 468.679 446.214ZM454.601 417.047C460.737 413.533 476.132 409.942 477.107 420.984C477.555 426.066 473.777 430.276 469.366 432.155L469.201 432.224C465.063 433.925 457.73 435.846 454.149 432.158C451.169 429.088 455.122 423.583 458.825 426.098C460.728 427.39 464.733 426.438 466.856 425.824L466.99 425.785C469.281 425.111 472.336 422.956 471.388 420.134C470.55 417.638 466.982 417.182 464.748 417.101C461.412 416.982 458.166 417.756 454.861 418.008C454.338 418.048 454.176 417.29 454.601 417.047ZM480.018 399.291C488.346 398.901 493.527 407.994 491.612 415.445C491.281 416.73 489.842 417.992 488.454 417.848L488.104 417.815C487.927 417.798 487.749 417.776 487.585 417.731C486.267 417.366 485.085 415.995 485.181 414.574L485.206 414.159C485.4 410.64 485.019 406.585 480.837 405.732C477.289 405.009 475.309 408.424 475.267 411.567C475.259 412.125 474.632 412.515 474.138 412.215C471.574 410.654 471.13 407.549 472.109 404.876C473.351 401.488 476.457 399.457 480.018 399.291ZM418.216 401.241C424.277 399.219 430.816 402.449 433.75 407.807C434.78 408.105 435.808 408.899 435.665 410.114C435.458 411.862 435.147 412.964 433.935 414.29C432.039 416.363 428.489 415.303 427.701 412.75L427.667 412.635C426.772 409.336 423.14 407.158 419.832 408.313C415.967 409.663 416.079 413.745 413.368 416.123C413.049 416.402 412.667 416.447 412.285 416.262C409.406 414.871 409.923 410.683 410.95 408.285C412.296 405.14 414.913 402.342 418.216 401.241ZM409.963 382.837C414.874 377.826 427.68 372.977 431.039 382.231C431.679 383.993 430.317 386.37 428.482 386.735C425.477 387.333 422.811 386.029 419.826 386.263C417.409 386.453 414.889 387.261 412.957 388.758C407.606 392.904 406.429 399.916 402.7 405.193C402.519 405.45 402.166 405.342 402.133 405.039C401.284 397.357 404.584 388.325 409.963 382.837ZM474.01 377.904C477.269 376.753 480.959 376.852 484.235 377.873C487.535 378.902 490.565 380.856 492.899 383.409C493.958 384.568 494.938 385.847 495.724 387.208C496.141 387.93 496.581 389.42 497.055 390.308C499.623 391.79 500.72 395.168 498.422 397.571L498.317 397.676L498.01 397.981C496.775 399.204 494.911 399.734 493.225 399.245C489.451 398.153 488.992 395.181 487.686 392.026C486.823 389.942 485.345 388.098 483.552 386.743C479.316 383.543 472.369 382.524 467.269 384.032C466.997 384.112 466.678 383.766 466.871 383.515C467.838 382.263 468.395 381.236 469.689 380.226C471.003 379.201 472.436 378.46 474.01 377.904Z" fill="black"/>
</svg>
