<svg width="284" height="284" viewBox="0 0 284 284" fill="none" xmlns="http://www.w3.org/2000/svg">
<path fill-rule="evenodd" clip-rule="evenodd" d="M96.3298 191.091C96.5398 190.897 96.8718 190.829 97.1248 190.988C101.452 193.724 101.964 202.925 102.013 208.239C103.803 208.705 105.571 209.235 107.243 209.605C110.793 210.39 114.363 211.076 117.926 211.798L120.597 212.349C129.523 214.23 138.616 215.622 147.712 216.319C156.54 216.995 165.624 217.242 174.427 216.105C178.207 215.616 181.965 214.8 185.618 213.711C189.936 212.423 193.375 210.288 197.391 208.418C207.445 203.735 215.871 217.458 206.195 223.48C197.889 228.647 186.557 230.51 176.969 231.31C167.169 232.127 157.407 231.23 147.725 229.68C137.258 228.003 127.006 225.428 117.079 221.694C112.881 220.115 108.819 218.202 104.853 216.109L103.774 215.534C103.115 215.18 102.428 214.821 101.737 214.457C100.994 221.084 98.8528 227.485 96.2658 233.638L96.2048 233.53C94.7898 238.384 89.6778 241.387 84.5918 239.243C78.6221 236.728 78.1686 230.126 81.6421 225.44L81.8078 225.222C85.8918 219.968 88.4508 213.45 90.6748 207.237C91.8158 204.052 92.8718 200.79 93.7878 197.532C94.4508 195.175 94.4748 192.804 96.3298 191.091ZM250.162 138.318C246.623 149.012 238.906 157.247 228.156 160.867C217.502 164.456 205.653 163.148 194.762 161.208C192.38 160.783 189.965 160.315 187.555 159.768C189.527 160.99 191.27 162.71 192.937 164.528C195.403 167.217 197.639 170.05 198.317 173.416C198.99 176.755 197.93 179.295 195.996 181.213C193.021 184.162 188.222 185.751 184.158 186.629C175.056 188.596 165.939 188.29 156.882 186.273C154.569 185.759 153.001 184.519 152.121 182.901C151.052 180.937 150.964 178.494 151.578 176.268C152.191 174.044 153.516 171.994 155.439 170.859C157.022 169.925 159.002 169.669 161.249 170.416C165.759 171.917 170.237 172.911 175.001 173.026C177.017 173.073 179.047 173.013 181.061 172.828C182.199 172.724 183.335 172.579 184.465 172.398C183.799 171.512 183.153 170.609 182.522 169.698C181.775 168.621 181.049 167.529 180.355 166.419C178.349 163.206 176.678 159.904 175.21 156.418C174.739 155.301 174.303 154.179 173.884 153.054C173.823 152.892 173.763 152.729 173.703 152.567C173.574 152.458 173.445 152.349 173.318 152.239C170.447 149.755 168.04 146.695 166.337 142.905C161.727 132.639 162.478 119.897 165.275 109.237C167.517 100.693 172.465 92.7901 179.002 87.4212C180.143 85.5432 180.897 84.404 181.82 83.4446C185.577 79.5358 190.82 76.8996 195.936 75.296C207.362 71.7129 219.807 74.2836 229.493 81.1058C238.436 87.4048 245.437 96.8518 249.221 107.359C252.804 117.309 253.503 128.223 250.162 138.318ZM94.5218 73.3312C108.111 73.2152 121.937 77.2272 132.964 85.2562C143.514 92.9392 151.796 104.282 151.786 117.793C151.776 130.948 144.744 143.882 136.945 154.067C128.191 165.501 116.751 171.014 102.367 171.141C94.8901 171.208 87.3585 170.546 79.9353 169.637L75.9527 169.134C70.4683 168.427 64.927 167.59 59.7288 165.705C34.9848 156.73 34.2188 124.342 43.3828 103.639C50.4588 87.6552 68.3678 72.0672 86.2258 73.9382C88.9168 73.5612 91.6798 73.3562 94.5218 73.3312ZM117.473 88.5622C100.456 80.9242 79.7798 83.2112 63.2728 91.3622C56.7338 98.4962 51.9548 107.487 50.0208 115.741C47.9558 124.552 48.2578 134.043 51.3628 142.583C55.1538 153.008 64.4888 155.59 74.5588 157.192L78.4684 157.806L80.1086 158.055C90.0033 159.531 100.821 160.679 110.33 158.831C120.927 156.77 127.657 148.209 132.955 139.432L133.202 139.02C138.703 129.823 143.308 118.638 138.694 108.1C134.771 99.1432 126.202 92.4802 117.473 88.5622ZM217.913 91.2236C212.073 87.9876 205.412 87.3996 199.106 89.5656C196.393 90.4974 194.049 92.0076 191.776 93.7006L190.869 94.3866C188.074 96.5323 185.463 97.6191 183.366 100.517L183.095 100.906C182.037 102.486 180.186 103.118 178.5 102.908C176.535 108.325 175.724 114.183 175.708 119.95L175.71 120.714L175.72 121.493C175.846 128.31 177.035 136.649 182.398 141.218C187.291 145.384 194.698 146.384 201.311 146.964L206.408 147.389L207.763 147.492C214.733 147.976 222.371 147.811 228.213 143.685C233.301 140.091 235.701 133.991 236.323 127.968C237.794 113.739 230.592 98.2486 217.913 91.2236ZM90.795 92.5381C100.166 87.7541 111.423 88.9531 119.361 94.9491C118.656 95.0871 117.962 95.2631 117.27 95.6101C115.469 96.5131 114.351 98.3211 113.925 100.245C113.445 102.42 114.572 104.479 116.719 105.165C118.587 105.761 120.802 106.034 122.537 104.899C123.446 104.305 124.081 103.522 124.498 102.536L124.557 102.391L124.63 102.285L124.658 102.235C124.664 102.216 124.632 102.252 124.58 102.333C124.633 102.21 124.682 102.087 124.731 101.962C124.804 101.813 124.874 101.663 124.931 101.508C125.032 101.421 125.124 101.324 125.217 101.227C126.659 103.446 127.791 105.952 128.51 108.74C133.124 126.635 114.204 145.206 97.301 147.064C90.913 147.766 85.088 146.245 80.254 143.247C80.298 143.188 80.347 143.135 80.387 143.073C82.329 143.422 84.647 142.553 85.352 140.387C87.151 134.862 85.306 128.399 79.286 126.594C75.412 125.432 71.448 126.716 68.679 129.364C66.585 124.239 65.836 118.469 66.827 112.69C68.225 104.537 73.143 97.1901 80.797 93.7981C84.524 92.1451 87.736 91.7981 90.795 92.5381ZM189.482 103.579L189.767 103.13C192.663 98.6733 198.198 93.2069 203.935 94.7099C204.741 94.9209 205.531 95.2609 206.243 95.7019C209.395 95.2739 212.695 95.9899 215.405 97.6569L215.331 97.8439C215.319 97.8752 215.309 97.9069 215.301 97.9399C215.054 99.0239 215.198 100.026 215.704 101.022C216.253 102.101 217.036 103.124 218.096 103.743C218.823 104.167 219.678 104.39 220.516 104.373C221.745 104.351 222.827 103.81 223.715 102.984C224.198 102.536 224.535 101.879 224.721 101.203C225.159 101.623 225.584 102.091 225.989 102.622C232.64 111.368 231.721 125.422 223.918 133.218C223.603 133.532 223.268 133.816 222.937 134.106C219.769 138.467 214.886 141.427 209.021 142.026C203.591 142.581 198.161 140.975 193.997 137.683C194.332 137.505 194.645 137.274 194.915 136.968C195.626 136.163 196.211 135.369 196.643 134.386C196.751 134.139 196.856 133.889 196.955 133.638L197.1 133.259C197.125 133.189 197.347 132.55 197.288 132.662L197.274 132.688L197.353 132.504C198.098 130.644 197.797 128.517 196.028 127.35L195.833 127.229C195.255 126.892 194.539 126.733 193.814 126.731C192.008 124.52 189.32 124.013 186.797 124.659L186.708 123.945C186.695 123.826 186.683 123.707 186.675 123.587C184.72 117.106 185.663 109.741 189.482 103.579ZM102.685 38.3289L103.334 38.2279C108.243 37.5186 111.58 38.3353 114.771 42.5299C116.292 44.5289 115.823 47.5479 114.771 49.5909C111.373 56.1919 102.025 54.8269 95.7291 56.1379C89.5821 57.4169 83.4501 59.1579 77.6981 61.6919C71.8291 64.2779 66.3201 67.3369 60.9481 70.8299C56.0891 73.9909 51.6821 78.7419 46.1311 80.5809C45.8811 80.6639 45.5801 80.4399 45.5952 80.1749C45.9911 73.8619 51.2641 68.0669 55.3481 63.5709C60.0721 58.3719 65.8171 53.7559 71.8001 50.0859C77.9741 46.2999 84.6481 43.1829 91.5581 41.0089C95.1971 39.8639 98.9201 38.9539 102.685 38.3289ZM177.461 46.9007C183.641 37.8637 199.004 39.5967 208.069 42.0117C219.435 45.0377 231.751 51.1587 239.721 60.0187C246.86 67.9557 236.179 78.2677 228.151 71.5887L226.009 69.8121L224.638 68.686C218.475 63.6524 212.372 59.0969 204.861 55.7407C196.055 51.8077 187.132 49.8917 177.825 47.7957C177.459 47.7137 177.244 47.2177 177.461 46.9007Z" fill="black"/>
</svg>
