<svg width="900" height="900" viewBox="0 0 900 900" fill="none" xmlns="http://www.w3.org/2000/svg">
<path fill-rule="evenodd" clip-rule="evenodd" d="M471.867 458.406C472.214 458.312 472.52 458.778 472.232 459.033C471.055 460.077 470.308 462.023 469.449 463.35C468.632 464.612 467.844 465.861 467.126 467.182C466.32 468.662 465.542 470.137 464.915 471.704L464.791 472.02C464.979 472.466 465.126 472.907 465.234 473.196L465.265 473.279C466.336 476.014 464.088 479.053 461.553 479.818C457.216 481.125 453.495 477.564 453.391 473.328C453.31 469.996 455.568 467.027 457.863 464.825C459.871 462.898 462.119 461.258 464.633 460.057C465.743 459.527 466.895 459.084 468.1 458.827C469.332 458.565 470.661 458.732 471.867 458.406ZM463.693 470.481C464.011 470.631 464.283 470.997 464.511 471.425C464.397 471.062 464.162 470.701 463.693 470.481ZM466.407 424.184C470.183 426.479 475.936 431.83 471.874 437.52C467.093 442.537 460.209 436.785 456.817 434.183C453.671 432.167 450.137 437.353 453.056 439.707C477.568 457.854 487.515 424.784 468.317 421.486C466.203 421.122 465.418 423.474 466.407 424.184ZM435.37 402.146L436.037 402.09C438.931 401.835 441.861 401.447 444.714 402.101C448.548 402.981 448.267 408.558 444.714 409.584C441.583 410.487 438.114 410.096 434.882 410.127C434.373 410.132 433.866 410.145 433.358 410.154C433.258 411.362 432.861 412.404 432.254 413.445C431.819 414.192 431.264 414.902 430.718 415.565C429.421 417.142 426.359 417.107 425.049 415.565C424.08 414.424 423.309 413.112 423.296 411.567C423.293 411.172 423.341 410.752 423.436 410.339L421.671 410.37C417.354 410.435 413.003 410.406 408.764 409.72C407.256 410.032 406.022 407.311 408.104 406.497C413.762 404.284 420.084 403.632 426.088 402.968C429.174 402.626 432.276 402.39 435.37 402.146ZM483.576 399.859L483.73 399.844C487.474 399.461 491.602 398.797 495.354 399.179C500.956 399.748 500.946 407.321 495.354 407.888C493.301 408.096 491.138 407.995 488.981 407.796C490.083 410.135 488.775 412.928 486.119 413.285C483.65 413.617 481.092 411.218 481.902 408.645L481.939 408.531C482.097 408.085 482.239 407.586 482.408 407.093L481.515 407.018C478.844 406.782 475.138 406.299 474.155 404.191C473.858 403.556 473.927 402.966 474.383 402.423C476.255 400.194 480.87 400.121 483.576 399.859ZM443.758 382.52C446.468 381.536 449.285 383.84 449.636 386.436C450.041 389.428 447.883 391.398 445.147 391.756L445.01 391.772C438.972 392.437 432.98 393.653 426.934 394.341C424.188 394.653 421.421 394.858 418.657 394.932L416.682 394.976C414.261 395.037 411.664 395.092 409.429 394.259L409.438 394.244C408.844 394.072 408.571 393.216 409.232 392.748C411.611 391.065 414.819 390.429 417.589 389.63C420.374 388.825 423.179 388.084 425.992 387.387C431.899 385.926 438.035 384.599 443.758 382.52ZM468.751 383.22C469.469 379.434 474.832 379.028 476.801 381.783C478.074 382.22 479.941 382.676 481.097 383.019C483.112 383.616 485.129 384.21 487.15 384.786C491.335 385.978 495.419 387.489 499.533 388.897C499.957 389.043 499.841 389.581 499.433 389.634C493.691 390.382 488.044 390.73 482.267 390.49L481.082 390.436C475.991 390.238 467.349 390.617 468.751 383.22Z" fill="black"/>
</svg>
