<svg width="284" height="284" viewBox="0 0 284 284" fill="none" xmlns="http://www.w3.org/2000/svg">
<path fill-rule="evenodd" clip-rule="evenodd" d="M200.723 208.925L201.548 208.882C207.179 208.562 212.647 207.739 217.677 210.894C224.363 215.087 224.393 224.623 217.677 228.808C212.393 232.103 206.651 231.021 200.723 230.867C195.841 230.74 190.958 230.652 186.075 230.6C176.316 230.498 166.563 230.474 156.803 230.523C147.998 230.567 139.185 230.464 130.382 230.252L126.61 230.154C117.581 229.906 108.127 230.218 99.2328 228.46L98.8508 228.394L98.8618 228.375C97.3208 227.857 96.5058 225.4 98.3478 224.546C107.173 220.455 117.262 218.74 126.739 216.794C136.335 214.826 146.096 213.404 155.828 212.29C165.547 211.18 175.337 210.396 185.1 209.773C190.304 209.439 195.513 209.164 200.723 208.925ZM171.19 83.2041L171.833 82.773C178.901 78.106 189.058 73.6121 197.203 77.1551C197.663 77.3551 198.052 77.6161 198.39 77.9161C200.389 77.9551 202.401 78.1211 204.419 78.4251C220.362 80.8281 235.094 91.2911 242.297 105.696C250.484 122.069 246.595 139.323 232.108 150.459C224.99 155.93 216.625 159.869 207.62 160.757C204.676 161.047 201.556 161.104 198.73 160.212C200.068 163.06 201.086 166.037 201.61 169.177C203.403 179.927 199.139 188.791 189.126 193.433C180.327 197.514 168.149 199.078 159.447 193.927C152.091 189.575 154.5 175.167 164.179 176.458C170.713 177.329 176.603 179.51 183.06 176.724C188.323 174.455 185.13 166.796 183.544 162.767C180.89 156.034 176.986 149.695 173.819 143.157L173.235 141.929C171.244 137.666 168.771 133.162 166.878 128.568C165.836 133.964 163.967 139.259 161.765 144.161C156.539 155.793 146.423 162.91 134.37 166.243C121.978 169.668 107.435 170.463 94.6585 170.042C81.6645 169.615 67.9845 166.21 58.4775 156.792C41.0615 139.539 46.0635 109.353 64.3905 94.9321C76.2455 85.6031 92.9495 79.2101 108.29 80.8661C115.974 79.1371 124.568 80.1191 132.256 81.8611C142.658 84.2181 152.589 89.2631 159.389 97.2981C159.893 96.0341 160.475 94.8231 161.141 93.6671C160.841 93.5291 160.655 93.0851 160.951 92.8191C161.493 92.3321 162.05 91.8651 162.607 91.3971C164.822 88.2911 167.683 85.5861 171.19 83.2041ZM45.1715 164.066C44.5455 163.178 45.7695 162.026 46.6475 162.591C53.8415 167.23 61.3725 171.447 69.6215 173.905C77.6795 176.306 86.0565 176.058 94.1505 178.11C97.1925 178.881 96.7095 182.836 94.1505 183.805C85.2425 187.181 75.1915 184.348 66.7285 180.765C58.1425 177.131 50.5845 171.726 45.1715 164.066ZM93.4535 89.9601L93.6685 89.7011L93.1455 89.8751C83.0635 93.2691 74.7615 98.8651 68.0135 107.034C56.5135 120.955 56.3765 143.09 73.5725 152.498C82.8435 157.569 93.7875 157.808 104.082 157.271L106.163 157.16C115.2 156.661 124.422 155.922 133.143 153.478C142.654 150.812 149.262 145.064 152.901 135.801L153.203 135.02C156.833 125.486 158.723 114.883 151.984 106.253C140.568 91.6361 114.189 88.7161 97.8845 95.7031C93.9795 97.3761 90.8455 93.2931 93.4535 89.9601ZM198.086 86.0381C197.815 86.3021 197.525 86.5431 197.203 86.7381C193.93 88.7011 190.249 88.7211 186.621 89.6211C183.279 90.4501 180.008 91.4621 176.932 93.0271C172.1 95.4821 167.117 98.4191 162.549 101.622C163.528 103.186 164.404 104.837 165.155 106.585C167.229 111.416 167.928 116.503 167.71 121.611C170.893 124.365 173.554 127.79 176.371 130.885L178.855 133.618C181.753 136.815 184.632 140.048 187.329 143.403C188.932 145.397 190.559 147.439 192.122 149.541C192.327 148.914 192.616 148.3 193.021 147.717C194.544 145.521 196.895 144.412 199.582 145.047C201.934 145.605 203.506 146.669 205.963 146.685C208.972 146.705 211.872 146.057 214.72 145.128C220.318 143.302 225.804 140.021 229.898 135.771C239.138 126.176 234.263 112.655 227.055 103.515C219.754 94.2561 209.269 88.2441 198.086 86.0381ZM115.793 109.084C118.759 108.228 123.172 109.578 124.477 112.618L125.413 114.831C125.384 114.765 125.361 114.714 125.334 114.654C125.665 115.438 125.982 116.195 126.236 116.999L127.113 117.679C127.862 118.51 128.555 119.387 129.191 120.312C130.695 122.882 131.131 126.173 130.361 129.053C129.09 133.812 124.72 136.867 119.872 136.897C105.681 136.98 102.203 113.008 115.793 109.084ZM201.404 104.777C207.961 104.484 212.328 110.275 212.851 116.224C213.149 119.61 212.464 123.312 211.493 126.55C210.045 131.381 205.441 134.408 200.477 133.742C196.526 133.211 193.036 130.207 192.051 126.346C190.753 123.162 190.02 119.659 189.957 116.224C189.837 109.81 195.297 105.05 201.404 104.777ZM114.875 51.2474C121.525 50.1754 127.878 53.4074 128.845 60.5544C129.819 67.7634 124.51 72.5274 117.851 73.2354C105.297 74.5694 92.4792 74.8864 79.8652 75.4374C74.6041 75.6663 69.3363 75.7636 64.0702 75.8101L61.4372 75.8294C56.5392 75.8584 50.1522 76.8254 45.7262 74.4144C45.4382 74.2584 45.4492 73.9034 45.6322 73.6794C48.7424 69.8498 55.1731 68.2179 59.7698 66.5312L60.1592 66.3864C65.9782 64.1914 71.8622 62.1364 77.8242 60.3574L80.8538 59.4587C91.9926 56.178 103.454 53.0917 114.875 51.2474ZM157.088 47.7411C161.198 46.1961 165.254 47.1591 168.049 49.7721C177.396 52.3745 187.016 54.3686 196.424 56.647L198.984 57.2761C210.778 60.2191 223.738 62.4871 234.706 67.8821C235.87 68.4551 235.138 69.9411 234.114 70.0661C221.896 71.5501 208.733 69.1911 196.586 67.7711C184.141 66.3161 171.633 63.9161 159.151 62.9761C150.192 62.3011 148.89 50.8241 157.088 47.7411Z" fill="black"/>
</svg>
