<svg width="788" height="788" viewBox="0 0 788 788" fill="none" xmlns="http://www.w3.org/2000/svg">
<path fill-rule="evenodd" clip-rule="evenodd" d="M556.332 338.382C574.459 326.756 599.193 297.091 585.136 274.596C579.427 265.799 571.642 262.492 563.096 262.227C561.059 259.671 557.674 258.922 554.515 258.904L554.533 258.769C542.985 258.981 531.636 263.026 522.348 269.78C516.36 264.519 508.923 261.527 501.719 258.292C504.74 243.097 509.35 228.275 514.585 213.709C517.41 205.322 508.461 196.487 500.023 199.021C502.099 189.929 497.329 179.369 486.939 179.486C481.384 179.486 475.098 182.464 469.726 183.806C465.747 184.8 461.828 185.82 457.988 187.117C457.97 187.013 457.96 186.908 457.949 186.802C468.013 179.756 467.662 163.534 452.873 165.107C446.564 165.664 440.15 169.958 434.316 172.58C424.699 173.159 415.463 176.215 406.115 178.408C380.536 184.753 353.17 191.129 332.097 207.229C295.598 221.295 250.202 243.04 245.68 286.023C181.395 261.151 132.832 340.573 191.13 371.826C202.57 377.159 215.794 379.92 228.309 377.355C225.352 388.291 222.526 399.264 219.881 410.281C197.618 461.432 179.618 515.489 186.093 571.631C186.188 581.816 199.268 587.691 206.498 580.083C212.479 572.867 219.736 581.302 217.786 588.269C215.938 596.008 221.387 603.113 229.313 603.4C238.798 603.897 246.332 597.536 253.044 591.661C252.915 591.788 253.221 591.595 253.667 591.294C270.229 630.357 285.747 599.984 306.16 617.56C310.93 621.966 314.277 627.186 320.388 630.052C334.72 637.313 346.036 624.37 359.726 622.876C372.381 621.944 384.894 626.325 397.029 629.273C411.2 632.714 425.488 634.516 440.045 632.902C458.658 630.836 495.794 622.426 506.784 615.501C520.25 624.539 534.107 613.819 541.509 601.476C546.686 606.46 556.481 607.224 560.641 599.538C564.779 590.967 572.513 577.867 581.407 579.808C582.201 580.051 582.666 580.203 583.151 580.555C591.464 587.622 602.196 582.257 603.412 571.986C611.292 505.439 595.218 438.681 573.845 376.055C569.179 362.959 565.308 349.346 556.332 338.382Z" fill="white"/>
<path fill-rule="evenodd" clip-rule="evenodd" d="M548.984 336.542C548.648 335.62 550.06 335.09 550.526 335.892C565.801 362.15 578.011 390.042 588.454 418.534C597.697 443.754 605.894 469.461 611.735 495.695L612.132 497.501C617.626 522.817 620.334 549.598 613.129 574.855L612.781 576.056C611.122 581.674 608.93 587.38 603.805 590.716C599.501 593.519 594.631 593.869 589.675 593.09C585.499 592.433 581.521 590.613 577.336 590.109C574.181 589.73 573.357 591.245 572.438 593.794L571.674 595.952C568.394 605.099 564.39 613.612 553.692 615.539C547.931 616.578 541.672 615.5 536.681 612.472C536.623 612.666 536.565 612.859 536.517 613.045L536.281 613.946C535.237 617.857 533.893 621.833 531.127 624.873C527.263 629.115 521.721 630.619 516.136 629.493C513.598 628.982 511.214 627.829 508.805 626.868C508.216 630.416 504.141 633.307 500.413 632.433C498.396 631.961 496.841 631.043 495.683 629.861C489.924 634.304 482.156 636.577 475.428 638.299C465.685 640.792 455.317 641.816 445.27 641.516C435.072 641.211 424.697 639.248 415.105 635.793L413.606 635.247C405.331 632.194 396.62 628.331 389.916 622.623C388.584 621.968 389.363 619.549 390.951 620.062C400.057 623.006 408.551 626.465 418.108 627.881C427.126 629.217 436.183 629.438 445.27 628.888C454.484 628.331 463.424 626.451 472.217 623.671C479.869 621.252 487.406 616.884 495.532 616.313C495.956 615.726 496.416 615.159 496.947 614.642C503.976 607.815 511.097 611.23 519.007 613.716C519.267 613.799 519.34 613.937 519.341 614.072L519.438 613.935L519.5 613.851L519.453 613.909C519.124 614.28 519.783 612.9 519.9 612.618L519.912 612.588C520.821 610.107 521.173 607.441 521.942 604.918C523.776 598.892 527.205 593.379 533.773 591.937C537.015 591.224 541.433 592.31 542.934 595.665C544.17 598.424 546.194 599.822 549.309 599.749C552.562 599.674 553.759 597.777 554.892 594.919C556.735 590.269 557.73 585.431 560.758 581.329C564.163 576.715 569.252 574.021 575.002 573.8C579.433 573.631 583.773 574.923 587.987 576.119L588.375 576.236C590.299 576.839 593.737 578.199 595.24 577.197C597.493 575.694 598.657 566.927 599.309 563.649L599.351 563.443C600.512 557.856 601.186 552.226 601.46 546.527C602.603 522.691 597.689 498.978 592.254 475.907C581.044 428.329 565.7 382.431 548.984 336.542ZM229.575 394.715C229.878 394.261 230.54 394.654 230.303 395.141C229.204 397.402 228.803 399.777 228.061 402.132C227.24 404.739 225.845 407.267 224.81 409.797C223.134 413.894 221.511 418.015 219.874 422.128C216.583 430.398 213.523 438.793 210.623 447.209C204.8 464.116 200.041 481.497 196.56 499.037C193.139 516.27 190.275 534.289 190.384 551.904C190.433 559.915 191.308 568.164 194.487 575.603C194.985 576.77 195.571 577.914 196.191 579.025L196.567 579.688C196.62 579.782 196.676 579.875 196.732 579.967L197.076 580.517C198.08 579.045 200.973 577.096 202.167 576.064L202.333 575.916L207.935 570.734C210.374 568.476 213.893 567.933 216.842 569.584C225.806 574.6 225.516 583.916 227.434 592.709L227.519 593.091C228.354 596.786 229.798 599.857 234.224 599.132C238.842 598.375 241.51 593.681 243.018 589.644L243.212 589.11C245.877 581.595 255.46 581.895 258.219 589.11L259.253 591.842C261.393 597.443 264.308 604.2 269.83 606.417C274.473 608.281 279.793 605.493 284.016 603.763C286.338 602.812 289.048 604.796 289.667 606.972C289.835 607.564 289.948 608.13 290.036 608.687C294.451 608.259 298.677 609.313 303.019 611.318C308.703 613.94 315.849 619.601 316.917 626.162C318.182 633.919 309.198 637.581 304.562 631.371C301.643 627.46 300.586 622.711 297.096 618.994C295.046 616.812 292.497 614.917 289.822 613.306C287.431 621.757 274.011 624.193 266.012 621.691C258.332 619.291 253.241 613.631 249.439 607.011C242.331 613.96 232.468 617.323 222.584 611.261C216.861 607.751 214.193 601.612 213.159 595.235C212.848 593.318 212.83 590.167 212.28 587.399L211.747 587.942C206.919 592.824 201.307 597.415 194.98 596.36C186.687 594.978 182.75 585.748 180.164 578.718C174.786 564.107 175.777 547.859 177.599 532.689C179.595 516.08 182.935 499.628 187.355 483.497C191.666 467.762 197.247 452.492 203.813 437.561C207.16 429.952 211.02 422.53 215.169 415.326C217.253 411.71 219.522 408.193 221.802 404.698C224.155 401.09 227.214 398.248 229.575 394.715ZM179.893 291.898C192.071 280.597 208.353 275.445 224.773 277.769C232.523 278.864 239.903 281.666 246.446 285.989C253.083 290.374 257.383 295.802 261.355 302.591C261.632 303.064 261.003 303.513 260.619 303.158C250.031 293.402 233.998 288.195 219.749 288.745C194.356 289.724 173.304 312.19 174.882 337.795C175.659 350.405 182.747 363.141 193.707 369.63C205.322 376.507 218.543 374.224 230.99 371.196C235.485 370.103 237.749 375.154 235.186 378.404C222.562 394.42 196.604 390.232 182.03 379.216C153.868 357.931 154.831 315.155 179.893 291.898ZM220.784 317.117L221.865 316.931C230.95 315.431 250.292 313.701 253.137 324.787C254.587 330.433 248.979 333.473 244.071 333.223C240.024 333.017 236.102 331.75 232.107 330.89C230.96 334.855 230.57 338.996 230.011 343.078C229.523 346.652 223.774 345.682 223.842 342.244C223.938 337.463 226.159 333.398 229.655 330.431C228.839 330.305 228.019 330.199 227.191 330.143C217.259 329.476 207.446 331.32 198.168 334.726L199.149 335.277C199.617 335.439 199.417 336.064 198.949 336L194.334 336.232C192.403 336.684 191.263 334.478 192.48 333.046C199.63 324.625 209.945 319.05 220.784 317.117ZM552.046 257.768C565.918 256.106 579.698 261.218 587.144 273.422C594.053 284.743 594.652 299.076 589.752 311.242C586.967 318.154 582.761 324.353 577.555 329.683C574.981 332.318 572.031 335.037 568.769 336.78C564.97 338.81 562.142 338.633 558.134 337.888C555.553 337.408 553.772 334.095 554.597 331.66L555.211 329.814C555.882 327.831 556.509 326.362 558.345 324.492C559.947 322.861 561.864 321.54 563.625 320.086C567.412 316.957 570.931 313.465 573.563 309.292C578.374 301.661 580.042 292.89 577.326 284.187C574.411 274.841 566.693 268.788 557.022 267.66C551.53 267.021 545.959 267.599 540.542 268.557L537.241 269.154C532.634 270.007 528.876 270.997 525.699 275.222C525.431 275.577 524.912 275.545 524.757 275.099C523.164 270.51 528.029 266.415 531.474 264.245C537.459 260.48 545.093 258.601 552.046 257.768ZM491.59 252.181C490.911 251.316 491.494 249.562 492.82 250.066C508.272 255.933 521.286 270.218 530.194 283.714C532.89 287.797 535.307 292.037 537.49 296.396C540.605 292.61 545.26 289.871 549.613 288.009L550.096 287.806C555.118 285.72 565.979 282.15 569.055 288.834C570.044 290.985 569.648 293.192 567.914 294.859C565.233 297.435 560.951 296.459 557.606 296.429C550.846 296.371 545.478 298.507 539.496 300.581C540.585 302.955 541.615 305.358 542.574 307.794C543.881 311.107 544.845 314.598 546.43 317.793C547.935 320.83 550.299 323.543 552.317 326.236C555.042 329.87 551.399 336.012 546.958 335.576C537.766 334.672 534.103 327.076 531.572 319.025L530.192 314.621C528.124 308.044 525.995 301.598 522.89 295.341C518.896 287.297 514.131 279.439 508.65 272.318C503.275 265.336 497.006 259.103 491.59 252.181ZM467.664 157.378C473.374 155.25 478.175 162.579 475.332 167.352C472.833 171.544 471.347 175.873 470.765 180.415L495.939 174.417C500.944 173.225 505.679 177.648 504.296 182.775L500.411 197.18C505.431 195.501 510.682 194.506 516.079 194.155C520.704 193.855 523.258 198.629 522.498 202.581C520.911 210.815 518.705 218.898 515.766 226.749L513.618 232.4C511.092 238.98 508.145 245.62 502.055 249.327C499.113 251.118 495.298 248.802 495.284 245.443C495.249 237.31 500.269 230.361 503.059 222.862C504.753 218.31 506.19 213.679 507.41 208.989C502.684 210.326 498.238 212.445 494.039 215.239L493.411 215.663C488.446 219.067 482.21 213.536 483.445 208.228L483.492 208.038L488.236 190.25L465.671 195.695C461.02 196.818 457.449 193.568 457.008 189.096C456.54 184.342 456.841 179.611 457.83 175.029C442.916 179.726 427.696 183.38 412.429 186.793L410.139 187.303C376.634 194.743 342.399 201.312 311.66 217.236C298.085 224.267 285.638 232.591 274.317 242.886C268.723 247.973 263.606 253.571 259.126 259.664C257.025 262.523 255.059 265.481 253.259 268.538L251.817 271.026C251.124 272.227 250.45 273.464 250.038 274.757L249.834 275.405C249.501 276.499 249.14 277.937 249.444 278.896C249.881 280.278 252.383 282.55 254.151 281.928C254.392 281.843 254.514 282.157 254.378 282.32C252.82 284.196 250.626 284.534 248.394 283.591C244.864 282.098 243.984 278.69 244.374 275.134C245.341 266.333 251.465 256.628 256.307 249.444C276.246 219.857 309.056 202.153 342.152 191.061C383.302 177.269 426.921 172.56 467.664 157.378Z" fill="black"/>
</svg>
