<svg width="900" height="900" viewBox="0 0 900 900" fill="none" xmlns="http://www.w3.org/2000/svg">
<path fill-rule="evenodd" clip-rule="evenodd" d="M526.76 379.581C537.112 372.942 551.236 356.001 543.209 343.155C539.949 338.131 535.503 336.243 530.623 336.091C529.459 334.632 527.526 334.204 525.722 334.194L525.733 334.117C519.138 334.238 512.657 336.548 507.353 340.405C503.933 337.4 499.686 335.691 495.572 333.844C497.297 325.167 499.93 316.702 502.92 308.384C504.533 303.595 499.422 298.549 494.604 299.996C495.789 294.804 493.065 288.774 487.132 288.841C483.96 288.841 480.37 290.541 477.302 291.308C475.03 291.875 472.792 292.458 470.599 293.198C470.589 293.139 470.583 293.079 470.577 293.019C476.324 288.995 476.123 279.731 467.678 280.629C464.075 280.947 460.412 283.4 457.081 284.897C451.589 285.228 446.314 286.973 440.976 288.225C426.369 291.848 410.741 295.49 398.707 304.684C377.864 312.716 351.939 325.134 349.357 349.68C312.646 335.477 284.913 380.832 318.205 398.679C324.738 401.725 332.29 403.302 339.437 401.837C337.748 408.082 336.135 414.348 334.624 420.64C321.91 449.85 311.631 480.721 315.329 512.781C315.383 518.598 322.853 521.953 326.982 517.608C330.397 513.487 334.541 518.304 333.428 522.283C332.372 526.702 335.484 530.76 340.01 530.924C345.427 531.207 349.729 527.575 353.562 524.22C353.489 524.292 353.663 524.182 353.918 524.01C363.376 546.318 372.238 528.973 383.895 539.01C386.619 541.526 388.53 544.507 392.02 546.144C400.205 550.29 406.667 542.899 414.485 542.046C421.712 541.513 428.857 544.015 435.787 545.699C443.88 547.664 452.039 548.693 460.352 547.771C470.982 546.591 492.189 541.789 498.465 537.834C506.155 542.995 514.068 536.873 518.295 529.825C521.251 532.671 526.845 533.107 529.221 528.718C531.584 523.823 536 516.343 541.079 517.451C541.533 517.59 541.798 517.677 542.075 517.878C546.823 521.913 552.951 518.85 553.646 512.984C558.146 474.981 548.966 436.858 536.761 401.095C534.096 393.616 531.886 385.842 526.76 379.581Z" fill="white"/>
<path fill-rule="evenodd" clip-rule="evenodd" d="M522.564 378.531C522.373 378.004 523.179 377.701 523.445 378.159C532.168 393.154 539.141 409.083 545.104 425.353C550.383 439.756 555.064 454.436 558.399 469.417L558.626 470.449C561.764 484.906 563.31 500.2 559.195 514.623L558.997 515.309C558.049 518.517 556.798 521.776 553.871 523.681C551.413 525.281 548.632 525.481 545.802 525.036C543.417 524.661 541.145 523.622 538.755 523.334C536.954 523.118 536.483 523.983 535.958 525.438L535.522 526.671C533.649 531.894 531.362 536.756 525.253 537.856C521.963 538.45 518.389 537.834 515.539 536.105C515.505 536.216 515.472 536.326 515.445 536.432L515.31 536.947C514.714 539.18 513.946 541.451 512.367 543.187C510.16 545.609 506.995 546.468 503.806 545.825C502.357 545.533 500.995 544.875 499.62 544.326C499.283 546.352 496.956 548.003 494.827 547.504C493.675 547.234 492.787 546.71 492.126 546.035C488.837 548.572 484.401 549.87 480.559 550.854C474.995 552.277 469.074 552.862 463.337 552.691C457.513 552.517 451.588 551.396 446.111 549.423L445.255 549.111C440.529 547.367 435.555 545.161 431.726 541.902C430.965 541.528 431.41 540.146 432.317 540.439C437.517 542.12 442.368 544.096 447.826 544.904C452.975 545.667 458.148 545.794 463.337 545.479C468.599 545.161 473.704 544.088 478.725 542.5C483.095 541.119 487.399 538.624 492.04 538.298C492.282 537.963 492.545 537.639 492.848 537.344C496.862 533.445 500.928 535.396 505.446 536.815C505.594 536.863 505.636 536.941 505.636 537.019L505.692 536.94L505.727 536.892L505.7 536.925C505.512 537.137 505.889 536.349 505.956 536.188L505.962 536.171C506.481 534.754 506.683 533.232 507.122 531.791C508.169 528.35 510.127 525.201 513.878 524.378C515.729 523.971 518.252 524.591 519.109 526.507C519.815 528.082 520.971 528.881 522.75 528.839C524.608 528.796 525.291 527.713 525.938 526.081C526.991 523.425 527.559 520.663 529.288 518.32C531.233 515.685 534.139 514.147 537.422 514.021C539.953 513.924 542.431 514.662 544.838 515.345L545.059 515.412C546.158 515.756 548.121 516.533 548.98 515.96C550.266 515.102 550.931 510.096 551.303 508.224L551.327 508.106C551.99 504.915 552.375 501.7 552.532 498.446C553.184 484.834 550.378 471.292 547.274 458.117C540.873 430.947 532.11 404.736 522.564 378.531ZM340.161 411.751C340.334 411.492 340.712 411.716 340.577 411.994C339.949 413.286 339.72 414.642 339.296 415.987C338.827 417.476 338.031 418.919 337.44 420.364C336.483 422.704 335.556 425.057 334.621 427.406C332.742 432.129 330.994 436.923 329.338 441.729C326.013 451.384 323.295 461.309 321.307 471.326C319.353 481.167 317.718 491.457 317.78 501.516C317.808 506.091 318.308 510.802 320.123 515.05C320.408 515.717 320.742 516.37 321.096 517.004L321.311 517.383C321.341 517.437 321.373 517.49 321.405 517.542L321.602 517.856C322.175 517.016 323.827 515.903 324.509 515.313L324.604 515.229L327.803 512.27C329.196 510.98 331.205 510.67 332.889 511.613C338.008 514.477 337.843 519.797 338.938 524.819L338.987 525.037C339.464 527.147 340.288 528.901 342.816 528.487C345.453 528.055 346.976 525.374 347.838 523.069L347.948 522.764C349.47 518.472 354.943 518.643 356.518 522.764L357.109 524.324C358.331 527.522 359.996 531.381 363.149 532.647C365.801 533.711 368.839 532.119 371.25 531.131C372.576 530.588 374.124 531.721 374.477 532.964C374.573 533.302 374.638 533.625 374.688 533.943C377.209 533.699 379.623 534.301 382.102 535.446C385.348 536.943 389.429 540.176 390.039 543.923C390.761 548.352 385.631 550.444 382.983 546.897C381.316 544.664 380.713 541.952 378.72 539.829C377.549 538.583 376.093 537.501 374.566 536.581C373.2 541.407 365.537 542.798 360.969 541.369C356.583 539.999 353.676 536.767 351.504 532.986C347.445 536.955 341.813 538.875 336.168 535.413C332.9 533.409 331.377 529.903 330.786 526.261C330.609 525.167 330.598 523.367 330.284 521.786L329.98 522.097C327.223 524.885 324.018 527.506 320.405 526.904C315.669 526.115 313.421 520.844 311.944 516.829C308.873 508.485 309.439 499.207 310.479 490.543C311.619 481.059 313.526 471.663 316.05 462.452C318.512 453.466 321.699 444.746 325.449 436.219C327.36 431.874 329.565 427.635 331.934 423.521C333.124 421.456 334.42 419.448 335.722 417.452C337.066 415.392 338.813 413.769 340.161 411.751ZM311.789 353.036C318.744 346.582 328.042 343.64 337.419 344.967C341.844 345.593 346.059 347.193 349.795 349.661C353.585 352.166 356.041 355.265 358.309 359.142C358.467 359.412 358.108 359.669 357.889 359.466C351.843 353.895 342.687 350.921 334.55 351.235C320.048 351.794 308.026 364.624 308.927 379.246C309.371 386.447 313.419 393.72 319.678 397.426C326.311 401.353 333.861 400.049 340.969 398.32C343.536 397.696 344.829 400.581 343.365 402.437C336.156 411.583 321.332 409.191 313.009 402.9C296.927 390.745 297.477 366.317 311.789 353.036ZM335.141 367.438L335.758 367.331C340.946 366.475 351.992 365.487 353.616 371.818C354.444 375.042 351.242 376.778 348.439 376.635C346.128 376.518 343.888 375.794 341.607 375.303C340.952 377.567 340.729 379.932 340.41 382.263C340.131 384.304 336.848 383.75 336.887 381.787C336.942 379.056 338.21 376.735 340.206 375.041C339.74 374.969 339.272 374.908 338.799 374.876C333.128 374.495 327.524 375.548 322.225 377.494L322.786 377.808C323.053 377.901 322.939 378.258 322.671 378.221L320.036 378.354C318.933 378.612 318.282 377.352 318.977 376.534C323.06 371.725 328.951 368.541 335.141 367.438ZM524.313 333.545C532.235 332.596 540.104 335.516 544.356 342.485C548.302 348.95 548.644 357.135 545.846 364.083C544.255 368.03 541.853 371.57 538.88 374.614C537.41 376.118 535.726 377.671 533.863 378.666C531.693 379.826 530.078 379.725 527.79 379.299C526.316 379.025 525.299 377.133 525.77 375.743L526.12 374.688C526.504 373.556 526.862 372.717 527.91 371.649C528.825 370.718 529.92 369.963 530.925 369.133C533.088 367.346 535.098 365.352 536.601 362.969C539.348 358.611 540.301 353.602 538.75 348.632C537.085 343.295 532.677 339.839 527.155 339.194C524.018 338.829 520.837 339.16 517.743 339.707L515.858 340.048C513.228 340.535 511.081 341.1 509.267 343.513C509.114 343.716 508.818 343.697 508.729 343.443C507.82 340.822 510.598 338.483 512.565 337.244C515.983 335.094 520.342 334.021 524.313 333.545ZM489.789 330.355C489.401 329.861 489.734 328.859 490.491 329.147C499.315 332.497 506.747 340.655 511.834 348.362C513.374 350.694 514.754 353.115 516.001 355.605C517.779 353.442 520.438 351.878 522.924 350.815L523.199 350.699C526.067 349.508 532.27 347.469 534.026 351.286C534.591 352.515 534.365 353.775 533.375 354.727C531.844 356.198 529.398 355.641 527.488 355.623C523.628 355.59 520.562 356.81 517.146 357.994C517.768 359.35 518.356 360.722 518.904 362.114C519.65 364.005 520.201 365.999 521.106 367.824C521.965 369.558 523.315 371.107 524.468 372.645C526.024 374.72 523.944 378.228 521.407 377.979C516.158 377.463 514.066 373.125 512.621 368.527L511.833 366.012C510.652 362.256 509.436 358.575 507.663 355.002C505.382 350.408 502.661 345.921 499.531 341.854C496.462 337.867 492.882 334.308 489.789 330.355ZM476.125 276.216C479.386 275.001 482.128 279.186 480.504 281.912C479.077 284.306 478.229 286.778 477.896 289.372L492.272 285.946C495.13 285.266 497.834 287.792 497.045 290.719L494.826 298.946C497.693 297.987 500.691 297.419 503.773 297.218C506.415 297.047 507.873 299.773 507.439 302.03C506.533 306.732 505.273 311.348 503.595 315.831L502.368 319.059C500.926 322.816 499.243 326.608 495.765 328.725C494.085 329.748 491.906 328.425 491.898 326.507C491.878 321.863 494.745 317.894 496.338 313.612C497.306 311.012 498.126 308.368 498.823 305.689C496.124 306.453 493.585 307.663 491.187 309.259L490.829 309.501C487.993 311.445 484.432 308.286 485.137 305.255L485.164 305.146L487.873 294.988L474.987 298.098C472.331 298.739 470.292 296.883 470.04 294.329C469.773 291.614 469.945 288.913 470.509 286.296C461.993 288.978 453.301 291.065 444.582 293.014L443.275 293.305C424.141 297.554 404.591 301.305 387.037 310.399C379.285 314.414 372.176 319.168 365.711 325.047C362.517 327.952 359.595 331.149 357.036 334.628C355.837 336.261 354.714 337.95 353.686 339.696L352.862 341.117C352.467 341.802 352.082 342.509 351.847 343.247L351.73 343.617C351.54 344.242 351.334 345.063 351.507 345.611C351.757 346.4 353.186 347.698 354.195 347.342C354.333 347.294 354.403 347.473 354.325 347.566C353.435 348.638 352.182 348.831 350.908 348.292C348.892 347.439 348.389 345.493 348.612 343.463C349.164 338.437 352.661 332.894 355.427 328.792C366.813 311.896 385.55 301.786 404.45 295.451C427.949 287.575 452.858 284.886 476.125 276.216Z" fill="black"/>
</svg>
