<svg width="788" height="788" viewBox="0 0 788 788" fill="none" xmlns="http://www.w3.org/2000/svg">
<path fill-rule="evenodd" clip-rule="evenodd" d="M556.263 331.318C567.641 323.146 550.675 296.259 544.911 288.259C539.897 277.823 534.883 267.386 529.868 256.949C530.478 248.39 522.12 240.775 513.861 243.379C506.676 238.226 494.642 240.693 490.99 248.761C411.543 214.159 274.077 228.554 266.968 335.326C251.6 365.726 236.368 396.386 222.733 427.607C203.815 428.623 194.645 451.606 205.908 466.459C207.407 490.578 222.698 492.487 243.112 491.414C251.31 493.573 259.808 494.743 265.956 501.074C270.629 505.849 273.805 511.904 276.87 517.779C291.015 544.885 308.986 568.333 333.346 587.084C371.229 615.435 422.511 635.79 469.749 621.989C571.306 582.107 591.25 422.721 556.263 331.318Z" fill="white"/>
<path fill-rule="evenodd" clip-rule="evenodd" d="M344.319 175.993C410.669 160.583 485.209 181.263 531.259 232.213C534.499 235.793 534.149 240.453 531.299 243.473C532.629 244.553 533.929 245.663 535.249 246.773C536.629 247.943 536.429 250.293 535.249 251.483C534.079 252.653 531.649 252.893 530.539 251.483L528.896 249.415C528.078 248.382 527.269 247.345 526.489 246.283C525.539 246.633 524.609 247.003 523.679 247.363C537.749 256.713 549.48 269.133 557.52 284.083C566.22 300.253 571.769 317.513 575.379 335.473C581.815 367.511 582.748 400.369 581.887 432.948L581.839 434.693C580.729 473.963 576.899 513.883 560.339 549.993C547.059 578.933 523.459 605.543 493.869 618.213C476.829 625.503 458.509 628.613 439.999 627.313C430.239 626.633 420.509 625.093 411.009 622.743L408.727 622.176C400.073 620.009 391.098 617.496 383.709 612.543C376.129 607.453 381.239 597.343 389.599 598.573C399.669 600.063 409.259 604.263 419.249 606.443C429.019 608.583 438.909 609.703 448.919 609.413C466.629 608.913 482.759 603.473 497.399 593.593C553.369 555.803 560.169 479.823 561.629 418.423C562.339 388.423 561.239 358.033 554.339 328.723C547.709 300.543 536.299 272.793 520.149 248.723C516.589 250.053 513.029 251.163 509.239 251.513C502.484 255.574 494.45 255.682 486.638 255.683L485.549 255.683C477.419 255.673 469.289 255.193 461.199 254.463C432.569 251.923 403.109 245.483 374.329 249.583L373.154 249.755C361.304 251.537 346.619 255.277 337.919 263.803C328.519 273.003 334.819 290.413 342.259 295.943C347.069 299.523 348.569 307.583 342.259 310.833C329.799 317.263 299.639 313.693 296.249 317.253C292.18 321.509 292.465 327.994 292.348 333.516L292.34 333.883C291.92 349.603 292.309 365.273 293.639 380.953C294.919 396.113 297.829 411.303 298.479 426.503C298.699 431.513 292.65 433.033 289.34 430.283C288.69 429.743 288.019 429.233 287.349 428.773C281.339 424.513 274.509 422.713 267.179 421.573C266.794 421.512 266.494 421.32 266.277 421.066L266.189 420.953L265.409 421.593C266.929 423.483 268.229 425.623 269.259 428.023C269.469 428.503 269.019 429.113 268.489 428.793C258.349 422.763 247.309 420.203 235.639 422.643C225.139 424.833 215.639 431.493 212.559 442.153C209.729 451.963 211.809 463.273 218.159 471.343C227.549 483.303 242.799 482.223 256.479 482.773C259.159 482.883 262.149 484.183 263.399 486.743C264.869 489.763 264.769 491.823 263.399 494.833C263.209 495.263 262.959 495.653 262.669 496.003C263.828 496.961 264.924 498.01 265.992 499.079L269.564 502.677C272.007 505.144 274.437 507.633 276.779 510.183C283.659 517.683 290.129 525.663 296.219 533.813L296.782 534.574C303.916 544.332 311.315 558.424 323.679 561.503C327.919 562.563 331.859 564.653 333.119 569.243C334.379 573.833 331.409 578.283 327.419 580.203C320.499 583.533 311.719 579.573 306.009 575.373C293.696 566.302 285.65 551.504 278.087 538.477L276.016 534.917C272.121 528.195 268.316 521.394 265.069 514.333C263.219 510.303 261.229 506.303 259.509 502.213C259.009 501.023 258.509 499.813 258.119 498.573C257.569 498.693 257.009 498.773 256.479 498.803C239.969 499.883 220.959 497.263 209.029 484.733C192.579 467.463 190.649 436.583 209.339 420.103C211.309 418.363 213.529 416.833 215.929 415.523C212.589 409.873 210.379 403.323 208.749 397.173C206.369 388.193 205.039 379.043 204.379 369.783C203.049 350.893 205.259 331.663 209.799 313.313C226.259 246.803 276.799 191.673 344.319 175.993ZM224.75 451.983C221.483 433.034 259.399 447.046 267.668 448.367L267.91 448.403C277.394 449.719 272.108 466.355 262.774 461.4L262.49 461.243C257.44 458.349 251.886 456.275 246.59 453.824L245.46 453.293C241.25 451.273 227.34 442.203 225.83 451.983C225.75 452.523 224.84 452.513 224.75 451.983Z" fill="black"/>
</svg>
