<svg width="900" height="900" viewBox="0 0 900 900" fill="none" xmlns="http://www.w3.org/2000/svg">
<path fill-rule="evenodd" clip-rule="evenodd" d="M516.734 356.552C523.232 351.885 513.543 336.531 510.252 331.962C507.388 326.002 504.525 320.042 501.661 314.082C502.009 309.194 497.236 304.846 492.52 306.333C488.417 303.39 481.545 304.799 479.459 309.406C434.09 289.646 355.587 297.867 351.528 358.84C342.752 376.201 334.053 393.71 326.267 411.539C315.463 412.119 310.227 425.244 316.658 433.726C317.514 447.5 326.247 448.59 337.904 447.977C342.586 449.21 347.439 449.878 350.95 453.493C353.618 456.22 355.432 459.678 357.182 463.033C365.26 478.512 375.523 491.903 389.434 502.611C411.068 518.801 440.353 530.425 467.329 522.544C525.325 499.769 536.714 408.749 516.734 356.552Z" fill="white"/>
<path fill-rule="evenodd" clip-rule="evenodd" d="M395.7 267.851C433.59 259.051 476.158 270.861 502.455 299.957C504.306 302.001 504.106 304.662 502.478 306.387C503.238 307.004 503.98 307.638 504.734 308.271C505.522 308.94 505.408 310.282 504.734 310.961C504.066 311.629 502.678 311.766 502.044 310.961L501.106 309.78C500.639 309.19 500.177 308.598 499.731 307.992C499.189 308.191 498.658 308.403 498.127 308.608C506.162 313.948 512.861 321.04 517.452 329.578C522.42 338.812 525.589 348.669 527.651 358.925C531.326 377.221 531.859 395.985 531.367 414.59L531.34 415.586C530.706 438.012 528.519 460.809 519.062 481.43C511.478 497.957 498.001 513.153 481.103 520.388C471.372 524.551 460.91 526.327 450.34 525.585C444.766 525.197 439.21 524.317 433.785 522.975L432.481 522.651C427.539 521.414 422.414 519.979 418.195 517.15C413.866 514.244 416.784 508.47 421.558 509.172C427.309 510.023 432.785 512.422 438.49 513.667C444.069 514.889 449.717 515.528 455.434 515.363C465.547 515.077 474.759 511.971 483.119 506.329C515.082 484.748 518.965 441.358 519.799 406.295C520.204 389.163 519.576 371.808 515.635 355.07C511.849 338.978 505.333 323.131 496.111 309.385C494.078 310.145 492.045 310.778 489.88 310.978C486.023 313.297 481.435 313.359 476.974 313.36H476.352C471.709 313.354 467.066 313.08 462.446 312.663C446.097 311.212 429.273 307.535 412.838 309.876L412.167 309.974C405.4 310.992 397.014 313.128 392.045 317.997C386.677 323.25 390.275 333.193 394.524 336.351C397.271 338.395 398.127 342.998 394.524 344.854C387.408 348.526 370.185 346.487 368.249 348.52C365.925 350.951 366.088 354.654 366.021 357.807L366.017 358.017C365.777 366.994 365.999 375.943 366.759 384.897C367.49 393.554 369.151 402.229 369.523 410.909C369.648 413.77 366.194 414.638 364.304 413.068C363.932 412.759 363.549 412.468 363.167 412.205C359.734 409.773 355.834 408.745 351.648 408.094C351.428 408.059 351.257 407.949 351.133 407.804L351.083 407.74L350.637 408.105C351.505 409.184 352.248 410.407 352.836 411.777C352.956 412.051 352.699 412.4 352.396 412.217C346.606 408.773 340.301 407.311 333.637 408.705C327.641 409.955 322.215 413.759 320.457 419.846C318.84 425.448 320.028 431.907 323.655 436.516C329.017 443.346 337.726 442.729 345.538 443.043C347.068 443.106 348.776 443.848 349.49 445.31C350.329 447.035 350.272 448.211 349.49 449.93C349.381 450.176 349.238 450.398 349.073 450.598C349.735 451.145 350.36 451.744 350.97 452.355L353.01 454.409C354.405 455.818 355.793 457.24 357.13 458.696C361.059 462.979 364.754 467.536 368.232 472.19L368.553 472.625C372.627 478.197 376.853 486.245 383.913 488.003C386.335 488.608 388.585 489.802 389.304 492.423C390.024 495.044 388.328 497.585 386.049 498.682C382.097 500.584 377.083 498.322 373.823 495.924C366.791 490.744 362.196 482.293 357.877 474.854L356.695 472.821C354.47 468.982 352.297 465.098 350.443 461.066C349.387 458.764 348.25 456.48 347.268 454.145C346.983 453.465 346.697 452.774 346.474 452.066C346.16 452.134 345.84 452.18 345.538 452.197C336.109 452.814 325.254 451.318 318.441 444.162C309.047 434.3 307.945 416.665 318.618 407.254C319.743 406.261 321.01 405.387 322.381 404.639C320.474 401.412 319.212 397.672 318.281 394.16C316.922 389.032 316.162 383.806 315.785 378.518C315.026 367.731 316.288 356.749 318.88 346.27C328.28 308.289 357.142 276.806 395.7 267.851ZM327.418 425.46C325.553 414.639 347.205 422.641 351.927 423.395L352.066 423.415C357.482 424.167 354.463 433.667 349.133 430.838L348.97 430.748C346.087 429.095 342.915 427.911 339.891 426.511L339.245 426.208C336.841 425.054 328.897 419.875 328.035 425.46C327.989 425.768 327.47 425.763 327.418 425.46Z" fill="black"/>
</svg>
