<svg width="788" height="788" viewBox="0 0 788 788" fill="none" xmlns="http://www.w3.org/2000/svg">
<path fill-rule="evenodd" clip-rule="evenodd" d="M606.617 538.844C602.653 532.982 593.108 490.442 587.011 483.899C587.471 458.769 594.418 371.762 574.575 332.65C578.749 328.429 589.841 292.074 587.011 278.331C596.359 249.549 536.306 203.836 513.451 191.483C407.23 134.524 253.308 197.397 205.001 302.912C175.972 366.457 175.437 437.603 172.155 505.978C171.767 520.614 170.422 535.364 170.437 549.982C172.536 562.827 182.721 575.908 175 586.589C166.471 592.488 149.233 606.86 156.908 615.01C161.406 618.755 168.591 616.582 173.472 620.183C175.957 621.573 177.507 624.62 180.413 625.083C206.959 624.075 225.691 623.989 252.319 622.913C263.976 622.531 281.727 627.462 295.107 617.646C341.845 643.642 322.295 605.927 331.746 579.075C360.526 588.806 417.856 619.837 448.533 620.839C473.462 623.92 496.773 609.402 521.281 612.707C551.728 624.018 587.41 626.533 615.299 607.395C622.259 602.383 630.002 608.189 638.774 602.776C655.823 594.623 615.221 547.889 606.617 538.844Z" fill="white"/>
<path fill-rule="evenodd" clip-rule="evenodd" d="M571.822 329.312C571.444 327.141 574.435 325.522 575.592 327.722C583.997 343.703 587.364 362.211 590.341 379.863C593.348 397.701 595.335 415.613 595.445 433.721C595.529 447.65 594.264 461.74 591.889 475.679L592.178 476.671C592.711 478.493 593.25 480.314 593.794 482.133L594.614 484.861C596.2 490.099 597.702 495.361 599.331 500.586C602.732 511.491 606.313 522.427 610.699 532.98C614.979 543.278 620.184 553.209 626.371 562.491C632.334 571.439 641.797 579.005 645.998 588.943C647.462 592.406 645.297 596.984 641.253 596.431C640.99 596.748 640.589 596.978 640.045 597.026C636.905 597.3 633.962 597.039 630.829 596.745C629.08 596.581 629.083 594.19 630.829 594.026C632.16 593.901 633.456 593.791 634.751 593.716C625.791 588.407 619.399 578.04 614.288 569.553C607.72 558.649 602.759 546.735 598.715 534.687C594.562 522.317 591.621 509.689 589.258 496.867C588.987 495.391 588.729 493.914 588.481 492.435C585.495 505.128 581.65 517.589 577.093 529.565L576.455 531.232C565.949 558.466 551.721 585.961 528.056 603.961C526.982 604.777 525.885 605.552 524.779 606.31L526.125 607.082C527.465 607.847 528.785 608.581 530.076 609.183C534.858 611.414 540.049 613.115 545.184 614.32C555.79 616.811 566.928 616.097 577.748 616.444C581.297 616.558 583.316 621.879 579.688 623.607C567.737 629.298 554.829 628.09 542.493 624.086C536.389 622.103 530.661 619.328 525.362 615.705C523.171 614.208 520.627 612.36 518.479 610.224C494.812 623.466 465.396 624.948 439.054 620.212C425.365 617.75 412.1 613.255 400.429 605.566C389.203 598.172 381.201 588.81 375.488 576.681C374.981 575.606 376.39 574.267 377.255 575.318C395.2 597.113 426.082 606.207 453.25 607.937C467.746 608.861 482.575 608.093 496.512 603.756C509.733 599.64 521.077 592.096 530.549 582.063C549.748 561.726 561.252 534.06 569.514 507.731C578.502 479.088 582.782 448.952 583.665 418.976C584.112 403.789 583.549 388.474 581.164 373.455C578.798 358.56 574.407 344.144 571.822 329.312ZM302.771 200.282C304.042 199.636 304.937 201.317 303.859 202.144C281.482 219.305 261.442 241.065 245.222 264.096C215.309 306.573 196.125 355.727 187.291 406.803C182.075 436.966 180.713 467.586 181.234 498.151C181.441 510.292 182.134 522.397 182.905 534.505L183.776 547.927C184.181 554.18 184.518 560.38 184.257 566.664L184.186 568.116C183.772 575.428 184.491 582.799 182.657 589.932C181.716 593.59 176.557 594.166 174.689 590.973C174.323 590.348 173.981 589.703 173.649 589.052C169.271 596.192 163.601 602.575 157.31 608.277C160.317 607.637 163.353 607.229 166.47 607.602C171.411 608.194 175.843 610.102 178.979 613.446C182.092 612.043 185.293 611.077 188.974 611.057C191.685 611.043 193.718 614.248 192.171 616.629C189.085 621.381 184.779 624.045 179.886 626.678C176.419 628.544 172.28 626.948 171 623.258L170.926 623.034C169.485 618.366 161.821 619.12 158.205 619.842L157.141 620.059C150.41 621.46 143.837 623.252 136.98 621.404C132.557 620.211 131.401 613.553 135.665 611.343C149.135 604.363 160.443 594.987 172.064 585.573C169.498 579.282 168.041 572.253 166.361 565.856C163.996 556.852 163.305 547.164 162.451 537.915C160.828 520.33 160.209 502.554 160.383 484.9C160.972 425.272 171.17 365.459 197.219 311.464C208.631 287.811 223.623 265.924 241.344 246.551C258.96 227.292 279.535 212.084 302.771 200.282ZM281.916 492.296C281.225 491.338 282.574 490.071 283.52 490.692C304.001 504.145 318.214 524.573 327.385 547.014C336.463 569.231 342.037 596.444 333.084 619.612C331.659 623.302 324.834 624.672 324.135 619.612C321.014 597.016 320.529 574.388 313.666 552.42C306.862 530.643 295.22 510.701 281.916 492.296ZM266.036 565.652C266.148 565.253 266.8 565.322 266.772 565.752C266.259 573.72 265.911 581.785 264.909 589.709C264.422 593.56 263.778 597.386 263.23 601.228C262.668 605.168 262.753 609.146 260.462 612.511C257.426 616.972 249.36 615.717 249.631 609.578C249.818 605.343 251.764 602.625 253.587 598.908C254.756 596.525 255.775 594.062 256.758 591.587L258.218 587.875C261.12 580.514 263.897 573.277 266.036 565.652ZM229.361 544.545C229.485 543.918 230.496 544.069 230.466 544.694C229.919 555.972 228.647 567.123 226.655 578.236C225.747 583.301 224.688 588.338 223.567 593.361L223.084 595.513C221.886 600.803 221.113 607.022 218.429 611.748C215.747 616.471 209.379 613.041 210.204 608.28C211.168 602.722 214.579 597.131 216.562 591.793C218.392 586.865 219.992 581.85 221.487 576.811C224.634 566.204 227.215 555.398 229.361 544.545ZM297.657 575.855L297.896 575.61C298.828 574.597 300.218 575.272 300.663 576.341C302.485 580.722 301.573 585.888 301.443 590.539L301.419 591.554C301.322 596.265 301.389 600.678 299.253 605.027C296.659 610.308 289.824 607.028 289.295 602.33C288.717 597.203 291.142 592.184 292.708 587.382C293.703 584.33 294.428 581.156 295.941 578.386C294.647 578.609 293.355 579.056 292.172 579.379C291.642 579.522 291.442 578.744 291.948 578.564C293.904 577.872 296.112 577.352 297.657 575.855ZM570.316 591.402C569.691 590.703 570.47 589.772 571.281 590.15C581.021 594.699 590.131 597.658 600.878 598.627C605.535 599.047 605.564 606.363 600.878 605.939C589.662 604.929 577.907 599.9 570.316 591.402ZM227.641 437.709C236.216 418.42 263.344 401.309 281.535 419.247C281.876 419.582 281.529 420.313 281.034 420.108C269.719 415.419 255.867 421.383 248.036 429.913C241.823 436.679 238.09 445.367 237.349 454.524C236.608 463.689 238.799 473.255 244.886 480.344C248.079 484.063 252.391 487.583 257.465 488.03C262.588 488.481 266.858 484.873 271.701 483.893C275.352 483.155 278.108 485.446 278.466 489.045C279.255 496.988 271.347 502.319 264.492 503.614C257.118 505.006 249.592 503.485 243.238 499.489C222.716 486.583 218.289 458.748 227.641 437.709ZM420.186 248.646C423.915 245.082 430.258 248.625 428.882 253.709C425.956 264.529 419.737 273.674 412.847 282.354C406.218 290.705 399.116 298.73 391.504 306.199C383.942 313.619 375.726 320.485 367.091 326.618L364.49 328.46C358.371 332.774 351.888 337.137 345.038 340.244C343.384 354.494 340.148 368.554 335.252 382.015C330.537 394.977 324.537 407.504 317.267 419.227L316.223 420.906C309.543 431.613 301.509 443.578 290.173 449.447C289.833 449.624 289.492 449.732 289.156 449.795C291.692 451.486 293.835 453.613 295.109 456.669C296.505 460.015 293.587 463.172 290.79 464.277C284.875 466.614 279.105 462.658 273.788 458.438C273.563 458.944 273.351 459.455 273.169 459.97C271.98 463.34 271.63 466.784 268.564 469.02C267.107 470.083 265.312 469.132 264.395 467.928C261.389 463.978 264.501 458.597 267.144 455.369C267.51 454.923 267.888 454.499 268.277 454.092C267.16 453.271 266.07 452.543 265.014 451.984C258.805 448.696 249.601 448.113 246.026 455.392C245.752 455.951 244.891 455.662 244.891 455.084C244.9 446.143 254.059 441.287 262.007 440.627C267.814 440.145 273.431 442.182 278.658 444.553L279.633 445.001C281.578 445.904 283.582 446.756 285.5 447.709C285.188 446.886 285.193 445.918 285.684 444.958C291.695 433.219 302.017 423.673 309.461 412.801C316.843 402.015 323.181 390.472 328.24 378.419C333.15 366.72 336.997 354.654 339.687 342.347C338.801 342.53 337.802 341.741 337.865 340.816C338.015 338.578 339.11 336.562 341.033 335.703C343.151 324.127 344.232 312.355 344.169 300.488C344.164 299.568 345.497 299.601 345.575 300.488C346.511 311.039 346.587 321.693 345.8 332.285C350.802 327.683 356.077 323.308 360.893 318.584C368.14 311.476 375.151 304.178 381.914 296.609C388.814 288.887 395.336 280.881 401.3 272.41L404.421 267.968C409.22 261.158 414.149 254.419 420.186 248.646ZM410.777 172.62C451.933 170.051 495.887 175.109 532.855 194.428C553.158 205.037 568.851 221.072 580.064 241.027C586.759 252.943 591.838 266.138 593.762 279.704C595.738 293.643 593.418 306.072 584.518 317.152C580.983 321.552 575.029 316.637 575.9 312.135C581.228 284.591 572.586 257.377 557.259 234.574C535.018 201.484 496.177 186.785 458.36 180.228C439.78 177.008 420.935 175.662 402.085 176.317C387.714 176.817 372.972 178.156 359.334 182.991C358.759 183.195 358.53 182.299 359.084 182.088C375.352 175.875 393.512 173.698 410.777 172.62ZM471.815 234.903C473.934 233.56 476.526 234.938 477.254 237.117C479.822 244.799 474.44 254.948 470.84 261.596C466.766 269.119 461.527 276.153 456.117 282.76C445.294 295.974 431.069 307 415.459 313.93C414.503 314.355 413.389 313.201 414.266 312.385C426.344 301.138 437.295 289.08 446.775 275.553C451.433 268.906 455.318 261.894 459.028 254.691C462.348 248.245 465.47 238.925 471.815 234.903ZM541.032 243.953C542.386 239.225 550.098 240.03 549.779 245.137C548.954 258.33 542.73 271.573 535.967 282.754C529.003 294.267 520.184 304.527 510.075 313.388C509.577 313.825 508.895 313.152 509.346 312.659C518.068 303.111 525.113 292.235 530.33 280.399C535.541 268.58 537.508 256.248 541.032 243.953ZM502.703 241.817C504.178 237.706 511.238 238.011 510.805 242.914C509.615 256.392 501.705 270.517 494.379 281.649C486.605 293.46 476.682 303.865 465.592 312.604C465.177 312.931 464.59 312.389 464.995 312.007C474.956 302.622 483.034 291.781 489.429 279.689C492.693 273.519 495.431 267.094 497.593 260.457C499.593 254.317 500.532 247.869 502.703 241.817Z" fill="black"/>
</svg>
