<svg width="284" height="284" viewBox="0 0 284 284" fill="none" xmlns="http://www.w3.org/2000/svg">
<path fill-rule="evenodd" clip-rule="evenodd" d="M144.882 195.734C154.204 192.394 164.098 193.65 173.502 197.119L174.345 197.435C182.984 200.728 193.54 206.448 197.074 215.381C197.774 217.152 198.102 218.964 198.146 220.767C199.301 220.881 200.446 221.031 201.581 221.23C203.917 221.641 203.807 225.353 201.581 225.841C200.171 226.15 198.735 226.376 197.286 226.545C195.946 230.711 193.173 234.492 189.671 237.144C181.473 243.351 170.175 244.52 160.265 245.469C149.306 246.518 138.293 246.262 127.375 244.935L123.532 244.443C114.591 243.282 104.622 241.788 97.0208 237.005C89.8658 232.504 84.9718 223.813 88.0008 215.372C91.1018 206.728 101.732 203.06 109.622 200.285C120.959 196.297 133.023 194.733 144.882 195.734ZM129.065 224.702C129.176 227.228 129.271 229.756 129.371 232.284C129.401 233.059 129.178 233.759 128.798 234.365C134.22 235.002 139.69 235.302 145.145 235.298C144.147 232.283 144.094 228.821 144.037 225.602C139.042 225.358 134.053 225.068 129.065 224.702ZM149.141 225.838L149.576 227.471C150.25 230.03 150.862 232.662 150.772 235.188C153.315 235.092 155.85 234.94 158.371 234.721L161.587 234.447C162.318 234.385 163.058 234.319 163.804 234.249C163.969 231.631 164.277 228.978 164.551 226.36C159.413 226.221 154.276 226.055 149.141 225.838ZM169.522 226.474C169.756 228.787 169.974 231.152 170.066 233.495C174.194 232.852 178.243 231.851 181.702 230.082C183.442 229.192 184.837 228.116 185.877 226.924C182.383 226.842 178.899 226.665 175.519 226.61C174.852 226.599 174.186 226.585 173.52 226.57L169.522 226.474ZM97.8168 221.153C98.0868 225.98 105.718 229.425 109.647 230.559C113.396 231.642 117.212 232.52 121.067 233.218C120.994 232.895 120.958 232.577 120.984 232.284C121.229 229.56 121.47 226.837 121.727 224.117L119.658 223.953C112.387 223.393 104.825 222.944 97.8168 221.153ZM145.438 202.761C146.049 208.809 146.897 214.823 148.027 220.795L150.096 220.839C155.063 220.918 160.031 220.95 164.999 220.956C165.012 220.712 165.025 220.469 165.034 220.228C165.22 215.176 165.149 210.123 164.964 205.073C158.653 203.68 152.047 203.226 145.438 202.761ZM167.556 205.707C168.109 210.778 168.57 215.858 168.99 220.944L173.343 220.937C174.068 220.935 174.793 220.931 175.519 220.925C179.596 220.887 183.785 220.62 187.969 220.508C187.657 218.324 186.371 216.103 184.001 214.082C178.985 209.805 173.421 207.281 167.556 205.707ZM141.558 201.6C136.762 202.114 132.002 202.956 127.311 204.135C128.536 207.686 128.302 211.75 128.561 215.459C128.676 217.092 128.77 218.726 128.856 220.359C133.874 220.482 138.892 220.6 143.91 220.707C143.75 214.694 143.853 208.682 144.192 202.673L143.645 202.634C142.833 202.576 142.108 202.171 141.558 201.6ZM124.132 204.988C121.939 205.615 119.763 206.311 117.608 207.091L115.257 207.94C109.591 210.005 102.093 212.995 98.9338 217.612C98.4028 218.388 98.0838 219.139 97.9268 219.864C105.87 219.131 114.106 219.87 122.121 220.172C122.23 219.124 122.343 218.076 122.462 217.029L122.646 215.459C123.056 212.068 123.052 208.301 124.132 204.988ZM163.814 132.367C171.366 136.957 182.872 147.661 174.748 159.04C165.186 169.073 151.418 157.569 144.634 152.366C138.343 148.334 131.275 158.705 137.112 163.413C186.136 199.708 206.031 133.568 167.634 126.971C163.406 126.244 161.836 130.947 163.814 132.367ZM71.2565 76.7131C81.9875 58.0631 108.537 57.8481 123.726 72.0901C138.228 85.6891 140.022 108.89 128.439 124.794C116.094 141.744 92.1125 146.433 72.6655 140.392C54.4355 134.729 44.6365 114.95 50.8855 96.8281C54.2655 87.0261 62.0455 80.2491 71.2565 76.7131ZM61.2577 45.4754C70.3267 37.4474 86.8057 29.6944 99.0347 33.6454C106.066 35.9164 109.131 47.2454 101.282 50.8364C92.1927 54.9944 81.7137 53.3024 72.4627 57.6124C68.5777 59.4234 64.9237 61.6864 62.2187 65.0054C60.0877 67.6214 57.9197 71.0634 54.8377 72.5714C54.0277 72.9684 52.9307 72.9784 52.2817 72.2424C45.5257 64.6004 55.3587 50.6964 61.2577 45.4754ZM190.802 33.2469C196.407 31.6739 202.625 31.7059 208.319 32.6939C214.011 33.6819 219.79 36.0409 224.437 39.4819L224.976 39.8848C230.049 43.7076 236.103 49.2698 235.779 56.0419C235.508 61.6969 229.559 65.5219 224.423 62.5579C220.236 60.1409 218.266 55.2989 214.721 52.0749C211.796 49.4139 208.36 47.3159 204.694 45.8459C200.622 44.2129 196.543 43.4479 192.173 43.3749C188.808 43.3189 185.423 44.4229 182.121 44.7759C182.393 45.3339 179.783 45.0739 178.287 44.5789C177.179 44.1069 177.173 42.7059 177.557 41.7969C179.462 37.2939 186.393 34.4829 190.802 33.2469ZM196.903 64.8909C206.292 63.0269 216.731 65.0679 224.589 70.5719C238.679 80.4409 245 100.851 238.452 116.814C231.954 132.657 214.193 142.736 197.257 139.709C179.968 136.619 166.594 119.209 168.459 101.669C169.252 94.2019 172.509 87.4719 177.328 82.3849C177.365 82.2099 177.406 82.0329 177.475 81.8509C180.863 72.8339 187.283 66.8019 196.903 64.8909ZM110.989 79.2301C100.224 72.7501 84.3965 76.3681 75.1495 84.1911C73.3135 85.7451 71.2415 85.2901 70.1145 83.9341C63.8385 89.0001 59.4075 96.0871 58.6955 104.717C57.4205 120.196 68.4435 130.376 83.2955 131.547C98.4735 132.744 114.182 128.508 121.331 113.965C127.504 101.41 122.973 86.4431 110.989 79.2301ZM212.898 79.8999C204.469 76.5949 192.38 78.5479 185.02 84.2039C179.417 91.4279 176.69 101.34 178.844 109.458C181.956 121.182 193.206 130.315 205.565 129.016C217.003 127.814 227.337 118.658 228.565 107.033C229.746 95.8519 223.61 84.0999 212.898 79.8999ZM205.747 97.4442C207.668 96.0742 209.96 97.6172 210.663 99.4442L211.065 100.272C211.278 100.715 211.496 101.173 211.504 101.19L211.58 101.411C211.682 101.602 211.804 101.78 211.92 101.961C212.01 102.023 212.757 102.958 212.857 103.08C214.062 104.568 214.702 105.929 214.664 107.887C214.591 111.758 210.979 114.484 207.234 113.547C203.206 112.539 201.491 108.373 201.858 104.548C202.149 101.52 203.252 99.2232 205.747 97.4442ZM96.3877 98.1836C98.1647 96.5676 100.907 96.4316 102.661 98.1836C103.624 99.1456 104.014 100.218 104.705 101.337L105.032 101.851C105.751 102.955 106.503 104.015 106.697 105.37C107.155 108.559 106.166 111.527 103.024 112.854C99.8987 114.172 97.0047 112.824 95.1017 110.258C92.8497 107.218 93.5337 100.778 96.3877 98.1836Z" fill="black"/>
</svg>
