<svg width="900" height="900" viewBox="0 0 900 900" fill="none" xmlns="http://www.w3.org/2000/svg">
<path fill-rule="evenodd" clip-rule="evenodd" d="M482.324 455.157C478.131 452.93 473.211 453.307 469 455.296C463.853 457.727 459.874 461.72 456.349 466.11C454.995 467.796 453.729 469.554 452.464 471.31C451.944 472.032 451.423 472.754 450.897 473.471C450.795 473.605 450.682 473.751 450.563 473.904C449.72 474.987 448.57 476.484 448.13 477.843C447.953 478.389 447.887 478.915 447.966 479.395C448.005 479.627 448.076 479.85 448.185 480.06C447.513 480.234 447.065 480.068 446.755 479.734C446.263 479.206 446.091 478.412 446.084 477.501C446.059 474.238 448.211 469.482 449.089 467.521C449.18 467.32 449.257 467.147 449.318 467.007C452.496 459.737 457.578 452.655 464.644 448.737C471.49 444.94 479.593 444.222 486.676 447.812C494.5 451.777 496.635 459.629 497.522 467.699C497.658 468.935 497.098 470.074 496.238 470.935C495.267 471.906 493.903 472.535 492.628 472.535C491.304 472.535 490.092 471.974 489.206 471.088C488.312 470.194 487.748 468.967 487.738 467.638L487.729 466.865C487.688 464.17 487.499 461.64 486.521 459.494C485.735 457.77 484.448 456.285 482.324 455.157ZM471.907 418.969C475.683 421.264 481.436 426.616 477.374 432.305C472.593 437.322 465.709 431.569 462.317 428.968C459.172 426.952 455.638 432.138 458.556 434.492C483.068 452.64 493.015 419.569 473.817 416.271C471.703 415.907 470.918 418.259 471.907 418.969ZM440.125 419.722C439.108 420.22 437.98 420.422 436.874 420.192C435.884 419.985 434.916 419.43 434.058 418.451C432.882 417.107 432.027 415.198 432.598 413.377L432.762 412.908C432.955 412.363 433.215 411.853 433.532 411.389C433.736 410.397 433.777 409.747 433.815 409.13C433.825 408.972 433.835 408.817 433.846 408.662C433.906 407.797 434.033 406.893 434.323 406.061C434.378 405.904 434.439 405.749 434.504 405.596C434.342 405.539 434.18 405.482 434.017 405.424C432.896 405.029 431.778 404.627 430.666 404.207C427.504 403.012 424.377 401.664 421.35 400.156C419.854 399.411 418.397 398.572 416.957 397.724C416.27 397.267 414.762 396.202 414.086 395.629L413.573 395.194L413.304 395.811C413.016 396.102 412.783 396.125 412.587 396.059C412.376 395.989 412.221 395.823 412.122 395.624C412.004 395.384 411.968 395.092 412.03 394.81C412.086 394.556 412.225 394.311 412.459 394.118C413.35 393.382 414.608 393.702 415.654 393.906C415.803 393.936 415.949 393.964 416.091 393.99C417.716 394.287 419.337 394.641 420.952 395.006L422.896 395.449C423.638 395.618 424.38 395.788 425.121 395.958C433.544 397.888 441.953 399.814 450.561 400.66L451.468 400.745C453.003 400.882 454.368 401.534 455.268 402.572C456.096 403.527 456.519 404.809 456.318 406.296C456.122 407.751 455.303 408.962 454.177 409.712C453.056 410.459 451.63 410.749 450.207 410.367C447.535 409.65 444.869 408.896 442.216 408.096L442.836 409.571C443.37 410.855 443.863 412.187 443.921 413.545C443.975 414.822 443.6 416.058 442.952 417.115C442.262 418.241 441.262 419.166 440.125 419.722ZM500.176 389C499.517 389.899 498.76 390.668 498.005 391.438C496.375 393.1 494.746 394.763 493 396.31C492.367 396.871 491.728 397.424 491.088 397.977C490.851 398.182 490.613 398.387 490.376 398.593L490.002 398.917L490.322 399.294C490.408 399.395 490.489 399.499 490.556 399.61C491.515 401.18 492.048 402.884 492.587 404.592C492.956 405.763 493.327 406.937 493.825 408.077L493.986 408.434C494.635 409.829 494.809 411.285 494.465 412.599C494.14 413.837 493.353 414.942 492.09 415.747C491.772 415.95 491.23 416.184 490.863 416.266C489.416 416.587 487.95 416.363 486.752 415.683C485.607 415.032 484.709 413.964 484.311 412.563C483.723 410.492 483.345 408.389 483.365 406.339C483.369 405.992 483.384 405.643 483.409 405.294C483.18 405.526 482.918 405.73 482.62 405.899C481.692 406.423 480.644 406.474 479.658 406.207C478.543 405.904 477.504 405.195 476.784 404.269C476.151 403.454 475.764 402.466 475.814 401.433C475.857 400.532 476.238 399.604 477.051 398.729L477.819 397.947C478.39 397.368 479.176 396.922 480.013 396.697C480.782 396.49 481.597 396.468 482.328 396.718C483.314 396.448 483.953 396.13 484.547 395.834C484.969 395.624 485.368 395.425 485.723 395.27C487.455 394.517 489.18 393.749 490.899 392.968C492.39 392.29 493.904 391.664 495.418 391.038C497.013 390.379 498.608 389.719 500.176 389Z" fill="black"/>
</svg>
