<svg width="900" height="900" viewBox="0 0 900 900" fill="none" xmlns="http://www.w3.org/2000/svg">
<path fill-rule="evenodd" clip-rule="evenodd" d="M418.19 289.887C436.761 289.887 463.966 300.647 499.802 322.169C516.629 392.685 523.347 438.012 519.957 458.151C514.871 488.36 488.381 525.37 444.524 525.37C400.667 525.37 388.752 509.896 378.203 502.864C371.17 498.175 360.566 485.163 346.391 463.825C336.773 466.821 330.552 467.452 327.729 465.719C321.715 462.027 322.445 452.317 320.545 442.928C319.144 436.009 314.375 429.22 314.375 425.368C314.375 411.391 324.308 412.39 329.31 409.041C318.348 398.243 321.233 360.797 335.042 341.13C348.852 321.462 390.333 289.887 418.19 289.887Z" fill="white"/>
<path fill-rule="evenodd" clip-rule="evenodd" d="M468.296 266.031C470.733 265.641 472.691 269.066 470.112 270.336C459.13 275.746 447.601 279.816 436.421 284.747C442.132 285.432 447.957 286.515 453.584 288.191C460.06 285.529 466.71 283.373 473.558 281.849L475.729 281.367C482.701 279.838 490.549 278.391 497.321 280.735C499.648 281.54 499.506 284.478 497.321 285.33C493.39 286.863 489.045 287.265 484.885 287.746C480.695 288.229 476.55 288.82 472.421 289.691C469.413 290.326 466.419 291.063 463.453 291.901C465.314 292.769 467.128 293.721 468.878 294.776C478.305 300.46 486.887 306.95 494.068 315.374C501.039 323.549 506.523 332.807 510.256 342.884C511.233 345.522 511.86 348.326 512.265 351.11C512.59 353.339 512.388 355.524 512.443 357.723C512.56 357.769 512.66 357.857 512.693 357.991C514.028 363.292 514.198 369.053 514.619 374.503C515.057 380.157 515.506 385.808 515.88 391.467C516.253 397.097 516.194 402.971 517.248 408.52C518.205 413.559 521.049 418.034 522.649 422.912C532.253 452.181 522.879 487.252 499.523 507.466C487.731 517.672 473.029 524.141 457.604 526.274C449.584 527.382 441.621 527.353 433.611 526.172C429.809 525.612 426.052 524.769 422.383 523.625L421.022 523.203C419.499 522.727 417.953 522.213 416.547 521.511C414.542 520.511 413.673 518.829 412.97 516.784C412.543 515.542 413.232 513.636 414.47 513.095L414.873 512.922C416.995 512.032 418.705 511.649 421.021 512.522C422.886 513.225 424.78 513.848 426.699 514.392C430.504 515.471 434.407 516.272 438.344 516.659C446.279 517.437 454.307 517.04 462.091 515.297C476.077 512.164 488.887 505.132 498.587 494.525C508.065 484.161 514.002 470.942 516.277 457.138C517.406 450.289 517.498 443.101 516.591 436.219C516.12 432.648 515.32 429.106 514.284 425.659C513.698 423.712 512.945 421.827 512.332 419.892C511.778 418.14 511.609 416.266 511.355 414.438L511.295 414.017C510.607 409.368 510.844 404.633 510.848 399.949C510.853 395.237 510.826 390.524 510.873 385.812L510.92 380.484C510.935 378.708 510.955 376.931 510.986 375.156C510.336 375.259 509.529 374.781 509.467 374.007C509.237 371.144 508.59 368.364 508.231 365.516L508.136 364.767C507.798 362.15 507.386 359.584 506.292 357.164C504.072 352.249 502.508 347.062 500.404 342.098C496.222 332.237 489.989 323.138 482.273 315.711C473.009 306.794 461.531 300.462 449.23 296.849C448.838 297.013 448.444 297.17 448.055 297.337C440.265 300.698 432.87 305.023 425.848 309.774C422.228 312.223 418.745 314.866 415.421 317.704C413.803 319.085 412.18 320.465 410.599 321.89C409.922 322.498 409.252 323.116 408.59 323.741C408.148 324.157 407.71 324.576 407.275 325C406.274 325.703 406.252 326.693 407.21 327.968C407.551 327.828 407.771 328.389 407.457 328.556C405.561 329.563 404.07 327.41 404.473 325.625C404.793 324.212 406.103 322.915 407.025 321.806L407.148 321.655C408.581 319.885 410.05 318.126 411.608 316.462C419.814 307.696 429.499 300.448 439.999 294.675C435.585 293.885 431.111 293.43 426.638 293.318C424.063 293.255 421.498 293.296 418.945 293.439C414.966 295.602 411.036 297.855 407.181 300.244C403.965 302.239 400.795 304.31 397.679 306.461C396.056 307.58 394.452 308.726 392.854 309.881C392.049 310.464 390.819 311.155 390.172 311.887L390.124 311.947C389.671 312.538 388.364 315.118 390.064 315.046C390.245 315.039 390.28 315.32 390.106 315.362C388.555 315.739 388.354 314.141 388.619 312.935C389.282 309.929 393.295 307.499 395.552 305.624L395.696 305.503C400.262 301.624 404.979 297.92 409.826 294.396C394.721 296.715 380.348 302.646 367.854 311.754C351.799 323.457 339.732 339.952 331.692 357.995C327.871 366.569 324.703 375.706 323.569 385.051C322.553 393.426 323.635 402.613 330.169 408.533C330.525 408.498 330.881 408.462 331.236 408.437L331.791 408.404C336.445 408.155 346.15 408.471 345.837 414.877C345.824 415.144 345.418 415.309 345.288 415.025C343.762 411.71 339.305 412.306 336.129 412.83L334.341 413.124C330.631 413.741 326.838 414.534 323.576 416.464C320.446 418.316 317.704 421.276 317.1 424.983C316.504 428.636 318.928 431.391 321.017 434.078C323.385 437.125 325.289 440.277 325.517 444.232C325.744 448.215 323.793 452.223 324.359 456.16C325.621 464.957 338.42 462.123 343.923 460.771C345.573 460.366 347.847 460.996 348.607 462.677C352.248 470.723 357.198 478.066 363.432 484.33C366.515 487.427 369.85 490.26 373.456 492.729C377.101 495.225 380.64 497.273 383.139 501.046C384.107 502.509 382.793 504.141 381.29 504.268C376.365 504.683 372.349 502.26 368.463 499.522C364.549 496.764 360.844 493.69 357.472 490.291C351.449 484.22 346.431 477.19 342.681 469.514L342.165 469.611C333.717 471.165 324.349 471.157 318.864 463.432C316.425 459.996 316.153 455.97 316.785 451.921C317.4 447.978 318.84 444.283 316.613 440.6C314.592 437.257 311.714 434.504 310.56 430.668C309.445 426.962 310.076 423.032 311.741 419.602C314.926 413.041 321.499 409.805 328.379 408.753C320.094 403.765 317.316 393.561 317.301 384.234C317.283 372.553 321.412 360.749 326.093 350.212C334.923 330.333 349.821 312.817 368.001 300.888C384.872 289.819 405.209 283.853 425.414 284.032C430.604 280.922 435.932 278.042 441.355 275.362L442.514 274.794C450.82 270.757 459.106 267.504 468.296 266.031ZM326.473 427.754C327.478 425.3 331.899 425.308 333.986 425.391L334.369 425.408C340.718 425.741 351.243 428.333 352.543 435.432C352.761 436.618 352 438.183 350.556 438.042C348.466 437.838 346.881 437.456 345.165 436.226L344.296 435.605C342.851 434.578 341.412 433.594 339.828 432.749C337.885 431.715 335.882 430.967 333.767 430.369C332.9 430.125 332.027 429.87 331.156 429.639C330.58 429.488 330 429.354 329.416 429.238C328.731 428.816 328.286 429.078 328.081 430.021C328.35 430.114 328.325 430.581 328.009 430.547C326.756 430.414 325.984 428.944 326.473 427.754ZM346.648 417.452C346.648 417.423 346.685 417.418 346.699 417.435L346.706 417.452V420.084C346.706 420.113 346.669 420.12 346.654 420.102L346.648 420.084V417.452Z" fill="black"/>
</svg>
