<svg width="788" height="788" viewBox="0 0 788 788" fill="none" xmlns="http://www.w3.org/2000/svg">
<path fill-rule="evenodd" clip-rule="evenodd" d="M389.453 211.827C421.973 211.827 469.611 230.67 532.365 268.357C561.831 391.838 573.595 471.211 567.658 506.477C558.752 559.376 512.365 624.184 435.567 624.184C358.768 624.184 337.904 597.088 319.431 584.773C307.115 576.563 288.547 553.777 263.725 516.413C246.882 521.659 235.989 522.764 231.045 519.729C220.514 513.264 221.793 496.261 218.465 479.82C216.012 467.704 207.661 455.815 207.661 449.069C207.661 424.595 225.054 426.344 233.814 420.479C214.618 401.571 219.67 335.998 243.852 301.559C268.034 267.119 340.672 211.827 389.453 211.827Z" fill="white"/>
<path fill-rule="evenodd" clip-rule="evenodd" d="M477.194 170.054C481.461 169.371 484.89 175.369 480.373 177.593C461.143 187.066 440.955 194.193 421.377 202.828C431.378 204.028 441.577 205.924 451.432 208.859C462.772 204.198 474.417 200.422 486.408 197.753L490.209 196.91C502.418 194.232 516.161 191.699 528.02 195.803C532.095 197.212 531.845 202.358 528.02 203.849C521.136 206.533 513.528 207.237 506.242 208.079C498.905 208.926 491.648 209.96 484.417 211.486C479.149 212.597 473.907 213.888 468.713 215.355C471.971 216.876 475.148 218.543 478.212 220.39C494.721 230.344 509.749 241.709 522.324 256.459C534.53 270.774 544.134 286.986 550.67 304.632C552.381 309.252 553.479 314.162 554.188 319.037C554.757 322.941 554.403 326.766 554.499 330.617C554.704 330.697 554.88 330.852 554.938 331.086C557.276 340.369 557.573 350.457 558.311 360.001C559.077 369.901 559.863 379.798 560.518 389.707C561.171 399.565 561.068 409.852 562.913 419.568C564.589 428.393 569.569 436.229 572.372 444.771C589.19 496.023 572.774 557.437 531.876 592.834C511.227 610.705 485.482 622.033 458.471 625.768C444.427 627.709 430.483 627.659 416.456 625.59C409.798 624.609 403.219 623.133 396.794 621.13L394.412 620.391C391.745 619.558 389.037 618.657 386.575 617.429C383.064 615.678 381.543 612.732 380.311 609.15C379.563 606.976 380.77 603.638 382.938 602.691L383.644 602.388C387.36 600.829 390.355 600.158 394.409 601.687C397.676 602.919 400.993 604.01 404.352 604.962C411.016 606.851 417.85 608.255 424.745 608.931C438.64 610.295 452.698 609.599 466.328 606.546C490.819 601.06 513.251 588.746 530.236 570.173C546.833 552.025 557.229 528.876 561.214 504.704C563.19 492.71 563.352 480.123 561.764 468.073C560.939 461.82 559.538 455.617 557.723 449.58C556.698 446.172 555.378 442.87 554.306 439.482C553.335 436.414 553.039 433.133 552.595 429.931L552.489 429.194C551.284 421.053 551.699 412.762 551.707 404.559C551.715 396.308 551.669 388.055 551.751 379.804L551.832 370.475C551.86 367.364 551.894 364.253 551.948 361.144C550.811 361.325 549.397 360.488 549.288 359.133C548.886 354.119 547.752 349.25 547.124 344.264L546.958 342.952C546.365 338.37 545.644 333.877 543.729 329.638C539.841 321.031 537.103 311.949 533.418 303.257C526.095 285.989 515.181 270.055 501.668 257.049C485.446 241.435 465.347 230.347 443.806 224.021C443.121 224.308 442.431 224.582 441.749 224.875C428.108 230.761 415.158 238.334 402.862 246.653C396.524 250.941 390.425 255.57 384.604 260.539C381.77 262.958 378.929 265.375 376.159 267.869C374.974 268.935 373.801 270.016 372.641 271.111C371.867 271.839 371.101 272.574 370.339 273.315C368.586 274.547 368.548 276.281 370.225 278.513C370.822 278.267 371.208 279.25 370.658 279.542C367.337 281.306 364.727 277.536 365.433 274.411C365.992 271.936 368.286 269.665 369.901 267.722L370.116 267.459C372.626 264.358 375.198 261.279 377.926 258.365C392.296 243.015 409.256 230.323 427.643 220.214C419.913 218.829 412.079 218.033 404.246 217.837C399.737 217.726 395.245 217.799 390.775 218.049C383.806 221.837 376.925 225.781 370.175 229.966C364.542 233.459 358.991 237.086 353.536 240.851C350.694 242.812 347.885 244.818 345.087 246.84C343.677 247.861 341.522 249.072 340.39 250.353L340.305 250.458C339.513 251.493 337.223 256.011 340.2 255.886C340.518 255.873 340.579 256.365 340.274 256.439C337.559 257.099 337.206 254.3 337.671 252.189C338.832 246.924 345.859 242.67 349.81 239.387L350.063 239.174C358.059 232.381 366.319 225.896 374.806 219.724C348.356 223.786 323.187 234.171 301.309 250.12C273.194 270.613 252.063 299.498 237.984 331.093C231.294 346.107 225.746 362.107 223.761 378.471C221.982 393.137 223.876 409.224 235.318 419.591C235.941 419.53 236.564 419.467 237.187 419.424L238.158 419.365C246.307 418.929 263.303 419.482 262.754 430.7C262.731 431.167 262.021 431.457 261.793 430.96C259.121 425.155 251.316 426.198 245.754 427.116L242.624 427.631C236.126 428.711 229.485 430.099 223.772 433.479C218.292 436.722 213.491 441.906 212.433 448.397C211.389 454.794 215.634 459.619 219.292 464.324C223.439 469.659 226.773 475.178 227.171 482.105C227.569 489.078 224.152 496.098 225.143 502.992C227.354 518.396 249.767 513.433 259.402 511.066C262.291 510.357 266.273 511.46 267.605 514.404C273.98 528.493 282.648 541.351 293.565 552.32C298.963 557.744 304.804 562.705 311.118 567.028C317.501 571.398 323.698 574.985 328.074 581.591C329.77 584.153 327.468 587.012 324.836 587.234C316.212 587.961 309.179 583.718 302.374 578.923C295.521 574.094 289.033 568.711 283.128 562.758C272.581 552.127 263.794 539.817 257.227 526.375L256.324 526.545C241.53 529.267 225.126 529.253 215.522 515.726C211.25 509.709 210.774 502.659 211.88 495.569C212.957 488.663 215.48 482.193 211.58 475.744C208.04 469.89 203.001 465.069 200.98 458.352C199.027 451.862 200.133 444.98 203.048 438.974C208.626 427.486 220.135 421.819 232.183 419.977C217.675 411.242 212.81 393.373 212.785 377.041C212.753 356.587 219.983 335.917 228.18 317.464C243.643 282.654 269.731 251.982 301.565 231.093C331.108 211.709 366.722 201.263 402.102 201.577C411.19 196.13 420.521 191.087 430.017 186.394L432.047 185.399C446.591 178.33 461.1 172.633 477.194 170.054ZM228.845 453.249C230.606 448.952 238.347 448.966 242.001 449.111L242.673 449.142C253.791 449.725 272.22 454.263 274.497 466.695C274.878 468.772 273.546 471.511 271.017 471.264C267.358 470.907 264.583 470.239 261.577 468.085L260.056 466.998C257.525 465.199 255.006 463.476 252.231 461.997C248.829 460.185 245.321 458.876 241.618 457.829C240.1 457.401 238.571 456.954 237.046 456.551C236.037 456.285 235.021 456.051 233.999 455.848C232.8 455.109 232.02 455.567 231.661 457.22C232.132 457.382 232.089 458.2 231.536 458.141C229.341 457.908 227.99 455.333 228.845 453.249ZM264.175 435.21C264.175 435.159 264.239 435.15 264.264 435.18L264.275 435.21V439.818C264.275 439.87 264.211 439.881 264.185 439.85L264.175 439.818V435.21Z" fill="black"/>
</svg>
