<svg width="788" height="788" viewBox="0 0 788 788" fill="none" xmlns="http://www.w3.org/2000/svg">
<path fill-rule="evenodd" clip-rule="evenodd" d="M443.408 624.472C421.212 624.6 402.347 618.302 387.953 607.883C369.991 601.478 348.325 591.599 335.165 581.228C330.032 582.538 323.89 577.085 319.962 574.207C295.537 555.968 276.365 529.271 270.684 502.529C261.914 513.599 249.434 514.059 237.479 508.557C212.419 494.345 213.356 464.42 222.378 442.062C203.411 399.505 190.266 287.159 219.219 241.818C225.141 235.034 233.832 230.976 240.089 224.019C245.657 217.943 250.953 211.728 257.431 206.92C277.197 191.876 311.241 183.866 332.557 180.099C421.539 160.861 489.907 195.439 570.509 224.606C565.87 236.206 559.453 246.785 552.099 256.649C572.109 264.118 562.919 280.911 547.395 289.424L538.152 284.932C552.559 336.478 585.715 464.66 571.409 505.823C560.001 570.043 509.936 624.935 443.408 624.472Z" fill="white"/>
<path fill-rule="evenodd" clip-rule="evenodd" d="M456.265 629.999C427.445 632.958 393.207 626.144 373.994 602.733C373.419 602.032 373.168 601.239 373.153 600.472C373.136 599.62 373.422 598.797 373.916 598.157C374.435 597.484 375.175 597.015 376.022 596.862C376.736 596.734 377.549 596.817 378.388 597.287L380.155 598.271C393.276 605.518 406.903 611.699 421.774 614.344C437.084 617.067 452.675 616.762 467.849 613.304C495.49 607.006 517.86 590.941 534.325 569.757C552.699 546.118 563.733 516.11 566.545 486.1C569.953 449.731 562.047 413.584 553.868 378.37C545.274 341.369 535.88 304.557 524.967 268.172C524.638 267.077 524.55 266.051 524.645 265.107C521.426 263.846 518 264.196 514.591 265.347C508.361 267.451 502.155 272.194 496.979 276.109C495.105 277.527 493.361 278.845 491.794 279.917C485.376 284.309 478.36 287.469 470.515 287.966C462.356 288.481 454.357 285.946 446.947 282.772C443.182 281.16 439.478 279.487 435.789 277.822C425.284 273.079 414.903 268.382 403.559 265.33C388.358 261.239 372.664 259.224 356.922 259.369C328.826 259.626 300.644 266.857 283.425 290.619C276.45 300.245 271.902 311.308 275.449 323.188C277.378 329.65 281.019 335.516 284.993 340.912L286.357 342.75C288.537 345.712 290.43 348.661 291.001 351.802C291.479 354.433 291.106 357.217 289.227 360.267C288.045 362.188 286.54 363.91 285.027 365.626C283.935 366.864 282.841 368.1 281.899 369.431C280.001 372.114 278.321 375.003 277.003 378.016C274.422 383.915 273.327 390.261 273.098 396.66C272.821 404.381 273.906 411.934 274.983 419.498C275.747 424.861 276.508 430.23 276.816 435.664C276.87 436.612 276.58 437.318 276.174 437.841C275.677 438.481 274.952 438.884 274.127 438.996C273.876 439.03 273.617 439.035 273.356 439.012C273.484 439.535 273.597 440.06 273.695 440.587C273.174 439.916 272.619 439.266 272.033 438.637C271.996 438.618 271.959 438.598 271.922 438.578C271.318 438.246 270.807 437.741 270.484 437.09C269.655 436.319 268.777 435.588 267.855 434.901C263.061 431.324 257.463 429.204 251.848 429.133C246.434 429.066 241.007 430.909 236.835 434.802C228.541 442.539 226.112 455.17 226.025 466.015C225.937 477.085 228.499 490.37 238.151 497.243C242.023 500 246.752 501.657 251.515 501.705C255.464 501.744 259.243 500.347 262.963 499.016C264.111 498.606 265.252 498.198 266.391 497.827C267.686 497.406 268.865 497.432 269.893 497.74C271.052 498.087 272.035 498.804 272.77 499.76C273.502 500.712 273.981 501.904 274.13 503.153C274.274 504.361 274.108 505.616 273.597 506.748C273.468 507.033 273.333 507.309 273.192 507.579L275.315 511.07C283.443 524.401 291.714 537.489 302.56 548.948C308.785 555.525 315.384 561.731 322.622 567.164L323.666 567.939C324.29 568.398 324.983 568.963 325.722 569.568C327.833 571.295 330.364 573.611 332.726 573.702C333.427 573.73 334.039 573.642 334.596 573.569C335.941 573.392 337.069 573.341 338.178 573.793C339.07 574.157 339.996 574.836 340.946 576.239C341.589 577.189 341.919 578.38 341.919 579.589C341.919 580.803 341.586 582.018 340.991 582.978C339.762 584.965 338.274 586.196 336.66 586.895C334.86 587.674 332.871 587.793 330.804 587.408C325.712 586.458 320.075 582.24 316.487 579.487L315.793 578.956C307.845 572.893 300.311 566.184 293.689 558.681C282.411 545.905 272.282 530.849 267.079 514.398C263.412 516.807 258.882 517.95 254.145 518.13C247.244 518.393 239.94 516.617 234.557 514.065C222.696 508.44 215.491 497.801 212.114 485.566C208.193 471.358 209.468 455.023 214.432 442.26C214.575 441.889 214.726 441.519 214.88 441.144C199.598 402.426 194.899 359.434 196.208 318.115C196.821 298.775 198.138 278.484 202.7 259.621C204.745 251.167 208.299 243.116 213.972 236.46C217.207 232.665 221.176 229.71 225.163 226.764C228.616 224.211 232.082 221.665 234.999 218.478L236.379 216.965C236.677 216.636 236.976 216.308 237.273 215.979C242.31 210.428 247.214 205.041 253.327 200.488C260.416 195.209 268.238 191.077 276.367 187.645C293.878 180.255 312.724 175.824 331.369 172.396C371.705 164.981 413.111 164.615 452.952 175.038C471.476 179.883 489.453 186.516 507.4 193.14C509.066 193.755 510.732 194.37 512.398 194.984C526.345 200.119 540.299 205.232 554.253 210.346C560.739 212.722 567.224 215.098 573.708 217.477C575.115 217.993 576.493 219.106 577.277 220.487C578.043 221.835 578.271 223.407 577.653 224.973C573.674 235.054 568.653 244.512 562.542 253.344C564.666 254.789 566.473 256.71 567.84 258.958C569.569 261.802 570.593 265.168 570.663 268.74C570.896 280.701 560.011 288.809 550.98 294.674C550.139 295.221 549.305 295.544 548.5 295.692C557.25 329.149 565.627 362.72 572.744 396.556L573.234 398.902C580.566 434.314 585.296 470.452 578.362 506.334C572.392 537.233 558.521 567.053 536.846 590.072C515.605 612.631 487.103 626.833 456.265 629.999ZM266.495 426.288C262.721 414.312 260.721 401.283 262.165 389.143C263.074 381.512 265.368 374.166 269.104 367.441C271.243 363.589 273.851 360.022 276.697 356.664L277.679 355.536C278.176 354.96 278.67 354.43 278.823 353.766C278.912 353.38 278.821 352.959 278.587 352.455C278.068 351.338 277.102 350.262 276.198 349.212C275.624 348.545 275.063 347.889 274.592 347.252C266.321 336.056 260.153 322.727 262.158 308.53C264.114 294.678 273.192 281.767 282.856 272.036C304.137 250.61 337.129 245.687 366.032 246.868C382.857 247.556 399.654 250.521 415.677 255.701C423.578 258.256 431.303 261.367 438.81 264.933L440.472 265.731C441.369 266.165 442.265 266.605 443.162 267.045C449.03 269.922 454.92 272.828 461.29 274.392C473.73 277.447 482.169 271.013 491.039 264.525C494.078 262.301 497.164 260.047 500.445 258.069L501.12 257.669C507.038 254.239 514.116 251.93 520.916 252.034C526.822 252.124 532.52 254.01 537.16 258.466C538.112 259.382 538.66 260.381 538.917 261.375C539.431 262.095 539.845 262.953 540.115 263.967C541.777 270.202 543.431 276.443 545.08 282.685L546.428 281.816C550.422 279.222 554.765 276.257 556.726 271.917C557.48 270.247 557.374 267.464 556.422 265.418C556.09 264.703 555.65 264.067 555.043 263.67C554.601 263.382 554.068 263.246 553.449 263.296C551.944 263.49 550.562 263.27 549.39 262.775C548.038 262.203 546.961 261.264 546.261 260.131C545.545 258.971 545.219 257.608 545.394 256.194C545.544 254.978 546.067 253.708 547.103 252.515C553.916 244.661 559.655 235.998 564.015 226.594L535.169 215.922C524.884 212.118 514.597 208.32 504.305 204.536L498.67 202.466C479.956 195.601 461.133 188.893 441.671 184.474C402.994 175.692 362.661 177.756 324.091 186.023L321.761 186.526C305.575 190.055 289.172 194.325 274.316 201.748C267.024 205.391 260.093 209.821 254.14 215.418C251.512 217.889 249.135 220.596 246.757 223.298C243.426 227.085 240.09 230.862 236.128 234.053L232.451 236.997C226.981 241.405 222.047 245.7 218.96 252.536C215.733 259.683 214.192 267.578 212.935 275.271C209.765 294.649 208.514 314.338 208.633 333.966C208.835 366.925 213.842 399.211 220.168 431.385C225.243 424.121 232.373 418.49 241.523 417.29C247.489 416.507 253.403 417.619 258.532 420.257C261.496 421.782 264.198 423.816 266.495 426.288ZM256.908 465.423C250.226 462.835 243.21 461.987 236.141 463.225C235.4 463.354 234.694 463.2 234.1 462.855C233.498 462.505 233.024 461.952 232.766 461.341C232.468 460.635 232.453 459.871 232.716 459.192C232.944 458.603 233.378 458.031 234.177 457.649C241.832 453.997 250.34 452.384 258.785 453.531L259.62 453.65C263.938 454.29 270.009 455.638 274.562 458.29C278.139 460.374 280.757 463.247 281.408 467C281.748 468.956 281.262 470.997 280.135 472.477C279.045 473.908 277.379 474.862 275.223 474.801C271.419 474.692 269.166 473.085 266.457 471.003C266.128 470.75 265.791 470.491 265.44 470.229C262.822 468.27 259.961 466.606 256.908 465.423Z" fill="black"/>
</svg>
