<svg width="900" height="900" viewBox="0 0 900 900" fill="none" xmlns="http://www.w3.org/2000/svg">
<path fill-rule="evenodd" clip-rule="evenodd" d="M453.286 524.245C440.611 524.319 429.838 520.722 421.618 514.772C411.36 511.114 398.988 505.473 391.472 499.55C388.541 500.298 385.034 497.184 382.791 495.541C368.842 485.125 357.894 469.879 354.65 454.608C349.641 460.93 342.514 461.192 335.687 458.05C321.376 449.934 321.911 432.845 327.064 420.077C316.232 395.774 308.726 331.617 325.26 305.725C328.641 301.851 333.605 299.533 337.178 295.56C340.357 292.091 343.382 288.541 347.081 285.796C358.369 277.205 377.81 272.63 389.983 270.479C440.798 259.493 479.84 279.239 525.869 295.896C523.22 302.52 519.556 308.561 515.356 314.194C526.783 318.46 521.535 328.049 512.67 332.911L507.391 330.346C515.619 359.782 534.553 432.982 526.383 456.489C519.869 493.163 491.278 524.51 453.286 524.245Z" fill="white"/>
<path fill-rule="evenodd" clip-rule="evenodd" d="M460.629 527.403C444.171 529.093 424.618 525.201 413.647 511.832C413.318 511.432 413.175 510.979 413.166 510.541C413.157 510.054 413.32 509.584 413.602 509.219C413.898 508.835 414.321 508.567 414.805 508.479C415.212 508.406 415.677 508.454 416.156 508.722L417.165 509.284C424.658 513.422 432.44 516.952 440.932 518.463C449.675 520.018 458.579 519.844 467.244 517.869C483.029 514.272 495.804 505.098 505.206 493.001C515.699 479.501 522 462.365 523.606 445.227C525.552 424.458 521.037 403.816 516.366 383.706C511.459 362.576 506.094 341.554 499.862 320.776C499.674 320.15 499.624 319.564 499.678 319.025C497.84 318.305 495.883 318.505 493.937 319.162C490.379 320.364 486.835 323.072 483.879 325.308C482.809 326.118 481.813 326.871 480.918 327.483C477.253 329.991 473.246 331.796 468.766 332.079C464.107 332.373 459.539 330.926 455.307 329.113C453.157 328.193 451.042 327.237 448.936 326.286C442.936 323.578 437.008 320.896 430.53 319.153C421.849 316.816 412.887 315.666 403.897 315.749C387.853 315.895 371.759 320.025 361.926 333.594C357.942 339.091 355.345 345.409 357.371 352.193C358.472 355.884 360.552 359.234 362.821 362.315L363.6 363.365C364.845 365.056 365.926 366.74 366.252 368.534C366.525 370.036 366.312 371.626 365.239 373.368C364.564 374.465 363.705 375.448 362.84 376.428C362.217 377.135 361.592 377.841 361.054 378.601C359.97 380.133 359.011 381.783 358.258 383.504C356.784 386.873 356.159 390.497 356.028 394.151C355.87 398.56 356.49 402.873 357.105 407.193C357.541 410.255 357.976 413.321 358.151 416.425C358.182 416.966 358.017 417.369 357.785 417.668C357.501 418.033 357.087 418.263 356.616 418.327C356.473 418.347 356.325 418.35 356.176 418.337C356.249 418.635 356.313 418.935 356.369 419.236C356.072 418.853 355.755 418.482 355.42 418.122C355.399 418.112 355.378 418.1 355.357 418.089C355.012 417.899 354.72 417.611 354.535 417.239C354.062 416.799 353.561 416.381 353.034 415.989C350.296 413.946 347.1 412.736 343.893 412.695C340.801 412.657 337.702 413.709 335.32 415.932C330.583 420.351 329.196 427.564 329.146 433.757C329.096 440.079 330.559 447.665 336.071 451.59C338.282 453.165 340.983 454.111 343.703 454.138C345.958 454.161 348.116 453.363 350.24 452.603C350.896 452.369 351.548 452.136 352.198 451.924C352.938 451.683 353.611 451.698 354.198 451.874C354.86 452.072 355.421 452.482 355.841 453.028C356.259 453.571 356.532 454.252 356.618 454.965C356.7 455.655 356.605 456.372 356.313 457.018C356.24 457.181 356.162 457.339 356.082 457.493L357.294 459.486C361.936 467.099 366.659 474.573 372.853 481.117C376.408 484.873 380.176 488.417 384.31 491.52L384.906 491.962C385.262 492.225 385.658 492.547 386.08 492.893C387.286 493.879 388.731 495.201 390.08 495.253C390.48 495.269 390.83 495.219 391.148 495.177C391.916 495.076 392.56 495.047 393.193 495.305C393.703 495.513 394.231 495.901 394.774 496.702C395.141 497.245 395.33 497.925 395.33 498.615C395.33 499.309 395.139 500.002 394.8 500.551C394.098 501.685 393.248 502.388 392.326 502.788C391.298 503.232 390.163 503.3 388.982 503.08C386.074 502.538 382.855 500.129 380.806 498.557L380.41 498.254C375.871 494.791 371.569 490.96 367.787 486.675C361.347 479.38 355.562 470.782 352.591 461.387C350.497 462.763 347.91 463.415 345.205 463.518C341.264 463.668 337.093 462.654 334.019 461.197C327.245 457.985 323.131 451.909 321.202 444.922C318.963 436.808 319.691 427.48 322.526 420.191C322.608 419.98 322.694 419.768 322.782 419.554C314.055 397.444 311.371 372.892 312.119 349.296C312.469 338.252 313.221 326.664 315.826 315.892C316.994 311.065 319.024 306.467 322.263 302.666C324.111 300.499 326.377 298.811 328.654 297.129C330.626 295.671 332.605 294.217 334.271 292.397L335.059 291.533C335.229 291.345 335.4 291.158 335.57 290.97C338.446 287.8 341.247 284.724 344.738 282.124C348.786 279.109 353.253 276.749 357.895 274.789C367.895 270.569 378.657 268.039 389.305 266.081C412.339 261.847 435.985 261.638 458.737 267.59C469.315 270.357 479.581 274.145 489.83 277.927C490.782 278.279 491.733 278.63 492.684 278.98C500.649 281.913 508.618 284.833 516.586 287.753C520.29 289.11 523.994 290.467 527.696 291.825C528.5 292.12 529.287 292.756 529.735 293.544C530.172 294.314 530.302 295.212 529.949 296.106C527.677 301.863 524.81 307.264 521.32 312.308C522.533 313.133 523.565 314.23 524.345 315.514C525.333 317.138 525.918 319.06 525.958 321.1C526.091 327.931 519.874 332.561 514.717 335.91C514.237 336.222 513.761 336.407 513.301 336.491C518.298 355.598 523.082 374.769 527.146 394.091L527.426 395.431C531.613 415.654 534.314 436.291 530.354 456.782C526.945 474.427 519.024 491.456 506.646 504.602C494.516 517.484 478.239 525.595 460.629 527.403ZM352.257 411.07C350.102 404.231 348.96 396.791 349.785 389.858C350.304 385.5 351.614 381.305 353.747 377.465C354.969 375.265 356.458 373.228 358.084 371.31L358.644 370.666C358.928 370.337 359.21 370.035 359.298 369.655C359.348 369.435 359.296 369.195 359.163 368.907C358.866 368.269 358.315 367.654 357.799 367.055C357.471 366.674 357.15 366.299 356.881 365.936C352.158 359.542 348.636 351.93 349.781 343.823C350.898 335.912 356.082 328.539 361.601 322.982C373.754 310.747 392.594 307.935 409.1 308.61C418.708 309.003 428.3 310.696 437.45 313.654C441.962 315.113 446.374 316.89 450.661 318.926L451.61 319.382C452.122 319.63 452.634 319.881 453.146 320.132C456.497 321.775 459.861 323.435 463.498 324.328C470.602 326.072 475.422 322.398 480.487 318.693C482.222 317.423 483.985 316.136 485.858 315.006L486.244 314.778C489.623 312.819 493.665 311.5 497.549 311.56C500.921 311.611 504.175 312.688 506.825 315.233C507.369 315.756 507.682 316.326 507.828 316.894C508.122 317.305 508.358 317.795 508.513 318.374C509.462 321.935 510.406 325.499 511.348 329.064L512.118 328.567C514.399 327.086 516.879 325.393 517.999 322.914C518.429 321.961 518.369 320.371 517.825 319.203C517.635 318.795 517.384 318.431 517.037 318.205C516.785 318.04 516.481 317.963 516.127 317.991C515.268 318.102 514.479 317.976 513.809 317.694C513.037 317.367 512.422 316.831 512.022 316.184C511.613 315.521 511.427 314.743 511.527 313.935C511.613 313.241 511.912 312.516 512.503 311.834C516.394 307.349 519.671 302.402 522.161 297.032L505.688 290.937C499.815 288.765 493.94 286.596 488.063 284.435L484.845 283.253C474.158 279.333 463.409 275.502 452.295 272.979C430.207 267.963 407.175 269.142 385.149 273.863L383.818 274.15C374.575 276.166 365.208 278.604 356.724 282.843C352.56 284.924 348.602 287.453 345.202 290.65C343.701 292.061 342.344 293.607 340.986 295.15C339.084 297.312 337.178 299.469 334.916 301.291L332.816 302.973C329.692 305.49 326.875 307.943 325.112 311.846C323.269 315.928 322.389 320.436 321.671 324.83C319.861 335.896 319.147 347.139 319.214 358.348C319.33 377.17 322.189 395.608 325.802 413.981C328.7 409.833 332.772 406.617 337.997 405.932C341.404 405.485 344.781 406.12 347.71 407.626C349.403 408.497 350.946 409.659 352.257 411.07ZM346.783 433.419C342.967 431.941 338.96 431.457 334.923 432.164C334.5 432.237 334.097 432.15 333.758 431.952C333.414 431.753 333.143 431.437 332.996 431.088C332.826 430.685 332.817 430.248 332.967 429.861C333.098 429.524 333.345 429.198 333.802 428.98C338.173 426.894 343.032 425.973 347.855 426.628L348.331 426.696C350.797 427.061 354.264 427.831 356.864 429.346C358.907 430.536 360.402 432.176 360.774 434.32C360.968 435.437 360.69 436.602 360.047 437.447C359.424 438.264 358.473 438.809 357.242 438.774C355.069 438.712 353.783 437.794 352.236 436.606C352.048 436.461 351.855 436.313 351.655 436.164C350.16 435.045 348.526 434.095 346.783 433.419Z" fill="black"/>
</svg>
