<svg width="900" height="900" viewBox="0 0 900 900" fill="none" xmlns="http://www.w3.org/2000/svg">
<path fill-rule="evenodd" clip-rule="evenodd" d="M400.43 283.644C486.985 279.387 526.045 340.33 528.571 367.55C530.325 386.445 519.161 408.225 519.161 425.109C519.161 433.727 529.713 452.23 524.801 464.791C513.867 492.75 490.716 523.779 461.214 523.779C431.713 523.779 393.319 531.937 360.721 485.264C357.662 480.884 318.976 455.994 315.218 432.342C305.856 373.428 338.668 286.681 400.43 283.644Z" fill="white"/>
<path fill-rule="evenodd" clip-rule="evenodd" d="M396.348 245.716C399.444 242.175 404.669 240.759 409.312 241.033C416.056 241.433 421.921 245.596 428.631 245.904C435.666 246.23 442.456 243.791 449.509 244.922C453.832 245.619 458.115 247.623 460.885 251.004C470.478 248.257 480.895 251.895 487.005 259.838C494.543 258.668 502.744 263.659 505.051 270.923C514.628 271.231 523.668 278.923 524.735 288.563C528.562 289.574 531.885 292.213 533.924 295.701C536.294 299.744 536.688 304.381 536.26 308.939C540.765 311.24 543.055 316.185 543.655 321.416C547.772 324.489 549.56 330.011 548.72 335.225C551.872 337.001 553.501 341.135 553.483 344.824C553.466 348.268 552.553 351.318 553.838 354.641C554.982 357.601 555.393 360.067 554.763 363.168L554.699 363.47C554.588 363.975 554.494 364.46 554.41 364.938C555.263 365.686 555.984 366.624 556.526 367.714C558.5 371.7 558.206 376.247 556.7 380.289C557.36 382.864 557.276 385.583 556.301 388.057C558.127 390.687 559.087 393.913 558.805 397.259C558.488 401.006 556.777 404.361 554.183 406.842C554.874 411.959 552.793 417.489 549.03 421.093C549.564 424.156 549.103 427.367 547.427 430.272C546.233 432.342 544.625 433.884 542.769 434.959C542.83 436.668 542.599 438.416 542.03 440.167C541.24 442.598 539.903 444.837 538.143 446.64C539.193 453.355 535.173 460.806 528.097 462.69C527.502 462.848 526.935 462.92 526.392 462.932C525.689 469.39 524.154 475.758 521.777 481.807C515.735 497.208 504.748 510.673 490.42 519.074C483.333 523.225 475.372 526.069 467.246 527.257C461.398 528.114 455.773 527.902 449.904 527.32C442.536 526.583 435.135 525.481 427.974 523.585L426.822 523.279C423.854 522.484 420.724 521.566 418.152 519.965C415.273 518.171 413.778 515.407 413.115 512.152C412.746 510.34 413.893 508.392 415.877 508.355H416.004C416.438 508.364 416.869 508.347 417.305 508.32L417.633 508.298H417.649C417.672 508.292 417.684 508.292 417.706 508.292C417.9 508.263 418.089 508.206 418.277 508.178C420.459 507.811 422.367 508.175 424.416 508.856L424.673 508.943C428.122 510.131 431.543 511.233 435.107 512.05C438.79 512.889 442.519 513.557 446.26 514.083L446.631 514.128L446.745 514.145L446.802 514.151C446.813 514.151 446.825 514.151 446.836 514.157L447.938 514.294C448.807 514.397 449.674 514.488 450.543 514.579C452.142 514.739 453.74 514.865 455.339 514.956C482.939 516.51 506.119 494.781 513.114 468.729C515.65 459.3 515.815 449.895 515.067 440.484C514.827 439.798 514.685 439.039 514.69 438.205C514.69 437.771 514.714 437.343 514.742 436.909C513.812 427.806 512.195 418.697 511.184 409.56C510.003 398.887 509.345 388.152 509.585 377.409C509.705 372.104 510.27 366.85 511.013 361.597L511.281 359.71C507.926 359.055 504.807 357.464 502.323 355.161C496.934 358.273 489.958 358.549 484.638 355.262C478.676 359.001 470.347 359.34 464.343 355.685C460.714 358.275 456.142 359.393 451.654 358.409C449.636 357.967 447.628 357.011 445.909 355.687C444.682 355.903 443.439 355.987 442.203 355.922L441.947 356.065C439.098 357.567 435.941 358.556 432.692 358.445C430.287 358.364 427.809 357.89 425.515 356.992C423.065 358.471 420.383 359.481 417.514 359.843C413.324 360.371 408.802 359.444 405.318 357.067C398.95 360.695 391.117 361.253 384.243 358.816C382.836 361.2 380.888 363.256 378.607 364.841C379.015 366.304 379.146 367.864 379.005 369.364C378.774 371.834 378.155 374.048 377.143 376.036C378.21 378.256 378.531 380.983 377.934 383.719C377.082 387.622 374.812 391.017 371.872 393.661C371.613 399.889 368.197 405.729 362.638 408.973C362.357 409.137 362.077 409.27 361.798 409.391C361.552 409.727 361.259 410.022 360.923 410.271C357.389 413.537 351.794 413.277 347.363 411.432C347.278 411.436 347.193 411.443 347.106 411.445C345.523 411.485 344.445 410.868 343.805 409.96C343.16 409.995 342.52 410.063 341.875 410.183C339.522 410.623 336.94 411.468 334.81 412.565C329.282 415.408 326.724 420.433 325.959 426.475C325.126 433.065 327.021 439.781 332.121 444.241C334.599 446.411 337.768 447.77 340.989 448.341C344.547 448.975 348.35 447.416 350.977 450.472C351.503 451.077 351.862 451.922 351.577 452.739C350.686 455.286 349.218 456.262 346.923 456.616C350.24 460.551 353.644 464.354 357.413 467.889C361.49 471.721 365.705 475.433 369.383 479.659C373.272 484.13 376.784 488.87 379.222 494.295C380.615 497.413 381.735 500.628 382.94 503.821L383.156 504.377C384.5 507.768 386.287 511.038 384.219 514.579C383.397 515.973 381.535 517.321 379.822 517.098C374.997 516.481 373.381 513.22 371.895 508.972C370.776 505.762 369.919 502.461 368.715 499.281C368.489 498.692 368.244 498.109 367.986 497.529C365.204 498.305 362.145 497.689 359.662 496.103C357.009 497.278 354.069 497.865 351.231 497.815C347.43 497.748 343.957 496.693 340.972 494.788C340.734 494.725 340.495 494.665 340.258 494.597C335.717 496.336 330.398 496.025 326.285 493.206C323.623 491.38 321.802 488.944 320.767 486.231C317.327 486.165 313.923 484.945 311.458 482.504C309.194 480.264 307.871 477.372 307.478 474.368C304.516 473.781 301.74 472.35 299.562 469.938C297.744 467.924 296.639 465.359 296.266 462.695C292.659 461.666 289.406 459.311 287.629 456.027C285.976 452.971 285.737 449.654 286.546 446.638L286.336 446.336C282.621 444.392 279.786 441.209 279.495 436.662C279.412 435.367 279.552 434.072 279.903 432.847C279.776 431.477 279.857 430.107 280.216 428.782C275.22 423.923 273.409 416.116 276.122 409.663C271.239 404.409 269.949 396.1 273.529 389.865C271.074 386.895 269.812 383.109 270.023 379.065C270.286 374.018 272.598 369.609 275.368 365.526C273.312 363.253 272.216 360.083 272.296 357.022C272.41 352.585 274.768 348.765 277.721 345.601C275.145 337.789 278.023 329.314 284.345 324.369C283.066 322.262 282.592 319.652 283.009 317.008C283.74 312.388 287.206 309.241 290.947 306.751C290.164 304.205 290.37 301.458 291.615 298.825C293.277 295.313 296.412 293.086 299.684 291.201C300.529 283.412 309.232 276.759 316.53 280.779C314.72 274.983 319.935 268.724 325.931 268.062C328.865 259.164 338.99 253.557 348.093 255.767C352.747 249.405 361.411 246.956 368.766 249.685C376.853 243.489 386.886 242.569 396.348 245.716ZM338.745 420.411C344.427 420.102 348.687 424.739 351.68 428.982C354.489 432.963 347.282 437.166 345.181 432.78C344.427 431.215 343.57 429.559 342.423 428.189C342.23 428.459 342.059 428.738 341.89 429.025L341.72 429.314C341.595 429.525 341.463 429.742 341.355 429.965C341.366 430.005 341.195 430.53 341.189 430.553C340.721 431.975 339.699 432.888 338.306 433.38C336.506 434.008 334.805 432.654 334.228 431.067C333.309 428.531 335.444 426.321 337.666 425.316C335.484 424.962 333.337 425.704 331.761 427.383C331.544 427.618 331.178 427.429 331.167 427.138C330.984 423.157 335.147 420.605 338.745 420.411Z" fill="black"/>
</svg>
