<svg width="788" height="788" viewBox="0 0 788 788" fill="none" xmlns="http://www.w3.org/2000/svg">
<path fill-rule="evenodd" clip-rule="evenodd" d="M606.9 302.21C603.11 240.008 582.926 169.487 523.522 138.947C392.563 86.389 220.379 218.745 211.263 353.957C208.085 400.241 233.783 450.816 280.744 463.684C291.185 477.517 306.975 485.965 322.56 493.297C508.187 589.604 628.094 511.317 606.9 302.21Z" fill="white"/>
<path fill-rule="evenodd" clip-rule="evenodd" d="M649.189 263.517C642.629 245.297 635.699 227.217 628.409 209.277C621.309 191.817 614.896 173.98 606.079 157.347C553.419 58.0071 457.659 58.0071 408.159 70.9871C382.489 59.9271 334.408 63.0468 307.679 73.0271C264.407 89.1841 211.658 152.742 193.623 181.298C153.804 244.347 128.954 328.264 155.404 401.12C158.861 410.642 163.27 419.461 168.234 427.96C165.107 432.198 161.508 436.212 157.521 440.156C145.673 451.878 133.825 463.214 123.59 476.435C113.419 489.574 104.987 503.546 98.7099 518.951C86.8739 548.003 86.3039 580.899 101.952 608.62C115.566 632.74 139.683 650.701 166.854 652.414C168.249 652.608 169.646 652.786 171.049 652.927C174.649 658.857 179.039 664.317 184.049 669.077C199.399 683.677 235.989 691.167 256.859 691.647C257.929 692.507 259.009 693.367 260.089 694.217C272.859 704.267 286.259 714.407 300.919 721.557C310.849 726.407 323.869 730.457 334.229 726.957C338.929 730.097 346.639 729.437 351.299 726.867C358.959 722.647 365.189 715.047 368.979 707.267C378.169 688.377 375.959 667.707 373.599 647.527C370.999 625.237 368.499 602.937 365.959 580.647C363.969 563.217 361.889 545.497 356.589 528.707C353.849 520.007 350.259 511.647 345.619 503.787C345.739 503.127 345.719 502.467 345.529 501.847C344.009 496.907 340.869 494.317 337.149 490.957C336.669 490.527 336.189 490.087 335.719 489.637C333.859 487.517 331.869 485.547 329.739 483.877C328.919 483.047 328.109 482.207 327.299 481.367C320.569 474.317 314.209 466.907 308.559 458.967C303.079 451.267 298.129 443.227 293.419 435.037C288.629 426.707 285.459 417.517 280.679 409.247C280.269 408.537 279.229 408.397 278.649 408.987C277.169 410.517 276.219 412.217 276.399 414.007L275.659 414.117C275.379 411.417 272.889 409.217 269.509 409.807C264.449 410.687 260.289 411.017 255.909 409.337C256.679 404.227 257.389 399.107 258.089 393.977C259.369 384.537 260.559 375.067 261.579 365.597C264.049 366.187 266.499 367.037 268.899 368.117C272.319 369.647 275.549 371.707 278.309 374.237C281.029 376.737 282.909 380.107 286.229 381.847C290.049 383.837 294.659 380.547 293.539 376.227C291.269 367.497 278.419 362.497 270.469 360.847C267.739 360.277 264.949 360.037 262.159 360.097C262.789 354.017 263.349 347.937 263.809 341.847C264.029 338.967 264.229 336.087 264.419 333.197C270.599 331.327 277.219 330.767 283.649 331.647C285.769 333.337 287.889 335.007 289.939 336.697C296.449 342.077 302.929 347.487 309.329 352.997C309.909 353.487 310.479 353.977 311.059 354.477C314.859 357.747 319.599 354.507 318.959 349.877C313.739 311.937 336.979 281.757 364.189 258.377C394.309 232.487 449.069 229.472 484.889 184.627C501.386 187.985 538.219 197.957 553.419 222.177C574.699 256.117 571.919 286.527 573.539 325.027C575.159 363.557 579.279 403.747 570.529 441.737C562.459 476.767 540.609 506.697 506.709 520.457C505.869 520.797 505.019 521.127 504.169 521.447C486.639 528.057 467.509 529.927 449.069 526.447C428.659 522.587 411.619 513.247 394.639 501.757C393.659 501.107 392.229 502.447 392.969 503.427C415.349 533.087 459.309 542.997 494.179 535.167C495.809 534.797 497.429 534.397 499.039 533.957C491.239 556.387 492.809 581.007 502.969 602.847C509.079 615.987 518.399 627.357 529.749 636.327C542.259 646.207 557.779 654.187 566.459 668.057C574.409 680.767 572.049 695.047 558.439 702.387C555.009 704.247 553.689 710.257 557.089 712.897C558.389 713.897 559.689 714.917 561.019 715.917C568.639 721.667 589.569 732.467 592.959 732.867C623.059 736.437 643.299 714.337 656.269 688.267C671.499 657.667 667.539 620.377 650.759 591.237C637.299 567.857 610.789 544.817 621.329 515.227C625.089 504.657 632.779 495.647 640.249 487.507C648.769 478.237 657.929 469.557 666.099 459.957C674.219 450.427 681.419 440.057 685.439 428.097C691.309 410.617 688.389 391.717 683.979 374.267C674.529 336.807 662.259 299.847 649.189 263.517Z" fill="black"/>
</svg>
