<svg width="788" height="788" viewBox="0 0 788 788" fill="none" xmlns="http://www.w3.org/2000/svg">
<path fill-rule="evenodd" clip-rule="evenodd" d="M512.408 293.718C446.638 240.262 341.241 222.905 270.838 276.836C216.134 327.449 193.496 471.275 203.177 543.547C205.869 589.902 241.284 642.443 293.271 627.782C302.099 626.913 310.67 623.529 319.579 622.82C330.236 621.593 340.975 621.572 351.611 623.075C374.787 626.353 395.332 638.658 417.826 644.411C459.564 655.085 506.136 647.905 542.064 623.861C660.791 545.803 607.01 369.268 512.408 293.718Z" fill="white"/>
<path fill-rule="evenodd" clip-rule="evenodd" d="M503.649 645.696C504.87 645.275 506.089 644.836 507.299 644.386C507.379 644.666 507.509 644.935 507.66 645.196C507.83 645.616 508 646.025 508.189 646.435C506.67 646.446 505.149 646.175 503.649 645.696ZM501.21 127.675C500.67 126.466 500.049 125.306 499.349 124.185C501.049 124.736 502.75 125.496 504.29 126.476C503.25 126.826 502.229 127.226 501.21 127.675ZM241.42 285.836C241.35 285.824 241.281 285.814 241.212 285.802C242.104 283.427 243.693 281.185 245.448 279.566C245.763 279.275 246.104 279.006 246.434 278.728C244.571 280.947 242.881 283.314 241.42 285.836ZM716.769 534.185C715.889 525.845 714.769 517.536 713.319 509.275C711.929 501.366 710.759 492.906 706.729 485.886C702.729 478.896 698.719 472.105 693.96 465.956C694.639 462.816 695.54 459.866 696.319 457.486C700.819 443.786 705.25 426.386 695.899 413.656C693.729 410.706 691.08 408.446 688.049 406.406C686.759 405.536 684.62 404.746 683.629 403.546C682.929 402.696 683.17 403.156 683.139 402.736C682.969 400.476 688.269 395.706 689.509 393.916C691.83 390.605 693.559 386.876 694.879 383.066C700.099 367.986 696.549 351.376 693.41 336.265C691.75 328.256 689.92 320.226 689.319 312.046C688.759 304.366 689.809 296.866 690.429 289.226C691.03 281.685 690.87 273.906 687.639 266.925C686.059 263.525 683.67 260.525 680.759 258.185C677.92 255.896 674.379 254.566 671.61 252.286C668.849 250.015 669.639 246.946 670.36 243.806C671.349 239.546 672.599 235.316 672.719 230.916C672.939 223.246 669.809 215.775 664.92 209.976C659.879 203.986 652.679 199.935 644.899 199.025C641.339 198.605 637.839 199.316 634.299 199.066C630.799 198.826 630.04 197.076 629.379 193.876C627.86 186.546 628.479 179.306 624.87 172.466C621.67 166.386 615.979 162.265 609.689 159.836C598.16 155.376 584.75 156.296 572.589 158.925C565.41 137.806 543 123.956 520.95 123.786C517.509 117.946 511.679 113.586 505.03 111.025C494.03 106.775 482.379 109.256 470.92 109.256H470.87C469.719 109.185 468.569 109.156 467.42 109.166C466.339 109.105 465.259 109.015 464.179 108.896C451.139 107.355 438.239 102.015 425.319 107.246C419.559 109.576 414.979 113.166 412.08 117.746C407.71 118.935 403.399 120.296 399.17 121.876C380.839 122.355 362.679 132.185 353.41 148.116C340.36 146.636 326.2 149.146 317.569 159.806C315.321 162.58 313.58 165.839 312.426 169.299C303.626 172.145 295.483 177.216 290.154 184.854C285.291 191.824 284.357 200.836 287.646 208.318C279.79 214.009 273.651 222.156 270.694 231.776C268.897 237.621 268.63 243.66 269.786 249.413C261.743 251.197 254.05 254.504 247.234 259.467C240.091 264.666 231.17 272.941 230.7 282.465C230.665 283.164 230.692 283.863 230.748 284.56C215.023 283.455 198.989 286.119 188.36 298.726C180.379 308.185 176.91 320.366 179.04 331.456C160.33 335.256 142.639 345.036 130.299 359.496C121.33 370.006 113.36 383.366 113.839 397.675C113.989 401.986 115 406.326 116.75 410.336V410.345C116 411.756 115.229 413.326 114.489 414.996C102.899 423.105 94.4786 435.816 89.7386 449.826C85.9096 461.175 83.4996 475.916 87.5886 487.466C88.2096 489.226 88.9996 490.886 89.9196 492.425C89.1486 493.246 88.4196 494.066 87.7096 494.896C79.8986 504.025 71.9886 515.525 72.5296 528.095C72.7496 533.156 74.6286 538.246 77.6996 542.425C66.8986 553.376 58.1996 567.196 59.0586 582.626C59.7986 596.056 67.1696 609.696 78.7186 616.146C76.7896 626.496 79.3696 637.416 87.4286 645.496C91.4496 649.536 96.1886 652.196 101.21 653.616C102.33 665.806 113.149 675.616 124.639 678.435C126.78 678.966 128.92 679.286 131.049 679.435C141.389 684.506 153.719 683.925 164.269 679.275C167.379 683.226 171.429 686.446 176.149 688.756C178.059 689.696 180.08 690.476 182.189 691.105C197.089 695.515 212.37 689.536 225.399 682.556C225.819 682.336 226.589 682.056 227.269 681.746C229.069 683.756 232.349 685.746 234.059 686.726C239.86 690.056 246.95 691.605 253.61 691.166C261.42 690.646 268.309 688.066 274.689 684.396C275.62 684.556 276.559 684.646 277.5 684.696C283.5 685.015 288.849 683.116 293.66 680.116C296.839 680.536 300.099 680.496 303.399 679.916C310.67 681.765 317.75 678.826 323.439 674.156C325.96 672.086 328.089 669.656 330.37 667.336C332.739 664.925 334.54 664.366 337.309 662.746C343.86 658.916 344.649 649.206 341.809 642.185C342.349 640.956 342.66 639.586 342.66 638.066C342.639 624.806 336.53 612.646 329.03 602.036C325.679 597.306 322.04 592.675 318.049 588.476C314.839 585.105 310.33 579.636 305.58 578.265C305.29 578.056 304.989 577.845 304.689 577.646C305.61 574.425 306.149 571.146 305.92 567.796C305.679 564.355 304.569 561.095 302.79 558.316C308.759 546.746 311.28 534.056 310.08 520.816C314.939 513.925 318.62 506.316 320.519 497.976C321.689 492.816 322.36 487.386 322.269 482.095C322.229 479.556 321.299 476.345 321.28 473.716C321.42 474.546 322.5 471.446 322.92 470.675C327.739 461.726 333.929 454.746 334.96 444.196C335.559 438.025 334.099 431.206 330.399 426.146C332.769 416.806 332.739 406.775 329.009 397.866C328.009 395.486 326.86 393.156 325.54 390.946C326.149 389.086 326.71 387.206 327.429 385.515C327.71 384.845 327.989 384.166 328.269 383.486C330.979 381.095 333.5 378.486 335.62 375.925C340.319 370.256 343.91 363.756 344.36 356.265C344.58 352.515 343.7 348.925 342.61 345.366C342.129 343.756 341.839 341.966 341.269 340.396C340.95 339.525 340.179 338.636 339.91 337.816C339.849 337.636 339.799 337.486 339.759 337.366C339.799 337.246 339.83 336.996 339.83 336.525C339.839 332.935 340.309 329.425 340.33 325.966C343.62 329.286 347.58 331.765 352.08 333.216C361.149 336.126 370.61 334.806 378.639 330.316C387.28 336.236 396.989 341.595 407.17 343.746C413.219 345.025 419.28 344.496 425.349 345.286C431.379 346.076 437.21 348.706 442.889 350.756C455.53 355.326 468.139 360.015 480.819 364.466C491.059 368.056 502.139 370.906 512.86 368.886C515.87 373.525 519.78 377.446 524.79 380.326C528.379 382.376 532.319 383.765 536.389 384.456C539.989 385.066 544.21 384.826 547.129 387.296C549.979 389.696 551.759 393.275 554.319 395.976C557.17 398.996 560.689 401.616 564.379 403.496C567.339 405.006 570.36 406.095 573.429 406.806C573.16 413.636 572.899 420.456 572.819 427.296C572.67 442.156 572.729 457.015 572.53 471.876C572.33 486.685 571.86 501.496 571.08 516.286C570.339 530.166 569.299 544.095 565.989 557.636C555.009 602.566 513.879 634.736 467.839 636.376C454.17 636.866 440.639 634.946 427.569 630.925C414.03 626.756 401.939 618.175 388.059 615.536C384.429 614.855 381.009 618.506 383.089 622.015C386.67 628.046 391.019 631.726 396.969 635.355C403.2 639.146 410.139 641.956 416.989 644.416C429.589 648.935 442.92 651.556 456.29 652.286C466.489 652.845 476.729 652.146 486.719 650.226C487.42 652.376 488.66 654.466 489.599 656.456C489.739 656.746 490.21 656.546 490.12 656.246C489.969 655.746 489.87 655.306 489.83 654.946C493.189 659.326 498.379 662.355 503.71 663.826C507.469 664.866 511.46 665.185 515.33 664.746C516.58 664.605 517.769 664.396 518.95 664.136C522.889 667.586 527.929 669.886 532.989 671.036C532.12 676.316 534.729 682.076 540.78 683.576C543.319 684.206 545.759 684.216 548.2 683.986C550.17 684.906 552.29 685.626 554.54 686.116C557.469 686.756 560.969 685.935 563.179 683.816C564.389 684.666 565.519 685.256 566.639 686.605C571.25 692.166 581.189 687.736 581.629 681.306C583.089 681.306 584.559 681.326 586.03 681.376C586.379 681.536 586.729 681.696 587.089 681.866C593.519 684.855 600.179 687.466 607.29 685.116C608.599 684.685 609.799 684.136 610.889 683.496C615.899 683.946 620.839 683.956 625.92 682.316C628.92 681.345 631.739 679.806 634.089 677.786C641.929 680.086 650.2 681.126 658 678.275C663.839 676.146 668.54 672.786 671.849 668.355C676.91 668.536 682.049 667.316 686.679 664.906C694.599 660.806 700.149 653.015 704.019 645.206C712.54 627.976 717.58 609.466 719.559 590.376C721.509 571.576 718.729 552.876 716.769 534.185Z" fill="black"/>
</svg>
