<svg width="900" height="900" viewBox="0 0 900 900" fill="none" xmlns="http://www.w3.org/2000/svg">
<path fill-rule="evenodd" clip-rule="evenodd" d="M485.926 323.771C448.367 293.244 388.178 283.332 347.973 314.13C316.734 343.033 303.806 425.168 309.334 466.44C310.872 492.911 331.096 522.916 360.784 514.543C365.825 514.047 370.72 512.115 375.808 511.71C381.893 511.009 388.026 510.997 394.1 511.855C407.335 513.727 419.067 520.754 431.913 524.04C455.748 530.135 482.344 526.035 502.861 512.304C570.662 467.728 539.95 366.915 485.926 323.771Z" fill="white"/>
<path fill-rule="evenodd" clip-rule="evenodd" d="M480.924 524.773C481.621 524.532 482.317 524.282 483.008 524.025C483.054 524.185 483.128 524.338 483.214 524.487C483.312 524.727 483.409 524.961 483.517 525.195C482.649 525.201 481.781 525.046 480.924 524.773ZM479.531 228.949C479.223 228.258 478.868 227.596 478.468 226.956C479.439 227.27 480.411 227.704 481.29 228.264C480.696 228.464 480.113 228.692 479.531 228.949ZM331.174 319.269C331.134 319.262 331.094 319.257 331.055 319.25C331.564 317.893 332.472 316.613 333.474 315.689C333.654 315.522 333.849 315.369 334.037 315.21C332.973 316.477 332.008 317.829 331.174 319.269ZM602.629 461.093C602.127 456.33 601.487 451.585 600.659 446.868C599.866 442.351 599.197 437.52 596.896 433.511C594.612 429.519 592.322 425.641 589.604 422.13C589.992 420.336 590.506 418.652 590.951 417.293C593.521 409.469 596.051 399.532 590.711 392.263C589.472 390.578 587.959 389.288 586.228 388.123C585.492 387.626 584.27 387.175 583.704 386.489C583.305 386.004 583.442 386.267 583.425 386.027C583.327 384.736 586.354 382.012 587.062 380.99C588.388 379.099 589.375 376.97 590.129 374.794C593.11 366.182 591.083 356.697 589.29 348.067C588.342 343.494 587.297 338.908 586.954 334.237C586.634 329.851 587.234 325.568 587.588 321.205C587.931 316.899 587.839 312.456 585.994 308.47C585.092 306.528 583.728 304.815 582.065 303.479C580.444 302.171 578.422 301.412 576.841 300.11C575.264 298.813 575.715 297.06 576.127 295.267C576.692 292.834 577.406 290.419 577.474 287.906C577.6 283.526 575.812 279.26 573.02 275.948C570.142 272.527 566.03 270.214 561.587 269.694C559.554 269.454 557.555 269.86 555.534 269.718C553.535 269.581 553.102 268.581 552.724 266.754C551.857 262.568 552.21 258.433 550.149 254.527C548.322 251.055 545.072 248.702 541.48 247.315C534.896 244.768 527.238 245.293 520.293 246.795C516.194 234.734 503.396 226.825 490.804 226.728C488.839 223.393 485.51 220.903 481.713 219.441C475.431 217.013 468.777 218.43 462.233 218.43H462.205C461.548 218.39 460.891 218.373 460.235 218.379C459.617 218.344 459.001 218.293 458.384 218.225C450.937 217.345 443.57 214.295 436.192 217.282C432.903 218.613 430.287 220.663 428.632 223.279C426.136 223.958 423.675 224.735 421.26 225.637C410.791 225.911 400.421 231.524 395.128 240.622C387.675 239.777 379.589 241.21 374.66 247.298C373.376 248.882 372.382 250.743 371.723 252.719C366.698 254.344 362.047 257.24 359.004 261.602C356.227 265.582 355.694 270.729 357.572 275.001C353.086 278.251 349.58 282.904 347.891 288.397C346.865 291.735 346.713 295.184 347.373 298.469C342.78 299.488 338.386 301.376 334.494 304.211C330.415 307.18 325.32 311.905 325.052 317.344C325.032 317.743 325.047 318.142 325.079 318.54C316.099 317.909 306.943 319.431 300.873 326.63C296.315 332.032 294.334 338.988 295.551 345.321C284.866 347.491 274.763 353.076 267.716 361.334C262.595 367.336 258.043 374.965 258.317 383.137C258.402 385.598 258.98 388.077 259.979 390.367V390.372C259.551 391.178 259.11 392.074 258.688 393.028C252.069 397.659 247.261 404.918 244.554 412.918C242.367 419.399 240.991 427.817 243.326 434.413C243.681 435.418 244.132 436.366 244.657 437.245C244.217 437.714 243.801 438.182 243.395 438.656C238.934 443.869 234.417 450.437 234.726 457.615C234.852 460.505 235.925 463.412 237.679 465.798C231.511 472.052 226.543 479.944 227.033 488.756C227.456 496.425 231.665 504.215 238.261 507.898C237.159 513.808 238.632 520.044 243.235 524.659C245.531 526.966 248.237 528.485 251.105 529.296C251.744 536.257 257.923 541.859 264.484 543.469C265.707 543.772 266.929 543.955 268.145 544.04C274.05 546.936 281.091 546.604 287.116 543.949C288.892 546.205 291.204 548.044 293.9 549.363C294.991 549.9 296.145 550.345 297.349 550.704C305.858 553.223 314.584 549.808 322.025 545.822C322.265 545.697 322.704 545.537 323.093 545.36C324.121 546.508 325.994 547.644 326.97 548.204C330.283 550.105 334.332 550.99 338.135 550.739C342.595 550.442 346.529 548.969 350.173 546.873C350.704 546.965 351.241 547.016 351.778 547.044C355.204 547.227 358.259 546.142 361.006 544.429C362.822 544.669 364.683 544.646 366.568 544.315C370.72 545.371 374.763 543.692 378.012 541.025C379.452 539.843 380.668 538.456 381.97 537.131C383.323 535.754 384.352 535.435 385.933 534.51C389.674 532.322 390.124 526.777 388.503 522.768C388.811 522.066 388.989 521.284 388.989 520.416C388.977 512.843 385.488 505.899 381.205 499.84C379.291 497.139 377.213 494.494 374.934 492.097C373.101 490.171 370.526 487.048 367.813 486.265C367.648 486.146 367.476 486.026 367.305 485.912C367.831 484.072 368.138 482.2 368.008 480.287C367.87 478.322 367.236 476.46 366.22 474.873C369.629 468.266 371.069 461.019 370.383 453.458C373.158 449.523 375.26 445.178 376.345 440.415C377.013 437.468 377.396 434.367 377.344 431.346C377.321 429.896 376.79 428.062 376.779 426.561C376.859 427.035 377.476 425.265 377.716 424.824C380.468 419.714 384.003 415.728 384.591 409.703C384.933 406.179 384.1 402.285 381.987 399.395C383.34 394.062 383.323 388.333 381.193 383.246C380.622 381.887 379.966 380.556 379.212 379.294C379.56 378.232 379.88 377.158 380.291 376.192C380.451 375.81 380.61 375.422 380.77 375.034C382.318 373.668 383.758 372.178 384.968 370.716C387.652 367.479 389.702 363.767 389.959 359.489C390.085 357.347 389.582 355.297 388.96 353.265C388.685 352.345 388.52 351.323 388.194 350.426C388.012 349.929 387.572 349.421 387.418 348.953C387.383 348.85 387.355 348.765 387.332 348.696C387.355 348.628 387.372 348.485 387.372 348.216C387.378 346.166 387.646 344.161 387.658 342.186C389.537 344.082 391.798 345.498 394.368 346.326C399.547 347.988 404.95 347.234 409.535 344.67C414.47 348.051 420.014 351.111 425.828 352.34C429.282 353.07 432.744 352.768 436.209 353.219C439.653 353.67 442.983 355.172 446.226 356.343C453.445 358.953 460.645 361.63 467.886 364.172C473.734 366.222 480.062 367.85 486.184 366.696C487.903 369.345 490.136 371.584 492.997 373.229C495.046 374.4 497.296 375.193 499.621 375.588C501.676 375.936 504.087 375.799 505.754 377.209C507.381 378.58 508.398 380.624 509.86 382.166C511.488 383.891 513.498 385.387 515.605 386.461C517.295 387.323 519.02 387.945 520.773 388.351C520.619 392.251 520.47 396.146 520.425 400.052C520.339 408.538 520.373 417.024 520.26 425.51C520.145 433.967 519.877 442.425 519.431 450.871C519.008 458.798 518.414 466.752 516.524 474.485C510.254 500.143 486.766 518.514 460.474 519.451C452.668 519.73 444.941 518.634 437.477 516.338C429.746 513.957 422.841 509.057 414.914 507.55C412.841 507.161 410.888 509.246 412.076 511.25C414.121 514.694 416.605 516.795 420.003 518.868C423.561 521.032 427.524 522.637 431.435 524.042C438.631 526.623 446.244 528.119 453.879 528.536C459.703 528.855 465.551 528.456 471.256 527.36C471.656 528.588 472.364 529.781 472.9 530.918C472.98 531.083 473.249 530.969 473.198 530.798C473.112 530.512 473.055 530.261 473.032 530.055C474.951 532.557 477.914 534.286 480.959 535.126C483.105 535.72 485.385 535.902 487.595 535.652C488.308 535.571 488.987 535.452 489.662 535.303C491.911 537.274 494.789 538.587 497.679 539.244C497.183 542.259 498.673 545.548 502.128 546.405C503.578 546.765 504.972 546.77 506.365 546.639C507.49 547.164 508.701 547.576 509.986 547.855C511.659 548.221 513.657 547.752 514.919 546.542C515.61 547.027 516.256 547.364 516.895 548.135C519.529 551.31 525.204 548.781 525.456 545.109C526.289 545.109 527.129 545.12 527.969 545.149C528.168 545.24 528.368 545.331 528.574 545.428C532.246 547.135 536.049 548.626 540.11 547.284C540.857 547.038 541.543 546.725 542.165 546.359C545.026 546.616 547.847 546.622 550.749 545.685C552.462 545.131 554.072 544.252 555.414 543.098C559.891 544.412 564.614 545.006 569.069 543.378C572.403 542.162 575.088 540.243 576.977 537.713C579.867 537.816 582.802 537.119 585.446 535.743C589.969 533.402 593.138 528.953 595.348 524.493C600.214 514.654 603.093 504.083 604.223 493.182C605.336 482.446 603.749 471.767 602.629 461.093Z" fill="black"/>
</svg>
