<svg width="900" height="900" viewBox="0 0 900 900" fill="none" xmlns="http://www.w3.org/2000/svg">
<path fill-rule="evenodd" clip-rule="evenodd" d="M475.53 471.056C478.69 470.319 481.172 472.995 480.551 476.077C479.894 479.339 476.386 480.457 473.445 480.354C470.111 480.239 466.779 479.55 463.428 479.412C459.985 479.27 456.53 479.244 453.085 479.337C449.899 479.423 446.629 479.984 443.468 479.48C442.237 479.284 442.354 477.659 443.155 477.081C445.533 475.366 448.615 474.667 451.418 473.948C454.276 473.214 457.197 472.652 460.128 472.309C463.1 471.961 466.096 471.788 469.087 471.754C470.448 471.738 472.118 472.041 473.445 471.796C474.122 471.67 474.811 471.224 475.53 471.056ZM466.407 428.684C470.183 430.979 475.936 436.33 471.874 442.02C467.093 447.037 460.21 441.285 456.817 438.683C453.672 436.667 450.138 441.853 453.056 444.207C477.568 462.354 487.516 429.284 468.317 425.985C466.203 425.622 465.418 427.974 466.407 428.684ZM439.03 411.546C444.08 410.706 444.964 417.906 439.958 418.409C438.908 418.515 437.863 418.607 436.821 418.698C436.922 419.024 436.99 419.36 437.027 419.705C437.074 419.998 437.11 420.309 437.141 420.664C437.3 422.436 436.044 424.278 434.576 425.137C433.051 426.029 430.862 426.148 429.348 425.137C428.567 424.615 427.787 424.026 427.356 423.163C426.779 422.277 426.464 421.251 426.432 420.198C424.129 420.796 421.785 421.604 419.459 422.033C419.545 422.117 419.629 422.206 419.71 422.305C419.772 422.38 419.687 422.522 419.597 422.452L418.43 422.194C418.071 422.241 417.712 422.279 417.354 422.302L417.363 422.27C416.764 422.26 416.274 421.552 416.81 420.986C418.864 418.814 422.07 417.371 424.993 416.164L427.809 415.01C431.41 413.546 435.212 412.181 439.03 411.546ZM479.66 413.773C482.968 413.396 486.244 413.546 489.557 413.748C495.134 414.087 492.795 422.219 488.319 420.342C488.365 420.639 488.377 420.937 488.342 421.215C488.167 422.644 487.701 423.852 486.389 424.62C485.171 425.333 483.626 425.331 482.408 424.62C481.103 423.859 480.514 422.787 480.181 421.393C479.923 420.313 480.027 419.409 480.176 418.339C480.225 417.984 480.38 417.654 480.594 417.357C480.282 417.279 479.969 417.203 479.656 417.133C476.873 416.5 474.128 416.627 471.353 416.226C471.057 416.183 471.01 415.705 471.269 415.583C473.762 414.412 476.932 414.084 479.66 413.773ZM438.52 388.658C440.429 387.929 442.827 389.141 443.802 390.807C444.908 392.698 444.435 394.881 443.07 396.475C440.976 398.919 436.988 400.425 434.05 401.82L433.814 401.933C430.796 403.389 427.695 404.726 424.552 405.891C421.462 407.037 418.247 407.935 415.043 408.706C413.353 409.113 411.628 409.449 409.901 409.661C408.538 409.828 407.487 409.454 406.183 409.454C405.993 409.454 405.933 409.202 406.089 409.105C407.307 408.339 408.212 407.33 409.541 406.621C410.925 405.882 412.314 405.156 413.708 404.437C416.526 402.984 419.24 401.367 421.959 399.74C424.825 398.024 427.626 396.218 430.35 394.284C433.016 392.391 435.473 389.82 438.52 388.658ZM472.538 387.102C474.922 386.639 477.283 387.767 477.989 390.197C478.665 392.524 477.958 393.023 479.762 394.689C481.201 396.016 482.752 397.201 484.317 398.367L486.621 400.08C490.793 403.169 495.001 406.089 499.798 408.173C500.204 408.349 499.969 408.952 499.585 408.96C491.958 409.107 484.644 408.074 477.76 404.66C474.544 403.065 471.313 401.047 469.449 397.863C467.291 394.176 467.354 388.107 472.538 387.102Z" fill="black"/>
</svg>
