<svg width="284" height="284" viewBox="0 0 284 284" fill="none" xmlns="http://www.w3.org/2000/svg">
<path fill-rule="evenodd" clip-rule="evenodd" d="M146.587 231.926C139.864 229.184 133.866 224.61 129.481 218.766C127.957 216.735 127.561 214.589 127.881 212.627C128.241 210.421 129.546 208.422 131.326 207.08C133.112 205.735 135.345 205.072 137.504 205.41C139.381 205.704 141.248 206.731 142.727 208.862L143.035 209.288C145.642 212.815 149.04 215.708 152.91 217.574C156.641 219.371 160.814 220.211 165.132 219.723C173.356 218.794 179.024 214.346 185.049 208.306C185.796 207.544 186.543 206.757 187.294 205.958C187.768 205.234 188.426 204.768 189.157 204.524C189.968 204.253 190.886 204.268 191.726 204.562C192.537 204.845 193.262 205.381 193.747 206.094C194.209 206.772 194.471 207.61 194.386 208.574C193.835 214.833 190.562 220.419 185.914 224.805C180.752 229.677 173.908 233.047 167.466 234.229C160.368 235.531 153.136 234.598 146.587 231.926ZM170.814 135.367C178.366 139.957 189.872 150.66 181.748 162.039C172.186 172.073 158.418 160.569 151.634 155.366C145.343 151.334 138.275 161.704 144.112 166.413C193.136 202.708 213.031 136.567 174.634 129.97C170.406 129.243 168.836 133.947 170.814 135.367ZM82.9633 93.1461C83.7976 82.7899 99.5702 80.4381 101.139 90.6861C102.544 99.8661 100.89 108.299 96.7552 116.564C92.8042 124.46 82.8737 120.776 82.1227 113.586C81.116 103.948 82.4443 99.5883 82.9633 93.1461ZM203.027 88.5612C205.226 85.6812 208.401 83.7152 212.205 84.8262C224.09 88.2992 220.587 105.172 216.413 113.385C214.145 117.845 206.814 118.976 203.501 115.049C198.101 108.645 195.515 95.8562 202.38 89.5482C202.566 89.2222 202.773 88.8932 203.027 88.5612ZM96.5878 47.8302L98.4652 47.5016C104.273 46.4972 111.494 45.532 115.603 50.2012C117.782 52.6772 118.532 57.2792 115.603 59.6492C110.451 63.8192 104.755 62.2032 98.5808 62.5562C93.4928 62.8482 88.6028 63.6902 83.7018 65.0912C72.9498 68.1642 64.1888 73.7742 55.0058 79.9342C53.8008 80.7422 52.5708 79.2012 53.1458 78.0742C58.4468 67.6912 68.7199 59.1622 79.0099 53.9632C84.5019 51.1882 90.5118 48.8862 96.5878 47.8302ZM192.193 43.1791L193.63 43.4732C209.267 46.7418 229.583 53.2711 236.988 68.6306C237.271 70.8025 236.972 71.2679 236.73 71.572L236.649 71.6733C236.45 71.9329 236.29 72.2909 235.349 72.5865C235.088 72.5243 234.824 72.4584 234.557 72.3885C231.163 71.499 228.477 70.2735 225.877 69.002L223.058 67.6132C219.788 66.0096 216.488 64.4643 212.992 63.3235C205.53 60.8896 197.854 59.175 190.06 58.2595C188.37 58.0612 186.744 57.4911 185.46 56.5139C184.242 55.5864 183.311 54.3022 182.887 52.5953C182.337 50.3862 182.495 48.7137 183.68 46.7208C184.572 45.2242 185.847 44.1868 187.311 43.5912C188.804 42.9839 190.503 42.8407 192.193 43.1791Z" fill="black"/>
</svg>
