<svg width="788" height="788" viewBox="0 0 788 788" fill="none" xmlns="http://www.w3.org/2000/svg">
<path fill-rule="evenodd" clip-rule="evenodd" d="M364.396 222.673C515.965 215.219 584.362 321.937 588.786 369.603C591.857 402.69 572.308 440.828 572.308 470.394C572.308 485.486 590.786 517.886 582.184 539.883C563.037 588.841 522.497 643.177 470.837 643.177C419.177 643.177 351.944 657.463 294.862 575.732C289.506 568.063 221.762 524.477 215.181 483.061C198.787 379.896 256.244 227.991 364.396 222.673Z" fill="white"/>
<path fill-rule="evenodd" clip-rule="evenodd" d="M357.25 156.258C362.67 150.058 371.82 147.578 379.95 148.058C391.76 148.758 402.031 156.048 413.781 156.588C426.1 157.158 437.99 152.888 450.34 154.868C457.91 156.088 465.41 159.598 470.26 165.518C487.06 160.708 505.3 167.078 516 180.988C529.2 178.938 543.56 187.679 547.6 200.398C564.37 200.938 580.2 214.408 582.07 231.288C588.771 233.058 594.59 237.679 598.16 243.788C602.31 250.868 603 258.988 602.25 266.968C610.14 270.998 614.15 279.658 615.2 288.818C622.41 294.198 625.54 303.868 624.07 312.998C629.59 316.108 632.441 323.348 632.41 329.808C632.38 335.838 630.781 341.179 633.031 346.998C635.035 352.181 635.755 356.5 634.652 361.929L634.54 362.458C634.345 363.343 634.181 364.192 634.034 365.029C635.527 366.339 636.79 367.981 637.738 369.891C641.196 376.871 640.681 384.832 638.044 391.911C639.199 396.419 639.052 401.181 637.345 405.514C640.542 410.119 642.223 415.767 641.729 421.627C641.175 428.188 638.179 434.063 633.636 438.407C634.846 447.369 631.202 457.052 624.613 463.362C625.548 468.727 624.741 474.35 621.806 479.436C619.714 483.061 616.898 485.761 613.649 487.643C613.756 490.636 613.351 493.697 612.355 496.764C610.972 501.02 608.63 504.941 605.548 508.099C607.387 519.857 600.347 532.904 587.956 536.203C586.915 536.48 585.922 536.607 584.971 536.627C583.74 547.936 581.052 559.088 576.89 569.679C566.31 596.648 547.07 620.228 521.98 634.938C509.57 642.208 495.63 647.188 481.4 649.268C471.16 650.768 461.31 650.398 451.031 649.378C438.13 648.088 425.17 646.158 412.63 642.838L410.613 642.302C405.415 640.909 399.934 639.302 395.43 636.498C390.39 633.358 387.771 628.518 386.611 622.818C385.964 619.645 387.973 616.233 391.446 616.168L391.67 616.168C392.43 616.184 393.184 616.155 393.947 616.107L394.521 616.068H394.55C394.59 616.058 394.611 616.058 394.65 616.058C394.99 616.008 395.32 615.908 395.65 615.858C399.471 615.215 402.812 615.853 406.4 617.046L406.85 617.198C412.89 619.278 418.88 621.208 425.12 622.638C431.57 624.108 438.1 625.278 444.65 626.198L445.3 626.278L445.5 626.308L445.6 626.318C445.62 626.318 445.64 626.318 445.66 626.328L447.59 626.568C449.111 626.748 450.63 626.908 452.15 627.068C454.95 627.348 457.75 627.568 460.55 627.728C508.88 630.448 549.47 592.398 561.72 546.778C566.16 530.268 566.45 513.798 565.14 497.318C564.72 496.118 564.47 494.788 564.48 493.328C564.48 492.568 564.521 491.818 564.57 491.058C562.941 475.118 560.111 459.168 558.34 443.168C556.271 424.478 555.12 405.679 555.54 386.868C555.75 377.578 556.74 368.378 558.04 359.179L558.51 355.874C552.635 354.727 547.173 351.941 542.824 347.908C533.386 353.358 521.171 353.841 511.855 348.086C501.415 354.633 486.829 355.227 476.316 348.826C469.962 353.362 461.956 355.319 454.097 353.597C450.562 352.823 447.047 351.148 444.037 348.829C441.888 349.208 439.711 349.355 437.546 349.242L437.099 349.492C432.109 352.122 426.581 353.853 420.892 353.66C416.68 353.518 412.341 352.687 408.324 351.115C404.033 353.705 399.337 355.473 394.313 356.107C386.976 357.032 379.058 355.409 372.956 351.247C361.805 357.599 348.089 358.577 336.053 354.309C333.588 358.484 330.177 362.084 326.183 364.859C326.898 367.421 327.126 370.153 326.88 372.78C326.476 377.104 325.392 380.981 323.619 384.463C325.488 388.351 326.05 393.125 325.004 397.917C323.513 404.751 319.537 410.696 314.389 415.326C313.935 426.232 307.954 436.458 298.22 442.139C297.727 442.426 297.237 442.66 296.748 442.871C296.318 443.459 295.804 443.976 295.217 444.412C289.027 450.131 279.231 449.676 271.472 446.445C271.322 446.452 271.173 446.465 271.021 446.468C268.25 446.538 266.361 445.458 265.24 443.868C264.111 443.929 262.99 444.048 261.861 444.258C257.74 445.028 253.22 446.508 249.49 448.429C239.81 453.408 235.33 462.208 233.99 472.788C232.531 484.328 235.85 496.088 244.781 503.898C249.12 507.698 254.67 510.078 260.31 511.078C266.54 512.188 273.2 509.458 277.8 514.808C278.72 515.868 279.35 517.348 278.85 518.778C277.29 523.238 274.72 524.948 270.7 525.568C276.51 532.458 282.47 539.118 289.07 545.308C296.21 552.018 303.59 558.518 310.031 565.918C316.84 573.748 322.99 582.048 327.26 591.548C329.7 597.008 331.66 602.638 333.771 608.228L334.148 609.202C336.502 615.141 339.632 620.866 336.01 627.068C334.57 629.508 331.31 631.868 328.31 631.478C319.861 630.398 317.031 624.688 314.43 617.248C312.47 611.628 310.97 605.848 308.861 600.278C308.466 599.247 308.036 598.226 307.585 597.211C302.713 598.569 297.356 597.491 293.008 594.713C288.362 596.772 283.215 597.799 278.244 597.712C271.588 597.595 265.507 595.746 260.279 592.411C259.863 592.301 259.445 592.195 259.03 592.076C251.077 595.122 241.763 594.578 234.562 589.641C229.899 586.444 226.711 582.177 224.899 577.426C218.874 577.311 212.914 575.175 208.597 570.901C204.633 566.977 202.316 561.914 201.628 556.653C196.442 555.626 191.58 553.119 187.767 548.896C184.583 545.369 182.648 540.877 181.994 536.213C175.678 534.411 169.982 530.287 166.871 524.537C163.976 519.184 163.558 513.377 164.974 508.095L164.607 507.567C158.101 504.162 153.136 498.588 152.626 490.626C152.482 488.359 152.726 486.091 153.341 483.945C153.119 481.546 153.261 479.148 153.89 476.828C145.14 468.318 141.97 454.648 146.72 443.348C138.17 434.148 135.91 419.598 142.18 408.679C137.88 403.478 135.67 396.848 136.04 389.768C136.5 380.929 140.55 373.208 145.4 366.058C141.8 362.078 139.88 356.528 140.021 351.168C140.22 343.398 144.35 336.708 149.521 331.168C145.01 317.488 150.05 302.648 161.12 293.988C158.88 290.298 158.05 285.728 158.781 281.098C160.06 273.008 166.13 267.498 172.68 263.138C171.31 258.679 171.67 253.868 173.85 249.258C176.76 243.108 182.25 239.208 187.98 235.908C189.46 222.268 204.7 210.618 217.48 217.658C214.31 207.508 223.441 196.548 233.941 195.388C239.08 179.808 256.81 169.988 272.75 173.858C280.9 162.718 296.07 158.429 308.95 163.208C323.111 152.358 340.68 150.748 357.25 156.258ZM256.38 462.168C266.33 461.628 273.79 469.748 279.031 477.178C283.95 484.148 271.33 491.508 267.65 483.828C266.33 481.088 264.83 478.188 262.82 475.788C262.482 476.261 262.184 476.75 261.888 477.252L261.59 477.758C261.37 478.128 261.14 478.508 260.95 478.898C260.97 478.968 260.67 479.888 260.66 479.928C259.84 482.418 258.05 484.018 255.611 484.878C252.46 485.978 249.48 483.608 248.47 480.828C246.861 476.388 250.6 472.518 254.49 470.758C250.67 470.138 246.91 471.438 244.15 474.378C243.771 474.788 243.13 474.458 243.111 473.948C242.79 466.978 250.08 462.508 256.38 462.168Z" fill="black"/>
</svg>
