<svg width="900" height="900" viewBox="0 0 900 900" fill="none" xmlns="http://www.w3.org/2000/svg">
<path fill-rule="evenodd" clip-rule="evenodd" d="M517.675 334.174C498.845 307.502 451.525 304.498 421.619 304.667C362.559 304.175 350.193 372.06 347.108 419.63C340.809 420.701 334.682 422.898 330.526 427.848C325.464 433.877 323.716 444.224 328.461 450.966C331.614 455.442 336.59 456.938 341.796 457.187C359.037 455.542 362.572 470.91 371.063 482.434C392.853 511.869 430.6 521.418 465.221 521.564C476.981 521.877 491.147 522.76 498.678 511.696C522.464 470.467 522.982 415.787 524.448 369.065C524.65 357.103 524.598 344.44 517.675 334.174Z" fill="white"/>
<path fill-rule="evenodd" clip-rule="evenodd" d="M413.407 222.32C415.536 219.103 420.207 217.856 423.446 220.242C426.143 218.574 429.535 218.925 431.958 220.954C434.889 219.222 438.528 219.921 440.827 222.336C444.51 220.324 449.371 221.81 451.343 225.623C455.059 225.211 458.561 227.644 459.552 231.165C459.727 231.307 459.901 231.454 460.074 231.6C462.3 231.707 464.416 232.58 465.664 234.65C466.287 235.684 466.575 236.9 466.533 238.09C467.864 238.81 468.939 239.99 469.4 241.52C469.832 242.955 469.669 244.374 469.102 245.61C470.955 247.582 471.445 250.656 470.132 253.132C470.675 254.064 470.958 255.166 470.914 256.311C470.848 258.006 470.061 259.373 468.992 260.54C470.337 262.967 469.813 266.08 467.626 267.782C466.371 272.234 463.192 275.196 458.322 277.013C455.876 277.926 453.317 278.629 450.709 279.145C461.145 280.549 471.413 283.017 481.275 286.697C481.812 286.898 482.267 286.819 482.615 286.586C482.83 286.7 483.05 286.805 483.265 286.922C485.983 288.413 488.644 290.029 491.237 291.759C491.237 291.474 491.242 291.188 491.254 290.897C491.203 288.547 491.451 286.232 492.075 284.001C491.258 282.888 490.647 281.619 490.315 280.312C489.485 277.049 491.064 272.405 493.899 271.29C494.893 268.534 497.152 266.54 499.922 265.756C500.142 265.558 500.375 265.365 500.636 265.186C501.219 264.785 501.857 264.512 502.513 264.353C502.854 262.86 503.687 261.485 505.069 260.521C507.019 259.159 509.326 259.011 511.352 259.754C511.737 259.624 512.128 259.512 512.523 259.414C515.785 256.637 520.869 256.842 523.739 260.091C525.71 259.19 528.032 259.15 530.049 260.362C531.662 261.332 532.667 262.895 533.06 264.611C536.115 264.705 538.91 266.732 539.791 269.758C542.606 270.076 544.909 272.28 545.398 275.053C547.194 275.303 548.853 276.147 549.862 277.825C550.329 278.601 550.582 279.45 550.647 280.301C551.555 280.736 552.37 281.396 552.985 282.258C554.062 283.768 554.27 285.531 553.874 287.189C553.965 287.373 554.064 287.553 554.151 287.739C554.444 288.362 554.679 289.031 554.889 289.71C555.836 291.076 556.273 292.745 556.186 294.421C556.387 295.131 556.582 295.842 556.744 296.556C557.383 299.36 557.623 302.347 557.183 305.202C556.966 306.584 556.652 307.943 556.207 309.262C556.161 309.514 556.087 309.748 556.001 309.97C555.756 311.01 555.442 312.032 555.042 313.031C554.082 314.305 553.077 315.544 552.021 316.743C551.13 318.08 550.114 319.313 548.966 320.444C548.138 321.26 547.23 322.02 546.265 322.705C544.349 324.241 542.205 325.438 539.918 326.217C539.509 326.132 539.099 326.065 538.688 325.999C536.09 327.429 532.004 327.591 529.505 327.581C526.751 327.571 524.229 326.875 522.132 325.561C522.376 326.045 522.618 326.529 522.861 327.014C522.801 327.049 522.735 327.081 522.683 327.121C522.23 326.37 521.724 325.703 521.127 325.224C520.314 324.567 519.001 324.509 518.437 325.57L518.407 325.626C518.106 326.192 518.149 326.735 518.378 327.178C518.462 327.299 518.546 327.421 518.629 327.542C518.659 327.576 518.687 327.612 518.72 327.644L518.705 327.646C519.484 328.274 520.252 329.811 520.979 331.305C521.472 332.179 521.94 333.064 522.379 333.965C522.636 334.344 523.091 334.675 523.575 334.772C523.48 335.491 523.811 336.235 524.355 336.604C524.498 336.317 524.671 336.022 524.895 335.718C527.349 332.384 532.171 330.946 535.803 332.469C536.527 332.347 537.254 332.246 537.989 332.188C540.386 332.03 542.816 332.219 545.184 332.715C545.918 333.156 546.621 333.652 547.275 334.218C547.829 334.698 548.343 335.2 548.823 335.72C549.194 335.998 549.559 336.293 549.917 336.6C551.369 337.38 552.435 338.878 553.33 340.368C554.041 341.373 554.662 342.44 555.199 343.571C557.689 347.831 560.562 353.12 558.317 357.309C558.556 357.761 558.732 358.261 558.83 358.805C559.14 360.533 558.503 361.854 557.668 363.136C557.777 364.03 557.838 364.897 557.886 365.66C558.152 369.94 557.171 375.808 553.397 377.556C553.338 377.626 553.278 377.697 553.216 377.767C552.924 378.241 552.48 378.651 551.896 378.95C551.751 379.051 551.604 379.147 551.456 379.229C551.389 379.287 551.313 379.334 551.244 379.389C551.323 379.306 551.399 379.22 551.477 379.136C549.389 379.968 547.373 380.14 545.221 379.887C543.89 380.368 542.557 380.727 541.431 381.005C537.918 381.873 533.389 382.567 529.965 381.088C528.968 380.658 528.14 380.087 527.518 379.407C527.57 382.057 527.647 384.706 527.762 387.356C527.996 394.054 527.985 400.747 527.933 407.451C527.876 414.995 527.665 422.545 527.259 430.083C527.071 433.869 526.768 437.649 526.363 441.418C526.02 445.09 525.62 448.757 525.158 452.411C524.067 459.927 522.268 467.499 520.075 474.763C519.122 477.915 518.077 481.108 516.889 484.226C516.386 485.659 515.855 487.075 515.278 488.48C512.235 495.841 508.443 502.945 503.32 509.078C500.522 512.425 497.433 515.434 493.983 517.964C491.214 520.123 488.216 521.95 484.921 523.389C477.839 526.484 469.936 527.181 462.278 527.067C459.297 527.027 456.133 526.49 453.187 525.999C450.925 525.628 448.635 525.131 446.368 524.548C444.358 524.08 442.37 523.538 440.412 522.904C438.053 522.281 435.792 521.385 433.639 520.226L429.824 518.792C428.231 518.193 426.683 517.479 425.181 516.662L421.035 514.726C419.317 513.898 417.643 512.99 416.01 511.991C415.839 511.899 415.645 511.745 415.57 511.574C415.148 511.34 414.72 511.117 414.297 510.877C414.228 510.843 414.28 510.643 414.371 510.449C414.297 510.295 414.308 510.123 414.514 509.969C414.668 509.849 414.914 509.883 415.171 509.963C415.148 509.946 415.131 509.929 415.114 509.912C414.828 509.758 414.548 509.609 414.268 509.455C413.983 509.301 413.937 508.901 414.206 508.69C414.28 508.633 414.365 508.604 414.451 508.599L414.434 508.593C414.383 508.559 414.423 508.399 414.497 508.222C414.354 508.039 414.308 507.816 414.56 507.622C414.931 507.331 415.799 507.868 416.113 508.045C416.473 508.245 416.838 508.433 417.198 508.627C417.221 508.576 417.266 508.53 417.341 508.484C416.81 508.205 416.284 507.919 415.759 507.634C415.433 507.462 415.011 507.102 415.439 506.765C415.782 506.491 416.667 506.96 417.089 507.2C417.141 507.16 417.198 507.142 417.266 507.131C417.084 507.028 416.89 506.931 416.707 506.823C416.193 506.537 416.541 505.646 417.072 505.943L417.261 506.057C417.643 506.023 418.18 506.337 418.426 506.474C420.213 507.599 422.075 508.581 424.005 509.427C425.307 510.043 426.615 510.654 427.928 511.248C429.219 511.888 430.549 512.442 431.914 512.91C435.346 514.246 438.813 515.491 442.313 516.645C447.219 517.987 452.296 519.066 457.39 519.489C458.052 519.54 458.714 519.586 459.377 519.609C460.827 519.597 462.278 519.592 463.723 519.58C466.538 519.289 469.353 519.003 472.163 518.718C473.145 518.581 474.105 518.41 475.053 518.21C475.549 518.09 476.046 517.964 476.537 517.821C476.709 517.798 476.88 517.764 477.051 517.736C478.256 517.416 479.438 517.033 480.62 516.588C481.363 516.285 482.1 515.965 482.831 515.628C485.246 514.503 487.622 513.019 489.86 511.317L498.272 502.945L500.836 499.45C504.148 494.716 506.77 489.439 508.945 484.054L512.406 474.083C512.766 472.884 513.108 471.685 513.434 470.48C514.091 467.785 514.747 465.089 515.404 462.399C515.621 461.411 515.832 460.429 516.038 459.447C517.3 453.331 517.997 447.123 518.596 440.916C519.693 429.62 519.99 418.29 520.07 406.949C520.121 400.17 520.064 393.392 519.927 386.619C519.847 382.69 519.79 378.761 519.733 374.832C519.659 370.663 519.579 366.489 519.47 362.32C519.464 362.229 519.499 362.149 519.544 362.08C519.533 361.589 519.527 361.098 519.522 360.601C519.516 360.276 519.641 360.133 519.824 360.104C519.79 357.129 519.767 354.16 519.761 351.19C519.761 350.996 519.853 350.87 519.973 350.796V350.042C519.476 347.975 518.802 345.948 517.928 344.017C517.631 343.321 517.3 342.641 516.935 341.979C516.483 340.985 515.895 340.083 515.176 339.255C514.576 338.244 513.839 337.347 512.983 336.548L511.932 335.794C511.641 335.64 511.213 335.371 510.836 335.063L508.803 333.807C508.409 333.601 508.666 333.087 508.945 332.95V332.933C508.883 332.904 508.814 332.87 508.74 332.807C507.917 332.031 507.061 331.3 506.17 330.614C506.01 330.677 505.822 330.654 505.679 330.535C505.153 330.043 504.617 329.569 504.068 329.113C502.841 328.307 501.556 327.571 500.214 326.92C498.061 325.903 495.857 325.029 493.595 324.287C493.107 324.127 492.616 323.983 492.128 323.839C491.432 323.806 490.738 323.768 490.043 323.738C464.166 322.602 438.222 323.079 412.404 325.162C406.043 325.675 399.691 326.287 393.349 326.996C387.769 327.62 381.08 327.598 375.95 330.154C375.733 330.263 375.526 330.377 375.325 330.496C375.725 333.062 376.772 335.568 377.684 337.988C379.09 341.72 380.35 345.524 380.225 349.566C380.137 352.385 379.532 355.096 378.659 357.744C378.212 361.521 377.035 365.168 375.785 368.751C369.637 386.382 366.29 404.434 366.633 423.149C366.643 423.651 366.527 424.088 366.329 424.461C366.441 425.279 366.553 426.098 366.685 426.914C367.198 430.068 363.039 431.637 361.604 429.546C361.508 429.641 361.374 429.707 361.251 429.717C360.885 429.752 360.285 429.152 360.114 428.878C359.891 428.467 359.657 428.067 359.406 427.684C359.372 427.667 359.343 427.656 359.315 427.644C359.469 427.964 359.629 428.29 359.777 428.598C360.029 429.101 359.063 429.346 358.778 428.884C358.521 428.478 358.264 428.09 358.007 427.719C357.858 427.827 357.693 427.856 357.584 427.679C356.665 426.16 355.603 424.857 354.438 423.75C352.605 422.253 350.6 421.345 348.322 420.814C346.529 420.557 344.69 420.546 342.914 420.752C340.875 420.991 338.728 421.5 336.883 422.43C335.381 423.464 333.874 424.498 332.366 425.531C331.995 425.92 331.641 426.325 331.31 426.748C330.265 428.101 329.425 429.546 328.734 431.082C328.706 431.179 328.677 431.276 328.648 431.368C328.226 432.658 327.952 433.983 327.832 435.342L327.786 440.493C328.015 442.726 328.586 444.896 329.459 446.958C329.871 448.174 330.516 449.259 331.39 450.219C331.858 451.029 332.389 451.766 332.983 452.451C334.188 453.251 335.501 453.93 336.9 454.467C337.243 454.559 337.586 454.65 337.934 454.719C339.733 455.41 341.595 455.781 343.519 455.832C345.952 455.998 348.333 455.786 350.663 455.198C352.102 454.941 353.496 454.524 354.843 453.948C356.134 453.297 357.35 452.514 358.487 451.601C358.612 451.521 358.801 451.566 359.006 451.669C359.258 451.486 359.509 451.309 359.754 451.109C359.869 451.029 359.971 451.127 360.023 451.229L360.091 451.178C360.542 450.87 361.782 451.835 361.222 452.406C361.462 452.554 361.702 452.731 361.919 452.914C362.912 452.954 364.917 454.781 364.54 455.067C363.98 455.552 363.392 455.998 362.792 456.42C363.324 456.814 364.02 457.425 363.695 457.671C363.112 458.225 362.478 458.705 361.805 459.116C361.348 459.464 360.879 459.795 360.388 460.098C359.857 460.412 359.315 460.68 358.755 460.932C359.732 462.822 360.662 464.729 361.53 466.671C362.107 468.047 362.775 469.378 363.546 470.657C364.529 472.604 365.705 474.432 367.081 476.133C368.2 478.018 369.514 479.748 371.016 481.33C372.872 483.443 374.865 485.43 376.983 487.269C377.829 487.869 378.691 488.451 379.588 488.988C381.878 490.713 384.316 492.192 386.903 493.425C387.206 493.591 387.445 493.956 387.091 494.242C387.08 494.248 387.068 494.248 387.057 494.259C387.902 494.739 388.753 495.213 389.61 495.681C389.947 495.864 390.638 496.218 390.124 496.635C389.792 496.909 388.77 496.418 388.159 496.098C388.245 496.144 388.336 496.195 388.428 496.246C388.616 496.349 389.701 496.897 389.033 497.246C388.696 497.303 388.376 497.246 388.068 497.08C387.748 496.96 387.428 496.829 387.114 496.692C387.126 496.795 387.068 496.892 386.903 496.972C386.772 496.995 386.646 496.995 386.52 496.983C387.217 497.377 387.914 497.765 388.616 498.148C388.822 498.257 389.792 498.793 389.153 499.125C388.839 499.187 388.536 499.136 388.245 498.976C387.714 498.776 387.188 498.542 386.68 498.285L386.32 498.085C386.229 498.085 386.138 498.074 386.046 498.057C386.606 498.359 387.171 498.651 387.742 498.936C388.079 499.119 388.645 499.49 388.159 499.867C387.822 500.124 386.914 499.661 386.377 499.359C386.343 499.399 386.303 499.444 386.246 499.49C385.846 499.793 384.818 499.125 384.493 498.948C381.66 497.429 378.925 495.858 376.292 494.059C374.682 493.026 373.112 491.941 371.575 490.759C368.634 488.486 365.962 485.842 363.512 483.055C361.839 481.147 360.931 480.074 359.309 477.761C356.705 474.038 354.74 470.154 352.85 466.037C352.822 465.974 352.879 465.814 352.964 465.654C352.576 464.701 352.199 463.736 351.822 462.736C350.84 462.868 349.852 462.959 348.876 463.016C346.574 463.147 344.341 462.942 342.177 462.468C339.556 462.131 336.963 461.389 334.667 460.224C333.291 459.533 331.966 458.796 330.71 457.974C329.585 457.374 328.5 456.689 327.461 455.889C323.035 452.508 320.631 447.26 320.042 441.812C319.591 439.414 319.494 436.947 319.763 434.566C319.957 432.835 320.345 431.122 320.91 429.472C321.956 425.811 323.903 422.425 326.724 419.861C327.198 419.375 327.695 418.913 328.226 418.479C329.796 417.194 331.578 416.16 333.474 415.406C333.839 415.229 334.211 415.064 334.582 414.91L334.131 413.87C333.971 413.916 333.417 413.825 333.348 413.63C333.166 413.134 332.994 412.625 332.817 412.128C332.714 412.191 332.583 412.226 332.44 412.231V412.808C332.446 412.974 332.132 414.002 331.961 413.465C331.784 412.974 331.624 412.471 331.452 411.974C331.31 411.883 331.201 411.774 331.161 411.649C331.144 411.597 331.127 411.546 331.104 411.495L331.064 411.483V411.66C331.07 411.769 330.784 412.591 330.733 412.431C329.745 409.713 328.94 406.937 328.312 404.116C327.883 402.563 327.546 400.993 327.289 399.399C327.009 397.966 326.764 396.527 326.553 395.076L326.501 394.717L326.484 394.637C326.467 394.482 326.45 394.323 326.427 394.168C326.199 392.529 326.01 390.885 325.867 389.229C325.565 385.825 325.445 382.404 325.479 378.989C325.405 379.018 325.336 379.058 325.262 379.092C323.778 379.724 322.211 380.24 320.616 380.651C317.872 384.617 313.491 387.3 308.241 387.582C306.464 387.678 304.6 387.462 302.874 386.96C302.695 387.001 302.51 387.034 302.318 387.059C300.911 387.243 299.933 386.67 298.618 386.496C296.512 386.217 294.727 386.08 293.365 384.857C292.944 384.867 292.542 384.806 292.16 384.692C288.546 385.558 284.707 383.648 283.437 379.646C281.269 378.376 279.542 376.492 278.381 374.306C276.145 371.439 274.357 367.925 273.248 364.231C273.231 364.197 273.212 364.163 273.196 364.127C272.633 362.907 272.365 361.599 272.342 360.286C271.744 356.548 271.902 352.806 273.04 349.516C272.992 347.732 273.411 345.873 274.178 344.187C275.109 342.142 276.527 339.791 278.368 338.427C278.372 336.331 279.273 334.024 280.453 332.461C282.809 329.338 286.225 327.687 289.922 327.448C291.802 322.629 297.499 321.503 302.412 323.107C304.453 321.022 307.442 320.026 310.426 320.38C312.949 320.68 315.106 321.887 316.891 323.55C317.361 323.684 317.83 323.824 318.298 323.97C319.861 323.284 321.685 323.128 323.353 323.558C326.244 324.304 328.13 326.494 329.435 329.007C329.852 329.294 330.258 329.589 330.655 329.898C331.091 330.094 331.487 330.355 331.846 330.662C332.368 330.94 332.811 331.397 333.081 332.061C333.818 332.821 334.503 333.624 335.109 334.486C335.563 333.436 336.032 332.393 336.515 331.357C337.303 331.594 338.255 331.288 338.651 330.236C341.164 323.569 345.738 311.353 350.047 305.724C345.017 309.149 338.876 310.954 332.776 310.772C332.515 310.764 332.252 310.753 331.986 310.739C328.707 311.304 325.376 311.357 322.318 310.744C320.259 309.996 318.252 309.105 316.308 308.097C315.835 307.852 315.366 307.594 314.899 307.333C314.695 307.161 314.506 306.969 314.311 306.786C313.909 306.815 313.488 306.783 313.041 306.665C311.358 306.22 309.8 305.1 308.824 303.661C308.642 303.393 308.496 303.117 308.366 302.839C307.307 301.803 306.389 300.63 305.714 299.257C304.921 297.653 304.435 295.848 304.384 294.043C304.053 292.273 304.075 290.451 304.692 288.761C304.761 288.578 304.841 288.401 304.915 288.219C304.949 288.104 304.972 287.984 305.012 287.87C305.192 287.268 305.422 286.731 305.701 286.223C305.804 285.7 305.973 285.182 306.212 284.678C306.239 284.434 306.272 284.19 306.311 283.948C304.496 280.524 305.139 276.047 307.856 273.264C307.48 271.465 307.863 269.558 308.958 267.962C309.762 266.789 310.879 265.863 312.145 265.221C312.277 265.154 312.627 265.039 313.045 264.907C313.513 264.493 314.007 264.101 314.548 263.756C314.682 260.248 318.347 258.296 321.325 256.568C323.256 255.447 324.1 253.322 326.089 252.247C328.265 251.072 331.049 251.002 333.453 250.713C339.122 250.03 345.159 249.502 350.857 250.119C354.02 250.462 356.639 251.99 357.723 254.492C360.444 254.813 362.869 256.777 364.788 258.796C367.183 261.316 369.222 263.999 369.925 267.311C370.393 267.564 370.819 267.873 371.203 268.223C371.189 270.551 370.885 272.884 370.242 275.082C370.431 276.396 370.035 277.651 369.366 278.789C369.468 279.866 369.395 280.926 369.17 281.983C370.472 284.293 369.253 287.784 367.429 290.075L367.415 291.366C367.524 291.31 367.629 291.243 367.728 291.159C376.004 284.117 384.511 285.121 394.565 281.092C403.632 279.341 412.887 278.227 422.175 277.857C422.052 277.838 421.929 277.825 421.807 277.805C417.127 277.039 412.631 275.114 408.765 272.348C407.742 272.089 406.771 271.627 405.903 270.854C405.059 270.104 404.475 269.238 404.139 268.309C403.986 268.146 403.834 267.981 403.685 267.813C400.783 267.1 398.573 264.589 398.943 261.288C397.106 259.113 396.429 256.427 397.051 253.631C396.025 251.896 395.935 249.71 396.701 247.878C395.087 245.919 394.962 243.136 396.227 240.919C395.072 239.277 394.817 237.101 396.242 235.157C396.915 234.239 397.847 233.659 398.862 233.38C399.149 232.321 399.732 231.339 400.648 230.58C401.119 230.19 401.612 229.9 402.117 229.684C402.306 228.592 402.924 227.556 404.111 226.741C404.65 226.372 405.202 226.133 405.75 226C406.269 224.715 407.175 223.589 408.449 222.857C409.988 221.975 411.777 221.858 413.407 222.32ZM340.109 430.014C341.303 429.997 342.451 430.009 343.593 430.129C343.638 430.095 343.684 430.077 343.724 430.083C343.912 430.128 344.084 430.168 344.267 430.214C344.9 430.305 345.534 430.437 346.18 430.625C347.704 431.076 349.229 431.79 350.548 432.675C351.793 433.509 353.032 434.377 354.117 435.417C354.5 435.742 354.86 436.096 355.202 436.462C355.756 436.918 356.293 437.387 356.807 437.849C357.435 438.426 358.046 439.02 358.629 439.637C359.543 440.693 360.256 441.87 360.77 443.166C360.976 443.583 360.725 443.834 360.302 443.76C360.114 443.731 359.857 443.594 359.594 443.411L359.72 443.692C359.942 444.132 359.754 444.446 359.246 444.28C359.217 444.263 359.188 444.246 359.166 444.229C359.428 444.697 359.668 445.176 359.874 445.679C360.096 446.124 359.897 446.433 359.394 446.262C359.131 446.113 358.88 445.941 358.64 445.753C358.749 445.993 358.863 446.227 358.96 446.472C359.188 446.923 358.926 447.158 358.48 447.055C358.098 446.844 357.744 446.592 357.412 446.301C357.361 446.261 357.315 446.216 357.27 446.176C357.418 446.547 357.138 446.775 356.767 446.701C356.242 446.598 355.254 445.713 355.014 445.245L354.968 445.159C354.688 444.97 354.386 444.708 354.157 444.456C353.975 444.719 353.621 444.913 353.461 444.594C352.981 443.286 352.233 442.166 351.211 441.224C350.628 440.373 349.92 439.648 349.092 439.048C348.647 438.672 348.184 438.312 347.71 437.969C346.871 437.587 345.997 437.295 345.083 437.101C344.9 437.044 344.712 437.01 344.529 436.958C344.124 436.884 343.724 436.81 343.319 436.753C341.668 436.525 340.012 436.484 338.356 436.633C338.059 436.644 337.773 436.416 337.648 436.153C337.277 436.17 336.911 436.187 336.54 436.222C335.929 436.245 336.06 435.382 336.523 435.297C337.105 435.188 337.688 435.109 338.259 435.04C338.247 434.989 338.242 434.931 338.253 434.885C337.208 434.834 336.169 434.857 335.118 434.966C334.661 434.989 335.204 434.143 335.455 434.097C335.569 434.074 335.683 434.064 335.803 434.041C335.792 434.024 335.786 434.012 335.78 433.995H335.752C335.124 434.023 334.695 433.024 335.449 432.887C335.638 432.852 335.82 432.83 336.003 432.795C335.969 432.698 335.963 432.613 335.997 432.533C335.672 432.527 335.352 432.527 335.027 432.527C335.204 432.515 335.335 431.75 335.546 431.722L336.049 431.653C336.06 431.442 336.38 430.951 336.517 430.922C337.602 430.739 338.664 430.614 339.715 430.574C339.818 430.335 339.966 430.014 340.109 430.014Z" fill="black"/>
</svg>
