<svg width="788" height="788" viewBox="0 0 788 788" fill="none" xmlns="http://www.w3.org/2000/svg">
<path fill-rule="evenodd" clip-rule="evenodd" d="M568.206 330.681C535.232 283.976 452.37 278.714 400.001 279.01C296.58 278.149 274.925 397.024 269.524 480.324C258.493 482.2 247.765 486.046 240.487 494.715C231.623 505.271 228.561 523.39 236.871 535.196C242.391 543.035 251.105 545.655 260.222 546.091C290.412 543.21 296.603 570.121 311.472 590.3C349.628 641.845 415.728 658.566 476.353 658.822C496.945 659.37 521.751 660.916 534.939 641.541C576.591 569.345 577.498 473.594 580.066 391.778C580.419 370.832 580.329 348.658 568.206 330.681Z" fill="white"/>
<path fill-rule="evenodd" clip-rule="evenodd" d="M385.62 134.814C389.348 129.18 397.528 126.996 403.199 131.175C407.921 128.253 413.861 128.869 418.105 132.422C423.237 129.389 429.61 130.613 433.635 134.842C440.084 131.318 448.596 133.921 452.049 140.598C458.557 139.876 464.69 144.136 466.425 150.302C466.732 150.551 467.035 150.808 467.338 151.064C471.237 151.251 474.942 152.779 477.127 156.405C478.219 158.216 478.723 160.344 478.649 162.429C480.98 163.689 482.863 165.756 483.67 168.435C484.426 170.947 484.141 173.432 483.147 175.597C486.393 179.05 487.251 184.432 484.951 188.769C485.903 190.401 486.398 192.33 486.32 194.335C486.205 197.304 484.828 199.697 482.955 201.74C485.31 205.99 484.392 211.442 480.564 214.422C478.365 222.218 472.799 227.405 464.271 230.587C459.988 232.185 455.507 233.416 450.94 234.32C469.215 236.779 487.194 241.101 504.464 247.545C505.404 247.896 506.201 247.759 506.81 247.35C507.187 247.55 507.572 247.734 507.948 247.939C512.708 250.549 517.368 253.379 521.908 256.409C521.908 255.909 521.918 255.409 521.938 254.899C521.85 250.784 522.283 246.731 523.376 242.824C521.946 240.875 520.876 238.653 520.294 236.363C518.841 230.649 521.605 222.518 526.57 220.566C528.31 215.74 532.267 212.248 537.117 210.874C537.502 210.527 537.911 210.19 538.368 209.877C539.389 209.175 540.506 208.696 541.654 208.418C542.251 205.803 543.71 203.396 546.13 201.707C549.545 199.322 553.584 199.063 557.132 200.364C557.807 200.137 558.492 199.94 559.183 199.769C564.895 194.907 573.798 195.265 578.824 200.954C582.274 199.377 586.34 199.307 589.872 201.429C592.698 203.127 594.457 205.865 595.145 208.87C600.495 209.034 605.389 212.584 606.932 217.882C611.862 218.44 615.895 222.298 616.751 227.154C619.896 227.592 622.801 229.07 624.568 232.009C625.385 233.368 625.828 234.855 625.943 236.344C627.533 237.107 628.959 238.262 630.036 239.771C631.922 242.415 632.286 245.502 631.593 248.407C631.752 248.729 631.925 249.043 632.078 249.369C632.591 250.461 633.003 251.632 633.37 252.821C635.028 255.212 635.794 258.135 635.642 261.071C635.994 262.313 636.335 263.558 636.618 264.809C637.738 269.719 638.158 274.949 637.388 279.949C637.008 282.369 636.458 284.749 635.678 287.059C635.598 287.499 635.468 287.909 635.318 288.299C634.888 290.119 634.338 291.909 633.638 293.659C631.958 295.889 630.198 298.059 628.348 300.159C626.788 302.499 625.008 304.659 622.998 306.639C621.548 308.069 619.958 309.399 618.268 310.599C614.913 313.288 611.159 315.385 607.154 316.749C606.439 316.599 605.72 316.482 605 316.367C600.452 318.871 593.296 319.154 588.92 319.137C584.098 319.119 579.682 317.901 576.01 315.6C576.436 316.447 576.861 317.295 577.286 318.145C577.18 318.206 577.066 318.261 576.974 318.332C576.18 317.017 575.294 315.849 574.25 315.009C572.825 313.86 570.527 313.757 569.539 315.616L569.487 315.714C568.96 316.705 569.034 317.656 569.436 318.432C569.583 318.643 569.729 318.856 569.875 319.068C569.927 319.128 569.977 319.192 570.034 319.248L570.008 319.251C571.373 320.35 572.717 323.042 573.991 325.659C574.853 327.188 575.673 328.739 576.442 330.317C576.891 330.979 577.688 331.56 578.536 331.729C578.37 332.989 578.95 334.292 579.902 334.938C580.152 334.434 580.456 333.918 580.847 333.386C585.145 327.548 593.589 325.029 599.948 327.697C601.216 327.483 602.49 327.306 603.776 327.205C607.974 326.928 612.229 327.258 616.375 328.127C617.662 328.899 618.892 329.768 620.038 330.759C621.008 331.599 621.908 332.479 622.748 333.389C623.398 333.876 624.037 334.392 624.664 334.93C627.206 336.297 629.073 338.919 630.641 341.529C631.885 343.288 632.972 345.157 633.913 347.137C638.273 354.597 643.304 363.859 639.373 371.194C639.791 371.985 640.1 372.861 640.271 373.814C640.814 376.839 639.699 379.152 638.236 381.398C638.428 382.964 638.535 384.482 638.618 385.817C639.084 393.313 637.366 403.588 630.757 406.648C630.654 406.772 630.549 406.895 630.44 407.018C629.93 407.848 629.152 408.566 628.129 409.09C627.875 409.267 627.618 409.435 627.358 409.579C627.241 409.68 627.109 409.762 626.988 409.858C627.126 409.713 627.259 409.562 627.396 409.415C623.74 410.873 620.209 411.174 616.44 410.731C614.11 411.573 611.775 412.202 609.804 412.689C603.653 414.208 595.721 415.424 589.726 412.834C587.979 412.08 586.53 411.081 585.441 409.89C585.531 414.53 585.667 419.169 585.868 423.809C586.278 435.539 586.258 447.259 586.168 458.999C586.068 472.209 585.698 485.429 584.988 498.629C584.658 505.259 584.128 511.879 583.418 518.479C582.818 524.909 582.118 531.329 581.308 537.729C579.398 550.889 576.248 564.149 572.408 576.869C570.738 582.389 568.908 587.979 566.828 593.439C565.948 595.949 565.018 598.429 564.008 600.889C558.678 613.779 552.038 626.219 543.068 636.959C538.168 642.819 532.758 648.089 526.718 652.519C521.868 656.299 516.618 659.499 510.848 662.019C498.448 667.439 484.608 668.659 471.198 668.459C465.978 668.389 460.438 667.449 455.278 666.589C451.318 665.939 447.308 665.069 443.338 664.049C439.818 663.229 436.338 662.279 432.908 661.169C428.778 660.079 424.818 658.509 421.048 656.479L414.368 653.969C411.578 652.919 408.868 651.669 406.238 650.239L398.978 646.849C395.968 645.399 393.038 643.809 390.178 642.059C389.878 641.899 389.538 641.629 389.408 641.329C388.668 640.919 387.918 640.529 387.178 640.109C387.058 640.049 387.148 639.699 387.308 639.359C387.178 639.089 387.198 638.789 387.558 638.519C387.828 638.309 388.258 638.369 388.708 638.509C388.668 638.479 388.638 638.449 388.608 638.419C388.108 638.149 387.618 637.889 387.128 637.619C386.628 637.349 386.548 636.649 387.018 636.279C387.148 636.179 387.298 636.129 387.448 636.119L387.418 636.109C387.328 636.049 387.398 635.769 387.528 635.459C387.278 635.139 387.198 634.749 387.638 634.409C388.288 633.899 389.808 634.839 390.358 635.149C390.988 635.499 391.628 635.829 392.258 636.169C392.298 636.079 392.378 635.999 392.508 635.919C391.578 635.429 390.658 634.929 389.738 634.429C389.168 634.129 388.428 633.499 389.178 632.909C389.778 632.429 391.328 633.249 392.068 633.669C392.158 633.599 392.258 633.569 392.378 633.549C392.058 633.369 391.718 633.199 391.398 633.009C390.498 632.509 391.108 630.949 392.038 631.469L392.368 631.669C393.038 631.609 393.978 632.159 394.408 632.399C397.538 634.369 400.798 636.089 404.178 637.569C406.458 638.649 408.748 639.719 411.048 640.759C413.308 641.879 415.638 642.849 418.028 643.669C424.038 646.009 430.108 648.189 436.238 650.209C444.828 652.559 453.718 654.449 462.638 655.189C463.798 655.279 464.958 655.359 466.118 655.399C468.658 655.379 471.198 655.369 473.728 655.349C478.658 654.839 483.588 654.339 488.508 653.839C490.228 653.599 491.908 653.299 493.568 652.949C494.438 652.739 495.308 652.519 496.168 652.269C496.468 652.229 496.768 652.169 497.068 652.119C499.178 651.559 501.248 650.889 503.318 650.109C504.618 649.579 505.908 649.019 507.188 648.429C511.418 646.459 515.578 643.859 519.498 640.879L534.228 626.219L538.718 620.099C544.518 611.809 549.108 602.569 552.918 593.139L558.978 575.679C559.608 573.579 560.208 571.479 560.778 569.369C561.928 564.649 563.078 559.929 564.228 555.219C564.608 553.489 564.978 551.769 565.338 550.049C567.548 539.339 568.768 528.469 569.818 517.599C571.738 497.819 572.258 477.979 572.398 458.119C572.488 446.249 572.388 434.379 572.148 422.519C572.008 415.639 571.908 408.759 571.808 401.879C571.678 394.579 571.538 387.269 571.348 379.969C571.338 379.809 571.398 379.669 571.478 379.549C571.458 378.689 571.448 377.829 571.438 376.959C571.428 376.389 571.648 376.139 571.968 376.089C571.908 370.879 571.868 365.679 571.858 360.479C571.858 360.139 572.018 359.919 572.228 359.789V358.469C571.358 354.849 570.178 351.299 568.648 347.919C568.128 346.699 567.548 345.509 566.908 344.349C566.118 342.609 565.088 341.029 563.828 339.579C562.778 337.809 561.488 336.239 559.988 334.839L558.148 333.519C557.638 333.249 556.888 332.779 556.228 332.239L552.668 330.039C551.978 329.679 552.428 328.779 552.918 328.539V328.509C552.808 328.459 552.688 328.399 552.558 328.289C551.118 326.929 549.618 325.649 548.058 324.449C547.778 324.559 547.448 324.519 547.198 324.309C546.278 323.449 545.338 322.619 544.378 321.819C542.228 320.409 539.978 319.119 537.628 317.979C533.858 316.199 529.998 314.669 526.038 313.369C525.184 313.088 524.324 312.837 523.469 312.584C522.251 312.526 521.035 312.46 519.818 312.407C474.505 310.419 429.073 311.254 383.863 314.901C372.725 315.8 361.601 316.871 350.496 318.112C340.724 319.205 329.011 319.167 320.028 323.643C319.648 323.833 319.286 324.034 318.933 324.241C319.634 328.735 321.467 333.123 323.064 337.36C325.527 343.896 327.734 350.558 327.515 357.636C327.361 362.572 326.3 367.318 324.772 371.956C323.989 378.569 321.928 384.956 319.74 391.231C308.973 422.105 303.112 453.715 303.714 486.488C303.73 487.366 303.528 488.132 303.18 488.784C303.377 490.217 303.573 491.651 303.805 493.08C304.703 498.603 297.42 501.35 294.907 497.689C294.738 497.856 294.504 497.971 294.288 497.989C293.648 498.049 292.598 496.999 292.298 496.519C291.908 495.799 291.498 495.099 291.058 494.429C290.998 494.399 290.948 494.379 290.898 494.359C291.168 494.919 291.448 495.489 291.708 496.029C292.148 496.909 290.458 497.339 289.958 496.529C289.508 495.819 289.058 495.139 288.608 494.489C288.348 494.679 288.058 494.729 287.868 494.419C286.258 491.759 284.398 489.479 282.358 487.539C279.148 484.919 275.638 483.329 271.648 482.399C268.508 481.949 265.288 481.929 262.178 482.289C258.608 482.709 254.848 483.599 251.618 485.229C248.988 487.039 246.348 488.849 243.708 490.659C243.058 491.339 242.438 492.049 241.858 492.789C240.028 495.159 238.558 497.689 237.348 500.379C237.298 500.549 237.248 500.719 237.198 500.879C236.458 503.139 235.978 505.459 235.768 507.839L235.688 516.859C236.088 520.769 237.088 524.569 238.618 528.179C239.338 530.309 240.468 532.209 241.998 533.889C242.818 535.309 243.748 536.599 244.788 537.799C246.898 539.199 249.198 540.389 251.648 541.329C252.248 541.489 252.848 541.649 253.458 541.769C256.608 542.979 259.868 543.629 263.238 543.719C267.498 544.009 271.668 543.639 275.748 542.609C278.268 542.159 280.708 541.429 283.068 540.419C285.328 539.279 287.458 537.909 289.448 536.309C289.668 536.169 289.998 536.249 290.358 536.429C290.798 536.109 291.238 535.799 291.668 535.449C291.868 535.309 292.048 535.479 292.138 535.659L292.258 535.569C293.048 535.029 295.218 536.719 294.238 537.719C294.658 537.979 295.078 538.289 295.458 538.609C297.198 538.679 300.708 541.879 300.048 542.379C299.068 543.229 298.038 544.009 296.988 544.749C297.918 545.439 299.138 546.509 298.568 546.939C297.548 547.909 296.438 548.749 295.258 549.469C294.458 550.079 293.638 550.659 292.778 551.189C291.848 551.739 290.898 552.209 289.918 552.649C291.628 555.959 293.258 559.299 294.778 562.699C295.788 565.109 296.958 567.439 298.308 569.679C300.028 573.089 302.088 576.289 304.498 579.269C306.458 582.569 308.758 585.599 311.388 588.369C314.638 592.069 318.128 595.549 321.838 598.769C323.318 599.819 324.828 600.839 326.398 601.779C330.408 604.799 334.678 607.389 339.208 609.549C339.738 609.839 340.158 610.479 339.538 610.979C339.518 610.989 339.498 610.989 339.478 611.009C340.958 611.849 342.448 612.679 343.948 613.499C344.538 613.819 345.748 614.439 344.848 615.169C344.268 615.649 342.478 614.789 341.408 614.229C341.558 614.309 341.718 614.399 341.878 614.489C342.208 614.669 344.108 615.629 342.938 616.239C342.348 616.339 341.788 616.239 341.248 615.949C340.688 615.739 340.128 615.509 339.578 615.269C339.598 615.449 339.498 615.619 339.208 615.759C338.978 615.799 338.758 615.799 338.538 615.779C339.758 616.469 340.978 617.149 342.208 617.819C342.568 618.009 344.268 618.949 343.148 619.529C342.598 619.639 342.068 619.549 341.558 619.269C340.628 618.919 339.708 618.509 338.818 618.059L338.188 617.709C338.028 617.709 337.868 617.689 337.708 617.659C338.688 618.189 339.678 618.699 340.678 619.199C341.268 619.519 342.258 620.169 341.408 620.829C340.818 621.279 339.228 620.469 338.288 619.939C338.228 620.009 338.158 620.089 338.058 620.169C337.358 620.699 335.558 619.529 334.988 619.219C330.028 616.559 325.238 613.809 320.628 610.659C317.808 608.849 315.058 606.949 312.368 604.879C307.218 600.899 302.538 596.269 298.248 591.389C295.318 588.049 293.728 586.169 290.888 582.119C286.328 575.599 282.888 568.799 279.578 561.589C279.528 561.479 279.628 561.199 279.778 560.919C279.098 559.249 278.438 557.559 277.778 555.809C276.058 556.039 274.328 556.199 272.618 556.299C268.588 556.529 264.678 556.169 260.888 555.339C256.298 554.749 251.758 553.449 247.738 551.409C245.328 550.199 243.008 548.909 240.808 547.469C238.838 546.419 236.938 545.219 235.118 543.819C227.368 537.899 223.158 528.709 222.128 519.169C221.338 514.969 221.168 510.649 221.638 506.479C221.978 503.449 222.658 500.449 223.648 497.559C225.478 491.149 228.888 485.219 233.828 480.729C234.658 479.879 235.528 479.069 236.458 478.309C239.208 476.059 242.328 474.249 245.648 472.929C246.288 472.619 246.938 472.329 247.588 472.059L246.798 470.239C246.518 470.319 245.548 470.159 245.428 469.819C245.108 468.949 244.808 468.059 244.498 467.189C244.318 467.299 244.088 467.359 243.838 467.369V468.379C243.848 468.669 243.298 470.469 242.998 469.529C242.688 468.669 242.408 467.789 242.108 466.919C241.858 466.759 241.668 466.569 241.598 466.349C241.568 466.259 241.538 466.169 241.498 466.079L241.428 466.059V466.369C241.438 466.559 240.938 467.999 240.848 467.719C239.118 462.959 237.708 458.099 236.608 453.159C235.858 450.439 235.268 447.689 234.818 444.899C234.328 442.389 233.898 439.869 233.528 437.329L233.438 436.699L233.408 436.559C233.378 436.289 233.348 436.009 233.308 435.739C232.908 432.869 232.578 429.989 232.328 427.089C231.798 421.129 231.588 415.139 231.648 409.159C231.518 409.209 231.398 409.279 231.268 409.339C228.67 410.445 225.925 411.349 223.132 412.069C218.327 419.013 210.656 423.712 201.463 424.206C198.35 424.374 195.086 423.995 192.064 423.116C191.75 423.188 191.426 423.246 191.09 423.29C188.627 423.612 186.914 422.609 184.611 422.303C180.924 421.815 177.798 421.575 175.412 419.434C174.675 419.451 173.971 419.344 173.302 419.144C166.975 420.661 160.252 417.317 158.027 410.309C154.232 408.085 151.208 404.786 149.175 400.958C145.259 395.938 142.128 389.783 140.186 383.316C140.156 383.255 140.123 383.196 140.094 383.133C139.109 380.997 138.64 378.706 138.6 376.408C137.552 369.862 137.828 363.308 139.821 357.547C139.737 354.424 140.471 351.169 141.815 348.216C143.444 344.635 145.928 340.518 149.151 338.13C149.159 334.46 150.736 330.42 152.803 327.682C156.928 322.213 162.91 319.322 169.384 318.904C172.676 310.465 182.651 308.494 191.255 311.303C194.829 307.651 200.064 305.907 205.289 306.528C209.707 307.053 213.483 309.166 216.609 312.078C217.433 312.313 218.254 312.558 219.074 312.813C221.811 311.612 225.004 311.34 227.925 312.093C232.988 313.398 236.291 317.234 238.576 321.634C239.305 322.136 240.017 322.654 240.712 323.195C241.475 323.537 242.168 323.994 242.797 324.532C243.711 325.019 244.487 325.82 244.96 326.982C246.25 328.312 247.45 329.719 248.512 331.228C249.307 329.389 250.127 327.563 250.974 325.75C252.353 326.165 254.02 325.628 254.714 323.786C259.114 312.111 267.123 290.72 274.67 280.863C265.862 286.86 255.108 290.021 244.426 289.703C243.969 289.689 243.508 289.67 243.043 289.645C237.301 290.635 231.468 290.727 226.113 289.653C222.507 288.344 218.993 286.784 215.588 285.019C214.76 284.589 213.939 284.137 213.121 283.681C212.764 283.38 212.433 283.044 212.092 282.722C211.388 282.773 210.651 282.718 209.867 282.51C206.92 281.731 204.193 279.77 202.483 277.25C202.165 276.781 201.909 276.298 201.681 275.811C199.826 273.997 198.219 271.942 197.038 269.539C195.648 266.729 194.798 263.569 194.708 260.409C194.128 257.309 194.168 254.119 195.248 251.159C195.368 250.839 195.508 250.529 195.638 250.209C195.698 250.009 195.738 249.799 195.808 249.599C196.124 248.544 196.526 247.604 197.014 246.714C197.195 245.799 197.491 244.892 197.909 244.009C197.956 243.582 198.014 243.155 198.083 242.73C194.905 236.735 196.031 228.895 200.788 224.022C200.13 220.872 200.8 217.532 202.717 214.737C204.125 212.683 206.082 211.062 208.299 209.937C208.53 209.82 209.142 209.619 209.874 209.388C210.694 208.663 211.559 207.977 212.506 207.373C212.742 201.23 219.159 197.812 224.373 194.785C227.755 192.822 229.233 189.101 232.716 187.219C236.526 185.162 241.401 185.039 245.612 184.532C255.539 183.336 266.11 182.412 276.087 183.493C281.626 184.093 286.213 186.768 288.11 191.15C292.875 191.713 297.122 195.151 300.482 198.687C304.676 203.1 308.247 207.798 309.478 213.597C310.298 214.04 311.043 214.582 311.716 215.194C311.691 219.272 311.159 223.357 310.033 227.206C310.364 229.507 309.671 231.704 308.499 233.696C308.678 235.582 308.55 237.439 308.155 239.29C310.435 243.335 308.301 249.448 305.107 253.459L305.083 255.721C305.273 255.622 305.458 255.505 305.631 255.358C320.123 243.026 335.02 244.785 352.625 237.729C368.503 234.664 384.709 232.713 400.973 232.064C400.758 232.032 400.543 232.009 400.329 231.974C392.133 230.632 384.261 227.261 377.491 222.418C375.699 221.964 374 221.155 372.479 219.802C371.001 218.488 369.978 216.972 369.39 215.346C369.122 215.059 368.857 214.77 368.596 214.476C363.514 213.228 359.644 208.831 360.292 203.051C357.074 199.242 355.89 194.539 356.979 189.642C355.181 186.605 355.024 182.776 356.366 179.569C353.54 176.137 353.32 171.265 355.536 167.382C353.513 164.507 353.066 160.697 355.562 157.292C356.74 155.684 358.372 154.67 360.15 154.18C360.652 152.327 361.673 150.606 363.277 149.277C364.102 148.594 364.966 148.087 365.849 147.709C366.181 145.796 367.262 143.982 369.342 142.555C370.286 141.908 371.252 141.49 372.212 141.258C373.121 139.008 374.707 137.035 376.938 135.754C379.632 134.209 382.765 134.004 385.62 134.814ZM257.267 498.509C259.357 498.479 261.367 498.5 263.367 498.71C263.447 498.65 263.527 498.619 263.597 498.629C263.927 498.709 264.227 498.779 264.547 498.859C265.657 499.019 266.767 499.249 267.897 499.579C270.567 500.369 273.237 501.619 275.547 503.169C277.727 504.629 279.897 506.149 281.797 507.969C282.467 508.539 283.097 509.159 283.697 509.799C284.667 510.599 285.607 511.419 286.507 512.229C287.607 513.239 288.677 514.279 289.697 515.359C291.297 517.209 292.547 519.269 293.447 521.539C293.807 522.269 293.367 522.709 292.627 522.579C292.297 522.529 291.847 522.289 291.387 521.969L291.607 522.46C291.997 523.23 291.667 523.78 290.777 523.49C290.727 523.46 290.677 523.43 290.637 523.4C291.097 524.22 291.517 525.059 291.877 525.939C292.267 526.719 291.917 527.26 291.037 526.96C290.577 526.7 290.137 526.399 289.717 526.069C289.907 526.489 290.107 526.899 290.277 527.329C290.677 528.119 290.217 528.529 289.437 528.349C288.767 527.979 288.147 527.539 287.567 527.029C287.477 526.959 287.397 526.88 287.317 526.81C287.577 527.46 287.087 527.859 286.437 527.729C285.517 527.549 283.787 526 283.367 525.18L283.287 525.029C282.797 524.699 282.267 524.239 281.867 523.799C281.547 524.259 280.927 524.599 280.647 524.039C279.807 521.749 278.497 519.789 276.707 518.139C275.687 516.649 274.447 515.379 272.997 514.329C272.217 513.669 271.407 513.039 270.577 512.439C269.107 511.769 267.577 511.259 265.977 510.919C265.657 510.819 265.327 510.759 265.007 510.669C264.297 510.539 263.597 510.41 262.887 510.31C259.997 509.91 257.097 509.839 254.197 510.099C253.677 510.119 253.177 509.719 252.957 509.259C252.307 509.289 251.667 509.319 251.017 509.379C249.947 509.419 250.177 507.909 250.987 507.759C252.007 507.569 253.027 507.43 254.027 507.31C254.007 507.22 253.997 507.119 254.017 507.039C252.187 506.949 250.367 506.99 248.527 507.18C247.727 507.22 248.677 505.739 249.117 505.659C249.317 505.619 249.517 505.6 249.727 505.56C249.707 505.53 249.697 505.509 249.687 505.479H249.637C248.537 505.529 247.787 503.779 249.107 503.539C249.437 503.479 249.757 503.439 250.077 503.379C250.017 503.209 250.007 503.059 250.067 502.919C249.497 502.909 248.937 502.909 248.367 502.909C248.677 502.889 248.907 501.549 249.277 501.499L250.157 501.379C250.177 501.009 250.737 500.149 250.977 500.099C252.877 499.779 254.737 499.56 256.577 499.49C256.757 499.07 257.017 498.509 257.267 498.509Z" fill="black"/>
</svg>
