<svg width="900" height="900" viewBox="0 0 900 900" fill="none" xmlns="http://www.w3.org/2000/svg">
<path fill-rule="evenodd" clip-rule="evenodd" d="M428.581 456.836C432.207 456.136 436.719 457.661 440.335 458.329L440.605 458.378C444.99 459.144 449.366 460.069 453.8 460.521C458.033 460.954 462.356 461.031 466.59 460.545C468.623 460.311 470.638 459.913 472.613 459.379C473.458 459.15 474.296 458.896 475.124 458.613L475.218 458.577C475.826 458.326 477.471 457.38 477.452 457.907C477.914 457.373 478.551 456.995 479.251 456.811C480.238 456.551 481.505 456.795 482.331 457.493C483.405 456.642 485.017 457.252 485.738 458.271C486.973 460.019 486.571 462.067 486.412 464.094L486.398 464.273C486.263 466.184 486.055 468.082 485.799 469.979L485.686 470.791C485.288 473.597 485.178 478.224 481.779 479.144C479.09 479.872 476.63 477.105 474.897 474.91L473.948 473.693C472.824 472.268 471.804 470.801 470.982 469.18C470.608 468.443 470.246 467.687 469.932 466.922C469.893 466.825 469.864 466.738 469.834 466.651C464.848 467.322 459.744 467.226 454.745 466.567C451.58 466.15 448.462 465.547 445.391 464.737L444.005 467.242C442.384 470.162 440.739 473.074 439.011 475.928L438.877 476.146C437.259 478.72 434.549 481.299 431.346 479.37C428.479 477.644 428.357 473.718 428.055 470.788C427.854 468.831 427.69 466.862 427.612 464.894L427.583 464.05C427.532 462.142 427.222 459.931 427.955 458.146C428.061 457.886 428.435 457.686 428.66 457.96C430.192 459.823 430.656 462.711 431.318 464.997C432.055 467.541 433.122 470.32 433.505 472.959L433.612 472.772C433.99 472.056 434.374 471.343 434.761 470.631L435.921 468.495C436.962 466.567 438.021 464.651 439.09 462.74C437.87 462.281 436.66 461.789 435.456 461.288L432.722 460.145C431.161 459.485 429.569 458.741 428.395 457.541C428.187 457.329 428.259 456.897 428.581 456.836ZM480.44 463.88C477.746 464.975 474.96 465.765 472.124 466.289C472.307 466.477 472.489 466.664 472.659 466.861C473.327 467.634 474.035 468.375 474.747 469.109L475.175 469.549C476.266 470.668 477.905 472.512 479.577 473.583L479.668 473.1C479.683 473.016 479.694 472.943 479.7 472.887L479.878 471.297C479.907 471.032 479.935 470.766 479.962 470.501C480.106 469.066 480.22 467.629 480.34 466.192C480.403 465.435 480.418 464.658 480.44 463.88ZM448.565 371.446C454.98 368.706 462.593 370 468.119 374.139C473.773 378.374 476.245 385.26 476.572 392.13C481.044 388.312 487.483 391.202 491.249 394.78C495.595 398.908 497.793 405.139 496.78 411.052C495.771 416.945 491.506 422.144 485.737 423.896C482.976 424.735 479.9 424.754 477.123 423.974C476.18 423.708 475.024 423.297 473.957 422.725C474.018 422.97 474.08 423.215 474.138 423.46C475.523 429.324 476.309 435.917 474.23 441.716C470.888 451.036 459.02 456.252 451.61 447.98C448.7 444.733 446.439 439.647 446.615 435.219C446.707 432.893 448.025 430.202 450.746 430.359C452.856 430.481 453.857 432.246 453.317 434.115L453.284 434.223C452.14 437.795 454.093 442.957 456.922 445.394C461.261 449.13 467.216 445.879 469.588 441.497C472.353 436.391 472.017 429.844 471.133 424.288C470.265 418.833 468.329 413.844 466.275 408.797C466.057 408.836 465.836 408.872 465.61 408.903C461.524 409.457 453.21 409.667 448.696 406.707C449.181 411.275 448.229 415.978 445.634 419.846C442.742 424.157 438.385 426.439 433.314 427.138C428.389 427.818 422.68 427.955 417.817 426.788C407.463 424.303 403.812 411.52 406.943 402.292C408.796 396.833 413.965 391.924 419.71 390.684C422.67 388.737 426.645 388.16 430.061 388.426C435.163 388.823 440.188 391.028 443.605 394.899C444.91 396.378 445.984 398.053 446.811 399.845C447.089 399.626 447.413 399.461 447.779 399.375C448.351 399.241 448.851 399.211 449.41 399.408C449.688 399.507 450.09 399.855 450.331 400.081L450.883 400.729C451.559 401.517 452.203 402.178 453.407 402.668C456.764 404.035 461.317 404.331 464.883 404.052C473.983 403.34 472.837 391.286 470.596 385.094C467.941 377.758 460.331 373.194 452.589 374.497C449.262 375.057 446.089 376.827 443.654 379.141C440.936 381.724 439.772 384.844 438.141 388.113C438.045 388.307 437.712 388.265 437.67 388.051C436.33 381.157 442.684 373.958 448.565 371.446ZM400.097 427.027C399.82 426.703 400.183 426.132 400.579 426.401C403.48 428.372 406.705 429.794 410.212 430.178C411.859 430.358 413.519 430.371 415.159 430.118C416.557 429.902 417.816 429.477 419.211 429.862C419.954 430.067 420.089 430.928 419.635 431.468C417.528 433.977 412.339 433.307 409.51 432.634C405.852 431.765 402.535 429.892 400.097 427.027ZM497.702 422.448C499.126 421.565 500.821 423.312 499.979 424.724C497.817 428.345 491.551 428.64 487.915 427.773C487.631 427.706 487.696 427.26 487.984 427.268C490.073 427.319 491.962 426.918 493.762 425.828C495.3 424.897 496.217 423.368 497.702 422.448ZM428.221 393.498L427.936 393.5C424.612 393.554 421.568 394.821 418.365 395.491C418.099 395.547 417.833 395.519 417.592 395.431C413.691 398.033 411.002 402.125 410.637 407.51C410.384 411.239 411.295 415.303 413.509 418.363C416.03 421.847 420.09 422.384 424.089 422.488L424.495 422.497C432.054 422.645 440.37 422.199 443.065 413.748C445.059 407.493 442.929 399.9 437.375 396.153C434.677 394.334 431.455 393.495 428.221 393.498ZM489.121 397.983L488.899 397.725C485.934 394.323 481.233 391.225 476.599 392.938L476.612 393.511C476.614 393.606 476.615 393.702 476.615 393.797C476.601 400.366 474.055 406.497 467.799 408.424C469.477 410.819 470.826 413.476 471.906 416.234C472.287 415.985 472.75 415.826 473.288 415.772C475.491 415.549 476.753 417.617 478.663 418.389C480.451 419.112 482.479 419.298 484.366 418.925C488.495 418.108 491.392 414.548 492.407 410.597C493.555 406.131 492.039 401.448 489.121 397.983ZM426.267 403.512C427.644 401.186 431.041 401.523 432.402 403.573L432.467 403.675L432.482 403.656C434.75 406.595 433.654 411.237 430.361 412.89C427.719 414.214 424.36 413.867 422.604 411.289C422.211 410.711 421.958 410.03 421.866 409.342C421.803 408.873 421.839 408.405 421.944 407.94L421.917 408.049C421.969 407.814 422.052 407.446 422.073 407.358C422.305 406.41 422.862 405.393 423.558 404.706C424.276 403.999 425.272 403.569 426.267 403.512ZM482.851 401.096C484.07 401.096 485.152 401.606 486.033 402.414C487.286 403.565 487.461 405.221 487.19 406.792C487.107 407.272 486.993 407.736 486.874 408.208L486.771 408.634C486.753 408.705 486.734 408.776 486.712 408.845C486.637 409.138 486.517 409.406 486.375 409.663C485.854 411.604 483.742 412.569 481.881 412.145C481.005 411.946 480.131 411.219 479.685 410.457C479.538 410.206 479.435 409.955 479.362 409.704L479 408.845C478.932 408.639 478.889 408.418 478.835 408.208C478.713 407.736 478.596 407.271 478.512 406.792C478.224 405.168 478.453 403.629 479.669 402.414C480.485 401.598 481.697 401.096 482.851 401.096ZM455.99 384.254C458.106 383.97 460.262 384.956 461.356 386.826C462.307 388.451 462.303 390.637 461.356 392.262L461.276 392.4C459.532 395.393 455.463 395.777 453.016 393.464L452.897 393.352C451.323 391.866 450.969 389.4 451.784 387.469C452.529 385.703 454.091 384.51 455.99 384.254Z" fill="black"/>
</svg>
