<svg width="284" height="284" viewBox="0 0 284 284" fill="none" xmlns="http://www.w3.org/2000/svg">
<path fill-rule="evenodd" clip-rule="evenodd" d="M141.465 166.481C162.02 165.667 200.078 169.435 215.601 181.591C231.566 193.627 211.539 232.385 209.298 232.301C186.356 231.44 163.614 234.728 140.936 237.781L136.37 238.396C121.067 240.504 99.7338 244.208 92.4626 226.552C83.4366 196.005 110.779 166.34 141.465 166.481ZM177.686 179.427C165.508 177.596 153.154 177.316 140.756 178.553C129.723 179.655 119.344 182.665 112.437 191.039C114.097 191.318 115.567 192.543 116.575 194.174C131.367 194.623 146.649 193.973 161.616 194.758C169.981 194.941 178.566 195.832 186.918 195.442C194.116 195.106 192.138 189.084 193.147 183.999C188.381 181.86 182.671 180.187 177.686 179.427ZM43.0328 63.613C57.8018 39.233 102.406 54.436 124.755 59.45C141.908 55.716 143.634 84.248 125.784 81.278C135.496 95.351 131.757 113.758 118.626 124.475C84.3968 153.003 21.5568 106.398 64.9388 73.14C65.4338 68.961 70.9588 67.773 74.2218 66.185L73.0546 65.9112C63.5173 63.7037 53.8612 62.2388 44.3898 65.395C43.4278 65.452 42.8528 64.455 43.0328 63.613ZM163.814 114.367C171.366 118.957 182.872 129.66 174.748 141.039C165.186 151.073 151.418 139.569 144.634 134.366C138.343 130.334 131.275 140.704 137.112 145.413C186.136 181.708 206.031 115.567 167.634 108.97C163.406 108.243 161.836 112.947 163.814 114.367ZM241.462 37.0034C242.007 36.9434 242.238 37.7014 241.894 38.0444C232.582 47.2394 220.949 53.9794 210.53 61.8244C227.335 63.1364 242.664 75.9654 247.875 91.8734C252.508 117.169 215.96 128.8 196.45 121.16C180.354 115.604 168.683 99.9824 177.461 83.3944C168.279 83.4834 158.989 71.4674 165.758 64.5554C171.757 58.4284 178.734 62.1384 181.446 60.6894L184.352 59.1404C202.464 49.5168 221.244 40.2637 241.462 37.0034ZM116.75 88.364C105.109 70.067 59.4368 69.743 60.6628 97.956C62.5078 135.248 136.347 126.789 116.75 88.364ZM210.991 72.7384C202.404 70.9014 194.878 80.7554 190.063 78.2154C162.836 109.296 218.24 127.151 236.384 103.398C246.313 90.5694 223.157 73.0204 210.991 72.7384ZM95.9098 89.9482C107.181 85.8402 107.088 102.548 98.7458 105.85C89.2058 109.601 86.0418 89.7212 95.9098 89.9482ZM197.13 91.745C196.537 81.496 211.979 76.825 215.862 86.96C221.34 100.707 197.939 107.589 197.13 91.745Z" fill="#231F20"/>
</svg>
