<svg width="284" height="284" viewBox="0 0 284 284" fill="none" xmlns="http://www.w3.org/2000/svg">
<path fill-rule="evenodd" clip-rule="evenodd" d="M183.755 202.975C177.412 199.922 170.156 200.133 163.504 202.152C155.63 204.544 148.658 209.512 142.453 214.801C140.032 216.866 137.731 219.196 135.422 221.539C132.488 224.516 129.543 227.522 126.275 229.959C127.353 220.776 133.796 211.451 139.33 204.706C146.119 196.433 155.573 189.728 165.793 186.484C176.677 183.029 187.907 184.928 196.721 190.537C205.454 196.095 211.816 205.3 213.098 216.557C213.367 218.922 212.262 221.086 210.622 222.726C208.709 224.64 206.023 225.899 203.518 225.899C200.962 225.899 198.695 224.869 197.013 223.228C195.249 221.506 194.124 219.117 193.963 216.522C193.855 213.757 193.214 211.334 190.89 208.416C189.329 206.458 186.394 204.244 183.755 202.975ZM199.882 106.333C197.25 107.29 194.192 109.6 193.303 112.13C193.108 112.687 192.998 113.257 192.989 113.833C192.132 112.092 191.806 110.041 191.917 108.012C192.272 101.566 198.42 96.8878 203.657 94.1541C205.518 93.1824 207.43 92.5369 209.335 92.1973L216.081 90.9947L209.748 88.3797C203.907 85.9682 198.43 82.651 193.543 78.5905C188.874 74.7142 184.558 69.7011 182.025 64.1697C180.881 61.6716 179.983 59.2278 179.353 56.5878L179.185 55.8462C178.875 54.4239 178.537 53.6986 178.157 52.8937C177.934 52.4215 177.692 51.9129 177.432 51.0861C177.285 50.6219 177.204 50.2332 177.34 49.9304C177.472 49.6374 177.792 49.5116 178.105 49.3934C180.172 48.611 183.502 49.1441 184.917 49.7094C188.336 51.076 191.34 54.0555 194.233 56.8459C195.644 58.2075 197.026 59.538 198.399 60.676C207.158 67.9378 218.091 72.0696 228.775 73.0772L229.417 73.1341C232.243 73.366 234.862 74.4788 236.719 76.3354C238.379 77.9952 239.403 80.2531 239.403 82.9573C239.403 85.5911 238.218 88.1272 236.377 89.9684C234.619 91.7267 232.241 92.866 229.659 92.7746C227.845 92.7099 226.044 92.5474 224.257 92.308L217.607 91.4175L222.684 95.8037C223.691 96.6743 224.639 97.6734 225.491 98.8332C230.118 105.133 232.104 114.736 231.932 122.446C231.899 123.917 231.493 125.435 230.743 126.742C230.087 127.884 229.166 128.87 227.979 129.485C226.558 130.223 225.355 130.616 223.736 130.648C221.976 130.682 220.485 130.125 219.26 129.193C217.728 128.026 216.603 126.306 215.83 124.429C214.803 121.934 214.741 119.298 214.64 116.663C214.57 114.843 214.494 113.019 214.19 111.221C213.758 108.926 212.72 106.002 211.411 105.078C209.478 103.714 204.335 104.765 201.142 105.881L199.882 106.333ZM172.407 129.397C179.959 133.987 191.465 144.69 183.341 156.07C173.779 166.103 160.012 154.599 153.227 149.396C146.936 145.364 139.868 155.735 145.705 160.443C194.729 196.738 214.624 130.598 176.227 124.001C171.999 123.274 170.429 127.977 172.407 129.397ZM118.846 114.826C116.783 112.498 114.773 110.328 111.669 109.092C107.996 107.628 103.545 107.471 99.725 108.568C95.3934 109.811 91.9639 112.683 89.423 116.351C87.1907 119.573 85.6534 123.409 84.7768 127.191C83.1404 125.394 82.3752 123.316 82.0058 121.202C81.3975 117.721 81.8286 114.135 83.0148 110.724C85.6557 103.131 92.0178 96.38 99.4363 93.4743C107.907 90.1566 118.387 91.2642 126.168 95.9356C130.138 98.32 134.713 102.457 137.018 106.504C138.592 109.269 138.683 112.132 137.682 114.592C136.581 117.299 134.204 119.498 131.169 120.602C129.731 121.125 128.252 121.083 126.848 120.712C125.021 120.229 123.314 119.197 121.922 117.995C120.762 116.995 119.795 115.896 118.846 114.826ZM131.502 66.9365C129.764 69.2626 127.204 70.4512 124.536 70.576C124.262 70.5888 123.989 70.5903 123.717 70.5805C123.544 70.7784 123.352 70.9971 123.127 71.2541C122.606 71.8473 122.264 72.2367 121.909 72.6147C120.627 73.9802 119.279 75.2838 117.874 76.524C114.746 79.2879 111.376 81.7124 107.732 83.7468C101.349 87.3129 94.3476 90.0943 87.1488 91.422C80.0051 92.7391 72.9534 93.1439 65.7599 92.1121L64.015 91.8614C59.8596 91.2526 54.4124 90.4583 51 87.8846C52.3438 87.4565 53.7051 87.4356 55.0332 87.3769C55.9073 87.3382 56.7757 87.299 57.6224 87.2216C61.6485 86.8557 65.5609 86.1875 69.4588 85.1084C77.0361 83.0115 83.9026 80.1158 90.5925 75.9655C97.1516 71.8977 103.175 66.3614 107.973 60.2968L108.548 59.5614C108.793 59.2448 109.034 58.9295 109.274 58.6164C111.236 56.0514 113.039 53.6071 116.089 51.9794C118.505 50.6904 120.95 50.3421 123.301 50.713C126.029 51.1433 128.619 52.5167 130.914 54.4384C132.611 55.8592 133.396 57.9051 133.521 60.0036C133.668 62.4721 132.917 65.0435 131.502 66.9365Z" fill="black"/>
</svg>
