<svg width="900" height="900" viewBox="0 0 900 900" fill="none" xmlns="http://www.w3.org/2000/svg">
<path fill-rule="evenodd" clip-rule="evenodd" d="M461.969 444.416C466.218 444.272 470.497 443.942 474.723 444.562C481.744 445.59 488.855 450.579 488.832 458.337C488.795 471.352 474.128 476.278 463.674 477.975L462.513 478.163C449.927 480.178 434.923 482.001 423.63 474.864C418.309 471.501 414.935 465.819 416.493 459.437C417.977 453.355 423.11 448.987 428.871 447.1C435.593 444.897 442.548 446.028 449.388 446.935C449.886 447.001 450.383 447.064 450.88 447.128C452.471 446.62 454.035 445.935 455.63 445.465C457.731 444.846 459.774 444.49 461.969 444.416ZM460.423 461.097L453.829 461.961C451.36 462.284 448.891 462.596 446.423 462.898C446.739 466.261 446.793 469.661 446.681 473.097C451.129 473 455.601 472.425 459.966 471.69C460.255 468.166 460.426 464.637 460.423 461.097ZM440.923 463.597C434.931 464.249 428.934 464.832 422.923 465.328C424.277 467.945 427.75 469.605 430.41 470.544C433.452 471.617 436.591 472.263 439.776 472.597C440.329 469.632 440.687 466.622 440.923 463.597ZM484.421 458.597C479.892 459.339 475.224 459.663 470.704 460.232L465.423 460.896C465.965 464.11 466.374 467.347 466.633 470.597L467.456 470.435C471.161 469.693 474.883 468.699 478.156 466.817L478.433 466.654C481.051 465.073 484.505 461.931 484.421 458.597ZM441.423 453.597C438.46 453.863 435.33 453.915 432.476 454.543C428.305 455.46 423.286 457.76 422.497 462.456C422.368 463.225 422.412 463.936 422.585 464.597C428.761 463.426 434.945 462.351 441.146 461.35C441.294 458.764 441.37 456.173 441.423 453.597ZM457.46 452.097L453.402 452.45C450.411 452.711 447.417 452.795 444.423 453.017C445.144 455.357 445.664 457.718 446.02 460.097C448.481 459.717 450.943 459.345 453.409 458.984L460.423 457.957L460.413 456.186C460.405 454.997 460.389 453.793 460.346 452.592L460.054 452.568C459.176 452.471 458.315 452.3 457.46 452.097ZM482.423 454.886C479.619 452.369 474.368 452.542 471.015 452.645C468.501 452.722 465.952 452.985 463.423 452.981C463.896 454.5 464.346 456.029 464.715 457.597L470.119 456.808C474.182 456.216 478.307 455.4 482.423 454.886ZM463.408 420.184C467.183 422.479 472.936 427.83 468.874 433.52C464.093 438.536 457.21 432.784 453.817 430.183C450.672 428.167 447.138 433.352 450.056 435.706C474.568 453.854 484.516 420.784 465.317 417.485C463.203 417.122 462.418 419.474 463.408 420.184ZM500.393 407.387C499.102 415.828 485.832 427.598 484.032 427.598C482.231 427.598 466.813 412.622 466.813 405.961C466.813 399.299 473.473 390.357 484.032 401.616C490.036 394.098 501.685 398.946 500.393 407.387ZM441.442 399.884C444.564 404.443 443.376 410.114 440.198 414.27C437.386 417.948 427.925 426.181 426.443 426.393C424.617 426.654 416.259 417.201 414.325 415.615C412.392 414.028 407.031 408.929 408.304 404.206C409.529 399.662 416.081 391.978 425.648 399.884C428.69 392.343 438.622 395.767 441.442 399.884ZM410.355 385.208C415.255 379.716 425.634 373.922 431.354 381.343C432.815 383.239 431.255 386.337 429.123 386.827C426.481 387.435 423.813 387.065 421.22 387.819C418.844 388.509 416.568 389.893 414.532 391.272C412.209 392.844 410.07 394.599 408.105 396.598C406.936 397.788 405.463 400.606 403.66 400.658C401.867 400.711 404.273 395.105 404.472 394.62C405.886 391.168 407.871 387.991 410.355 385.208ZM469.664 371.778C472.486 370.463 475.239 371.048 478.08 371.825L479.303 372.165C482.33 373.007 485.562 374.041 488.159 375.855L488.363 376C491.629 378.343 496.624 383.372 494.24 387.741C494.08 388.033 493.742 388.062 493.47 387.943C490.398 386.597 488.121 383.91 484.853 382.786L484.25 382.581C481.086 381.515 477.171 380.394 473.765 380.496C471.37 381.275 468.135 380.63 467.512 377.715L467.484 377.572L467.43 377.27C467.071 375.278 467.605 372.738 469.664 371.778Z" fill="black"/>
</svg>
