<svg width="284" height="284" viewBox="0 0 284 284" fill="none" xmlns="http://www.w3.org/2000/svg">
<path fill-rule="evenodd" clip-rule="evenodd" d="M165.937 176.833C174.435 176.545 182.994 175.885 191.446 177.124C205.488 179.181 219.709 189.158 219.664 204.675C219.589 230.705 190.255 240.556 169.348 243.951L167.026 244.326C141.854 248.357 111.846 252.002 89.2608 237.729C78.6178 231.003 71.8698 219.638 74.9858 206.874C77.9538 194.711 88.2198 185.975 99.7428 182.2C113.186 177.795 127.096 180.057 140.775 181.87C141.772 182.003 142.766 182.128 143.76 182.256C146.942 181.24 150.07 179.871 153.26 178.931C157.462 177.692 161.548 176.981 165.937 176.833ZM162.845 210.194L149.657 211.922C144.72 212.569 139.782 213.192 134.845 213.796C135.477 220.522 135.586 227.322 135.362 234.194C144.258 234.001 153.201 232.85 161.932 231.381C162.51 224.332 162.852 217.274 162.845 210.194ZM123.845 215.194C111.862 216.498 99.8687 217.665 87.8451 218.657C90.5545 223.891 97.5 227.211 102.82 229.088C108.903 231.234 115.181 232.526 121.551 233.194C122.657 227.264 123.373 221.245 123.845 215.194ZM210.842 205.194C201.783 206.679 192.448 207.326 183.408 208.464L172.845 209.793C173.929 216.22 174.748 222.695 175.266 229.194L176.912 228.871C184.321 227.387 191.765 225.399 198.312 221.635L198.866 221.309C204.101 218.147 211.01 211.862 210.842 205.194ZM124.845 195.194C118.92 195.726 112.659 195.83 106.951 197.086C98.6091 198.921 88.5726 203.521 86.9945 212.912C86.7364 214.45 86.8239 215.873 87.1708 217.194C99.5216 214.852 111.89 212.702 124.291 210.701C124.588 205.528 124.74 200.347 124.845 195.194ZM156.92 192.194L148.804 192.9C142.822 193.422 136.833 193.591 130.845 194.035C132.288 198.715 133.328 203.436 134.04 208.194C138.961 207.434 143.886 206.69 148.817 205.968L162.845 203.915L162.826 200.373C162.809 197.994 162.778 195.587 162.691 193.185L162.107 193.137C160.352 192.943 158.629 192.601 156.92 192.194ZM206.845 197.773C201.237 192.738 190.736 193.085 184.03 193.291C179.002 193.445 173.903 193.97 168.845 193.963C169.792 197.001 170.691 200.058 171.429 203.194L182.238 201.617C190.364 200.432 198.614 198.8 206.845 197.773ZM168.815 128.368C176.366 132.958 187.872 143.661 179.748 155.04C170.186 165.073 156.419 153.569 149.634 148.367C143.344 144.334 136.276 154.705 142.112 159.413C191.136 195.708 211.031 129.568 172.634 122.971C168.406 122.244 166.836 126.948 168.815 128.368ZM242.786 102.774C240.203 119.656 213.664 143.197 210.063 143.197C206.461 143.197 175.626 113.245 175.626 99.9213C175.626 86.5977 188.946 68.7133 210.063 91.2312C222.071 76.1953 245.369 85.8926 242.786 102.774ZM124.884 87.7688C131.128 96.8858 128.751 108.228 122.395 116.54C116.771 123.897 97.8499 140.362 94.8869 140.786C91.2346 141.308 74.5172 122.403 70.6502 119.23C66.7832 116.057 56.0623 105.858 58.6082 96.4118C61.0572 87.3238 74.1618 71.9559 93.2965 87.7688C99.3798 72.6868 119.244 79.5338 124.884 87.7688ZM62.7096 58.4159C72.5106 47.4329 93.2676 35.8439 104.708 50.6859C107.629 54.4779 104.51 60.6749 100.245 61.6549C94.9626 62.8699 89.6266 62.1309 84.4406 63.6379C79.6886 65.0189 75.1366 67.7859 71.0636 70.5439C66.4186 73.6879 62.1406 77.1979 58.2096 81.1969C55.8716 83.5759 52.9256 89.2119 49.3196 89.3169C45.7346 89.4219 50.5466 78.2109 50.9446 77.2409C53.7716 70.3359 57.7426 63.9819 62.7096 58.4159ZM181.328 31.5565C186.972 28.9263 192.478 30.0966 198.159 31.6508L200.606 32.3305C206.66 34.0135 213.123 36.0815 218.317 39.7105L218.725 39.9993C225.258 44.6866 235.248 54.7445 230.479 63.4825C230.16 64.0655 229.484 64.1235 228.94 63.8855C222.796 61.1945 218.241 55.8205 211.706 53.5725L210.5 53.1619C204.171 51.0301 196.341 48.7887 189.529 48.9925C184.739 50.5494 178.27 49.2598 177.023 43.4292L176.967 43.1435L176.859 42.5395C176.141 38.5555 177.209 33.4765 181.328 31.5565Z" fill="black"/>
</svg>
