<svg width="900" height="900" viewBox="0 0 900 900" fill="none" xmlns="http://www.w3.org/2000/svg">
<path fill-rule="evenodd" clip-rule="evenodd" d="M462.426 474.545L463.493 474.261C467.312 473.221 471.277 471.569 474.924 473.833C476.241 474.65 476.439 476.389 475.398 477.514C472.444 480.706 468.083 480.087 464.088 480.119L463.891 480.121C459.871 480.176 455.881 479.976 451.902 479.399C451.378 479.323 451.274 478.452 451.751 478.243C455.215 476.724 458.778 475.527 462.426 474.545ZM468.907 416.184C472.682 418.479 478.436 423.83 474.374 429.52C469.593 434.537 462.709 428.785 459.317 426.183C456.172 424.167 452.637 429.353 455.556 431.707C480.067 449.854 490.015 416.784 470.816 413.485C468.703 413.122 467.918 415.474 468.907 416.184ZM495.158 386.003C501.249 385.816 501.254 395.493 495.158 395.467C493.338 395.459 491.518 395.458 489.698 395.454C490.755 399.31 490.152 403.907 488.242 407.146C486.982 409.283 483.966 409.672 482.204 407.924C479.163 404.906 478.564 400.492 479.638 396.49L479.418 395.967C479.346 395.795 479.294 395.622 479.252 395.447C473.369 395.452 467.486 395.466 461.604 395.476L452.78 395.485C447.051 395.487 441.319 395.534 435.59 395.48C435.661 395.587 435.731 395.693 435.789 395.814C436.146 396.567 436.297 397.517 436.41 398.33C436.602 399.726 436.579 401.23 436.359 402.62C436.199 403.636 435.904 404.846 435.338 405.804L435.334 405.824C435.068 406.96 434.732 408.047 433.853 408.867C433.589 409.112 433.332 409.287 433.06 409.411C432.546 409.949 431.885 410.304 431.016 410.316C430.555 410.321 430.05 410.186 429.56 409.995C428.807 410.058 428.029 409.717 427.362 409.415C426.828 409.173 426.337 408.851 425.942 408.431C425.756 408.387 425.569 408.314 425.382 408.199C424.236 407.494 423.798 406.081 423.738 404.805C423.734 404.727 423.738 404.646 423.735 404.567C423.693 404.394 423.655 404.22 423.626 404.045C423.245 401.778 423.708 399.224 424.193 397.021C424.315 396.469 424.415 395.829 424.564 395.209C423.421 395.165 422.278 395.121 421.135 395.074C418.271 394.957 414.775 395.34 412.126 394.13C411.933 394.042 411.985 393.785 412.126 393.685C414.572 391.936 418.373 391.653 421.319 391.077L421.569 391.027C425.082 390.307 428.593 389.701 432.141 389.183C438.972 388.187 445.89 387.651 452.78 387.265C466.886 386.475 481.037 386.434 495.158 386.003Z" fill="black"/>
</svg>
