<svg width="788" height="788" viewBox="0 0 788 788" fill="none" xmlns="http://www.w3.org/2000/svg">
<path fill-rule="evenodd" clip-rule="evenodd" d="M555.066 339.22C546.016 301.067 526.229 265.561 494.55 236.865C399.222 142.619 224.159 193.774 224.952 335.796C221.533 352.384 220.145 369.44 221.277 386.357C221.745 393.575 224.869 403.648 220.672 410.144C211.205 422.297 205.703 431.255 208.925 447.421C211.617 461.536 221.223 471.536 234.187 476.852C241.962 479.083 249.339 483.943 252.219 491.351C269.525 523.035 282.346 549.389 309.629 570.982C316.669 576.541 388.875 609.883 412.666 609.883C482.317 609.883 570.103 584.653 571.56 506.853C571.812 489.765 568.813 472.478 566.932 455.525C562.353 416.837 563.969 376.748 555.066 339.22Z" fill="white"/>
<path fill-rule="evenodd" clip-rule="evenodd" d="M553.499 320.137C553.521 319.665 554.197 319.559 554.328 320.025C556.917 329.21 558.384 338.567 560.409 347.895C562.359 356.88 564.2 365.891 565.732 374.955C568.623 392.061 571.059 409.212 573.325 426.408L573.888 430.708C577.826 460.965 584.33 492.486 578.643 522.92C573.79 548.889 557.519 569.819 536.55 585.164C516.695 599.693 492.622 609.017 468.72 614.318C443.066 620.009 412.658 621.707 391.785 602.895C383.429 595.362 394.82 580.416 403.885 587.214C425.171 603.173 452.25 598.468 476.268 592.118L476.995 591.925C498.076 586.31 519.297 577.799 536.033 563.441C554.536 547.566 563.685 525.534 564.742 501.37C565.335 487.794 564.07 474.233 562.704 460.737L562.552 459.238C560.985 443.804 559.341 428.377 557.824 412.937C556.44 398.857 555.246 384.696 554.615 370.554L554.32 363.421C553.707 349.04 552.881 334.449 553.499 320.137ZM303.857 200.645C338.495 182.612 378.303 176.158 416.851 182.21C453.909 188.028 487.919 207.15 513.34 234.569C525.751 247.956 536.767 263.441 543.807 280.358C547.304 288.762 550.042 297.529 551.5 306.533C552.25 311.162 552.987 315.958 553.128 320.651C553.258 324.996 551.982 329.071 552.133 333.488C552.156 334.179 551.097 334.312 550.936 333.65C549.732 328.725 546.831 325.001 545.011 320.323C543.65 316.83 542.107 313.42 540.536 310.02L539.187 307.107C535.269 298.64 530.586 290.521 525.953 282.431C516.624 266.137 504.654 251.329 490.638 238.834C466.029 216.896 434.458 202.735 401.507 200.185C367.306 197.537 332.616 205.689 303.408 223.747C274.202 241.804 252.118 269.874 240.652 302.193C234.867 318.502 231.672 335.495 230.929 352.773C230.553 361.519 230.904 370.338 231.517 379.067L231.821 383.229C232.178 388.221 232.423 393.194 231.677 398.065C236.945 396.422 242.467 395.741 248.009 396.554C256.244 397.762 261.164 401.138 264.858 408.496C265.051 408.88 264.664 409.264 264.281 409.073C259.492 406.683 251.744 407.941 246.672 409.194C241.394 410.498 236.64 412.766 232.155 415.832C223.858 421.501 217.354 430.286 215.758 440.365C214.215 450.101 218.212 459.959 224.926 466.937C228.382 470.531 232.513 473.638 237.138 475.574C242.751 477.925 248.307 477.852 253.273 481.733C256.343 484.132 255.601 488.237 253.519 490.901C263.996 502.389 273.287 514.957 283.763 526.49C288.619 531.836 293.436 537.188 298.089 542.706L299.826 544.783C304.472 550.39 311.864 556.313 313.987 563.365C315.308 567.752 310.61 573.49 305.861 571.491C298.576 568.424 293.376 560.443 288.453 554.322L288.133 553.926C282.971 547.583 278.388 540.887 274.198 533.87L272.82 531.558C265.243 518.816 257.732 505.6 252.901 491.602C252.582 491.93 252.244 492.229 251.888 492.482C244.928 497.431 234.81 493.626 227.859 490.412C221.297 487.379 215.281 482.815 210.592 477.314C200.394 465.352 195.693 449.86 199.099 434.335C201.984 421.184 211.099 408.392 223.049 401.74C217.533 395.39 215.249 386.83 213.729 378.461C211.789 367.778 211.402 356.83 211.929 345.997C212.98 324.42 218.533 303.151 227.117 283.393C242.475 248.04 269.627 218.468 303.857 200.645ZM230.955 436.556C238.225 435.194 245 434.865 252.012 437.941C259.618 441.28 264.971 446.792 269.947 453.25C275.609 460.596 261.099 468.621 257.44 458.869L257.332 458.568C256.352 455.681 254.597 452.89 252.374 450.321C251.707 451.343 250.815 452.243 249.767 452.758C248.498 453.382 246.56 452.95 246.255 451.329C245.917 449.53 246.291 447.35 247.329 445.827L247.471 445.619C242.427 441.56 236.36 438.595 230.955 437.641C230.415 437.545 230.421 436.656 230.955 436.556Z" fill="black"/>
</svg>
