<svg width="900" height="900" viewBox="0 0 900 900" fill="none" xmlns="http://www.w3.org/2000/svg">
<path fill-rule="evenodd" clip-rule="evenodd" d="M510.908 367.925C505.74 346.137 494.44 325.861 476.349 309.473C421.911 255.653 321.938 284.865 322.391 365.969C320.439 375.442 319.646 385.182 320.292 394.843C320.56 398.965 322.344 404.717 319.947 408.427C314.541 415.367 311.399 420.483 313.239 429.715C314.776 437.775 320.262 443.486 327.665 446.522C332.105 447.796 336.318 450.571 337.962 454.802C347.845 472.895 355.167 487.945 370.747 500.276C374.768 503.451 416.002 522.491 429.588 522.491C469.364 522.491 519.495 508.083 520.327 463.654C520.471 453.896 518.758 444.024 517.684 434.343C515.069 412.249 515.992 389.356 510.908 367.925Z" fill="white"/>
<path fill-rule="evenodd" clip-rule="evenodd" d="M510.013 357.027C510.026 356.758 510.412 356.697 510.487 356.963C511.965 362.209 512.803 367.552 513.959 372.879C515.073 378.01 516.124 383.156 516.999 388.332C518.65 398.101 520.041 407.895 521.335 417.715L521.657 420.171C523.906 437.449 527.62 455.45 524.372 472.83C521.601 487.66 512.309 499.612 500.334 508.375C488.996 516.672 475.248 521.997 461.599 525.024C446.949 528.274 429.584 529.244 417.664 518.501C412.892 514.199 419.397 505.664 424.574 509.546C436.729 518.66 452.193 515.973 465.909 512.346L466.324 512.236C478.363 509.03 490.482 504.169 500.039 495.97C510.605 486.904 515.83 474.323 516.434 460.523C516.772 452.771 516.05 445.026 515.27 437.319L515.183 436.463C514.288 427.649 513.349 418.84 512.483 410.022C511.693 401.982 511.011 393.895 510.651 385.819L510.482 381.745C510.132 373.533 509.66 365.2 510.013 357.027ZM367.451 288.79C387.232 278.492 409.965 274.806 431.978 278.262C453.141 281.584 472.563 292.504 487.08 308.162C494.167 315.807 500.458 324.65 504.478 334.311C506.475 339.11 508.039 344.117 508.872 349.259C509.3 351.902 509.721 354.641 509.801 357.321C509.876 359.802 509.147 362.129 509.233 364.652C509.246 365.046 508.642 365.122 508.55 364.744C507.862 361.932 506.205 359.805 505.166 357.134C504.389 355.139 503.508 353.192 502.61 351.25L501.84 349.586C499.603 344.751 496.928 340.115 494.283 335.495C488.955 326.19 482.12 317.733 474.115 310.598C460.062 298.07 442.033 289.983 423.216 288.527C403.685 287.015 383.874 291.67 367.195 301.982C350.516 312.294 337.905 328.324 331.357 346.78C328.053 356.094 326.229 365.798 325.804 375.665C325.59 380.659 325.79 385.695 326.14 390.68L326.314 393.057C326.518 395.908 326.658 398.748 326.232 401.529C329.24 400.591 332.393 400.202 335.558 400.667C340.261 401.356 343.071 403.284 345.18 407.486C345.29 407.705 345.069 407.925 344.851 407.816C342.116 406.451 337.691 407.169 334.795 407.885C331.781 408.629 329.066 409.925 326.505 411.676C321.766 414.913 318.052 419.93 317.141 425.685C316.26 431.245 318.542 436.875 322.376 440.86C324.35 442.912 326.709 444.687 329.35 445.792C332.556 447.135 335.728 447.093 338.564 449.309C340.318 450.679 339.894 453.024 338.705 454.545C344.688 461.105 349.994 468.282 355.976 474.869C358.749 477.921 361.5 480.978 364.157 484.129L365.149 485.315C367.802 488.517 372.024 491.899 373.236 495.927C373.99 498.432 371.308 501.709 368.596 500.567C364.435 498.816 361.466 494.258 358.654 490.762L358.472 490.536C355.524 486.914 352.907 483.09 350.514 479.083L349.727 477.763C345.4 470.486 341.111 462.939 338.352 454.945C338.17 455.133 337.977 455.303 337.773 455.448C333.799 458.274 328.021 456.101 324.051 454.266C320.304 452.534 316.868 449.927 314.191 446.786C308.367 439.955 305.682 431.108 307.627 422.242C309.275 414.732 314.48 407.427 321.304 403.628C318.154 400.002 316.85 395.113 315.982 390.334C314.874 384.234 314.653 377.982 314.954 371.795C315.554 359.473 318.726 347.327 323.628 336.044C332.398 315.855 347.904 298.968 367.451 288.79ZM325.819 423.51C329.971 422.733 333.84 422.545 337.844 424.301C342.188 426.208 345.245 429.356 348.086 433.044C351.32 437.239 343.034 441.822 340.944 436.252L340.882 436.081C340.323 434.432 339.32 432.838 338.051 431.371C337.67 431.955 337.161 432.469 336.562 432.763C335.838 433.119 334.731 432.872 334.557 431.947C334.364 430.919 334.577 429.674 335.17 428.805L335.251 428.686C332.371 426.368 328.906 424.675 325.819 424.13C325.511 424.075 325.514 423.567 325.819 423.51Z" fill="black"/>
</svg>
