<svg width="788" height="788" viewBox="0 0 788 788" fill="none" xmlns="http://www.w3.org/2000/svg">
<path fill-rule="evenodd" clip-rule="evenodd" d="M469.462 230.677C395.56 192.801 285.443 196.874 233.445 268.508C225.169 282.104 216.768 296.994 212.692 312.144C207.58 331.704 198.536 360.723 196.439 388.856C195.221 405.199 200.76 421.044 199.257 435.08C198.069 446.177 186.707 442.803 187.168 453.448C188.07 474.244 188.728 504.508 199.257 520.876C209.153 535.02 227.635 534.152 238.499 547.493C248.738 560.056 257.588 573.994 270.53 584.05C297.619 634.598 374.926 646.074 427.042 641.357C551.214 621.629 549.75 436.043 547.967 338.422C548.527 288.453 511.869 251.464 469.462 230.677Z" fill="white"/>
<path fill-rule="evenodd" clip-rule="evenodd" d="M282.476 175.521C327.587 150.411 381.447 139.871 432.717 145.461C458.387 148.271 483.987 154.641 506.507 167.641C527.047 179.481 543.856 196.901 554.917 217.87C565.447 237.851 570.767 260.761 571.356 283.281C571.657 294.661 570.537 306.051 568.347 317.221C567.257 322.801 565.606 328.981 566.927 334.661C568.207 340.161 573.377 343.231 577.247 346.891C594.587 363.301 603.117 388.201 599.807 411.771C596.957 432.101 584.637 453.33 566.597 464.151C569.327 467.271 571.436 471.031 572.877 474.711C576.407 483.771 576.157 493.471 572.307 502.361C568.377 511.421 560.537 522.421 551.627 527.151C547.217 529.481 542.037 530.29 537.297 528.781C534.377 560.701 525.567 591.171 502.717 615.701C484.337 635.441 459.287 649.151 432.497 652.911C417.936 654.941 403.007 654.351 388.577 651.58C381.787 650.281 375.106 648.37 368.657 645.881C361.487 643.111 354.257 640.361 349.047 634.54C343.606 628.471 348.917 619.33 356.896 621.071C364.427 622.711 371.027 626.971 378.327 629.471C385.106 631.781 392.177 633.571 399.287 634.501C413.517 636.381 428.127 634.861 441.867 630.83C464.097 624.301 484.726 609.941 498.217 591.051C513.737 569.33 520.087 543.251 522.396 516.991C525.047 486.761 524.007 456.271 524.267 425.961C524.407 409.991 524.267 394.021 524.377 378.061C524.487 362.851 524.077 347.671 525.037 332.501C524.356 332.37 523.657 332.08 522.967 331.571C515.777 326.351 510.137 318.931 503.267 313.211C496.327 307.431 488.797 302.361 480.957 297.901C451.627 281.201 417.707 274.031 384.127 274.58C365.657 274.881 347.537 277.301 329.487 281.151L273.527 296.101C262.037 288.111 249.037 282.491 236.367 276.601C235.047 281.811 231.277 286.811 228.947 291.431C225.856 297.551 223.007 303.801 220.487 310.181C215.407 323.021 211.337 336.33 208.267 349.801C205.413 362.347 203.74 375.066 202.137 387.808L201.657 391.631C200.797 398.501 199.847 405.461 199.467 412.371C199.257 416.101 199.337 419.851 199.277 423.58C199.226 426.131 198.387 431.511 200.597 433.911C200.777 434.101 200.967 434.271 201.186 434.421C213.277 430.761 227.177 434.771 232.707 447.161C233.057 447.941 232.197 448.631 231.527 448.071C220.257 438.631 200.717 444.001 194.547 456.821C191.667 462.79 191.237 470.021 192.717 476.421C194.467 483.951 199.146 490.221 202.067 497.29C203.707 501.261 204.497 505.201 205.127 509.421C205.517 512.031 205.697 515.721 207.597 517.741C209.617 519.891 213.547 520.171 216.257 520.781C220.027 521.631 223.667 522.661 227.106 524.461C240.537 531.481 247.407 547.881 256.947 558.981C262.436 565.37 268.407 571.37 274.777 576.891C280.877 582.181 290.646 586.521 291.476 595.261C291.757 598.151 289.177 601.001 286.557 601.721C280.037 603.521 275.367 599.051 270.606 595.29C266.197 591.811 261.947 588.131 257.896 584.241C249.877 576.551 242.657 568.061 236.167 559.061C231.476 552.551 227.557 544.141 220.827 539.431C213.957 534.631 204.686 535.87 197.957 530.301C189.827 523.571 191.467 514.421 189.097 505.29C186.807 496.511 180.787 489.241 178.957 480.221C175.697 464.08 180.587 444.311 196.337 436.361C197.287 435.881 198.267 435.451 199.257 435.08C198.957 434.861 198.677 434.611 198.427 434.33C196.646 432.401 195.927 429.151 195.356 426.691C193.557 419.011 192.557 411.031 191.497 403.221C189.317 387.341 190.467 371.201 193.017 355.431C195.407 340.591 199.157 326.061 204.277 311.941C202.497 310.711 201.087 308.891 200.307 306.58C198.617 301.671 200.137 296.661 201.106 291.721C201.396 290.211 201.717 288.701 202.047 287.191C201.287 238.37 242.257 197.901 282.476 175.521ZM204.397 469.981C211.227 469.871 217.028 471.172 222.967 474.831C228.657 478.352 233.947 483.432 236.517 489.672C238.647 494.831 230.107 498.222 227.607 493.422C225.037 488.491 223.127 483.901 219.007 479.962C215.097 476.212 209.447 472.791 204.238 471.182C203.577 470.972 203.707 469.991 204.397 469.981Z" fill="black"/>
</svg>
