<svg width="900" height="900" viewBox="0 0 900 900" fill="none" xmlns="http://www.w3.org/2000/svg">
<path fill-rule="evenodd" clip-rule="evenodd" d="M488.445 283.498C446.242 261.868 383.358 264.194 353.664 305.102C348.937 312.866 344.14 321.369 341.812 330.021C338.893 341.191 333.728 357.763 332.531 373.828C331.835 383.161 334.998 392.21 334.14 400.225C333.462 406.563 326.973 404.636 327.236 410.715C327.751 422.591 328.127 439.873 334.14 449.221C339.791 457.298 350.346 456.802 356.55 464.421C362.397 471.595 367.451 479.554 374.842 485.297C390.311 514.163 434.459 520.717 464.22 518.023C535.131 506.757 534.295 400.775 533.276 345.027C533.596 316.492 512.662 295.369 488.445 283.498Z" fill="white"/>
<path fill-rule="evenodd" clip-rule="evenodd" d="M381.663 252.001C407.424 237.661 438.182 231.642 467.46 234.834C482.12 236.439 496.739 240.077 509.599 247.501C521.329 254.262 530.928 264.21 537.245 276.185C543.258 287.595 546.296 300.678 546.632 313.539C546.804 320.037 546.165 326.542 544.914 332.921C544.292 336.107 543.349 339.636 544.103 342.88C544.834 346.021 547.787 347.774 549.997 349.864C559.899 359.235 564.77 373.455 562.88 386.915C561.252 398.525 554.217 410.648 543.915 416.827C545.474 418.609 546.678 420.756 547.501 422.858C549.517 428.032 549.374 433.571 547.176 438.648C544.931 443.822 540.454 450.103 535.366 452.805C532.847 454.135 529.889 454.597 527.182 453.735C525.515 471.964 520.484 489.364 507.435 503.372C496.939 514.645 482.634 522.475 467.335 524.622C459.019 525.781 450.494 525.444 442.254 523.862C438.376 523.12 434.561 522.029 430.878 520.607C426.783 519.025 422.655 517.455 419.679 514.131C416.572 510.665 419.605 505.445 424.162 506.439C428.462 507.376 432.231 509.808 436.4 511.236C440.271 512.555 444.309 513.577 448.37 514.109C456.496 515.182 464.839 514.314 472.686 512.012C485.38 508.284 497.161 500.083 504.865 489.296C513.728 476.892 517.354 461.999 518.673 447.003C520.187 429.739 519.593 412.327 519.742 395.018C519.821 385.899 519.741 376.779 519.804 367.664C519.867 358.978 519.633 350.31 520.181 341.647C519.792 341.572 519.393 341.406 518.999 341.116C514.893 338.135 511.672 333.897 507.749 330.631C503.786 327.33 499.486 324.435 495.009 321.888C478.259 312.351 458.889 308.256 439.712 308.57C429.165 308.742 418.817 310.124 408.509 312.322L376.552 320.86C369.991 316.297 362.567 313.088 355.332 309.724C354.578 312.699 352.425 315.555 351.094 318.193C349.329 321.688 347.702 325.257 346.263 328.9C343.362 336.233 341.038 343.833 339.285 351.526C337.655 358.691 336.699 365.954 335.784 373.231L335.51 375.414C335.019 379.337 334.476 383.312 334.259 387.258C334.139 389.388 334.185 391.529 334.151 393.659C334.122 395.116 333.643 398.188 334.905 399.558C335.007 399.667 335.116 399.764 335.241 399.85C342.146 397.76 350.084 400.05 353.241 407.125C353.441 407.57 352.95 407.965 352.568 407.645C346.132 402.254 334.973 405.32 331.45 412.642C329.805 416.05 329.559 420.18 330.405 423.834C331.404 428.135 334.076 431.715 335.744 435.752C336.681 438.02 337.132 440.27 337.491 442.68C337.714 444.17 337.817 446.277 338.902 447.431C340.056 448.659 342.3 448.819 343.847 449.167C346 449.652 348.079 450.241 350.043 451.268C357.713 455.277 361.636 464.643 367.084 470.982C370.219 474.63 373.629 478.057 377.266 481.209C380.75 484.23 386.328 486.709 386.802 491.7C386.963 493.35 385.49 494.978 383.993 495.389C380.27 496.417 377.603 493.864 374.884 491.716C372.366 489.73 369.939 487.628 367.626 485.407C363.047 481.015 358.924 476.167 355.217 471.027C352.539 467.31 350.301 462.507 346.457 459.817C342.534 457.076 337.24 457.784 333.397 454.603C328.754 450.76 329.691 445.535 328.337 440.321C327.03 435.307 323.592 431.155 322.547 426.004C320.685 416.787 323.478 405.497 332.472 400.958C333.014 400.683 333.574 400.438 334.139 400.226C333.968 400.101 333.808 399.958 333.665 399.798C332.648 398.696 332.238 396.84 331.912 395.435C330.884 391.05 330.313 386.492 329.708 382.032C328.463 372.964 329.12 363.747 330.576 354.741C331.941 346.267 334.082 337.969 337.006 329.905C335.99 329.203 335.184 328.164 334.739 326.844C333.774 324.041 334.642 321.18 335.195 318.359C335.361 317.496 335.544 316.634 335.733 315.772C335.299 287.892 358.695 264.781 381.663 252.001ZM337.075 420.157C340.975 420.094 344.288 420.837 347.679 422.926C350.929 424.937 353.95 427.838 355.417 431.402C356.634 434.348 351.757 436.284 350.329 433.543C348.861 430.727 347.771 428.106 345.418 425.857C343.185 423.715 339.959 421.761 336.984 420.843C336.606 420.723 336.681 420.162 337.075 420.157Z" fill="black"/>
</svg>
