<svg width="788" height="788" viewBox="0 0 788 788" fill="none" xmlns="http://www.w3.org/2000/svg">
<path fill-rule="evenodd" clip-rule="evenodd" d="M391.041 198.26C447.822 198.26 521.115 233.878 527.365 270.357C534.731 313.347 574.171 478.305 565.265 531.204C556.359 584.103 508.365 622.184 431.567 622.184C354.768 622.184 297.447 580.303 284.285 565.923C275.511 556.336 262.993 534.429 246.732 500.201C219.319 496.556 205.547 483.56 205.415 461.214C205.287 438.868 214.199 423.63 232.152 415.5C225.751 327.314 230.611 271.741 246.732 248.782C270.914 214.343 334.26 198.26 391.041 198.26Z" fill="white"/>
<path fill-rule="evenodd" clip-rule="evenodd" d="M523.89 264.471C523.849 263.702 524.969 263.612 525.179 264.292C537.429 304.762 544.98 336.301 552.929 377.792L555.277 389.997C561.55 422.55 567.888 455.151 573.24 487.862L573.555 489.815C576.236 506.747 577.781 523.845 574.42 540.812C571.28 556.672 562.7 571.212 551.56 582.792C530.03 605.173 500.109 619.152 470.01 625.402C454.79 628.562 439.09 629.782 423.58 628.682C415.849 628.141 408.13 627.051 400.56 625.442L399.725 625.263C392.094 623.616 385.322 621.651 381.269 614.471C380.25 612.662 380.66 609.562 382.8 608.632C386.84 606.891 389.81 606.162 394.219 606.662C398.429 607.141 402.54 608.412 406.7 609.202C414.65 610.712 422.73 611.471 430.82 611.652C446.71 612.002 462.64 610.012 477.83 605.272C503.929 597.122 530.45 581.532 545.7 558.212C563.639 530.779 556.496 497.485 551.743 467.189L551.599 466.272C546.787 435.306 542.029 404.339 537.41 373.353L535.439 360.072C530.26 324.982 525.37 299.932 523.89 264.471ZM258.9 178.582C271.927 169.996 288.114 167.886 303.414 168.005L305.33 168.029C324.921 168.327 423.538 170.674 456.556 171.396L464.41 171.562C474.806 171.758 495.774 171.963 506.577 172.16L507.2 172.172C512.5 172.272 517.8 172.312 523.1 172.482L523.877 172.51C527.847 172.679 531.151 173.273 534.26 176.072C535.841 177.49 536.458 179.653 536.313 181.714L536.29 181.982L544.16 182.672C549.504 183.144 552.33 187.937 550.207 192.787L550.1 193.022C546.33 201.062 543.45 224.462 541.43 233.112C540.37 237.662 539.519 242.282 539.019 246.932C538.62 250.593 538.58 254.262 536.54 257.482C532.189 264.352 519.95 264.292 519.73 254.562C519.72 254.252 519.73 253.952 519.76 253.662C488.96 252.312 446.91 252.442 416.15 254.282C387.42 256.002 358.82 259.902 330.67 265.872C323.54 267.382 316.43 269.032 309.37 270.822C303.58 272.282 296.47 273.152 291.29 276.282C285.49 279.802 285.6 286.112 286.23 292.122C286.906 298.492 288.034 295.21 289.632 301.015L289.73 301.382C291.38 307.682 293.42 313.912 296.12 319.832C297.66 323.212 300.141 326.462 299.2 330.352C298.67 332.542 296.939 334.882 295.35 336.412C288.109 343.362 275.87 338.932 270.95 348.452C265.801 358.407 265.673 371.892 265.236 382.907L265.21 383.552C264.891 391.142 264.98 398.752 265.48 406.322C265.93 413.221 267.769 420.052 265.41 426.682C263.689 431.502 258.07 431.952 255.13 428.032C254.793 427.582 254.483 427.121 254.194 426.656L253.91 426.192L253.891 426.202C254.17 426.642 254.43 427.093 254.68 427.552C254.95 428.062 254.28 428.622 253.87 428.182C246.95 420.652 236.84 422.152 229.01 427.422C221.08 432.782 217.95 442.962 217.54 452.093C217.08 462.221 217.98 474.093 222.2 483.452C223.98 487.412 226.519 491.052 230.73 492.562C232.641 493.242 234.46 493.152 236.45 493.312C238.519 493.471 241.01 494.512 243.019 494.372C245.631 494.186 247.976 497.168 247.234 499.666L247.18 499.832C247.141 499.952 247.1 500.072 247.061 500.182C247.16 500.272 247.26 500.382 247.33 500.542C254.93 516.072 265.35 529.892 276.87 542.712C282.641 549.122 289.04 555.012 295.73 560.462C299.03 563.152 302.51 565.843 306.18 568.012C307.4 568.721 308.519 569.202 309.891 569.593C310.53 569.772 311.26 569.862 311.88 570.072L312.524 570.292C312.568 570.307 312.61 570.32 312.65 570.332C314.49 570.542 316.04 571.762 316.65 573.672C318.24 578.652 315.35 583.052 310.41 584.422C305.058 585.919 300.014 583.291 295.772 580.273L295.49 580.072C286.84 573.843 278.87 566.852 271.97 558.692C258.32 542.582 249.769 523.932 245.811 503.302C244.83 505.412 243.51 507.252 241.22 508.532C237.66 510.532 233.41 510.532 229.51 509.862C221.66 508.532 214.97 503.742 210.5 497.262C205.859 490.542 204.13 482.382 203.08 474.432C202.04 466.471 201.53 458.482 202.57 450.502C204.061 439.042 208.87 427.712 218.22 421.432C211.22 406.182 209.99 389.082 210.49 372.382C211.1 351.822 214.65 331.032 217.38 310.662L225.141 252.752L225.459 250.417C227.332 236.794 229.612 223.098 234.71 210.262C239.74 197.612 247.38 186.172 258.9 178.582ZM226.24 452.542C239.06 446.322 252.91 452.052 259.81 464.122C265.81 474.616 247.972 481.552 244.996 470.735L244.91 470.402C242.95 462.212 234.969 455.132 226.64 454.032C225.95 453.933 225.439 452.933 226.24 452.542Z" fill="black"/>
</svg>
