<svg width="900" height="900" viewBox="0 0 900 900" fill="none" xmlns="http://www.w3.org/2000/svg">
<path fill-rule="evenodd" clip-rule="evenodd" d="M421.955 281.281C454.38 281.281 496.236 301.621 499.805 322.453C504.011 347.004 526.534 441.205 521.448 471.414C516.362 501.623 488.954 523.37 445.098 523.37C401.24 523.37 368.506 499.453 360.99 491.241C355.979 485.766 348.831 473.256 339.545 453.709C323.89 451.628 316.025 444.206 315.95 431.445C315.877 418.684 320.966 409.982 331.219 405.34C327.563 354.98 330.339 323.244 339.545 310.133C353.354 290.466 389.529 281.281 421.955 281.281Z" fill="white"/>
<path fill-rule="evenodd" clip-rule="evenodd" d="M497.821 319.091C497.797 318.652 498.437 318.601 498.557 318.989C505.552 342.1 509.864 360.111 514.404 383.805L515.745 390.775C519.327 409.365 522.946 427.982 526.003 446.662L526.182 447.777C527.714 457.447 528.596 467.211 526.676 476.9C524.883 485.957 519.984 494.26 513.622 500.873C501.327 513.654 484.24 521.637 467.051 525.207C458.36 527.011 449.394 527.708 440.537 527.08C436.122 526.771 431.714 526.148 427.391 525.229L426.914 525.127C422.556 524.187 418.689 523.064 416.375 518.964C415.793 517.931 416.027 516.161 417.249 515.63C419.556 514.636 421.252 514.219 423.77 514.505C426.174 514.778 428.522 515.504 430.897 515.955C435.437 516.818 440.051 517.251 444.671 517.354C453.746 517.554 462.843 516.418 471.517 513.711C486.421 509.057 501.567 500.154 510.275 486.837C520.52 471.171 516.441 452.157 513.726 434.856L513.644 434.333C510.896 416.649 508.179 398.965 505.541 381.27L504.416 373.686C501.458 353.647 498.666 339.342 497.821 319.091ZM346.494 270.043C353.933 265.14 363.177 263.935 371.914 264.003L373.008 264.016C384.196 264.187 440.513 265.527 459.368 265.939L463.854 266.034C469.79 266.146 481.764 266.263 487.934 266.375L488.289 266.382C491.316 266.439 494.343 266.462 497.369 266.559L497.813 266.575C500.08 266.672 501.967 267.011 503.742 268.609C504.645 269.419 504.998 270.654 504.915 271.831L504.902 271.984L509.396 272.378C512.448 272.648 514.062 275.385 512.849 278.155L512.788 278.289C510.635 282.88 508.991 296.243 507.837 301.183C507.232 303.781 506.746 306.42 506.46 309.075C506.232 311.166 506.209 313.261 505.044 315.1C502.56 319.023 495.57 318.989 495.445 313.432C495.439 313.255 495.445 313.084 495.462 312.918C477.873 312.148 453.86 312.222 436.294 313.273C419.887 314.255 403.555 316.482 387.479 319.891C383.407 320.753 379.347 321.696 375.315 322.718C372.009 323.552 367.949 324.049 364.991 325.836C361.678 327.846 361.741 331.45 362.101 334.882C362.487 338.519 363.131 336.645 364.044 339.96L364.1 340.17C365.042 343.767 366.207 347.325 367.749 350.706C368.628 352.636 370.045 354.492 369.508 356.714C369.205 357.964 368.217 359.3 367.309 360.174C363.174 364.143 356.185 361.613 353.375 367.05C350.435 372.735 350.362 380.436 350.112 386.726L350.097 387.094C349.915 391.429 349.966 395.774 350.251 400.097C350.508 404.037 351.559 407.938 350.211 411.724C349.229 414.477 346.02 414.734 344.341 412.495C344.148 412.238 343.971 411.975 343.806 411.709L343.644 411.444L343.633 411.45C343.793 411.701 343.941 411.959 344.084 412.221C344.238 412.512 343.855 412.832 343.621 412.581C339.67 408.281 333.896 409.137 329.425 412.147C324.896 415.208 323.109 421.021 322.874 426.236C322.612 432.019 323.126 438.799 325.536 444.144C326.552 446.405 328.002 448.484 330.407 449.346C331.498 449.734 332.537 449.683 333.673 449.774C334.855 449.865 336.277 450.46 337.425 450.38C338.916 450.274 340.255 451.976 339.832 453.403L339.801 453.498C339.779 453.566 339.755 453.635 339.733 453.698C339.789 453.749 339.847 453.812 339.887 453.903C344.227 462.772 350.177 470.664 356.756 477.985C360.051 481.646 363.706 485.009 367.526 488.122C369.411 489.658 371.398 491.194 373.494 492.433C374.19 492.838 374.829 493.113 375.613 493.336C375.978 493.438 376.395 493.49 376.749 493.609L377.117 493.735C377.142 493.744 377.166 493.751 377.189 493.758C378.239 493.878 379.124 494.575 379.473 495.665C380.381 498.509 378.73 501.022 375.909 501.804C372.853 502.659 369.973 501.158 367.55 499.435L367.389 499.32C362.449 495.763 357.898 491.771 353.958 487.111C346.163 477.911 341.279 467.26 339.019 455.479C338.459 456.684 337.705 457.735 336.397 458.466C334.364 459.608 331.937 459.608 329.71 459.226C325.227 458.466 321.407 455.731 318.854 452.03C316.204 448.193 315.216 443.533 314.617 438.993C314.023 434.446 313.732 429.884 314.326 425.327C315.177 418.783 317.923 412.313 323.263 408.726C319.265 400.017 318.563 390.252 318.848 380.715C319.197 368.974 321.224 357.102 322.783 345.469L327.215 312.399L327.397 311.065C328.466 303.286 329.768 295.464 332.68 288.134C335.552 280.91 339.915 274.377 346.494 270.043ZM327.843 426.492C335.164 422.94 343.073 426.212 347.013 433.105C350.44 439.098 340.253 443.059 338.554 436.881L338.505 436.691C337.385 432.014 332.828 427.971 328.071 427.343C327.677 427.286 327.385 426.715 327.843 426.492Z" fill="black"/>
</svg>
