<svg width="900" height="900" viewBox="0 0 900 900" fill="none" xmlns="http://www.w3.org/2000/svg">
<path fill-rule="evenodd" clip-rule="evenodd" d="M368.933 267.75L373.866 273.615C371.134 275.54 368.557 277.474 366.131 279.417L366.129 279.411C377.362 272.082 389.804 267.75 403.243 267.75C429.128 267.75 481.708 289.986 493.594 306.024C499.492 313.983 510.454 338.418 516.139 364.983C520.708 386.327 527.503 446.628 520.708 469.286C512.012 498.285 483.401 525.087 453.9 525.087C424.398 525.087 378.596 503.789 345.998 457.115C344.508 454.98 327.391 452.506 315.18 444.496L318.386 479.815L320.822 500.361L320.285 501.823C311.539 525.475 304.609 537.814 299.494 538.841C294.275 539.889 283.645 531.332 267.606 513.174L265.557 504.571C260.351 482.628 257.748 470.849 257.748 469.235L257.752 468.941C257.829 465.227 259.108 444.207 259.134 438.551L259.135 353.768C276.384 296.423 292.845 267.75 308.518 267.75H368.933Z" fill="white"/>
<path fill-rule="evenodd" clip-rule="evenodd" d="M328.06 248.221C333.132 246.257 339.008 246.628 343.822 249.586C353.273 249.181 362.673 254.708 367.601 262.778C367.704 262.892 367.813 263.006 367.91 263.12L368.954 264.338C369.943 265.5 370.986 266.781 371.813 268.104C367.765 268.196 364.393 269.846 362.039 273.178C360.359 275.556 364.207 277.815 365.923 275.567L365.984 275.484C367.397 273.484 369.531 272.709 371.906 272.668C372.588 272.657 373.105 272.396 373.47 272.011C373.616 272.542 373.746 273.078 373.866 273.616C385.825 268.965 398.717 267.733 411.558 268.837C410.995 269.748 410.524 270.725 410.162 271.751C409.751 272.914 410.627 274.25 411.757 274.56C412.98 274.896 414.084 274.18 414.527 273.073L414.567 272.965C415.061 271.567 415.866 270.367 416.948 269.437C422.993 270.256 428.995 271.559 434.85 273.24C441.887 275.261 448.858 277.727 455.675 280.551C454.521 281.004 453.523 281.769 452.825 283.046C451.43 285.597 455.264 287.881 456.718 285.443L456.769 285.352C456.912 285.091 457.038 284.934 457.131 284.845L457.164 284.814L457.365 284.721L457.74 284.614L457.884 284.579C458.01 284.55 458.063 284.552 458.397 284.533C458.841 284.508 459.286 284.511 459.731 284.51C460.777 284.51 461.445 283.926 461.747 283.181C465.111 284.699 468.432 286.298 471.695 287.973L472.47 288.374C482.541 293.636 492.081 300.546 497.616 310.713C497.982 311.392 498.095 312.135 498.004 312.843C499.186 314.259 500.328 315.721 501.425 317.206C504.771 321.752 507.221 326.92 509.539 332.042C514.205 342.344 517.346 352.926 519.796 363.959C522.166 374.592 524.079 385.34 525.855 396.087C527.825 408.028 529.464 420.072 529.807 432.184C530.412 453.776 526.192 475.494 514.068 493.671C503.253 509.889 486.966 522.767 467.652 526.89C448.007 531.081 427.22 526.993 411.739 513.904C409.243 511.797 409.586 507.542 411.739 505.384C414.178 502.951 417.775 503.288 420.259 505.384C434.838 517.713 456.059 519.614 473.626 513.333C489.867 507.519 502.59 494.111 510.396 479.052C519.921 460.686 521.527 439.591 520.064 419.273C519.265 408.114 517.603 397.047 515.89 385.997L514.855 379.345C513.728 372.141 512.542 364.946 510.996 357.814L510.634 356.153C508.745 347.553 506.532 338.733 503.11 330.649C501.316 326.406 499.158 322.317 496.948 318.279C496.52 317.497 496.079 316.703 495.628 315.904C495.023 316.115 494.332 316.149 493.607 315.921C487.365 313.979 480.952 312.677 474.425 312.243C471.452 312.045 468.473 312.014 465.499 312.13C460.407 311.833 455.172 312.281 450.322 313.842C449.847 313.435 449.366 313.037 448.885 312.638C448.755 312.628 448.626 312.614 448.495 312.588C447.258 312.345 446.387 311.466 445.863 310.355C445.836 310.296 445.811 310.237 445.788 310.178C445.167 309.704 444.541 309.237 443.91 308.776C442.37 309.175 441.021 307.894 440.658 306.49C440.315 306.259 439.967 306.035 439.621 305.809C439.35 305.875 439.08 305.93 438.817 305.949C437.684 306.031 436.589 305.857 435.585 305.316C434.313 304.632 433.5 303.527 432.957 302.273C431.033 302.391 429.087 301.767 427.368 300.638C425.972 299.723 424.903 298.459 423.84 297.197C410.889 291.421 396.812 288.011 382.701 287.137C381.311 287.404 379.93 287.722 378.567 288.092C378.244 288.18 377.786 288.353 377.259 288.56C380.405 288.179 383.592 288.141 386.824 288.607C402.159 290.824 414.103 302.306 424.383 313.144C426.828 312.65 429.299 315.817 427.036 317.914L409.392 334.264C409.825 336.093 407.728 337.895 405.891 337.456C402.811 336.716 399.725 335.996 396.637 335.289C393.417 336.847 389.367 336.58 386.446 334.321C386.31 334.216 386.014 334.048 385.758 333.882C385.518 334.08 385.196 334.278 385.067 334.363C384.028 335.051 382.763 335.253 381.549 335.06C380.301 334.862 379.174 334.228 378.203 333.44C377.584 332.938 376.144 330.841 375.342 330.687L375.264 330.678C375.799 330.693 374.079 332.292 373.617 332.622C372.538 333.392 371.347 333.796 370.005 333.649C367.667 333.392 365.657 331.261 364.514 329.294L364.428 329.142L364.392 329.049L364.361 329.15C364.356 329.168 364.349 329.187 364.341 329.209C364.17 329.672 363.632 330.198 363.267 330.522C362.225 331.443 360.935 331.848 359.558 331.608C358.392 331.405 357.412 330.701 356.624 329.848L356.501 329.712C356.268 329.45 354.732 327.386 354.975 326.891L355.003 326.849L354.926 326.833C353.992 327.063 353.208 326.833 352.633 326.352C349.427 325.649 346.263 324.831 343.2 323.79C342.96 324.464 342.725 325.138 342.497 325.818C344.17 326.851 345.718 328.325 347.14 329.375C349.836 331.363 352.531 333.35 355.22 335.343L365.877 343.204L367.096 342.877C368.653 342.459 369.99 343.366 370.561 344.751L370.608 344.871C370.835 345.478 371.108 346.04 371.429 346.577C374.093 346.471 376.349 348.106 377.078 350.452C377.736 350.437 378.4 350.462 379.08 350.537C380.941 350.742 382.196 352.124 381.859 354.021L381.833 354.152L381.788 354.363C382.867 354.821 383.649 355.705 383.823 357.043C384.112 357.477 384.345 357.95 384.494 358.477C385.272 361.209 383.758 364.586 382.951 367.203L382.889 367.408C382.371 369.128 381.835 370.84 381.293 372.551L379.943 376.799C376.199 388.639 372.549 401.122 375.579 413.533C376.225 416.16 372.866 417.348 371.41 415.292C367.88 410.315 364.065 405.625 360.061 401.122L359.866 401.091C357.062 400.528 355.973 398.547 354.686 396.528C353.927 396.751 353.112 396.803 352.324 396.651C351.183 396.432 350.161 395.78 349.354 394.957C348.67 394.259 348.044 392.47 347.236 392.026C346.225 391.471 344.193 392.264 342.986 392.086C342.004 391.941 341.088 391.604 340.198 391.181C338.564 393.409 337.481 396.028 337.215 398.851C337.112 399.925 336.792 400.833 336.329 401.587C338.031 401.524 339.739 401.644 341.424 401.958C347.66 403.117 352.131 406.966 354.644 412.7C354.752 412.951 354.426 413.156 354.278 412.917C350.549 407.177 342.434 406.886 336.541 408.908C330.282 411.055 326.77 416.566 325.52 422.853C324.149 429.746 325.907 437.175 329.66 443.046C331.401 445.776 333.777 448.266 336.935 449.271C340.687 450.464 344.153 448.328 347.996 449.43C350.612 450.179 351.766 452.708 351.291 455.238C351.103 456.232 350.755 457.1 350.286 457.854C351.669 460.595 352.947 463.416 354.575 466.009C357.088 470.012 360.126 473.324 363.438 476.665C366.859 480.114 370.342 483.495 374.003 486.693C377.51 489.759 381.53 491.941 385.207 494.75C387.789 496.72 389.067 499.484 387.794 502.648C386.744 505.264 383.202 507.491 380.336 506.309C374.848 504.047 370.045 500.198 365.671 496.235C361.617 492.557 358.087 488.16 355.42 483.386C352.905 478.885 351.051 473.774 349.487 468.85L349.293 468.236C348.556 465.894 347.78 463.262 347.277 460.606C344.268 462.251 340.184 462.491 336.964 462.045C331.761 461.332 327.015 458.71 323.429 454.89C321.757 453.112 320.28 451.084 319.004 448.886C319.12 450.224 319.189 451.519 319.264 452.697C322.245 455.962 323.441 460.675 322.383 464.974C324.877 467.542 325.576 471.396 324.274 474.677C327.004 477.385 326.902 481.695 325.721 485.608C328.949 489.216 329.254 494.835 326.734 498.906L326.658 499.198C329.203 503.456 328.629 508.959 325.441 512.719C327.618 516.942 327.281 522.623 321.84 524.262C319.856 524.859 317.934 524.35 316.496 523.238C317.809 529.771 318.397 536.403 316.645 542.965C315.948 545.569 313.401 547.471 310.723 547.471C308.484 547.471 306.857 546.346 305.732 544.69C305.864 547.985 305.664 551.297 304.961 554.638C304.538 556.656 302.666 558.229 300.679 558.716C301.396 559.524 301.682 560.693 300.995 561.91C298.082 567.067 291.043 564.928 290.568 559.988C288.58 558.504 287.656 556.068 287.273 553.436C286.716 549.597 286.514 545.822 285.882 542.032L285.64 542.258L285.516 542.366L285.476 542.64C285.114 544.513 284.057 545.825 282.686 546.607C282.984 549.875 282.433 553.202 280.36 555.684C278.979 557.337 276.627 557.988 274.61 557.63C274.484 557.636 274.354 557.636 274.219 557.618C269.652 557.011 267.01 552.679 268.212 548.703C266.373 546.45 265.599 543.591 266.143 540.765C262.585 538.409 262.657 533.234 263.89 529.077C260.159 526.133 258.756 520.63 260.631 516.256C257.269 512.081 256.801 506.263 259.085 501.509C255.386 498.47 255.408 492.604 259.076 489.496C257.123 485.618 255.944 480.971 257.897 477.422C256.519 475.902 255.763 473.735 255.923 471.642C256.156 468.567 258.19 466.443 260.715 465.027L260.889 464.065C261.482 464.139 262.114 463.973 262.67 463.439C263.222 462.909 263.789 462.483 264.375 462.131C265.039 462.122 265.611 461.827 266.013 461.371C267.113 460.998 268.295 460.833 269.607 460.818C272.44 460.787 272.54 456.551 269.904 456.276C269.487 455.856 268.914 455.592 268.292 455.592L267.805 455.594C266.667 455.605 265.517 455.675 264.461 456.127C263.774 456.421 263.245 456.863 262.857 457.405C262.785 458.224 262.339 459.04 261.375 459.715C260.261 460.494 258.737 460.585 257.545 459.88C255.875 458.893 255.858 457.353 256.051 455.679C256.472 452.016 254.366 448.569 254.867 444.821C255.09 443.165 255.641 441.734 256.541 440.579C254.644 437.74 254.309 434.076 255.77 430.959C252.728 427.687 252.202 422.642 254.142 418.703C254.17 418.608 254.191 418.51 254.222 418.416C254.441 417.747 254.743 417.143 255.076 416.566C253.373 413.616 253.385 409.996 255.116 407.058C252.495 404.002 252.411 399.138 254.743 395.845C254.757 395.572 254.785 395.299 254.809 395.026C253.738 392.248 253.995 389.089 255.353 386.506C254.869 385.389 254.495 384.187 254.256 382.907C253.645 379.606 253.959 376.397 254.873 373.176C255.021 372.668 255.187 372.16 255.364 371.651C255.393 369.445 255.477 367.249 255.588 365.057C255.154 363.201 255.084 361.161 255.074 359.268L255.071 358.041C255.05 354.916 254.833 350.341 256.808 347.685C255.54 344.816 256.061 341.202 258.178 338.928C256.692 336.372 256.38 333.234 257.873 330.399C258.113 329.942 258.391 329.518 258.696 329.115C258.573 326.519 259.12 323.841 260.503 321.26C261.402 319.58 262.745 318.126 264.341 316.962C264.314 316.618 264.297 316.274 264.303 315.935C264.331 314.424 264.666 312.907 265.231 311.491C264.218 309.763 263.749 307.815 264.341 305.716C265.003 303.34 266.746 301.296 268.921 300.142C269.096 297.903 269.446 295.676 269.946 293.479C268.61 290.502 269.674 286.573 272.695 284.82C272.301 282.441 272.657 279.974 274.388 278.115C275.044 277.411 275.818 276.877 276.65 276.523C276.249 274.131 276.701 271.642 278.355 269.694C279.706 268.104 281.709 267.138 283.746 266.995C284.531 262.835 288.506 259.724 292.7 259.971C293.224 258.139 294.477 256.542 296.419 255.732C296.917 255.525 297.419 255.389 297.92 255.313C301.33 251.873 306.408 249.541 310.803 248.347C315.213 247.154 319.682 247.038 323.467 248.426L323.743 248.529L324.051 248.49C325.388 248.341 326.724 248.255 328.06 248.221ZM294.556 530.177C293.378 529.81 292.065 530.612 291.746 531.772C291.409 532.999 292.159 534.214 293.341 534.582C294.814 535.041 296.361 535.156 297.896 535.157C299.13 535.158 300.18 534.106 300.18 532.873C300.18 531.633 299.135 530.59 297.896 530.589C296.648 530.588 295.726 530.542 294.556 530.177ZM284.081 505.919C282.32 505.92 280.81 506.341 279.505 507.574C278.635 508.397 278.613 509.986 279.505 510.805C280.406 511.632 281.713 511.68 282.638 510.893L282.816 510.733C282.838 510.714 282.854 510.698 282.867 510.685C282.942 510.637 283.016 510.588 283.095 510.547L282.946 510.645C282.833 510.726 283.096 510.593 283.244 510.529L283.29 510.511L283.305 510.507L283.423 510.498C283.642 510.487 283.862 510.487 284.081 510.487C285.276 510.486 286.42 509.438 286.365 508.203C286.309 506.966 285.361 505.917 284.081 505.919ZM317.304 491.426C319.777 489.91 317.568 486.032 315.089 487.429L314.999 487.481C313.728 488.261 312.164 488.156 310.724 488.156C307.785 488.158 307.78 492.726 310.724 492.725L311.21 492.723C313.322 492.707 315.457 492.56 317.304 491.426ZM297.845 474.752C295.977 474.4 293.884 474.086 291.919 474.3L291.593 474.341H290.988C290.463 474.341 289.954 474.552 289.545 474.885C288.899 475.153 288.287 475.513 287.728 475.996C285.503 477.926 288.746 481.146 290.959 479.228C291.082 479.121 291.224 479.033 291.383 478.961L291.505 478.909H293.948C294.17 478.909 294.387 478.863 294.598 478.796C295.391 478.905 296.13 479.063 296.631 479.157C299.504 479.698 300.735 475.295 297.845 474.752ZM295.759 430.905C292.179 429.244 288.213 429.256 284.901 431.562C282.533 433.212 284.733 437.101 287.122 435.564L287.207 435.507C287.504 435.301 287.809 435.128 288.117 434.971C289.798 435.457 291.49 435.479 293.116 434.882L293.328 434.8L293.454 434.849C296.103 436.078 298.427 432.142 295.759 430.905ZM334.75 423.747C331.133 423.342 331.104 417.628 334.75 418.037C342.448 418.9 349.434 422.323 354.55 428.2C356.929 430.933 353.011 434.932 350.587 432.321L350.512 432.238C346.444 427.564 340.953 424.443 334.75 423.747ZM294.228 394.41C293.423 394.322 292.621 394.278 291.831 394.316C289.934 394.408 287.624 395.673 288.456 397.96C289.124 399.792 291.312 399.864 292.393 398.887C292.842 398.898 293.291 398.928 293.738 398.973C294.931 399.096 296.113 399.323 297.288 399.555C300.16 400.12 301.39 395.718 298.503 395.15L297.226 394.897C296.796 394.813 296.362 394.73 295.926 394.655C295.665 394.525 295.385 394.438 295.086 394.416L294.935 394.41H294.228ZM271.531 358.967L271.262 358.931C267.405 358.437 261.213 358.891 260.744 363.801C260.486 366.521 264.414 366.692 265.19 364.366C268.038 363.853 270.91 363.755 273.739 364.066C274.819 362.97 274.827 360.862 273.031 360.336C272.777 359.654 272.248 359.07 271.531 358.967ZM359.706 350.673C358.815 349.855 357.353 349.746 356.475 350.673C355.97 351.207 355.548 351.799 355.214 352.452L354.992 352.892C354.954 352.965 354.915 353.038 354.875 353.109C354.801 353.242 354.717 353.369 354.635 353.498L354.58 353.553C354.558 353.575 354.532 353.601 354.502 353.634C353.68 354.502 353.576 356.014 354.502 356.864C355.393 357.682 356.855 357.791 357.732 356.864C358.237 356.331 358.659 355.739 358.994 355.086L359.216 354.646C359.253 354.573 359.292 354.5 359.332 354.429C359.407 354.295 359.491 354.168 359.572 354.039L359.663 353.948C359.676 353.935 359.691 353.92 359.706 353.904C360.528 353.036 360.632 351.524 359.706 350.673ZM312.864 344.724C309.645 342.444 305.818 342.337 302.859 345.081C300.724 347.062 303.861 350.235 306.014 348.38L306.09 348.312C306.168 348.239 306.247 348.175 306.326 348.114C306.712 348.443 307.203 348.651 307.764 348.652C307.91 348.652 308.056 348.652 308.203 348.655L308.422 348.662L308.54 348.672L308.554 348.675L308.657 348.719C308.845 348.804 309.104 348.934 308.749 348.712C308.828 348.753 308.902 348.802 308.978 348.85L309.109 348.97C309.97 349.784 311.46 349.891 312.315 348.991C313.829 348.479 314.632 345.977 312.864 344.724ZM344.331 337.241L344.389 337.222C347.212 336.417 346.012 332.007 343.175 332.817C340.165 333.676 338.727 336.477 338.125 339.346C337.872 340.553 338.479 341.815 339.721 342.156C340.855 342.468 342.276 341.774 342.531 340.561C342.71 339.708 342.915 338.984 343.242 338.312L343.439 337.929C343.531 337.755 343.564 337.725 343.875 337.454C343.927 337.408 344.165 337.298 344.331 337.241ZM296.53 314.232L296.088 314.131C293.339 313.529 289.689 313.215 288.029 315.94C286.516 318.423 290.333 320.683 291.906 318.336C291.93 318.335 291.957 318.335 291.989 318.338L292.041 318.344L292.746 318.287C293.623 318.281 294.463 318.436 295.315 318.638C298.174 319.314 299.394 314.91 296.53 314.232ZM395.23 296.669C397.312 294.588 394.082 291.356 392 293.439C390.354 295.086 388.766 296.743 387.696 298.835C387.134 299.933 387.409 301.314 388.515 301.961C389.536 302.557 391.076 302.243 391.641 301.141C392.568 299.328 393.739 298.162 395.23 296.669ZM368.965 291.205C366.908 292.423 365.577 294.428 364.769 296.75C364.364 297.915 365.231 299.248 366.365 299.559C367.583 299.894 368.696 299.181 369.134 298.072L369.174 297.964C369.391 297.343 369.737 296.61 370.164 296.056C370.53 295.584 371.098 295.111 371.526 294.954C372.556 294.576 373.286 293.643 373.191 292.554C371.497 293.139 369.925 292.435 368.965 291.205ZM307.405 281.269C305.331 279.343 302.547 279.088 300.032 280.253C298.913 280.772 298.632 282.386 299.213 283.379C299.885 284.527 301.215 284.719 302.338 284.198C302.049 284.332 302.57 284.155 302.795 284.091C302.824 284.105 303.201 284.087 303.331 284.089L303.488 284.099C303.489 284.1 303.451 284.099 303.373 284.097C303.482 284.122 303.591 284.151 303.698 284.185L303.833 284.233C303.765 284.218 304.073 284.419 304.16 284.486L304.175 284.499C306.328 286.497 309.566 283.274 307.405 281.269Z" fill="black"/>
</svg>
