<svg width="788" height="788" viewBox="0 0 788 788" fill="none" xmlns="http://www.w3.org/2000/svg">
<path fill-rule="evenodd" clip-rule="evenodd" d="M350.012 157.337L358.649 167.608C353.866 170.978 349.352 174.365 345.105 177.768L345.101 177.757C364.772 164.923 386.558 157.337 410.092 157.337C455.42 157.337 547.492 196.274 568.306 224.359C578.635 238.297 597.83 281.084 607.786 327.602C615.786 364.978 627.685 470.572 615.786 510.249C600.558 561.03 550.457 607.963 498.797 607.963C447.136 607.963 366.933 570.668 309.85 488.936C307.24 485.198 277.266 480.866 255.884 466.839L261.498 528.687L265.764 564.665L264.823 567.225C249.508 608.642 237.373 630.249 228.416 632.047C219.276 633.882 200.663 618.899 172.576 587.101L168.988 572.037C159.872 533.612 155.314 512.986 155.314 510.16L155.321 509.645C155.455 503.142 157.695 466.333 157.741 456.428L157.742 307.964C187.948 207.546 216.773 157.337 244.217 157.337H350.012Z" fill="white"/>
<path fill-rule="evenodd" clip-rule="evenodd" d="M278.439 123.138C287.32 119.698 297.609 120.348 306.039 125.528C322.59 124.818 339.05 134.498 347.679 148.628C347.859 148.828 348.05 149.028 348.22 149.228L350.049 151.36C351.781 153.395 353.607 155.639 355.054 157.955C347.966 158.117 342.061 161.006 337.939 166.841C334.998 171.005 341.735 174.961 344.741 171.023L344.847 170.879C347.322 167.376 351.058 166.019 355.217 165.948C356.411 165.928 357.317 165.471 357.957 164.797C358.212 165.726 358.44 166.665 358.649 167.608C379.591 159.463 402.167 157.306 424.652 159.238C423.666 160.834 422.842 162.544 422.208 164.341C421.489 166.378 423.023 168.717 425.002 169.261C427.142 169.849 429.076 168.595 429.851 166.657L429.922 166.467C430.786 164.019 432.197 161.918 434.091 160.289C444.676 161.724 455.186 164.006 465.439 166.948C477.762 170.487 489.969 174.806 501.907 179.751C499.885 180.544 498.138 181.884 496.915 184.121C494.473 188.587 501.186 192.586 503.733 188.317L503.823 188.159C504.073 187.702 504.294 187.426 504.456 187.27L504.514 187.216L504.866 187.054L505.522 186.866L505.774 186.804C505.996 186.754 506.088 186.758 506.673 186.725C507.451 186.681 508.23 186.685 509.009 186.684C510.841 186.683 512.01 185.662 512.539 184.356C518.43 187.015 524.246 189.815 529.959 192.748L531.317 193.451C548.951 202.665 565.658 214.765 575.349 232.568C575.99 233.758 576.189 235.058 576.03 236.298C578.099 238.778 580.099 241.338 582.019 243.938C587.879 251.898 592.169 260.948 596.229 269.918C604.399 287.958 609.899 306.488 614.189 325.808C618.34 344.428 621.689 363.248 624.8 382.068C628.249 402.978 631.119 424.068 631.72 445.278C632.78 483.088 625.389 521.118 604.159 552.948C585.22 581.348 556.7 603.898 522.879 611.118C488.479 618.458 452.079 611.298 424.97 588.378C420.599 584.688 421.2 577.238 424.97 573.458C429.24 569.198 435.539 569.788 439.889 573.458C465.419 595.048 502.579 598.378 533.34 587.378C561.78 577.198 584.059 553.718 597.729 527.348C614.409 495.188 617.22 458.248 614.659 422.668C613.26 403.128 610.349 383.748 607.349 364.398L605.538 352.751C603.563 340.135 601.487 327.536 598.78 315.048L598.146 312.139C594.838 297.08 590.962 281.635 584.97 267.478C581.829 260.048 578.05 252.888 574.18 245.818C573.43 244.448 572.659 243.058 571.869 241.658C570.809 242.028 569.599 242.088 568.329 241.688C557.399 238.288 546.169 236.008 534.74 235.248C529.533 234.9 524.318 234.846 519.109 235.049C510.192 234.53 501.026 235.314 492.532 238.048C491.701 237.335 490.859 236.637 490.016 235.939C489.789 235.921 489.562 235.897 489.334 235.852C487.167 235.426 485.643 233.886 484.725 231.941C484.677 231.838 484.634 231.735 484.593 231.632C483.506 230.801 482.41 229.983 481.304 229.176C478.608 229.875 476.246 227.632 475.61 225.174C475.01 224.769 474.4 224.377 473.794 223.98C473.319 224.096 472.847 224.192 472.387 224.226C470.402 224.369 468.485 224.065 466.726 223.118C464.499 221.919 463.076 219.985 462.124 217.788C458.756 217.995 455.348 216.902 452.337 214.926C449.893 213.323 448.021 211.11 446.16 208.901C423.482 198.786 398.83 192.814 374.12 191.284C371.686 191.752 369.269 192.309 366.882 192.957C366.317 193.111 365.515 193.413 364.592 193.775C370.101 193.109 375.681 193.043 381.34 193.858C408.194 197.741 429.109 217.847 447.11 236.826C451.392 235.961 455.72 241.506 451.757 245.178L420.86 273.809C421.618 277.011 417.946 280.167 414.729 279.398C409.335 278.102 403.932 276.842 398.525 275.603C392.885 278.332 385.794 277.865 380.678 273.909C380.44 273.725 379.923 273.431 379.474 273.139C379.054 273.486 378.489 273.834 378.264 273.982C376.445 275.186 374.229 275.54 372.104 275.202C369.918 274.855 367.945 273.746 366.244 272.365C365.161 271.486 362.638 267.815 361.234 267.545L361.097 267.529C362.034 267.556 359.022 270.355 358.213 270.934C356.325 272.281 354.238 272.989 351.889 272.731C347.795 272.281 344.275 268.55 342.273 265.105L342.122 264.84L342.059 264.676L342.006 264.854C341.996 264.885 341.985 264.919 341.971 264.956C341.671 265.767 340.729 266.689 340.089 267.256C338.265 268.869 336.007 269.578 333.595 269.157C331.553 268.802 329.837 267.569 328.457 266.076L328.242 265.838C327.834 265.378 325.144 261.764 325.569 260.898L325.618 260.825L325.484 260.797C323.848 261.199 322.475 260.796 321.469 259.953C315.855 258.723 310.314 257.29 304.95 255.468C304.53 256.648 304.119 257.828 303.72 259.018C306.649 260.828 309.359 263.408 311.849 265.248C316.57 268.728 321.289 272.208 325.999 275.698L344.661 289.464L346.795 288.891C349.522 288.159 351.862 289.747 352.863 292.173L352.945 292.383C353.342 293.446 353.82 294.429 354.382 295.37C359.047 295.184 362.997 298.048 364.274 302.156C365.426 302.13 366.59 302.174 367.78 302.305C371.039 302.663 373.236 305.083 372.646 308.406L372.601 308.634L372.522 309.004C374.411 309.806 375.781 311.355 376.085 313.697C376.591 314.458 376.999 315.286 377.26 316.208C378.623 320.992 375.971 326.906 374.559 331.489L374.45 331.848C373.543 334.86 372.605 337.858 371.656 340.854L369.291 348.293C362.735 369.025 356.343 390.884 361.649 412.618C362.78 417.218 356.899 419.298 354.349 415.698C348.167 406.982 341.488 398.769 334.475 390.885L334.135 390.831C329.224 389.844 327.317 386.375 325.063 382.839C323.735 383.23 322.307 383.322 320.927 383.056C318.929 382.671 317.139 381.53 315.726 380.089C314.529 378.867 313.432 375.733 312.017 374.956C310.247 373.985 306.689 375.373 304.575 375.061C302.856 374.808 301.251 374.218 299.694 373.477C296.832 377.378 294.935 381.964 294.47 386.908C294.289 388.788 293.729 390.378 292.919 391.698C295.899 391.588 298.889 391.798 301.84 392.348C312.76 394.378 320.59 401.118 324.99 411.158C325.179 411.598 324.609 411.958 324.349 411.538C317.82 401.488 303.609 400.978 293.289 404.518C282.329 408.278 276.179 417.928 273.99 428.938C271.59 441.008 274.669 454.018 281.24 464.298C284.289 469.078 288.45 473.438 293.979 475.198C300.55 477.288 306.619 473.548 313.349 475.478C317.929 476.788 319.95 481.218 319.119 485.648C318.789 487.388 318.179 488.908 317.359 490.228C319.78 495.028 322.019 499.968 324.869 504.508C329.269 511.518 334.59 517.318 340.389 523.168C346.379 529.208 352.479 535.128 358.889 540.728C365.03 546.098 372.07 549.918 378.51 554.838C383.03 558.288 385.269 563.128 383.039 568.668C381.2 573.248 374.999 577.148 369.979 575.078C360.369 571.118 351.959 564.378 344.3 557.438C337.2 550.998 331.019 543.298 326.349 534.938C321.944 527.057 318.698 518.106 315.959 509.484L315.619 508.408C314.329 504.308 312.97 499.698 312.09 495.048C306.82 497.928 299.669 498.348 294.03 497.568C284.919 496.318 276.609 491.728 270.329 485.038C267.402 481.925 264.815 478.374 262.581 474.525C262.784 476.868 262.905 479.135 263.035 481.198C268.256 486.916 270.35 495.168 268.497 502.697C272.865 507.193 274.089 513.942 271.809 519.688C276.59 524.43 276.41 531.976 274.343 538.829C279.995 545.146 280.53 554.987 276.117 562.115L275.984 562.627C280.44 570.083 279.435 579.719 273.852 586.303C277.665 593.699 277.075 603.647 267.546 606.517C264.073 607.562 260.707 606.67 258.188 604.724C260.488 616.163 261.517 627.776 258.45 639.268C257.229 643.828 252.769 647.158 248.079 647.158C244.159 647.158 241.309 645.188 239.34 642.288C239.57 648.058 239.22 653.858 237.99 659.708C237.248 663.241 233.971 665.996 230.492 666.849C231.747 668.264 232.247 670.311 231.044 672.442C225.943 681.472 213.618 677.727 212.785 669.076C209.304 666.478 207.686 662.212 207.016 657.603C206.04 650.881 205.686 644.27 204.58 637.634L204.157 638.03L203.939 638.218L203.869 638.698C203.235 641.978 201.385 644.275 198.984 645.645C199.506 651.367 198.54 657.194 194.91 661.539C192.492 664.435 188.373 665.575 184.842 664.947C184.62 664.958 184.393 664.957 184.157 664.926C176.16 663.863 171.533 656.278 173.638 649.316C170.418 645.37 169.062 640.363 170.015 635.415C163.784 631.289 163.911 622.227 166.069 614.948C159.537 609.793 157.08 600.156 160.362 592.497C154.475 585.186 153.656 574.998 157.656 566.673C151.179 561.352 151.216 551.079 157.64 545.637C154.219 538.846 152.156 530.709 155.575 524.494C153.163 521.832 151.839 518.038 152.118 514.372C152.527 508.988 156.089 505.268 160.509 502.789L160.815 501.105C161.853 501.234 162.959 500.944 163.934 500.008C164.899 499.081 165.892 498.334 166.919 497.718C168.082 497.703 169.083 497.185 169.787 496.388C171.713 495.734 173.784 495.445 176.081 495.419C181.042 495.365 181.217 487.946 176.6 487.465C175.871 486.73 174.867 486.267 173.778 486.267L172.925 486.271C170.932 486.29 168.919 486.413 167.069 487.205C165.867 487.719 164.94 488.494 164.261 489.442C164.134 490.876 163.354 492.306 161.665 493.487C159.714 494.851 157.046 495.01 154.958 493.776C152.035 492.048 152.005 489.351 152.342 486.419C153.08 480.005 149.392 473.969 150.27 467.407C150.659 464.506 151.625 462.001 153.2 459.978C149.879 455.007 149.293 448.59 151.85 443.133C146.523 437.402 145.602 428.568 148.999 421.671C149.048 421.504 149.086 421.333 149.139 421.168C149.523 419.996 150.052 418.939 150.635 417.928C147.653 412.762 147.675 406.423 150.706 401.279C146.115 395.927 145.969 387.41 150.052 381.644C150.076 381.166 150.126 380.688 150.167 380.21C148.293 375.345 148.743 369.814 151.12 365.29C150.272 363.335 149.618 361.23 149.2 358.988C148.129 353.208 148.68 347.588 150.28 341.948C150.539 341.058 150.829 340.168 151.139 339.278C151.191 335.415 151.338 331.569 151.532 327.73C150.772 324.481 150.649 320.909 150.632 317.594L150.627 315.444C150.59 309.973 150.209 301.962 153.668 297.311C151.447 292.287 152.36 285.957 156.067 281.975C153.465 277.5 152.919 272.005 155.534 267.04C155.954 266.241 156.441 265.497 156.975 264.793C156.759 260.246 157.716 255.557 160.139 251.038C161.713 248.096 164.064 245.549 166.859 243.511C166.812 242.908 166.783 242.306 166.793 241.713C166.842 239.067 167.429 236.41 168.417 233.931C166.644 230.905 165.822 227.494 166.859 223.818C168.019 219.658 171.07 216.078 174.879 214.058C175.186 210.136 175.799 206.237 176.675 202.39C174.334 197.177 176.198 190.297 181.489 187.226C180.799 183.06 181.421 178.74 184.453 175.486C185.602 174.253 186.956 173.318 188.413 172.698C187.711 168.509 188.503 164.151 191.4 160.74C193.766 157.955 197.272 156.263 200.84 156.014C202.214 148.728 209.175 143.28 216.519 143.714C217.437 140.506 219.63 137.709 223.032 136.291C223.903 135.928 224.783 135.689 225.66 135.556C231.632 129.532 240.523 125.449 248.22 123.358C255.941 121.269 263.767 121.067 270.396 123.496L270.879 123.678L271.419 123.608C273.76 123.348 276.099 123.198 278.439 123.138ZM219.769 616.874C217.707 616.231 215.407 617.635 214.848 619.667C214.258 621.815 215.572 623.943 217.642 624.588C220.221 625.392 222.93 625.593 225.618 625.595C227.779 625.597 229.618 623.755 229.618 621.595C229.618 619.424 227.787 617.597 225.618 617.595C223.432 617.593 221.818 617.513 219.769 616.874ZM201.426 574.395C198.343 574.398 195.699 575.134 193.413 577.294C191.889 578.735 191.851 581.518 193.413 582.952C194.991 584.4 197.28 584.484 198.899 583.106L199.211 582.826C199.249 582.792 199.278 582.765 199.301 582.742C199.431 582.658 199.562 582.572 199.7 582.5L199.439 582.671C199.241 582.814 199.701 582.58 199.96 582.469L200.041 582.436L200.067 582.43L200.274 582.414C200.657 582.394 201.042 582.395 201.426 582.395C203.518 582.393 205.522 580.557 205.426 578.395C205.328 576.229 203.668 574.393 201.426 574.395ZM259.604 549.017C263.934 546.362 260.066 539.572 255.724 542.017L255.567 542.109C253.341 543.475 250.603 543.29 248.081 543.291C242.934 543.294 242.925 551.294 248.081 551.291L248.933 551.288C252.63 551.26 256.37 551.002 259.604 549.017ZM225.529 519.818C222.258 519.203 218.593 518.653 215.151 519.028L214.58 519.099H213.521C212.601 519.099 211.71 519.469 210.995 520.051C209.863 520.521 208.791 521.151 207.813 521.998C203.916 525.377 209.595 531.015 213.47 527.656C213.685 527.469 213.935 527.315 214.213 527.189L214.426 527.099H218.705C219.094 527.099 219.473 527.018 219.842 526.901C221.231 527.092 222.525 527.367 223.402 527.532C228.434 528.479 230.59 520.77 225.529 519.818ZM221.876 443.038C215.606 440.13 208.662 440.151 202.863 444.189C198.716 447.077 202.568 453.887 206.751 451.197L206.9 451.097C207.42 450.735 207.954 450.432 208.494 450.157C211.438 451.008 214.401 451.048 217.247 450.002L217.618 449.859L217.839 449.945C222.479 452.097 226.547 445.204 221.876 443.038ZM290.153 430.504C283.819 429.794 283.768 419.788 290.153 420.504C303.634 422.016 315.866 428.009 324.825 438.301C328.992 443.087 322.13 450.09 317.885 445.517L317.754 445.372C310.63 437.188 301.016 431.722 290.153 430.504ZM219.194 379.131C217.786 378.977 216.381 378.9 214.998 378.967C211.676 379.127 207.63 381.343 209.088 385.347C210.257 388.555 214.089 388.682 215.981 386.971C216.768 386.99 217.554 387.042 218.337 387.122C220.426 387.337 222.495 387.735 224.554 388.141C229.583 389.13 231.736 381.421 226.681 380.426L224.445 379.984C223.692 379.837 222.932 379.692 222.168 379.56C221.711 379.333 221.221 379.18 220.698 379.141L220.433 379.131H219.194ZM179.449 317.066L178.979 317.003C172.224 316.138 161.381 316.934 160.561 325.532C160.108 330.294 166.988 330.593 168.346 326.521C173.334 325.622 178.363 325.45 183.317 325.996C185.207 324.076 185.222 320.385 182.076 319.464C181.632 318.27 180.705 317.247 179.449 317.066ZM333.854 302.543C332.293 301.11 329.733 300.92 328.197 302.543C327.312 303.477 326.573 304.515 325.988 305.657L325.599 306.428C325.533 306.556 325.465 306.684 325.395 306.809C325.264 307.042 325.117 307.264 324.974 307.49L324.878 307.585C324.839 307.624 324.794 307.67 324.741 307.727C323.302 309.248 323.119 311.895 324.741 313.384C326.302 314.817 328.861 315.007 330.398 313.384C331.282 312.45 332.021 311.413 332.607 310.27L332.996 309.5C333.061 309.372 333.129 309.245 333.199 309.119C333.33 308.885 333.478 308.663 333.62 308.437L333.779 308.278C333.802 308.255 333.827 308.229 333.854 308.2C335.293 306.68 335.475 304.032 333.854 302.543ZM251.828 292.126C246.192 288.132 239.49 287.946 234.309 292.751C230.57 296.22 236.063 301.776 239.834 298.527L239.966 298.408C240.103 298.28 240.242 298.168 240.38 298.061C241.056 298.637 241.915 299.002 242.897 299.003C243.154 299.004 243.41 299.003 243.666 299.009L244.05 299.022L244.256 299.039L244.282 299.044L244.462 299.121C244.791 299.269 245.245 299.498 244.622 299.108C244.761 299.181 244.891 299.267 245.023 299.351L245.253 299.56C246.761 300.986 249.37 301.174 250.867 299.597C253.518 298.701 254.925 294.319 251.828 292.126ZM306.931 279.022L307.033 278.989C311.975 277.578 309.874 269.857 304.906 271.274C299.635 272.779 297.118 277.684 296.064 282.708C295.621 284.821 296.684 287.032 298.858 287.629C300.844 288.174 303.333 286.959 303.779 284.835C304.092 283.342 304.452 282.074 305.023 280.898L305.369 280.227C305.53 279.921 305.587 279.87 306.132 279.394C306.224 279.314 306.64 279.121 306.931 279.022ZM223.225 238.73L222.452 238.554C217.638 237.499 211.247 236.949 208.34 241.721C205.69 246.069 212.375 250.027 215.128 245.917C215.17 245.916 215.218 245.916 215.274 245.921L215.365 245.931L216.599 245.831C218.136 245.82 219.607 246.092 221.098 246.445C226.104 247.63 228.241 239.918 223.225 238.73ZM396.061 207.976C399.706 204.331 394.051 198.672 390.405 202.32C387.522 205.203 384.741 208.106 382.867 211.769C381.884 213.691 382.365 216.109 384.302 217.242C386.089 218.287 388.787 217.737 389.775 215.807C391.399 212.632 393.449 210.59 396.061 207.976ZM350.067 198.408C346.466 200.54 344.135 204.052 342.72 208.117C342.01 210.157 343.529 212.492 345.514 213.037C347.647 213.623 349.596 212.374 350.363 210.433L350.434 210.243C350.813 209.156 351.419 207.872 352.168 206.903C352.808 206.076 353.803 205.248 354.553 204.973C356.356 204.311 357.634 202.677 357.467 200.769C354.502 201.794 351.749 200.561 350.067 198.408ZM242.27 181.008C238.637 177.636 233.763 177.189 229.359 179.23C227.398 180.138 226.907 182.965 227.924 184.703C229.1 186.714 231.429 187.05 233.396 186.138C232.891 186.372 233.803 186.063 234.197 185.95C234.247 185.974 234.908 185.944 235.136 185.947L235.41 185.964C235.412 185.966 235.345 185.965 235.208 185.96C235.4 186.004 235.59 186.055 235.777 186.115L236.015 186.198C235.895 186.173 236.435 186.525 236.586 186.642L236.613 186.664C240.383 190.163 246.054 184.519 242.27 181.008Z" fill="black"/>
</svg>
