<svg width="900" height="900" viewBox="0 0 900 900" fill="none" xmlns="http://www.w3.org/2000/svg">
<path fill-rule="evenodd" clip-rule="evenodd" d="M476.862 468.963L477.274 468.941C480.09 468.781 482.824 468.37 485.339 469.947C488.682 472.044 488.697 476.812 485.339 478.904C482.697 480.552 479.826 480.011 476.862 479.934C474.421 479.87 471.979 479.826 469.538 479.8C464.658 479.749 459.782 479.737 454.902 479.762C450.499 479.784 446.093 479.732 441.691 479.626L439.805 479.577C435.291 479.453 430.564 479.609 426.116 478.73L425.925 478.697L425.931 478.688C425.16 478.429 424.753 477.2 425.674 476.773C430.087 474.728 435.131 473.87 439.87 472.897C444.668 471.913 449.548 471.202 454.414 470.645C459.274 470.09 464.169 469.698 469.05 469.387C471.652 469.22 474.257 469.082 476.862 468.963ZM462.095 406.102L462.417 405.887C465.951 403.553 471.029 401.306 475.102 403.078C475.332 403.178 475.526 403.308 475.695 403.458C476.695 403.478 477.701 403.561 478.71 403.713C486.681 404.914 494.047 410.146 497.649 417.348C501.742 425.535 499.798 434.162 492.554 439.73C488.995 442.465 484.813 444.435 480.31 444.879C478.838 445.024 477.278 445.052 475.865 444.606C476.534 446.03 477.043 447.519 477.305 449.089C478.202 454.464 476.07 458.896 471.063 461.217C466.664 463.257 460.575 464.039 456.224 461.464C452.546 459.288 453.75 452.084 458.59 452.729C461.857 453.165 464.802 454.255 468.03 452.862C470.662 451.728 469.065 447.898 468.272 445.884C466.945 442.517 464.993 439.348 463.41 436.079L463.118 435.465C462.122 433.333 460.886 431.081 459.939 428.784C459.418 431.482 458.484 434.13 457.383 436.581C454.77 442.397 449.712 445.955 443.685 447.622C437.489 449.334 430.218 449.732 423.829 449.521C417.332 449.308 410.492 447.605 405.739 442.896C397.031 434.27 399.532 419.177 408.695 411.966C414.623 407.302 422.975 404.105 430.645 404.933C434.487 404.069 438.784 404.56 442.628 405.431C447.829 406.609 452.795 409.132 456.195 413.149C456.447 412.517 456.738 411.912 457.071 411.334C456.921 411.265 456.828 411.043 456.976 410.91C457.247 410.666 457.525 410.433 457.804 410.199C458.911 408.646 460.342 407.293 462.095 406.102ZM399.086 446.533C398.773 446.089 399.385 445.513 399.824 445.796C403.421 448.115 407.186 450.224 411.311 451.453C415.34 452.653 419.528 452.529 423.575 453.555C425.096 453.941 424.855 455.918 423.575 456.403C419.121 458.091 414.096 456.674 409.864 454.883C405.571 453.066 401.792 450.363 399.086 446.533ZM423.227 409.48L423.334 409.351L423.073 409.438C418.032 411.135 413.881 413.933 410.507 418.017C404.757 424.978 404.688 436.045 413.286 440.749C417.922 443.285 423.394 443.404 428.541 443.136L429.582 443.08C434.1 442.831 438.711 442.461 443.072 441.239C447.827 439.906 451.131 437.032 452.951 432.401L453.102 432.01C454.917 427.243 455.862 421.942 452.492 417.627C446.784 410.318 433.595 408.858 425.442 412.352C423.49 413.188 421.923 411.147 423.227 409.48ZM475.543 407.519C475.408 407.651 475.263 407.772 475.102 407.869C473.465 408.851 471.625 408.861 469.811 409.311C468.14 409.725 466.504 410.231 464.966 411.014C462.55 412.241 460.059 413.71 457.775 415.311C458.264 416.093 458.702 416.919 459.078 417.793C460.115 420.208 460.464 422.752 460.355 425.306C461.947 426.683 463.277 428.395 464.686 429.943L465.928 431.309C467.377 432.908 468.816 434.524 470.165 436.202C470.966 437.199 471.78 438.22 472.561 439.271C472.664 438.957 472.808 438.65 473.011 438.359C473.772 437.261 474.948 436.706 476.291 437.024C477.467 437.303 478.253 437.835 479.482 437.843C480.986 437.853 482.436 437.529 483.86 437.064C486.659 436.151 489.402 434.511 491.449 432.386C496.069 427.588 493.632 420.828 490.028 416.258C486.377 411.628 481.135 408.622 475.543 407.519ZM434.397 419.042C435.88 418.614 438.086 419.289 438.739 420.809L439.207 421.916C439.192 421.883 439.181 421.857 439.167 421.827C439.333 422.219 439.491 422.598 439.618 423L440.057 423.34C440.431 423.755 440.778 424.194 441.096 424.656C441.848 425.941 442.066 427.587 441.681 429.027C441.045 431.406 438.86 432.934 436.436 432.949C429.341 432.99 427.602 421.004 434.397 419.042ZM477.202 416.889C480.481 416.742 482.664 419.638 482.926 422.612C483.075 424.305 482.732 426.156 482.247 427.775C481.523 430.191 479.221 431.704 476.739 431.371C474.763 431.106 473.018 429.604 472.526 427.673C471.877 426.081 471.51 424.33 471.479 422.612C471.419 419.405 474.149 417.025 477.202 416.889ZM433.938 390.124C437.263 389.588 440.439 391.204 440.923 394.777C441.41 398.382 438.755 400.764 435.426 401.118C429.149 401.785 422.74 401.943 416.433 402.219C413.802 402.333 411.168 402.382 408.535 402.405L407.219 402.415C404.77 402.429 401.576 402.913 399.363 401.707C399.219 401.629 399.225 401.452 399.316 401.34C400.871 399.425 404.087 398.609 406.385 397.766L406.58 397.693C409.489 396.596 412.431 395.568 415.412 394.679L416.927 394.229C422.496 392.589 428.227 391.046 433.938 390.124ZM455.044 388.371C457.099 387.598 459.127 388.08 460.525 389.386C465.198 390.687 470.008 391.684 474.712 392.824L475.992 393.138C481.889 394.61 488.369 395.744 493.853 398.441C494.435 398.728 494.069 399.471 493.557 399.533C487.448 400.275 480.867 399.096 474.793 398.386C468.571 397.658 462.317 396.458 456.076 395.988C451.596 395.651 450.945 389.912 455.044 388.371Z" fill="black"/>
</svg>
