<svg width="284" height="284" viewBox="0 0 284 284" fill="none" xmlns="http://www.w3.org/2000/svg">
<path fill-rule="evenodd" clip-rule="evenodd" d="M182.735 195.811C183.429 195.623 184.04 196.555 183.465 197.065C181.111 199.154 179.616 203.046 177.898 205.699C176.264 208.223 174.689 210.721 173.252 213.363C171.641 216.324 170.085 219.274 168.831 222.407L168.583 223.039C168.959 223.932 169.252 224.814 169.469 225.392L169.531 225.557C171.673 231.027 167.177 237.106 162.106 238.635C153.432 241.25 145.99 234.127 145.783 225.656C145.62 218.992 150.137 213.054 154.727 208.649C158.742 204.796 163.238 201.516 168.267 199.113C170.486 198.054 172.791 197.168 175.2 196.654C177.664 196.129 180.322 196.463 182.735 195.811ZM166.387 219.961C167.023 220.261 167.566 220.994 168.023 221.85C167.795 221.124 167.324 220.402 166.387 219.961ZM171.814 127.367C179.366 131.957 190.872 142.66 182.748 154.04C173.186 164.073 159.418 152.569 152.634 147.366C146.343 143.334 139.275 153.705 145.112 158.413C194.136 194.708 214.031 128.568 175.634 121.971C171.406 121.244 169.836 125.947 171.814 127.367ZM109.741 83.2924L111.075 83.1805C116.862 82.6705 122.722 81.8931 128.429 83.2024C136.096 84.9624 135.534 96.1164 128.429 98.1674C122.167 99.9744 115.228 99.1924 108.764 99.2544C107.747 99.2644 106.732 99.2904 105.716 99.3074C105.516 101.724 104.723 103.808 103.509 105.89C102.639 107.384 101.529 108.803 100.437 110.13C97.8411 113.284 91.7181 113.213 89.0981 110.13C87.1601 107.848 85.6171 105.223 85.5921 102.134C85.5861 101.343 85.6821 100.503 85.8711 99.6774L82.343 99.7391C73.7079 99.8709 65.0069 99.8124 56.5281 98.4404C53.5121 99.0644 51.0441 93.6224 55.2071 91.9934C66.5241 87.5674 79.1671 86.2644 91.1761 84.9354C97.3471 84.2514 103.552 83.7804 109.741 83.2924ZM206.153 78.7187L206.46 78.688C213.949 77.921 222.204 76.593 229.708 77.357C240.912 78.496 240.893 93.642 229.708 94.775C225.602 95.191 221.276 94.989 216.962 94.591C219.167 99.269 216.551 104.856 211.238 105.57C206.301 106.233 201.184 101.435 202.804 96.2893L202.879 96.062C203.195 95.169 203.479 94.171 203.816 93.186L202.03 93.0353C196.689 92.5632 189.276 91.5989 187.31 87.382C186.717 86.111 186.854 84.931 187.767 83.845C191.511 79.3887 200.74 79.2421 206.153 78.7187ZM126.517 44.0406C131.937 42.0716 137.57 46.6796 138.273 51.8726C139.082 57.8569 134.766 61.7969 129.295 62.5116L129.021 62.5446C116.945 63.8746 104.96 66.3066 92.8679 67.6816C87.376 68.3053 81.8429 68.7157 76.3143 68.8633L72.3632 68.9521C67.5216 69.0745 62.3287 69.1849 57.8589 67.5176L57.8759 67.4876C56.6889 67.1436 56.1429 65.4316 57.4639 64.4956C62.2229 61.1306 68.6379 59.8586 74.1779 58.2596C79.7479 56.6506 85.3589 55.1676 90.9849 53.7746C102.799 50.8526 115.071 48.1986 126.517 44.0406ZM176.503 45.4395C177.939 37.8685 188.664 37.0565 192.603 42.5655C195.149 43.4395 198.882 44.3515 201.195 45.0375C205.225 46.2325 209.258 47.4205 213.3 48.5715C221.67 50.9555 229.838 53.9775 238.067 56.7945C238.915 57.0855 238.682 58.1615 237.867 58.2685C226.382 59.7633 215.089 60.459 203.534 59.9796L201.165 59.8729C190.983 59.4762 173.698 60.233 176.503 45.4395Z" fill="black"/>
</svg>
