<svg width="284" height="284" viewBox="0 0 284 284" fill="none" xmlns="http://www.w3.org/2000/svg">
<path fill-rule="evenodd" clip-rule="evenodd" d="M197.649 180.313C189.262 175.86 179.422 176.613 171.001 180.591C160.707 185.454 152.748 193.44 145.698 202.22C142.991 205.591 140.459 209.107 137.929 212.619C136.888 214.064 135.847 215.509 134.795 216.943C134.59 217.211 134.364 217.501 134.126 217.807C132.441 219.973 130.14 222.968 129.26 225.686C128.906 226.777 128.775 227.83 128.933 228.789C129.01 229.254 129.153 229.699 129.371 230.119C128.027 230.467 127.13 230.136 126.51 229.468C125.527 228.411 125.183 226.824 125.169 225.002C125.119 218.476 129.422 208.963 131.179 205.042C131.36 204.639 131.515 204.293 131.637 204.013C137.992 189.473 148.157 175.31 162.289 167.473C175.981 159.88 192.186 158.445 206.352 165.624C222.001 173.554 226.271 189.258 228.044 205.397C228.316 207.869 227.197 210.149 225.477 211.87C223.535 213.812 220.807 215.069 218.257 215.069C215.609 215.069 213.185 213.948 211.412 212.175C209.625 210.388 208.496 207.935 208.476 205.277L208.459 203.729C208.377 198.34 207.999 193.28 206.043 188.989C204.47 185.54 201.896 182.569 197.649 180.313ZM176.815 107.938C184.366 112.528 195.872 123.231 187.749 134.61C178.187 144.644 164.419 133.139 157.635 127.937C151.344 123.904 144.276 134.275 150.113 138.983C199.136 175.279 219.031 109.138 180.634 102.541C176.407 101.814 174.837 106.518 176.815 107.938ZM113.251 109.444C111.216 110.44 108.961 110.844 106.749 110.383C104.768 109.969 102.832 108.86 101.117 106.903C98.7635 104.214 97.0546 100.396 98.1966 96.7532L98.5235 95.8163C98.9101 94.7265 99.431 93.705 100.065 92.7785C100.472 90.7938 100.554 89.4941 100.631 88.2599C100.65 87.9446 100.67 87.6336 100.692 87.3233C100.813 85.5949 101.067 83.7852 101.647 82.1211C101.757 81.8077 101.878 81.4976 102.009 81.191C101.685 81.0773 101.36 80.9632 101.035 80.8488C98.7925 80.0583 96.5565 79.2548 94.3327 78.4145C88.008 76.0234 81.7539 73.3279 75.7001 70.3119C72.709 68.8213 69.7934 67.1443 66.9147 65.4476C65.54 64.5333 62.5244 62.4048 61.1721 61.2587L60.1459 60.389L59.6087 61.6223C59.0314 62.2039 58.5656 62.2491 58.174 62.1185C57.753 61.9781 57.4411 61.6463 57.245 61.2477C57.009 60.7678 56.9353 60.1837 57.0599 59.6199C57.172 59.112 57.4492 58.6216 57.9172 58.2354C59.7009 56.7647 62.2168 57.4031 64.3072 57.813C64.6056 57.8716 64.8977 57.9288 65.1813 57.9806C68.432 58.5746 71.675 59.282 74.9048 60.0122L78.7926 60.8979C80.2762 61.2363 81.7593 61.5762 83.2422 61.916C100.089 65.7769 116.907 69.6284 134.123 71.3209L135.937 71.491C139.006 71.7649 141.737 73.068 143.536 75.1432C145.193 77.0547 146.039 79.6188 145.637 82.5919C145.244 85.5017 143.607 87.9243 141.354 89.4247C139.113 90.9174 136.261 91.4973 133.415 90.733C128.071 89.2998 122.739 87.7919 117.432 86.1928L118.673 89.1416C119.741 91.7106 120.726 94.373 120.842 97.0904C120.95 99.6438 120.201 102.115 118.905 104.23C117.525 106.481 115.524 108.331 113.251 109.444ZM233.353 48C232.035 49.7989 230.52 51.3354 229.011 52.8751C225.751 56.2007 222.492 59.5261 219.001 62.6196C217.735 63.7417 216.456 64.8473 215.176 65.9531C214.702 66.3635 214.227 66.774 213.752 67.1853L213.005 67.833L213.644 68.5872C213.816 68.7896 213.978 68.9987 214.113 69.2201C216.031 72.3597 217.096 75.7673 218.174 79.185C218.913 81.5264 219.655 83.8738 220.651 86.1535L220.973 86.8678C222.27 89.6579 222.619 92.5706 221.93 95.199C221.28 97.6748 219.706 99.8847 217.18 101.494C216.545 101.899 215.461 102.369 214.727 102.532C211.832 103.174 208.901 102.726 206.505 101.366C204.214 100.065 202.419 97.9285 201.622 95.1258C200.447 90.9849 199.691 86.7779 199.731 82.6776C199.738 81.9831 199.768 81.286 199.818 80.5872C199.361 81.0518 198.836 81.4603 198.24 81.7972C196.384 82.8453 194.288 82.9485 192.316 82.4134C190.086 81.808 188.008 80.3909 186.569 78.5386C185.302 76.9075 184.528 74.9318 184.628 72.8664C184.715 71.0637 185.476 69.2071 187.103 67.4583L188.638 65.8949C189.78 64.7362 191.352 63.8449 193.027 63.3943C194.564 62.9809 196.194 62.9366 197.657 63.4353C199.628 62.8959 200.907 62.2599 202.094 61.6684C202.939 61.2472 203.736 60.8494 204.447 60.5398C207.91 59.0337 211.36 57.4985 214.798 55.9361C217.78 54.58 220.808 53.3283 223.836 52.0763C227.027 50.7574 230.217 49.438 233.353 48Z" fill="black"/>
</svg>
