<svg width="900" height="900" viewBox="0 0 900 900" fill="none" xmlns="http://www.w3.org/2000/svg">
<path fill-rule="evenodd" clip-rule="evenodd" d="M454.794 478.463C451.432 477.092 448.433 474.805 446.241 471.883C445.479 470.868 445.281 469.794 445.441 468.813C445.621 467.71 446.273 466.711 447.163 466.04C448.056 465.368 449.173 465.036 450.252 465.205C451.191 465.352 452.124 465.865 452.864 466.931L453.018 467.144C454.321 468.907 456.02 470.354 457.955 471.287C459.821 472.186 461.907 472.606 464.066 472.362C468.178 471.897 471.012 469.673 474.025 466.653C474.398 466.272 474.772 465.878 475.147 465.479C475.384 465.117 475.713 464.884 476.079 464.762C476.484 464.627 476.943 464.634 477.363 464.781C477.769 464.922 478.131 465.19 478.374 465.547C478.605 465.886 478.736 466.305 478.693 466.787C478.418 469.917 476.781 472.709 474.457 474.902C471.876 477.338 468.454 479.024 465.233 479.615C461.684 480.266 458.068 479.799 454.794 478.463ZM466.907 430.184C470.683 432.479 476.436 437.83 472.374 443.52C467.593 448.537 460.709 442.784 457.317 440.183C454.172 438.167 450.638 443.352 453.556 445.706C478.068 463.854 488.016 430.784 468.817 427.485C466.703 427.122 465.918 429.474 466.907 430.184ZM422.982 409.073C423.399 403.895 431.285 402.719 432.07 407.843C432.772 412.433 431.945 416.65 429.878 420.782C427.902 424.73 422.937 422.888 422.561 419.293C422.058 414.474 422.722 412.294 422.982 409.073ZM483.014 406.781C484.113 405.341 485.701 404.358 487.603 404.913C493.545 406.65 491.794 415.086 489.707 419.193C488.573 421.423 484.907 421.988 483.251 420.025C480.551 416.823 479.258 410.428 482.69 407.274C482.783 407.111 482.887 406.947 483.014 406.781ZM429.794 386.415L430.733 386.251C433.637 385.749 437.247 385.266 439.302 387.601C440.391 388.839 440.766 391.14 439.302 392.325C436.726 394.41 433.878 393.602 430.79 393.778C428.246 393.924 425.801 394.345 423.351 395.046C417.975 396.582 413.594 399.387 409.003 402.467C408.4 402.871 407.785 402.101 408.073 401.537C410.723 396.346 415.86 392.081 421.005 389.482C423.751 388.094 426.756 386.943 429.794 386.415ZM477.597 384.09L478.315 384.237C486.134 385.871 496.292 389.136 499.994 396.815C500.136 397.901 499.986 398.134 499.865 398.286L499.825 398.337C499.725 398.466 499.645 398.645 499.175 398.793C499.044 398.762 498.912 398.729 498.779 398.694C497.082 398.249 495.739 397.637 494.439 397.001L493.029 396.307C491.394 395.505 489.744 394.732 487.996 394.162C484.265 392.945 480.427 392.087 476.53 391.63C475.685 391.531 474.872 391.246 474.23 390.757C473.621 390.293 473.156 389.651 472.944 388.798C472.669 387.693 472.748 386.857 473.34 385.86C473.786 385.112 474.424 384.593 475.156 384.296C475.902 383.992 476.752 383.92 477.597 384.09Z" fill="black"/>
</svg>
